<svg id="Raggruppa_20759" data-name="Raggruppa 20759" xmlns="http://www.w3.org/2000/svg" xmlns:xlink="http://www.w3.org/1999/xlink" width="142.211" height="42.866" viewBox="0 0 142.211 42.866">
  <defs>
    <clipPath id="clip-path">
      <rect id="Rettangolo_146035" data-name="Rettangolo 146035" width="142.211" height="42.866" fill="none"/>
    </clipPath>
  </defs>
  <rect id="Rettangolo_146030" data-name="Rettangolo 146030" width="43.605" height="42.865" transform="translate(0 0)" fill="#bababa"/>
  <rect id="Rettangolo_146031" data-name="Rettangolo 146031" width="14.138" height="14.137" transform="translate(2.296 2.295)" fill="#d9000d"/>
  <rect id="Rettangolo_146032" data-name="Rettangolo 146032" width="14.137" height="14.137" transform="translate(26.898 2.295)" fill="#d9000d"/>
  <rect id="Rettangolo_146033" data-name="Rettangolo 146033" width="14.138" height="14.134" transform="translate(2.296 26.617)" fill="#d9000d"/>
  <rect id="Rettangolo_146034" data-name="Rettangolo 146034" width="14.137" height="14.134" transform="translate(26.898 26.617)" fill="#d9000d"/>
  <g id="Raggruppa_20758" data-name="Raggruppa 20758">
    <g id="Raggruppa_20757" data-name="Raggruppa 20757" clip-path="url(#clip-path)">
      <path id="Tracciato_60132" data-name="Tracciato 60132" d="M243.343,28.891h-3.91l-4.948-8.516c-.355.018-.642.027-.867.027-.088,0-.183,0-.285-.007l-.321-.02v5.316a4.349,4.349,0,0,0,.306,2.117,1.362,1.362,0,0,0,1.214.584h.555v.5h-6.232v-.5h.547a1.371,1.371,0,0,0,1.315-.745,5.277,5.277,0,0,0,.216-1.955v-11.8a4.538,4.538,0,0,0-.294-2.115,1.417,1.417,0,0,0-1.237-.584h-.547v-.5h5.3a10.08,10.08,0,0,1,3.4.423,4,4,0,0,1,1.869,1.553,4.7,4.7,0,0,1,.77,2.7,4.881,4.881,0,0,1-.879,2.91,4.75,4.75,0,0,1-2.7,1.743l3.021,5.228a8.624,8.624,0,0,0,1.766,2.392,3.863,3.863,0,0,0,1.937.75Zm-10.33-9.348c.13,0,.247,0,.347.007s.183.007.246.007a4.02,4.02,0,0,0,3.1-1.124,4.04,4.04,0,0,0,1.046-2.869,4.342,4.342,0,0,0-.837-2.766,2.7,2.7,0,0,0-2.232-1.066,6.642,6.642,0,0,0-1.665.291Z" transform="translate(-182.229 -8.515)" fill="#fff"/>
      <path id="Tracciato_60133" data-name="Tracciato 60133" d="M305.374,11.733v7.146h3.076a2.211,2.211,0,0,0,1.657-.464,3.444,3.444,0,0,0,.629-2.155h.416v6.318h-.416a9.056,9.056,0,0,0-.307-1.7,1.513,1.513,0,0,0-.629-.736,2.681,2.681,0,0,0-1.351-.269h-3.076V25.83a6.692,6.692,0,0,0,.087,1.458.806.806,0,0,0,.3.411,1.448,1.448,0,0,0,.8.154h2.452a5.475,5.475,0,0,0,1.789-.211,2.62,2.62,0,0,0,1.066-.835,10.515,10.515,0,0,0,1.362-2.484h.458l-1.259,4.569h-11.21v-.5h.511a1.718,1.718,0,0,0,.98-.306,1.065,1.065,0,0,0,.469-.641,8.18,8.18,0,0,0,.119-1.754v-11.8a4.844,4.844,0,0,0-.281-2.157,1.455,1.455,0,0,0-1.287-.543h-.511v-.5H312.4l.164,3.987h-.458a7.286,7.286,0,0,0-.5-1.944,1.843,1.843,0,0,0-.8-.807,3.931,3.931,0,0,0-1.5-.2Z" transform="translate(-239.848 -8.516)" fill="#fff"/>
      <path id="Tracciato_60134" data-name="Tracciato 60134" d="M381.476,8.651l.335,5.735h-.417a8.292,8.292,0,0,0-1.467-3.216,4.075,4.075,0,0,0-3.3-1.564,4.544,4.544,0,0,0-4.208,2.742,11.814,11.814,0,0,0-1.2,5.509,13.385,13.385,0,0,0,.8,4.737,6.873,6.873,0,0,0,2.107,3.135,4.382,4.382,0,0,0,2.685,1,4.852,4.852,0,0,0,1.554-.253,5.546,5.546,0,0,0,1.448-.742v-5.2a6.229,6.229,0,0,0-.166-1.82,1.326,1.326,0,0,0-.515-.655,2.4,2.4,0,0,0-1.228-.225v-.5h5.648v.5h-.271a1.165,1.165,0,0,0-1.169.711,5.8,5.8,0,0,0-.221,1.99v5.544a9.644,9.644,0,0,1-2.429,1.215,8.679,8.679,0,0,1-2.669.387,7.159,7.159,0,0,1-6.4-3.381,10.571,10.571,0,0,1-1.633-5.852,11.759,11.759,0,0,1,.927-4.6,9.224,9.224,0,0,1,3-4.027,6.206,6.206,0,0,1,3.766-1.167,5.927,5.927,0,0,1,1.443.162,11.285,11.285,0,0,1,1.836.717,2.575,2.575,0,0,0,.805.285.424.424,0,0,0,.349-.237,2.139,2.139,0,0,0,.176-.927Z" transform="translate(-293.629 -6.888)" fill="#fff"/>
      <path id="Tracciato_60135" data-name="Tracciato 60135" d="M451.693,28.392v.5H445.46v-.5h.523a1.409,1.409,0,0,0,1.3-.65,4.982,4.982,0,0,0,.254-2.05v-11.8a7.633,7.633,0,0,0-.134-1.809,1.15,1.15,0,0,0-.441-.571,1.722,1.722,0,0,0-.979-.319h-.523v-.5h6.233v.5h-.519a1.407,1.407,0,0,0-1.295.652,4.783,4.783,0,0,0-.264,2.048v11.8a7.673,7.673,0,0,0,.133,1.811,1.109,1.109,0,0,0,.452.57,1.642,1.642,0,0,0,.974.319Z" transform="translate(-354.701 -8.516)" fill="#fff"/>
      <path id="Tracciato_60136" data-name="Tracciato 60136" d="M489.91,8.651a6.091,6.091,0,0,1,4.917,2.691,10.659,10.659,0,0,1,2.079,6.717,11,11,0,0,1-2.1,6.885,6.109,6.109,0,0,1-10.143.066,11.014,11.014,0,0,1-2.052-6.91,10.424,10.424,0,0,1,2.369-7.074,6.308,6.308,0,0,1,4.927-2.375m-.216.955a3.609,3.609,0,0,0-3.145,1.815q-1.482,2.256-1.482,6.613A12.753,12.753,0,0,0,486.6,24.9a3.548,3.548,0,0,0,3.1,1.827,3.979,3.979,0,0,0,3.4-2q1.344-2,1.342-6.312,0-4.678-1.471-6.974a3.724,3.724,0,0,0-3.29-1.829" transform="translate(-384.286 -6.888)" fill="#fff"/>
      <path id="Tracciato_60137" data-name="Tracciato 60137" d="M555.43,10.695h3.96l8.9,13.535V13.853a4.434,4.434,0,0,0-.3-2.1,1.468,1.468,0,0,0-1.275-.563h-.5v-.5h5.11v.5H570.8a1.4,1.4,0,0,0-1.331.7,5.1,5.1,0,0,0-.232,1.961V29.186h-.391l-9.621-14.667V25.736a4.634,4.634,0,0,0,.283,2.095,1.5,1.5,0,0,0,1.279.562h.512v.5H556.2v-.5h.5a1.4,1.4,0,0,0,1.342-.7,5.088,5.088,0,0,0,.232-1.959V13.062a7.6,7.6,0,0,0-.959-1.206,3.254,3.254,0,0,0-.959-.543,2.685,2.685,0,0,0-.926-.12Z" transform="translate(-442.266 -8.516)" fill="#fff"/>
      <path id="Tracciato_60138" data-name="Tracciato 60138" d="M640.98,11.733v7.146h3.076a2.2,2.2,0,0,0,1.655-.464,3.429,3.429,0,0,0,.63-2.155h.413v6.318h-.413a8.742,8.742,0,0,0-.31-1.7,1.493,1.493,0,0,0-.626-.736,2.679,2.679,0,0,0-1.349-.269H640.98V25.83a6.706,6.706,0,0,0,.087,1.458.809.809,0,0,0,.3.411,1.457,1.457,0,0,0,.8.154h2.454a5.47,5.47,0,0,0,1.785-.211,2.625,2.625,0,0,0,1.069-.835,10.658,10.658,0,0,0,1.359-2.484h.456l-1.257,4.569H636.826v-.5h.51a1.712,1.712,0,0,0,.977-.306,1.046,1.046,0,0,0,.469-.641,7.906,7.906,0,0,0,.123-1.754v-11.8a4.859,4.859,0,0,0-.283-2.157,1.455,1.455,0,0,0-1.285-.543h-.51v-.5H648l.169,3.987h-.458a7.266,7.266,0,0,0-.5-1.944,1.834,1.834,0,0,0-.8-.807,3.907,3.907,0,0,0-1.5-.2Z" transform="translate(-507.078 -8.516)" fill="#fff"/>
      <path id="Tracciato_60139" data-name="Tracciato 60139" d="M232.224,131.21v4.6a3.881,3.881,0,0,0,.264,1.856,1.178,1.178,0,0,0,1.052.515h.471v.414H228.65v-.414h.463a1.194,1.194,0,0,0,1.139-.653,4.785,4.785,0,0,0,.185-1.718V125.631a4.01,4.01,0,0,0-.255-1.856,1.223,1.223,0,0,0-1.069-.512h-.463v-.414h4.571a6.608,6.608,0,0,1,2.651.435,3.794,3.794,0,0,1,1.633,1.465,4.438,4.438,0,0,1,.659,2.447,4.731,4.731,0,0,1-1,3.13,3.493,3.493,0,0,1-2.841,1.208,6.5,6.5,0,0,1-.974-.081,10.241,10.241,0,0,1-1.123-.242m0-.659c.325.078.611.134.858.175a4.209,4.209,0,0,0,.643.057,2.011,2.011,0,0,0,1.635-.929,3.985,3.985,0,0,0,.687-2.415,5.319,5.319,0,0,0-.33-1.894,2.715,2.715,0,0,0-.935-1.3,2.259,2.259,0,0,0-1.362-.436,4.345,4.345,0,0,0-1.2.22Z" transform="translate(-182.065 -97.82)" fill="#fff"/>
      <path id="Tracciato_60140" data-name="Tracciato 60140" d="M286.478,138.181v.414h-5.36v-.414h.448a1.213,1.213,0,0,0,1.122-.573,4.494,4.494,0,0,0,.218-1.8V125.63a6.754,6.754,0,0,0-.117-1.585.984.984,0,0,0-.379-.5,1.475,1.475,0,0,0-.843-.281h-.448v-.414h5.36v.414h-.446a1.194,1.194,0,0,0-1.111.573,4.249,4.249,0,0,0-.229,1.8V135.81a7.008,7.008,0,0,0,.112,1.588.994.994,0,0,0,.391.5,1.414,1.414,0,0,0,.837.281Z" transform="translate(-223.843 -97.82)" fill="#fff"/>
      <path id="Tracciato_60141" data-name="Tracciato 60141" d="M315.539,123.763v6.147h2.615a1.956,1.956,0,0,0,1.446-.4,2.9,2.9,0,0,0,.553-1.846h.332v5.443h-.332a7.327,7.327,0,0,0-.271-1.465,1.272,1.272,0,0,0-.547-.632,2.365,2.365,0,0,0-1.18-.232h-2.615v5.148a6.1,6.1,0,0,0,.073,1.261.719.719,0,0,0,.26.357,1.3,1.3,0,0,0,.689.131h2.118a4.681,4.681,0,0,0,1.539-.182,2.231,2.231,0,0,0,.922-.718,9.117,9.117,0,0,0,1.172-2.133h.412l-1.084,3.948h-9.674v-.414h.438a1.466,1.466,0,0,0,.841-.271.933.933,0,0,0,.4-.563,7.2,7.2,0,0,0,.1-1.537V125.63a4.285,4.285,0,0,0-.246-1.892,1.239,1.239,0,0,0-1.1-.476h-.438v-.414h9.64l.123,3.446h-.414a6.343,6.343,0,0,0-.428-1.668,1.576,1.576,0,0,0-.687-.694,3.341,3.341,0,0,0-1.286-.17Z" transform="translate(-248.406 -97.82)" fill="#fff"/>
      <path id="Tracciato_60142" data-name="Tracciato 60142" d="M375.789,138.594l-4.861-13.249v10.507a4.129,4.129,0,0,0,.243,1.831,1.253,1.253,0,0,0,1.1.5h.442v.414h-4.4v-.414h.444a1.2,1.2,0,0,0,1.144-.611,4.55,4.55,0,0,0,.2-1.717V125.589a4.481,4.481,0,0,0-.187-1.528,1.182,1.182,0,0,0-.479-.568,2.119,2.119,0,0,0-1.121-.23v-.414h3.661l4.486,12.229,4.489-12.229h3.567v.414h-.441a1.191,1.191,0,0,0-1.136.611,4.327,4.327,0,0,0-.208,1.715v10.263a3.808,3.808,0,0,0,.264,1.831,1.212,1.212,0,0,0,1.08.5h.441v.414h-5.358v-.414h.441a1.177,1.177,0,0,0,1.134-.611,4.3,4.3,0,0,0,.211-1.717V125.345l-4.863,13.249Z" transform="translate(-293.27 -97.82)" fill="#fff"/>
      <path id="Tracciato_60143" data-name="Tracciato 60143" d="M459.534,121.222a5.236,5.236,0,0,1,4.234,2.319,9.214,9.214,0,0,1,1.79,5.792,9.486,9.486,0,0,1-1.807,5.936,5.247,5.247,0,0,1-8.727.059,9.512,9.512,0,0,1-1.764-5.962,8.994,8.994,0,0,1,2.034-6.1,5.424,5.424,0,0,1,4.239-2.046m-.181.83a3.089,3.089,0,0,0-2.7,1.562,10.426,10.426,0,0,0-1.276,5.7,11.031,11.031,0,0,0,1.32,5.913,3.042,3.042,0,0,0,2.661,1.576,3.416,3.416,0,0,0,2.926-1.725,10.024,10.024,0,0,0,1.151-5.443,11.364,11.364,0,0,0-1.26-6.007,3.2,3.2,0,0,0-2.824-1.575" transform="translate(-360.913 -96.524)" fill="#fff"/>
      <path id="Tracciato_60144" data-name="Tracciato 60144" d="M515.892,122.849h3.392l7.753,11.749v-9.009a3.939,3.939,0,0,0-.257-1.833,1.259,1.259,0,0,0-1.1-.494h-.431v-.414h4.4v.414h-.443a1.2,1.2,0,0,0-1.144.611,4.5,4.5,0,0,0-.2,1.715v13.262h-.341l-8.346-12.664v9.665a4.046,4.046,0,0,0,.247,1.831,1.265,1.265,0,0,0,1.1.5h.444v.414h-4.4v-.414H517a1.214,1.214,0,0,0,1.154-.611,4.543,4.543,0,0,0,.2-1.717V124.926a6.7,6.7,0,0,0-.829-1.075,2.768,2.768,0,0,0-.83-.48,2.267,2.267,0,0,0-.8-.108Z" transform="translate(-410.783 -97.82)" fill="#fff"/>
      <path id="Tracciato_60145" data-name="Tracciato 60145" d="M597.735,122.849l.123,3.7h-.349a5.563,5.563,0,0,0-.276-1.393,1.952,1.952,0,0,0-2.01-1.314h-1.769v12.01a4.051,4.051,0,0,0,.246,1.831,1.264,1.264,0,0,0,1.1.5h.444v.414h-5.358v-.414h.441a1.2,1.2,0,0,0,1.145-.611,4.529,4.529,0,0,0,.2-1.717v-12.01h-1.514a3.421,3.421,0,0,0-1.254.164,1.854,1.854,0,0,0-.834.846,4.123,4.123,0,0,0-.413,1.7H587.3l.126-3.7Z" transform="translate(-467.645 -97.82)" fill="#fff"/>
      <path id="Tracciato_60146" data-name="Tracciato 60146" d="M647.021,123.763v6.147h2.617a1.957,1.957,0,0,0,1.446-.4,2.9,2.9,0,0,0,.548-1.846h.335v5.443h-.335a7.667,7.667,0,0,0-.27-1.465,1.287,1.287,0,0,0-.547-.632,2.361,2.361,0,0,0-1.178-.232h-2.617v5.148a6.244,6.244,0,0,0,.072,1.261.734.734,0,0,0,.261.357,1.3,1.3,0,0,0,.691.131h2.115a4.706,4.706,0,0,0,1.541-.182,2.228,2.228,0,0,0,.921-.718,9.119,9.119,0,0,0,1.173-2.133h.415l-1.089,3.948h-9.672v-.414h.438a1.482,1.482,0,0,0,.843-.271.933.933,0,0,0,.4-.563,7.005,7.005,0,0,0,.1-1.537V125.63a4.287,4.287,0,0,0-.241-1.892,1.244,1.244,0,0,0-1.105-.476h-.438v-.414h9.639l.124,3.446H652.8a6.326,6.326,0,0,0-.424-1.668,1.594,1.594,0,0,0-.686-.694,3.353,3.353,0,0,0-1.287-.17Z" transform="translate(-512.352 -97.82)" fill="#fff"/>
      <path id="Tracciato_60147" data-name="Tracciato 60147" d="M46.077,27.087l1.543-4.647H69.386l1.522,4.645H66.238l.585-1.953H60.043l.708,1.944h-4.6l.673-1.874H50.064l.65,1.884Z" transform="translate(-36.689 -17.868)" fill="#0064b3"/>
    </g>
  </g>
</svg>
