<svg id="sentiment_dissatisfied_black_24dp" xmlns="http://www.w3.org/2000/svg" width="84" height="84" viewBox="0 0 84 84">
  <path id="Tracciato_111082" data-name="Tracciato 111082" d="M0,0H84V84H0Z" fill="none"/>
  <circle id="Ellisse_8969" data-name="Ellisse 8969" cx="5.5" cy="5.5" r="5.5" transform="translate(49 28)" fill="#fff"/>
  <ellipse id="Ellisse_8970" data-name="Ellisse 8970" cx="5" cy="5.5" rx="5" ry="5.5" transform="translate(25 28)" fill="#fff"/>
  <path id="Tracciato_111083" data-name="Tracciato 111083" d="M37,44A19.233,19.233,0,0,0,19.08,56.25h5.845a13.915,13.915,0,0,1,24.15,0H54.92A19.233,19.233,0,0,0,37,44ZM36.965,2A35,35,0,1,0,72,37,34.983,34.983,0,0,0,36.965,2ZM37,65A28,28,0,1,1,65,37,27.992,27.992,0,0,1,37,65Z" transform="translate(5 5)" fill="#fff"/>
</svg>
