<svg id="sentiment_satisfied_black_24dp" xmlns="http://www.w3.org/2000/svg" width="84" height="84" viewBox="0 0 84 84">
  <path id="Tracciato_111087" data-name="Tracciato 111087" d="M0,0H84V84H0Z" fill="none"/>
  <circle id="Ellisse_8973" data-name="Ellisse 8973" cx="5.5" cy="5.5" r="5.5" transform="translate(49 28)" fill="#007e00"/>
  <ellipse id="Ellisse_8974" data-name="Ellisse 8974" cx="5" cy="5.5" rx="5" ry="5.5" transform="translate(25 28)" fill="#007e00"/>
  <path id="Tracciato_111088" data-name="Tracciato 111088" d="M37,51a13.989,13.989,0,0,1-12.075-7H19.08a19.232,19.232,0,0,0,35.84,0H49.075A13.989,13.989,0,0,1,37,51ZM36.965,2A35,35,0,1,0,72,37,34.983,34.983,0,0,0,36.965,2ZM37,65A28,28,0,1,1,65,37,27.992,27.992,0,0,1,37,65Z" transform="translate(5 5)" fill="#007e00"/>
</svg>
