<svg xmlns="http://www.w3.org/2000/svg" xmlns:xlink="http://www.w3.org/1999/xlink" width="217" height="158.23" viewBox="0 0 217 158.23">
  <defs>
    <clipPath id="clip-path">
      <rect id="Rettangolo_165422" data-name="Rettangolo 165422" width="217" height="158.23" fill="none"/>
    </clipPath>
  </defs>
  <g id="Raggruppa_31252" data-name="Raggruppa 31252" transform="translate(0 0.001)">
    <g id="Raggruppa_31251" data-name="Raggruppa 31251" transform="translate(0 -0.001)" clip-path="url(#clip-path)">
      <path id="Tracciato_108379" data-name="Tracciato 108379" d="M209.3,157.238c3.907-10.645,5.268-21.6,1.685-31.861-6.745-19.313-25.607-20.655-30.042-39.565-4.644-19.8,12.364-26.138,8.558-44.889-5.184-25.539-46.923-36.338-52.372-37.748-47.792-12.366-87.913,15.256-90.368,17C16.944,41.405-5.6,80.561,1.229,122.2a96.763,96.763,0,0,0,13.218,35.038Z" transform="translate(0 0.001)" fill="#efeefe"/>
      <path id="Tracciato_108380" data-name="Tracciato 108380" d="M78.868,1226.246c5.947,1.308,30.5,7.386,41.781,29.183,4.32,8.35,7.344,20.271,5.966,28.23H98.119a57.9,57.9,0,0,1-9.43-8.975c-15.423-18.694-10.9-43.211-9.821-48.438" transform="translate(-71.119 -1127.172)" fill="#a6de99"/>
      <path id="Tracciato_108381" data-name="Tracciato 108381" d="M1943.088,1675.076l9.835-.092a42.586,42.586,0,0,0-2.149-10.342,37.42,37.42,0,0,0-7.9-12.994,37.171,37.171,0,0,0-1.55,15.552,41.5,41.5,0,0,0,1.768,7.877" transform="translate(-1783.218 -1518.204)" fill="#a6de99"/>
      <path id="Tracciato_108382" data-name="Tracciato 108382" d="M1982.948,1738.747s3.251,8.916,3.664,16.344" transform="translate(-1821.685 -1598.266)" fill="none" stroke="#7bc46a" stroke-width="1.79"/>
      <path id="Tracciato_108383" data-name="Tracciato 108383" d="M2283.926,781.163a10.921,10.921,0,0,1,13.037-2.688,22.9,22.9,0,0,1,10.509,9.862c4.1,7.817,4.248,19.957-2.565,24.324-7.236,4.638-20.556-.625-24.825-10.561-2.889-6.725-1.343-14.919,3.843-20.937" transform="translate(-2093.333 -714.57)" fill="#efeefe"/>
      <path id="Tracciato_108384" data-name="Tracciato 108384" d="M2149.315,1357.745c-4.057,1.727-20.72,9.34-25.795,26.368-1.945,6.524-2.482,15.416-.422,20.9l16.234-.109a36.763,36.763,0,0,0,9.554-11.355c8.561-15.984,1.657-32.922.428-35.8" transform="translate(-1949.233 -1248.046)" fill="#a6de99"/>
      <path id="Tracciato_108385" data-name="Tracciato 108385" d="M2219.409,1562.744a182.113,182.113,0,0,1,13.949-32.733" transform="translate(-2038.916 -1406.394)" fill="none" stroke="#7bc46a" stroke-width="1.91"/>
      <path id="Tracciato_108386" data-name="Tracciato 108386" d="M2221.885,1715.559q-1.512-4.842-3.025-9.683" transform="translate(-2038.412 -1568.05)" fill="none" stroke="#7bc46a" stroke-width="1.91"/>
      <path id="Tracciato_108387" data-name="Tracciato 108387" d="M2330.076,1610.664l7.978-3.8" transform="translate(-2140.583 -1477.034)" fill="none" stroke="#7bc46a" stroke-width="1.91"/>
      <line id="Linea_3210" data-name="Linea 3210" x2="12.871" transform="translate(198.162 157.253)" fill="#fff"/>
      <line id="Linea_3211" data-name="Linea 3211" x2="12.871" transform="translate(198.162 157.253)" fill="none" stroke="#9087f4" stroke-linecap="round" stroke-linejoin="round" stroke-width="3.19"/>
      <path id="Tracciato_108388" data-name="Tracciato 108388" d="M1266.915,1079.072a15.5,15.5,0,0,1-1.956-.349c-2.545-.625-4.072-1.691-4.441-1.263-.44.511,1.407,2.4.962,2.9-.352.393-1.852-.407-2.5-.812a4.453,4.453,0,0,1-2.054-2.034l-1.156.245-.539-2.683,2.953-.452a7.751,7.751,0,0,1,9.488,3.261.784.784,0,0,1-.757,1.191" transform="translate(-1153.15 -987.314)" fill="#f26d6d"/>
      <path id="Tracciato_108389" data-name="Tracciato 108389" d="M914.938,1092.635a144.53,144.53,0,0,0-25.618,14.217,17.19,17.19,0,0,1-4.017-1.512l2.094,10.74c10.452-.214,29.727-20.729,29.727-20.729Z" transform="translate(-813.306 -1004.356)" fill="#ffc5ae"/>
      <path id="Tracciato_108390" data-name="Tracciato 108390" d="M785.443,1361.468l-22.368-15.045c-2.661,5.676-4.468,9.867-4.468,9.867l-6.191-1.19-14.923,22.55,7,6.813a15.186,15.186,0,0,0,10.941,4.295c8.768-.2,23.145-4.314,30.009-27.289" transform="translate(-677.516 -1237.639)" fill="#9087f4"/>
      <path id="Tracciato_108391" data-name="Tracciato 108391" d="M1612.636,1882.875s-2.831,1.709-.325,4.521l13.739.277a1.872,1.872,0,0,0-1.256-1.91l-8.36-2.9Z" transform="translate(-1480.239 -1730.733)" fill="#f26d6d"/>
      <path id="Tracciato_108392" data-name="Tracciato 108392" d="M1051.972,1174.348s10.717-32.469,28.608-20.9c0,0,4.511,2.517,7.547,11.379s15.94,49.693,15.94,49.693l-3.914-.318s-19.9-28.019-23.413-38.508l-3.226,12.8Z" transform="translate(-966.421 -1057.964)" fill="#f26d6d"/>
      <path id="Tracciato_108393" data-name="Tracciato 108393" d="M1482.544,1878.5s-2.849,1.678-.375,4.517l13.735.425a1.871,1.871,0,0,0-1.236-1.923l-8.328-2.995Z" transform="translate(-1360.704 -1726.723)" fill="#fb9c98"/>
      <path id="Tracciato_108394" data-name="Tracciato 108394" d="M1052.094,1172.475c-.614-10.9-13.3-16.976-22.006-10.321a14.035,14.035,0,0,0-3.588,4.082c-5.3,9.014-10.979,21.379-13.432,26.873h26.626a99.8,99.8,0,0,0,1.429-10.116,89.5,89.5,0,0,0,4.663,19.633c3.679,9.517,3.113,7.528,6.6,14.858l4.187.205Z" transform="translate(-930.68 -1065.712)" fill="#fb9c98"/>
      <path id="Tracciato_108395" data-name="Tracciato 108395" d="M711.527,1421.183c7.439-3.495,15.184-11.245,19.324-27.7-13.876-6.454-19.748-11.978-21.963-14.6-3.328,6.963-5.714,12.5-5.714,12.5l-6.191-1.19-20.61,7.334c.129,2.454.942,12.564,9.152,19.875,1.7,1.513,6.818,6.072,14.477,6.448a23.473,23.473,0,0,0,11.526-2.658" transform="translate(-621.367 -1267.47)" fill="#9087f4"/>
      <path id="Tracciato_108396" data-name="Tracciato 108396" d="M1177.271,839.769l-13.1,24.568h-26.957" transform="translate(-1044.728 -771.92)" fill="none" stroke="#8754af" stroke-linecap="round" stroke-linejoin="round" stroke-width="4.64"/>
      <path id="Tracciato_108397" data-name="Tracciato 108397" d="M1192.136,1075.991c-.2.275-.821.192-2.062.016-2.586-.368-3.855-.558-4.7-.125-.392.2-.8.455-.8.455-.553.339-1.055.175-1.326.325-.328.182.174,1.014-.606.975h-1.911l-.919-2.776,1.82-1.068a8.409,8.409,0,0,1,5.018-1.846,6.066,6.066,0,0,1,4.9,2.279c.1.141.939,1.271.587,1.765" transform="translate(-1083.86 -985.339)" fill="#fb9c98"/>
      <path id="Tracciato_108398" data-name="Tracciato 108398" d="M694.469,872.109a79.128,79.128,0,0,0-9.252,12.162c-11.573,18.744-12.5,37.964-12.077,48.583a42.31,42.31,0,0,0,25.429-7.5c1.541-2.774,13.672-29.117,2.6-47.735-1.527-2.569-3.3-2.673-6.7-5.5" transform="translate(-618.325 -801.647)" fill="#f9e0d2"/>
      <path id="Tracciato_108399" data-name="Tracciato 108399" d="M937.992,692.31c-.126-3.352-2.139-6-4.5-5.91s-4.165,2.876-4.039,6.227,2.139,6,4.5,5.91,4.165-2.876,4.039-6.227" transform="translate(-853.864 -630.941)" fill="#8754af"/>
      <path id="Tracciato_108400" data-name="Tracciato 108400" d="M926.877,816.62c-.27-.265,3.4-6.265,3.4-6.265l5.484,2.533-1.923,7.566s-3.3-.243-6.962-3.834" transform="translate(-851.486 -744.883)" fill="#f6a19e"/>
      <path id="Tracciato_108401" data-name="Tracciato 108401" d="M979.575,818.335a4.9,4.9,0,0,0,3.447,2.9l.959-3.773-4.32-2.131a4.42,4.42,0,0,0-.086,3" transform="translate(-899.705 -749.459)" fill="#f26d6d"/>
      <path id="Tracciato_108402" data-name="Tracciato 108402" d="M970.417,685.74a7.97,7.97,0,0,1,3.432,4.366c1.058,3.658-.812,8.871-4.561,9.623-3.587.719-7.3-2.966-7.921-6.725-.552-3.331,1.2-7.418,4.242-8.26a6.428,6.428,0,0,1,4.808,1" transform="translate(-883.091 -629.274)" fill="#f6a19e"/>
      <path id="Tracciato_108403" data-name="Tracciato 108403" d="M365.626,547.344c-.724-4.9.444-11.462,4.648-13.421,4.041-1.883,7.391,2.121,11.306.166s2.022-7.086,5.589-11c5.434-5.957,20.355-5.965,24.76,1.367,2.016,3.357,2.086,8.68-.5,11.822-3.038,3.691-7.345,1.445-11.516,5.473-3.84,3.708-1.918,7.282-5.369,9.525-4.281,2.782-8.765-1.726-13.154,1.012-4.26,2.657-2.712,8.921-5.554,9.3-3.244.437-9.124-6.923-10.208-14.253" transform="translate(-335.708 -476.866)" fill="#191245"/>
      <path id="Tracciato_108404" data-name="Tracciato 108404" d="M894.353,605.841c1.228-1.2-.778-3.536.587-5.478,1.469-2.09,4.551-.475,7.475-2.681,1.995-1.5,3.825-4.719,2.6-7.2a5.354,5.354,0,0,0-6.168-2.451c-2.3.879-1.715,3.538-4.4,5.069-2.328,1.33-3.682-.048-5.866,1.108a6.88,6.88,0,0,0-2.787,8.306c1.658,3.722,7.067,4.781,8.557,3.328" transform="translate(-813.306 -540.289)" fill="#191245"/>
      <path id="Tracciato_108405" data-name="Tracciato 108405" d="M973.247,760.783a1.619,1.619,0,1,0-1.828,1.37,1.611,1.611,0,0,0,1.828-1.37" transform="translate(-891.136 -697.632)" fill="#f6a19e"/>
      <path id="Tracciato_108406" data-name="Tracciato 108406" d="M828.75,962.668s-8.575,3.6-5.55,13.128,7.648,23.641,13.385,28.588,19.45-27.637,19.45-27.637l-4.477-3.328s-8.98,13.038-11.428,18.4c-.427-6.408-1.1-11.715-1.692-15.591-1.413-9.326-2.609-12.37-5.1-13.485a6.653,6.653,0,0,0-4.585-.075" transform="translate(-755.66 -884.545)" fill="#f9e0d2"/>
      <path id="Tracciato_108407" data-name="Tracciato 108407" d="M837.459,1151.393A76.386,76.386,0,0,0,849.6,1177.57" transform="translate(-769.353 -1058.366)" fill="none" stroke="#ffc5ae" stroke-linecap="round" stroke-width="2.15"/>
      <path id="Tracciato_108408" data-name="Tracciato 108408" d="M1030.267,1210.327l.772,8.623,1.642-3.129" transform="translate(-946.481 -1112.539)" fill="none" stroke="#ffc5ae" stroke-linecap="round" stroke-linejoin="round" stroke-width="2.15"/>
      <path id="Tracciato_108409" data-name="Tracciato 108409" d="M1123.377,260.756l-21.075.054a3.3,3.3,0,0,1-3.32-3.281l-.055-20.938a3.3,3.3,0,0,1,3.3-3.3l16.81-.043,7.6,7.512.044,16.7a3.3,3.3,0,0,1-3.3,3.3" transform="translate(-1009.557 -214.405)" fill="#fff"/>
      <path id="Tracciato_108410" data-name="Tracciato 108410" d="M1346.188,233.25l.033,5.023a2.507,2.507,0,0,0,2.512,2.482l5.057.006Z" transform="translate(-1236.709 -214.405)" fill="#bbb4f8"/>
      <rect id="Rettangolo_165417" data-name="Rettangolo 165417" width="7.564" height="1.663" transform="translate(104.18 28.196) rotate(-0.149)" fill="#bbb4f8"/>
      <rect id="Rettangolo_165418" data-name="Rettangolo 165418" width="11.062" height="1.664" transform="translate(100.69 31.669) rotate(-0.149)" fill="#bbb4f8"/>
      <rect id="Rettangolo_165419" data-name="Rettangolo 165419" width="11.062" height="1.664" transform="translate(100.699 35.134) rotate(-0.149)" fill="#bbb4f8"/>
      <rect id="Rettangolo_165420" data-name="Rettangolo 165420" width="11.062" height="1.664" transform="translate(100.708 38.598) rotate(-0.149)" fill="#bbb4f8"/>
      <path id="Tracciato_108411" data-name="Tracciato 108411" d="M1172.789,345.924a1.136,1.136,0,1,0-1.136,1.128,1.132,1.132,0,0,0,1.136-1.128" transform="translate(-1075.325 -316.938)" fill="#bbb4f8"/>
      <path id="Tracciato_108412" data-name="Tracciato 108412" d="M1172.789,391.047a1.136,1.136,0,1,0-1.136,1.128,1.132,1.132,0,0,0,1.136-1.128" transform="translate(-1075.325 -358.416)" fill="#bbb4f8"/>
      <path id="Tracciato_108413" data-name="Tracciato 108413" d="M1172.789,431.873a1.136,1.136,0,1,0-1.136,1.128,1.132,1.132,0,0,0,1.136-1.128" transform="translate(-1075.325 -395.943)" fill="#bbb4f8"/>
      <path id="Tracciato_108414" data-name="Tracciato 108414" d="M1172.789,474.848a1.136,1.136,0,1,0-1.136,1.128,1.132,1.132,0,0,0,1.136-1.128" transform="translate(-1075.325 -435.446)" fill="#bbb4f8"/>
      <path id="Tracciato_108415" data-name="Tracciato 108415" d="M260.861,1482.869a252.113,252.113,0,0,0-27.361-40.83" transform="translate(-214.511 -1325.53)" fill="none" stroke="#7bc46a" stroke-width="2.08"/>
      <path id="Tracciato_108416" data-name="Tracciato 108416" d="M492.185,1650.279l1.6-13.9" transform="translate(-452.158 -1504.168)" fill="none" stroke="#7bc46a" stroke-width="2.08"/>
      <path id="Tracciato_108417" data-name="Tracciato 108417" d="M214.5,1558.914l-11.8-3.125" transform="translate(-186.218 -1430.09)" fill="none" stroke="#7bc46a" stroke-width="2.08"/>
      <line id="Linea_3212" data-name="Linea 3212" x2="181.652" transform="translate(11.899 157.253)" fill="#fff"/>
      <line id="Linea_3213" data-name="Linea 3213" x2="181.652" transform="translate(11.899 157.253)" fill="none" stroke="#9087f4" stroke-linecap="round" stroke-linejoin="round" stroke-width="3.19"/>
      <path id="Tracciato_108418" data-name="Tracciato 108418" d="M1780.115,1249.586l6.584-3.772,6.585,3.772V1216.06h-13.169Z" transform="translate(-1635.348 -1117.809)" fill="#fdc854"/>
      <path id="Tracciato_108419" data-name="Tracciato 108419" d="M1718.825,1177.478c0-1.834,1.647-3.981.982-5.575-.69-1.653-3.408-2.006-4.662-3.252s-1.61-3.946-3.273-4.632c-1.605-.661-3.766.975-5.612.975s-4.007-1.636-5.612-.975c-1.664.686-2.02,3.386-3.273,4.632s-3.972,1.6-4.662,3.252c-.666,1.594.981,3.741.981,5.575s-1.647,3.981-.981,5.575c.69,1.653,3.408,2.006,4.662,3.252s1.61,3.946,3.273,4.631c1.6.661,3.766-.975,5.612-.975s4.007,1.636,5.612.975c1.664-.685,2.02-3.386,3.273-4.631s3.972-1.6,4.662-3.252c.666-1.595-.982-3.741-.982-5.575" transform="translate(-1554.908 -1069.828)" fill="#7bc46a"/>
      <path id="Tracciato_108420" data-name="Tracciato 108420" d="M1763.672,1225.458a9.461,9.461,0,1,0-9.461,9.4,9.43,9.43,0,0,0,9.461-9.4" transform="translate(-1602.859 -1117.808)" fill="#fff"/>
      <path id="Tracciato_108421" data-name="Tracciato 108421" d="M1819.175,1296.843l2.123,2.212,4.693-5.714" transform="translate(-1671.231 -1188.847)" fill="#fff"/>
      <path id="Tracciato_108422" data-name="Tracciato 108422" d="M1819.175,1296.843l2.123,2.212,4.693-5.714" transform="translate(-1671.231 -1188.847)" fill="none" stroke="#46b283" stroke-linecap="round" stroke-linejoin="round" stroke-width="2.73"/>
      <path id="Tracciato_108423" data-name="Tracciato 108423" d="M1960.808,776.281a38.868,38.868,0,0,1-13.129-2.836,38.887,38.887,0,0,1-13.236,2.3,22.756,22.756,0,0,0,3.7,16.587,9.463,9.463,0,0,0,18.318.375,22.766,22.766,0,0,0,4.385-16.421" transform="translate(-1776.856 -710.956)" fill="#9087f4"/>
      <path id="Tracciato_108424" data-name="Tracciato 108424" d="M1958.464,776.118a38.839,38.839,0,0,1-10.785-2.672,38.887,38.887,0,0,1-13.236,2.3,22.756,22.756,0,0,0,3.7,16.587,21.7,21.7,0,0,0,6.535,5.995,22.073,22.073,0,0,0,9.3-6.9,22.576,22.576,0,0,0,4.491-15.306" transform="translate(-1776.856 -710.956)" fill="#9087f4"/>
      <path id="Tracciato_108425" data-name="Tracciato 108425" d="M2020.731,827.036a7.628,7.628,0,1,0-7.627,7.578,7.6,7.6,0,0,0,7.627-7.578" transform="translate(-1842.381 -753.25)" fill="#efeefe"/>
      <path id="Tracciato_108426" data-name="Tracciato 108426" d="M2020.731,827.036a7.628,7.628,0,1,0-7.627,7.578,7.6,7.6,0,0,0,7.627-7.578" transform="translate(-1842.381 -753.25)" fill="#bbb4f8"/>
      <path id="Tracciato_108427" data-name="Tracciato 108427" d="M2027.333,925.309a7.633,7.633,0,0,0,6.367-3.406,7.255,7.255,0,0,0-12.735,0,7.633,7.633,0,0,0,6.368,3.406" transform="translate(-1856.611 -843.946)" fill="#fff"/>
      <path id="Tracciato_108428" data-name="Tracciato 108428" d="M2069,839.593a2.939,2.939,0,1,0-2.939,2.92,2.929,2.929,0,0,0,2.939-2.92" transform="translate(-1895.344 -769.074)" fill="#fff"/>
      <path id="Tracciato_108429" data-name="Tracciato 108429" d="M1665.922,499.084c-1.266.15-2.672.513-3.051,1.463-.774,1.938,3.606,4.1,3.156,6.794-.446,2.671-5.458,4.834-7.049,3.554-.95-.764-.7-2.8,0-4.076,1.763-3.2,7.457-3.57,9.425-1.594.5.5,1.166,1.565.853,2a.973.973,0,0,1-1.321-.023c-.416-.606.605-2.7,2.029-2.812,1.6-.121,2.9,2.344,2.482,2.95a.853.853,0,0,1-1.157,0c-.4-.552.587-2.588,2.016-2.758,1.646-.2,3.107,2.178,2.719,2.862a1.016,1.016,0,0,1-1.368.1c-.313-.451.637-1.774,1.683-2.508a5.62,5.62,0,0,1,2.209-.836,11.674,11.674,0,0,1,3.47-.236" transform="translate(-1523.489 -458.761)" fill="none" stroke="#8754af" stroke-linecap="round" stroke-linejoin="round" stroke-width="1.49"/>
      <path id="Rettangolo_165421" data-name="Rettangolo 165421" d="M8.856,0H24.381a8.857,8.857,0,0,1,8.857,8.857v0a8.857,8.857,0,0,1-8.857,8.857H8.857A8.857,8.857,0,0,1,0,8.857v0A8.856,8.856,0,0,1,8.856,0Z" transform="translate(129.857 37.55)" fill="none" stroke="#8754af" stroke-linecap="round" stroke-linejoin="round" stroke-width="1.49"/>
    </g>
  </g>
</svg>
