<?xml version="1.0" encoding="UTF-8"?>
<!DOCTYPE svg PUBLIC "-//W3C//DTD SVG 1.1//EN" "http://www.w3.org/Graphics/SVG/1.1/DTD/svg11.dtd">
<svg xmlns="http://www.w3.org/2000/svg" version="1.1" width="342px" height="322px" style="shape-rendering:geometricPrecision; text-rendering:geometricPrecision; image-rendering:optimizeQuality; fill-rule:evenodd; clip-rule:evenodd" xmlns:xlink="http://www.w3.org/1999/xlink">
<g><path style="opacity:0.055" fill="#fbfbfb" d="M 26.5,0.5 C 26.5,1.83333 26.5,3.16667 26.5,4.5C 18.4644,1.74424 11.2977,3.41091 5,9.5C 4.47189,10.816 4.97189,11.4827 6.5,11.5C 7.32515,13.1252 6.99181,14.7918 5.5,16.5C 4.82816,103.186 4.1615,189.853 3.5,276.5C 4.69671,281.864 7.86338,285.53 13,287.5C 13.3076,286.692 13.8076,286.025 14.5,285.5C 15.8066,286.816 17.3066,287.816 19,288.5C 62.7134,287.769 106.88,287.436 151.5,287.5C 156.212,287.586 160.879,288.086 165.5,289C 164.944,289.383 164.611,289.883 164.5,290.5C 114.833,290.5 65.1667,290.5 15.5,290.5C 7.68111,290.167 2.84778,286.167 1,278.5C 0.333333,189.5 0.333333,100.5 1,11.5C 2.5,6 6,2.5 11.5,1C 16.4889,0.500738 21.4889,0.334072 26.5,0.5 Z"/></g>
<g><path style="opacity:1" fill="#f6f5f0" d="M 37.5,0.5 C 44.5,0.5 51.5,0.5 58.5,0.5C 58.5505,4.1881 58.8838,7.85476 59.5,11.5C 57.8843,16.0688 57.3843,20.7354 58,25.5C 59.8219,27.0454 61.9886,27.712 64.5,27.5C 66.4289,27.4604 68.2622,27.1271 70,26.5C 69.9903,17.8443 69.8236,9.17766 69.5,0.5C 76.8333,0.5 84.1667,0.5 91.5,0.5C 91.1764,9.17766 91.0097,17.8443 91,26.5C 94.6667,27.8333 98.3333,27.8333 102,26.5C 101.855,17.7581 101.688,9.09139 101.5,0.5C 108.833,0.5 116.167,0.5 123.5,0.5C 123.221,8.84695 123.054,17.1803 123,25.5C 124.698,26.733 126.698,27.3996 129,27.5C 131.302,27.3996 133.302,26.733 135,25.5C 134.946,17.1803 134.779,8.84695 134.5,0.5C 141.833,0.5 149.167,0.5 156.5,0.5C 156.176,9.17766 156.01,17.8443 156,26.5C 159.667,27.8333 163.333,27.8333 167,26.5C 166.99,17.8443 166.824,9.17766 166.5,0.5C 173.833,0.5 181.167,0.5 188.5,0.5C 188.176,9.17766 188.01,17.8443 188,26.5C 189.738,27.1271 191.571,27.4604 193.5,27.5C 196.011,27.712 198.178,27.0454 200,25.5C 199.946,17.1803 199.779,8.84695 199.5,0.5C 206.5,0.5 213.5,0.5 220.5,0.5C 221.116,3.08047 221.449,5.74714 221.5,8.5C 219.947,13.9924 219.447,19.659 220,25.5C 221.822,27.0454 223.989,27.712 226.5,27.5C 228.429,27.4604 230.262,27.1271 232,26.5C 231.99,17.8443 231.824,9.17766 231.5,0.5C 238.833,0.5 246.167,0.5 253.5,0.5C 253.176,9.17766 253.01,17.8443 253,26.5C 254.738,27.1271 256.571,27.4604 258.5,27.5C 261.011,27.712 263.178,27.0454 265,25.5C 265.773,20.6261 265.273,15.9594 263.5,11.5C 264.116,7.85476 264.45,4.1881 264.5,0.5C 273.846,-0.583884 280.346,3.08278 284,11.5C 283.848,49.719 284.682,87.719 286.5,125.5C 284.7,126.605 283.533,125.939 283,123.5C 282.667,123.833 282.333,124.167 282,124.5C 281.167,122.833 280.333,121.167 279.5,119.5C 279.833,116.833 280.167,114.167 280.5,111.5C 278.525,109.455 278.525,107.788 280.5,106.5C 279.975,105.808 279.308,105.308 278.5,105C 278.057,103.482 278.724,102.315 280.5,101.5C 279.975,100.808 279.308,100.308 278.5,100C 279.833,99 279.833,98 278.5,97C 279.308,96.6924 279.975,96.1924 280.5,95.5C 279.167,93.8333 279.167,92.1667 280.5,90.5C 278.625,89.031 278.625,87.1976 280.5,85C 279.929,77.8564 279.929,70.8564 280.5,64C 277.833,63 277.833,62 280.5,61C 279.572,60.6121 278.905,59.9454 278.5,59C 279.102,54.9507 279.769,50.9507 280.5,47C 281.088,44.8046 280.421,42.8046 278.5,41C 280.847,39.4192 280.847,38.0859 278.5,37C 278.745,35.0886 278.745,33.0886 278.5,31C 281.058,29.6201 281.058,28.1201 278.5,26.5C 281.043,22.4395 280.877,18.4395 278,14.5C 277.5,50.8318 277.333,87.1651 277.5,123.5C 253.853,114.023 229.853,113.19 205.5,121C 200.512,121.485 196.179,123.318 192.5,126.5C 186.489,123.127 180.156,122.627 173.5,125C 171.622,126.543 170.122,128.376 169,130.5C 168.333,134.833 168.333,139.167 169,143.5C 169.278,144.416 169.778,145.082 170.5,145.5C 164.747,150.916 159.747,156.916 155.5,163.5C 155.439,160.95 154.106,159.45 151.5,159C 133.344,156.828 127.51,164.328 134,181.5C 136.913,184.373 140.413,185.706 144.5,185.5C 139.726,199.836 138.393,214.503 140.5,229.5C 140.5,232.167 140.5,234.833 140.5,237.5C 98.1667,237.5 55.8333,237.5 13.5,237.5C 13.8326,161.998 13.4993,86.6648 12.5,11.5C 12.6602,9.80081 12.4935,8.13414 12,6.5C 9.97109,8.03252 8.13775,9.69919 6.5,11.5C 4.97189,11.4827 4.47189,10.816 5,9.5C 11.2977,3.41091 18.4644,1.74424 26.5,4.5C 25.9989,11.8371 25.8322,19.1704 26,26.5C 29.4085,27.6219 32.9085,27.7886 36.5,27C 38.0284,25.3523 38.6951,23.3523 38.5,21C 38.0724,17.758 37.4058,14.5913 36.5,11.5C 37.1162,7.85476 37.4495,4.1881 37.5,0.5 Z"/></g>
<g><path style="opacity:1" fill="#555a60" d="M 26.5,-0.5 C 27.8333,-0.5 29.1667,-0.5 30.5,-0.5C 30.5,-0.166667 30.5,0.166667 30.5,0.5C 30.5,5.16667 30.5,9.83333 30.5,14.5C 31.5,14.5 32.5,14.5 33.5,14.5C 33.5,9.83333 33.5,5.16667 33.5,0.5C 33.5,0.166667 33.5,-0.166667 33.5,-0.5C 34.8333,-0.5 36.1667,-0.5 37.5,-0.5C 37.5,-0.166667 37.5,0.166667 37.5,0.5C 37.4495,4.1881 37.1162,7.85476 36.5,11.5C 37.4058,14.5913 38.0724,17.758 38.5,21C 38.6951,23.3523 38.0284,25.3523 36.5,27C 32.9085,27.7886 29.4085,27.6219 26,26.5C 25.8322,19.1704 25.9989,11.8371 26.5,4.5C 26.5,3.16667 26.5,1.83333 26.5,0.5C 26.5,0.166667 26.5,-0.166667 26.5,-0.5 Z"/></g>
<g><path style="opacity:1" fill="#f5f5f2" d="M 30.5,0.5 C 31.5,0.5 32.5,0.5 33.5,0.5C 33.5,5.16667 33.5,9.83333 33.5,14.5C 32.5,14.5 31.5,14.5 30.5,14.5C 30.5,9.83333 30.5,5.16667 30.5,0.5 Z"/></g>
<g><path style="opacity:1" fill="#555b60" d="M 58.5,-0.5 C 59.8333,-0.5 61.1667,-0.5 62.5,-0.5C 62.5,-0.166667 62.5,0.166667 62.5,0.5C 62.5,5.16667 62.5,9.83333 62.5,14.5C 63.5,14.5 64.5,14.5 65.5,14.5C 65.5,9.83333 65.5,5.16667 65.5,0.5C 65.5,0.166667 65.5,-0.166667 65.5,-0.5C 66.8333,-0.5 68.1667,-0.5 69.5,-0.5C 69.5,-0.166667 69.5,0.166667 69.5,0.5C 69.8236,9.17766 69.9903,17.8443 70,26.5C 68.2622,27.1271 66.4289,27.4604 64.5,27.5C 61.9886,27.712 59.8219,27.0454 58,25.5C 57.3843,20.7354 57.8843,16.0688 59.5,11.5C 58.8838,7.85476 58.5505,4.1881 58.5,0.5C 58.5,0.166667 58.5,-0.166667 58.5,-0.5 Z"/></g>
<g><path style="opacity:1" fill="#f6f5f2" d="M 62.5,0.5 C 63.5,0.5 64.5,0.5 65.5,0.5C 65.5,5.16667 65.5,9.83333 65.5,14.5C 64.5,14.5 63.5,14.5 62.5,14.5C 62.5,9.83333 62.5,5.16667 62.5,0.5 Z"/></g>
<g><path style="opacity:1" fill="#52585d" d="M 91.5,-0.5 C 92.8333,-0.5 94.1667,-0.5 95.5,-0.5C 95.5,-0.166667 95.5,0.166667 95.5,0.5C 95.5,5.16667 95.5,9.83333 95.5,14.5C 96.5,14.5 97.5,14.5 98.5,14.5C 98.7166,9.76973 98.3833,5.10306 97.5,0.5C 98.1667,0.5 98.5,0.166667 98.5,-0.5C 99.5,-0.5 100.5,-0.5 101.5,-0.5C 101.5,-0.166667 101.5,0.166667 101.5,0.5C 101.688,9.09139 101.855,17.7581 102,26.5C 98.3333,27.8333 94.6667,27.8333 91,26.5C 91.0097,17.8443 91.1764,9.17766 91.5,0.5C 91.5,0.166667 91.5,-0.166667 91.5,-0.5 Z"/></g>
<g><path style="opacity:1" fill="#e7e6e4" d="M 95.5,0.5 C 96.1667,0.5 96.8333,0.5 97.5,0.5C 98.3833,5.10306 98.7166,9.76973 98.5,14.5C 97.5,14.5 96.5,14.5 95.5,14.5C 95.5,9.83333 95.5,5.16667 95.5,0.5 Z"/></g>
<g><path style="opacity:1" fill="#585c62" d="M 123.5,-0.5 C 124.833,-0.5 126.167,-0.5 127.5,-0.5C 127.5,-0.166667 127.5,0.166667 127.5,0.5C 127.5,5.16667 127.5,9.83333 127.5,14.5C 128.5,14.5 129.5,14.5 130.5,14.5C 130.5,9.83333 130.5,5.16667 130.5,0.5C 130.5,0.166667 130.5,-0.166667 130.5,-0.5C 131.833,-0.5 133.167,-0.5 134.5,-0.5C 134.5,-0.166667 134.5,0.166667 134.5,0.5C 134.779,8.84695 134.946,17.1803 135,25.5C 133.302,26.733 131.302,27.3996 129,27.5C 126.698,27.3996 124.698,26.733 123,25.5C 123.054,17.1803 123.221,8.84695 123.5,0.5C 123.5,0.166667 123.5,-0.166667 123.5,-0.5 Z"/></g>
<g><path style="opacity:1" fill="#f6f5f2" d="M 127.5,0.5 C 128.5,0.5 129.5,0.5 130.5,0.5C 130.5,5.16667 130.5,9.83333 130.5,14.5C 129.5,14.5 128.5,14.5 127.5,14.5C 127.5,9.83333 127.5,5.16667 127.5,0.5 Z"/></g>
<g><path style="opacity:1" fill="#50555b" d="M 156.5,-0.5 C 157.5,-0.5 158.5,-0.5 159.5,-0.5C 159.5,0.166667 159.833,0.5 160.5,0.5C 160.167,5.16667 159.833,9.83333 159.5,14.5C 160.833,14.5 162.167,14.5 163.5,14.5C 163.331,9.8189 162.998,5.15224 162.5,0.5C 162.5,0.166667 162.5,-0.166667 162.5,-0.5C 163.833,-0.5 165.167,-0.5 166.5,-0.5C 166.5,-0.166667 166.5,0.166667 166.5,0.5C 166.824,9.17766 166.99,17.8443 167,26.5C 163.333,27.8333 159.667,27.8333 156,26.5C 156.01,17.8443 156.176,9.17766 156.5,0.5C 156.5,0.166667 156.5,-0.166667 156.5,-0.5 Z"/></g>
<g><path style="opacity:1" fill="#e7e7e4" d="M 160.5,0.5 C 161.167,0.5 161.833,0.5 162.5,0.5C 162.998,5.15224 163.331,9.8189 163.5,14.5C 162.167,14.5 160.833,14.5 159.5,14.5C 159.833,9.83333 160.167,5.16667 160.5,0.5 Z"/></g>
<g><path style="opacity:1" fill="#575d62" d="M 188.5,-0.5 C 189.833,-0.5 191.167,-0.5 192.5,-0.5C 192.5,-0.166667 192.5,0.166667 192.5,0.5C 192.5,5.16667 192.5,9.83333 192.5,14.5C 193.5,14.5 194.5,14.5 195.5,14.5C 195.5,9.83333 195.5,5.16667 195.5,0.5C 195.5,0.166667 195.5,-0.166667 195.5,-0.5C 196.833,-0.5 198.167,-0.5 199.5,-0.5C 199.5,-0.166667 199.5,0.166667 199.5,0.5C 199.779,8.84695 199.946,17.1803 200,25.5C 198.178,27.0454 196.011,27.712 193.5,27.5C 191.571,27.4604 189.738,27.1271 188,26.5C 188.01,17.8443 188.176,9.17766 188.5,0.5C 188.5,0.166667 188.5,-0.166667 188.5,-0.5 Z"/></g>
<g><path style="opacity:1" fill="#f6f5f2" d="M 192.5,0.5 C 193.5,0.5 194.5,0.5 195.5,0.5C 195.5,5.16667 195.5,9.83333 195.5,14.5C 194.5,14.5 193.5,14.5 192.5,14.5C 192.5,9.83333 192.5,5.16667 192.5,0.5 Z"/></g>
<g><path style="opacity:1" fill="#545a5f" d="M 221.5,-0.5 C 222.5,-0.5 223.5,-0.5 224.5,-0.5C 224.5,-0.166667 224.5,0.166667 224.5,0.5C 224.5,5.16667 224.5,9.83333 224.5,14.5C 225.5,14.5 226.5,14.5 227.5,14.5C 227.5,9.83333 227.5,5.16667 227.5,0.5C 227.5,0.166667 227.5,-0.166667 227.5,-0.5C 228.833,-0.5 230.167,-0.5 231.5,-0.5C 231.5,-0.166667 231.5,0.166667 231.5,0.5C 231.824,9.17766 231.99,17.8443 232,26.5C 230.262,27.1271 228.429,27.4604 226.5,27.5C 223.989,27.712 221.822,27.0454 220,25.5C 219.447,19.659 219.947,13.9924 221.5,8.5C 221.449,5.74714 221.116,3.08047 220.5,0.5C 221.167,0.5 221.5,0.166667 221.5,-0.5 Z"/></g>
<g><path style="opacity:1" fill="#f6f5f2" d="M 224.5,0.5 C 225.5,0.5 226.5,0.5 227.5,0.5C 227.5,5.16667 227.5,9.83333 227.5,14.5C 226.5,14.5 225.5,14.5 224.5,14.5C 224.5,9.83333 224.5,5.16667 224.5,0.5 Z"/></g>
<g><path style="opacity:1" fill="#555a60" d="M 253.5,-0.5 C 254.833,-0.5 256.167,-0.5 257.5,-0.5C 257.5,-0.166667 257.5,0.166667 257.5,0.5C 257.5,5.16667 257.5,9.83333 257.5,14.5C 258.5,14.5 259.5,14.5 260.5,14.5C 260.5,9.83333 260.5,5.16667 260.5,0.5C 260.5,0.166667 260.5,-0.166667 260.5,-0.5C 261.833,-0.5 263.167,-0.5 264.5,-0.5C 264.5,-0.166667 264.5,0.166667 264.5,0.5C 264.45,4.1881 264.116,7.85476 263.5,11.5C 265.273,15.9594 265.773,20.6261 265,25.5C 263.178,27.0454 261.011,27.712 258.5,27.5C 256.571,27.4604 254.738,27.1271 253,26.5C 253.01,17.8443 253.176,9.17766 253.5,0.5C 253.5,0.166667 253.5,-0.166667 253.5,-0.5 Z"/></g>
<g><path style="opacity:1" fill="#f5f5f2" d="M 257.5,0.5 C 258.5,0.5 259.5,0.5 260.5,0.5C 260.5,5.16667 260.5,9.83333 260.5,14.5C 259.5,14.5 258.5,14.5 257.5,14.5C 257.5,9.83333 257.5,5.16667 257.5,0.5 Z"/></g>
<g><path style="opacity:1" fill="#fabb0b" d="M 138.5,53.5 C 154.345,51.1777 160.845,57.8444 158,73.5C 156.878,75.6238 155.378,77.4571 153.5,79C 137.437,83.8993 130.27,78.066 132,61.5C 133.305,58.0386 135.471,55.372 138.5,53.5 Z"/></g>
<g><path style="opacity:1" fill="#fabb09" d="M 175.5,53.5 C 192.197,51.3589 198.363,58.3589 194,74.5C 192.749,77.3807 190.583,79.214 187.5,80C 172.164,82.3293 165.998,75.8293 169,60.5C 170.694,57.6424 172.861,55.309 175.5,53.5 Z"/></g>
<g><path style="opacity:1" fill="#fabb0c" d="M 211.5,53.5 C 227.323,51.1553 233.823,57.822 231,73.5C 229.878,75.6238 228.378,77.4571 226.5,79C 210.467,83.9111 203.301,78.0777 205,61.5C 206.305,58.0386 208.471,55.372 211.5,53.5 Z"/></g>
<g><path style="opacity:1" fill="#fabb09" d="M 248.5,53.5 C 263.82,50.9882 270.32,57.3215 268,72.5C 266.833,76.3333 264.333,78.8333 260.5,80C 245.164,82.3293 238.998,75.8293 242,60.5C 243.694,57.6424 245.861,55.309 248.5,53.5 Z"/></g>
<g><path style="opacity:1" fill="#fabb0a" d="M 29.5,88.5 C 44.8204,85.9882 51.3204,92.3215 49,107.5C 47.8333,111.333 45.3333,113.833 41.5,115C 26.1643,117.329 19.9976,110.829 23,95.5C 24.6941,92.6424 26.8607,90.309 29.5,88.5 Z"/></g>
<g><path style="opacity:1" fill="#fabb0a" d="M 65.5,88.5 C 81.3226,86.1553 87.8226,92.822 85,108.5C 83.8783,110.624 82.3783,112.457 80.5,114C 64.3604,118.87 57.1937,113.037 59,96.5C 60.3046,93.0386 62.4713,90.372 65.5,88.5 Z"/></g>
<g><path style="opacity:1" fill="#fabb0a" d="M 102.5,88.5 C 117.788,85.9555 124.288,92.2889 122,107.5C 120.833,111.333 118.333,113.833 114.5,115C 99.1643,117.329 92.9976,110.829 96,95.5C 97.6941,92.6424 99.8607,90.309 102.5,88.5 Z"/></g>
<g><path style="opacity:1" fill="#fabb0b" d="M 138.5,88.5 C 154.323,86.1553 160.823,92.822 158,108.5C 156.878,110.624 155.378,112.457 153.5,114C 137.36,118.87 130.194,113.037 132,96.5C 133.305,93.0386 135.471,90.372 138.5,88.5 Z"/></g>
<g><path style="opacity:1" fill="#fabb09" d="M 175.5,88.5 C 192.162,86.3265 198.329,93.3265 194,109.5C 192.749,112.381 190.583,114.214 187.5,115C 172.164,117.329 165.998,110.829 169,95.5C 170.694,92.6424 172.861,90.309 175.5,88.5 Z"/></g>
<g><path style="opacity:1" fill="#fabb0c" d="M 211.5,88.5 C 227.323,86.1553 233.823,92.822 231,108.5C 229.878,110.624 228.378,112.457 226.5,114C 210.391,118.882 203.224,113.049 205,96.5C 206.305,93.0386 208.471,90.372 211.5,88.5 Z"/></g>
<g><path style="opacity:1" fill="#f9bb0a" d="M 248.5,88.5 C 263.788,85.9555 270.288,92.2889 268,107.5C 266.833,111.333 264.333,113.833 260.5,115C 245.164,117.329 238.998,110.829 242,95.5C 243.694,92.6424 245.861,90.309 248.5,88.5 Z"/></g>
<g><path style="opacity:1" fill="#dfdfdc" d="M 286.5,125.5 C 287.492,125.328 288.158,125.662 288.5,126.5C 289.85,127.65 289.684,128.317 288,128.5C 280.961,126.234 273.794,124.567 266.5,123.5C 266.53,122.503 266.03,121.836 265,121.5C 254.471,118.811 243.971,118.144 233.5,119.5C 219.416,119.916 206.083,123.249 193.5,129.5C 193.443,128.391 193.11,127.391 192.5,126.5C 196.179,123.318 200.512,121.485 205.5,121C 229.853,113.19 253.853,114.023 277.5,123.5C 277.333,87.1651 277.5,50.8318 278,14.5C 280.877,18.4395 281.043,22.4395 278.5,26.5C 281.058,28.1201 281.058,29.6201 278.5,31C 278.745,33.0886 278.745,35.0886 278.5,37C 280.847,38.0859 280.847,39.4192 278.5,41C 280.421,42.8046 281.088,44.8046 280.5,47C 279.769,50.9507 279.102,54.9507 278.5,59C 278.905,59.9454 279.572,60.6121 280.5,61C 277.833,62 277.833,63 280.5,64C 279.929,70.8564 279.929,77.8564 280.5,85C 278.625,87.1976 278.625,89.031 280.5,90.5C 279.167,92.1667 279.167,93.8333 280.5,95.5C 279.975,96.1924 279.308,96.6924 278.5,97C 279.833,98 279.833,99 278.5,100C 279.308,100.308 279.975,100.808 280.5,101.5C 278.724,102.315 278.057,103.482 278.5,105C 279.308,105.308 279.975,105.808 280.5,106.5C 278.525,107.788 278.525,109.455 280.5,111.5C 280.167,114.167 279.833,116.833 279.5,119.5C 280.333,121.167 281.167,122.833 282,124.5C 282.333,124.167 282.667,123.833 283,123.5C 283.533,125.939 284.7,126.605 286.5,125.5 Z"/></g>
<g><path style="opacity:1" fill="#2266a9" d="M 233.5,119.5 C 244.693,119.337 255.693,120.671 266.5,123.5C 269.54,125.346 272.873,126.679 276.5,127.5C 294.515,136.174 309.182,148.841 320.5,165.5C 321.584,168.004 322.917,170.337 324.5,172.5C 326.324,177.325 328.324,181.992 330.5,186.5C 333.35,199.328 334.683,212.328 334.5,225.5C 334.5,226.167 334.5,226.833 334.5,227.5C 329.529,259.627 313.196,284.127 285.5,301C 276.169,306.01 266.503,309.844 256.5,312.5C 256.167,312.5 255.833,312.5 255.5,312.5C 242.502,313.806 229.502,313.806 216.5,312.5C 207.619,309.202 198.619,305.869 189.5,302.5C 181.284,297.294 173.618,291.294 166.5,284.5C 165.2,281.568 163.2,279.234 160.5,277.5C 160.5,277.167 160.5,276.833 160.5,276.5C 151.833,265.162 145.833,252.496 142.5,238.5C 142.01,235.345 141.344,232.345 140.5,229.5C 138.393,214.503 139.726,199.836 144.5,185.5C 147.639,177.888 151.306,170.554 155.5,163.5C 159.747,156.916 164.747,150.916 170.5,145.5C 177.615,139.387 185.281,134.054 193.5,129.5C 206.083,123.249 219.416,119.916 233.5,119.5 Z"/></g>
<g><path style="opacity:1" fill="#9ea1a3" d="M 233.5,119.5 C 243.971,118.144 254.471,118.811 265,121.5C 266.03,121.836 266.53,122.503 266.5,123.5C 255.693,120.671 244.693,119.337 233.5,119.5 Z"/></g>
<g><path style="opacity:1" fill="#fabb0c" d="M 29.5,123.5 C 46.1383,121.304 52.3049,128.304 48,144.5C 46.7494,147.381 44.5827,149.214 41.5,150C 25.6623,152.156 19.4956,145.322 23,129.5C 25.0627,127.266 27.2294,125.266 29.5,123.5 Z"/></g>
<g><path style="opacity:1" fill="#fabb15" d="M 81.5,126.5 C 80.448,126.351 79.448,126.517 78.5,127C 81.2661,128.371 83.5994,130.204 85.5,132.5C 86.7365,139.166 85.0698,144.833 80.5,149.5C 74.909,152.107 69.2423,151.94 63.5,149C 61.9297,147.603 60.5964,146.103 59.5,144.5C 55.7019,128.134 62.0352,121.301 78.5,124C 79.9423,124.377 80.9423,125.21 81.5,126.5 Z"/></g>
<g><path style="opacity:1" fill="#fabb0b" d="M 102.5,123.5 C 119.138,121.304 125.305,128.304 121,144.5C 119.749,147.381 117.583,149.214 114.5,150C 98.6623,152.156 92.4956,145.322 96,129.5C 98.0627,127.266 100.229,125.266 102.5,123.5 Z"/></g>
<g><path style="opacity:1" fill="#fabb0b" d="M 138.5,123.5 C 154.378,121.21 160.878,127.876 158,143.5C 156.878,145.624 155.378,147.457 153.5,149C 137.391,153.882 130.224,148.048 132,131.5C 133.305,128.039 135.471,125.372 138.5,123.5 Z"/></g>
<g><path style="opacity:1" fill="#f2b60a" d="M 192.5,126.5 C 193.11,127.391 193.443,128.391 193.5,129.5C 185.281,134.054 177.615,139.387 170.5,145.5C 169.778,145.082 169.278,144.416 169,143.5C 168.333,139.167 168.333,134.833 169,130.5C 170.122,128.376 171.622,126.543 173.5,125C 180.156,122.627 186.489,123.127 192.5,126.5 Z"/></g>
<g><path style="opacity:1" fill="#fa3426" d="M 59.5,144.5 C 60.5964,146.103 61.9297,147.603 63.5,149C 69.2423,151.94 74.909,152.107 80.5,149.5C 86.9727,146.541 89.1394,141.541 87,134.5C 86.7216,133.584 86.2216,132.918 85.5,132.5C 83.5994,130.204 81.2661,128.371 78.5,127C 79.448,126.517 80.448,126.351 81.5,126.5C 89.308,130.803 91.4747,137.136 88,145.5C 80.4614,154.266 71.628,155.766 61.5,150C 54.5147,143.442 52.6814,135.608 56,126.5C 63.0844,118.515 71.9177,115.682 82.5,118C 85.6181,118.873 88.6181,120.039 91.5,121.5C 92.8333,122.167 92.8333,122.833 91.5,123.5C 82.4216,118.781 73.0883,118.281 63.5,122C 58.4076,125.017 56.0743,129.517 56.5,135.5C 56.6667,137.5 56.8333,139.5 57,141.5C 57.3768,142.942 58.2101,143.942 59.5,144.5 Z"/></g>
<g><path style="opacity:0.235" fill="#a7a8a9" d="M 266.5,123.5 C 273.794,124.567 280.961,126.234 288,128.5C 289.684,128.317 289.85,127.65 288.5,126.5C 289.492,126.328 290.158,126.662 290.5,127.5C 290.586,128.496 290.252,129.329 289.5,130C 292.758,131.553 295.424,133.719 297.5,136.5C 293.046,133.771 288.38,131.271 283.5,129C 281.26,128.023 278.927,127.523 276.5,127.5C 272.873,126.679 269.54,125.346 266.5,123.5 Z"/></g>
<g><path style="opacity:1" fill="#fdfdfd" d="M 228.5,130.5 C 270.251,129.465 299.751,147.799 317,185.5C 330.265,229.041 318.432,263.874 281.5,290C 240.03,311.116 203.197,304.95 171,271.5C 148.446,241.014 145.446,208.68 162,174.5C 177.319,149.428 199.485,134.761 228.5,130.5 Z"/></g>
<g><path style="opacity:1" fill="#212a31" d="M 235.5,134.5 C 236.5,134.5 237.5,134.5 238.5,134.5C 238.5,140.167 238.5,145.833 238.5,151.5C 237.5,151.5 236.5,151.5 235.5,151.5C 235.5,145.833 235.5,140.167 235.5,134.5 Z"/></g>
<g><path style="opacity:1" fill="#f8e4d4" d="M 85.5,132.5 C 86.2216,132.918 86.7216,133.584 87,134.5C 89.1394,141.541 86.9727,146.541 80.5,149.5C 85.0698,144.833 86.7365,139.166 85.5,132.5 Z"/></g>
<g><path style="opacity:0.431" fill="#414750" d="M 276.5,127.5 C 278.927,127.523 281.26,128.023 283.5,129C 288.38,131.271 293.046,133.771 297.5,136.5C 298.167,136.5 298.5,136.833 298.5,137.5C 303.091,143.596 308.258,149.262 314,154.5C 316.712,157.936 318.879,161.603 320.5,165.5C 309.182,148.841 294.515,136.174 276.5,127.5 Z"/></g>
<g><path style="opacity:0.059" fill="#dfdfdf" d="M 290.5,127.5 C 303.409,135.074 314.075,145.074 322.5,157.5C 321.07,157.579 319.736,157.246 318.5,156.5C 313.753,150.576 308.753,144.743 303.5,139C 301.846,138.392 300.179,137.892 298.5,137.5C 298.5,136.833 298.167,136.5 297.5,136.5C 295.424,133.719 292.758,131.553 289.5,130C 290.252,129.329 290.586,128.496 290.5,127.5 Z"/></g>
<g><path style="opacity:1" fill="#59646f" d="M 195.5,146.5 C 197.592,146.561 199.092,147.561 200,149.5C 201.08,151.996 202.414,154.33 204,156.5C 204.749,157.635 204.583,158.635 203.5,159.5C 200.073,155.649 197.406,151.315 195.5,146.5 Z"/></g>
<g><path style="opacity:1" fill="#57626d" d="M 275.5,146.5 C 276.552,146.351 277.552,146.517 278.5,147C 276.443,151.627 273.777,155.794 270.5,159.5C 269.417,158.635 269.251,157.635 270,156.5C 272.112,153.273 273.945,149.94 275.5,146.5 Z"/></g>
<g><path style="opacity:1" fill="#fabb0e" d="M 28.5,158.5 C 45.6342,155.798 52.1342,162.798 48,179.5C 46.5202,182.663 44.0202,184.496 40.5,185C 25.1648,186.65 19.3314,179.817 23,164.5C 24.3597,161.977 26.193,159.977 28.5,158.5 Z"/></g>
<g><path style="opacity:1" fill="#fabb0e" d="M 65.5,158.5 C 81.7137,155.879 88.2137,162.546 85,178.5C 83.8783,180.624 82.3783,182.457 80.5,184C 63.7227,188.872 56.556,182.705 59,165.5C 60.6941,162.642 62.8607,160.309 65.5,158.5 Z"/></g>
<g><path style="opacity:1" fill="#fabb0e" d="M 102.5,158.5 C 117.317,155.823 123.817,161.823 122,176.5C 121.167,181.333 118.333,184.167 113.5,185C 98.1648,186.65 92.3314,179.817 96,164.5C 97.4936,161.686 99.6603,159.686 102.5,158.5 Z"/></g>
<g><path style="opacity:1" fill="#f7b90c" d="M 155.5,163.5 C 151.306,170.554 147.639,177.888 144.5,185.5C 140.413,185.706 136.913,184.373 134,181.5C 127.51,164.328 133.344,156.828 151.5,159C 154.106,159.45 155.439,160.95 155.5,163.5 Z"/></g>
<g><path style="opacity:1" fill="#4f5b66" d="M 237.5,211.5 C 236.041,211.433 234.708,211.766 233.5,212.5C 227.827,194.483 222.161,176.483 216.5,158.5C 218.911,158.137 220.411,159.137 221,161.5C 226.607,178.153 232.107,194.82 237.5,211.5 Z"/></g>
<g><path style="opacity:0.957" fill="#abacac" d="M 13.5,237.5 C 55.8333,237.5 98.1667,237.5 140.5,237.5C 140.5,234.833 140.5,232.167 140.5,229.5C 141.344,232.345 142.01,235.345 142.5,238.5C 99.5,238.5 56.5,238.5 13.5,238.5C 12.5045,251.323 12.1712,264.323 12.5,277.5C 11.3343,189.668 11.1676,101.668 12,13.5C 12.167,88.3345 12.667,163.001 13.5,237.5 Z"/></g>
<g><path style="opacity:0.149" fill="#9d9d9d" d="M 298.5,137.5 C 300.179,137.892 301.846,138.392 303.5,139C 308.753,144.743 313.753,150.576 318.5,156.5C 319.736,157.246 321.07,157.579 322.5,157.5C 323.167,157.5 323.5,157.833 323.5,158.5C 322.624,158.369 321.957,158.702 321.5,159.5C 323.072,163.56 325.239,167.226 328,170.5C 330.462,177.441 332.628,184.441 334.5,191.5C 332.866,190.045 331.532,188.378 330.5,186.5C 329.977,183.11 329.143,179.777 328,176.5C 327.502,174.456 326.335,173.122 324.5,172.5C 322.917,170.337 321.584,168.004 320.5,165.5C 318.879,161.603 316.712,157.936 314,154.5C 308.258,149.262 303.091,143.596 298.5,137.5 Z"/></g>
<g><path style="opacity:1" fill="#56616c" d="M 166.5,175.5 C 171.755,177.128 176.422,179.794 180.5,183.5C 180.167,183.833 179.833,184.167 179.5,184.5C 175.34,182.588 171.34,180.421 167.5,178C 166.748,177.329 166.414,176.496 166.5,175.5 Z"/></g>
<g><path style="opacity:1" fill="#58636e" d="M 304.5,175.5 C 306.942,175.354 307.609,176.187 306.5,178C 302.374,179.966 298.374,182.132 294.5,184.5C 294.167,184.167 293.833,183.833 293.5,183.5C 297.019,180.579 300.686,177.913 304.5,175.5 Z"/></g>
<g><path style="opacity:0.506" fill="#3d3d3e" d="M 324.5,172.5 C 326.335,173.122 327.502,174.456 328,176.5C 329.143,179.777 329.977,183.11 330.5,186.5C 328.324,181.992 326.324,177.325 324.5,172.5 Z"/></g>
<g><path style="opacity:1" fill="#fabb0e" d="M 28.5,193.5 C 43.7896,190.302 50.6229,196.302 49,211.5C 48.0206,214.625 46.1873,217.125 43.5,219C 26.6977,223.2 19.8643,216.7 23,199.5C 24.3597,196.977 26.193,194.977 28.5,193.5 Z"/></g>
<g><path style="opacity:1" fill="#fabb0d" d="M 65.5,193.5 C 82.0494,190.548 88.5494,197.215 85,213.5C 80.5316,220.085 74.365,222.252 66.5,220C 62.2297,218.73 59.7297,215.896 59,211.5C 56.7186,203.708 58.8853,197.708 65.5,193.5 Z"/></g>
<g><path style="opacity:1" fill="#fabb0d" d="M 101.5,193.5 C 116.79,190.302 123.623,196.302 122,211.5C 121.021,214.625 119.187,217.125 116.5,219C 99.6977,223.2 92.8643,216.7 96,199.5C 97.3597,196.977 99.193,194.977 101.5,193.5 Z"/></g>
<g><path style="opacity:0.365" fill="#4d4e50" d="M 330.5,186.5 C 331.532,188.378 332.866,190.045 334.5,191.5C 334.674,193.861 335.007,196.194 335.5,198.5C 336.371,206.8 336.705,215.133 336.5,223.5C 335.833,224.167 335.167,224.833 334.5,225.5C 334.683,212.328 333.35,199.328 330.5,186.5 Z"/></g>
<g><path style="opacity:1" fill="#242d34" d="M 155.5,214.5 C 160.844,214.334 166.177,214.501 171.5,215C 172.833,216 172.833,217 171.5,218C 166.177,218.499 160.844,218.666 155.5,218.5C 155.5,217.167 155.5,215.833 155.5,214.5 Z"/></g>
<g><path style="opacity:1" fill="#242d34" d="M 302.5,214.5 C 307.833,214.5 313.167,214.5 318.5,214.5C 318.5,215.833 318.5,217.167 318.5,218.5C 313.156,218.666 307.823,218.499 302.5,218C 301.316,216.855 301.316,215.688 302.5,214.5 Z"/></g>
<g><path style="opacity:1" fill="#242d33" d="M 242.5,215.5 C 251.725,221.7 260.891,228.033 270,234.5C 270.987,238.506 269.487,240.339 265.5,240C 256.434,233.811 247.434,227.644 238.5,221.5C 241.044,220.292 242.378,218.292 242.5,215.5 Z"/></g>
<g><path style="opacity:0.201" fill="#aeaeae" d="M 335.5,198.5 C 336.222,198.918 336.722,199.584 337,200.5C 339.426,216.314 338.759,231.981 335,247.5C 334.764,249.119 333.931,250.119 332.5,250.5C 332.965,245.345 334.131,240.345 336,235.5C 336.499,231.514 336.666,227.514 336.5,223.5C 336.705,215.133 336.371,206.8 335.5,198.5 Z"/></g>
<g><path style="opacity:1" fill="#f8bf26" d="M 242.5,215.5 C 242.378,218.292 241.044,220.292 238.5,221.5C 237.127,221.343 235.793,221.51 234.5,222C 223.324,235.339 211.991,248.506 200.5,261.5C 200.167,261 199.833,260.5 199.5,260C 209.876,247.426 220.376,234.926 231,222.5C 231.071,219.067 231.904,215.734 233.5,212.5C 234.708,211.766 236.041,211.433 237.5,211.5C 240.815,211.028 243.149,209.195 244.5,206C 245.635,205.251 246.635,205.417 247.5,206.5C 245.851,208.65 244.018,210.65 242,212.5C 241.26,213.749 241.427,214.749 242.5,215.5 Z"/></g>
<g><path style="opacity:1" fill="#49553d" d="M 235.5,214.5 C 238.166,214.066 239.333,215.066 239,217.5C 235.403,219.066 234.237,218.066 235.5,214.5 Z"/></g>
<g><path style="opacity:0.341" fill="#e4e4e4" d="M 12.5,11.5 C 11.2101,12.0577 10.3768,13.0577 10,14.5C 9.17123,46.7383 9.3379,78.905 10.5,111C 9.80945,112.067 9.30945,113.234 9,114.5C 8.17927,169.529 8.34594,224.529 9.5,279.5C 11.5643,279.687 13.5643,280.187 15.5,281C 64.1655,281.5 112.832,281.667 161.5,281.5C 162.945,283.063 164.611,284.396 166.5,285.5C 166.833,286.167 167.167,286.833 167.5,287.5C 167.5,288.5 167.5,289.5 167.5,290.5C 166.5,290.5 165.5,290.5 164.5,290.5C 164.611,289.883 164.944,289.383 165.5,289C 160.879,288.086 156.212,287.586 151.5,287.5C 106.88,287.436 62.7134,287.769 19,288.5C 17.3066,287.816 15.8066,286.816 14.5,285.5C 13.8076,286.025 13.3076,286.692 13,287.5C 7.86338,285.53 4.69671,281.864 3.5,276.5C 4.1615,189.853 4.82816,103.186 5.5,16.5C 6.99181,14.7918 7.32515,13.1252 6.5,11.5C 8.13775,9.69919 9.97109,8.03252 12,6.5C 12.4935,8.13414 12.6602,9.80081 12.5,11.5 Z"/></g>
<g><path style="opacity:1" fill="#1d262e" d="M 13.5,238.5 C 56.5,238.5 99.5,238.5 142.5,238.5C 145.833,252.496 151.833,265.162 160.5,276.5C 111.5,276.5 62.5,276.5 13.5,276.5C 13.5,263.833 13.5,251.167 13.5,238.5 Z"/></g>
<g><path style="opacity:1" fill="#58636e" d="M 178.5,248.5 C 180.549,248.706 180.883,249.539 179.5,251C 176.167,253 172.833,255 169.5,257C 168.365,257.749 167.365,257.583 166.5,256.5C 170.246,253.415 174.246,250.749 178.5,248.5 Z"/></g>
<g><path style="opacity:1" fill="#58636e" d="M 293.5,248.5 C 298.437,250.637 303.104,253.304 307.5,256.5C 305.048,257.314 302.715,256.814 300.5,255C 298.999,253.748 297.332,252.748 295.5,252C 294.177,251.184 293.511,250.017 293.5,248.5 Z"/></g>
<g><path style="opacity:0.022" fill="#d3d3d3" d="M 323.5,158.5 C 333.078,173.572 339.078,189.905 341.5,207.5C 341.5,207.833 341.5,208.167 341.5,208.5C 340.167,208.833 340.167,209.167 341.5,209.5C 341.5,214.5 341.5,219.5 341.5,224.5C 335.372,272.727 309.039,304.06 262.5,318.5C 261.602,317.842 260.602,317.176 259.5,316.5C 264.472,312.687 270.138,310.521 276.5,310C 280.875,308.419 284.875,306.252 288.5,303.5C 301.732,296.935 312.065,287.268 319.5,274.5C 320.396,271.931 322.062,269.931 324.5,268.5C 327.605,262.718 330.271,256.718 332.5,250.5C 333.931,250.119 334.764,249.119 335,247.5C 338.759,231.981 339.426,216.314 337,200.5C 336.722,199.584 336.222,198.918 335.5,198.5C 335.007,196.194 334.674,193.861 334.5,191.5C 332.628,184.441 330.462,177.441 328,170.5C 325.239,167.226 323.072,163.56 321.5,159.5C 321.957,158.702 322.624,158.369 323.5,158.5 Z"/></g>
<g><path style="opacity:0.231" fill="#7f7f7f" d="M 336.5,223.5 C 336.666,227.514 336.499,231.514 336,235.5C 334.131,240.345 332.965,245.345 332.5,250.5C 330.271,256.718 327.605,262.718 324.5,268.5C 322.062,269.931 320.396,271.931 319.5,274.5C 314.3,280.355 308.967,286.188 303.5,292C 300.536,294.81 297.202,296.976 293.5,298.5C 312.399,284.431 325.233,266.097 332,243.5C 333.16,238.208 333.993,232.875 334.5,227.5C 334.5,226.833 334.5,226.167 334.5,225.5C 335.167,224.833 335.833,224.167 336.5,223.5 Z"/></g>
<g><path style="opacity:1" fill="#57626d" d="M 202.5,273.5 C 204.225,273.843 204.725,274.843 204,276.5C 201.667,280.167 199.333,283.833 197,287.5C 196.308,286.975 195.808,286.308 195.5,285.5C 197.861,281.483 200.194,277.483 202.5,273.5 Z"/></g>
<g><path style="opacity:1" fill="#57626d" d="M 269.5,273.5 C 270.496,273.414 271.329,273.748 272,274.5C 273.497,278.165 275.497,281.498 278,284.5C 278.563,285.725 278.23,286.725 277,287.5C 273.691,283.213 271.191,278.547 269.5,273.5 Z"/></g>
<g><path style="opacity:1" fill="#464c50" d="M 13.5,238.5 C 13.5,251.167 13.5,263.833 13.5,276.5C 62.5,276.5 111.5,276.5 160.5,276.5C 160.5,276.833 160.5,277.167 160.5,277.5C 111.167,277.5 61.8333,277.5 12.5,277.5C 12.1712,264.323 12.5045,251.323 13.5,238.5 Z"/></g>
<g><path style="opacity:0.976" fill="#a4a4a4" d="M 12.5,277.5 C 61.8333,277.5 111.167,277.5 160.5,277.5C 163.2,279.234 165.2,281.568 166.5,284.5C 166.5,284.833 166.5,285.167 166.5,285.5C 164.611,284.396 162.945,283.063 161.5,281.5C 160.737,280.732 159.737,280.232 158.5,280C 110.167,279.667 61.8333,279.333 13.5,279C 12.944,278.617 12.6107,278.117 12.5,277.5 Z"/></g>
<g><path style="opacity:0.787" fill="#c5c5c5" d="M 12.5,11.5 C 13.4993,86.6648 13.8326,161.998 13.5,237.5C 12.667,163.001 12.167,88.3345 12,13.5C 11.1676,101.668 11.3343,189.668 12.5,277.5C 12.6107,278.117 12.944,278.617 13.5,279C 61.8333,279.333 110.167,279.667 158.5,280C 159.737,280.232 160.737,280.732 161.5,281.5C 112.832,281.667 64.1655,281.5 15.5,281C 13.5643,280.187 11.5643,279.687 9.5,279.5C 8.34594,224.529 8.17927,169.529 9,114.5C 9.30945,113.234 9.80945,112.067 10.5,111C 9.3379,78.905 9.17123,46.7383 10,14.5C 10.3768,13.0577 11.2101,12.0577 12.5,11.5 Z"/></g>
<g><path style="opacity:1" fill="#212a31" d="M 235.5,281.5 C 236.5,281.5 237.5,281.5 238.5,281.5C 238.5,287.167 238.5,292.833 238.5,298.5C 237.5,298.5 236.5,298.5 235.5,298.5C 235.5,292.833 235.5,287.167 235.5,281.5 Z"/></g>
<g><path style="opacity:0.192" fill="#a3a3a3" d="M 319.5,274.5 C 312.065,287.268 301.732,296.935 288.5,303.5C 289.211,301.97 290.211,300.637 291.5,299.5C 291.842,298.662 292.508,298.328 293.5,298.5C 297.202,296.976 300.536,294.81 303.5,292C 308.967,286.188 314.3,280.355 319.5,274.5 Z"/></g>
<g><path style="opacity:0.592" fill="#21242a" d="M 334.5,227.5 C 333.993,232.875 333.16,238.208 332,243.5C 325.233,266.097 312.399,284.431 293.5,298.5C 292.508,298.328 291.842,298.662 291.5,299.5C 284.341,303.245 277.007,306.745 269.5,310C 265.312,311.631 260.979,312.464 256.5,312.5C 266.503,309.844 276.169,306.01 285.5,301C 313.196,284.127 329.529,259.627 334.5,227.5 Z"/></g>
<g><path style="opacity:0.263" fill="#838384" d="M 166.5,284.5 C 173.618,291.294 181.284,297.294 189.5,302.5C 190.306,303.728 191.306,304.728 192.5,305.5C 188.073,303.628 183.739,301.462 179.5,299C 175.658,294.991 171.658,291.157 167.5,287.5C 167.167,286.833 166.833,286.167 166.5,285.5C 166.5,285.167 166.5,284.833 166.5,284.5 Z"/></g>
<g><path style="opacity:0.025" fill="#979797" d="M 167.5,287.5 C 171.658,291.157 175.658,294.991 179.5,299C 183.739,301.462 188.073,303.628 192.5,305.5C 192.574,307.411 193.574,308.578 195.5,309C 215.138,315.799 235.471,318.465 256.5,317C 257.756,317.417 258.423,318.25 258.5,319.5C 223.23,325.189 192.563,316.022 166.5,292C 115.998,291.833 65.665,291.333 15.5,290.5C 65.1667,290.5 114.833,290.5 164.5,290.5C 165.5,290.5 166.5,290.5 167.5,290.5C 167.5,289.5 167.5,288.5 167.5,287.5 Z"/></g>
<g><path style="opacity:0.459" fill="#494b50" d="M 189.5,302.5 C 198.619,305.869 207.619,309.202 216.5,312.5C 208.149,311.383 200.149,309.05 192.5,305.5C 191.306,304.728 190.306,303.728 189.5,302.5 Z"/></g>
<g><path style="opacity:0.29" fill="#878787" d="M 291.5,299.5 C 290.211,300.637 289.211,301.97 288.5,303.5C 284.875,306.252 280.875,308.419 276.5,310C 270.138,310.521 264.472,312.687 259.5,316.5C 260.602,317.176 261.602,317.842 262.5,318.5C 261.041,318.433 259.708,318.766 258.5,319.5C 258.423,318.25 257.756,317.417 256.5,317C 235.471,318.465 215.138,315.799 195.5,309C 193.574,308.578 192.574,307.411 192.5,305.5C 200.149,309.05 208.149,311.383 216.5,312.5C 223.375,314.502 230.542,315.502 238,315.5C 242.833,315.167 247.667,314.833 252.5,314.5C 253.602,313.824 254.602,313.158 255.5,312.5C 255.833,312.5 256.167,312.5 256.5,312.5C 260.979,312.464 265.312,311.631 269.5,310C 277.007,306.745 284.341,303.245 291.5,299.5 Z"/></g>
<g><path style="opacity:0.545" fill="#2c2f33" d="M 216.5,312.5 C 229.502,313.806 242.502,313.806 255.5,312.5C 254.602,313.158 253.602,313.824 252.5,314.5C 247.667,314.833 242.833,315.167 238,315.5C 230.542,315.502 223.375,314.502 216.5,312.5 Z"/></g>
</svg>
