<svg id="Raggruppa_33066" data-name="Raggruppa 33066" xmlns="http://www.w3.org/2000/svg" xmlns:xlink="http://www.w3.org/1999/xlink" width="455.977" height="275.661" viewBox="0 0 455.977 275.661">
  <defs>
    <clipPath id="clip-path">
      <rect id="Rettangolo_166448" data-name="Rettangolo 166448" width="455.977" height="275.661" fill="none"/>
    </clipPath>
    <clipPath id="clip-path-3">
      <rect id="Rettangolo_166439" data-name="Rettangolo 166439" width="156.983" height="8.772" fill="none"/>
    </clipPath>
    <clipPath id="clip-path-4">
      <rect id="Rettangolo_166440" data-name="Rettangolo 166440" width="10.884" height="13.9" fill="none"/>
    </clipPath>
    <clipPath id="clip-path-5">
      <rect id="Rettangolo_166441" data-name="Rettangolo 166441" width="17.532" height="12.488" fill="none"/>
    </clipPath>
    <clipPath id="clip-path-6">
      <rect id="Rettangolo_166444" data-name="Rettangolo 166444" width="8.403" height="1.084" fill="none"/>
    </clipPath>
    <clipPath id="clip-path-7">
      <rect id="Rettangolo_166445" data-name="Rettangolo 166445" width="73.183" height="76.066" fill="none"/>
    </clipPath>
    <clipPath id="clip-path-8">
      <rect id="Rettangolo_166446" data-name="Rettangolo 166446" width="39.791" height="5.252" fill="none"/>
    </clipPath>
  </defs>
  <g id="Raggruppa_33065" data-name="Raggruppa 33065" clip-path="url(#clip-path)">
    <g id="Raggruppa_33064" data-name="Raggruppa 33064" transform="translate(0 0)">
      <g id="Raggruppa_33063" data-name="Raggruppa 33063" clip-path="url(#clip-path)">
        <path id="Tracciato_110785" data-name="Tracciato 110785" d="M1490.868,1010.972l-.652.539a149.289,149.289,0,0,1-8.874-178.432l.7.472a148.443,148.443,0,0,0,8.823,177.422" transform="translate(-1339.415 -766.393)" fill="#00a5c1"/>
        <path id="Tracciato_110786" data-name="Tracciato 110786" d="M1680.353,701.355c-4.371,6.471-9.1,11.049-11.41,9.859-2.282-1.174-1.048-8.1,3.656-15.072a24.891,24.891,0,0,1,12.735-9.243c-.027.049-.672,8.017-4.981,14.456" transform="translate(-1534.326 -631.914)" fill="#00a5c1"/>
        <path id="Tracciato_110787" data-name="Tracciato 110787" d="M1587.035,1096.307c-6.022,3-11.616,3.84-12.526,1-.915-2.817,3.494-8.143,9.851-11.018s12.511.364,12.507.321c-.054.016-3.865,6.677-9.831,9.7" transform="translate(-1448.364 -998.245)" fill="#00a5c1"/>
        <path id="Tracciato_110788" data-name="Tracciato 110788" d="M1409.4,1046.155c2.371,7.03,6.685,10.752,9.031,9.014,2.367-1.754,2.165-8.259.178-15.2a17.162,17.162,0,0,0-8.041-10.043c-.041-.052-3.605,9.172-1.168,16.23" transform="translate(-1295.802 -947.482)" fill="#00a5c1"/>
        <path id="Tracciato_110789" data-name="Tracciato 110789" d="M1492.444,1420.36c-5.288,4.083-10.6,5.991-12.062,3.414-1.46-2.555,1.783-8.575,7.41-12.583s12.3-2.067,12.29-2.109c-.047.024-2.4,7.189-7.637,11.277" transform="translate(-1361.561 -1295.894)" fill="#00a5c1"/>
        <path id="Tracciato_110790" data-name="Tracciato 110790" d="M1301.23,1439.293c3.725,6.365,8.688,9.146,10.643,6.994,1.972-2.17.479-8.453-2.865-14.791a17.248,17.248,0,0,0-9.9-8.16c-.048-.044-1.671,9.574,2.121,15.957" transform="translate(-1194.764 -1309.402)" fill="#00a5c1"/>
        <path id="Tracciato_110791" data-name="Tracciato 110791" d="M1476.534,1719.24c-4.888,5.4-10.063,8.72-11.986,6.476-1.918-2.218.471-9.156,5.731-14.525s12.576-4.959,12.552-5c-.041.032-1.467,7.652-6.3,13.05" transform="translate(-1346.71 -1569.614)" fill="#00a5c1"/>
        <path id="Tracciato_110792" data-name="Tracciato 110792" d="M1246.129,1783c5.234,6.184,11.027,8.4,12.56,5.941,1.551-2.487-1.431-8.764-6.248-14.977a20.589,20.589,0,0,0-11.9-7.413c-.058-.04.276,10.261,5.585,16.449" transform="translate(-1141.237 -1625.147)" fill="#00a5c1"/>
        <path id="Tracciato_110793" data-name="Tracciato 110793" d="M1518.419,2047.471c-3.882,6.643-8.372,11.317-10.727,9.5-2.345-1.793-1.315-9.451,2.964-16.129s11.731-7.971,11.7-8.01c-.034.039-.112,8-3.933,14.643" transform="translate(-1385.876 -1870.106)" fill="#00a5c1"/>
        <path id="Tracciato_110794" data-name="Tracciato 110794" d="M1251.19,2179.478c6.686,5.4,13.108,6.645,14.115,3.9,1.021-2.769-3.431-8.575-9.68-14.076a22.784,22.784,0,0,0-13.67-5.611,34.623,34.623,0,0,0,2.048,5.856,27.2,27.2,0,0,0,7.187,9.926" transform="translate(-1142.54 -1990.494)" fill="#00a5c1"/>
        <path id="Tracciato_110795" data-name="Tracciato 110795" d="M1626.9,2295.21c-3.141,8.472-6.868,15.109-9.549,13.727-2.662-1.346-2.851-10.322.756-18.9a24.521,24.521,0,0,1,11.274-11.96,47.856,47.856,0,0,1-2.482,17.133" transform="translate(-1486.072 -2095.723)" fill="#00a5c1"/>
        <path id="Tracciato_110796" data-name="Tracciato 110796" d="M1283.588,2516.337c8.92,5.1,16.61,5.6,17.056,2.691.463-2.955-6.111-8.391-14.515-13.674a32.229,32.229,0,0,0-16.728-5.057,41.277,41.277,0,0,0,3.675,6.112,34.968,34.968,0,0,0,10.513,9.929" transform="translate(-1167.788 -2300.141)" fill="#00a5c1"/>
        <path id="Tracciato_110797" data-name="Tracciato 110797" d="M180.016,1578.04l-.788.305c-55.551-32.218-6.511-104.911-47.5-142.763l.788-.305c40.992,37.852-8.049,110.545,47.5,142.763" transform="translate(-121.181 -1320.387)" fill="#00a5c1"/>
        <path id="Tracciato_110798" data-name="Tracciato 110798" d="M15.15,1345.651c5.087,4.689,5.784,9.817,3.413,10.735-2.441.945-7.039-2.673-12.126-7.363A23.3,23.3,0,0,1,0,1339.458c-.017.007,10.113,1.484,15.15,6.193" transform="translate(0 -1232.238)" fill="#00a5c1"/>
        <path id="Tracciato_110799" data-name="Tracciato 110799" d="M317.019,1501.334c-2.69,5.673-7.006,9.488-9.156,8.333-2.167-1.148-1.735-6.682.379-12.132,2.093-5.443,8.269-7.99,8.31-8.006a13.628,13.628,0,0,1,1.328,3.742,12.9,12.9,0,0,1-.861,8.063" transform="translate(-281.904 -1370.296)" fill="#00a5c1"/>
        <path id="Tracciato_110800" data-name="Tracciato 110800" d="M101,1716.355c5.174,2.63,10.151,2.849,11.518.333,1.352-2.51-1.735-6.682-7.4-9.123-5.682-2.433-12.273-.041-12.237-.054a30.106,30.106,0,0,0,2.193,3.407,17.8,17.8,0,0,0,5.924,5.437" transform="translate(-85.445 -1569.874)" fill="#00a5c1"/>
        <path id="Tracciato_110801" data-name="Tracciato 110801" d="M369.8,1780.237c-3.869,6.13-8.585,10.1-10.314,8.781s.007-7.356,3.581-13.371a22.843,22.843,0,0,1,9.874-8.611,21.981,21.981,0,0,1-3.142,13.2" transform="translate(-330.09 -1625.589)" fill="#00a5c1"/>
        <path id="Tracciato_110802" data-name="Tracciato 110802" d="M169.5,2008.08c4.254,2.986,8.952,3.313,10.629.677s-.4-7.2-4.867-10.1-10.96-.549-10.942-.556c.044-.017.977,6.975,5.181,9.98" transform="translate(-151.162 -1837.336)" fill="#00a5c1"/>
        <path id="Tracciato_110803" data-name="Tracciato 110803" d="M379.209,2047.108c-4.629,6.875-9.7,11.346-11.357,10s.772-8.018,5.363-14.877a30.75,30.75,0,0,1,11.279-9.971,34.186,34.186,0,0,1-5.285,14.847" transform="translate(-337.923 -1869.584)" fill="#00a5c1"/>
        <path id="Tracciato_110804" data-name="Tracciato 110804" d="M163.569,2281.618c4.532,3.329,9.644,3.861,11.293,1.236s-.664-7.462-5.155-10.807-11.242-1.256-11.24-1.257.581,7.494,5.1,10.828" transform="translate(-145.783 -2088.429)" fill="#00a5c1"/>
        <path id="Tracciato_110805" data-name="Tracciato 110805" d="M384.775,2366.793c-4.358,7.042-9.134,11.622-11.1,10.4s-.027-7.929,4.626-15.085a32.891,32.891,0,0,1,11.6-10.59,40.562,40.562,0,0,1-5.129,15.28" transform="translate(-343.062 -2163.281)" fill="#00a5c1"/>
        <path id="Tracciato_110806" data-name="Tracciato 110806" d="M149.849,2591.3c5.483,3.234,11.376,3.684,12.652,1.2s-2.137-7.112-7.26-10.486-12.013-1.451-12.033-1.443,1.118,7.507,6.64,10.726" transform="translate(-131.745 -2373.501)" fill="#00a5c1"/>
        <path id="Tracciato_110807" data-name="Tracciato 110807" d="M453.515,2601.348c-3.677,7.716-7.85,12.821-10.434,11.833s-1.871-7.975,2.485-15.953a36.056,36.056,0,0,1,11.878-12.393c-.043.016-.337,8.83-3.93,16.512" transform="translate(-406.241 -2377.927)" fill="#00a5c1"/>
        <path id="Tracciato_110808" data-name="Tracciato 110808" d="M136.671,2851.054c8.055,3.176,16.058,3.569,16.66,1.349.618-2.226-5.634-6.519-12.937-9.985a26.85,26.85,0,0,0-15.057-1.969,19.01,19.01,0,0,0,2.584,4.136,21.383,21.383,0,0,0,8.75,6.469" transform="translate(-115.304 -2612.776)" fill="#00a5c1"/>
        <path id="Tracciato_110809" data-name="Tracciato 110809" d="M4427.235,850.473a11.989,11.989,0,0,0-21.621-7.14,16.2,16.2,0,0,0-6.751-8.31,20.543,20.543,0,0,0,.165-2.6A20.29,20.29,0,0,0,4358.594,830a18.384,18.384,0,0,0-26.063,13.324,12,12,0,0,0-15.725,11.395c0,2.922.075,7.785,2.783,7.68,31.051-1.2,62.033-.72,101.887,0,4.44.08,5.759-7.59,5.759-11.929" transform="translate(-3971.259 -747.127)" fill="#effbff"/>
        <path id="Tracciato_110810" data-name="Tracciato 110810" d="M289.9,463.981a8.58,8.58,0,0,0-15.473-5.11,11.592,11.592,0,0,0-4.831-5.947,14.521,14.521,0,1,0-28.819-3.593,13.157,13.157,0,0,0-18.652,9.535,8.585,8.585,0,0,0-11.254,8.155c0,2.091.054,5.571,1.992,5.5,22.222-.859,44.394-.516,72.916,0,3.177.057,4.121-5.432,4.121-8.537" transform="translate(-193.99 -401.601)" fill="#effbff"/>
        <path id="Tracciato_110811" data-name="Tracciato 110811" d="M2113.757,23.928c-4.842-2.69-13.09-.911-17.3-3.926-3.357-2.4-1.183-6.361-3.125-9.042-1.825-2.518-5.283-2.984-7.715-4.245-7.989-4.142-8.868-2.749-16.309.607-2.12.956-6.069,1.949-8.2,1.407-3.659-.933-3.211-4.181-4.92-5.935-4.451-4.572-11.546-3.157-15.323,1.473-2.99,3.666-4.414,10.031-7.618,13.321-5.632,5.785-8.55-.079-14.264-1.828-4-1.225-12.919.123-15.4,3.026-3.263,3.814-3.478,13.458.675,16.681,4.019,3.119,12.974,1.648,19.226,2.562,5.912.864,12.007.64,18.073.64h36.326c11.187,0,25.34,2.5,34.784-3.058,5.247-3.088,8.519-7.556,1.093-11.683" transform="translate(-1840.949 0.004)" fill="#effbff"/>
        <path id="Tracciato_110812" data-name="Tracciato 110812" d="M2160.724,722.594c-.967-.027-2.679.148-2.679.148a26.034,26.034,0,0,0,2.659-.42c.225-.064.129-.411-.07-.4-.932.041-2.638.157-2.638.157s1.735-.234,2.279-.327c.311-.054.013-.454-.254-.43a24.113,24.113,0,0,1-3.451.225c-.091-.014.162-.207.57-.23.517-.029.853.1.867.041.046-.209-.783-.7-2.12-.577-1.273.113-1.2,1-2.51,1.048a25.63,25.63,0,0,1-3.674-.257c-3.067-.364-5.207.192-7.016.079-2.484-.155-6.339-1.206-6.6-1.594l-1.134,3.675a67.677,67.677,0,0,0,11.992.845c2.65-.128,5.015-.947,5.713-.615,1.351.643,5.6.376,4.134.574-1.017.137,1.765-.555,2.856-.783.32-.067.719-.417.372-.427-.833-.024-1.922.005-1.922.005s1.692-.252,2.337-.334c.247-.031.549-.393.293-.4" transform="translate(-1964.053 -662.416)" fill="#f9e8da"/>
        <path id="Tracciato_110813" data-name="Tracciato 110813" d="M739.624,2579.167c0,17.553-94.47,31.783-211,31.783s-211-14.23-211-31.783c0-4.5,6.21-8.782,17.409-12.662a199.207,199.207,0,0,1,26.1-6.67c8.152-1.6-29.4-5.188-21.166-11,14.213-10.034,82.659-8.2,102.006-9.526,26.631-1.828,53.829-.031,85-.031a878.375,878.375,0,0,1,98.981,5.487c18.047,2.07,56.378,5.486,70.451,11.755,10.528,4.69-2.357,12.348,6.084,14.769,22.376,6.417,37.142,1.4,37.142,7.88" transform="translate(-292.192 -2335.289)" fill="#caeae6"/>
        <g id="Raggruppa_33047" data-name="Raggruppa 33047" transform="translate(178.552 232.256)" opacity="0.5" style="mix-blend-mode: overlay;isolation: isolate">
          <g id="Raggruppa_33046" data-name="Raggruppa 33046">
            <g id="Raggruppa_33045" data-name="Raggruppa 33045" clip-path="url(#clip-path-3)">
              <path id="Tracciato_110814" data-name="Tracciato 110814" d="M2387.572,2905.877c0,2.422-35.142,4.386-78.491,4.386s-78.491-1.964-78.491-4.386,35.142-4.386,78.491-4.386,78.491,1.964,78.491,4.386" transform="translate(-2230.59 -2901.491)"/>
            </g>
          </g>
        </g>
        <path id="Tracciato_110815" data-name="Tracciato 110815" d="M1673.138,1181.39c-10.063-10.89-49.086-9.005-85.9-10.827-19.911-.985-41.232-1.943-55.238-5.524-7.509-1.92-4.5-5.444,3.219-13.379,1.3-1.335,5.706-4.973,5.706-4.973s1.474,6.976,3.323,8.746c14.354,13.739,27.313,4.176,25.762-5.056a10.051,10.051,0,0,0-2.914-5.45c-3.119-3.126-5.68-5.954-7.97-8.45-7.077-7.714-11.555-12.248-21.863-12.566-10.777-.331-23.158,2.835-35.472,8.051-13.323,5.643-35.917,7.208-48.565,14.584-9.174,5.351-15.111,14.4-23.566,17.852-15,6.12-64.814,0-64.814,0v82.537s49.314-7.078,63.533,0c25.568,12.729,57.607,26.418,103.142,26.418,5.074,0,36.986-3.6,39.627-11.528,3.749-11.247-2.4-12.249,4.563-22.336,6.6-9.557-3.139-15.649,2.4-18.973,13.209-7.925,3.122-24.977,3.122-24.977s60.762-.24,86.7-.48c3.09-.029,5.166-.888,6.373-2.521a8.034,8.034,0,0,0,1.312-4.876,8.936,8.936,0,0,0-2.478-6.273" transform="translate(-1255.591 -1033.923)" fill="#f9c4aa"/>
        <g id="Raggruppa_33050" data-name="Raggruppa 33050" transform="translate(303.533 102.553)" opacity="0.5" style="mix-blend-mode: overlay;isolation: isolate">
          <g id="Raggruppa_33049" data-name="Raggruppa 33049">
            <g id="Raggruppa_33048" data-name="Raggruppa 33048" clip-path="url(#clip-path-4)">
              <path id="Tracciato_110816" data-name="Tracciato 110816" d="M3802.813,1295.063a24.159,24.159,0,0,1-10.884-13.9c2.291,2.5,4.852,5.324,7.97,8.45a10.051,10.051,0,0,1,2.914,5.45" transform="translate(-3791.93 -1281.163)"/>
            </g>
          </g>
        </g>
        <g id="Raggruppa_33053" data-name="Raggruppa 33053" transform="translate(402.493 146.967)" opacity="0.5" style="mix-blend-mode: overlay;isolation: isolate">
          <g id="Raggruppa_33052" data-name="Raggruppa 33052">
            <g id="Raggruppa_33051" data-name="Raggruppa 33051" clip-path="url(#clip-path-5)">
              <path id="Tracciato_110817" data-name="Tracciato 110817" d="M5045.742,1842.777a8.031,8.031,0,0,1-1.312,4.876,17.148,17.148,0,0,1-5.413.839c-5.968,0-10.807-2.8-10.807-6.244s4.839-6.244,10.807-6.244a17.792,17.792,0,0,1,4.247.5,8.938,8.938,0,0,1,2.479,6.273" transform="translate(-5028.21 -1836.003)"/>
            </g>
          </g>
        </g>
        <path id="Tracciato_110818" data-name="Tracciato 110818" d="M1160.288,1735.062l-77.389-17.953V1625.77h75.389Z" transform="translate(-996.216 -1495.632)" fill="#89c4d1"/>
        <path id="Tracciato_110819" data-name="Tracciato 110819" d="M591.315,1535.79l-6.6,76.066h0l-2.606,30.054-68.107-4.322,4.127-87.5v0l.674-14.291Z" transform="translate(-472.861 -1412.854)" fill="#5e5d5c"/>
        <path id="Tracciato_110820" data-name="Tracciato 110820" d="M1039.061,2574.911a10.164,10.164,0,1,1,10.164-10.164,10.176,10.176,0,0,1-10.164,10.164" transform="translate(-946.537 -2350.096)"/>
        <path id="Tracciato_110821" data-name="Tracciato 110821" d="M1057.624,2573.946a9.364,9.364,0,1,1-9.364-9.364,9.363,9.363,0,0,1,9.364,9.364" transform="translate(-955.736 -2359.294)" fill="#3a3a38"/>
        <path id="Tracciato_110822" data-name="Tracciato 110822" d="M653.06,2536.911a10.164,10.164,0,1,1,10.164-10.164,10.176,10.176,0,0,1-10.164,10.164" transform="translate(-591.434 -2315.138)"/>
        <path id="Tracciato_110823" data-name="Tracciato 110823" d="M671.624,2535.946a9.364,9.364,0,1,1-9.364-9.364,9.364,9.364,0,0,1,9.364,9.364" transform="translate(-600.635 -2324.336)" fill="#3a3a38"/>
        <rect id="Rettangolo_166442" data-name="Rettangolo 166442" width="11.765" height="21.292" transform="matrix(0.261, -0.965, 0.965, 0.261, 127.488, 222.633)" fill="#5e5d5a"/>
        <rect id="Rettangolo_166443" data-name="Rettangolo 166443" width="10.164" height="19.692" transform="matrix(0.261, -0.965, 0.965, 0.261, 128.469, 222.069)" fill="#3a3a38"/>
        <path id="Tracciato_110824" data-name="Tracciato 110824" d="M4715.365,614.315a9.775,9.775,0,0,0-1.644-1.081c-.479-.187-2.272-2.476-1.957-2.759s1.15,1.073,1.257.651c.185-.73-1.421-2.438-1.375-2.952.008-.094.13-.3.257-.257a15.5,15.5,0,0,1,1.418,2.156,22.093,22.093,0,0,0-1.366-2.407c-.187-.239.24-.441.414-.2.44.6,1.506,2.139,1.506,2.139a25.389,25.389,0,0,0-1.278-2.314c-.149-.222.383-.268.532-.05.471.692,1.449,2.344,1.449,2.344s-1.207-2.378-1.019-2.47c.409-.2,1.334,1.852,1.795,2.5a21.114,21.114,0,0,1,1.425,3.512l2.272,4.212-1.79.669Z" transform="translate(-4334.492 -558.499)" fill="#f7b691"/>
        <path id="Tracciato_110825" data-name="Tracciato 110825" d="M4653.968,683.151c.4-.836-.78-2.26-1.53-3.687l-.015-.044h-.008c-1.636-3.106-3.936-6.551-3.936-6.551L4645,674.626l3.006,5.248-11.268,1.161a12.019,12.019,0,0,0,1.365,2.026,18.877,18.877,0,0,0,3.463,1.658s11.892-.5,12.4-1.569" transform="translate(-4265.584 -619.008)" fill="#90919a"/>
        <path id="Tracciato_110826" data-name="Tracciato 110826" d="M4582.282,674.16v-8.086h3.05l.507,8.086Z" transform="translate(-4215.484 -612.756)" fill="#eaa988"/>
        <path id="Tracciato_110827" data-name="Tracciato 110827" d="M4581.021,591.561c.022.217-.51.47-.485.7.183,1.676-.4,1.816-.063,3.295.186.813-2.377-.033-3.106.043-1.879.2-3.384-1.442-3.692-4.41s.966-5.532,2.844-5.727c1.4-.145,2.746,1.069,3.465,2.927.08.206-.165.483-.1.7a26.369,26.369,0,0,1,1.14,2.471" transform="translate(-4207.523 -538.583)" fill="#f7b691"/>
        <path id="Tracciato_110828" data-name="Tracciato 110828" d="M4546.157,553.541a2.726,2.726,0,0,0-2.109-2.751c-1.553-.145-5.089.339-6.319,1.154a4.883,4.883,0,0,0-2.482,3.485,20.171,20.171,0,0,0,.347,5.024,3.331,3.331,0,0,0,1.165,1.809c.44.363.675.717,2.684,1.2.681.164.69-1.9.722-2.377.055-.834-1.334-2.309-.593-2.912.83-.674,1.673,1.087,2.639.6-.612-.526.1-2.471.144-3.3,1.155,0,3.76-.677,3.8-1.938" transform="translate(-4172.188 -506.677)" fill="#232b55"/>
        <path id="Tracciato_110829" data-name="Tracciato 110829" d="M4504.378,1632.1c-.969.44-.677,2.441-.9,4.122-.12.9-1.09,1.618-.91,2.158.158.475,1.107.8,1.588.936.517.149,2.4-1.137,1.726-2.68-.367-.834.9-2.816.465-3.614-.262-.476-1.475-1.146-1.969-.922" transform="translate(-4142.131 -1501.412)" fill="#f7b691"/>
        <path id="Tracciato_110830" data-name="Tracciato 110830" d="M4501.911,1686.26a10.072,10.072,0,0,0-.878,1.717,8.323,8.323,0,0,0,.133,1.744l1.869.466.2-.911a4.641,4.641,0,0,0,2.657,1.526c1.93.479,3.34.72,3.34.72l.209-.971a6.387,6.387,0,0,1-3.112-1.482,12.78,12.78,0,0,1-1.621-2.206,1.557,1.557,0,0,1-1.232.116,8.718,8.718,0,0,1-1.561-.718" transform="translate(-4140.719 -1551.28)"/>
        <path id="Tracciato_110831" data-name="Tracciato 110831" d="M4683,1632.881c-.889.585-.29,2.516-.249,4.212.021.907-.825,1.767-.563,2.273.23.445,1.217.615,1.714.677.534.067,2.2-1.5,1.288-2.916-.493-.767.455-2.922-.1-3.643-.333-.43-1.634-.9-2.088-.6" transform="translate(-4307.346 -1502.087)" fill="#f7b691"/>
        <path id="Tracciato_110832" data-name="Tracciato 110832" d="M4681.3,1689a10.055,10.055,0,0,0-.6,1.833,8.335,8.335,0,0,0,.4,1.7l1.918.17.052-.93a4.642,4.642,0,0,0,2.862,1.094c1.98.173,3.411.192,3.411.192l.056-.992a6.382,6.382,0,0,1-3.3-.981,12.8,12.8,0,0,1-1.945-1.927,1.557,1.557,0,0,1-1.2.306c-.489-.069-.48-.466-1.653-.466" transform="translate(-4306.025 -1553.804)"/>
        <path id="Tracciato_110833" data-name="Tracciato 110833" d="M4436.128,1099.427a9.8,9.8,0,0,0,.786,1.8c.3.418.55,3.316.131,3.38s-.377-1.527-.7-1.232c-.554.511-.143,2.818-.462,3.224-.058.074-.272.179-.355.074a15.467,15.467,0,0,1-.01-2.58,22.272,22.272,0,0,0-.172,2.762c.027.3-.442.238-.458-.056-.042-.741-.093-2.615-.093-2.615a25.377,25.377,0,0,0-.194,2.637c0,.268-.467.015-.473-.249-.016-.837.067-2.755.067-2.755s-.289,2.652-.5,2.625c-.451-.057-.105-2.28-.136-3.076a21.068,21.068,0,0,1,.726-3.72l.4-4.768,1.864.418Z" transform="translate(-4078.583 -1007.239)" fill="#f7b691"/>
        <path id="Tracciato_110834" data-name="Tracciato 110834" d="M4592.6,1087.976h.372s1.606,16.722,1.893,22.3c.27,5.234.584,24.424.584,24.424h-3.469s-2.763-18.276-3.726-23.577c-1.05-5.786-4.573-23.143-4.573-23.143Z" transform="translate(-4216.771 -1000.886)" fill="#212c52"/>
        <path id="Tracciato_110835" data-name="Tracciato 110835" d="M4518.385,1087.976s-1.508,16.838-2.258,22.45c-.8,5.969-3.936,23.878-3.936,23.878h-4.335s.558-17.962.558-23.949c0-5.595-.558-22.379-.558-22.379Z" transform="translate(-4147.016 -1000.886)" fill="#0b3d60"/>
        <path id="Tracciato_110836" data-name="Tracciato 110836" d="M4507.864,751.978V777.62h15.359l.743-24.4-5.721-2.31v0l-.719-.29-2.033.557-1.561-.557-1.095.245Z" transform="translate(-4147.023 -690.529)" fill="#e4f1fd"/>
        <path id="Tracciato_110837" data-name="Tracciato 110837" d="M4444.524,769.2a2.748,2.748,0,0,0-2.478-.619c-2.709,1.8-3.6,9.621-3.736,12.872-.166,3.916-1.115,17.415-1.115,17.415l3.407.5s.871-13.314,1.734-17c.451-1.925,2.831-8.108,2.93-10.937a4.356,4.356,0,0,0-.743-2.23" transform="translate(-4082.011 -706.948)" fill="#90919a"/>
        <path id="Tracciato_110838" data-name="Tracciato 110838" d="M4624.42,769.161c.351,7.592,1.612,17.152,1.612,17.152h5.078l.123-29.9-4.4-.444-1.2-.485s-.109.624-.26,1.5v0c-.049.282-.1.593-.158.916-.249,1.455-.543,3.183-.67,4.008a41.447,41.447,0,0,0-.126,7.25" transform="translate(-4254.167 -695.012)" fill="#989ba3"/>
        <path id="Tracciato_110839" data-name="Tracciato 110839" d="M4490.827,786.048l5.574-.63s1.3-9.387,1.793-17.007a49.034,49.034,0,0,0,.065-7.633c-.1-.851-.479-2.746-.8-4.276-.115-.542-.223-1.04-.309-1.427-.109-.5-.18-.82-.18-.82l-1.823.366-3.51.706a36.664,36.664,0,0,1,.624,4.539c-.172,6.544-1.43,26.18-1.43,26.18" transform="translate(-4131.35 -693.88)" fill="#989ba3"/>
        <path id="Tracciato_110840" data-name="Tracciato 110840" d="M4544.747,766.19l3.051,11.641a49.034,49.034,0,0,0,.065-7.633c-.132-1.154-.788-4.223-1.113-5.7Z" transform="translate(-4180.954 -703.3)" fill="#90919a"/>
        <path id="Tracciato_110841" data-name="Tracciato 110841" d="M4624.42,786.4l2.417-10.389-1.462-1.786c-.27,1.561-.673,3.917-.829,4.924a41.446,41.446,0,0,0-.126,7.25" transform="translate(-4254.167 -712.246)" fill="#90919a"/>
        <path id="Tracciato_110842" data-name="Tracciato 110842" d="M4635.547,756.987c-.048.282-.1.593-.158.916l1.621-.916v-1.014l-1.2-.485s-.109.624-.26,1.5Z" transform="translate(-4264.34 -695.012)" fill="#90919a"/>
        <path id="Tracciato_110843" data-name="Tracciato 110843" d="M4544.747,754.623l.372.846,1.94,1.035c-.115-.543-.223-1.04-.309-1.427-.109-.5-.18-.82-.18-.82Z" transform="translate(-4180.954 -693.881)" fill="#90919a"/>
        <path id="Tracciato_110844" data-name="Tracciato 110844" d="M4570,750.86v0l.858,1.973,1.847-1.347,2.209,1.347.492-1.929v0l-.719-.29-2.033.557-1.561-.557Z" transform="translate(-4204.189 -690.53)" fill="#ccddea"/>
        <path id="Tracciato_110845" data-name="Tracciato 110845" d="M4594.516,760.027c0-.7.333-.836.743-.836s.743.135.743.836a1.415,1.415,0,0,1-.492,1.194,134.535,134.535,0,0,1,.741,14.3c0,5.525-.388,5.531-.867,5.531s-.867-.006-.867-5.531c0-4.554.179-11.858.511-14.287a1.394,1.394,0,0,1-.511-1.205" transform="translate(-4226.739 -698.42)" fill="#63c0c6"/>
        <path id="Tracciato_110846" data-name="Tracciato 110846" d="M4621.307,672.861c-.222.3-.792-.528-.792-.528a3.932,3.932,0,0,1,.444-.422,4.677,4.677,0,0,1,.742-.333,1.5,1.5,0,0,0,.136-.513,2.676,2.676,0,0,0-.375-.533s-1.476.81-1.964,1.062a4.509,4.509,0,0,0-1.009.808,1.874,1.874,0,0,0-.237,1.781,3.335,3.335,0,0,0,3.152.541c.233-.137.271-.77.3-1.039.021-.227-.256-1.008-.391-.824" transform="translate(-4248.447 -616.857)" fill="#232b55"/>
        <path id="Tracciato_110847" data-name="Tracciato 110847" d="M4667.394,610.56h-5.2a.937.937,0,0,1-.641-.922,1.053,1.053,0,0,1,.641-.919h5.2Z" transform="translate(-4288.408 -559.992)" fill="#212c52"/>
        <path id="Tracciato_110848" data-name="Tracciato 110848" d="M4706.212,597.017l-10.516-.4s-.48-.385-.48-1.826a2.7,2.7,0,0,1,.48-1.8l10.516-.4a2.548,2.548,0,0,1,.958,2.119,2.821,2.821,0,0,1-.958,2.3" transform="translate(-4319.379 -545.159)" fill="#0b3d60"/>
        <path id="Tracciato_110849" data-name="Tracciato 110849" d="M4822.312,598.7c0,1.034-.527,1.872-.881,1.872s-.88-.838-.88-1.872.527-1.872.88-1.872.881.838.881,1.872" transform="translate(-4434.68 -549.056)" fill="#fff"/>
        <path id="Tracciato_110850" data-name="Tracciato 110850" d="M4643.4,622.06h-5.2a.937.937,0,0,1-.641-.922,1.053,1.053,0,0,1,.641-.919h5.2Z" transform="translate(-4266.33 -570.572)" fill="#212c52"/>
        <path id="Tracciato_110851" data-name="Tracciato 110851" d="M4682.212,608.517l-10.515-.4s-.48-.385-.48-1.826a2.7,2.7,0,0,1,.48-1.8l10.515-.4a2.548,2.548,0,0,1,.958,2.119,2.821,2.821,0,0,1-.958,2.3" transform="translate(-4297.3 -555.739)" fill="#0b3d60"/>
        <path id="Tracciato_110852" data-name="Tracciato 110852" d="M4798.312,610.2c0,1.034-.527,1.872-.88,1.872s-.881-.838-.881-1.872.527-1.872.881-1.872.88.838.88,1.872" transform="translate(-4412.602 -559.635)" fill="#fff"/>
        <g id="Raggruppa_33056" data-name="Raggruppa 33056" transform="translate(374.566 49.566)" opacity="0.5" style="mix-blend-mode: overlay;isolation: isolate">
          <g id="Raggruppa_33055" data-name="Raggruppa 33055">
            <g id="Raggruppa_33054" data-name="Raggruppa 33054" clip-path="url(#clip-path-6)">
              <path id="Tracciato_110853" data-name="Tracciato 110853" d="M4687.722,619.647a.461.461,0,0,1-.45.47l-7.482.164a.46.46,0,1,1-.021-.92l7.482-.164a.461.461,0,0,1,.471.45" transform="translate(-4679.319 -619.197)" fill="#fff"/>
            </g>
          </g>
        </g>
        <path id="Tracciato_110854" data-name="Tracciato 110854" d="M709.512,2583.332a1.789,1.789,0,1,1-1.789-1.789,1.789,1.789,0,0,1,1.789,1.789" transform="translate(-649.426 -2374.898)"/>
        <path id="Tracciato_110855" data-name="Tracciato 110855" d="M709.512,2659.453a1.789,1.789,0,1,1-1.789-1.789,1.789,1.789,0,0,1,1.789,1.789" transform="translate(-649.426 -2444.926)"/>
        <path id="Tracciato_110856" data-name="Tracciato 110856" d="M792.689,2582.2a1.789,1.789,0,1,1-1.789-1.789,1.789,1.789,0,0,1,1.789,1.789" transform="translate(-725.945 -2373.858)"/>
        <path id="Tracciato_110857" data-name="Tracciato 110857" d="M792.689,2658.323a1.789,1.789,0,1,1-1.789-1.789,1.789,1.789,0,0,1,1.789,1.789" transform="translate(-725.945 -2443.886)"/>
        <path id="Tracciato_110858" data-name="Tracciato 110858" d="M1095.512,2621.958a1.789,1.789,0,1,1-1.789-1.789,1.789,1.789,0,0,1,1.789,1.789" transform="translate(-1004.528 -2410.432)"/>
        <path id="Tracciato_110859" data-name="Tracciato 110859" d="M1095.512,2698.079a1.789,1.789,0,1,1-1.789-1.789,1.789,1.789,0,0,1,1.789,1.789" transform="translate(-1004.528 -2480.46)"/>
        <path id="Tracciato_110860" data-name="Tracciato 110860" d="M1178.689,2620.828a1.789,1.789,0,1,1-1.789-1.789,1.789,1.789,0,0,1,1.789,1.789" transform="translate(-1081.047 -2409.392)"/>
        <path id="Tracciato_110861" data-name="Tracciato 110861" d="M1178.689,2696.948a1.789,1.789,0,1,1-1.789-1.79,1.789,1.789,0,0,1,1.789,1.79" transform="translate(-1081.047 -2479.419)"/>
        <g id="Raggruppa_33059" data-name="Raggruppa 33059" transform="translate(45.272 122.936)" opacity="0.3" style="mix-blend-mode: overlay;isolation: isolate">
          <g id="Raggruppa_33058" data-name="Raggruppa 33058">
            <g id="Raggruppa_33057" data-name="Raggruppa 33057" clip-path="url(#clip-path-7)">
              <path id="Tracciato_110862" data-name="Tracciato 110862" d="M638.748,1535.79l-6.6,76.066c-.131-.2-21.74-33.377-35.144-46.706-13.445-13.37-31.442-15.066-31.442-15.066v0l.674-14.291Z" transform="translate(-565.566 -1535.79)" fill="#fff"/>
            </g>
          </g>
        </g>
        <path id="Tracciato_110863" data-name="Tracciato 110863" d="M1146.735,1123.083c0-2.032-1.782-4.744-2.419-6.673-.793-2.4-2.449-7.913-4.041-9.876-.454-.559-.911-1.16-1.631-1.169a2.76,2.76,0,0,0-2.447,1.573c-.353,1.1,1.308,3.588,1.68,4.138a25.809,25.809,0,0,1,2.447,4.736c1.2,2.684,2.84,5.371,2.618,6.676-.28,1.64-.328,5.419-.864,8.66a15.267,15.267,0,0,1-1.835,5.623c-.64.635-5.765,1.947-5.158,2.613.118.129.084.041,1.092-.377a17.493,17.493,0,0,1,1.839-.634s-3.856,1.637-3.546,2c.2.236,1.126-.484,2.12-.861a8.634,8.634,0,0,1,1.96-.5s-3.85,1.547-3.17,1.916c.336.182.962-.445,1.866-.735,1.13-.364,1.709-.553,1.709-.553a17.212,17.212,0,0,0-2.425,1.5c.178.374,1.436-.468,2.51-.889.5-.2,1.44-.329,1.718-.45.979-.423,1.508-.482,1.749-1.519.124-.531.224-1.647.327-2.283a38.772,38.772,0,0,1,1.4-3.949c.511-2.023,2.5-6.881,2.505-8.967" transform="translate(-1043.644 -1016.883)" fill="#f7b691"/>
        <path id="Tracciato_110864" data-name="Tracciato 110864" d="M689.079,1820.881c-.982.953-1.136,4.708-2.01,5.761-1,1.207-4.491,5.353-3.7,6.2.437.468,2.694-2.816,4.6-3.582,1.481-.6,1.835-.256,2.325-1.016.541-.838-.276-1.731-.11-2.714.253-1.5,3.078-4.689,1.994-5.762-.585-.58-2.511.534-3.1,1.108" transform="translate(-628.563 -1673.955)" fill="#f7b691"/>
        <path id="Tracciato_110865" data-name="Tracciato 110865" d="M1095.083,1108.364c-.508-4.094-.924-8.427.157-11.075a47.007,47.007,0,0,0,2.589-11.632,7.442,7.442,0,0,0-1.481-4.766c-1.542-1.8-8.485,3.227-9.568,5.332-1.532,2.978.759,4.033.989,6.427.385,4.014.6,5.858-.285,8.849-.528,1.781-3.316,5.595-2.216,7.091,1.214,1.652,10.067,1.808,9.815-.227" transform="translate(-998.162 -994.018)" fill="#d5dbe9"/>
        <path id="Tracciato_110866" data-name="Tracciato 110866" d="M1164.334,958.895c-.478-.512.589-1.507,1.249-2.529a3.344,3.344,0,0,0,.635-2.568c-.171-.55-1.332-1.336-1.44-1.9-.155-.812-.024-1.148.918-2.289.063-.075-.13-.8-.068-.868.468-.552,1.576-.9,1.822-1.151.132-.137-.057-.3-.012-.363.312-.417,1.912-1.986,3.261-1.7,4.155.886,4.827,3.435,2.944,6.2-.579.852-2.625,1.868-3.43,2.511-1.133.905-.873,2.788-2.109,3.545-.837.513-3.1,1.826-3.767,1.108" transform="translate(-1071.023 -869.806)" fill="#f7b691"/>
        <path id="Tracciato_110867" data-name="Tracciato 110867" d="M737.311,1513.784c.034-3.521,2.481-11.582,3.49-15.29.438-1.608.987-4.957,1.773-6.426a14.45,14.45,0,0,1,2.759-3.189c1.012-.828,11.425-6.71,12.642-6.45.781.166,9.186,2.891,9.418,3.656.15.5-5.059.342-9.085,2.28a30.191,30.191,0,0,0-9.307,7.692c-1.039,1.329-2.659,6.2-2.659,6.2s-1.861,4.808-2.437,6.426a41.485,41.485,0,0,1-3.214,5.318c-.787,1.14-3.4,1.385-3.379-.222" transform="translate(-678.292 -1363.756)" fill="#58b5e8"/>
        <path id="Tracciato_110868" data-name="Tracciato 110868" d="M1035.576,1720.541c-.075.94,2.113,1.994,2.437,2.881.439,1.2,0,3.823,0,5.1,0,.942-.166,2.468.63,2.38.888-.1.549-3.918,1.7-5.148.7-.755,1.695-1.461,1.219-2.606-.41-.989-.819-.79-1.773-1.274-.838-.427-1.72-2.623-2.659-2.659a2.1,2.1,0,0,0-1.551,1.329" transform="translate(-952.68 -1581.593)" fill="#f7b691"/>
        <path id="Tracciato_110869" data-name="Tracciato 110869" d="M816.055,1411.723c2.393,5.878,12.708,14.365,18.836,17.506,1.04.532,3.007-.611,2.881-1.773-.471-4.3-12.3-15.622-12.3-15.622s8.1-.133,9.418-.111c3.324.055,9.728.9,11.966-1.108,1.643-1.471,1.378-7.169.111-8.975-1.543-2.2-6.292-1.37-8.975-1.219-2.174.122-6.33,1.609-8.421,2.216-2.289.663-6.9,1.942-9.085,2.881-1.162.5-3.788,1.349-4.432,2.438a5.823,5.823,0,0,0,0,3.767" transform="translate(-750.442 -1288.065)" fill="#77c8fc"/>
        <path id="Tracciato_110870" data-name="Tracciato 110870" d="M1211.352,1126.555c-.268-2.014-2.4-4.465-3.285-6.292-1.106-2.273-3.48-7.518-5.318-9.252-.524-.494-1.058-1.029-1.773-.942a2.759,2.759,0,0,0-2.216,1.884c-.2,1.142,1.774,3.382,2.216,3.878a25.85,25.85,0,0,1,3.055,4.368c1.543,2.5,3.529,4.946,3.482,6.268-.06,1.663.395,5.415.3,8.7a15.277,15.277,0,0,1-1.071,5.817c-.55.714-5.455,2.7-4.764,3.275.134.112.089.029,1.032-.519a17.325,17.325,0,0,1,1.738-.873s-3.6,2.135-3.248,2.458c.229.208,1.051-.63,1.987-1.136a8.626,8.626,0,0,1,1.877-.755s-3.61,2.045-2.888,2.32c.357.135.895-.568,1.752-.976,1.072-.511,1.62-.776,1.62-.776a17.187,17.187,0,0,0-2.2,1.807c.226.346,1.361-.654,2.369-1.216.473-.263,1.383-.518,1.643-.674.913-.55,1.43-.678,1.532-1.739.052-.542,0-1.662.019-2.3a38.853,38.853,0,0,1,.859-4.1c.238-2.073,1.565-7.152,1.291-9.22" transform="translate(-1102.789 -1021.203)" fill="#f7b691"/>
        <path id="Tracciato_110871" data-name="Tracciato 110871" d="M1232.327,952.26c-.392-.459-.875-.534-1.115-1.066a9.07,9.07,0,0,1-.342-2.034c-.14-.848-.566-.943-.8-1.664-.22-.667,0-1.314-.184-1.987-.385-1.427-1.66-1.23-2.557-2.358-.286-.359-.165-.914-.242-1.37q-.177-1.048-.353-2.1a5.093,5.093,0,0,0-.174-1.032c-.13-.317-.291-.348-.462-.635-.646-1.079-.641-2.188-2.137-2.452-1.04-.184-3.1.054-3.334,1.235a5.529,5.529,0,0,0,.35,2.055c.1.586-.811,1.477-.485,1.994.156.248,1.09-.369,1.1.394.008.5-.4.728-.548,1.175a6.049,6.049,0,0,0-.275,1.021c-.075.483.419.661.654.982.375.513.137.562.063,1.065a2.762,2.762,0,0,0,.736,2.223c.416.622.775,1.679.178,2.211a2.184,2.184,0,0,0,.1,1.466c.3.49.689.4,1.106.569a3.017,3.017,0,0,1,1.659,1.722c.289,1,.666,1.638,1.823,1.583.509-.025,1.036-.28,1.544-.26.636.025.422.457,1.043.787.669.354,1.666-.153,2.378-.4,1.26-.443,1.013-2.265.275-3.126" transform="translate(-1122.726 -860.625)" fill="#661400"/>
        <path id="Tracciato_110872" data-name="Tracciato 110872" d="M688.154,1906.156a4.586,4.586,0,0,1-1.982,1.749c-1.342.409-2.314-.555-2.56-.384-.14.1-1.464,2.5-1.757,2.812s-1.206,1.884-.815,2.343c.313.367,1.375-.191,1.864-.527a6.855,6.855,0,0,0,1.655-1.894c.264-.371,1.1-1.09,1.429-1.085.427.006.527.255.527.255l2.147-1.2a3.421,3.421,0,0,0,.015-1.074c-.1-.584-.4-1.156-.523-.994" transform="translate(-626.436 -1753.548)" fill="#1f0c00"/>
        <path id="Tracciato_110873" data-name="Tracciato 110873" d="M1066.171,1756.5a4.584,4.584,0,0,1-.672,2.557c-.886,1.087-2.231.828-2.339,1.108-.062.159.178,2.893.107,3.314s.048,2.237.629,2.4c.464.131,1.035-.925,1.255-1.477a6.853,6.853,0,0,0,.319-2.5,3.211,3.211,0,0,1,.582-1.7c.358-.233.579-.082.579-.082l1.114-2.193a3.427,3.427,0,0,0-.586-.9c-.407-.429-.976-.738-.988-.534" transform="translate(-978.047 -1615.835)" fill="#1f0c00"/>
        <path id="Tracciato_110874" data-name="Tracciato 110874" d="M2755.025,1408.086l-1.735-.075-.019.05-1.5,3.973-11.393.429-1.786.068-1.75.066.92-2.283.932-2.312-.238-.631-1.233-.053-.3.747-1.867,4.6-.437,1.076-3.058,7.535-.45,1.108-3.15,7.76-.462,1.141-3.246,8-.477,1.176-3.346,8.243-.492,1.212-3.451,8.5-.508,1.251-3.561,8.772-.524,1.291-3.677,9.057-.54,1.333-3.8,9.354-.559,1.378-3.924,9.668-.578,1.424-4.058,10-.6,1.473-4.2,10.344-.619,1.523L2685,1535.987l-.64,1.578-6.135,15.114,2.111.185,6.1-15.146,17.386,1.277L2698,1554.409l2.188.192,5.787-15.449.6-1.613,4.1-10.937.583-1.555,3.954-10.558.563-1.5,3.82-10.2.544-1.452,3.691-9.856.526-1.4,3.57-9.531.508-1.358,3.455-9.222.492-1.314,3.344-8.928.477-1.272,3.239-8.648.462-1.233,3.139-8.38.447-1.2,2.508-6.7.536-1.429.4-1.061.037-.1,2.191-5.852.41-1.093.35-.937.421-1.124,2-5.335.393-1.049.474-1.265.409-1.091.593-1.583.84-2.243Zm-50.594,129.3-17.358-1.249,4.323-10.729,17.156,1.065Zm4.708-12.467-17.128-1.038,4.175-10.364,16.932.865Zm4.545-12.036-16.9-.842,4.035-10.017,16.713.68Zm4.392-11.628-16.685-.658,3.9-9.686,16.5.506Zm4.245-11.239-16.472-.485,3.776-9.372,16.289.343Zm4.1-10.869-16.263-.323,3.656-9.073,16.084.19Zm3.972-10.518-16.058-.171,3.54-8.788,15.884.046Zm3.845-10.183-15.859-.029,3.431-8.517,15.689-.088Zm3.725-9.864-15.664.1,3.327-8.256,15.5-.214Zm3.611-9.56-15.475.231,3.227-8.009,15.311-.334Zm5.747-15.218-1.332,3.527-.915,2.422h-.035l-15.253.347,3.131-7.772,9.239-.272,1.822-.053,4.069-.12-.311.825Zm3.21-8.5-2.061,5.458-4.905.149-1.818.055-8.383.255,3.04-7.547,2.576-.094,1.79-.066,10.584-.389-.427,1.13Z" transform="translate(-2463.839 -1294.666)" fill="#b5cbe7"/>
        <path id="Tracciato_110875" data-name="Tracciato 110875" d="M3482.909,1539.406l-.64-1.578-4.347-10.708-.619-1.523-4.2-10.344-.6-1.473-4.058-10-.578-1.424-3.925-9.668-.559-1.378-3.8-9.354-.541-1.333-3.677-9.057-.523-1.291-3.561-8.772-.508-1.251-3.451-8.5-.492-1.212-3.346-8.243-.477-1.176-3.245-8-.463-1.142-3.15-7.76-.449-1.108-3.059-7.535-.436-1.076-2.584-6.367-.021-.052-1.735-.075-.04,0,.021.052.935,2.32,1.634,4.057-3.11-.117-1.8-.068-10.021-.378-.137-.363-.4-1.05-1.684-4.462-.239-.631-1.233-.053-.3.747.843,2.249.83,2.217.392,1.048.085.226.409,1.091,2.272,6.068.409,1.092.183.489.421,1.124,2.279,6.084.673,1.8.28.747.154.412,3.043,8.125.447,1.2,3.139,8.38.462,1.233,3.24,8.648.476,1.272,3.344,8.928.492,1.314,3.455,9.222.508,1.358,3.57,9.531.526,1.4,3.692,9.856.544,1.452,3.82,10.2.563,1.5,3.955,10.558.583,1.555,4.1,10.937.6,1.613,5.786,15.449,2.188-.192-5.822-15.415,17.386-1.277,6.1,15.146,2.111-.185ZM3418.565,1422l-.413-1.094-2.245-5.945,9.211.339,1.8.066,3.938.145,3.04,7.547-9.747-.3-1.828-.056-3.532-.107Zm2.947,7.8-.935-2.477-1.362-3.606,2.694.079,1.832.054,10.6.312,3.131,7.772-15.288-.347Zm1.112,2.943,15.311.334,3.227,8.009-15.474-.231Zm3.515,9.305,15.5.214,3.326,8.256-15.664-.1Zm3.625,9.6,15.688.088,3.432,8.517-15.86.029Zm3.74,9.9,15.885-.046,3.54,8.787-16.059.171Zm3.862,10.224,16.084-.19,3.655,9.073-16.262.323Zm3.988,10.561,16.289-.343,3.776,9.372-16.471.485Zm4.123,10.915,16.5-.506,3.9,9.686-16.685.658Zm4.263,11.287,16.712-.68,4.036,10.017-16.9.842Zm4.41,11.678,16.932-.865,4.176,10.364-17.128,1.038Zm8.688,23-4.122-10.914,17.157-1.065,4.323,10.729Z" transform="translate(-3138.422 -1294.666)" fill="#b5cbe7"/>
        <path id="Tracciato_110876" data-name="Tracciato 110876" d="M2972.236,2363.756c-.862.575-2.169,2.964-1.594,3.826.509.763,1.692.652,2.9.809,1.525.2,1.9.334,2.187-.784.177-.683-.731-.3-1.382-.57-1.2-.5.034-2.969-.623-3.226-.594-.232-.96-.409-1.491-.055" transform="translate(-2732.721 -2174.36)" fill="#f7b691"/>
        <path id="Tracciato_110877" data-name="Tracciato 110877" d="M2966.913,2377.439a3.652,3.652,0,0,0,.538.637.98.98,0,0,0,.91.072,2.514,2.514,0,0,0,.63-.247,4.073,4.073,0,0,0,.791-.631c.121-.132.443-.639.443-.639a14.284,14.284,0,0,0,1.295,1.83c.392.392,1.81-.012,1.9.306a6.2,6.2,0,0,1,.06,1.234c0,.118-.038.473-.038.473l-3.583,1.027a3.91,3.91,0,0,1-.564-.3,5.351,5.351,0,0,0-.872-.545l-.047.732-1.995-.159a4.3,4.3,0,0,0,.052-.929,5.236,5.236,0,0,1-.084-1.236,5.3,5.3,0,0,1,.286-1.008c.06-.166.279-.612.279-.612" transform="translate(-2728.893 -2186.389)"/>
        <path id="Tracciato_110878" data-name="Tracciato 110878" d="M3193.027,2365.589c-.329.5.341,1.9,0,2.391-.194.28-.779.343-.467,1.6.246.99,2.054.344,2.971.344a40.334,40.334,0,0,0,5.405-.138c.568-.094.461-.1.083-.536-.323-.371-1.522-.1-2.311-.342-.808-.243-1.207-.987-1.685-1.144-.4-.131-.856-.9-1.126-1.22-.325-.386-.178-1.707-.638-1.913-.554-.249-1.9.45-2.232.957" transform="translate(-2936.922 -2175.303)" fill="#f7b691"/>
        <path id="Tracciato_110879" data-name="Tracciato 110879" d="M3189.747,2396.391a4.656,4.656,0,0,0,.76.5,2.318,2.318,0,0,0,1.236.1,5,5,0,0,0,.842-.155,5.6,5.6,0,0,0,1.042-.435,6.759,6.759,0,0,0,.57-.458,15.753,15.753,0,0,0,1.843,1.436c.55.313,2.452.079,2.589.322a2.689,2.689,0,0,1,.141.929c0,.088-.028.353-.028.353l-4.8.6a8.151,8.151,0,0,1-.779-.256,10.5,10.5,0,0,0-1.208-.451l-.029.547-2.71-.216a1.78,1.78,0,0,0,.025-.7,2.322,2.322,0,0,1-.174-.932,2.476,2.476,0,0,1,.338-.743c.073-.121.349-.446.349-.446" transform="translate(-2933.782 -2204.156)"/>
        <path id="Tracciato_110880" data-name="Tracciato 110880" d="M2977.051,1820.358a63.111,63.111,0,0,0-1.084,10.442c-.1,5.821.694,12.548.286,15.863-.572,4.655-3.985,18.333-3.985,18.333l4.783.957s4.42-16.055,5.34-21.522c.7-4.143,1.734-13.326,1.734-13.326s4.88,9.434,5.52,13.964c.731,5.173-.8,20.885-.8,20.885h5.739s1.546-17.931.7-23.83a57.155,57.155,0,0,0-2.206-10.789,79.26,79.26,0,0,0-4.87-10.976Z" transform="translate(-2734.347 -1674.643)" fill="#1c4764"/>
        <path id="Tracciato_110881" data-name="Tracciato 110881" d="M3057.476,1363.089c-.874-.874.185-3.721,0-4.942-.181-1.2-1.253-3.427-1.435-4.623-.167-1.1-.663-3.566,0-4.464.483-.654,2.3-.905,3.109-.956.932-.059,3.035-.038,3.68.638.519.543.625,1.819.549,3.209-.007.122-.137.423-.146.546-.032.419.1,1.165.046,1.578a14.679,14.679,0,0,1-.622,2.513c-.184.711-.8.3-1.2.922a14.6,14.6,0,0,0-1.275,4.464c-.039.276.2.919,0,1.116a2.736,2.736,0,0,1-2.71,0" transform="translate(-2811.106 -1240.172)" fill="#f7b691"/>
        <path id="Tracciato_110882" data-name="Tracciato 110882" d="M3311.076,1244.583a8.366,8.366,0,0,0,.116-2.106c-.231-1.878-.138-3.385.419-3.3.246.038.111.636.212,1.068.1.417.3.541.443.245.531-1.1,1.216-3.511,1.649-3.056.188.2-.84,2.914-.84,2.914a12.574,12.574,0,0,0,.543-1.188c.335-.851.673-1.86.857-1.8.089.031.088.076.18.187a20.928,20.928,0,0,1-.763,3.085,5.671,5.671,0,0,0,.413-.861c.273-.724.555-1.655.683-1.6.515.2-.494,3.195-.494,3.195a10.6,10.6,0,0,0,.428-1.109c.171-.561.248-1.016.383-.984.634.148-.4,3.238-1.171,4.309a14.027,14.027,0,0,0-1.1,1.27c-.713,1.408-.931,4.049-1.536,6.425l-2.775-1.1a29.259,29.259,0,0,0,2.354-5.592" transform="translate(-3043.869 -1138.314)" fill="#f7b691"/>
        <path id="Tracciato_110883" data-name="Tracciato 110883" d="M2990.372,1192.815a7.12,7.12,0,0,1,1.26-1.52c1.481-1.213,2.59-2.485,2.123-2.811-.207-.144-.525.388-.9.633s-.6.187-.5-.129c.376-1.174,1.561-3.421.926-3.39-.275.013-1.42,2.72-1.42,2.72a12.768,12.768,0,0,1,.432-1.25c.349-.857.806-1.832.626-1.914-.087-.04-.117-.005-.262.012a21.208,21.208,0,0,0-1.6,2.792,5.709,5.709,0,0,1,.3-.919c.3-.721.749-1.6.62-1.652-.517-.213-1.869,2.684-1.869,2.684a10.778,10.778,0,0,1,.461-1.111c.266-.53.528-.917.406-.988-.567-.334-1.97,2.648-2.151,3.973a14.2,14.2,0,0,1-.08,1.7,36.443,36.443,0,0,1-2.9,6.045l2.336.863a29.587,29.587,0,0,1,2.181-5.738" transform="translate(-2746.846 -1090.268)" fill="#f7b691"/>
        <path id="Tracciato_110884" data-name="Tracciato 110884" d="M3010.371,1512.417c-.754.916,1.14,9.34,1.3,12.255.155,2.745.062,10.98.062,10.98s4.55.742,6,.742c1.516,0,6.066-.743,6.066-.743s-.133-7.956-.133-10.608c0-3.167,1.521-10.71.866-12.668-.4-1.187-3.738-.265-4.695-1.072-.366-.309-.406-1.638-.406-1.638a18.949,18.949,0,0,1-2.626.5,13.933,13.933,0,0,1-2.228-.5s-.28.865-.407,1.116c-.531,1.051-3.054.728-3.8,1.636" transform="translate(-2769.237 -1388.82)" fill="#fcc20f"/>
        <path id="Tracciato_110885" data-name="Tracciato 110885" d="M3139.7,1342.5c2.716-.929,6.823-2.808,8.516-4.525,2.39-2.424,4.722-9.587,6.218-12.116.467-.789,3.437.693,3.179,1.573a50.149,50.149,0,0,1-3.715,9.781,38.418,38.418,0,0,1-7.754,8.573c-.955.717-3.191,2.506-4.3,2.072-1.344-.523-3.5-4.892-2.139-5.359" transform="translate(-2887.978 -1219.52)" fill="#fcc20f"/>
        <path id="Tracciato_110886" data-name="Tracciato 110886" d="M2962.123,1292.839c.453-2.678-4.145-10.043-4.145-10.043s1.7-8.972,3.188-12.435c.606-1.416-3.193-2.049-3.588-.56-1.182,4.455-4.437,9.511-3.9,12.836.566,3.541,2.529,9.424,5.9,13.073.651.705,2.391-1.923,2.551-2.87" transform="translate(-2717.187 -1167.371)" fill="#fcc20f"/>
        <path id="Tracciato_110887" data-name="Tracciato 110887" d="M3050.914,1334.79c-.911-1.6-4.638-2.519-6.659-1.828-2.176.744-2.219,5.551-2.15,5.562.029.778.52,1.346.64,2.207a4.594,4.594,0,0,0,.619,2.1l.371.743a2.1,2.1,0,0,0,2.844,0c.872-.751,1.022-.362,2.107-.9.655-.323.614-1.685.619-2.417.008-1.105.344-1.006.709-1.822.418-.934,1.446-2.693.9-3.652" transform="translate(-2798.578 -1226.048)" fill="#3a1200"/>
        <path id="Tracciato_110888" data-name="Tracciato 110888" d="M1817.646,1594.827s.221,2.143.221,2.858c0,.484-.221,1.937-.221,1.937l-2.263-.007v-1.132s.174.522-2,1.132a25.313,25.313,0,0,1-5.484.609s-.033-1.016.211-1.294c.663-.755,2.488-.534,3.619-1.4a28.637,28.637,0,0,0,2.786-2.7Z" transform="translate(-1663.178 -1467.166)" fill="#2c1f1d"/>
        <path id="Tracciato_110889" data-name="Tracciato 110889" d="M2056.769,1599.177s-.229,1.9-.2,2.536c.021.532.338,2.1.338,2.1l2.129.148v-1.132s-.174.522,2,1.132a25.313,25.313,0,0,0,5.484.609s.092-.784-.153-1.061c-.664-.755-2.546-.767-3.678-1.637a28.634,28.634,0,0,1-2.785-2.7Z" transform="translate(-1891.942 -1471.167)" fill="#2c1f1d"/>
        <path id="Tracciato_110890" data-name="Tracciato 110890" d="M1975.388,1033.361s.522,8.879,2.35,14.712a100.792,100.792,0,0,1,3.743,21.589,55.024,55.024,0,0,1,0,9.053h5.484s-.087-18.022-.958-23.288-2.263-16.408-2.263-16.408l-.4-6.537Z" transform="translate(-1817.264 -949.835)" fill="#475389"/>
        <path id="Tracciato_110891" data-name="Tracciato 110891" d="M1888.076,1028.559l.7,7.835s-1.748-.087-1.828,6.094-2.921,17.759-2.921,17.759-.293,9.14-.467,11.839l-.174,2.7H1878.5s.783-15.408,1.306-19.761a115.851,115.851,0,0,0,.609-13.58c-.087-2.524.521-13.234.521-13.234Z" transform="translate(-1728.132 -945.903)" fill="#2c3863"/>
        <path id="Tracciato_110892" data-name="Tracciato 110892" d="M1876.424,1074.786h5.049l.174-2.7c.174-2.7.522-11.839.522-11.839s2.785-11.578,2.865-17.759,1.662-6.093,1.662-6.093l-.7-7.835-6.532-.32-.607-.03s-.608,10.71-.521,13.234a115.8,115.8,0,0,1-.609,13.58c-.522,4.352-1.306,19.76-1.306,19.76" transform="translate(-1726.222 -945.905)" fill="#344170"/>
        <path id="Tracciato_110893" data-name="Tracciato 110893" d="M1884.027,1075.129h4.44l.174-2.7c.174-2.7.522-11.839.522-11.839s2.785-11.578,2.865-17.759,1.662-6.093,1.662-6.093l-.7-7.835-6.532-.32c-.035.622-.6,10.757-.52,13.2a115.8,115.8,0,0,1-.609,13.58c-.522,4.352-1.306,19.76-1.306,19.76" transform="translate(-1733.216 -946.249)" fill="#475389"/>
        <path id="Tracciato_110894" data-name="Tracciato 110894" d="M1816.976,706.156l3.888,3.308s.157-.151.392-.372c.465-.439,1.235-1.157,1.7-1.543.135-.113.253.061.355.414a41.842,41.842,0,0,1,.574,6.027l.348,11.781s5.8.464,7.2.639a6.765,6.765,0,0,0,1.013.017h0c1.951-.077,5.276-.574,5.276-.574l-.4-7.973s-.324-9.279.256-10.034c.09-.117-.5-3.121.547-3.954,1.274-1.016-6.89-6.6-6.89-6.6-.421-.012-.674-.009-.674-.009a68.093,68.093,0,0,0-7.2.812c-3.714.638-6.384,8.067-6.384,8.067" transform="translate(-1671.533 -641.461)" fill="#aacc9e"/>
        <path id="Tracciato_110895" data-name="Tracciato 110895" d="M1822.278,706.623l3.464,2.947c.465-.439,1.627-1.53,2.089-1.915a.683.683,0,0,1,.83,0c.614.667.929,6.441.929,6.441l.348,11.781s5.8.464,7.2.639q.084.011.183.017h0c1.951-.078,5.276-.575,5.276-.575l-.4-7.973s.731-8.746,1.073-9.634c.118-.307.078-2.469,1-3.762,1.112-1.565,3.542-1.61,3.789-1.281l1.417-3.677s-3.428-1.17-4.513-1.553a9.549,9.549,0,0,0-5.657.053c-1.261.432-2.457-.719-3.193-.74h0a68.445,68.445,0,0,0-7.04.8c-3.714.638-6.79,8.428-6.79,8.428" transform="translate(-1676.41 -641.568)" fill="#c2dcb9"/>
        <path id="Tracciato_110896" data-name="Tracciato 110896" d="M1966.513,531.673s-3.6-.464-3.946,2.5,1.393,5.688,1.1,7.312-.562,2.7-.722,4.167c-.154,1.406,2.7,3.018,3.974,1.8s.6-1.621.369-3.652,1.164-1.627,1.918-2.14,1.135-4.063,1.135-4.991-.464-4.062-.754-4.12-2.728-.9-2.728-.9Z" transform="translate(-1805.427 -489.089)" fill="#f9e8da"/>
        <path id="Tracciato_110897" data-name="Tracciato 110897" d="M2033.261,1064.988a1.646,1.646,0,0,0,.241-.015l-.026-.164a2.77,2.77,0,0,1-1.912-.583c-1.065-.8-1.752-2.283-2.04-4.421l-.165.022c.295,2.187,1,3.712,2.109,4.535a3.022,3.022,0,0,0,1.793.625" transform="translate(-1866.915 -974.97)" fill="#2c3863"/>
        <path id="Tracciato_110898" data-name="Tracciato 110898" d="M1902.459,1061.413a5.238,5.238,0,0,0,3.517-2.141,3.459,3.459,0,0,0,.338-.735,3.509,3.509,0,0,0,.143-1.516,2.207,2.207,0,0,0-.049-.267l-.162-.013.007.031a3.523,3.523,0,0,1-.245,2.085,3.108,3.108,0,0,1-.176.332,4.966,4.966,0,0,1-3.365,2.046Z" transform="translate(-1750.173 -972.152)" fill="#2c3863"/>
        <path id="Tracciato_110899" data-name="Tracciato 110899" d="M1946.507,495.39a3.011,3.011,0,0,1,3.344-.758c2.1.758,3.307.64,3.62,1.576.341,1.019-1.241,2.7-2.551,3.457-.983.569-1.675,3.274-2.285,3.451-.2.059-.4-1.541-.59-1.757-1.179-1.328-1.959-.009-1.31,1.225.83,1.577-.154,1.007.012,2.778.187,2-.635,1.213-1.117,1.558s-2.295.468-2.777-4.082-.246-5.742.98-6.629a4.664,4.664,0,0,1,2.674-.817" transform="translate(-1787.119 -454.842)" fill="#473128"/>
        <path id="Tracciato_110900" data-name="Tracciato 110900" d="M1781.813,821.9c2.843,2.728,5.145,4.61,5.435,5.365a5.275,5.275,0,0,0,1.743,2.7,21.255,21.255,0,0,0,2.895,2.227c.137.107.848.335.774.11a.053.053,0,0,0-.008-.014,23.768,23.768,0,0,0-1.87-1.476c.116.069,1.993,1.2,2.36,1.431.094.059.309-.21.18-.3-.335-.219-2.1-1.551-2.208-1.634l2.5,1.482c.269.159.469-.2.267-.335-.651-.434-2.385-1.677-2.493-1.754a24.6,24.6,0,0,0,2.323,1.306c.227.085.131-.272-.03-.42a14.236,14.236,0,0,1-2.479-2.111c-.01-.016-.018-.028-.023-.039-.2-.339.219.032.613.234h0c.215.11.421.169.512.034a.212.212,0,0,0,.018-.031h0c.048-.106-.6-.91-.821-1.147-.812-.87-1.673-.638-2.485-1.219a22.743,22.743,0,0,1-3.724-5.339c-.581-1.335-1.9-2.829-.348-5.165q.526-.793.955-1.4c.331-.467.647-.891.647-.891l-2.97-2.527-.31-.263-.711,1.4-2.08,4.1a4.89,4.89,0,0,0,1.335,5.674" transform="translate(-1637.588 -745.831)" fill="#e2cbba"/>
        <path id="Tracciato_110901" data-name="Tracciato 110901" d="M1787.343,824.92c2.843,2.728,5.145,4.61,5.435,5.365a5.276,5.276,0,0,0,1.743,2.7,21.266,21.266,0,0,0,2.895,2.227.882.882,0,0,0,.324.1,23.825,23.825,0,0,0-1.87-1.476c.116.069,1.993,1.2,2.359,1.431.095.058.309-.21.18-.3-.335-.219-2.1-1.551-2.208-1.634l2.5,1.482c.269.159.469-.2.267-.335-.651-.434-2.386-1.677-2.493-1.754a24.631,24.631,0,0,0,2.323,1.306c.227.085.131-.272-.029-.42a14.238,14.238,0,0,1-2.479-2.111c-.01-.016-.018-.028-.023-.039-.2-.339.219.032.613.234h0c.215.109.421.169.512.034a.2.2,0,0,0,.018-.031h0c.048-.106-.6-.91-.821-1.147-.812-.87-1.673-.638-2.485-1.219a22.744,22.744,0,0,1-3.724-5.339c-.581-1.335-1.9-2.829-.348-5.165q.525-.794.955-1.4c.331-.467.647-.891.647-.891l-2.971-2.527-.578,1.139-2.08,4.1a4.89,4.89,0,0,0,1.335,5.674" transform="translate(-1642.675 -748.851)" fill="#f9e8da"/>
        <path id="Tracciato_110902" data-name="Tracciato 110902" d="M2206.067,3028.249c-1-.365-2.2,1.275-3.542,2.325-.718.562-1.918.4-2.168.909-.221.452.234,1.35.482,1.787.266.47,2.525.873,3.121-.711.322-.856,2.626-1.385,2.873-2.266.147-.526-.252-1.858-.765-2.044" transform="translate(-2024.17 -2785.798)" fill="#f7b691"/>
        <path id="Tracciato_110903" data-name="Tracciato 110903" d="M2191.126,3058.075a10.088,10.088,0,0,0-1.837.615,8.357,8.357,0,0,0-1.13,1.344l1.014,1.648.78-.516a4.66,4.66,0,0,0,.835,2.961c1.048,1.7,1.89,2.863,1.89,2.863l.833-.55a6.406,6.406,0,0,1-1.191-3.25,12.833,12.833,0,0,1,.387-2.722,1.565,1.565,0,0,1-.966-.783,8.76,8.76,0,0,1-.616-1.612" transform="translate(-2013.003 -2813.285)"/>
        <path id="Tracciato_110904" data-name="Tracciato 110904" d="M2244.033,2623.73s1.6,15.831.915,21.055c-.059.448-.152.962-.272,1.529l-14.086,10.441,2,3.421s15.363-5.79,17.582-8.247c.764-.845,1.412-3.493,1.732-4.215,1.17-2.634,4.028-10.8,4.028-10.8v-12.45Z" transform="translate(-2052.038 -2413.708)" fill="#212c52"/>
        <path id="Tracciato_110905" data-name="Tracciato 110905" d="M2444.521,2217.325v-7.96h3l.5,7.96Z" transform="translate(-2248.844 -2032.512)" fill="#eaa988"/>
        <path id="Tracciato_110906" data-name="Tracciato 110906" d="M2443.281,2136.017c.022.213-.5.462-.478.686.18,1.65-.4,1.788-.062,3.243.183.8-2.34-.032-3.058.042-1.85.192-3.331-1.419-3.634-4.34s.951-5.445,2.8-5.637c1.38-.143,2.7,1.052,3.41,2.882.079.2-.162.476-.1.693a26.013,26.013,0,0,1,1.122,2.432" transform="translate(-2241.008 -1959.498)" fill="#f7b691"/>
        <path id="Tracciato_110907" data-name="Tracciato 110907" d="M2407.374,2104.48c.044-1.247-.691-1.819-1.826-1.924-1.528-.142-3.673-.276-4.884.526a4.806,4.806,0,0,0-2.444,3.43,19.862,19.862,0,0,0,.341,4.945,3.283,3.283,0,0,0,1.146,1.781c.433.358,3.11,3.067,4.085,2,.465-.51-.763-2.682-.732-3.156.054-.82-1.313-2.272-.583-2.866.816-.663,1.647,1.07,2.6.592-.6-.518-.016-2.854.025-3.666,1.138,0,2.23-.418,2.274-1.66" transform="translate(-2206.225 -1934.153)" fill="#232b55"/>
        <path id="Tracciato_110908" data-name="Tracciato 110908" d="M2527.783,3150.837c-.909.563-.362,2.518-.369,4.221,0,.912-.878,1.75-.629,2.266.218.453,1.2.652,1.7.729.534.083,2.25-1.441,1.375-2.891-.473-.783.539-2.92,0-3.659-.322-.441-1.615-.953-2.079-.666" transform="translate(-2324.482 -2898.545)" fill="#f7b691"/>
        <path id="Tracciato_110909" data-name="Tracciato 110909" d="M2525.953,3206.918a10.092,10.092,0,0,0-.655,1.823,8.378,8.378,0,0,0,.356,1.72l1.921.225.079-.932a4.664,4.664,0,0,0,2.842,1.179c1.984.23,3.418.289,3.418.289l.084-.994a6.408,6.408,0,0,1-3.289-1.077,12.851,12.851,0,0,1-1.9-1.99,1.566,1.566,0,0,1-1.212.273,8.757,8.757,0,0,1-1.646-.515" transform="translate(-2323.153 -2950.213)"/>
        <path id="Tracciato_110910" data-name="Tracciato 110910" d="M2607.128,2458.209a8.478,8.478,0,0,0,1.541-.729c.354-.27,2.856-.565,2.923-.2s-1.312.368-1.049.637c.458.466,2.444.047,2.8.313.065.048.162.231.074.306a13.364,13.364,0,0,1-2.234.077,19.187,19.187,0,0,0,2.4.075c.261-.031.218.376-.036.4-.641.056-2.262.15-2.262.15a22.009,22.009,0,0,0,2.288.1c.231-.01.025.4-.2.416-.725.036-2.388.016-2.388.016a9.933,9.933,0,0,1,2.287.359c-.037.392-1.971.153-2.66.2a18.245,18.245,0,0,1-3.241-.529l-4.139-.217.312-1.626Z" transform="translate(-2394.849 -2260.423)" fill="#f7b691"/>
        <path id="Tracciato_110911" data-name="Tracciato 110911" d="M2438.564,2294.026c1.791,2.716,1.467,10.155,2.638,10.918,1.57,1.024,10.583,2.209,10.583,2.209l-.72,2.852s-8.852.668-12.015-1.722c-2.817-2.128-4.395-8.3-5.28-13.1-.152-.825,2.2-1.4,3.035-1.438.445-.021,1.514-.092,1.759.28" transform="translate(-2238.948 -2110.12)" fill="#017272"/>
        <path id="Tracciato_110912" data-name="Tracciato 110912" d="M2398.524,2313.614a111.656,111.656,0,0,0,.826-18.213c-.225-3.268,1.733-7.565,3.387-8.249a4.977,4.977,0,0,1,5.479.651c2.984,2.593,2.408,10.423,2.208,14.371-.157,3.075,0,12.171,0,12.171Z" transform="translate(-2206.529 -2103.592)" fill="#00666b"/>
        <path id="Tracciato_110913" data-name="Tracciato 110913" d="M2398.518,2612.952a19.344,19.344,0,0,0,2.026,8.043c2.236,4.644,6.7,10.116,7.312,13.012,1.261,5.956,0,24.351,0,24.351h4.76s3.592-20.57,3.112-27.463c-.344-4.95-5.392-18.88-5.392-18.88Z" transform="translate(-2206.523 -2402.93)" fill="#0b3d60"/>
        <g id="Raggruppa_33062" data-name="Raggruppa 33062" transform="translate(172.099 257.31)" opacity="0.5" style="mix-blend-mode: overlay;isolation: isolate">
          <g id="Raggruppa_33061" data-name="Raggruppa 33061">
            <g id="Raggruppa_33060" data-name="Raggruppa 33060" clip-path="url(#clip-path-8)">
              <path id="Tracciato_110914" data-name="Tracciato 110914" d="M2189.771,3217.1c0,1.45-8.907,2.626-19.9,2.626s-19.9-1.176-19.9-2.626,8.907-2.626,19.9-2.626,19.9,1.176,19.9,2.626" transform="translate(-2149.981 -3214.475)"/>
            </g>
          </g>
        </g>
        <path id="Tracciato_110915" data-name="Tracciato 110915" d="M2406.681,2580.563a9.828,9.828,0,0,0,1.771.894c.5.132,2.56,2.22,2.277,2.539s-1.276-.943-1.334-.508c-.1.753,1.7,2.279,1.717,2.8,0,.094-.1.314-.229.286a15.6,15.6,0,0,1-1.667-2,22.349,22.349,0,0,0,1.644,2.254c.215.217-.189.469-.391.252-.509-.549-1.754-1.97-1.754-1.97a25.54,25.54,0,0,0,1.546,2.171c.175.206-.354.313-.527.111-.551-.639-1.721-2.182-1.721-2.182s1.483,2.244,1.3,2.356c-.387.246-1.549-1.7-2.085-2.3a21.244,21.244,0,0,1-1.831-3.355l-2.759-3.958,1.716-.876Z" transform="translate(-2210.317 -2370.794)" fill="#f7b691"/>
        <path id="Tracciato_110916" data-name="Tracciato 110916" d="M2355.241,2305.014c-1.215,3.587-8.279,8.606-8.143,10.228.182,2.174,5.535,11.3,5.535,11.3l-3.134,1.377s-6.94-7.653-7.006-12.267c-.059-4.109,4.64-10.836,8.624-14.382.729-.649,2.632-.082,3.538.844a3.734,3.734,0,0,1,.587,2.9" transform="translate(-2154.983 -2116.802)" fill="#037a7a"/>
      </g>
    </g>
  </g>
</svg>
