<svg id="Raggruppa_31149" data-name="Raggruppa 31149" xmlns="http://www.w3.org/2000/svg" xmlns:xlink="http://www.w3.org/1999/xlink" width="160.577" height="162.603" viewBox="0 0 160.577 162.603">
  <defs>
    <clipPath id="clip-path">
      <rect id="Rettangolo_165283" data-name="Rettangolo 165283" width="160.577" height="162.603" fill="none"/>
    </clipPath>
    <clipPath id="clip-path-2">
      <path id="Tracciato_107942" data-name="Tracciato 107942" d="M79.214,142.771c2.971.465,30.427,17.653,37.178,18.855-2.893-4.872,6.161-17.838,13.519-28.277,6.271-8.9,12.336-24.037,13.586-41.038,1.171-15.908-1.8-36.555-13.567-47.588C122.652,37.9,104.446,37.8,104.446,37.8q-1.411-.1-2.783-.1c-49.1,0-56.96,91.246-22.448,105.062" transform="translate(-58.055 -37.709)" fill="none"/>
    </clipPath>
    <linearGradient id="linear-gradient" x1="-0.073" y1="1.253" x2="-0.068" y2="1.253" gradientUnits="objectBoundingBox">
      <stop offset="0" stop-color="#e0b163"/>
      <stop offset="1" stop-color="#a3753d"/>
    </linearGradient>
    <clipPath id="clip-path-3">
      <path id="Tracciato_107943" data-name="Tracciato 107943" d="M95.974,257.979l.069-.108-.141-.038c.025.049.047.1.072.146" transform="translate(-95.902 -257.833)" fill="none"/>
    </clipPath>
    <linearGradient id="linear-gradient-2" x1="-418.793" y1="28.563" x2="-414.426" y2="28.563" xlink:href="#linear-gradient"/>
    <clipPath id="clip-path-4">
      <path id="Tracciato_107944" data-name="Tracciato 107944" d="M83.152,190.637l.141.038L89,181.752s-13.712-45.787-6.876-63.343c4.864-12.492.5-20.694,1-34.892,0,0-45.69,16.352.027,107.12" transform="translate(-62.826 -83.517)" fill="none"/>
    </clipPath>
    <linearGradient id="linear-gradient-3" x1="0.137" y1="1.603" x2="0.143" y2="1.603" xlink:href="#linear-gradient"/>
    <clipPath id="clip-path-5">
      <path id="Tracciato_107945" data-name="Tracciato 107945" d="M140.3,56.673c-5.757,20.871-3.434,35.034,3.915,46.925,10.161,16.446-8.6,59.076-17.295,76.941,1.19-.006,16.642-.34,17.144-.994,27.99-36.523,30.121-74.763,22.512-88.236-17.392-30.8-23.283-35.7-25.271-35.7-.928,0-1.005,1.067-1.005,1.067" transform="translate(-126.92 -55.606)" fill="none"/>
    </clipPath>
    <linearGradient id="linear-gradient-4" x1="-1.65" y1="1.028" x2="-1.637" y2="1.028" xlink:href="#linear-gradient"/>
    <clipPath id="clip-path-7">
      <path id="Tracciato_107947" data-name="Tracciato 107947" d="M100.711,166.063s.76,8.263-.449,14.184c-.246,1.206-7.433,2.912-12.151,3.907.338.264,1.547,1.091,1.819,1.237,4.039.4,7.512.883,9.161.593,2.016-.354,5.265-2.307,7.863-3.052,15.217-4.366,17.452-8.214,17.452-8.214.624,5.741,4.815,9.537,4.588,9.481a43.485,43.485,0,0,0,11.041.878,20.6,20.6,0,0,0,2.7-1.473c-10.111-1.327-13.16-3.073-13.89-3.576-.781-.539-1.531-3.091-1.811-6.074-.122-1.3-.31-4.557-.354-6.256-.354.439-22.535-.379-23.392-1.659Z" transform="translate(-88.111 -166.039)" fill="none"/>
    </clipPath>
    <linearGradient id="linear-gradient-5" x1="-1.011" y1="1.475" x2="-0.999" y2="1.475" gradientUnits="objectBoundingBox">
      <stop offset="0" stop-color="#f0c499"/>
      <stop offset="0.517" stop-color="#f1c69b"/>
      <stop offset="0.855" stop-color="#f4cea4"/>
      <stop offset="1" stop-color="#f7d4ab"/>
    </linearGradient>
    <clipPath id="clip-path-8">
      <path id="Tracciato_107948" data-name="Tracciato 107948" d="M128.291,206.538s4.786.858,6.044,2.359a4.318,4.318,0,0,0-4.021-2.706,6.6,6.6,0,0,0-2.024.347" transform="translate(-128.291 -206.191)" fill="none"/>
    </clipPath>
    <linearGradient id="linear-gradient-6" x1="-12.342" y1="10.206" x2="-12.245" y2="10.206" xlink:href="#linear-gradient-5"/>
    <clipPath id="clip-path-9">
      <path id="Tracciato_107949" data-name="Tracciato 107949" d="M141.59,197.727c-1.862.468-3.2,3.972-3.2,3.972,4.154-3.277,8.308-2.34,13.608-2.964s14.466-2.652,14.466-2.652c-2.413.476-23.014,1.176-24.875,1.644" transform="translate(-138.391 -196.083)" fill="none"/>
    </clipPath>
    <linearGradient id="linear-gradient-7" x1="-2.964" y1="4.476" x2="-2.942" y2="4.476" xlink:href="#linear-gradient-5"/>
    <clipPath id="clip-path-10">
      <path id="Tracciato_107950" data-name="Tracciato 107950" d="M84.508,196.946s22.092,2.243,26.532,5.034c0,0-1.289-2.687-3.581-3.468-2.019-.686-15.842-1.62-21.262-1.62-.734,0-1.313.017-1.689.055" transform="translate(-84.508 -196.891)" fill="none"/>
    </clipPath>
    <linearGradient id="linear-gradient-8" x1="-5.092" y1="1.95" x2="-5.039" y2="1.95" xlink:href="#linear-gradient-5"/>
    <clipPath id="clip-path-11">
      <path id="Tracciato_107951" data-name="Tracciato 107951" d="M108.228,174.292c15.276,4.916,25.976-6.251,25.976-6.251a51.847,51.847,0,0,1,.511-6.671c-1.184-.106-27.263-1.058-27.263-1.058.468,2.539.776,13.98.776,13.98" transform="translate(-107.452 -160.312)" fill="none"/>
    </clipPath>
    <linearGradient id="linear-gradient-9" x1="-2.08" y1="2.715" x2="-2.06" y2="2.715" gradientUnits="objectBoundingBox">
      <stop offset="0" stop-color="#dba379"/>
      <stop offset="0.484" stop-color="#e3b086"/>
      <stop offset="1" stop-color="#f0c499"/>
    </linearGradient>
    <clipPath id="clip-path-13">
      <path id="Tracciato_107953" data-name="Tracciato 107953" d="M77.327,122.551s.779-2.9,1.492-2.031c.876,1.064-.941,1.65-.013,6.3a12.933,12.933,0,0,0,2.806,4.96s-1.693-1.939-1.168-5.752c.7-5.112-.812-7.519-2.017-7.519-.917,0-1.654,1.393-1.1,4.046" transform="translate(-77.137 -118.505)" fill="none"/>
    </clipPath>
    <linearGradient id="linear-gradient-10" x1="-8.983" y1="6.703" x2="-8.865" y2="6.703" xlink:href="#linear-gradient-9"/>
    <clipPath id="clip-path-15">
      <path id="Tracciato_107959" data-name="Tracciato 107959" d="M163.478,125.069c-1.457.4-2.472,1.408-2.276,2.265s1.535,1.235,2.99.842,2.472-1.405,2.272-2.266c-.144-.626-.9-1-1.864-1a4.321,4.321,0,0,0-1.122.155" transform="translate(-161.178 -124.914)" fill="none"/>
    </clipPath>
    <linearGradient id="linear-gradient-11" x1="-17.474" y1="23.481" x2="-17.365" y2="23.481" gradientUnits="objectBoundingBox">
      <stop offset="0" stop-color="#ffd9b3"/>
      <stop offset="1" stop-color="#f7d4ab"/>
    </linearGradient>
    <clipPath id="clip-path-16">
      <path id="Tracciato_107960" data-name="Tracciato 107960" d="M89.253,126.378c-.154.862.9,1.8,2.357,2.11s2.763-.146,2.917-1-.9-1.806-2.36-2.112a4.4,4.4,0,0,0-.893-.095c-1.062,0-1.9.423-2.021,1.1" transform="translate(-89.238 -125.278)" fill="none"/>
    </clipPath>
    <linearGradient id="linear-gradient-12" x1="-9.801" y1="24.371" x2="-9.691" y2="24.371" xlink:href="#linear-gradient-11"/>
    <clipPath id="clip-path-18">
      <path id="Tracciato_107965" data-name="Tracciato 107965" d="M131.994,149.653a27.586,27.586,0,0,1-13.877.855c-1.394-1-1.255,1.867-1.255,1.867,2.6,4.3,4.755,4.249,6.851,4.2.366-.01.731-.019,1.1,0,2.418.1,6.03-1.477,8.173-4.568.194-.868-.242-2.371-.851-2.371a.4.4,0,0,0-.136.025" transform="translate(-116.858 -149.628)" fill="#fff"/>
    </clipPath>
    <clipPath id="clip-path-22">
      <path id="Tracciato_107975" data-name="Tracciato 107975" d="M123.653,167.884c-.095.763,1.467,1.506,3.492,1.657s3.736-.347,3.83-1.11-1.472-1.506-3.49-1.653c-.245-.018-.485-.027-.718-.027-1.7,0-3.035.464-3.114,1.134" transform="translate(-123.649 -166.75)" fill="none"/>
    </clipPath>
    <linearGradient id="linear-gradient-13" x1="-10.104" y1="20.453" x2="-10.022" y2="20.453" gradientUnits="objectBoundingBox">
      <stop offset="0" stop-color="#ffd9b3"/>
      <stop offset="0.682" stop-color="#fcd7b0"/>
      <stop offset="1" stop-color="#f7d4ab"/>
    </linearGradient>
    <clipPath id="clip-path-24">
      <path id="Tracciato_107977" data-name="Tracciato 107977" d="M116.589,173.253s6.338,9.06,16.839-.391c0,0-8.434,7.106-16.839.391" transform="translate(-116.589 -172.862)" fill="none"/>
    </clipPath>
    <linearGradient id="linear-gradient-14" x1="-4.008" y1="5.104" x2="-3.973" y2="5.104" xlink:href="#linear-gradient-9"/>
    <clipPath id="clip-path-26">
      <path id="Tracciato_107980" data-name="Tracciato 107980" d="M175.72,126c.525,3.813-1.168,5.752-1.168,5.752a12.933,12.933,0,0,0,2.807-4.96c.928-4.646-.889-5.233-.012-6.3.713-.865,1.492,2.031,1.492,2.031.553-2.653-.185-4.045-1.1-4.045-1.206,0-2.72,2.407-2.017,7.519" transform="translate(-174.552 -118.482)" fill="none"/>
    </clipPath>
    <linearGradient id="linear-gradient-15" x1="-20.527" y1="6.704" x2="-20.409" y2="6.704" xlink:href="#linear-gradient-9"/>
    <clipPath id="clip-path-28">
      <path id="Tracciato_107982" data-name="Tracciato 107982" d="M173.36,114.417l.528-4.981s-1.345-10.516-2.115-12.246c0,0,.892,13.912,1.586,17.227" transform="translate(-171.774 -97.19)" fill="none"/>
    </clipPath>
    <linearGradient id="linear-gradient-16" x1="-5.646" y1="26.316" x2="-5.61" y2="26.316" gradientUnits="objectBoundingBox">
      <stop offset="0" stop-color="#a3753d"/>
      <stop offset="1" stop-color="#e0b163"/>
    </linearGradient>
    <clipPath id="clip-path-29">
      <path id="Tracciato_107983" data-name="Tracciato 107983" d="M83.413,109.129l.843,7.061c.922-3.926,1.343-14.4,1.343-14.4Z" transform="translate(-83.413 -101.787)" fill="none"/>
    </clipPath>
    <linearGradient id="linear-gradient-17" x1="-12.439" y1="6.876" x2="-12.287" y2="6.876" xlink:href="#linear-gradient-16"/>
    <clipPath id="clip-path-30">
      <path id="Tracciato_107984" data-name="Tracciato 107984" d="M62.369,58.582c-2.594,5.64-8.57,23.607-5.352,42.922C68.3,87.26,72.292,75.261,80.051,70.588c10.533-6.342,16.72-31.656,28.741-22.046,5.349-4.306,4.215-9.014,3.667-12.148-3.405-3.347-8.69-5.366-14.729-5.367-11.661,0-26.139,7.525-35.361,27.555" transform="translate(-56.089 -31.027)" fill="none"/>
    </clipPath>
    <linearGradient id="linear-gradient-18" x1="-0.363" y1="2.234" x2="-0.354" y2="2.234" xlink:href="#linear-gradient-16"/>
    <clipPath id="clip-path-31">
      <path id="Tracciato_107985" data-name="Tracciato 107985" d="M58.345,125.546c0-.028.007-.058.01-.085-.014.044-.018.073-.01.085" transform="translate(-58.342 -125.461)" fill="none"/>
    </clipPath>
    <linearGradient id="linear-gradient-19" x1="-1944.332" y1="1000.995" x2="-1911.001" y2="1000.995" gradientUnits="objectBoundingBox">
      <stop offset="0" stop-color="#e0b163"/>
      <stop offset="1" stop-color="#f4c381"/>
    </linearGradient>
    <clipPath id="clip-path-32">
      <path id="Tracciato_107986" data-name="Tracciato 107986" d="M76.491,56.635C60.824,74.652,59.212,86.642,58.365,93.568,58.8,92.244,69.2,76.614,82.46,61.94c6.865-7.654,13.757-13.956,19.74-14.927a12.3,12.3,0,0,1,10.247,2.845c-.039-.029-.868-1.214-2.258-2.811a12.329,12.329,0,0,0-8-4.2,14.552,14.552,0,0,0-1.909-.124c-7.8,0-16.781,5.928-23.787,13.91" transform="translate(-58.365 -42.725)" fill="none"/>
    </clipPath>
    <linearGradient id="linear-gradient-20" x1="-0.663" y1="2.682" x2="-0.652" y2="2.682" xlink:href="#linear-gradient-19"/>
    <clipPath id="clip-path-33">
      <path id="Tracciato_107987" data-name="Tracciato 107987" d="M174.262,74.418h0m-22.8-24.213c-3.757.4-4.962,2.363-5.117,2.506a6.9,6.9,0,0,1,5.107-1.118c3.3.293,7.291,3.036,11.005,6.975a91.325,91.325,0,0,1,11.808,15.849,44.811,44.811,0,0,0-10.269-18.09c-3.549-3.744-8.046-6.17-11.673-6.171a7.468,7.468,0,0,0-.861.049" transform="translate(-146.342 -50.157)" fill="none"/>
    </clipPath>
    <linearGradient id="linear-gradient-21" x1="-3.221" y1="5.409" x2="-3.199" y2="5.409" xlink:href="#linear-gradient-19"/>
    <clipPath id="clip-path-34">
      <path id="Tracciato_107988" data-name="Tracciato 107988" d="M97.622,30.539C60.774,32.329,56.953,80.715,56.953,80.715,61.823,49.644,76.678,37.9,88.208,34.464a32.136,32.136,0,0,1,24.133,2.142c3.9-.556,13.317,3.243,18.518,8.82,9.346,10.025,11.877,27.592,11.877,27.592-.329-12.228-4.549-23.835-11.387-29.945-9.7-8.668-18.954-7.412-18.954-7.412A20.057,20.057,0,0,0,98.7,30.513q-.532,0-1.082.026" transform="translate(-56.953 -30.513)" fill="none"/>
    </clipPath>
    <linearGradient id="linear-gradient-22" x1="-0.408" y1="2.86" x2="-0.401" y2="2.86" xlink:href="#linear-gradient-19"/>
    <clipPath id="clip-path-35">
      <path id="Tracciato_107989" data-name="Tracciato 107989" d="M154.915,141.433c-5.237,5.08-7.4,7.968-8.237,8.821.756-.709,7.734-7.281,9.727-8.8,1.844-1.4,8.958-8.979,7.189-18.488,0,0-1.125-3.93-3.664-5.185,5.861,9.067-.269,19.049-5.014,23.65" transform="translate(-146.678 -117.783)" fill="none"/>
    </clipPath>
    <linearGradient id="linear-gradient-23" x1="-4.716" y1="2.779" x2="-4.684" y2="2.779" xlink:href="#linear-gradient-13"/>
    <clipPath id="clip-path-38">
      <path id="Tracciato_108006" data-name="Tracciato 108006" d="M127.517,130.96c-2.828.079-3.629.8-3.422,1.569.506,1.859,1.707,2.208,3.474,2.2,1.861-.006,3.312-.422,3.6-2.425.081-.565-.739-1.353-3.282-1.353-.12,0-.242,0-.369.006" transform="translate(-124.065 -130.954)" fill="none"/>
    </clipPath>
    <linearGradient id="linear-gradient-24" x1="-9.189" y1="13.471" x2="-9.114" y2="13.471" xlink:href="#linear-gradient-11"/>
    <clipPath id="clip-path-43">
      <path id="Tracciato_108023" data-name="Tracciato 108023" d="M197.173,228.027c-.007.245-.006.651,0,1.171q1.61-.966,3.17-2.006c.654-7.322,2.021-17.238,4.852-24.387a8.673,8.673,0,0,0-2.32-.676s-5.627,23.511-5.708,25.9" transform="translate(-197.169 -202.13)" fill="none"/>
    </clipPath>
    <linearGradient id="linear-gradient-25" x1="-3.936" y1="2.197" x2="-3.914" y2="2.197" xlink:href="#linear-gradient-5"/>
    <clipPath id="clip-path-44">
      <path id="Tracciato_108024" data-name="Tracciato 108024" d="M46.083,211.2c-1.724,2.854-2.779,6.833-3.4,11.009a80.9,80.9,0,0,0,8.488,6.828C51,219.057,50.1,209.6,47.851,209.6c-.516,0-1.1.5-1.768,1.6" transform="translate(-42.68 -209.602)" fill="none"/>
    </clipPath>
    <linearGradient id="linear-gradient-26" x1="-3.001" y1="1.733" x2="-2.93" y2="1.733" xlink:href="#linear-gradient-13"/>
    <clipPath id="clip-path-45">
      <path id="Tracciato_108025" data-name="Tracciato 108025" d="M52.026,207.313c3.636,5.676,5.555,14.484,6.631,22.818q2.3,1.418,4.7,2.676a110.123,110.123,0,0,0-8.11-27.006,14.155,14.155,0,0,0-3.218,1.512" transform="translate(-52.026 -205.801)" fill="none"/>
    </clipPath>
    <linearGradient id="linear-gradient-27" x1="-1.658" y1="1.282" x2="-1.623" y2="1.282" xlink:href="#linear-gradient-5"/>
    <clipPath id="clip-path-47">
      <path id="Tracciato_108027" data-name="Tracciato 108027" d="M159.315,178.247l-.045-.092.045.092M141.7,57.271s4.158-2.043,9.512,2.651c22.929,28.07,19.579,45.525,14.281,67.186-5.269,21.547-18.6,25.946-6.177,51.139-4.532-30.405,10.352-24.2,16.089-50.422C183.745,89.7,163.2,67.048,159.179,61.591c-2.929-3.978-7.442-7.687-11.613-7.687a7.025,7.025,0,0,0-5.868,3.367" transform="translate(-141.698 -53.904)" fill="none"/>
    </clipPath>
    <linearGradient id="linear-gradient-28" x1="-1.175" y1="1.018" x2="-1.165" y2="1.018" xlink:href="#linear-gradient-16"/>
    <clipPath id="clip-path-48">
      <path id="Tracciato_108028" data-name="Tracciato 108028" d="M181.973,149.405c-2.418,15.7-9.382,23.869-9.382,23.869s10.232-8.158,11.77-21.544c1.545-13.449-1.094-27.356-1.094-27.356s-.328,18.766-1.294,25.031" transform="translate(-172.591 -124.374)" fill="none"/>
    </clipPath>
    <linearGradient id="linear-gradient-29" x1="-1.751" y1="3.8" x2="-1.738" y2="3.8" xlink:href="#linear-gradient-16"/>
    <clipPath id="clip-path-49">
      <path id="Tracciato_108029" data-name="Tracciato 108029" d="M82.225,72.443c-13.608,16.244-46.489,42.058-15.22,74.69-18.576-34.382,3.727-49.646,18.7-71.885,3.9-5.791,6.086-9.53,9.336-13.328,3.151-3.867,5.032-5.226,7.977-5.456a9.14,9.14,0,0,1,4.932,1.063A8.02,8.02,0,0,0,103.9,54.67a8.99,8.99,0,0,0-2.381-.326c-8.788,0-15.263,13.3-19.288,18.1" transform="translate(-53.93 -54.344)" fill="none"/>
    </clipPath>
    <linearGradient id="linear-gradient-30" x1="0.049" y1="1.311" x2="0.055" y2="1.311" xlink:href="#linear-gradient-16"/>
    <clipPath id="clip-path-50">
      <path id="Tracciato_108030" data-name="Tracciato 108030" d="M207.233,226.422a81.056,81.056,0,0,0,9.478-8.174c-1.333-7.131-3.518-10.9-5.383-12.072a2.3,2.3,0,0,0-1.21-.411c-3.15,0-3.49,9.881-2.885,20.657" transform="translate(-206.985 -205.765)" fill="none"/>
    </clipPath>
    <linearGradient id="linear-gradient-31" x1="-5.869" y1="3.035" x2="-5.839" y2="3.035" xlink:href="#linear-gradient-13"/>
  </defs>
  <g id="Raggruppa_30982" data-name="Raggruppa 30982">
    <g id="Raggruppa_30981" data-name="Raggruppa 30981" clip-path="url(#clip-path)">
      <path id="Tracciato_107939" data-name="Tracciato 107939" d="M80.288,0C35.946,0,0,36.4,0,81.3s35.946,81.3,80.288,81.3,80.288-36.4,80.288-81.3S124.631,0,80.288,0" fill="#f6ece6"/>
      <path id="Tracciato_107940" data-name="Tracciato 107940" d="M48.344,208.023c-3.536,2.233-5.1,8.03-5.869,13.311a80.438,80.438,0,0,0,17.849,12.525c-.369-5.99-.661-10.659-.732-12.105-.23-4.646-7.086-16.359-11.248-13.731" transform="translate(-16.373 -80.043)" fill="#f7d4ab"/>
      <path id="Tracciato_107941" data-name="Tracciato 107941" d="M204.569,202.661c-4.27-.814-5.82,19.232-6.234,26.309a80.775,80.775,0,0,0,15.158-12.045c-2.714-13.64-8.925-14.265-8.925-14.265" transform="translate(-76.455 -78.113)" fill="#f7d4ab"/>
    </g>
  </g>
  <g id="Raggruppa_30984" data-name="Raggruppa 30984" transform="translate(35.676 23.173)">
    <g id="Raggruppa_30983" data-name="Raggruppa 30983" clip-path="url(#clip-path-2)">
      <rect id="Rettangolo_165284" data-name="Rettangolo 165284" width="126.215" height="102.826" transform="translate(-16.239 123.849) rotate(-88.665)" fill="url(#linear-gradient)"/>
    </g>
  </g>
  <g id="Raggruppa_30986" data-name="Raggruppa 30986" transform="translate(58.933 158.443)">
    <g id="Raggruppa_30985" data-name="Raggruppa 30985" clip-path="url(#clip-path-3)">
      <rect id="Rettangolo_165285" data-name="Rettangolo 165285" width="0.141" height="0.146" fill="url(#linear-gradient-2)"/>
    </g>
  </g>
  <g id="Raggruppa_30988" data-name="Raggruppa 30988" transform="translate(38.608 51.323)">
    <g id="Raggruppa_30987" data-name="Raggruppa 30987" clip-path="url(#clip-path-4)">
      <rect id="Rettangolo_165286" data-name="Rettangolo 165286" width="107.584" height="52.458" transform="translate(-26.283 107.151) rotate(-89.523)" fill="url(#linear-gradient-3)"/>
    </g>
  </g>
  <g id="Raggruppa_30990" data-name="Raggruppa 30990" transform="translate(77.994 34.171)">
    <g id="Raggruppa_30989" data-name="Raggruppa 30989" clip-path="url(#clip-path-5)">
      <rect id="Rettangolo_165287" data-name="Rettangolo 165287" width="47.264" height="124.933" transform="translate(0 0)" fill="url(#linear-gradient-4)"/>
    </g>
  </g>
  <g id="Raggruppa_30992" data-name="Raggruppa 30992">
    <g id="Raggruppa_30991" data-name="Raggruppa 30991" clip-path="url(#clip-path)">
      <path id="Tracciato_107946" data-name="Tracciato 107946" d="M133.9,183.138c-4.171-.407-21.047-1.743-22.789-7.382-2.165-7.015.418-16.011.418-16.011l-26.024-1.319c2.928,4.942,2.82,10.2,2.7,15.53-.134,5.853-17.638,9.979-23.652,10.651-3.289.367-14.884,4.239-16.483,9.969a41.814,41.814,0,0,0-1.8,9.86,80.4,80.4,0,0,0,14.758,10.051l87.025-8.446q1.578-1.271,3.091-2.62c-.487-4.153-1.015-6.256-4.318-13.224-2.021-4.266-11.73-6.942-12.921-7.06" transform="translate(-17.836 -61.071)" fill="#f7d4ab"/>
    </g>
  </g>
  <g id="Raggruppa_30994" data-name="Raggruppa 30994" transform="translate(54.146 102.034)">
    <g id="Raggruppa_30993" data-name="Raggruppa 30993" clip-path="url(#clip-path-7)">
      <rect id="Rettangolo_165289" data-name="Rettangolo 165289" width="53.916" height="51.855" transform="translate(-10.081 9.26) rotate(-42.571)" fill="url(#linear-gradient-5)"/>
    </g>
  </g>
  <g id="Raggruppa_30996" data-name="Raggruppa 30996" transform="translate(78.837 126.708)">
    <g id="Raggruppa_30995" data-name="Raggruppa 30995" clip-path="url(#clip-path-8)">
      <rect id="Rettangolo_165290" data-name="Rettangolo 165290" width="6.374" height="3.558" transform="translate(-0.39 0.058) rotate(-8.387)" fill="url(#linear-gradient-6)"/>
    </g>
  </g>
  <g id="Raggruppa_30998" data-name="Raggruppa 30998" transform="translate(85.044 120.496)">
    <g id="Raggruppa_30997" data-name="Raggruppa 30997" clip-path="url(#clip-path-9)">
      <rect id="Rettangolo_165291" data-name="Rettangolo 165291" width="28.604" height="9.879" transform="translate(-0.856 0.134) rotate(-8.872)" fill="url(#linear-gradient-7)"/>
    </g>
  </g>
  <g id="Raggruppa_31000" data-name="Raggruppa 31000" transform="translate(51.932 120.993)">
    <g id="Raggruppa_30999" data-name="Raggruppa 30999" clip-path="url(#clip-path-10)">
      <rect id="Rettangolo_165292" data-name="Rettangolo 165292" width="11.66" height="26.955" transform="translate(-1.25 4.76) rotate(-75.288)" fill="url(#linear-gradient-8)"/>
    </g>
  </g>
  <g id="Raggruppa_31002" data-name="Raggruppa 31002" transform="translate(66.031 98.514)">
    <g id="Raggruppa_31001" data-name="Raggruppa 31001" clip-path="url(#clip-path-11)">
      <rect id="Rettangolo_165293" data-name="Rettangolo 165293" width="30.875" height="24.654" transform="matrix(0.973, -0.23, 0.23, 0.973, -4.225, 0.997)" fill="url(#linear-gradient-9)"/>
    </g>
  </g>
  <g id="Raggruppa_31004" data-name="Raggruppa 31004">
    <g id="Raggruppa_31003" data-name="Raggruppa 31003" clip-path="url(#clip-path)">
      <path id="Tracciato_107952" data-name="Tracciato 107952" d="M79.922,115.539c-5.44.478-4.321,5.923-2.255,10.978,1.351,3.307,2.031,7.06,5.489,7.06,0,0-.3-6.661-1.367-15.413,0,0-.952-2.7-1.867-2.625" transform="translate(-29.283 -44.538)" fill="#f0c499"/>
    </g>
  </g>
  <g id="Raggruppa_31006" data-name="Raggruppa 31006" transform="translate(47.402 72.823)">
    <g id="Raggruppa_31005" data-name="Raggruppa 31005" clip-path="url(#clip-path-13)">
      <rect id="Rettangolo_165295" data-name="Rettangolo 165295" width="5.216" height="13.404" transform="translate(-0.741 0.011) rotate(-1.637)" fill="url(#linear-gradient-10)"/>
    </g>
  </g>
  <g id="Raggruppa_31008" data-name="Raggruppa 31008">
    <g id="Raggruppa_31007" data-name="Raggruppa 31007" clip-path="url(#clip-path)">
      <path id="Tracciato_107954" data-name="Tracciato 107954" d="M116.87,55.28c-16.311-2.958-27.822,12.66-30.9,31.455-1.728,10.546-1.188,19.835,4.028,27.6,2.115,3.147,4.728,4.67,7.775,7.151,1.935,1.576,4.957,4.954,7.023,6.6a11.042,11.042,0,0,0,6.454,2.8c7.675.31,12.723-5.872,14.932-8.1,7.759-7.823,14.872-10.726,13.341-32.541C138.318,73.1,127.56,55.664,116.87,55.28" transform="translate(-32.8 -21.17)" fill="#f7d4ab"/>
    </g>
  </g>
  <g id="Raggruppa_31018" data-name="Raggruppa 31018" transform="translate(99.047 76.762)">
    <g id="Raggruppa_31017" data-name="Raggruppa 31017" clip-path="url(#clip-path-15)">
      <rect id="Rettangolo_165301" data-name="Rettangolo 165301" width="5.658" height="3.655" transform="translate(-0.172)" fill="url(#linear-gradient-11)"/>
    </g>
  </g>
  <g id="Raggruppa_31020" data-name="Raggruppa 31020" transform="translate(54.838 76.985)">
    <g id="Raggruppa_31019" data-name="Raggruppa 31019" clip-path="url(#clip-path-16)">
      <rect id="Rettangolo_165302" data-name="Rettangolo 165302" width="5.581" height="3.513" transform="translate(-0.139 0)" fill="url(#linear-gradient-12)"/>
    </g>
  </g>
  <g id="Raggruppa_31028" data-name="Raggruppa 31028" transform="translate(71.811 90.569)">
    <g id="Raggruppa_31027" data-name="Raggruppa 31027" clip-path="url(#clip-path-18)">
      <rect id="Rettangolo_165306" data-name="Rettangolo 165306" width="16.452" height="7.162" transform="translate(-0.135 -0.116)" fill="#fff"/>
    </g>
  </g>
  <g id="Raggruppa_31044" data-name="Raggruppa 31044" transform="translate(75.985 102.471)">
    <g id="Raggruppa_31043" data-name="Raggruppa 31043" clip-path="url(#clip-path-22)">
      <rect id="Rettangolo_165314" data-name="Rettangolo 165314" width="7.511" height="2.94" transform="translate(-0.091)" fill="url(#linear-gradient-13)"/>
    </g>
  </g>
  <g id="Raggruppa_31046" data-name="Raggruppa 31046">
    <g id="Raggruppa_31045" data-name="Raggruppa 31045" clip-path="url(#clip-path)">
      <path id="Tracciato_107976" data-name="Tracciato 107976" d="M94.929,143.8c-10.351-8.1-7.237-22.545-7.237-22.545-5.422,14.662,3.873,21.275,5.753,22.629,3.879,2.791,10.32,8.555,10.32,8.555-2.582-2.558-3.975-4.837-8.836-8.638" transform="translate(-33.157 -46.74)" fill="#f0c499"/>
    </g>
  </g>
  <g id="Raggruppa_31048" data-name="Raggruppa 31048" transform="translate(71.646 106.227)">
    <g id="Raggruppa_31047" data-name="Raggruppa 31047" clip-path="url(#clip-path-24)">
      <rect id="Rettangolo_165316" data-name="Rettangolo 165316" width="17.762" height="11.216" transform="translate(-1.015 0.11) rotate(-6.203)" fill="url(#linear-gradient-14)"/>
    </g>
  </g>
  <g id="Raggruppa_31050" data-name="Raggruppa 31050">
    <g id="Raggruppa_31049" data-name="Raggruppa 31049" clip-path="url(#clip-path)">
      <path id="Tracciato_107978" data-name="Tracciato 107978" d="M122.925,57s-24.064-7.113-31.61,12.016c-7.969,20.2-6.259,30.628-5.741,35.35,0,0,1.841-11.644,4.278-15.242a83.832,83.832,0,0,0,12.8-15.34c11-17.438,22.016-14.7,25.737-9.13,6.03,9.019,8.662,21.6,11.664,36.3,0,0-.128-14.082-2.674-23.518C134.525,66.843,131.4,58.91,122.925,57" transform="translate(-32.788 -21.472)" fill="#f0c499"/>
      <path id="Tracciato_107979" data-name="Tracciato 107979" d="M175.378,115.859c-.916-.057-2.705,2.413-2.705,2.413-1.063,8.753-1.367,15.413-1.367,15.413,3.458,0,4.138-3.752,5.489-7.06,2.065-5.055,3.284-10.476-1.417-10.766" transform="translate(-66.036 -44.661)" fill="#f0c499"/>
    </g>
  </g>
  <g id="Raggruppa_31052" data-name="Raggruppa 31052" transform="translate(107.265 72.809)">
    <g id="Raggruppa_31051" data-name="Raggruppa 31051" clip-path="url(#clip-path-26)">
      <rect id="Rettangolo_165318" data-name="Rettangolo 165318" width="5.216" height="13.405" transform="matrix(1, -0.029, 0.029, 1, -0.379, 0.01)" fill="url(#linear-gradient-15)"/>
    </g>
  </g>
  <g id="Raggruppa_31054" data-name="Raggruppa 31054">
    <g id="Raggruppa_31053" data-name="Raggruppa 31053" clip-path="url(#clip-path)">
      <path id="Tracciato_107981" data-name="Tracciato 107981" d="M164.151,98.653c-5.19-3.31-8.523-1.844-8.523-1.844,10.234,1.435,9.647,12.373,9.647,12.373s1.9-8.6-1.124-10.53" transform="translate(-59.992 -37.194)" fill="#f7d4ab"/>
    </g>
  </g>
  <g id="Raggruppa_31056" data-name="Raggruppa 31056" transform="translate(105.558 59.725)">
    <g id="Raggruppa_31055" data-name="Raggruppa 31055" clip-path="url(#clip-path-28)">
      <rect id="Rettangolo_165320" data-name="Rettangolo 165320" width="17.348" height="3.651" transform="matrix(0.09, -0.996, 0.996, 0.09, -1.539, 17.089)" fill="url(#linear-gradient-16)"/>
    </g>
  </g>
  <g id="Raggruppa_31058" data-name="Raggruppa 31058" transform="translate(51.259 62.55)">
    <g id="Raggruppa_31057" data-name="Raggruppa 31057" clip-path="url(#clip-path-29)">
      <rect id="Rettangolo_165321" data-name="Rettangolo 165321" width="4.046" height="14.565" transform="translate(-1.863 0.245) rotate(-7.496)" fill="url(#linear-gradient-17)"/>
    </g>
  </g>
  <g id="Raggruppa_31060" data-name="Raggruppa 31060" transform="translate(34.467 19.067)">
    <g id="Raggruppa_31059" data-name="Raggruppa 31059" clip-path="url(#clip-path-30)">
      <rect id="Rettangolo_165322" data-name="Rettangolo 165322" width="72.28" height="62.458" transform="matrix(0.03, -1, 1, 0.03, -4.433, 70.411)" fill="url(#linear-gradient-18)"/>
    </g>
  </g>
  <g id="Raggruppa_31062" data-name="Raggruppa 31062" transform="translate(35.852 77.098)">
    <g id="Raggruppa_31061" data-name="Raggruppa 31061" clip-path="url(#clip-path-31)">
      <rect id="Rettangolo_165323" data-name="Rettangolo 165323" width="0.018" height="0.085" transform="translate(-0.004 0)" fill="url(#linear-gradient-19)"/>
    </g>
  </g>
  <g id="Raggruppa_31064" data-name="Raggruppa 31064" transform="translate(35.866 26.255)">
    <g id="Raggruppa_31063" data-name="Raggruppa 31063" clip-path="url(#clip-path-32)">
      <rect id="Rettangolo_165324" data-name="Rettangolo 165324" width="54.082" height="50.843" transform="translate(0 -0.001)" fill="url(#linear-gradient-20)"/>
    </g>
  </g>
  <g id="Raggruppa_31066" data-name="Raggruppa 31066" transform="translate(89.93 30.822)">
    <g id="Raggruppa_31065" data-name="Raggruppa 31065" clip-path="url(#clip-path-33)">
      <rect id="Rettangolo_165325" data-name="Rettangolo 165325" width="27.921" height="24.363" transform="translate(0 0)" fill="url(#linear-gradient-21)"/>
    </g>
  </g>
  <g id="Raggruppa_31068" data-name="Raggruppa 31068" transform="translate(34.999 18.751)">
    <g id="Raggruppa_31067" data-name="Raggruppa 31067" clip-path="url(#clip-path-34)">
      <rect id="Rettangolo_165326" data-name="Rettangolo 165326" width="85.783" height="50.339" transform="translate(0 -0.137)" fill="url(#linear-gradient-22)"/>
    </g>
  </g>
  <g id="Raggruppa_31070" data-name="Raggruppa 31070" transform="translate(90.136 72.38)">
    <g id="Raggruppa_31069" data-name="Raggruppa 31069" clip-path="url(#clip-path-35)">
      <rect id="Rettangolo_165327" data-name="Rettangolo 165327" width="19.112" height="32.471" transform="translate(0 0)" fill="url(#linear-gradient-23)"/>
    </g>
  </g>
  <g id="Raggruppa_31102" data-name="Raggruppa 31102" transform="translate(76.24 80.473)">
    <g id="Raggruppa_31101" data-name="Raggruppa 31101" clip-path="url(#clip-path-38)">
      <rect id="Rettangolo_165343" data-name="Rettangolo 165343" width="8.23" height="6.187" transform="translate(-1.451 0.494) rotate(-21.181)" fill="url(#linear-gradient-24)"/>
    </g>
  </g>
  <g id="Raggruppa_31126" data-name="Raggruppa 31126">
    <g id="Raggruppa_31125" data-name="Raggruppa 31125" clip-path="url(#clip-path)">
      <path id="Tracciato_108018" data-name="Tracciato 108018" d="M152.641,113.545" transform="translate(-58.375 -43.73)" fill="#fff"/>
    </g>
  </g>
  <g id="Raggruppa_31134" data-name="Raggruppa 31134" transform="translate(121.164 124.212)">
    <g id="Raggruppa_31133" data-name="Raggruppa 31133" clip-path="url(#clip-path-43)">
      <rect id="Rettangolo_165359" data-name="Rettangolo 165359" width="28.221" height="14.647" transform="matrix(0.254, -0.967, 0.967, 0.254, -6.653, 25.322)" fill="url(#linear-gradient-25)"/>
    </g>
  </g>
  <g id="Raggruppa_31136" data-name="Raggruppa 31136" transform="translate(26.228 128.804)">
    <g id="Raggruppa_31135" data-name="Raggruppa 31135" clip-path="url(#clip-path-44)">
      <rect id="Rettangolo_165360" data-name="Rettangolo 165360" width="8.704" height="19.528" transform="translate(-0.217 0.002) rotate(-0.64)" fill="url(#linear-gradient-26)"/>
    </g>
  </g>
  <g id="Raggruppa_31138" data-name="Raggruppa 31138" transform="translate(31.971 126.468)">
    <g id="Raggruppa_31137" data-name="Raggruppa 31137" clip-path="url(#clip-path-45)">
      <rect id="Rettangolo_165361" data-name="Rettangolo 165361" width="17.438" height="28.928" transform="translate(-6.251 1.534) rotate(-13.789)" fill="url(#linear-gradient-27)"/>
    </g>
  </g>
  <g id="Raggruppa_31140" data-name="Raggruppa 31140">
    <g id="Raggruppa_31139" data-name="Raggruppa 31139" clip-path="url(#clip-path)">
      <path id="Tracciato_108026" data-name="Tracciato 108026" d="M143.256,225.351c1.132-18.112,5.888-26.237,5.888-26.237l-21.008-5.242c-31.941,13.8-51.508.286-51.508.286l-22.169,7.477c3.868,4.689,6.159,15.144,7.505,25.3a79.487,79.487,0,0,0,81.293-1.581" transform="translate(-20.993 -74.734)" fill="#1c1c1c"/>
    </g>
  </g>
  <g id="Raggruppa_31142" data-name="Raggruppa 31142" transform="translate(87.076 33.125)">
    <g id="Raggruppa_31141" data-name="Raggruppa 31141" clip-path="url(#clip-path-47)">
      <rect id="Rettangolo_165363" data-name="Rettangolo 165363" width="64.556" height="130.012" transform="translate(-22.84 4.347) rotate(-10.777)" fill="url(#linear-gradient-28)"/>
    </g>
  </g>
  <g id="Raggruppa_31144" data-name="Raggruppa 31144" transform="translate(106.06 76.43)">
    <g id="Raggruppa_31143" data-name="Raggruppa 31143" clip-path="url(#clip-path-48)">
      <rect id="Rettangolo_165364" data-name="Rettangolo 165364" width="50.083" height="18.704" transform="translate(-5.439 48.288) rotate(-83.574)" fill="url(#linear-gradient-29)"/>
    </g>
  </g>
  <g id="Raggruppa_31146" data-name="Raggruppa 31146" transform="translate(33.141 33.395)">
    <g id="Raggruppa_31145" data-name="Raggruppa 31145" clip-path="url(#clip-path-49)">
      <rect id="Rettangolo_165365" data-name="Rettangolo 165365" width="113.283" height="102.082" transform="matrix(0.38, -0.925, 0.925, 0.38, -50.835, 79.364)" fill="url(#linear-gradient-30)"/>
    </g>
  </g>
  <g id="Raggruppa_31148" data-name="Raggruppa 31148" transform="translate(127.196 126.446)">
    <g id="Raggruppa_31147" data-name="Raggruppa 31147" clip-path="url(#clip-path-50)">
      <rect id="Rettangolo_165366" data-name="Rettangolo 165366" width="20.707" height="10.186" transform="translate(-0.46 20.656) rotate(-89.716)" fill="url(#linear-gradient-31)"/>
    </g>
  </g>
</svg>
