<svg xmlns="http://www.w3.org/2000/svg" xmlns:xlink="http://www.w3.org/1999/xlink" width="130.484" height="158.671" viewBox="0 0 130.484 158.671">
  <defs>
    <clipPath id="clip-path">
      <path id="Tracciato_108438" data-name="Tracciato 108438" d="M557.9,159.115a6.622,6.622,0,1,1-7.265,10.306l-9.645,13.684,37.674,26.555,9.645-13.684a6.622,6.622,0,1,0,7.264-10.306l9.645-13.684-13.684-9.645a6.622,6.622,0,1,1-10.306-7.264l-13.684-9.645Z" transform="translate(-540.992 -145.431)" fill="none"/>
    </clipPath>
    <clipPath id="clip-path-2">
      <path id="Tracciato_108467" data-name="Tracciato 108467" d="M21.475,163.8C1.225,185.581,0,254.755,0,254.755H75.016s13.665-63.245-1.311-80.983c-7.528-8.916-20.651-18.5-33.6-18.5-6.5,0-12.946,2.409-18.628,8.522" transform="translate(0 -155.274)" fill="none"/>
    </clipPath>
  </defs>
  <g id="Raggruppa_31279" data-name="Raggruppa 31279" transform="translate(0 -1.209)">
    <g id="Raggruppa_31258" data-name="Raggruppa 31258" transform="translate(12.785 54.218)">
      <g id="Raggruppa_31280" data-name="Raggruppa 31280" transform="translate(0 0)">
        <path id="Tracciato_108433" data-name="Tracciato 108433" d="M133.456,551.927a11.113,11.113,0,1,1,7.9,20.49L155.4,596.748l66.986-38.675-14.047-24.331a11.113,11.113,0,1,0-10.58-18.325L183.71,491.087l-66.986,38.675,14.047,24.331a11.1,11.1,0,0,1,2.684-2.165" transform="translate(-116.724 -491.087)" fill="#ffb954"/>
      </g>
    </g>
    <g id="Raggruppa_31262" data-name="Raggruppa 31262" transform="translate(59.254 16.359)">
      <g id="Raggruppa_31281" data-name="Raggruppa 31281" transform="translate(0)">
        <path id="Tracciato_108436" data-name="Tracciato 108436" d="M925.709,927.08l-7,21.421a11.416,11.416,0,0,0-17.5,5.568" transform="translate(-861.754 -841.467)" fill="none" stroke="#2a1b38" stroke-linecap="round" stroke-linejoin="round" stroke-width="2.6"/>
        <path id="Tracciato_108437" data-name="Tracciato 108437" d="M559.744,160.024a6.622,6.622,0,1,1-9.107,9.4L540.992,183.1l37.674,26.555,9.645-13.684a6.622,6.622,0,1,0,7.264-10.306l9.645-13.684-13.684-9.645a6.622,6.622,0,1,1-10.306-7.265l-13.684-9.645L557.9,159.114a6.617,6.617,0,0,1,1.842.91" transform="translate(-540.992 -145.43)" fill="#e54c4c"/>
      </g>
    </g>
    <g id="Raggruppa_31264" data-name="Raggruppa 31264" transform="translate(59.254 16.359)">
      <g id="Raggruppa_31263" data-name="Raggruppa 31263" clip-path="url(#clip-path)">
        <path id="Tracciato_108470" data-name="Tracciato 108470" d="M0,0,17.689,63.208" transform="translate(6.458 4.807)" fill="none" stroke="#fffbf5" stroke-linecap="round" stroke-width="2.6"/>
      </g>
    </g>
    <g id="Raggruppa_31266" data-name="Raggruppa 31266" transform="translate(1.185 2.923)">
      <g id="Raggruppa_31282" data-name="Raggruppa 31282">
        <path id="Tracciato_108439" data-name="Tracciato 108439" d="M880.647,138.264a.011.011,0,0,0,0,0,12.914,12.914,0,0,0-25.543,3.83c.814,6.617,6.508,10.314,9.948,14.105l5.111-.766,5.111-.766c2.176-4.633,6.534-9.836,5.374-16.4" transform="translate(-762.502 -115.815)" fill="#ffb954"/>
        <path id="Tracciato_108440" data-name="Tracciato 108440" d="M914.572,240.279s-1.427-15.289-4.617-18.945-4.738,2.285-1.018,6.274a6.874,6.874,0,0,0,6.12,2.305c.5-.076,2.217-.078,4.493-3.38,3.1-4.491.027-7.305-1.95-2.874s.961,16.021.961,16.021" transform="translate(-808.637 -198.567)" fill="none" stroke="#fffbf5" stroke-linecap="round" stroke-linejoin="round" stroke-width="1.6"/>
        <path id="Tracciato_108441" data-name="Tracciato 108441" d="M944.1,389.47h0a6.415,6.415,0,0,1-7.3-5.393l-.96-6.4,12.688-1.9.96,6.4a6.415,6.415,0,0,1-5.393,7.3" transform="translate(-834.527 -337.106)" fill="#2a1b38"/>
        <line id="Linea_3218" data-name="Linea 3218" y1="7.94" x2="11.273" transform="translate(104.248 40.274)" fill="none" stroke="#fff" stroke-linecap="round" stroke-linejoin="round" stroke-width="1.2"/>
        <line id="Linea_3219" data-name="Linea 3219" y1="7.757" x2="11.013" transform="translate(103.02 45.178)" fill="none" stroke="#fff" stroke-linecap="round" stroke-linejoin="round" stroke-width="1.2"/>
        <line id="Linea_3220" data-name="Linea 3220" x1="1.65" y1="3.598" transform="translate(95.488 4.64)" fill="none" stroke="#2a1b38" stroke-linecap="round" stroke-linejoin="round" stroke-width="2.6"/>
        <line id="Linea_3221" data-name="Linea 3221" y1="7.859" x2="3.478" transform="translate(112.83)" fill="none" stroke="#ffb954" stroke-linecap="round" stroke-linejoin="round" stroke-width="2.6"/>
        <line id="Linea_3222" data-name="Linea 3222" y1="2.331" x2="5.287" transform="translate(122.298 14.776)" fill="none" stroke="#2a1b38" stroke-linecap="round" stroke-linejoin="round" stroke-width="2.6"/>
        <line id="Linea_3223" data-name="Linea 3223" x2="3.788" y2="3.89" transform="translate(18.284 16.459)" fill="none" stroke="#2a1b38" stroke-linecap="round" stroke-linejoin="round" stroke-width="1.6"/>
        <line id="Linea_3224" data-name="Linea 3224" x2="9.78" y2="1.482" transform="translate(10.701 30.927)" fill="none" stroke="#e54c4c" stroke-linecap="round" stroke-linejoin="round" stroke-width="1.6"/>
        <line id="Linea_3229" data-name="Linea 3229" x2="44.52" transform="translate(13.549 142.501)" fill="none" stroke="#e54c4c" stroke-linecap="round" stroke-linejoin="round" stroke-width="1.6"/>
        <line id="Linea_3230" data-name="Linea 3230" x2="10.271" transform="translate(0 142.501)" fill="none" stroke="#2a1b38" stroke-linecap="round" stroke-linejoin="round" stroke-width="1.6"/>
      </g>
    </g>
    <g id="Raggruppa_31268" data-name="Raggruppa 31268" transform="translate(0 17.437)">
      <g id="Raggruppa_31267" data-name="Raggruppa 31267" clip-path="url(#clip-path-2)">
        <path id="Tracciato_108442" data-name="Tracciato 108442" d="M348.735,370.88l-5.815.714-2.628-20.839,5.815-.714Z" transform="translate(-303.021 -328.708)" fill="#e6906f"/>
        <path id="Tracciato_108443" data-name="Tracciato 108443" d="M359.77,414.323a13.87,13.87,0,0,0,5.148,4.594l.4,3.171a7.063,7.063,0,0,1-3.371-2.163c-1.74-2-2.187-5.614-2.177-5.6" transform="translate(-320.365 -385.95)" fill="#d65a50"/>
        <path id="Tracciato_108444" data-name="Tracciato 108444" d="M323.245,245.986c1.012-4.586,11.142-4.283,11.142-4.283,1.152,3.1,3.009,14.09,2.96,18.775-.032,3.034-.419,4.564-2.42,4.9-2.045.341-5.351-.815-7.858-4.982-3.082-5.123-4.425-11.684-3.824-14.407" transform="translate(-287.716 -232.232)" fill="#f3b190"/>
        <path id="Tracciato_108445" data-name="Tracciato 108445" d="M289.885,210.382c2.414-3.018,15.9-7.989,15.137,7.036-2.24-.247-5.928.831-8.8.848a4.993,4.993,0,0,1-3.638-1.272c.476,2.86.991,6.293.991,6.293l-1.007.374s.265,4.406.5,5.6c-1.422-1.892-5.113-6.83-6.024-9.989-.925-3.208-1.315-7.957,2.849-8.885" transform="translate(-255.06 -201.434)" fill="#2a1b38"/>
        <path id="Tracciato_108446" data-name="Tracciato 108446" d="M315.259,346.216c.836,1.229.825,2.695-.025,3.273s-2.217.051-3.054-1.179-.825-2.695.025-3.273,2.217-.051,3.054,1.179" transform="translate(-277.436 -324.044)" fill="#f3b190"/>
        <path id="Tracciato_108447" data-name="Tracciato 108447" d="M329.53,356a2.747,2.747,0,0,0-.767-1.356,2.4,2.4,0,0,0-.58-.425,2.347,2.347,0,0,0-.47-.193" transform="translate(-291.819 -331.849)" fill="none" stroke="#d65a50" stroke-linecap="round" stroke-linejoin="round" stroke-width="0.7"/>
        <path id="Tracciato_108448" data-name="Tracciato 108448" d="M425.441,307.9l2.268-.415s-2.279-1.548-2.268.415" transform="translate(-378.843 -290.297)" fill="#2a1b38"/>
        <path id="Tracciato_108449" data-name="Tracciato 108449" d="M382.808,312.48l-3.149.385s1.693-2.319,3.149-.385" transform="translate(-338.076 -294.576)" fill="#2a1b38"/>
        <path id="Tracciato_108450" data-name="Tracciato 108450" d="M394.252,326.926a.428.428,0,1,1-.51-.411.467.467,0,0,1,.51.411" transform="translate(-350.323 -307.753)" fill="#2a1b38"/>
        <path id="Tracciato_108451" data-name="Tracciato 108451" d="M433.746,320.269a.428.428,0,1,1-.51-.411.467.467,0,0,1,.51.411" transform="translate(-385.492 -301.825)" fill="#2a1b38"/>
        <path id="Tracciato_108452" data-name="Tracciato 108452" d="M394.315,379.344c-1.918.04-3.132-2.4-3.132-2.4" transform="translate(-348.338 -352.667)" fill="none" stroke="#d65a50" stroke-linecap="round" stroke-linejoin="round" stroke-width="0.7"/>
        <path id="Tracciato_108453" data-name="Tracciato 108453" d="M417.658,315.278a6.055,6.055,0,0,0,.768,5.3,2.147,2.147,0,0,1,.437.881c.086.616-.627.908-1.027.956" transform="translate(-371.659 -297.753)" fill="none" stroke="#d65a50" stroke-linecap="round" stroke-linejoin="round" stroke-width="0.7"/>
        <path id="Tracciato_108454" data-name="Tracciato 108454" d="M295.965,238.394a4.612,4.612,0,0,0-3.132.471" transform="translate(-260.76 -229.207)" fill="none" stroke="#2a1b38" stroke-linecap="round" stroke-linejoin="round" stroke-width="5.265"/>
        <path id="Tracciato_108455" data-name="Tracciato 108455" d="M186.645,497.106c7.58-1.362,21.2.239,28.377,1.628,5.555,1.074,6.772,12.908,6.588,19.005-.454,15.005-1.551,25.7,1.639,41.015H183.584c-.125-2.526.944-10.38.437-23.095-.544-13.648-6.154-36.975,2.624-38.553" transform="translate(-161.849 -459.205)" fill="#4e9dbf"/>
        <path id="Tracciato_108456" data-name="Tracciato 108456" d="M546.166,775.531s.754,2.072,2.516,18.7l9.776-5.534c-.272-6.677-.365-9.879-.639-12.761Z" transform="translate(-486.346 -707.596)" fill="#f3b190"/>
        <path id="Tracciato_108457" data-name="Tracciato 108457" d="M575.889,863.548c-3.183.235-6.039,3.819-6.9,7.965-.7,6.635,2.328,24.062,2.328,24.062l6.243,1.02s.168-4.052.476-8.21c.443-5.983.761-14.524.729-19.259-.038-5.682-1.094-5.709-2.875-5.578" transform="translate(-506.576 -785.945)" fill="#f3b190"/>
        <path id="Tracciato_108458" data-name="Tracciato 108458" d="M575.33,1171.759a29.313,29.313,0,0,1-.829-8.013c.023-1.581,1.856-6.777,1.856-6.777l-.042-.764,6.263.555.059,1.69s.677,7.283.589,8.069c-.564,5.028-6.112,11.128-6.112,11.128a4.33,4.33,0,0,1-.215-2.975c.271-.582.789-1.582,1.228-2.475a5.5,5.5,0,0,0,.245-3.465l-1.53-4.38s-.273,4.8-.511,5.926c-.305,1.437-1,1.482-1,1.482" transform="translate(-511.574 -1046.575)" fill="#f3b190"/>
        <path id="Tracciato_108459" data-name="Tracciato 108459" d="M463.061,512.495c12.838,2.252,14.834,4.775,17.363,10.422,2.016,4.5,2.684,10.31,3.393,18.79-8.46-.194-18.976-.019-18.976-.019Z" transform="translate(-412.343 -473.369)" fill="#4e9dbf"/>
        <path id="Tracciato_108460" data-name="Tracciato 108460" d="M313.055,498.218c-.51,5.317-10.434,7.131-17.889-1.622a104.272,104.272,0,0,1,17.889,1.622" transform="translate(-262.837 -459.212)" fill="#e6906f"/>
        <path id="Tracciato_108461" data-name="Tracciato 108461" d="M110.633,668.908a73.38,73.38,0,0,0-.089,7.646l10.767-1.106.193-10.255Z" transform="translate(-98.373 -609.343)" fill="#e6906f"/>
        <path id="Tracciato_108462" data-name="Tracciato 108462" d="M128.981,497.375c-10.593.172-15.059,4.969-15.981,10.791-.626,3.95-.719,6.646-1.065,11.3l16.148-1.464Z" transform="translate(-99.675 -459.905)" fill="#4e9dbf"/>
        <path id="Tracciato_108463" data-name="Tracciato 108463" d="M340.323,416.085a16.113,16.113,0,0,0,1.973-2.191,43.091,43.091,0,0,0-1.019-6.476c-.559-1.477-2.115-4.686-2.115-4.686a2.172,2.172,0,0,1,2.337.4c.935.914,2.168,3.644,3.655,4.074s6.29-1.784,6.29-1.784l.146-.881a3.479,3.479,0,0,1,1.38.954.807.807,0,0,1,.031,1,8.551,8.551,0,0,1-1.311,1.239,6.871,6.871,0,0,1,1.24,1.807,6.789,6.789,0,0,1-.029,1.338s.517,2.635-.014,3.912c-.513,1.233-5.782,4.11-5.782,4.11a4.336,4.336,0,0,0-1.679,1.51Z" transform="translate(-302.014 -375.467)" fill="#f3b190"/>
        <path id="Tracciato_108464" data-name="Tracciato 108464" d="M142.361,530.447c-5.369,6.128-18.876,24.677-24.568,28.36-6.453,4.176-8.4-7.818-5.067-11.507,3.508-3.878,19.914-16.376,24.532-21.181Z" transform="translate(-98.95 -485.502)" fill="#f3b190"/>
        <path id="Tracciato_108465" data-name="Tracciato 108465" d="M141.1,796.935a3.025,3.025,0,0,1-1.97-1.737" transform="translate(-123.887 -725.108)" fill="none" stroke="#d65a50" stroke-linecap="round" stroke-linejoin="round" stroke-width="0.7"/>
        <path id="Tracciato_108466" data-name="Tracciato 108466" d="M347.707,402.554a2.767,2.767,0,0,1,1.529.751c.935.914,2.04,3.472,3.526,3.9s5.763-1.494,5.763-1.494" transform="translate(-309.623 -375.47)" fill="none" stroke="#d65a50" stroke-linecap="round" stroke-linejoin="round" stroke-width="0.7"/>
      </g>
    </g>
    <path id="Tracciato_109709" data-name="Tracciato 109709" d="M426.422,819.872H393.586a3.088,3.088,0,0,0-2.92,2.083l-8.473,24.607h32.836a3.088,3.088,0,0,0,2.92-2.083Z" transform="translate(-340.332 -729.643)" fill="#2a1b38"/>
    <line id="Linea_3278" data-name="Linea 3278" x1="68.316" transform="translate(12.403 116.851)" fill="none" stroke="#2a1b38" stroke-linecap="round" stroke-linejoin="round" stroke-width="2.6"/>
    <line id="Linea_3279" data-name="Linea 3279" x1="22.245" transform="translate(84.255 116.919)" fill="none" stroke="#fffbf5" stroke-linecap="round" stroke-linejoin="round" stroke-width="2.6"/>
  </g>
</svg>
