<svg xmlns="http://www.w3.org/2000/svg" xmlns:xlink="http://www.w3.org/1999/xlink" width="492" height="315" viewBox="0 0 492 315">
  <defs>
    <clipPath id="clip-path">
      <rect id="Rettangolo_165382" data-name="Rettangolo 165382" width="492" height="315" transform="translate(0 0)" fill="none"/>
    </clipPath>
    <clipPath id="clip-path-3">
      <rect id="Rettangolo_165368" data-name="Rettangolo 165368" width="39.528" height="98.839" fill="none"/>
    </clipPath>
    <clipPath id="clip-path-4">
      <rect id="Rettangolo_165369" data-name="Rettangolo 165369" width="24.629" height="56.365" fill="none"/>
    </clipPath>
    <clipPath id="clip-path-5">
      <path id="Tracciato_108127" data-name="Tracciato 108127" d="M854.853,1622.013a10.738,10.738,0,0,1,.821,3.381,5.442,5.442,0,0,1-.41,3.381c-.943,1.542-2.691,1.258-2.872,2.113-.24,1.136,2.518,3.183,5.334,3.8,4.413.973,8.289-1.707,9.643-2.747a6.617,6.617,0,0,1-4.514-2.748c-.332-.547-.665-1.344-.821-4.861-.1-2.2-.063-4.077,0-5.495l-7.181,3.17" transform="translate(-852.376 -1618.843)" fill="none"/>
    </clipPath>
    <linearGradient id="linear-gradient" x1="-4.788" y1="8.394" x2="-4.782" y2="8.394" gradientUnits="objectBoundingBox">
      <stop offset="0" stop-color="#6b4438"/>
      <stop offset="1" stop-color="#a35f55"/>
    </linearGradient>
    <clipPath id="clip-path-7">
      <path id="Tracciato_108146" data-name="Tracciato 108146" d="M3415.352,2128.2c-.893,5.347-1.934,12.1-2.926,19.952-.273,2.159-1.031,8.263-1.862,17.026-.834,8.786-1.763,20.473-2.394,34.583h5.587a93.491,93.491,0,0,0,4.788-17.824c1.29-7.9.667-11.787,2.395-19.154a61.075,61.075,0,0,1,5.292-14.247l7.739,50.944,4.39.4a144.144,144.144,0,0,0,1.2-20.752c-.073-5.189-.36-6.046-.4-11.573-.021-3.05.031-7.858,1.2-21.55.457-5.368,1.1-12.273,2-20.353l-27,2.549" transform="translate(-3408.169 -2125.653)" fill="none"/>
    </clipPath>
    <clipPath id="clip-path-9">
      <path id="Tracciato_108148" data-name="Tracciato 108148" d="M3516.222,1640.739a11.369,11.369,0,0,1-.688,3.392,10.145,10.145,0,0,1-1.893,3.192l7.225,4.19a16.278,16.278,0,0,0,2.581-1.4,18.009,18.009,0,0,0,3.785-3.392,10.283,10.283,0,0,1-1.548-2.594,11.745,11.745,0,0,1-.86-4.788l-8.6,1.4" transform="translate(-3513.641 -1639.342)" fill="none"/>
    </clipPath>
    <linearGradient id="linear-gradient-2" x1="-22.381" y1="10.857" x2="-22.375" y2="10.857" gradientUnits="objectBoundingBox">
      <stop offset="0" stop-color="#3d2720"/>
      <stop offset="1" stop-color="#683c36"/>
    </linearGradient>
    <clipPath id="clip-path-11">
      <path id="Tracciato_108161" data-name="Tracciato 108161" d="M3557.65,1643.9a3.061,3.061,0,0,0,4.93,0Z" transform="translate(-3557.65 -1643.903)" fill="none"/>
    </clipPath>
    <linearGradient id="linear-gradient-3" x1="-71.001" y1="52.735" x2="-70.981" y2="52.735" gradientUnits="objectBoundingBox">
      <stop offset="0" stop-color="#fff"/>
      <stop offset="1" stop-color="#dcecf9"/>
    </linearGradient>
    <clipPath id="clip-path-13">
      <rect id="Rettangolo_165377" data-name="Rettangolo 165377" width="15.295" height="26.819" fill="none"/>
    </clipPath>
    <clipPath id="clip-path-14">
      <rect id="Rettangolo_165378" data-name="Rettangolo 165378" width="14.412" height="21.646" fill="none"/>
    </clipPath>
    <clipPath id="clip-path-15">
      <rect id="Rettangolo_165379" data-name="Rettangolo 165379" width="14.412" height="21.647" fill="none"/>
    </clipPath>
    <clipPath id="clip-path-16">
      <rect id="Rettangolo_165380" data-name="Rettangolo 165380" width="13.694" height="17.449" fill="none"/>
    </clipPath>
  </defs>
  <g id="Raggruppa_31187" data-name="Raggruppa 31187" transform="translate(-0.031 0.5)">
    <g id="Raggruppa_31186" data-name="Raggruppa 31186" transform="translate(0.031 -0.5)" clip-path="url(#clip-path)">
      <path id="Tracciato_108031" data-name="Tracciato 108031" d="M1043.5,1330.329l-20.344-.026Z" transform="translate(-922.495 -1199.188)" fill="#ebeeff"/>
      <g id="Raggruppa_31157" data-name="Raggruppa 31157" transform="translate(0)">
        <g id="Raggruppa_31156" data-name="Raggruppa 31156" clip-path="url(#clip-path)">
          <path id="Tracciato_108032" data-name="Tracciato 108032" d="M904.1,2562.35c0,3.5-19.137,6.331-42.743,6.331s-42.743-2.834-42.743-6.331,19.137-6.331,42.743-6.331,42.743,2.834,42.743,6.331" transform="translate(-738.082 -2304.302)" fill="#d6ddff"/>
          <path id="Tracciato_108033" data-name="Tracciato 108033" d="M100.485,1330.3c-33.631.026-75.772,69.291-100.069,41.888v78.431H181.885L120.858,1330.33Z" transform="translate(-0.389 -1199.189)" fill="#d4ecff"/>
          <path id="Tracciato_108034" data-name="Tracciato 108034" d="M3232.157,1330.3c43.694,4.373,70.328,66.551,100.291,41.888v78.431H3150.576l61.163-120.292Z" transform="translate(-2840.595 -1199.189)" fill="#d4ecff"/>
          <path id="Tracciato_108035" data-name="Tracciato 108035" d="M1271.874,270.918v4.988a145.582,145.582,0,0,0,32.223-91.546c0-80.892-65.77-146.468-146.9-146.468s-146.9,65.576-146.9,146.468a145.523,145.523,0,0,0,28.385,86.558Z" transform="translate(-910.904 -33.942)" fill="#d4ecff"/>
          <path id="Tracciato_108036" data-name="Tracciato 108036" d="M274.656,2508.283V2508l-6.16.189h-45.41l-.07.094H.416v16.631s45,0,81.655,6.8,56.458,11.15,77.014,10.583c17.829-.492,39.792,6.693,63.168,8.608.273.05.549.1.833.14,29.022,4.387,51.57-.544,51.57-.544h0c21.783-2.356,42.173-8.666,58.918-8.2,20.556.567,40.354-3.78,77.014-10.583s81.655-6.8,81.655-6.8v-16.631Z" transform="translate(-0.389 -2261.008)" fill="#c9e7ff"/>
          <path id="Tracciato_108037" data-name="Tracciato 108037" d="M492.243,1436.272h-1.53v1.589h-1.2v-2.384h-2.259v12.583h-2.79v2.384h-1.727v3.312h-9.034v-21.591h-2.79V1427h-1.328s-1.727-3.907-3.919-3.907h-7.507s-3.421,1.457-3.421,3.411a1.631,1.631,0,0,1-1.794,1.788v6.259h-2.092V1421.57h-5.182v-12.054h-10.23v-15.5h-4.119v-5.431h-1.461v6.225h-3.322v-17.352h-1.86v16.557c0,.4-3.72,0-3.72,0v14.305h-8.37v12.451H382.432v18.941h-10.5c.4,0,0-3.841,0-3.841h-7.174V1413.49h-4.384v-3.841H356.79v4.371h-6.377V1403.29h-1.86v11.126h-10.5v13.113h-3.189v-3.311h-2.657v-3.179h-2.126v-5.431h-7.972v4.769h-3.056v4.768h-5.713V1412.43H307.1v12.716h-5.314v-9.537h-5.58v-6.888h-4.65v-3.444H276.278v9.007s-8.769,1.854-11.16,5.7v5.033h-2.259v5.96h-4.783v2.782h-2.524v-6.225h-4.384v-3.179h-1.86s-1.86-5.961-4.119-5.166-9.433,0-9.433,0a19.508,19.508,0,0,0-1.727,5.166h-2.391v6.623h-3.189V1447H224.6v-7.55h-2.79v7.948h-2.391v-2.384H215.3v2.252H212.24v-33.379h-9.7v18.279H190.318v9.669h-7.573v-9.272h-2.923v-4.239l-1.727-1.722-3.321-3.444h-8.9s-3.986,4.106-3.986,5.828v5.3h-2.391V1421.57h-5.049v-12.716h-8.5v-31.392H132.79v-4.106h-5.447v-11.921H125.35v-7.815h-2.79v7.947l-1.063,1.06v10.067h-5.713v48.479H91.338v18.677H79.779v-2.782H73.4v-23.048H67.955v-4.371H65.962v4.636H59.584v-10.6h-.93v10.729H47.893v32.055s-4.916.265-4.384,0,0-.265,0-.265v-20.8l-5.514-5.5v-4.3H31.285v4.769H27.3v3.974H22.118V1412.3H15.209v11.126H10.426v-8.345H4.979v-5.166H1.392v-6.226H.416V1462.1H492.243Z" transform="translate(-0.389 -1220.21)" fill="#bae0ff"/>
          <path id="Tracciato_108038" data-name="Tracciato 108038" d="M492.243,1631.852h-.764v5.194h-2.871v4.31h-4.36v6.962H480.42v-9.283H474.89v10.056h-4.147v-3.315h-3.19V1641.8h-5.37v3.592l-4.413,4.586v17.35s-.425,0,0,.221-3.509,0-3.509,0V1640.8h-8.613v-8.951H444.9v8.841h-5.1v-3.868h-1.6v3.647h-4.36V1659.7h-5.1v2.321h-9.251v-15.582H399.923v-40.446H395.35v-8.4l-.851-.884v-6.63h-2.233v6.52h-1.6v9.946h-4.36v3.426H375.785v26.19h-6.806v10.609h-4.041v10.609h-1.914v-4.42c0-1.437-3.19-4.862-3.19-4.862h-7.125l-2.658,2.873-1.382,1.437v3.536h-2.339v7.736h-6.061v-8.067h-9.783v-15.25h-7.763v27.848h-2.446v-1.878h-3.3v1.989h-1.914v-6.631h-2.233v6.3h-3.084v-13.371H307.2v-5.525h-1.914a16.743,16.743,0,0,0-1.382-4.31s-5.742.663-7.55,0-3.3,4.31-3.3,4.31h-1.489v2.652h-3.509v5.194h-2.02v-2.321h-3.828v-4.973H280.4v-4.2c-1.914-3.2-8.932-4.752-8.932-4.752v-7.515H259.24v2.873h-3.722v5.746h-4.466v7.957H246.8v-10.609h-5v10.609h-4.572v-3.978h-2.446V1641.8H228.4v4.531h-1.7v2.652h-2.127v2.763h-2.552V1640.8h-8.4v-9.283h-1.489v8.951h-5.1v-3.647h-2.871v3.2h-3.509v18.676h-5.742s-.319,3.2,0,3.2h-8.4v-15.8H162.367V1635.72h-6.7v-11.935s-2.977.332-2.977,0v-13.813H151.2v14.477h-2.659v-5.194h-1.17v4.531h-3.3v12.93h-8.188v10.056h-4.147v10.83h-1.675v-5.221a1.323,1.323,0,0,1-1.436-1.492c0-1.63-2.738-2.846-2.738-2.846h-6.008c-1.755,0-3.137,3.26-3.137,3.26h-1.063v4.31h-2.233v18.013h-7.231v-2.763h-1.382v-1.989h-2.233v-10.5H100.8v1.989h-.957v-1.326H97.82v-19.228H89.526v26.743h-1.6v1.657H86.442v-1.878H83.784v2.652H81.232v-8.178h-.957L79,1665v3.315H77.085v-1.768H75.6v-15.029H73.682v-2.21H71.13a7.058,7.058,0,0,0,0-3.094,3.211,3.211,0,0,0-1.914-1.547s-6.38-.442-7.656,0-1.276,4.641-1.276,4.641H57.732v2.21H54.754v4.862H51.777v8.841H49.225v-15.913H47.1s1.063-3.315,0-5.526-6.167-3.757-8.294-4.641-8.294,5.3-8.294,5.3v4.863H28.6v12.156h-1.7a25.581,25.581,0,0,0,0-4.2,8.279,8.279,0,0,0-1.7-3.315H12.645c-3.19,0-3.615,3.757-3.615,3.757v8.841H6.477v7.073h-3.4v-7.073H.416v14.034H492.243Z" transform="translate(-0.389 -1433.405)" fill="#a1d4ff"/>
          <path id="Tracciato_108039" data-name="Tracciato 108039" d="M3212.366,1035.728l-.355-.34c35.923-37.617,54.3-66.357,63.387-83.844,9.835-18.923,11.2-29.072,11.216-29.172l.488.062a47.219,47.219,0,0,1-1.892,7.478,140.783,140.783,0,0,1-9.375,21.859,278.921,278.921,0,0,1-22.426,35.513,490.96,490.96,0,0,1-41.042,48.443" transform="translate(-2895.984 -831.396)" fill="#b5deff"/>
          <path id="Tracciato_108040" data-name="Tracciato 108040" d="M3926.729,801.492c-2.9,7.051-.364,14.653-.364,14.653s7.24-3.829,10.141-10.88.363-14.653.363-14.653-7.24,3.829-10.141,10.88" transform="translate(-3539.126 -712.599)" fill="#b5deff"/>
          <path id="Tracciato_108041" data-name="Tracciato 108041" d="M3754.789,983.217c1.863,7.271,8.5,11.742,8.5,11.742s3.618-7.318,1.755-14.589-8.5-11.742-8.5-11.742-3.618,7.318-1.755,14.589" transform="translate(-3384.876 -873.099)" fill="#b5deff"/>
          <path id="Tracciato_108042" data-name="Tracciato 108042" d="M3612.811,1196.566c3.024,6.847,10.327,10.177,10.327,10.177s2.4-7.772-.622-14.619-10.327-10.177-10.327-10.177-2.4,7.772.622,14.619" transform="translate(-3255.972 -1065.429)" fill="#b5deff"/>
          <path id="Tracciato_108043" data-name="Tracciato 108043" d="M3487.374,1404.171c1.18,7.428,7.362,12.5,7.362,12.5s4.27-6.973,3.09-14.4-7.362-12.5-7.362-12.5-4.27,6.973-3.09,14.4" transform="translate(-3144.068 -1252.804)" fill="#b5deff"/>
          <path id="Tracciato_108044" data-name="Tracciato 108044" d="M3334.45,1595.833c1.18,7.428,7.363,12.5,7.363,12.5s4.27-6.973,3.09-14.4-7.362-12.5-7.362-12.5-4.27,6.973-3.09,14.4" transform="translate(-3006.191 -1425.608)" fill="#b5deff"/>
          <path id="Tracciato_108045" data-name="Tracciato 108045" d="M3886.795,1106.338c-7.24,2.451-14.7-.542-14.7-.542s4.281-6.967,11.521-9.417,14.7.542,14.7.542-4.281,6.967-11.521,9.417" transform="translate(-3491.125 -987.41)" fill="#b5deff"/>
          <path id="Tracciato_108046" data-name="Tracciato 108046" d="M3750.537,1370.842c-7.512,1.268-14.355-2.893-14.355-2.893s5.335-6.218,12.847-7.486,14.355,2.893,14.355,2.893-5.335,6.218-12.847,7.486" transform="translate(-3368.581 -1226.163)" fill="#b5deff"/>
          <path id="Tracciato_108047" data-name="Tracciato 108047" d="M3594.059,1568.181c-7.294,2.271-14.668-.91-14.668-.91s4.453-6.862,11.747-9.133,14.668.91,14.668.91-4.453,6.862-11.747,9.132" transform="translate(-3227.217 -1403.869)" fill="#b5deff"/>
          <path id="Tracciato_108048" data-name="Tracciato 108048" d="M3434.139,1773.175c-7.381,1.945-14.6-1.566-14.6-1.566s4.753-6.664,12.134-8.609,14.6,1.566,14.6,1.566-4.753,6.664-12.134,8.609" transform="translate(-3083.098 -1588.782)" fill="#b5deff"/>
          <path id="Tracciato_108049" data-name="Tracciato 108049" d="M1063.44,1053.04a490.986,490.986,0,0,1-45.569-44.211A278.914,278.914,0,0,1,992.09,975.67a140.8,140.8,0,0,1-11.462-20.841,47.174,47.174,0,0,1-2.612-7.258l.48-.109c.022.1,2.385,10.094,14.032,27.98,10.751,16.51,31.836,43.309,71.232,77.225Z" transform="translate(-881.801 -854.016)" fill="#91ceff"/>
          <path id="Tracciato_108050" data-name="Tracciato 108050" d="M905.151,833.218c3.574,6.734,1.79,14.548,1.79,14.548s-7.579-3.105-11.153-9.84S894,823.378,894,823.378s7.579,3.105,11.153,9.84" transform="translate(-805.647 -742.141)" fill="#a1d4ff"/>
          <path id="Tracciato_108051" data-name="Tracciato 108051" d="M1113.543,989.059c-1.146,7.418-7.317,12.515-7.317,12.515s-4.314-6.93-3.169-14.348,7.317-12.515,7.317-12.515,4.314,6.93,3.169,14.348" transform="translate(-994.363 -878.584)" fill="#a1d4ff"/>
          <path id="Tracciato_108052" data-name="Tracciato 108052" d="M1273.056,1195.316c-2.342,7.11-9.286,11.136-9.286,11.136s-3.147-7.5-.806-14.61,9.286-11.135,9.286-11.135,3.147,7.5.806,14.61" transform="translate(-1137.93 -1064.31)" fill="#a1d4ff"/>
          <path id="Tracciato_108053" data-name="Tracciato 108053" d="M1424.1,1382.84c-.45,7.507-6.109,13.156-6.109,13.156s-4.929-6.524-4.479-14.031,6.109-13.156,6.109-13.156,4.929,6.524,4.479,14.031" transform="translate(-1274.422 -1233.905)" fill="#a1d4ff"/>
          <path id="Tracciato_108054" data-name="Tracciato 108054" d="M1594.982,1558.683c-.45,7.507-6.109,13.156-6.109,13.156s-4.929-6.524-4.479-14.031,6.109-13.156,6.109-13.156,4.929,6.524,4.479,14.031" transform="translate(-1428.488 -1392.447)" fill="#a1d4ff"/>
          <path id="Tracciato_108055" data-name="Tracciato 108055" d="M846.119,1137.274c7.444,1.734,14.573-1.972,14.573-1.972s-4.94-6.516-12.384-8.249-14.573,1.972-14.573,1.972,4.94,6.516,12.384,8.249" transform="translate(-751.715 -1015.519)" fill="#a1d4ff"/>
          <path id="Tracciato_108056" data-name="Tracciato 108056" d="M999.973,1385.676c7.6.53,14-4.279,14-4.279s-5.916-5.668-13.516-6.2-14,4.279-14,4.279,5.916,5.668,13.516,6.2" transform="translate(-889.41 -1239.629)" fill="#a1d4ff"/>
          <path id="Tracciato_108057" data-name="Tracciato 108057" d="M1180.864,1568.131c7.481,1.549,14.51-2.335,14.51-2.335s-5.1-6.4-12.581-7.944-14.51,2.335-14.51,2.335,5.1,6.4,12.581,7.944" transform="translate(-1053.346 -1404.019)" fill="#a1d4ff"/>
          <path id="Tracciato_108058" data-name="Tracciato 108058" d="M1357.521,1756.12c7.536,1.216,14.373-2.981,14.373-2.981s-5.38-6.169-12.915-7.385-14.373,2.981-14.373,2.981,5.38,6.169,12.915,7.385" transform="translate(-1212.32 -1573.563)" fill="#a1d4ff"/>
          <path id="Tracciato_108059" data-name="Tracciato 108059" d="M1114.629,1737.493a377.949,377.949,0,0,1-42.9-23.413,214.728,214.728,0,0,1-25.951-19.29c-12.364-10.913-16.2-17.889-16.233-17.958l.433-.233c.037.069,3.846,6.991,16.161,17.854,11.368,10.027,32.515,25.557,68.7,42.6Z" transform="translate(-928.258 -1511.41)" fill="#91ceff"/>
          <path id="Tracciato_108060" data-name="Tracciato 108060" d="M955.3,1607.306c4.037,4.259,4.322,10.421,4.322,10.421s-6.26-.743-10.3-5S945,1602.3,945,1602.3s6.26.743,10.3,5" transform="translate(-852.032 -1444.426)" fill="#a1d4ff"/>
          <path id="Tracciato_108061" data-name="Tracciato 108061" d="M1163.02,1666.669c.677,5.737-2.851,10.788-2.851,10.788s-4.626-4.252-5.3-9.989,2.851-10.787,2.851-10.787,4.626,4.252,5.3,9.989" transform="translate(-1041.171 -1493.452)" fill="#a1d4ff"/>
          <path id="Tracciato_108062" data-name="Tracciato 108062" d="M1317.877,1777c-.273,5.755-4.595,10.17-4.595,10.17s-3.878-4.915-3.6-10.669,4.595-10.17,4.595-10.17,3.878,4.915,3.6,10.669" transform="translate(-1180.815 -1592.313)" fill="#a1d4ff"/>
          <path id="Tracciato_108063" data-name="Tracciato 108063" d="M1472.65,1897.379c1.211,5.66-1.823,11.014-1.823,11.014s-5-3.824-6.209-9.484,1.823-11.014,1.823-11.014,5,3.824,6.209,9.484" transform="translate(-1320.265 -1701.917)" fill="#a1d4ff"/>
          <path id="Tracciato_108064" data-name="Tracciato 108064" d="M1635.568,1992.619c1.211,5.66-1.823,11.014-1.823,11.014s-5-3.824-6.209-9.484,1.823-11.014,1.823-11.014,5,3.824,6.21,9.484" transform="translate(-1467.153 -1787.786)" fill="#a1d4ff"/>
          <path id="Tracciato_108065" data-name="Tracciato 108065" d="M975.659,1821.34c5.877-.247,10.4-4.462,10.4-4.462s-5-3.816-10.882-3.569-10.4,4.462-10.4,4.462,5,3.816,10.882,3.569" transform="translate(-869.863 -1634.659)" fill="#a1d4ff"/>
          <path id="Tracciato_108066" data-name="Tracciato 108066" d="M1144.441,1969.719c5.745-1.171,9.506-6.056,9.506-6.056s-5.554-2.986-11.3-1.815-9.506,6.056-9.506,6.056,5.554,2.986,11.3,1.815" transform="translate(-1021.662 -1768.348)" fill="#a1d4ff"/>
          <path id="Tracciato_108067" data-name="Tracciato 108067" d="M1483.744,2173.147c5.839-.649,10.046-5.169,10.046-5.169s-5.259-3.468-11.1-2.819-10.046,5.169-10.046,5.169,5.26,3.468,11.1,2.819" transform="translate(-1327.761 -1951.827)" fill="#a1d4ff"/>
          <path id="Tracciato_108068" data-name="Tracciato 108068" d="M3154.774,1622.332l-.2-.449c42.265-18.872,67.094-36.349,80.48-47.687,14.5-12.283,19.07-20.206,19.114-20.284l.428.242c-.045.079-4.636,8.054-19.188,20.386a248.42,248.42,0,0,1-30.465,21.708,437.287,437.287,0,0,1-50.17,26.084" transform="translate(-2844.198 -1400.795)" fill="#b5deff"/>
          <path id="Tracciato_108069" data-name="Tracciato 108069" d="M4100.791,1475.389c-4.769,4.833-5.242,11.954-5.242,11.954s7.259-.714,12.028-5.547,5.242-11.954,5.242-11.954-7.259.714-12.028,5.547" transform="translate(-3692.588 -1324.997)" fill="#bfe3ff"/>
          <path id="Tracciato_108070" data-name="Tracciato 108070" d="M3926.615,1538.6c-.917,6.621,3.047,12.546,3.047,12.546s5.45-4.811,6.367-11.432-3.047-12.546-3.047-12.546-5.45,4.811-6.367,11.432" transform="translate(-3540.153 -1376.684)" fill="#bfe3ff"/>
          <path id="Tracciato_108071" data-name="Tracciato 108071" d="M3746.257,1662.274c.183,6.663,5.079,11.872,5.079,11.872s4.6-5.6,4.418-12.259-5.079-11.871-5.079-11.871-4.6,5.6-4.418,12.259" transform="translate(-3377.66 -1487.443)" fill="#bfe3ff"/>
          <path id="Tracciato_108072" data-name="Tracciato 108072" d="M3559.948,1798.463c-1.533,6.52,1.853,12.784,1.853,12.784s5.871-4.307,7.4-10.827-1.853-12.783-1.853-12.783-5.871,4.307-7.4,10.827" transform="translate(-3209.328 -1611.522)" fill="#bfe3ff"/>
          <path id="Tracciato_108073" data-name="Tracciato 108073" d="M3369.263,1904.848c-1.533,6.52,1.853,12.784,1.853,12.784s5.871-4.307,7.4-10.827-1.853-12.784-1.853-12.784-5.871,4.307-7.4,10.827" transform="translate(-3037.405 -1707.44)" fill="#bfe3ff"/>
          <path id="Tracciato_108074" data-name="Tracciato 108074" d="M4004.123,1720.152c-6.793-.422-11.929-5.4-11.929-5.4s5.878-4.3,12.671-3.876,11.929,5.4,11.929,5.4-5.878,4.3-12.672,3.876" transform="translate(-3599.403 -1542.286)" fill="#bfe3ff"/>
          <path id="Tracciato_108075" data-name="Tracciato 108075" d="M3810.81,1887.582c-6.619-1.488-10.856-7.227-10.856-7.227s6.495-3.325,13.114-1.837,10.855,7.227,10.855,7.227-6.495,3.325-13.114,1.837" transform="translate(-3426.078 -1693.117)" fill="#bfe3ff"/>
          <path id="Tracciato_108076" data-name="Tracciato 108076" d="M3608.408,2001.393c-6.778-.589-11.782-5.7-11.782-5.7s5.984-4.154,12.762-3.565,11.782,5.7,11.782,5.7-5.984,4.154-12.762,3.565" transform="translate(-3242.756 -1795.845)" fill="#bfe3ff"/>
          <path id="Tracciato_108077" data-name="Tracciato 108077" d="M3409.791,2115.182c-6.739-.887-11.5-6.213-11.5-6.213s6.165-3.889,12.9-3,11.5,6.213,11.5,6.213-6.165,3.889-12.9,3" transform="translate(-3063.935 -1898.413)" fill="#bfe3ff"/>
          <path id="Tracciato_108078" data-name="Tracciato 108078" d="M1526.236,429.077c0,65.94-53.613,119.395-119.748,119.395s-119.748-53.455-119.748-119.395,53.613-119.395,119.748-119.395,119.748,53.455,119.748,119.395" transform="translate(-1160.148 -278.989)" fill="#ebf7ff"/>
          <path id="Tracciato_108079" data-name="Tracciato 108079" d="M1959.9,914.428A66.624,66.624,0,1,1,1893.274,848a66.526,66.526,0,0,1,66.624,66.428" transform="translate(-1646.934 -764.34)" fill="#f5fbff"/>
          <path id="Tracciato_108080" data-name="Tracciato 108080" d="M2385.137,1636.861l-13.485,1.679-13.383-2.361s-2.1,14.471,13.048,15.385h.007c15.175-.143,13.812-14.7,13.812-14.7" transform="translate(-2126.156 -1474.968)" fill="#1091a3"/>
          <path id="Tracciato_108081" data-name="Tracciato 108081" d="M2361.875,1585.979c-.061,2.4-7.468,4.154-16.544,3.924s-16.384-2.361-16.323-4.758,7.468-4.154,16.543-3.924,16.384,2.361,16.323,4.758" transform="translate(-2099.863 -1425.399)" fill="#087080"/>
          <path id="Tracciato_108082" data-name="Tracciato 108082" d="M2362.638,1555.979c-.061,2.4-7.468,4.154-16.543,3.924s-16.384-2.361-16.323-4.758,7.468-4.154,16.543-3.924,16.384,2.361,16.323,4.758" transform="translate(-2100.551 -1398.35)" fill="#1091a3"/>
          <path id="Tracciato_108083" data-name="Tracciato 108083" d="M2363.354,1527.741c-.061,2.4-7.468,4.154-16.543,3.924s-16.384-2.361-16.323-4.758,7.468-4.154,16.543-3.924,16.384,2.361,16.323,4.758" transform="translate(-2101.198 -1372.891)" fill="#087080"/>
          <path id="Tracciato_108084" data-name="Tracciato 108084" d="M2364.109,1498.075c-.061,2.4-7.468,4.154-16.543,3.924s-16.384-2.361-16.323-4.758,7.467-4.154,16.543-3.924,16.384,2.361,16.323,4.758" transform="translate(-2101.878 -1346.144)" fill="#1091a3"/>
          <path id="Tracciato_108085" data-name="Tracciato 108085" d="M2164.216,614.239c-3.948,8.255-5.952,13.566-5.779,18.058.051,1.3-1.271,2.167-3.176,2.729-4.642,1.374-12.733.983-12.733.983s-16.1-.037-15.7-4.515-1.331-9.884-4.855-18.328-26.238-31.214-15.271-55.374,38.36-21.6,38.36-21.6,27.492-1.171,37.215,23.515-14.114,46.273-18.062,54.528" transform="translate(-1896.757 -483.145)" fill="#fec341"/>
          <g id="Raggruppa_31152" data-name="Raggruppa 31152" transform="translate(248.306 53.043)" opacity="0.15">
            <g id="Raggruppa_31151" data-name="Raggruppa 31151">
              <g id="Raggruppa_31150" data-name="Raggruppa 31150" clip-path="url(#clip-path-3)">
                <path id="Tracciato_108086" data-name="Tracciato 108086" d="M2542.906,614.879c-3.948,8.255-5.952,13.566-5.779,18.058.051,1.3-1.271,2.167-3.176,2.729-.668-2.7-.209-7.809,3.464-17.482,8-21.075,21.794-26.558,20.972-47.249-1.11-27.932-34.633-34.1-34.633-34.1s27.491-1.171,37.215,23.515-14.114,46.273-18.062,54.528" transform="translate(-2523.753 -536.828)"/>
              </g>
            </g>
          </g>
          <g id="Raggruppa_31155" data-name="Raggruppa 31155" transform="translate(210.225 58.302)" opacity="0.47">
            <g id="Raggruppa_31154" data-name="Raggruppa 31154">
              <g id="Raggruppa_31153" data-name="Raggruppa 31153" clip-path="url(#clip-path-4)">
                <path id="Tracciato_108087" data-name="Tracciato 108087" d="M2157.356,590.581a18.6,18.6,0,0,0-4.928,2.162c-4.7,2.9-15.189,10.787-15.668,23.545-.618,16.461,5.858,24.913,11.629,29.653s-7.122-15.388-4.237-29.765c1.715-8.544,5.516-12.741,13.045-18.242,4.658-3.4,6.285-9,.159-7.353" transform="translate(-2136.719 -590.283)" fill="#fff"/>
              </g>
            </g>
          </g>
          <path id="Tracciato_108088" data-name="Tracciato 108088" d="M1836.481,791.708l-19.587-4.647,19.947,2.712a.985.985,0,1,1-.265,1.952c-.032,0-.064-.01-.095-.018" transform="translate(-1638.138 -709.397)" fill="#febf4b"/>
          <path id="Tracciato_108089" data-name="Tracciato 108089" d="M2023.11,398.886l-12.659-15.652,14.127,14.341a.985.985,0,0,1-1.4,1.383c-.022-.023-.044-.048-.064-.072" transform="translate(-1812.65 -345.304)" fill="#febf4b"/>
          <path id="Tracciato_108090" data-name="Tracciato 108090" d="M2410.954,202.126,2410.5,182l2.412,19.986a.985.985,0,1,1-1.956.236c0-.032-.006-.065-.007-.1" transform="translate(-2173.341 -163.87)" fill="#febf4b"/>
          <path id="Tracciato_108091" data-name="Tracciato 108091" d="M2726.911,283.533l11.949-16.2-10.31,17.29a.985.985,0,1,1-1.692-1.009c.016-.027.035-.055.053-.08" transform="translate(-2458.441 -240.806)" fill="#febf4b"/>
          <path id="Tracciato_108092" data-name="Tracciato 108092" d="M2942.512,609.136l19.36-5.515L2943.143,611a.985.985,0,0,1-.722-1.833c.03-.012.061-.022.091-.031" transform="translate(-2652.358 -544.007)" fill="#febf4b"/>
          <path id="Tracciato_108093" data-name="Tracciato 108093" d="M2971.9,973.949l18.693,7.472-19.333-5.611a.985.985,0,0,1,.549-1.892c.031.009.062.02.091.031" transform="translate(-2678.279 -877.833)" fill="#febf4b"/>
          <path id="Tracciato_108094" data-name="Tracciato 108094" d="M2360.892,1154.768a.433.433,0,0,1-.065,0,.443.443,0,0,1-.374-.5,152.679,152.679,0,0,0,1.464-22.757,11.173,11.173,0,0,1-3.845-1.448,17.118,17.118,0,0,1-4.887-4.294c-1.822-2.378-2.469-4.7-1.772-6.382.6-1.452,2.1-2.345,4.457-2.653a4.035,4.035,0,0,1,3.557,1.238c1.94,1.971,3.06,6.241,3.347,12.735a5.335,5.335,0,0,0,.9-.039l.478-.062c1.952-.254,4.295-.559,6.543-1.06-.689-5.6,1.148-12.443,3.926-13.5,1.071-.406,2.7-.171,4.4,3.248,1.226,2.47,1.374,4.61.439,6.36-.986,1.848-3.127,3.234-6.543,4.235-.4.118-.813.228-1.228.33.073.42.163.832.271,1.232l.015.057v22.819a.443.443,0,1,1-.885,0v-22.7q-.155-.586-.263-1.2c-2.255.5-4.591.8-6.561,1.058l-.477.062a6.128,6.128,0,0,1-.979.047q.1,3.2-.051,7.08c-.323,8.159-1.415,15.648-1.426,15.723a.443.443,0,0,1-.437.378m-4.411-37.2a3.832,3.832,0,0,0-.5.033c-2.018.264-3.281.976-3.754,2.115-.572,1.377.033,3.383,1.658,5.5,1.875,2.447,5.07,4.861,7.994,5.379-.241-5.315-1.087-9.986-3.086-12.016a3.134,3.134,0,0,0-2.314-1.015m18.914-.786a1.3,1.3,0,0,0-.464.087c-2.177.824-4.008,7.109-3.375,12.463,3.164-.79,6.008-2.017,7.12-4.1.792-1.484.64-3.351-.451-5.55-.682-1.375-1.695-2.9-2.83-2.9" transform="translate(-2119.816 -1005.877)" fill="#1091a3"/>
          <path id="Tracciato_108095" data-name="Tracciato 108095" d="M1848.685,2353.789a24.239,24.239,0,0,0-7.233,1.1,27.891,27.891,0,0,0-43.113-10.579,30.451,30.451,0,0,0-58.234,7.842,22.424,22.424,0,1,0,22.271,33.416,30.446,30.446,0,0,0,28.562-7.04,27.9,27.9,0,0,0,37.271,12.5,24.248,24.248,0,1,0,20.476-37.234" transform="translate(-1551.235 -2096.654)" fill="#fff"/>
          <path id="Tracciato_108096" data-name="Tracciato 108096" d="M1848.234,2401.887a24.273,24.273,0,0,1-20.494-11.251,27.952,27.952,0,0,1-27.183-1.413,28.057,28.057,0,0,1-10.084-11.069,30.494,30.494,0,0,1-28.524,7.017,22.461,22.461,0,0,1-19.466,11.246,22.473,22.473,0,0,1-2.872-44.762,30.5,30.5,0,0,1,58.3-7.878,27.941,27.941,0,0,1,43.121,10.6,24.3,24.3,0,1,1,7.205,47.511m-20.458-11.378.024.038a24.186,24.186,0,1,0,13.217-36.063l-.042.013-.018-.041a27.842,27.842,0,0,0-43.037-10.561l-.051.041-.025-.06a30.4,30.4,0,0,0-58.14,7.83l-.005.038-.038,0a22.375,22.375,0,1,0,22.222,33.342l.019-.033.037.01a30.4,30.4,0,0,0,28.516-7.029l.048-.044.029.058a27.847,27.847,0,0,0,37.2,12.476Z" transform="translate(-1550.784 -2096.203)" fill="#fff"/>
          <path id="Tracciato_108097" data-name="Tracciato 108097" d="M2984.391,2410.242a7.572,7.572,0,1,1-7.573-7.572,7.572,7.572,0,0,1,7.573,7.572" transform="translate(-2677.106 -2166.041)" fill="#fff"/>
          <path id="Tracciato_108098" data-name="Tracciato 108098" d="M3242.355,2795.448A14.448,14.448,0,1,1,3227.908,2781a14.448,14.448,0,0,1,14.448,14.448" transform="translate(-2897.291 -2507.146)" fill="#fff"/>
          <path id="Tracciato_108099" data-name="Tracciato 108099" d="M1531.355,2795.448A14.448,14.448,0,1,1,1516.908,2781a14.448,14.448,0,0,1,14.448,14.448" transform="translate(-1354.642 -2507.146)" fill="#fff"/>
          <path id="Tracciato_108100" data-name="Tracciato 108100" d="M3457.683,2847.112A10.112,10.112,0,1,1,3447.571,2837a10.112,10.112,0,0,1,10.112,10.112" transform="translate(-3099.25 -2557.636)" fill="#fff"/>
          <path id="Tracciato_108101" data-name="Tracciato 108101" d="M1393.683,2847.112A10.112,10.112,0,1,1,1383.571,2837a10.112,10.112,0,0,1,10.112,10.112" transform="translate(-1238.334 -2557.636)" fill="#fff"/>
          <path id="Tracciato_108102" data-name="Tracciato 108102" d="M1592.923,2499a6.962,6.962,0,1,1-6.962-6.962,6.962,6.962,0,0,1,6.962,6.962" transform="translate(-1423.651 -2246.621)" fill="#ebf4fa"/>
          <path id="Tracciato_108103" data-name="Tracciato 108103" d="M1448.409,2699.424a3.408,3.408,0,1,1-3.408-3.408,3.408,3.408,0,0,1,3.408,3.408" transform="translate(-1299.764 -2430.524)" fill="#fff"/>
          <path id="Tracciato_108104" data-name="Tracciato 108104" d="M1805.67,2371.4a3.481,3.481,0,1,1-3.481-3.481,3.481,3.481,0,0,1,3.481,3.481" transform="translate(-1621.741 -2134.705)" fill="#fff"/>
          <path id="Tracciato_108105" data-name="Tracciato 108105" d="M3257.981,2495.524a3.481,3.481,0,1,1-3.481-3.481,3.481,3.481,0,0,1,3.481,3.481" transform="translate(-2931.155 -2246.621)" fill="#fff"/>
          <path id="Tracciato_108106" data-name="Tracciato 108106" d="M2758.334,2935.859a8.122,8.122,0,1,1-8.122-8.122,8.122,8.122,0,0,1,8.122,8.122" transform="translate(-2472.301 -2639.445)" fill="#f5fbff"/>
          <path id="Tracciato_108107" data-name="Tracciato 108107" d="M2139.137,2627.612a18.144,18.144,0,0,0-10.55,3.367,23.9,23.9,0,1,0-2.984,27.082,18.232,18.232,0,1,0,13.534-30.449" transform="translate(-1878.7 -2360.631)" fill="#f5fbff"/>
          <path id="Tracciato_108108" data-name="Tracciato 108108" d="M2541.19,1813.182a1.035,1.035,0,0,0-.1.585c.544,4.319,6.566,52.315,7.154,67.022.615,15.4,8.452.171,8.452.171l-14.125-67.552a.721.721,0,0,0-1.385-.227" transform="translate(-2291.074 -1634.152)" fill="#fff"/>
          <path id="Tracciato_108109" data-name="Tracciato 108109" d="M2550.293,1887.279a1.356,1.356,0,0,1-.3-.032c-1.32-.292-2.076-2.616-2.248-6.907-.584-14.623-6.483-61.7-7.154-67.018a1.092,1.092,0,0,1,.1-.614l.044.022-.044-.022a.773.773,0,0,1,.787-.469.846.846,0,0,1,.691.708l14.128,67.569-.008.016c-.147.286-3.5,6.746-6,6.747m-8.9-74.947a.692.692,0,0,0-.609.42.994.994,0,0,0-.091.558c.671,5.32,6.57,52.4,7.155,67.026.169,4.241.9,6.534,2.171,6.815a1.27,1.27,0,0,0,.274.029c2.385,0,5.719-6.318,5.907-6.678l-14.121-67.535a.74.74,0,0,0-.607-.631.612.612,0,0,0-.077,0" transform="translate(-2290.625 -1633.7)" fill="#fff"/>
          <path id="Tracciato_108110" data-name="Tracciato 108110" d="M2451.274,1814.476a.893.893,0,0,0-.219.554c-.16,4.369-1.975,52.911-3.993,67.5-2.114,15.283,9.8,2.075,9.8,2.075l-4.016-69.595A.9.9,0,0,0,2451.274,1814.476Z" transform="translate(-2206.075 -1635.443)" fill="#fff"/>
          <path id="Tracciato_108111" data-name="Tracciato 108111" d="M2448.683,1889.5a2.025,2.025,0,0,1-.864-.179c-1.4-.652-1.818-3.092-1.242-7.254,2.006-14.5,3.795-62.115,3.992-67.5a.947.947,0,0,1,.231-.584.944.944,0,0,1,1.656.565l4.017,69.615-.014.015c-.215.238-4.833,5.318-7.777,5.318m2.823-75.742a.831.831,0,0,0-.631.293.846.846,0,0,0-.207.523c-.2,5.382-1.987,53-3.993,67.506-.569,4.114-.17,6.52,1.186,7.151a1.908,1.908,0,0,0,.813.168c2.834,0,7.411-4.954,7.7-5.268l-4.015-69.574a.832.832,0,0,0-.571-.752.869.869,0,0,0-.281-.047" transform="translate(-2205.638 -1634.987)" fill="#fff"/>
          <path id="Tracciato_108112" data-name="Tracciato 108112" d="M2271.295,1812.847a1.261,1.261,0,0,0-.277.522c-1.1,4.2-13.29,50.825-17.981,64.766-4.914,14.6,6.357,2.489,6.357,2.489l12.874-67.183c.148-.774-.469-1.151-.972-.595" transform="translate(-2030.249 -1634.014)" fill="#fff"/>
          <path id="Tracciato_108113" data-name="Tracciato 108113" d="M2252.489,1884.928a1.06,1.06,0,0,1-.55-.138c-.972-.579-.756-2.978.642-7.131,4.662-13.855,16.631-59.593,17.98-64.763a1.321,1.321,0,0,1,.289-.543l.036.033-.036-.033a.636.636,0,0,1,.756-.231.762.762,0,0,1,.3.868l-12.877,67.2-.01.01c-.2.211-4.428,4.731-6.531,4.731m18.9-72.758a.656.656,0,0,0-.465.25,1.219,1.219,0,0,0-.267.5c-1.349,5.17-13.318,50.911-17.982,64.769-1.381,4.1-1.611,6.464-.685,7.015,1.683,1,6.7-4.294,6.949-4.565l12.871-67.169a.671.671,0,0,0-.249-.761.387.387,0,0,0-.174-.041" transform="translate(-2029.839 -1633.553)" fill="#fff"/>
          <path id="Tracciato_108114" data-name="Tracciato 108114" d="M567.362,2946.428c0,2.445-18.051,4.428-40.318,4.428s-40.318-1.982-40.318-4.428S504.778,2942,527.045,2942s40.318,1.982,40.318,4.428" transform="translate(-438.85 -2652.305)" fill="#c9e7ff"/>
          <path id="Tracciato_108115" data-name="Tracciato 108115" d="M1571.621,2963.381c-5.635,1.1-16.4,1.851-28.746,1.851-18.184,0-32.925-1.619-32.925-3.616s14.741-3.616,32.925-3.616a201.842,201.842,0,0,1,26.177,1.423,23.882,23.882,0,0,0,2.568,3.958" transform="translate(-1361.395 -2666.731)" fill="#c9e7ff"/>
          <path id="Tracciato_108116" data-name="Tracciato 108116" d="M3249.8,2961.616c0,2-14.741,3.616-32.926,3.616s-32.926-1.619-32.926-3.616,14.741-3.616,32.926-3.616,32.926,1.619,32.926,3.616" transform="translate(-2870.681 -2666.731)" fill="#c9e7ff"/>
          <path id="Tracciato_108117" data-name="Tracciato 108117" d="M3895.359,2996.476c0,.815-6.017,1.476-13.439,1.476s-13.439-.661-13.439-1.476S3874.5,2995,3881.92,2995s13.439.661,13.439,1.476" transform="translate(-3487.863 -2700.09)" fill="#c9e7ff"/>
          <path id="Tracciato_108118" data-name="Tracciato 108118" d="M936.955,2798.271l-2.162,11.458a2.512,2.512,0,0,1-1.506.833,2.783,2.783,0,0,1-2.385-1.05l.432-13.188,5.621,1.946" transform="translate(-839.32 -2520.964)" fill="#b0655b"/>
          <path id="Tracciato_108119" data-name="Tracciato 108119" d="M776.121,2800.72l-.649,12.539-3.675.649-1.3-13.188Z" transform="translate(-694.702 -2524.926)" fill="#b0655b"/>
          <path id="Tracciato_108120" data-name="Tracciato 108120" d="M734.124,2147.86c1.011,6.113,2.118,18.847,3.028,46.272l1.583-.113,4.471-.319,6.054-45.408.026.071,5.719,15.932a3.156,3.156,0,0,1,.166,1.433,3.189,3.189,0,0,1-.1.51c-.359,1.257-1.186,5.681-1.355,6.579a33.293,33.293,0,0,0-.432,6.2c-.057,3.191-.2,7.763-.563,14.254l2.06.409,4.556.9q2.8-13.276,5.594-26.555a9.8,9.8,0,0,0,.143-3.166l-3.8-32.343-.332-2.821-24.65-3.892a40.956,40.956,0,0,0-2.163,22.056" transform="translate(-661.336 -1916.417)" fill="#163f51"/>
          <path id="Tracciato_108121" data-name="Tracciato 108121" d="M734.124,2147.86c1.011,6.113,2.118,18.847,3.028,46.272l1.583-.113a68.941,68.941,0,0,1-.154-14.14,66.207,66.207,0,0,0,.576-9.513c-.094-3.736-.512-4.642-.864-8.36-.687-7.244.658-7.715.576-17.3-.043-5.071-.4-6.114.642-7.413,1.8-2.251,4.312-.915,12.107-2.162a43.51,43.51,0,0,0,9.651-2.617l-.332-2.821-24.65-3.892a40.956,40.956,0,0,0-2.163,22.056" transform="translate(-661.336 -1916.417)" fill="#0e2833"/>
          <path id="Tracciato_108122" data-name="Tracciato 108122" d="M896.736,2356.016a3.178,3.178,0,0,1,.065,1.943c-.359,1.257-1.186,5.681-1.355,6.579a33.3,33.3,0,0,0-.432,6.2c-.058,3.191-.2,7.763-.563,14.254l2.06.409a65.522,65.522,0,0,1-.056-9.186c.487-7.553.731-11.329,2.45-13.693a5.78,5.78,0,0,0,1.442-3.892,5.046,5.046,0,0,0-1.3-2.738c-1.8-2.241-1.274-2.973-4.035-9.082a91.389,91.389,0,0,0-4.324-8.36q.163.817.327,1.636Z" transform="translate(-803.067 -2108.138)" fill="#0e2833"/>
          <path id="Tracciato_108123" data-name="Tracciato 108123" d="M924.659,2922.727c1.5-.589,2.473,1.261,5.621,2.162,2.6.743,3.906.39,4.324,1.3a2.684,2.684,0,0,1-1.081,2.811c-1.6,1.234-3.315-.23-8-.432-3.254-.14-4.329.485-5.189-.432-1.369-1.46-.394-4.977.649-5.189.532-.108.84.694,1.785.713.857.018,1.133-.632,1.891-.929" transform="translate(-829.187 -2634.825)" fill="#041330"/>
          <path id="Tracciato_108124" data-name="Tracciato 108124" d="M771.78,2921.457c1.535-.491,2.387,1.417,5.471,2.519,2.543.908,3.873.64,4.232,1.572a2.684,2.684,0,0,1-1.259,2.735c-1.673,1.129-3.293-.443-7.955-.945-3.239-.349-4.351.206-5.15-.765-1.272-1.545-.073-4.992.98-5.136.538-.074.794.746,1.735.826.854.072,1.172-.558,1.946-.806" transform="translate(-691.158 -2633.712)" fill="#041330"/>
          <path id="Tracciato_108125" data-name="Tracciato 108125" d="M630.047,1490.3s-8.963-.889-11.555,5.111.074,9.7-4.518,13.259-8.592.148-12.148,8.074,5.037,11.037,2.667,14.148-4.444,6.963-2.222,8.74,3.852-.3,5.407.963-2.444,3.778,0,6.148,19.481,10.222,23.481,5.481,14.074-32.3,13.333-37.555-1.185-27.481-14.444-24.37" transform="translate(-541.836 -1343.172)" fill="#00020d"/>
          <path id="Tracciato_108126" data-name="Tracciato 108126" d="M836.461,1741.851c2.685,2.121,2.863,9.445,1.211,16.694-1.443,6.333-5.439,14.86-5,26.7-1.327.664-10.8.573-13.313-1.247-1.758-1.27-.552-2.8-.363-8.041.743-20.568.195-26.975,1.67-30.975.447-1.212.843-2.186,1.092-2.786,2.707-1.365,12.83-1.823,14.7-.347" transform="translate(-737.907 -1569.419)" fill="#fff"/>
        </g>
      </g>
      <g id="Raggruppa_31159" data-name="Raggruppa 31159" transform="translate(83.854 159.505)">
        <g id="Raggruppa_31158" data-name="Raggruppa 31158" clip-path="url(#clip-path-5)">
          <rect id="Rettangolo_165371" data-name="Rettangolo 165371" width="17.257" height="18.642" transform="translate(-2.374 0.279) rotate(-7.4)" fill="url(#linear-gradient)"/>
        </g>
      </g>
      <g id="Raggruppa_31161" data-name="Raggruppa 31161" transform="translate(0)">
        <g id="Raggruppa_31160" data-name="Raggruppa 31160" clip-path="url(#clip-path)">
          <path id="Tracciato_108128" data-name="Tracciato 108128" d="M848.447,1519.75a5.1,5.1,0,0,1,3.9,1.119c2.773,2.053,3.093,5.844,3.261,7.843.209,2.479.381,4.524-.909,6.336-1.76,2.471-5.311,3.205-8.159,2.3a8.238,8.238,0,0,1-5.664-7.265c-.051-1.812,1.444-3.783,4.434-7.724,1.181-1.557,1.953-2.358,3.133-2.611" transform="translate(-758.156 -1369.923)" fill="#b0655b"/>
          <path id="Tracciato_108129" data-name="Tracciato 108129" d="M838.046,1504.105c.713.748-.155,2.859-.784,3.966-1.829,3.219-4.57,3.1-5.547,5.4-.46,1.082-.642,2.964,1.3,6.288-.253-.166-4.037-2.742-3.989-7.163a8.608,8.608,0,0,1,2.887-6.065c2.013-1.965,5.238-3.365,6.135-2.424" transform="translate(-747.467 -1355.619)" fill="#00020d"/>
          <path id="Tracciato_108130" data-name="Tracciato 108130" d="M908.639,1497.555c1.017-.711,2.525.084,3.1.386,4.723,2.473,4.979,12.99,4.738,13.034-.188.035-.086-6.413-4.347-9.531a8.955,8.955,0,0,0-4.395-1.615,2.833,2.833,0,0,1,.9-2.274" transform="translate(-818.435 -1349.724)" fill="#00020d"/>
          <path id="Tracciato_108131" data-name="Tracciato 108131" d="M653.039,2185.418s-2.7,5.786-2.374,8.055,1.942,3.177,2.805,2.042a37.172,37.172,0,0,0,3.129-8.736c0-1.021-3.561-1.361-3.561-1.361" transform="translate(-586.634 -1970.165)" fill="#b0655b"/>
          <path id="Tracciato_108132" data-name="Tracciato 108132" d="M748.414,1753.868c.315,9.971-1.141,18.193-3.251,22.415h0c-1.2,2.4-2.614,3.511-4.033,2.907-4.263-1.818-6.17.2-7.064-.445-1.916-1.374,1.347-4.412,2.219-12.178.006-.052.012-.1.017-.154.227-2.063.358-3.989.429-6.188l.009-.251,0-.089h0c.022-.747.038-1.526.049-2.354.459-1.4.925-2.816,1.385-4.2,1.793-5.406,3.511-10.414,4.5-12.879,2.763-6.864.35-6.728.35-6.728a6.412,6.412,0,0,0-2.683-.253l-.032,0a23.59,23.59,0,0,1,2.488-1.328,12.829,12.829,0,0,1,4.1-1.564c.806-.072.745,1.561,1.65,2.934,2.332,3.535-.4,11.915-.133,20.355" transform="translate(-661.318 -1560.077)" fill="#fec342"/>
          <path id="Tracciato_108133" data-name="Tracciato 108133" d="M965.23,1748.055a12.583,12.583,0,0,1-.2,1.979v0c-1.133,6.666-6.542,19.964-4.549,34.249.279,2-5.179,3.812-6.858,2.925a1.833,1.833,0,0,1-.766-.767c-1.248-2.279.452-8.448,1.769-20.428,2.346-21.336-2.985-27.644,1.013-26.415.383.117,2.694.442,4.6.809a9.261,9.261,0,0,1,2.521.7c1.2.9,2.143,2.926,2.407,5.442a13.723,13.723,0,0,1,.073,1.5" transform="translate(-858.72 -1568.08)" fill="#fec342"/>
          <path id="Tracciato_108134" data-name="Tracciato 108134" d="M692.051,2221.094s.619,3.086.15,4.122-1.046.7-1.176-.21-.421-3.557-.421-3.557Z" transform="translate(-622.666 -2002.331)" fill="#b0655b"/>
          <path id="Tracciato_108135" data-name="Tracciato 108135" d="M684.631,1765.477c-.573,1.552-1.388,4.029-2.319,6.98v0l0,.006c-.681,2.156-1.424,4.565-2.18,7.052-.46,1.511-1.044,2.977-1.5,4.506-.017.055.086.184.069.239h0c-2.717,9.047-5.21,17.664-5.21,17.664l-.586-.261-.648-.289-3.159-1.408s3.687-27.891,8.008-36.311c1.984-3.866,3.808-5.344,5.2-5.812a3.573,3.573,0,0,1,.52-.135,5.939,5.939,0,0,1,2.4.053s2.176.23-.586,7.713" transform="translate(-603.27 -1584.456)" fill="#fec342"/>
          <path id="Tracciato_108136" data-name="Tracciato 108136" d="M1338.615,1522.293s3.891-2.565,5.351-2.66,2.311.57,2.189,2.185-4.013,3.421-5.715,3.706-1.824-3.23-1.824-3.23" transform="translate(-1206.918 -1369.881)" fill="#b0655b"/>
          <path id="Tracciato_108137" data-name="Tracciato 108137" d="M1342.931,1505.336s6.259-4.055,6.7-3.968,1.112.174.223.784a26.156,26.156,0,0,0-3.226,2.44c-.89.871-4.1.992-4.1.992Z" transform="translate(-1210.452 -1353.421)" fill="#b0655b"/>
          <path id="Tracciato_108138" data-name="Tracciato 108138" d="M1043.874,1544.469a1.166,1.166,0,0,1-.242,1.556c-4.529,3.624-26.011,20.968-27.588,25.126v0c-.32.844-.973.787-1.742.274-1.912-1.273-4.539-5.355-4.539-5.355s-2.465-2.736,1.485-4.546a11.279,11.279,0,0,1,1.758-.617c6.219-1.679,24.024-16.582,27.676-19.677a.772.772,0,0,1,1.141.161l1.751,2.624Z" transform="translate(-909.738 -1389.197)" fill="#fec342"/>
          <path id="Tracciato_108139" data-name="Tracciato 108139" d="M919.331,1642.829l4.9-1.388s.185,1.2-1.665,2.128c-1.69.845-3.237-.74-3.237-.74" transform="translate(-828.889 -1479.712)" fill="#fff"/>
          <path id="Tracciato_108140" data-name="Tracciato 108140" d="M716.065,1896.659c-1.2,2.4-2.614,3.511-4.033,2.906-4.263-1.818-6.17.2-7.064-.445-1.916-1.374,1.347-4.412,2.219-12.178.006-.052.012-.1.017-.155.227-2.063.367-4.24.438-6.439.089-.384.192-.553.328-1.017q-.164.5-.328,1.017l0-.089c-2.717,9.047-5.21,17.663-5.21,17.663l-.586-.261-.648-.289,6.5-19.966,1.378-3.705,3.288-9.613-1.1,4.365v0l0,.006-2.24,8.843s-.793,14.889,0,17.444c.775,2.5,6.782,1.936,7.045,1.91" transform="translate(-632.221 -1680.454)" fill="#ebac26"/>
          <path id="Tracciato_108141" data-name="Tracciato 108141" d="M3404.268,2864.858q-.4,2.594-.8,5.187l4.189.4,1.4-6.384-4.788.8" transform="translate(-3068.606 -2582.034)" fill="#683c36"/>
          <path id="Tracciato_108142" data-name="Tracciato 108142" d="M3673.152,2850.034q.1,3.193.2,6.385l3.392.4.4-8.978-3.99,2.195" transform="translate(-3311.753 -2567.409)" fill="#683c36"/>
          <path id="Tracciato_108143" data-name="Tracciato 108143" d="M3415.352,2128.2c-.893,5.347-1.934,12.1-2.926,19.952-.273,2.159-1.031,8.263-1.862,17.026-.834,8.786-1.763,20.473-2.394,34.583h5.587a93.5,93.5,0,0,0,4.788-17.824c1.29-7.9.667-11.787,2.395-19.154a61.081,61.081,0,0,1,5.292-14.247l7.739,50.944,4.39.4a144.142,144.142,0,0,0,1.2-20.752c-.073-5.189-.36-6.046-.4-11.573-.021-3.05.031-7.858,1.2-21.55.457-5.368,1.1-12.273,2-20.353l-27,2.549" transform="translate(-3072.842 -1916.282)" fill="#1b284a"/>
        </g>
      </g>
      <g id="Raggruppa_31163" data-name="Raggruppa 31163" transform="translate(335.327 209.372)">
        <g id="Raggruppa_31162" data-name="Raggruppa 31162" clip-path="url(#clip-path-7)">
          <path id="Tracciato_108144" data-name="Tracciato 108144" d="M3429.83,2130.977a15.329,15.329,0,0,0,6.384.6c4.875-.612,6.032-3.342,10.375-3.192,2.265.078,4.1.9,6.584,2,2.126.944,3.255,1.461,3.99,2.594,1.418,2.184.35,5.084-.2,6.983-.279.962-.074.458-.2,17.158-.071,9.434-.107,14.151-.2,15.961a154.332,154.332,0,0,1-2,17.956l6.783-2.194q.5-18.754,1-37.508t1-37.508l-28.131,1.6-5.387,15.562" transform="translate(-3427.699 -2114.983)" fill="#091740"/>
          <path id="Tracciato_108145" data-name="Tracciato 108145" d="M3450.677,2343.448l.8-6.584a21.337,21.337,0,0,0-5.387,6.384c-2.32,4.272-2.174,7.745-2.594,13.567a159.033,159.033,0,0,1-2.993,19.951,95.238,95.238,0,0,1-4.589,14.963c2.775,1.406,4.837,1.465,6.384,1,12.188-3.681,8.768-44.92,8.379-49.279" transform="translate(-3433.183 -2316.082)" fill="#091740"/>
        </g>
      </g>
      <g id="Raggruppa_31165" data-name="Raggruppa 31165" transform="translate(0)">
        <g id="Raggruppa_31164" data-name="Raggruppa 31164" clip-path="url(#clip-path)">
          <path id="Tracciato_108147" data-name="Tracciato 108147" d="M3457.875,1716.263a31.074,31.074,0,0,0-2.926,5.587c-.877,2.193-3.142,8.6-.8,26.071.431,3.215,1.152,7.8,2.394,13.3a36.23,36.23,0,0,0,19.42-.532,163.238,163.238,0,0,0-.8-44.427Z" transform="translate(-3113.37 -1547.172)" fill="#fcfeff"/>
        </g>
      </g>
      <g id="Raggruppa_31167" data-name="Raggruppa 31167" transform="translate(345.705 161.522)">
        <g id="Raggruppa_31166" data-name="Raggruppa 31166" clip-path="url(#clip-path-9)">
          <rect id="Rettangolo_165374" data-name="Rettangolo 165374" width="15.406" height="14.239" transform="translate(-1.974 0.329) rotate(-9.462)" fill="url(#linear-gradient-2)"/>
        </g>
      </g>
      <g id="Raggruppa_31169" data-name="Raggruppa 31169" transform="translate(0)">
        <g id="Raggruppa_31168" data-name="Raggruppa 31168" clip-path="url(#clip-path)">
          <path id="Tracciato_108149" data-name="Tracciato 108149" d="M3521.835,1505.047a6.611,6.611,0,0,0-2.645,3.111c-.391.978-.515,2.028-.156,4.512.63,4.349.944,6.523,2.334,7.623a6.743,6.743,0,0,0,7.623,0c2.649-1.891,2.647-5.513,2.645-9.334,0-2.154-.017-3.253-.778-4.356-1.741-2.524-6.121-3.286-9.023-1.556" transform="translate(-3172.608 -1355.896)" fill="#683c36"/>
          <path id="Tracciato_108150" data-name="Tracciato 108150" d="M3569.019,1754.034c-.916.392-1.2,1.946-.931,3.059a3.342,3.342,0,0,0,.931,1.6,44.116,44.116,0,0,1,.961,9.758,52.537,52.537,0,0,1-.961,8.6,18.448,18.448,0,0,1-.8,3.325,2.994,2.994,0,0,0-.384,1.3,1.315,1.315,0,0,0,.046.362.914.914,0,0,0,.075.188l2.017,3.843a.665.665,0,0,0,1.2-.04l1.869-4.229a2.1,2.1,0,0,0,.073-.48c.674-5.232-.9-14.115-.9-14.115-.4-2.25-.922-4.992-1.6-8.114a2.882,2.882,0,0,0,1.6-2.66c-.141-1.645-2.095-2.865-3.192-2.394" transform="translate(-3216.8 -1581.135)" fill="#cc2d3c"/>
          <path id="Tracciato_108151" data-name="Tracciato 108151" d="M3092.428,1378.676c1.244-.909,3.917-.006,6.1,1.36a5.674,5.674,0,0,1-.318-1.748c.012-.583.525-.655.65-.571.366.247.453.87.612,1.281.136.351.735,1.427.875,1.777.131.328.341.614.5.925a1.937,1.937,0,0,1,.132.311,3.638,3.638,0,0,1,.829,1.3c.14.465-1.676.407-1.732.511-.479.882-2.849-.7-3.723-.867-1.373-.255-4.657-.866-4.871-2.479a2.107,2.107,0,0,1,.939-1.8" transform="translate(-2787.311 -1241.91)" fill="#683c36"/>
          <path id="Tracciato_108152" data-name="Tracciato 108152" d="M3718.692,1715.3c1.315-.468,7.866.628,17.466,20.7a7.578,7.578,0,0,1,.741,3.27l.285,17.592-4.789-1.064c-.709-6.739-.9-8.632-1.609-15.371-2.458-2.818-10.557-7.279-12.1-15.549-.155-.833-1.67-8.983,0-9.578" transform="translate(-3352.11 -1546.238)" fill="#b32834"/>
          <path id="Tracciato_108153" data-name="Tracciato 108153" d="M3518.464,1490.1c-.558-.038.561-4.489-2.01-6.578-1.782-1.448-4.7-1.24-6.578-.548a5.222,5.222,0,0,0-2.375,1.462c-2.095,2.455-.4,6.433-.913,6.578-.461.13-2.573-2.861-2.193-6.4a8.231,8.231,0,0,1,3.472-5.847,8.017,8.017,0,0,1,8.405-.183,7.362,7.362,0,0,1,2.558,2.558c2.313,3.919.234,8.994-.365,8.953" transform="translate(-3159.559 -1331.895)" fill="#1b2037"/>
          <path id="Tracciato_108154" data-name="Tracciato 108154" d="M3495.282,1714.366l6.983,3.99-2.594,2.394-6.983-3.791,2.594-2.594" transform="translate(-3149.045 -1545.462)" fill="#f7f2eb"/>
          <path id="Tracciato_108155" data-name="Tracciato 108155" d="M3592.044,1712.672l7.183-4.389,2.194,2.594-7.382,4.788-2-2.993" transform="translate(-3238.625 -1539.977)" fill="#f7f2eb"/>
          <path id="Tracciato_108156" data-name="Tracciato 108156" d="M3181.311,1457.175c-2.385-.632-3.69-.518-6.577-.156-.227.028-9.8-5.075-14.9-9.953-3.65-5.25-6.258-11.975-9.508-17.295l-6.287,1.178c3.344,6.2,5.529,13.806,10.1,20.284.548.778.776,1.723,1.349,2.484,5.24,6.969,9.77,10.823,14.779,16.778a3.418,3.418,0,0,1,.8,2.237c-.042,3.772-.179,11.9-.625,21.674a131.632,131.632,0,0,1-1.59,15.2,2.933,2.933,0,0,0,2.79,3.4c.788.028,1.6.037,2.442.023,1.312-.023,2.562-.1,3.745-.219a2.92,2.92,0,0,0,2.618-2.727c.46-7.385,1-16.457,1.562-26.849.892-16.5,1.556-25.459-.7-26.058" transform="translate(-2834.705 -1288.869)" fill="#cc2d3c"/>
          <path id="Tracciato_108157" data-name="Tracciato 108157" d="M3658.222,1759.825q-.933.178-1.868.355-1.259.239-2.524.473l-.917.17a2.928,2.928,0,0,1-3.455-2.858c-.082-9.718-.682-17.818-1.3-23.915-1.514-14.861-4.826-28.4-.437-27.933,1.85.2,4.264-.91,6.112.532a7.936,7.936,0,0,1,2.4,3.724c.328.946.624,1.958.893,3.015,2.531,9.941,2.6,23.854,2.6,23.854.023,4.756.2,11.378.863,19.466a2.927,2.927,0,0,1-2.364,3.115" transform="translate(-3286.847 -1537.825)" fill="#cc2d3c"/>
          <path id="Tracciato_108158" data-name="Tracciato 108158" d="M3740.423,1818.4q-.932.179-1.867.355s2.11-20.1.535-30.248-2.391-17.644-2.391-17.644l2.625,1.1c2.531,9.941,2.6,23.854,2.6,23.854.024,4.756.2,11.378.863,19.466a2.926,2.926,0,0,1-2.365,3.115" transform="translate(-3369.048 -1596.397)" fill="#b32834"/>
          <path id="Tracciato_108159" data-name="Tracciato 108159" d="M3313.618,2920.83c-.99.025-1.407.824-2.264,1.456-2.519,1.855-5.415-.257-7.094,1.6-.085.094-.867.978-.621,1.774.131.423.667,1.192,6.388,1.558,6.664.427,7.46-.519,7.711-.938a7.617,7.617,0,0,0,.355-2.749c.073-1.459.105-2.294-.355-2.572-.485-.292-.925.388-2.128.355-.988-.027-1.22-.5-1.992-.481" transform="translate(-2978.554 -2633.217)" fill="#091740"/>
          <path id="Tracciato_108160" data-name="Tracciato 108160" d="M3650.735,2924.169c-.6.446-.521.889-1.217,2.645-.99,2.5-1.716,3-1.4,3.591.157.293.51.5,3.791.6,3.365.1,3.75-.1,3.99-.4.6-.749.2-2-.4-3.791-.465-1.379-.7-2.069-1.4-2.556a3.06,3.06,0,0,0-3.37-.089" transform="translate(-3289.116 -2635.809)" fill="#091740"/>
        </g>
      </g>
      <g id="Raggruppa_31171" data-name="Raggruppa 31171" transform="translate(350.035 161.971)">
        <g id="Raggruppa_31170" data-name="Raggruppa 31170" clip-path="url(#clip-path-11)">
          <rect id="Rettangolo_165376" data-name="Rettangolo 165376" width="4.93" height="2.903" transform="translate(0)" fill="url(#linear-gradient-3)"/>
        </g>
      </g>
      <g id="Raggruppa_31185" data-name="Raggruppa 31185" transform="translate(0)">
        <g id="Raggruppa_31184" data-name="Raggruppa 31184" clip-path="url(#clip-path)">
          <path id="Tracciato_108162" data-name="Tracciato 108162" d="M3717.871,1600.183l18.382,107.6,10.41-1.778-18.382-107.6c-.594-3.477-3.407-5.9-6.281-5.408a4.851,4.851,0,0,0-3.364,2.474,7.091,7.091,0,0,0-.765,4.712" transform="translate(-3351.971 -1435.977)" fill="#30c4d9"/>
          <g id="Raggruppa_31174" data-name="Raggruppa 31174" transform="translate(370.551 191.431)" opacity="0.2">
            <g id="Raggruppa_31173" data-name="Raggruppa 31173">
              <g id="Raggruppa_31172" data-name="Raggruppa 31172" clip-path="url(#clip-path-13)">
                <path id="Tracciato_108163" data-name="Tracciato 108163" d="M3766.159,1943.31l2.734,16,12.561,10.816-2.734-16Z" transform="translate(-3766.159 -1943.31)" fill="#fff"/>
              </g>
            </g>
          </g>
          <g id="Raggruppa_31177" data-name="Raggruppa 31177" transform="translate(374.854 216.619)" opacity="0.2">
            <g id="Raggruppa_31176" data-name="Raggruppa 31176">
              <g id="Raggruppa_31175" data-name="Raggruppa 31175" clip-path="url(#clip-path-14)">
                <path id="Tracciato_108164" data-name="Tracciato 108164" d="M3809.894,2199.306l1.85,10.831,12.561,10.816-1.85-10.831Z" transform="translate(-3809.894 -2199.306)" fill="#fff"/>
              </g>
            </g>
          </g>
          <g id="Raggruppa_31180" data-name="Raggruppa 31180" transform="translate(367.151 171.536)" opacity="0.2">
            <g id="Raggruppa_31179" data-name="Raggruppa 31179">
              <g id="Raggruppa_31178" data-name="Raggruppa 31178" clip-path="url(#clip-path-15)">
                <path id="Tracciato_108165" data-name="Tracciato 108165" d="M3731.615,1741.11l1.85,10.831,12.561,10.816-1.85-10.831Z" transform="translate(-3731.615 -1741.11)" fill="#fff"/>
              </g>
            </g>
          </g>
          <g id="Raggruppa_31183" data-name="Raggruppa 31183" transform="translate(378.689 239.069)" opacity="0.2">
            <g id="Raggruppa_31182" data-name="Raggruppa 31182">
              <g id="Raggruppa_31181" data-name="Raggruppa 31181" clip-path="url(#clip-path-16)">
                <path id="Tracciato_108166" data-name="Tracciato 108166" d="M3848.875,2427.476l1.133,6.633,12.561,10.815-1.133-6.633Z" transform="translate(-3848.875 -2427.476)" fill="#fff"/>
              </g>
            </g>
          </g>
          <path id="Tracciato_108167" data-name="Tracciato 108167" d="M3910.916,2742.974l5.2-.889.74,21.852-2.3.392-2.3.393-6.557-20.858Z" transform="translate(-3521.429 -2472.061)" fill="#1091a3"/>
          <path id="Tracciato_108168" data-name="Tracciato 108168" d="M3979.847,2968.441l.882-.151a1.313,1.313,0,0,0,1.073-1.515l-.278-1.626-3.47.593.278,1.626a1.313,1.313,0,0,0,1.515,1.073" transform="translate(-3586.654 -2673.176)" fill="#091740"/>
          <path id="Tracciato_108169" data-name="Tracciato 108169" d="M3719.5,1691.163l13.039-2.228a.886.886,0,0,0,.724-1.022l-.263-1.54a.886.886,0,0,0-1.022-.724l-13.039,2.228a.886.886,0,0,0-.724,1.022l.263,1.54a.886.886,0,0,0,1.022.724" transform="translate(-3352.373 -1519.559)" fill="#1091a3"/>
          <path id="Tracciato_108170" data-name="Tracciato 108170" d="M3852.206,1648.679l6.228,40.639a.34.34,0,0,1-.671.115l-7.617-40.4a1.045,1.045,0,1,1,2.055-.387c0,.01,0,.025.006.035" transform="translate(-3471.315 -1485.438)" fill="#1091a3"/>
          <path id="Tracciato_108171" data-name="Tracciato 108171" d="M3880.376,2092.383a1.447,1.447,0,0,0-1.265-.041,1.069,1.069,0,0,0-.422.923,4.624,4.624,0,0,0,.2,1.038c.19.771.238,1.568.383,2.349a4.352,4.352,0,0,0,.933,2.156.831.831,0,0,0,.343.253,1.785,1.785,0,0,0,.437.035c.417.028.869.292,1.221.066.291-.186.318-.593.315-.937a3.416,3.416,0,0,0-.11-1.006,7.758,7.758,0,0,0-.331-.742c-.567-1.308-.1-3.492-1.7-4.094" transform="translate(-3497.067 -1886.129)" fill="#683c36"/>
          <path id="Tracciato_108172" data-name="Tracciato 108172" d="M1779.778,2822.53c0,1.938.2,5.088.2,7.026,1.309.31,2.39.585,3.726-.282q.218-4.07.436-8.139l-4.363,1.4" transform="translate(-1604.674 -2543.332)" fill="#f9bab5"/>
          <path id="Tracciato_108173" data-name="Tracciato 108173" d="M1933.139,2826.369q-.109,3.023-.218,6.046a3.612,3.612,0,0,1-2.767,1.071,3.316,3.316,0,0,1-1.6-.606q-.109-3.6-.218-7.209l4.8.7" transform="translate(-1738.617 -2547.422)" fill="#f9bab5"/>
          <path id="Tracciato_108174" data-name="Tracciato 108174" d="M1773.92,2168.18c-.312,3.747-.809,8.6-1.636,14.254a58.29,58.29,0,0,1,1.472,14.857c-.052,1.438-.161,2.768-.328,6.424-.188,4.163-.279,7.569-.327,9.837a8.375,8.375,0,0,1-2.618.4,8.4,8.4,0,0,1-2.373-.368,9.093,9.093,0,0,1-1.553-.636c-1.074-11.973-1.993-20.141-2.655-25.507-.113-.914-.261-2.089-.454-3.8-.883-7.812-1.292-14.114-1.5-18.293,0-.077-.007-.152-.011-.227l-.012.046a75.6,75.6,0,0,0-2.079,14.258c-.275,5.558.188,8.687.328,13.451a111.884,111.884,0,0,1-1.636,22.175,12.055,12.055,0,0,1-2.945,0,12.315,12.315,0,0,1-2.188-.475l-.083-.027h0c-.3-.1-.578-.2-.834-.3-.056-1.214-.134-3.322-.235-5.649-.073-1.664-.158-3.44-.256-5.083-.272-4.549-.444-6.69-.653-10.038,0,0-.4-6.33-.655-13.652-.432-12.322.314-28.341.6-33.978.02-.362.036-.683.051-.955l17.382-.307,5.36-.094q.055.583.109,1.246c.015.182.031.368.045.559.083,1.084.161,2.307.223,3.65.031.675.057,1.381.078,2.115q.022.81.035,1.666a137.079,137.079,0,0,1-.653,14.455" transform="translate(-1578.325 -1933.265)" fill="#1a2749"/>
          <path id="Tracciato_108175" data-name="Tracciato 108175" d="M1827.406,2883.256c.719.322.582,2.327.491,3.662-.124,1.814-.194,2.834-.753,3.683-.858,1.3-2.29,1.322-6.469,1.745-6.6.668-8.422,1.167-9.2-.083a2.648,2.648,0,0,1-.078-2.409c1.119-2.279,5.121-.108,8.184-2.825,1.477-1.309,2.242-3.318,3.4-3.076.5.1.534.514,1.116.666,1.416.371,2.5-1.724,3.3-1.364" transform="translate(-1632.957 -2599.303)" fill="#152243"/>
          <path id="Tracciato_108176" data-name="Tracciato 108176" d="M1680.885,2891.8c.659.359.4,2.243.22,3.5-.238,1.7-.372,2.664-.956,3.424-.9,1.167-2.252,1.076-6.229,1.16-6.284.132-8.036.467-8.685-.773a2.509,2.509,0,0,1,.086-2.283c1.209-2.069,4.846.284,7.921-2.051,1.482-1.126,2.339-2.965,3.422-2.649.467.136.471.526,1.01.714,1.314.458,2.475-1.441,3.211-1.04" transform="translate(-1501.189 -2606.993)" fill="#152243"/>
          <path id="Tracciato_108177" data-name="Tracciato 108177" d="M1774.538,2152.925c-4.639.094-18.563.338-21.109-.032,0,0-1.441,21.687-1.441,24.788,0,2.87,1.234,33.224,1.418,37.759.016.368.024.566.024.566l-.107-.592-1.073-5.95c-.073-1.664-.158-3.44-.256-5.083-.272-4.549-.444-6.69-.653-10.038,0,0-.4-6.33-.655-13.652-.432-12.322.314-28.341.6-33.978.02-.362.036-.683.051-.955l17.382-.307,5.47,1.151c.015.182.031.368.045.559.083,1.084.161,2.307.223,3.65.031.675.057,1.381.078,2.115" transform="translate(-1578.325 -1934.13)" fill="#07153b"/>
          <path id="Tracciato_108178" data-name="Tracciato 108178" d="M1872.53,2404.7a9.1,9.1,0,0,1-1.554-.636c-1.074-11.973-1.992-20.141-2.655-25.507-.113-.914-.261-2.089-.453-3.8-.883-7.812-1.292-14.114-1.5-18.293Z" transform="translate(-1682.746 -2124.378)" fill="#07153b"/>
          <path id="Tracciato_108179" data-name="Tracciato 108179" d="M1801.151,1479.445a7.467,7.467,0,0,1,2.5-3.251c2.721-1.922,6.042-1,6.771-.776,4.562,1.4,6.026,6.226,6.151,6.663a2.841,2.841,0,0,1,2.941-.187,2.973,2.973,0,0,1,.657,4.02,3.243,3.243,0,0,1-3.559,1.287,5.206,5.206,0,0,1-3.106,4.736c-2.961,1.493-6.865,2.694-8.178,2.659a10.171,10.171,0,0,1-4.309-4.2c-2.347-4.454-.186-10.208.138-10.949" transform="translate(-1622.846 -1329.648)" fill="#1b2037"/>
          <path id="Tracciato_108180" data-name="Tracciato 108180" d="M1785.459,1712.146c-2.819,1.973-.811,8.781.425,16.155a105.3,105.3,0,0,1,.85,27.633c1.294.743,5.444,2.955,8.077,1.275,1.839-1.173,2.011-3.651,2.125-8.927.451-20.693-1.219-27.472-2.467-31.575-.378-1.243-.719-2.244-.934-2.86-2.638-1.528-6.115-3.074-8.077-1.7" transform="translate(-1608.506 -1542.981)" fill="#fff"/>
          <path id="Tracciato_108181" data-name="Tracciato 108181" d="M1801.193,1599.654a10.547,10.547,0,0,1,.85,3.4,5.329,5.329,0,0,1-.425,3.4c-.977,1.551-2.788,1.265-2.975,2.125-.249,1.143,2.609,3.2,5.526,3.826,4.571.978,8.468-1.628,9.87-2.675a6.817,6.817,0,0,1-4.557-2.851c-.344-.551-.689-1.352-.85-4.888-.1-2.216-.065-4.1,0-5.526l-7.439,3.188" transform="translate(-1621.669 -1439.162)" fill="#f9a59f"/>
          <path id="Tracciato_108182" data-name="Tracciato 108182" d="M1795.4,1507.934a4.825,4.825,0,0,0-3.425,1.6c-2.234,2.266-1.93,5.709-1.77,7.525.2,2.251.363,4.109,1.839,5.533,2.013,1.941,5.4,2.05,7.89.8a7.443,7.443,0,0,0,4.078-7.379c-.239-1.631-1.929-3.164-5.31-6.231-1.335-1.212-2.174-1.809-3.3-1.854" transform="translate(-1613.973 -1359.339)" fill="#f9bab5"/>
          <path id="Tracciato_108183" data-name="Tracciato 108183" d="M1400.725,1752.13s-5.658-2.731-6.1-4.167-.562-2.584,1.687-2.412,4.942.6,5.859,1.881a30.62,30.62,0,0,1,2.1,3.862l-1.919,1.661Z" transform="translate(-1257.183 -1573.563)" fill="#f9bab5"/>
          <path id="Tracciato_108184" data-name="Tracciato 108184" d="M1483.823,1725.186c-.255,2.564-2.12,5.54-4.712,8.354q-.614.665-1.277,1.316l-.008,0c-4.037,3.962-9.3,7.391-13.142,8.57-1.606.492-2.74-.16-4.016-1.255a62.188,62.188,0,0,1-6.632-6.917l-.005,0c-1.779-2.121-3.453-4.315-4.781-6.247l.43-.3,3.476-2.41c2.846,2.786,7.313,6.5,10.682,9.392,1.468-1.31,4.828-4.083,7.347-6.641,5.152-5.235,6.311-7.974,9.912-9.3l0,0a3.067,3.067,0,0,1,.786-.19c1.426-.14,2.177,3.2,1.937,5.625" transform="translate(-1306.667 -1550.142)" fill="#1561d6"/>
          <path id="Tracciato_108185" data-name="Tracciato 108185" d="M1731.646,1760.782c-1.347.49-3.089-.522-4.4-1.741a10.122,10.122,0,0,1-1.13-1.235c-1.939-2.536-2.565-3.344-1.566-9.323,1.919-11.479.889-12.978,1.073-19.587.011-.43.028-.883.051-1.362.006-.109.012-.22.018-.333a34.51,34.51,0,0,1,.85-9.564,5.225,5.225,0,0,1,2.266-3.8l.079-.041,0,0c.876-.431,2.631-.486,3.191-.785,1.92-1.025,1.549,11.36,1.475,26.523-.067,13.927.79,20.269-1.913,21.253" transform="translate(-1554.46 -1544.182)" fill="#1561d6"/>
          <path id="Tracciato_108186" data-name="Tracciato 108186" d="M1837.868,1492.156c-.54.78.594,2.536,1.349,3.43,2.2,2.6,4.7,2.07,5.969,3.978.595.9,1.061,2.555-.2,5.83.207-.187,3.291-3.078,2.548-7.029a7.836,7.836,0,0,0-3.621-4.985c-2.167-1.448-5.363-2.2-6.042-1.224" transform="translate(-1656.921 -1344.717)" fill="#1b2037"/>
          <path id="Tracciato_108187" data-name="Tracciato 108187" d="M1790.785,1488.437c-1.051-.479-2.316.465-2.8.824-3.966,2.943-2.542,12.4-2.313,12.4.179,0-.934-5.756,2.5-9.2a8.465,8.465,0,0,1,3.8-2.125,2.554,2.554,0,0,0-1.19-1.9" transform="translate(-1609.595 -1341.643)" fill="#1b2037"/>
          <path id="Tracciato_108188" data-name="Tracciato 108188" d="M1889.672,1761.219c-.935.592-3.307.6-7.618.233-4.451-.375-4.741.25-5.739-.219-1.106-.52-1.589-1.665-1.751-3.4-.278-2.97.381-7.67.459-13.928.01-.7.012-1.418,0-2.156-.025-2.306-.14-4.8-.411-7.476-.027-.259-1.647-16.208,1.274-18.193a22.7,22.7,0,0,1,1.686-1.709c1.431-1.214.24-1.921,1.579-1.145,1.656.96,7.418,2.338,8.077,3.04h0c1.51,1.612,2.36,6.425,1.939,13.168,0,.018,0,.037,0,.057a76.683,76.683,0,0,1-2.033,12.965c-1.968,8.17,3.337,18.257,2.536,18.765" transform="translate(-1689.755 -1544.141)" fill="#1561d6"/>
          <path id="Tracciato_108189" data-name="Tracciato 108189" d="M2007.138,1774.385a93.246,93.246,0,0,1-10.512,6.624c-.729.376-1.49.746-2.293,1.113-.441-1.161-.839-2.347-1.224-3.517-.045-.136-.089-.272-.133-.408h0c.416-.309.794-.615,1.142-.92a18.458,18.458,0,0,0,1.677-1.674c1.661-1.871,2.77-3.738,5.262-5.776-.555-1.316-3.688-5.986-6.2-10.52l-.026-.047-.005-.009A28.618,28.618,0,0,1,1991.7,1752c-.407-2.184-.813-6.794,1.222-5.914h0c5.611,2.428,14.483,14.606,16.2,24.828.322,1.913-.463,2.423-1.993,3.475" transform="translate(-1795.448 -1573.958)" fill="#1561d6"/>
          <path id="Tracciato_108190" data-name="Tracciato 108190" d="M1479.5,1831.906a78.97,78.97,0,0,0-.041,16.965,10.115,10.115,0,0,1-1.131-1.235c-1.939-2.536-2.565-3.344-1.566-9.323,1.919-11.479.889-12.978,1.073-19.587l-.008,0c-4.037,3.962-9.3,7.391-13.142,8.57-1.606.492-2.74-.161-4.016-1.255a62.2,62.2,0,0,1-6.632-6.917l-.005-.005c-1.779-2.121-3.453-4.316-4.781-6.247l.43-.3c2.718,3.8,12.042,13.128,13.616,14.177s10.43-6.265,12.072-7.544a20.91,20.91,0,0,1,2.518-1.849c.555-.291,1.006-.355,1.226.045a1.427,1.427,0,0,1,.142.606c.116,2.051,1.36,6.117.247,13.89" transform="translate(-1306.667 -1634.012)" fill="#094cb3"/>
          <path id="Tracciato_108191" data-name="Tracciato 108191" d="M1950.208,2082.775a3.182,3.182,0,0,1,.66-2.381,6.493,6.493,0,0,1,2.46-2.136,4.614,4.614,0,0,1,1.764-.51,2.543,2.543,0,0,1,2.118.739,2.031,2.031,0,0,1,.381,2.373c-1.182,1.964-6.725,3.62-7.382,1.916" transform="translate(-1758.273 -1873.082)" fill="#f9bab5"/>
          <path id="Tracciato_108192" data-name="Tracciato 108192" d="M1818.745,1627.864l-4.545-.794s.922,4.069,4.545.794" transform="translate(-1635.709 -1466.755)" fill="#fff"/>
          <path id="Tracciato_108193" data-name="Tracciato 108193" d="M1441.424,1736.079s-1.645-3.821-1.181-4.149,2.76,2.575,2.771,3.493-1.591.656-1.591.656" transform="translate(-1298.473 -1561.275)" fill="#f9bab5"/>
          <path id="Tracciato_108194" data-name="Tracciato 108194" d="M1958.245,2075.5s-4.7-1.06-4.8-.3,1.995.911,2.511,1.108,2.288-.812,2.288-.812" transform="translate(-1761.251 -1870.547)" fill="#f9bab5"/>
          <path id="Tracciato_108195" data-name="Tracciato 108195" d="M349.983,308.089a4.873,4.873,0,0,1,2.007.352q.241,0,.5,0c4.531.069,5.471-1.442,6-3.229a8.685,8.685,0,0,1-.115-1.463c.025-4.476,3.432-8.243,7.578-8.378a6.851,6.851,0,0,1,4.365,1.38,13.82,13.82,0,0,0,1.78.949,2.394,2.394,0,0,0,3.07-.611c.607-6.584,5.752-11.907,11.98-12.136a10.9,10.9,0,0,1,5.7,1.355,11.372,11.372,0,0,1,6.416,7.025c.144.38.643,3.716,2.023,5.551a2.089,2.089,0,0,0,2.54.67,9.839,9.839,0,0,1,3.609-.832,9.32,9.32,0,0,1,6.6,2.368,7.928,7.928,0,0,1,2.751,2.43c2.259,3.428,2.572,6.95,5.091,5.831.045-.02.09-.039.135-.057a3.527,3.527,0,0,1,1.514-.259l.05,0c2.953-.109,5.333,2.462,5.315,5.742s-2.427,6.027-5.38,6.135c-.162.006-.322,0-.48-.006a3.54,3.54,0,0,1-.618.03c-38.157-1.488-67.293-1.4-72.156-1.32-.112.012-.225.02-.338.024a5.3,5.3,0,0,1-5.316-5.624,5.873,5.873,0,0,1,5.387-5.924" transform="translate(-310.703 -256.686)" fill="#ebf7ff"/>
          <path id="Tracciato_108196" data-name="Tracciato 108196" d="M3896.149,389.741a3.654,3.654,0,0,0-1.515.2q-.18-.011-.371-.016c-3.4-.1-4.05-1.263-4.382-2.62a6.512,6.512,0,0,0,.135-1.092,6.18,6.18,0,0,0-5.395-6.53,5.137,5.137,0,0,0-3.316.887,10.323,10.323,0,0,1-1.365.652,1.8,1.8,0,0,1-2.279-.561c-.234-4.952-3.909-9.111-8.566-9.492a8.17,8.17,0,0,0-4.318.823,8.526,8.526,0,0,0-5.041,5.047,12.577,12.577,0,0,1-1.7,4.09,1.566,1.566,0,0,1-1.925.417,7.38,7.38,0,0,0-2.675-.744,6.989,6.989,0,0,0-5.019,1.553,5.942,5.942,0,0,0-2.142,1.728c-1.807,2.492-2.16,5.119-4.008,4.2l-.1-.047a2.643,2.643,0,0,0-1.125-.245l-.038,0a4.039,4.039,0,0,0-4.174,4.123,4.471,4.471,0,0,0,3.824,4.776c.121.01.241.013.36.011a2.639,2.639,0,0,0,.461.043c28.63.165,50.45,1.209,54.09,1.431.083.012.168.023.252.029a3.976,3.976,0,0,0,4.17-4.034,4.4,4.4,0,0,0-3.837-4.618" transform="translate(-3459.32 -334.398)" fill="#d4ecff"/>
          <path id="Tracciato_108197" data-name="Tracciato 108197" d="M262.839,1073.945a2.5,2.5,0,0,1,1.029.18q.124,0,.254,0c2.322.035,2.8-.739,3.073-1.655a4.46,4.46,0,0,1-.059-.75,4.225,4.225,0,0,1,3.884-4.294,3.511,3.511,0,0,1,2.237.707,7.069,7.069,0,0,0,.912.487,1.227,1.227,0,0,0,1.573-.313,6.68,6.68,0,0,1,6.14-6.22,5.585,5.585,0,0,1,2.924.694,5.828,5.828,0,0,1,3.288,3.6,8.594,8.594,0,0,0,1.037,2.845,1.07,1.07,0,0,0,1.3.344,5.045,5.045,0,0,1,1.85-.427,4.777,4.777,0,0,1,3.38,1.214,4.063,4.063,0,0,1,1.41,1.246c1.158,1.757,1.318,3.562,2.609,2.989l.069-.029a1.806,1.806,0,0,1,.776-.133h.026a2.761,2.761,0,0,1,2.724,2.943,3.057,3.057,0,0,1-2.758,3.145q-.124,0-.246,0a1.832,1.832,0,0,1-.317.016c-19.557-.763-34.491-.717-36.983-.677-.057.006-.115.01-.173.012a2.718,2.718,0,0,1-2.725-2.882,3.01,3.01,0,0,1,2.761-3.036" transform="translate(-234.501 -957.358)" fill="#d4ecff"/>
          <path id="Tracciato_108198" data-name="Tracciato 108198" d="M4344.518,1153.945a2.5,2.5,0,0,0-1.029.18c-.083,0-.167,0-.254,0-2.322.035-2.8-.739-3.073-1.655a4.44,4.44,0,0,0,.059-.75,4.225,4.225,0,0,0-3.884-4.294,3.512,3.512,0,0,0-2.237.707,7.083,7.083,0,0,1-.913.487,1.227,1.227,0,0,1-1.573-.313,6.68,6.68,0,0,0-6.14-6.22,5.585,5.585,0,0,0-2.924.694,5.828,5.828,0,0,0-3.289,3.6,8.587,8.587,0,0,1-1.037,2.845,1.071,1.071,0,0,1-1.3.344,5.044,5.044,0,0,0-1.85-.427,4.777,4.777,0,0,0-3.38,1.214,4.064,4.064,0,0,0-1.41,1.246c-1.158,1.757-1.318,3.562-2.609,2.989l-.069-.029a1.806,1.806,0,0,0-.776-.133h-.025a2.761,2.761,0,0,0-2.725,2.943,3.057,3.057,0,0,0,2.758,3.145c.083,0,.165,0,.246,0a1.836,1.836,0,0,0,.317.016c19.557-.763,34.491-.717,36.983-.677.058.006.115.01.174.012a2.718,2.718,0,0,0,2.724-2.882,3.01,3.01,0,0,0-2.761-3.036" transform="translate(-3880.599 -1029.487)" fill="#ebf7ff"/>
        </g>
      </g>
    </g>
  </g>
</svg>
