<svg xmlns="http://www.w3.org/2000/svg" xmlns:xlink="http://www.w3.org/1999/xlink" width="384" height="257" viewBox="0 0 384 257">
  <defs>
    <clipPath id="clip-path">
      <rect id="Rettangolo_166436" data-name="Rettangolo 166436" width="384" height="257" transform="translate(-0.205 0)" fill="none"/>
    </clipPath>
  </defs>
  <g id="Raggruppa_33038" data-name="Raggruppa 33038" transform="translate(-0.295 0.783)">
    <g id="Raggruppa_33037" data-name="Raggruppa 33037" transform="translate(0.5 -0.783)">
      <g id="Raggruppa_33036" data-name="Raggruppa 33036" transform="translate(0 0)" clip-path="url(#clip-path)">
        <path id="Tracciato_110444" data-name="Tracciato 110444" d="M1514.755,817.546c2.126-4.119-16.91-36.935-17.215-45.224-.918-24.878,29.078-25.076,31.7-45.394,2.349-18.208-28.194-40.188-9.3-57.41,16.173-14.744,34.183-8.6,53.063-13.685,11.259-3.03,12.121-13.434,21.019-19.359,19.279-12.84,61.366.391,72.359,19.025,10.542,17.872-12.437,33.615-6.546,50.734,4.736,13.766,19.813,20.553,20.673,36.382.684,12.6-12.061,21.182-10.337,33.712,2.334,16.962,32.789,21.268,8.958,41.055" transform="translate(-1402.263 -590.606)" fill="#e5f2ff"/>
        <path id="Tracciato_110445" data-name="Tracciato 110445" d="M1770.605,1842.059a.381.381,0,0,1,.381.381v3.051a.381.381,0,0,1-.762,0v-3.051a.381.381,0,0,1,.381-.381" transform="translate(-1657.527 -1723.865)" fill="#e5f2ff"/>
        <path id="Tracciato_110446" data-name="Tracciato 110446" d="M1772.955,1995.75a.381.381,0,0,0,.381-.381v-3.051a.38.38,0,1,0-.76,0v3.051a.38.38,0,0,0,.379.381" transform="translate(-1659.728 -1864.158)" fill="#e5f2ff"/>
        <path id="Tracciato_110447" data-name="Tracciato 110447" d="M1809.457,1870.017a.38.38,0,0,1,.02.538l-2.071,2.24a.381.381,0,0,1-.559-.517l2.071-2.24a.382.382,0,0,1,.539-.021" transform="translate(-1691.712 -1749.941)" fill="#e5f2ff"/>
        <path id="Tracciato_110448" data-name="Tracciato 110448" d="M1703.76,1868.143a.38.38,0,0,0-.02.538l2.071,2.24a.381.381,0,1,0,.559-.517l-2.071-2.24a.382.382,0,0,0-.539-.021" transform="translate(-1595.2 -1748.187)" fill="#e5f2ff"/>
        <path id="Tracciato_110449" data-name="Tracciato 110449" d="M1811.8,1979.659a.382.382,0,0,0,.02-.538l-2.071-2.24a.381.381,0,1,0-.559.517l2.071,2.24a.382.382,0,0,0,.539.021" transform="translate(-1693.91 -1849.95)" fill="#e5f2ff"/>
        <path id="Tracciato_110450" data-name="Tracciato 110450" d="M1701.422,1977.785a.382.382,0,0,1-.02-.538l2.071-2.24a.381.381,0,1,1,.559.517l-2.071,2.24a.382.382,0,0,1-.539.021" transform="translate(-1593.011 -1848.196)" fill="#e5f2ff"/>
        <path id="Tracciato_110451" data-name="Tracciato 110451" d="M1827.108,1941.217a.381.381,0,0,1-.381.381h-3.048a.381.381,0,0,1,0-.761h3.051a.38.38,0,0,1,.381.38" transform="translate(-1707.205 -1816.325)" fill="#e5f2ff"/>
        <path id="Tracciato_110452" data-name="Tracciato 110452" d="M1671.8,1939.344a.381.381,0,0,0,.381.381l3.051,0a.381.381,0,1,0,0-.761h-3.051a.381.381,0,0,0-.381.381" transform="translate(-1565.397 -1814.572)" fill="#e5f2ff"/>
        <path id="Tracciato_110453" data-name="Tracciato 110453" d="M3965.153,526.623a.38.38,0,0,1,.381.381v3.051a.381.381,0,0,1-.762,0V527a.38.38,0,0,1,.381-.381" transform="translate(-3711.715 -492.562)" fill="#e5f2ff"/>
        <path id="Tracciato_110454" data-name="Tracciato 110454" d="M3967.505,680.311a.381.381,0,0,0,.381-.381V676.88a.381.381,0,0,0-.762,0v3.051a.381.381,0,0,0,.381.381" transform="translate(-3713.917 -632.853)" fill="#e5f2ff"/>
        <path id="Tracciato_110455" data-name="Tracciato 110455" d="M4004.02,554.58a.38.38,0,0,1,.022.538l-2.073,2.24a.381.381,0,0,1-.559-.517l2.073-2.24a.38.38,0,0,1,.537-.021" transform="translate(-3745.916 -518.636)" fill="#e5f2ff"/>
        <path id="Tracciato_110456" data-name="Tracciato 110456" d="M3898.322,552.707a.382.382,0,0,0-.02.538l2.07,2.24a.381.381,0,1,0,.56-.517l-2.071-2.24a.382.382,0,0,0-.539-.021" transform="translate(-3649.402 -516.883)" fill="#e5f2ff"/>
        <path id="Tracciato_110457" data-name="Tracciato 110457" d="M4006.357,664.222a.382.382,0,0,0,.023-.538l-2.074-2.24a.381.381,0,0,0-.559.517l2.073,2.24a.379.379,0,0,0,.537.021" transform="translate(-3748.103 -618.646)" fill="#e5f2ff"/>
        <path id="Tracciato_110458" data-name="Tracciato 110458" d="M3895.977,662.348a.379.379,0,0,1-.023-.538l2.071-2.24a.381.381,0,1,1,.559.517l-2.071,2.24a.379.379,0,0,1-.536.021" transform="translate(-3647.204 -616.892)" fill="#e5f2ff"/>
        <path id="Tracciato_110459" data-name="Tracciato 110459" d="M4021.66,625.782a.381.381,0,0,1-.382.381l-3.05,0a.381.381,0,1,1,0-.761l3.05,0a.384.384,0,0,1,.382.381" transform="translate(-3761.395 -585.023)" fill="#e5f2ff"/>
        <path id="Tracciato_110460" data-name="Tracciato 110460" d="M3866.347,623.908a.381.381,0,0,0,.381.381l3.051,0a.381.381,0,1,0,0-.761l-3.051,0a.38.38,0,0,0-.381.38" transform="translate(-3619.585 -583.269)" fill="#e5f2ff"/>
        <path id="Tracciato_110461" data-name="Tracciato 110461" d="M4327.494,2743.616a.382.382,0,0,1,.382.381v3.051a.381.381,0,0,1-.763,0V2744a.38.38,0,0,1,.381-.381" transform="translate(-4050.882 -2567.761)" fill="#e5f2ff"/>
        <path id="Tracciato_110462" data-name="Tracciato 110462" d="M4329.846,2897.308a.38.38,0,0,0,.378-.381v-3.051a.38.38,0,1,0-.76,0v3.051a.381.381,0,0,0,.381.381" transform="translate(-4053.083 -2708.054)" fill="#e5f2ff"/>
        <path id="Tracciato_110463" data-name="Tracciato 110463" d="M4366.346,2771.575a.38.38,0,0,1,.023.538l-2.073,2.24a.381.381,0,0,1-.56-.517l2.073-2.24a.379.379,0,0,1,.537-.021" transform="translate(-4085.067 -2593.837)" fill="#e5f2ff"/>
        <path id="Tracciato_110464" data-name="Tracciato 110464" d="M4260.663,2769.7a.381.381,0,0,0-.02.538l2.07,2.24a.381.381,0,1,0,.559-.517l-2.071-2.24a.382.382,0,0,0-.539-.021" transform="translate(-3988.567 -2592.083)" fill="#e5f2ff"/>
        <path id="Tracciato_110465" data-name="Tracciato 110465" d="M4368.7,2881.216a.379.379,0,0,0,.021-.538l-2.071-2.24a.381.381,0,0,0-.559.517l2.071,2.24a.38.38,0,0,0,.538.021" transform="translate(-4087.269 -2693.845)" fill="#e5f2ff"/>
        <path id="Tracciato_110466" data-name="Tracciato 110466" d="M4258.311,2879.343a.382.382,0,0,1-.02-.538l2.071-2.24a.381.381,0,1,1,.559.517l-2.071,2.24a.382.382,0,0,1-.539.02" transform="translate(-3986.366 -2692.092)" fill="#e5f2ff"/>
        <path id="Tracciato_110467" data-name="Tracciato 110467" d="M4384,2842.775a.38.38,0,0,1-.378.381h-3.051a.381.381,0,0,1,0-.761h3.051a.38.38,0,0,1,.38.381" transform="translate(-4100.561 -2660.221)" fill="#e5f2ff"/>
        <path id="Tracciato_110468" data-name="Tracciato 110468" d="M4228.689,2840.9a.38.38,0,0,0,.38.381h3.051a.381.381,0,1,0,0-.761h-3.051a.38.38,0,0,0-.38.381" transform="translate(-3958.752 -2658.467)" fill="#e5f2ff"/>
        <path id="Tracciato_110469" data-name="Tracciato 110469" d="M2532.719,687.9a.381.381,0,0,1,.381.381v3.051a.38.38,0,1,1-.76,0v-3.051a.38.38,0,0,1,.379-.381" transform="translate(-2370.899 -643.522)" fill="#e5f2ff"/>
        <path id="Tracciato_110470" data-name="Tracciato 110470" d="M2535.034,841.589a.381.381,0,0,0,.381-.381v-3.051a.381.381,0,0,0-.762,0v3.051a.381.381,0,0,0,.381.381" transform="translate(-2373.064 -783.815)" fill="#e5f2ff"/>
        <path id="Tracciato_110471" data-name="Tracciato 110471" d="M2571.569,715.854a.382.382,0,0,1,.02.538l-2.071,2.24a.381.381,0,1,1-.559-.517l2.07-2.24a.382.382,0,0,1,.539-.021" transform="translate(-2405.081 -669.596)" fill="#e5f2ff"/>
        <path id="Tracciato_110472" data-name="Tracciato 110472" d="M2465.857,713.981a.38.38,0,0,0-.022.538l2.073,2.24a.381.381,0,0,0,.559-.517l-2.073-2.24a.379.379,0,0,0-.537-.021" transform="translate(-2308.552 -667.842)" fill="#e5f2ff"/>
        <path id="Tracciato_110473" data-name="Tracciato 110473" d="M2573.921,825.5a.382.382,0,0,0,.02-.538l-2.071-2.24a.381.381,0,1,0-.559.517l2.071,2.24a.382.382,0,0,0,.539.021" transform="translate(-2407.282 -769.606)" fill="#e5f2ff"/>
        <path id="Tracciato_110474" data-name="Tracciato 110474" d="M2463.525,823.624a.38.38,0,0,1-.02-.538l2.071-2.24a.381.381,0,0,1,.559.517l-2.071,2.24a.382.382,0,0,1-.539.021" transform="translate(-2306.371 -767.853)" fill="#e5f2ff"/>
        <path id="Tracciato_110475" data-name="Tracciato 110475" d="M2589.187,787.056a.381.381,0,0,1-.381.381h-3.051a.381.381,0,1,1,0-.761h3.051a.381.381,0,0,1,.381.381" transform="translate(-2420.541 -735.982)" fill="#e5f2ff"/>
        <path id="Tracciato_110476" data-name="Tracciato 110476" d="M2433.915,785.182a.38.38,0,0,0,.379.381l3.051,0a.381.381,0,1,0,0-.761l-3.049,0a.381.381,0,0,0-.381.381" transform="translate(-2278.769 -734.228)" fill="#e5f2ff"/>
        <path id="Tracciato_110477" data-name="Tracciato 110477" d="M1409.274,1385.431a1.506,1.506,0,0,0-2.131-.009l-7.233,7.171a1.505,1.505,0,0,0-.007,2.131l7.17,7.232a1.506,1.506,0,0,0,2.131.01l7.233-7.171a1.507,1.507,0,0,0,.008-2.132Zm-.161,1.21,6.12,6.173a1.286,1.286,0,0,1-.007,1.819l-6.172,6.12a1.287,1.287,0,0,1-1.82-.008l-6.12-6.173a1.287,1.287,0,0,1,.008-1.819l6.172-6.12a1.287,1.287,0,0,1,1.82.008" transform="translate(-1310.48 -1296.025)" fill="#e5f2ff"/>
        <path id="Tracciato_110478" data-name="Tracciato 110478" d="M4367.71,2190.2a1.321,1.321,0,0,0-1.87-.008l-6.351,6.3a1.324,1.324,0,0,0-.007,1.871l6.3,6.35a1.326,1.326,0,0,0,1.873.009l6.35-6.3a1.324,1.324,0,0,0,.007-1.872Zm-.141,1.062,5.373,5.42a1.129,1.129,0,0,1,0,1.6l-5.42,5.374a1.131,1.131,0,0,1-1.6-.007l-5.374-5.42a1.129,1.129,0,0,1,.006-1.6l5.42-5.374a1.129,1.129,0,0,1,1.6.007" transform="translate(-4080.821 -2049.377)" fill="#e5f2ff"/>
        <path id="Tracciato_110479" data-name="Tracciato 110479" d="M4132.834,763.835a1.505,1.505,0,0,0-2.085.435l-5.581,8.521a1.506,1.506,0,0,0,.436,2.086l8.521,5.579a1.507,1.507,0,0,0,2.086-.435l5.58-8.52a1.51,1.51,0,0,0-.437-2.087Zm.1,1.217,7.272,4.762a1.288,1.288,0,0,1,.371,1.781l-4.764,7.272a1.285,1.285,0,0,1-1.78.372l-7.273-4.762a1.287,1.287,0,0,1-.371-1.781l4.761-7.272a1.288,1.288,0,0,1,1.783-.372" transform="translate(-3861.622 -714.372)" fill="#e5f2ff"/>
        <path id="Tracciato_110480" data-name="Tracciato 110480" d="M2698.578,464.224a1.507,1.507,0,0,0-2.131-.009l-7.233,7.171a1.506,1.506,0,0,0-.01,2.131l7.172,7.232a1.507,1.507,0,0,0,2.131.01l7.233-7.171a1.507,1.507,0,0,0,.008-2.132Zm-.161,1.21,6.12,6.173a1.289,1.289,0,0,1-.007,1.82l-6.172,6.12a1.288,1.288,0,0,1-1.821-.008l-6.122-6.173a1.286,1.286,0,0,1,.01-1.82l6.172-6.12a1.287,1.287,0,0,1,1.82.008" transform="translate(-2517.321 -433.737)" fill="#e5f2ff"/>
        <path id="Tracciato_110481" data-name="Tracciato 110481" d="M1601.134,2233.865a4.829,4.829,0,1,0,4.828,4.829,4.828,4.828,0,0,0-4.828-4.829m0,2.226a2.6,2.6,0,1,1-2.6,2.6,2.6,2.6,0,0,1,2.6-2.6" transform="translate(-1494.731 -2090.613)" fill="#e5f2ff"/>
        <path id="Tracciato_110482" data-name="Tracciato 110482" d="M4339.076,1871.3a4.829,4.829,0,1,0,4.828,4.828,4.828,4.828,0,0,0-4.828-4.828m0,2.226a2.6,2.6,0,1,1-2.6,2.6,2.6,2.6,0,0,1,2.6-2.6" transform="translate(-4057.559 -1751.233)" fill="#e5f2ff"/>
        <path id="Tracciato_110483" data-name="Tracciato 110483" d="M4263.544,1233.977a4.829,4.829,0,1,0,4.829,4.828,4.829,4.829,0,0,0-4.829-4.828m0,2.226a2.6,2.6,0,1,1-2.6,2.6,2.6,2.6,0,0,1,2.6-2.6" transform="translate(-3986.857 -1154.675)" fill="#e5f2ff"/>
        <path id="Tracciato_110484" data-name="Tracciato 110484" d="M3077.2,388.272a4.829,4.829,0,1,0,4.829,4.828,4.83,4.83,0,0,0-4.829-4.828m0,2.226a2.6,2.6,0,1,1-2.6,2.6,2.6,2.6,0,0,1,2.6-2.6" transform="translate(-2876.385 -363.06)" fill="#e5f2ff"/>
        <path id="Tracciato_110485" data-name="Tracciato 110485" d="M657.129,3472.934c88.353,0,160.085,1.989,160.085,4.439s-71.732,4.438-160.085,4.438-160.085-1.989-160.085-4.438,71.731-4.439,160.085-4.439" transform="translate(-465.777 -3250.433)" fill="#dbe4ed" fill-rule="evenodd"/>
        <path id="Tracciato_110486" data-name="Tracciato 110486" d="M4794.861,3034.685h-28.022l1.636-9.463a30.4,30.4,0,0,1,35.138-24.779l10.115,1.749-1.749,10.115a30.409,30.409,0,0,1-17.117,22.379" transform="translate(-4462.483 -2807.745)" fill="#79ce6f" fill-rule="evenodd"/>
        <path id="Tracciato_110487" data-name="Tracciato 110487" d="M4738.4,3064.4h-5.652a9.061,9.061,0,0,1,.906-.779q.287-.207.581-.4.448-.286.914-.533l.082-.043.083-.042a15.762,15.762,0,0,1,2.877-1.121,36.574,36.574,0,0,1,4.936-.948c.783-.111,1.565-.218,2.337-.339a28.909,28.909,0,0,0,3.151-.649,49.527,49.527,0,0,0,15.591-7.194,61.074,61.074,0,0,0,12.486-12.062,31.816,31.816,0,0,0,2.924-4.009,39.081,39.081,0,0,0,2.1-4.26c.007-.015.014-.03.02-.045l.036-.081.037-.086a.115.115,0,0,1,.027-.039.108.108,0,0,1,.172.12q-.162.429-.315.82c-.005.015-.011.03-.017.044s-.012.03-.017.044a35.677,35.677,0,0,1-1.647,3.7,32.153,32.153,0,0,1-2.772,4.205,62.166,62.166,0,0,1-12.138,12.857,51.372,51.372,0,0,1-15.811,8.208,47.467,47.467,0,0,1-5.753,1.3,34.131,34.131,0,0,0-4.5,1.1q-.318.107-.629.227" transform="translate(-4430.575 -2837.465)" fill="#4d8946" fill-rule="evenodd"/>
        <path id="Tracciato_110488" data-name="Tracciato 110488" d="M4602.726,2707.214q-.237-.086-.458-.176a8.28,8.28,0,0,1-1.974-1.07c-2.784-2.206-3.781-6.131-3.638-6.961,1.035-6.029,7.941-5.712,9.681-10.933,1.641-4.923-.914-10.3,1.443-15.273,2.145-4.529,7.895-5.056,11.494-7.964,5.715-4.619,6.458-13.478,14.986-14.594a5.131,5.131,0,0,1,3.875.668,5.974,5.974,0,0,1,1.823,4.054c.9,8.573-8.252,9.656-11.636,15.8a9.376,9.376,0,0,0-1,4.031c0,.041,0,.081-.008.121s0,.081-.006.121c-.123,2.285.049,4.653-.949,6.79-1.952,4.182-7.652,5.971-8.285,10.778-.414,3.135.755,5.9.409,8.71a7.159,7.159,0,0,1-.417,1.7,7.455,7.455,0,0,1-.69,1.365c-.118.185-.247.37-.388.557a7.41,7.41,0,0,1-.854.953,7.929,7.929,0,0,1-1.924,1.328Z" transform="translate(-4303.173 -2480.274)" fill="#ffca00" fill-rule="evenodd"/>
        <path id="Tracciato_110489" data-name="Tracciato 110489" d="M4683.465,2772.607c.024-.058.047-.117.072-.176.9-2.167,2.13-4.961,3.6-8.088,2.482-5.3,5.6-11.585,8.715-17.374a112.49,112.49,0,0,1,11.29-17.369,48.6,48.6,0,0,1,9.867-9.58.034.034,0,0,1,.048.008.036.036,0,0,1-.007.049,48.121,48.121,0,0,0-9.165,10.088,110.317,110.317,0,0,0-9.875,17.445l-.134.29-.03.064-.106.231c-2.69,5.861-5.34,12.184-7.44,17.511q-.206.522-.4,1.031c-.048.121-.095.242-.142.363s-.095.242-.141.362c-.556,1.434-1.061,2.769-1.5,3.971q-.226.612-.428,1.175Z" transform="translate(-4384.441 -2545.667)" fill="#9d8114" fill-rule="evenodd"/>
        <path id="Tracciato_110490" data-name="Tracciato 110490" d="M518.92,3034.685h28.023l-1.636-9.463a30.4,30.4,0,0,0-35.138-24.779l-10.115,1.749,1.749,10.115a30.4,30.4,0,0,0,17.117,22.379" transform="translate(-468.594 -2807.745)" fill="#79ce6f" fill-rule="evenodd"/>
        <path id="Tracciato_110491" data-name="Tracciato 110491" d="M540.653,3064.4h5.652a9.068,9.068,0,0,0-.906-.779q-.286-.207-.581-.4-.448-.286-.913-.533l-.082-.043-.082-.042a15.754,15.754,0,0,0-2.877-1.121,36.576,36.576,0,0,0-4.936-.948c-.783-.111-1.564-.218-2.336-.339a28.861,28.861,0,0,1-3.151-.649,49.513,49.513,0,0,1-15.59-7.194,61.072,61.072,0,0,1-12.487-12.062,31.725,31.725,0,0,1-2.922-4.009,38.844,38.844,0,0,1-2.1-4.26l-.02-.045-.035-.081-.037-.086a.109.109,0,0,0-.027-.039.108.108,0,0,0-.172.12q.162.429.314.82l.017.044.017.044a35.74,35.74,0,0,0,1.647,3.7,32.214,32.214,0,0,0,2.773,4.205,62.185,62.185,0,0,0,12.138,12.857,51.378,51.378,0,0,0,15.812,8.208,47.511,47.511,0,0,0,5.753,1.3,34.144,34.144,0,0,1,4.5,1.1q.317.107.629.227" transform="translate(-465.777 -2837.465)" fill="#4d8946" fill-rule="evenodd"/>
        <path id="Tracciato_110492" data-name="Tracciato 110492" d="M762.437,2707.214q.235-.086.457-.176a8.271,8.271,0,0,0,1.974-1.07c2.784-2.206,3.781-6.131,3.638-6.961-1.035-6.029-7.941-5.712-9.681-10.933-1.641-4.923.914-10.3-1.443-15.273-2.145-4.529-7.895-5.056-11.493-7.964-5.716-4.619-6.459-13.478-14.987-14.594a5.129,5.129,0,0,0-3.875.668,5.975,5.975,0,0,0-1.824,4.054c-.895,8.573,8.253,9.656,11.636,15.8a9.378,9.378,0,0,1,1,4.031c0,.041.005.081.007.121s0,.081.007.121c.123,2.285-.049,4.653.948,6.79,1.952,4.182,7.652,5.971,8.286,10.778.414,3.135-.756,5.9-.41,8.71a7.213,7.213,0,0,0,.417,1.7,7.481,7.481,0,0,0,.691,1.365c.118.185.247.37.387.557a7.474,7.474,0,0,0,.854.953,7.935,7.935,0,0,0,1.924,1.328Z" transform="translate(-679.286 -2480.274)" fill="#ffca00" fill-rule="evenodd"/>
        <path id="Tracciato_110493" data-name="Tracciato 110493" d="M824.864,2772.607l-.072-.176c-.9-2.167-2.13-4.961-3.6-8.088-2.482-5.3-5.6-11.585-8.716-17.374a112.452,112.452,0,0,0-11.289-17.369,48.6,48.6,0,0,0-9.867-9.58.035.035,0,1,0-.041.056,48.13,48.13,0,0,1,9.165,10.088,110.3,110.3,0,0,1,9.876,17.445l.134.29.03.064.106.231c2.69,5.861,5.341,12.184,7.44,17.511q.206.522.4,1.031l.141.363.141.362c.556,1.434,1.062,2.769,1.5,3.971q.225.612.428,1.175Z" transform="translate(-741.183 -2545.667)" fill="#9d8114" fill-rule="evenodd"/>
        <path id="Tracciato_110494" data-name="Tracciato 110494" d="M1231.86,1119.842a28.369,28.369,0,0,0-4.042,2.163l-.064.04c-.236.158-.47.317-.692.48a.044.044,0,0,0-.019.01q-.7.508-1.315,1.047c-.008.005-.016.013-.024.019-.161.142-.314.285-.464.43-.107.1-.209.2-.309.3s-.215.215-.314.322c-.209.225-.413.451-.6.684v0c-.059.07-.108.148-.164.22a11.338,11.338,0,0,0-.711,1.036c-.046.075-.094.15-.137.226-.089.153-.169.308-.25.467-.051.1-.1.2-.142.3s-.1.223-.155.338c-.014.029-.027.059-.04.091l-.008.016c-.091.225-.175.453-.247.684-.038.118-.07.241-.1.362-.048.174-.091.349-.126.523-.021.1-.043.2-.062.3-.048.282-.091.566-.113.859-.078,1-.134,1.984-.177,2.96-.008.134-.011.268-.016.4-.038.942-.067,1.876-.075,2.8-.054,37.773,28.355,58.724,38.736,65.119.649-.395,1.371-.845,2.152-1.353.759-.5,1.581-1.052,2.445-1.658.019-.014.04-.024.059-.04a.214.214,0,0,0,.032-.024c.81-.569,1.667-1.194,2.55-1.86q.576-.435,1.173-.9c.142-.113.284-.22.429-.333q.906-.721,1.847-1.5l.032-.027c.035-.027.07-.059.1-.086q.853-.717,1.729-1.484c.131-.115.263-.234.395-.352q.89-.789,1.792-1.632c.021-.021.046-.04.067-.062l.027-.024c1.371-1.291,2.761-2.678,4.144-4.162,0,0,.005-.008.011-.014s.016-.019.024-.027c.655-.7,1.307-1.433,1.956-2.182l.18-.207q.97-1.123,1.927-2.313c.016-.021.035-.04.051-.062.005-.005.008-.013.013-.019q1.01-1.264,1.994-2.6c.612-.832,1.208-1.691,1.8-2.566.191-.284.384-.572.574-.861.255-.395.51-.789.762-1.189q.439-.7.867-1.412c.155-.255.3-.515.456-.776q.556-.954,1.092-1.935c.005-.011.011-.019.016-.03.07-.129.137-.263.207-.392.317-.6.625-1.2.931-1.812.11-.22.217-.44.325-.663.343-.708.681-1.428,1.006-2.158.083-.19.163-.384.247-.574.282-.652.555-1.309.821-1.978.062-.158.129-.317.191-.475q.479-1.232.915-2.5c.046-.132.089-.266.134-.4q.419-1.236.8-2.506l.056-.185q.4-1.381.754-2.8c.024-.1.049-.2.073-.3.472-1.951.872-3.958,1.184-6.03.011-.07.021-.142.032-.214q.109-.741.2-1.492s0-.008,0-.011a.089.089,0,0,1,0-.027q.3-2.387.44-4.881c0-.043.005-.086.008-.126a.257.257,0,0,1,0-.046c.027-.539.048-1.079.067-1.624a.418.418,0,0,1,0-.059.533.533,0,0,1,0-.067c.016-.558.029-1.122.032-1.685-.005-2.069-.075-4.181-.231-6.352a8.789,8.789,0,0,0-.2-1.36,9.328,9.328,0,0,0-.494-1.481,10.561,10.561,0,0,0-1.272-2.244c-.045-.062-.091-.124-.134-.185s-.078-.113-.121-.169c-.209-.258-.435-.51-.668-.759-.03-.032-.062-.065-.091-.1-.2-.2-.4-.4-.609-.6-.062-.059-.124-.115-.188-.174a18.541,18.541,0,0,0-1.672-1.339c-.037-.027-.075-.056-.115-.083-.207-.145-.427-.287-.644-.429-.44-.287-.888-.569-1.366-.837s-1-.537-1.522-.794q-.229-.112-.467-.225c-.148-.07-.309-.134-.459-.2Z" transform="translate(-1143.888 -1047.84)" fill="#d7eafd"/>
        <path id="Tracciato_110495" data-name="Tracciato 110495" d="M1231.86,1119.842a28.369,28.369,0,0,0-4.042,2.163l-.064.04c-.236.158-.47.317-.692.48a.044.044,0,0,0-.019.01q-.7.508-1.315,1.047c-.008.005-.016.013-.024.019-.161.142-.314.285-.464.43-.107.1-.209.2-.309.3s-.215.215-.314.322c-.209.225-.413.451-.6.684v0c-.059.07-.108.148-.164.22a11.338,11.338,0,0,0-.711,1.036c-.046.075-.094.15-.137.226-.089.153-.169.308-.25.467-.051.1-.1.2-.142.3s-.1.223-.155.338c-.014.029-.027.059-.04.091l-.008.016c-.091.225-.175.453-.247.684-.038.118-.07.241-.1.362-.048.174-.091.349-.126.523-.021.1-.043.2-.062.3-.048.282-.091.566-.113.859-.078,1-.134,1.984-.177,2.96-.008.134-.011.268-.016.4-.038.942-.067,1.876-.075,2.8-.054,37.773,28.355,58.724,38.736,65.119.649-.395,1.371-.845,2.152-1.353.759-.5,1.581-1.052,2.445-1.658.019-.014.04-.024.059-.04a.214.214,0,0,0,.032-.024c.81-.569,1.667-1.194,2.55-1.86q.576-.435,1.173-.9c.142-.113.284-.22.429-.333q.906-.721,1.847-1.5l.032-.027c.035-.027.07-.059.1-.086q.853-.717,1.729-1.484c.131-.115.263-.234.395-.352q.89-.789,1.792-1.632c.021-.021.046-.04.067-.062l.027-.024c1.371-1.291,2.761-2.678,4.144-4.162,0,0,.005-.008.011-.014s.016-.019.024-.027c.655-.7,1.307-1.433,1.956-2.182l.18-.207q.97-1.123,1.927-2.313c.016-.021.035-.04.051-.062.005-.005.008-.013.013-.019q1.01-1.264,1.994-2.6c.612-.832,1.208-1.691,1.8-2.566.191-.284.384-.572.574-.861.255-.395.51-.789.762-1.189q.439-.7.867-1.412c.155-.255.3-.515.456-.776q.556-.954,1.092-1.935c.005-.011.011-.019.016-.03.07-.129.137-.263.207-.392.317-.6.625-1.2.931-1.812.11-.22.217-.44.325-.663.343-.708.681-1.428,1.006-2.158.083-.19.163-.384.247-.574.282-.652.555-1.309.821-1.978.062-.158.129-.317.191-.475q.479-1.232.915-2.5c.046-.132.089-.266.134-.4q.419-1.236.8-2.506l.056-.185q.4-1.381.754-2.8c.024-.1.049-.2.073-.3.472-1.951.872-3.958,1.184-6.03.011-.07.021-.142.032-.214q.109-.741.2-1.492s0-.008,0-.011a.089.089,0,0,1,0-.027q.3-2.387.44-4.881c0-.043.005-.086.008-.126a.257.257,0,0,1,0-.046c.027-.539.048-1.079.067-1.624a.418.418,0,0,1,0-.059.533.533,0,0,1,0-.067c.016-.558.029-1.122.032-1.685-.005-2.069-.075-4.181-.231-6.352a8.789,8.789,0,0,0-.2-1.36,9.328,9.328,0,0,0-.494-1.481,10.561,10.561,0,0,0-1.272-2.244c-.045-.062-.091-.124-.134-.185s-.078-.113-.121-.169c-.209-.258-.435-.51-.668-.759-.03-.032-.062-.065-.091-.1-.2-.2-.4-.4-.609-.6-.062-.059-.124-.115-.188-.174a18.541,18.541,0,0,0-1.672-1.339c-.037-.027-.075-.056-.115-.083-.207-.145-.427-.287-.644-.429-.44-.287-.888-.569-1.366-.837s-1-.537-1.522-.794q-.229-.112-.467-.225c-.148-.07-.309-.134-.459-.2Z" transform="translate(-1143.888 -1047.84)" fill="#acd1f6"/>
        <path id="Tracciato_110496" data-name="Tracciato 110496" d="M1254.915,2247.8c-10.418,6.333-38.956,27.11-39.13,64.882.008,2.007.081,4.058.231,6.162a9.162,9.162,0,0,0,.888,3.312,11.065,11.065,0,0,0,1.173,1.9c.056.075.1.15.164.223v0c1.937,2.416,5.024,4.42,8.853,6.017l55.141.166c3.84-1.572,6.94-3.558,8.891-5.96.094-.116.172-.236.26-.354a10.793,10.793,0,0,0,1.09-1.769,9.125,9.125,0,0,0,.91-3.306c.167-2.166.25-4.28.268-6.347-.04-37.652-28.374-58.544-38.739-64.931" transform="translate(-1138.548 -2103.653)" fill="#acd1f6"/>
        <path id="Tracciato_110497" data-name="Tracciato 110497" d="M1327.006,3107.009c-1.02-.006-2.042-.014-3.059-.03-12.348-.18-24.14-1.226-28.71-3.116v0c-.051-.019-.094-.043-.142-.064-1.047-.453-1.685-.958-1.809-1.511a9.19,9.19,0,0,1-.212-1.779c.089-10.915,24.947-16.87,34.026-18.681,9.055,1.865,33.809,7.952,33.911,18.834a8.978,8.978,0,0,1-.223,1.833c-.123.537-.735,1.023-1.736,1.462-.075.033-.142.067-.223.1-4.581,1.86-16.381,2.837-28.729,2.941q-1.542.016-3.094.011" transform="translate(-1210.894 -2884.338)" fill="#f4e15f"/>
        <path id="Tracciato_110498" data-name="Tracciato 110498" d="M1348.167,1655.635c9.554,22.623,24.166,29.9,30.645,33.892,6.492-3.948,21.869-11.865,32.947-35.744,0-1.291-15.372,7.219-30.795-6.561-11.253-10.053-32.783,7.16-32.8,8.413" transform="translate(-1262.464 -1538.553)" fill="#f4e15f"/>
        <path id="Tracciato_110499" data-name="Tracciato 110499" d="M1813.384,2316.191l1.313,0-.177,58.659-1.315-.005Z" transform="translate(-1697.757 -2167.673)" fill="#f4e15f"/>
        <path id="Tracciato_110500" data-name="Tracciato 110500" d="M1083.025,1122.212a4.3,4.3,0,0,1,4.288-4.307l87.525-.161a4.3,4.3,0,0,1,4.307,4.288v.04a4.3,4.3,0,0,1-4.291,4.3l-87.525.164a4.3,4.3,0,0,1-4.3-4.291Z" transform="translate(-1014.279 -1045.876)" fill="#6ca6de"/>
        <path id="Tracciato_110501" data-name="Tracciato 110501" d="M1096.955,3409.257a4.3,4.3,0,0,1,4.289-4.307l87.527-.161a4.3,4.3,0,0,1,4.3,4.291v.037a4.3,4.3,0,0,1-4.288,4.307l-87.527.161a4.3,4.3,0,0,1-4.3-4.291Z" transform="translate(-1027.318 -3186.646)" fill="#6ca6de"/>
        <path id="Tracciato_110502" data-name="Tracciato 110502" d="M1258.885,1395.426a1.367,1.367,0,0,0-1.4,1.331,55.97,55.97,0,0,0,.322,7.783c.142,1.216.354,2.533.628,3.934.319,1.637.719,3.36,1.181,5.134.432,1.661.894,3.277,1.355,4.785.164.529.314,1.006.451,1.425.046.148.164.5.172.529a1.368,1.368,0,1,0,2.592-.875c0-.005-.115-.354-.161-.494q-.2-.612-.435-1.385c-.451-1.473-.9-3.054-1.326-4.675-.448-1.723-.837-3.392-1.146-4.97-.26-1.337-.459-2.582-.59-3.722a52.861,52.861,0,0,1-.309-7.4,1.367,1.367,0,0,0-1.334-1.4" transform="translate(-1177.561 -1305.798)" fill="#eaf5ff"/>
        <path id="Tracciato_110503" data-name="Tracciato 110503" d="M1272.27,2666.581a1.37,1.37,0,0,0-1.911.309,55.972,55.972,0,0,0-4.13,6.6c-.572,1.082-1.141,2.287-1.707,3.6-.66,1.532-1.3,3.177-1.927,4.9-.582,1.616-1.116,3.21-1.586,4.715-.166.527-.311,1.007-.435,1.428-.046.15-.148.507-.156.534a1.368,1.368,0,0,0,2.633.743s.1-.357.147-.5c.121-.408.26-.875.421-1.388.462-1.47.98-3.03,1.549-4.6.6-1.675,1.229-3.271,1.865-4.747.539-1.25,1.079-2.391,1.615-3.406a53.307,53.307,0,0,1,3.926-6.277,1.366,1.366,0,0,0-.306-1.911" transform="translate(-1180.279 -2495.41)" fill="#eaf5ff"/>
        <path id="Tracciato_110504" data-name="Tracciato 110504" d="M1258.967,1263.565a1.368,1.368,0,0,0-1.269,1.175c-.006.027-.011.078-.019.145-.016.11-.03.239-.046.384-.048.413-.1.888-.14,1.42-.083,1.014-.142,2.109-.174,3.269a1.369,1.369,0,0,0,2.737.07c.027-1.108.086-2.152.164-3.113.04-.5.086-.947.129-1.334.016-.134.056-.44.059-.454a1.371,1.371,0,0,0-1.162-1.548,1.409,1.409,0,0,0-.279-.013" transform="translate(-1177.425 -1182.369)" fill="#eaf5ff"/>
        <path id="Tracciato_110505" data-name="Tracciato 110505" d="M1447.156,2549.575a1.371,1.371,0,0,0-1.693.359c-.016.022-.049.059-.089.116-.07.086-.148.188-.239.306-.252.33-.537.714-.846,1.148-.59.827-1.2,1.736-1.822,2.716a1.368,1.368,0,0,0,2.313,1.462c.59-.937,1.176-1.8,1.736-2.59q.439-.616.794-1.079c.081-.107.271-.349.282-.362a1.366,1.366,0,0,0-.206-1.924,1.467,1.467,0,0,0-.231-.153" transform="translate(-1350.535 -2385.989)" fill="#eaf5ff"/>
        <path id="Tracciato_110506" data-name="Tracciato 110506" d="M1847.705,2009.383a6.284,6.284,0,0,0-6.283,6.285v85.474a6.285,6.285,0,0,0,6.283,6.285h142.353a6.287,6.287,0,0,0,6.285-6.285v-85.474a6.285,6.285,0,0,0-6.285-6.285Zm25.883,5.249a6.583,6.583,0,1,1-6.585,6.583,6.583,6.583,0,0,1,6.585-6.583m90.589,0a6.583,6.583,0,1,1-6.584,6.583,6.582,6.582,0,0,1,6.584-6.583" transform="translate(-1724.171 -1880.488)" fill="#fff"/>
        <path id="Tracciato_110507" data-name="Tracciato 110507" d="M1847.705,2009.383a6.284,6.284,0,0,0-6.283,6.285v85.474a6.285,6.285,0,0,0,6.283,6.285h142.353a6.287,6.287,0,0,0,6.285-6.285v-85.474a6.285,6.285,0,0,0-6.285-6.285Zm25.883,5.249a6.583,6.583,0,1,1-6.585,6.583A6.583,6.583,0,0,1,1873.588,2014.632Zm90.589,0a6.583,6.583,0,1,1-6.584,6.583A6.582,6.582,0,0,1,1964.177,2014.632Z" transform="translate(-1724.171 -1880.488)" fill="none" stroke="#98ccff" stroke-linejoin="round" stroke-width="16.526"/>
        <path id="Tracciato_110508" data-name="Tracciato 110508" d="M1847.705,2009.383a6.284,6.284,0,0,0-6.283,6.285v17.378h154.921v-17.378a6.285,6.285,0,0,0-6.285-6.285Zm25.883,5.249a6.583,6.583,0,1,1-6.585,6.583,6.583,6.583,0,0,1,6.585-6.583m90.589,0a6.583,6.583,0,1,1-6.584,6.583,6.582,6.582,0,0,1,6.584-6.583" transform="translate(-1724.171 -1880.488)" fill="#98ccff"/>
        <path id="Tracciato_110509" data-name="Tracciato 110509" d="M2255.23,1866.27a5.928,5.928,0,0,1,5.928,5.928v13.45a5.928,5.928,0,1,1-11.855,0V1872.2a5.928,5.928,0,0,1,5.927-5.928" transform="translate(-2105.964 -1746.528)" fill="#7998be"/>
        <path id="Tracciato_110510" data-name="Tracciato 110510" d="M3675.91,1866.27a5.928,5.928,0,0,1,5.928,5.928v13.45a5.928,5.928,0,1,1-11.856,0V1872.2a5.928,5.928,0,0,1,5.928-5.928" transform="translate(-3435.779 -1746.528)" fill="#7998be"/>
        <rect id="Rettangolo_166376" data-name="Rettangolo 166376" width="19.387" height="15.549" transform="translate(120.51 155.543)" fill="#b1cce6"/>
        <rect id="Rettangolo_166377" data-name="Rettangolo 166377" width="19.387" height="15.547" transform="translate(120.51 172.878)" fill="#d8ecff"/>
        <rect id="Rettangolo_166378" data-name="Rettangolo 166378" width="19.387" height="15.549" transform="translate(120.51 190.287)" fill="#d8ecff"/>
        <rect id="Rettangolo_166379" data-name="Rettangolo 166379" width="19.387" height="15.549" transform="translate(120.51 207.844)" fill="#d8ecff"/>
        <rect id="Rettangolo_166380" data-name="Rettangolo 166380" width="19.387" height="15.547" transform="translate(206.678 155.378)" fill="#d8ecff"/>
        <rect id="Rettangolo_166381" data-name="Rettangolo 166381" width="19.387" height="15.549" transform="translate(206.678 172.711)" fill="#d8ecff"/>
        <rect id="Rettangolo_166382" data-name="Rettangolo 166382" width="19.387" height="15.549" transform="translate(206.678 190.119)" fill="#d8ecff"/>
        <rect id="Rettangolo_166383" data-name="Rettangolo 166383" width="19.387" height="15.547" transform="translate(206.678 207.678)" fill="#b1cce6"/>
        <rect id="Rettangolo_166384" data-name="Rettangolo 166384" width="19.386" height="15.549" transform="translate(163.359 155.543)" fill="#b1cce6"/>
        <rect id="Rettangolo_166385" data-name="Rettangolo 166385" width="19.386" height="15.547" transform="translate(163.359 172.878)" fill="#d8ecff"/>
        <rect id="Rettangolo_166386" data-name="Rettangolo 166386" width="19.386" height="15.549" transform="translate(163.359 190.287)" fill="#d8ecff"/>
        <rect id="Rettangolo_166387" data-name="Rettangolo 166387" width="19.386" height="15.549" transform="translate(163.359 207.844)" fill="#d8ecff"/>
        <rect id="Rettangolo_166388" data-name="Rettangolo 166388" width="19.386" height="15.547" transform="translate(249.527 155.378)" fill="#d8ecff"/>
        <rect id="Rettangolo_166389" data-name="Rettangolo 166389" width="19.386" height="15.549" transform="translate(249.527 172.711)" fill="#d8ecff"/>
        <rect id="Rettangolo_166390" data-name="Rettangolo 166390" width="19.386" height="15.549" transform="translate(249.527 190.119)" fill="#d8ecff"/>
        <rect id="Rettangolo_166391" data-name="Rettangolo 166391" width="19.386" height="15.547" transform="translate(249.527 207.678)" fill="#b1cce6"/>
        <rect id="Rettangolo_166392" data-name="Rettangolo 166392" width="19.387" height="15.549" transform="translate(142.059 155.543)" fill="#b1cce6"/>
        <rect id="Rettangolo_166393" data-name="Rettangolo 166393" width="19.387" height="15.547" transform="translate(142.059 172.878)" fill="#d8ecff"/>
        <rect id="Rettangolo_166394" data-name="Rettangolo 166394" width="19.387" height="15.549" transform="translate(142.059 190.287)" fill="#d8ecff"/>
        <rect id="Rettangolo_166395" data-name="Rettangolo 166395" width="19.387" height="15.549" transform="translate(142.059 207.844)" fill="#d8ecff"/>
        <rect id="Rettangolo_166396" data-name="Rettangolo 166396" width="19.387" height="15.547" transform="translate(228.226 155.378)" fill="#d8ecff"/>
        <rect id="Rettangolo_166397" data-name="Rettangolo 166397" width="19.387" height="15.549" transform="translate(228.226 172.711)" fill="#d8ecff"/>
        <rect id="Rettangolo_166398" data-name="Rettangolo 166398" width="19.387" height="15.549" transform="translate(228.226 190.119)" fill="#d8ecff"/>
        <rect id="Rettangolo_166399" data-name="Rettangolo 166399" width="19.387" height="15.547" transform="translate(228.226 207.678)" fill="#b1cce6"/>
        <rect id="Rettangolo_166400" data-name="Rettangolo 166400" width="19.386" height="15.549" transform="translate(184.908 155.543)" fill="#d8ecff"/>
        <rect id="Rettangolo_166401" data-name="Rettangolo 166401" width="19.386" height="15.547" transform="translate(184.908 172.878)" fill="#d8ecff"/>
        <rect id="Rettangolo_166402" data-name="Rettangolo 166402" width="19.386" height="15.549" transform="translate(184.908 190.287)" fill="#d8ecff"/>
        <rect id="Rettangolo_166403" data-name="Rettangolo 166403" width="19.386" height="15.549" transform="translate(184.908 207.844)" fill="#d8ecff"/>
        <path id="Tracciato_110521" data-name="Tracciato 110521" d="M2272.521,2717.195a6.928,6.928,0,1,1,6.928,6.929,6.93,6.93,0,0,1-6.928-6.929" transform="translate(-2127.697 -2536.543)" fill="#20a400"/>
        <path id="Tracciato_110522" data-name="Tracciato 110522" d="M2290.115,2733.668a5.8,5.8,0,1,1,5.8,5.8,5.8,5.8,0,0,1-5.8-5.8" transform="translate(-2144.166 -2553.016)" fill="#fff"/>
        <path id="Tracciato_110523" data-name="Tracciato 110523" d="M2299,2741.983a5.235,5.235,0,1,1,5.235,5.235,5.234,5.234,0,0,1-5.235-5.235" transform="translate(-2152.481 -2561.331)" fill="#20a400"/>
        <path id="Tracciato_110524" data-name="Tracciato 110524" d="M2323.2,2802.9a.5.5,0,1,1,.752-.663l2.441,2.768a.5.5,0,1,1-.752.663Z" transform="translate(-2175.02 -2622.475)" fill="#fff"/>
        <path id="Tracciato_110525" data-name="Tracciato 110525" d="M2366.707,2777.013a.5.5,0,1,0-.752-.663l-3.9,4.424a.5.5,0,1,0,.751.663Z" transform="translate(-2211.385 -2598.241)" fill="#fff"/>
        <path id="Tracciato_110526" data-name="Tracciato 110526" d="M3909.048,2512.163c3.049-.7,15.843,2.863,15.843,2.863s.384,17.647,1.525,27.521c1.707,14.744-10.563,30.86-10.563,30.86s-12.011,4.184-23.313,3.848-22.888-4.312-22.888-4.312-8.006-9.481,2.711-23.921c2.759-3.718,11.166-5.032,15.459-9.028,12.383-11.526,7.97-24.784,21.226-27.831" transform="translate(-3619.989 -2351.025)" fill="#d2570d"/>
        <path id="Tracciato_110527" data-name="Tracciato 110527" d="M4023.1,2590.191l-8.853,13.494-13.273,7.1,1.815,2.312s14.048-3.951,15.168-4.864,4.5-6.089,8.207-11.5c2.678-3.91-3.064-6.54-3.064-6.54" transform="translate(-3745.6 -2424.148)" fill="#2870b7"/>
        <path id="Tracciato_110528" data-name="Tracciato 110528" d="M3406.189,2941.467l-10.12-2.1-25.608,9.419,2.806,5.124,10.358-1.913Z" transform="translate(-3155.415 -2750.991)" fill="#003262"/>
        <path id="Tracciato_110529" data-name="Tracciato 110529" d="M4208.509,2577.243a25.728,25.728,0,0,0,3.966-8.739c1.336-5.334,4.08-14.52,4.885-17.222.71-2.377,6.13-1.981,6.13-1.981l1.35-.678,5.54.772,1.848,1.32,5.666,2.1-.266,9.4-13.408,24.344Z" transform="translate(-3939.863 -2385.239)" fill="#2870b7"/>
        <path id="Tracciato_110530" data-name="Tracciato 110530" d="M4307.474,2691.256a30.463,30.463,0,0,0-1.727,2.735c-.461.856-2.95-4.581-2.95-4.581l-4.836,6.714-14.834,5.852v4.092l16.283-.861a21.131,21.131,0,0,1-3.179,4.827c-5.392,6.765-9.314,4.064-9.314,4.064l7.147,4.237,3.772-6.85,9.637-17.494Z" transform="translate(-4009.708 -2517.021)" fill="#185896"/>
        <path id="Tracciato_110531" data-name="Tracciato 110531" d="M4265.176,2623.616s-.856,3.141-1.693,6.76c-.916,3.951-1.809,8.473-1.547,10.112a9.012,9.012,0,0,0,2.561,4.973,18.977,18.977,0,0,1-3.4-2.554,2.382,2.382,0,0,1-.791-2.079Z" transform="translate(-3988.324 -2455.435)" fill="#185896"/>
        <path id="Tracciato_110532" data-name="Tracciato 110532" d="M3812.824,2733.262l15.32.712,6.844,16.37-16.02-2.271Z" transform="translate(-3569.485 -2558.069)" fill="#476c7f"/>
        <path id="Tracciato_110533" data-name="Tracciato 110533" d="M4152.392,2954.517l14.47-2-.02.564a.63.63,0,0,1-.521.58l-13.485,1.916Z" transform="translate(-3887.335 -2763.302)" fill="#3d6174"/>
        <path id="Tracciato_110534" data-name="Tracciato 110534" d="M4141.92,2922.061l-16.174-2.082,1.7,4.079Z" transform="translate(-3862.393 -2732.843)" fill="#3e667b"/>
        <path id="Tracciato_110535" data-name="Tracciato 110535" d="M4146.408,2952.644l-7.475-1.148.861,2.063Z" transform="translate(-3874.737 -2762.344)" fill="#1c3d4e"/>
        <path id="Tracciato_110536" data-name="Tracciato 110536" d="M3612.805,2944.78l-13.16-3.506-27.543,11.572,2,6.98,25.863-4.485s11.766,6.7,18.9,6.392,9.647-7.643,9.647-7.643Z" transform="translate(-3344.16 -2752.776)" fill="#003262"/>
        <path id="Tracciato_110537" data-name="Tracciato 110537" d="M3944.344,3165.476a38.508,38.508,0,0,1-6.843-.976c-3.5-.856-6.686-2.524-7.142-2.445l4.855-.841,4.453,2.271Z" transform="translate(-3679.411 -2958.649)" fill="#021d37"/>
        <path id="Tracciato_110538" data-name="Tracciato 110538" d="M3070.585,2999.347l-12.155-3.692s-2.269-2.644-3.744-2.848-2.155,2.033-2.155,2.033,4.465,5.06,8.448,9.079,7.486,7,7.486,7l5.546-6.132Z" transform="translate(-2857.819 -2801.001)" fill="#5e5e5e"/>
        <path id="Tracciato_110539" data-name="Tracciato 110539" d="M3054.228,2993.235s4.539,5.079,8.608,9.033,7.67,6.782,7.67,6.782l-2.042,2.277s-3.5-2.977-7.486-7-8.448-9.079-8.448-9.079a4.687,4.687,0,0,1,.693-1.323,2.461,2.461,0,0,1,1-.7" transform="translate(-2857.819 -2801.414)" fill="#303030"/>
        <path id="Tracciato_110540" data-name="Tracciato 110540" d="M3054.228,2993.235l4.788,5.165a2.246,2.246,0,0,1-.5,1.1,5.33,5.33,0,0,1-1.251.958l-4.733-5.2a4.687,4.687,0,0,1,.693-1.323,2.461,2.461,0,0,1,1-.7" transform="translate(-2857.819 -2801.414)"/>
        <path id="Tracciato_110541" data-name="Tracciato 110541" d="M3514.956,3122.2l-3.208.909a4.853,4.853,0,0,0,.619,5.849l4.313-.739Z" transform="translate(-3287.013 -2922.131)" fill="#f3d3b1"/>
        <path id="Tracciato_110542" data-name="Tracciato 110542" d="M3272.255,3020.339c-.473-.268-10.853-3.552-10.853-3.552s-2.229-3.323-3.783-4.15a1.8,1.8,0,0,0-2.426.844s3.448,6.583,6.542,11.251a52.826,52.826,0,0,0,5.836,7.418l5.819-5.621-.231-.357-.285.015a11.236,11.236,0,0,1-1.314-3.062c-.1-1.12.887-2.68.7-2.787" transform="translate(-3047.52 -2819.361)" fill="#5e5e5e"/>
        <path id="Tracciato_110543" data-name="Tracciato 110543" d="M3257.155,3012.269s2.946,5.309,5.973,9.824,6.128,8.244,6.128,8.244l-1.685,1.628a62.222,62.222,0,0,1-6.089-7.8c-3.094-4.665-6.29-10.865-6.29-10.865a3.8,3.8,0,0,1,.992-.946,1.294,1.294,0,0,1,.97-.081" transform="translate(-3047.52 -2819.176)" fill="#303030"/>
        <path id="Tracciato_110544" data-name="Tracciato 110544" d="M3261.781,3019.7l-2.068,1.329-4.52-8.063a5.159,5.159,0,0,1,.992-.946,1.07,1.07,0,0,1,.97-.081Z" transform="translate(-3047.52 -2818.848)"/>
        <path id="Tracciato_110545" data-name="Tracciato 110545" d="M4477.233,2560.821l-5,3.409,2.16,1.56-.183,1.563,4.875-5.219Z" transform="translate(-4186.716 -2396.656)" fill="#ddd"/>
        <path id="Tracciato_110546" data-name="Tracciato 110546" d="M4434.018,2549.3l1.349-.678.537,4.188-1.022.438-1.46,1.332Z" transform="translate(-4150.39 -2385.239)" fill="#ddd"/>
        <path id="Tracciato_110547" data-name="Tracciato 110547" d="M4463.644,2362.4l-.613.429.589,4.2,5-3.409-.479-1.465a6.508,6.508,0,0,0,4.709-3.737c1.321-3.21.63-5.875-2.578-7.44a8.6,8.6,0,0,0-6.243-.445Z" transform="translate(-4178.106 -2199.454)" fill="#ffe1c2"/>
        <path id="Tracciato_110548" data-name="Tracciato 110548" d="M4463.234,2495.152l.12.963a15.475,15.475,0,0,0,2.549-1.382,6.218,6.218,0,0,0,1.65-2.565l-.205-.652Z" transform="translate(-4178.296 -2331.785)" fill="#ecc7a3"/>
        <path id="Tracciato_110549" data-name="Tracciato 110549" d="M4433.873,2358.6c.373-1.1-1.192-.785-1.36-1.541-.354-1.584-.1-3.72-1.844-4.308-2.57-.872-6.085,1.471-6.11,5.679-.019,3.606.873,6.243,3.585,6.276,1.488.017,3.341-3.846,3.972-4.57s1.5-.775,1.757-1.536" transform="translate(-4142.093 -2201.726)" fill="#ffe1c2"/>
        <path id="Tracciato_110550" data-name="Tracciato 110550" d="M4421.69,2305.978l.275,2.787s1.147-1.01,1.22-1.482c.071-.455,1.849-.065,1.188,1.033-.25.42-.967.418-1.466.957a3.639,3.639,0,0,0-.937,1.756L4423,2314.1s7.78-2.294,5.522-10.159a2.7,2.7,0,0,0-.17-.56c-1.652-3.072-3.761-2.8-7.721-3.412-4.637-.715-5.326-1.408-5.326-1.408s-1.853,4.579,1.068,5.786a31.746,31.746,0,0,0,5.321,1.628" transform="translate(-4132.886 -2151.173)"/>
        <path id="Tracciato_110551" data-name="Tracciato 110551" d="M3509.8,2964.826l-2.478-.484-26.225,10.1,2.613.9,3.208-.909Z" transform="translate(-3258.972 -2774.369)" fill="#021d37"/>
        <path id="Tracciato_110552" data-name="Tracciato 110552" d="M3526.4,3198.931l-4.624.687.324.626.306.538,4.313-.739Z" transform="translate(-3297.053 -2993.955)" fill="#e2c2a1"/>
        <path id="Tracciato_110553" data-name="Tracciato 110553" d="M4149.969,2920.047l-1.807.264-2.312.292a.652.652,0,0,0,.712.484l2.541-.314Z" transform="translate(-3881.211 -2732.907)" fill="#ebc39b"/>
        <path id="Tracciato_110554" data-name="Tracciato 110554" d="M4158.82,2872.959l-5.348,1.58-3.624,1.469-4,2.541a1.1,1.1,0,0,0,1.172.163c.79-.259,2.385-.941,2.385-.941a6.625,6.625,0,0,0,2.86.181,4.805,4.805,0,0,0,2.149-1.063l4.689-.917Z" transform="translate(-3881.211 -2688.831)" fill="#ffd9b3"/>
        <path id="Tracciato_110555" data-name="Tracciato 110555" d="M4145.435,2928.02l-1.532.3-1.972,1.249a.654.654,0,0,0,.852.135l2.652-1.685" transform="translate(-3877.542 -2740.37)" fill="#efcba6"/>
        <path id="Tracciato_110556" data-name="Tracciato 110556" d="M4289.1,2614.535c-2.3,1.563-8.573,13.091-8.573,13.091l-15.495,4.581,1.157,2.968s16.852-1.536,19.155-2.281c.987-.32,4.606-5.681,6.834-10.407,2.144-4.551.041-10.068-3.079-7.95" transform="translate(-3992.774 -2446.498)" fill="#2870b7"/>
        <path id="Tracciato_110557" data-name="Tracciato 110557" d="M4265.035,2881.2l3.4-1.125,1.216,3.679-3.463.414Z" transform="translate(-3992.774 -2695.496)" fill="#ddd"/>
        <path id="Tracciato_110558" data-name="Tracciato 110558" d="M3924.929,2558.265l-2.5,8.44-4.572,4.186s-10.258,19.7-13.956,22.832c-4.779,4.045-11.042,4.507-19.576,5.389-5.507.569-11.53-1.269-12.975-1.732a.71.71,0,0,0-.307-.052l-1.952.34s-.968,2.3-.968,2.306h0c-3.663,10.009,1.569,16.209,1.569,16.209s.723.248,1.987.627c1.133.338,2.75.786,4.62,1.249.211.052.379.1.6.155a90.64,90.64,0,0,0,9.373,1.759c2.062.27,4.191.459,6.309.523.708.022,1.417.024,2.124.011a57.337,57.337,0,0,0,6.285-.471,82.182,82.182,0,0,0,14.9-3.389s19.253-13.256,17.874-36.482c-.83-14-8.837-21.9-8.837-21.9" transform="translate(-3620.027 -2394.264)" fill="#fe6c15"/>
        <path id="Tracciato_110559" data-name="Tracciato 110559" d="M3877.835,3468.144c0-.286,2.166-4.332,2.166-4.332s13.4,1,23.041,1c9.423,0,23.161-.536,23.161-.536a43.34,43.34,0,0,1,2.669,3.868c0,.919-51.037.919-51.037,0" transform="translate(-3630.338 -3241.893)" fill="#d2580f"/>
        <path id="Tracciato_110560" data-name="Tracciato 110560" d="M4509.734,2558.265l-2.5,8.44a30.73,30.73,0,0,1,3.062,6.422,20.066,20.066,0,0,1,.838,11.482,13.891,13.891,0,0,1-3.068,5.7c-12.358,13.976-16.484,26.632-16.484,26.632l9.113-.3s19.254-13.256,17.874-36.48c-.83-14-8.836-21.9-8.836-21.9" transform="translate(-4204.832 -2394.264)" fill="#e76619"/>
        <path id="Tracciato_110561" data-name="Tracciato 110561" d="M3871.072,3168.923l-1.942.338-.011,0-.041.041.033-.006c-.026.058-.052.115-.079.172-.335.715-.632,1.417-.88,2.1a0,0,0,0,1,0,0c-.187.51-.344,1.009-.488,1.5-.037.134-.076.264-.113.394-.055.21-.107.415-.155.617-.03.126-.059.251-.085.375q-.065.292-.12.575c-.019.111-.039.223-.059.331a18.749,18.749,0,0,0-.244,2.081c0,.05-.009.1-.011.148-.011.193-.015.383-.019.573,0,.094,0,.188,0,.279,0,.159,0,.316,0,.473,0,.131.009.261.014.39s.011.27.019.4.024.255.035.381a16.766,16.766,0,0,0,.342,2.2c0,.02.009.039.013.061a15.954,15.954,0,0,0,.564,1.9c.072.2.148.388.223.571.058.142.113.288.171.419.127.281.253.545.375.781.052.1.1.185.153.279.083.152.168.307.244.436.053.087.1.163.148.24.063.1.122.194.177.274.039.059.078.114.111.164.15.209.277.368.277.368l9.83.6s-.889-5.446.2-9.462a14.527,14.527,0,0,1,4.167-6.6l.082-.307.009-.031.347-1.272s-1.425.076-3.3.013h-.061c-.957-.033-2.02-.1-3.085-.24l-.17-.018a37.217,37.217,0,0,1-5.612-1.257,3.161,3.161,0,0,0-1.052-.283" transform="translate(-3620.055 -2965.859)" fill="#e76619"/>
        <path id="Tracciato_110562" data-name="Tracciato 110562" d="M2010.108,735.522a29.373,29.373,0,1,1,29.371,29.707,29.54,29.54,0,0,1-29.371-29.707" transform="translate(-1882.068 -660.295)" fill="#d00000"/>
        <path id="Tracciato_110563" data-name="Tracciato 110563" d="M2082.73,805.415a24.727,24.727,0,1,1,24.727,24.932,24.829,24.829,0,0,1-24.727-24.932" transform="translate(-1950.045 -730.188)" fill="#ba0404"/>
        <path id="Tracciato_110564" data-name="Tracciato 110564" d="M2102.913,823.384a23.437,23.437,0,1,1,23.435,23.7,23.571,23.571,0,0,1-23.435-23.7" transform="translate(-1968.938 -748.157)" fill="#fff"/>
        <path id="Tracciato_110565" data-name="Tracciato 110565" d="M2177.733,907.308a18.652,18.652,0,1,1,18.65,18.864,18.757,18.757,0,0,1-18.65-18.864" transform="translate(-2038.972 -831.244)" fill="#e6e6e6"/>
        <path id="Tracciato_110566" data-name="Tracciato 110566" d="M2190.313,919.2a17.847,17.847,0,1,1,17.846,18.051,17.948,17.948,0,0,1-17.846-18.051" transform="translate(-2050.747 -843.137)" fill="#d00000"/>
        <path id="Tracciato_110567" data-name="Tracciato 110567" d="M2260.46,985.618a13.36,13.36,0,1,1,13.36,13.513,13.436,13.436,0,0,1-13.36-13.513" transform="translate(-2116.408 -909.554)" fill="#ba0404"/>
        <path id="Tracciato_110568" data-name="Tracciato 110568" d="M2273.443,997.913a12.53,12.53,0,1,1,12.529,12.672,12.6,12.6,0,0,1-12.529-12.672" transform="translate(-2128.561 -921.849)" fill="#fff"/>
        <path id="Tracciato_110569" data-name="Tracciato 110569" d="M2332.274,1053.62a8.767,8.767,0,1,1,8.766,8.866,8.817,8.817,0,0,1-8.766-8.866" transform="translate(-2183.628 -977.555)" fill="#e6e6e6"/>
        <path id="Tracciato_110570" data-name="Tracciato 110570" d="M2343.388,1064.141a8.056,8.056,0,1,1,8.055,8.147,8.1,8.1,0,0,1-8.055-8.147" transform="translate(-2194.032 -988.077)" fill="#d00000"/>
        <path id="Tracciato_110571" data-name="Tracciato 110571" d="M1942.162,696.615l-34.06-30.3a1.019,1.019,0,1,0-1.3,1.46l34.061,30.3c.54.48,1.839-.979,1.3-1.459" transform="translate(-1784.88 -622.941)" fill="#c88e55"/>
        <path id="Tracciato_110572" data-name="Tracciato 110572" d="M1925.873,611.852l-.643-3.716-7.826-7.4,1.112,4.574Z" transform="translate(-1795.293 -561.935)" fill="#adadad"/>
        <path id="Tracciato_110573" data-name="Tracciato 110573" d="M2020.637,712.621l-.289-2.839-.136,2.459Z" transform="translate(-1891.526 -664.007)" fill="#5e5e5e"/>
        <path id="Tracciato_110574" data-name="Tracciato 110574" d="M2032.913,723.557l-.289-2.837-.136,2.459Z" transform="translate(-1903.016 -674.245)" fill="#5e5e5e"/>
        <path id="Tracciato_110575" data-name="Tracciato 110575" d="M2008.36,701.707l-.289-2.837-.136,2.459Z" transform="translate(-1880.034 -653.793)" fill="#5e5e5e"/>
        <path id="Tracciato_110576" data-name="Tracciato 110576" d="M1996.084,690.795l-.288-2.837-.137,2.459Z" transform="translate(-1868.543 -643.579)" fill="#5e5e5e"/>
        <path id="Tracciato_110577" data-name="Tracciato 110577" d="M1983.808,679.882l-.288-2.837-.137,2.457Z" transform="translate(-1857.052 -633.364)" fill="#5e5e5e"/>
        <path id="Tracciato_110578" data-name="Tracciato 110578" d="M1971.531,668.945l-.288-2.837-.137,2.459Z" transform="translate(-1845.56 -623.126)" fill="#5e5e5e"/>
        <path id="Tracciato_110579" data-name="Tracciato 110579" d="M1959.255,658.032l-.288-2.837-.137,2.459Z" transform="translate(-1834.069 -612.911)" fill="#5e5e5e"/>
        <path id="Tracciato_110580" data-name="Tracciato 110580" d="M1946.98,647.12l-.289-2.837-.137,2.459Z" transform="translate(-1822.578 -602.697)" fill="#5e5e5e"/>
        <path id="Tracciato_110581" data-name="Tracciato 110581" d="M1853.452,693.255l-3.766-.2-8.264-6.911,4.672.572Z" transform="translate(-1724.171 -641.876)" fill="#adadad"/>
        <path id="Tracciato_110582" data-name="Tracciato 110582" d="M1964.813,771.441l-2.851.044,2.427-.422Z" transform="translate(-1837.001 -721.369)" fill="#5e5e5e"/>
        <path id="Tracciato_110583" data-name="Tracciato 110583" d="M1977.09,782.355l-2.852.044,2.427-.423Z" transform="translate(-1848.493 -731.583)" fill="#5e5e5e"/>
        <path id="Tracciato_110584" data-name="Tracciato 110584" d="M1952.537,760.529l-2.851.044,2.427-.422Z" transform="translate(-1825.51 -711.154)" fill="#5e5e5e"/>
        <path id="Tracciato_110585" data-name="Tracciato 110585" d="M1940.261,749.616l-2.851.044,2.427-.422Z" transform="translate(-1814.02 -700.939)" fill="#5e5e5e"/>
        <path id="Tracciato_110586" data-name="Tracciato 110586" d="M1928.009,738.679l-2.85.044,2.425-.422Z" transform="translate(-1802.552 -690.702)" fill="#5e5e5e"/>
        <path id="Tracciato_110587" data-name="Tracciato 110587" d="M1915.733,727.767l-2.851.044,2.425-.422Z" transform="translate(-1791.06 -680.487)" fill="#5e5e5e"/>
        <path id="Tracciato_110588" data-name="Tracciato 110588" d="M1903.457,716.854l-2.852.044,2.425-.422Z" transform="translate(-1779.569 -670.273)" fill="#5e5e5e"/>
        <path id="Tracciato_110589" data-name="Tracciato 110589" d="M1891.18,705.918l-2.852.044,2.425-.423Z" transform="translate(-1768.078 -660.035)" fill="#5e5e5e"/>
        <path id="Tracciato_110590" data-name="Tracciato 110590" d="M1907.308,666.167a1.021,1.021,0,1,0-1.428.221,1.024,1.024,0,0,0,1.428-.221" transform="translate(-1784.115 -621.66)" fill="#815a33"/>
        <path id="Tracciato_110591" data-name="Tracciato 110591" d="M3052.531,1121.564a3.819,3.819,0,0,1,3.819-3.82h61.892a3.819,3.819,0,0,1,3.819,3.82v38.018a3.819,3.819,0,0,1-3.819,3.82H3056.35a3.819,3.819,0,0,1-3.819-3.82Z" transform="translate(-2857.819 -1045.876)" fill="#98ccff"/>
        <path id="Tracciato_110592" data-name="Tracciato 110592" d="M3091.491,1501.18a2.038,2.038,0,0,1,2.037-2.038h15.489a2.038,2.038,0,0,1,2.038,2.038v3.57a2.038,2.038,0,0,1-2.038,2.038h-15.489a2.038,2.038,0,0,1-2.037-2.038Z" transform="translate(-2894.287 -1402.88)" fill="#fff"/>
        <path id="Rettangolo_166404" data-name="Rettangolo 166404" d="M3.822,0H15.741a3.822,3.822,0,0,1,3.822,3.822v0a3.822,3.822,0,0,1-3.822,3.822H3.823A3.823,3.823,0,0,1,0,3.822v0A3.822,3.822,0,0,1,3.822,0Z" transform="translate(197.203 107.738)" fill="#fff"/>
        <path id="Tracciato_110593" data-name="Tracciato 110593" d="M3091.491,1321.742a2.038,2.038,0,0,1,2.037-2.038h15.489a2.038,2.038,0,0,1,2.038,2.038v3.57a2.038,2.038,0,0,1-2.038,2.038h-15.489a2.038,2.038,0,0,1-2.037-2.038Z" transform="translate(-2894.287 -1234.919)" fill="#fff"/>
        <path id="Tracciato_110594" data-name="Tracciato 110594" d="M3443.16,1501.18a2.038,2.038,0,0,1,2.037-2.038h15.489a2.038,2.038,0,0,1,2.037,2.038v3.57a2.038,2.038,0,0,1-2.037,2.038H3445.2a2.038,2.038,0,0,1-2.037-2.038Z" transform="translate(-3223.465 -1402.88)" fill="#fff"/>
        <path id="Tracciato_110595" data-name="Tracciato 110595" d="M3443.16,1680.616a2.037,2.037,0,0,1,2.037-2.037h15.489a2.037,2.037,0,0,1,2.037,2.037v3.571a2.037,2.037,0,0,1-2.037,2.037H3445.2a2.037,2.037,0,0,1-2.037-2.037Z" transform="translate(-3223.465 -1570.841)" fill="#fff"/>
        <path id="Tracciato_110596" data-name="Tracciato 110596" d="M3443.16,1321.742a2.038,2.038,0,0,1,2.037-2.038h15.489a2.038,2.038,0,0,1,2.037,2.038v3.57a2.038,2.038,0,0,1-2.037,2.038H3445.2a2.038,2.038,0,0,1-2.037-2.038Z" transform="translate(-3223.465 -1234.919)" fill="#fff"/>
        <path id="Rettangolo_166405" data-name="Rettangolo 166405" d="M3.823,0H15.741a3.823,3.823,0,0,1,3.823,3.823v0a3.823,3.823,0,0,1-3.823,3.823H3.823A3.823,3.823,0,0,1,0,3.823v0A3.823,3.823,0,0,1,3.823,0Z" transform="translate(242.188 96.261)" fill="#fff"/>
        <path id="Tracciato_110597" data-name="Tracciato 110597" d="M3794.83,1680.616a2.037,2.037,0,0,1,2.037-2.037h15.489a2.037,2.037,0,0,1,2.037,2.037v3.571a2.036,2.036,0,0,1-2.037,2.037h-15.489a2.036,2.036,0,0,1-2.037-2.037Z" transform="translate(-3552.643 -1570.841)" fill="#fff"/>
        <path id="Tracciato_110598" data-name="Tracciato 110598" d="M3794.83,1321.742a2.037,2.037,0,0,1,2.037-2.038h15.489a2.037,2.037,0,0,1,2.037,2.038v3.57a2.037,2.037,0,0,1-2.037,2.038h-15.489a2.037,2.037,0,0,1-2.037-2.038Z" transform="translate(-3552.643 -1234.919)" fill="#fff"/>
        <path id="Rettangolo_166406" data-name="Rettangolo 166406" d="M.316,0H3.925A.316.316,0,0,1,4.24.316v0a.316.316,0,0,1-.316.316H.316A.316.316,0,0,1,0,.316v0A.316.316,0,0,1,.316,0Z" transform="translate(211.263 88.615)" fill="#8dafd7"/>
        <path id="Rettangolo_166407" data-name="Rettangolo 166407" d="M.316,0H3.925A.316.316,0,0,1,4.24.316v0a.316.316,0,0,1-.316.316H.316A.316.316,0,0,1,0,.316v0A.316.316,0,0,1,.316,0Z" transform="translate(198.467 86.933)" fill="#5992d5"/>
        <path id="Tracciato_110599" data-name="Tracciato 110599" d="M3174.4,1405.382a.316.316,0,0,1,.316-.316h3.608a.316.316,0,0,1,0,.632h-3.608a.316.316,0,0,1-.316-.316" transform="translate(-2971.896 -1314.822)" fill="#8dafd7"/>
        <path id="Tracciato_110600" data-name="Tracciato 110600" d="M3269.932,1379.886a.288.288,0,0,1,.289-.288h1.8a.288.288,0,0,1,.289.288v.055a.289.289,0,0,1-.289.289h-1.8a.289.289,0,0,1-.289-.289Z" transform="translate(-3061.316 -1290.983)" fill="#8dafd7"/>
        <path id="Tracciato_110601" data-name="Tracciato 110601" d="M3184.166,1353.579a.288.288,0,0,0-.288-.288h-1.8a.288.288,0,0,0-.289.288v.055a.288.288,0,0,0,.289.289h1.8a.288.288,0,0,0,.288-.289Z" transform="translate(-2978.812 -1266.358)" fill="#5992d5"/>
        <path id="Tracciato_110602" data-name="Tracciato 110602" d="M3133.023,1405.382a.316.316,0,0,1,.316-.316h1.743a.316.316,0,0,1,0,.632h-1.743a.316.316,0,0,1-.316-.316" transform="translate(-2933.163 -1314.822)" fill="#8dafd7"/>
        <path id="Rettangolo_166408" data-name="Rettangolo 166408" d="M.316,0h.959A.316.316,0,0,1,1.59.316v0a.316.316,0,0,1-.316.316H.316A.316.316,0,0,1,0,.316v0A.316.316,0,0,1,.316,0Z" transform="translate(198.467 88.615)" fill="#8dafd7"/>
        <path id="Rettangolo_166409" data-name="Rettangolo 166409" d="M.316,0h.5a.316.316,0,0,1,.316.316v0A.316.316,0,0,1,.818.631h-.5A.316.316,0,0,1,0,.316v0A.316.316,0,0,1,.316,0Z" transform="translate(207.224 88.615)" fill="#8dafd7"/>
        <path id="Tracciato_110603" data-name="Tracciato 110603" d="M3111.25,1405.382a.316.316,0,0,1,.316-.316h.5a.316.316,0,0,1,0,.632h-.5a.316.316,0,0,1-.316-.316" transform="translate(-2912.783 -1314.822)" fill="#8dafd7"/>
        <path id="Tracciato_110604" data-name="Tracciato 110604" d="M3143.172,1379.895a.3.3,0,0,1,.3-.3h.709a.3.3,0,0,1,.3.3v.037a.3.3,0,0,1-.3.3h-.709a.3.3,0,0,1-.3-.3Z" transform="translate(-2942.663 -1290.983)" fill="#8dafd7"/>
        <path id="Tracciato_110605" data-name="Tracciato 110605" d="M3167.239,1379.891a.293.293,0,0,1,.293-.293h.428a.293.293,0,0,1,.293.293v.045a.294.294,0,0,1-.293.294h-.428a.294.294,0,0,1-.293-.294Z" transform="translate(-2965.191 -1290.983)" fill="#8dafd7"/>
        <path id="Tracciato_110606" data-name="Tracciato 110606" d="M3186.306,1379.907a.308.308,0,0,1,.309-.308h2.861a.308.308,0,0,1,.309.308v.015a.309.309,0,0,1-.309.309h-2.861a.309.309,0,0,1-.309-.309Z" transform="translate(-2983.038 -1290.983)" fill="#8dafd7"/>
        <path id="Tracciato_110607" data-name="Tracciato 110607" d="M3662.981,1734.373a.3.3,0,0,1,.3-.295h3.651a.3.3,0,0,1,.295.295v.043a.3.3,0,0,1-.295.295h-3.651a.3.3,0,0,1-.3-.295Z" transform="translate(-3429.226 -1622.791)" fill="#8dafd7"/>
        <path id="Rettangolo_166410" data-name="Rettangolo 166410" d="M.316,0H3.925A.316.316,0,0,1,4.24.316v0a.316.316,0,0,1-.316.316H.316A.316.316,0,0,1,0,.316v0A.316.316,0,0,1,.316,0Z" transform="translate(220.959 109.606)" fill="#5992d5"/>
        <path id="Tracciato_110608" data-name="Tracciato 110608" d="M3526.072,1759.878a.316.316,0,0,1,.316-.316H3530a.316.316,0,1,1,0,.632h-3.608a.316.316,0,0,1-.316-.315" transform="translate(-3301.074 -1646.645)" fill="#8dafd7"/>
        <path id="Rettangolo_166411" data-name="Rettangolo 166411" d="M.316,0H2.059a.316.316,0,0,1,.316.316v0a.316.316,0,0,1-.316.316H.316A.316.316,0,0,1,0,.316v0A.316.316,0,0,1,.316,0Z" transform="translate(231.108 111.287)" fill="#8dafd7"/>
        <path id="Tracciato_110609" data-name="Tracciato 110609" d="M3535.834,1708.074a.288.288,0,0,0-.289-.288h-1.8a.289.289,0,0,0-.289.288v.055a.29.29,0,0,0,.289.289h1.8a.289.289,0,0,0,.289-.289Z" transform="translate(-3307.988 -1598.18)" fill="#5992d5"/>
        <path id="Tracciato_110610" data-name="Tracciato 110610" d="M3484.692,1759.878a.316.316,0,0,1,.316-.316h1.743a.316.316,0,1,1,0,.632h-1.743a.315.315,0,0,1-.316-.315" transform="translate(-3262.34 -1646.645)" fill="#8dafd7"/>
        <path id="Tracciato_110611" data-name="Tracciato 110611" d="M3462.92,1734.387a.308.308,0,0,1,.307-.309h.975a.309.309,0,0,1,.308.309v.016a.308.308,0,0,1-.308.307h-.975a.307.307,0,0,1-.307-.307Z" transform="translate(-3241.96 -1622.791)" fill="#8dafd7"/>
        <path id="Tracciato_110612" data-name="Tracciato 110612" d="M3599.829,1734.36a.281.281,0,0,1,.281-.282h.572a.282.282,0,0,1,.281.282v.069a.281.281,0,0,1-.281.281h-.572a.281.281,0,0,1-.281-.281Z" transform="translate(-3370.113 -1622.791)" fill="#8dafd7"/>
        <path id="Tracciato_110613" data-name="Tracciato 110613" d="M3462.92,1759.878a.316.316,0,0,1,.316-.316h.5a.316.316,0,0,1,0,.632h-.5a.315.315,0,0,1-.316-.315" transform="translate(-3241.96 -1646.645)" fill="#8dafd7"/>
        <path id="Tracciato_110614" data-name="Tracciato 110614" d="M3494.841,1734.376a.3.3,0,0,1,.3-.3h.709a.3.3,0,0,1,.3.3v.037a.3.3,0,0,1-.3.3h-.709a.3.3,0,0,1-.3-.3Z" transform="translate(-3271.84 -1622.791)" fill="#8dafd7"/>
        <path id="Tracciato_110615" data-name="Tracciato 110615" d="M3518.909,1734.372a.294.294,0,0,1,.293-.294h.428a.294.294,0,0,1,.294.294v.045a.294.294,0,0,1-.294.294h-.428a.293.293,0,0,1-.293-.294Z" transform="translate(-3294.369 -1622.791)" fill="#8dafd7"/>
        <path id="Tracciato_110616" data-name="Tracciato 110616" d="M3537.976,1734.388a.309.309,0,0,1,.309-.309h2.861a.309.309,0,0,1,.309.309v.014a.309.309,0,0,1-.309.309h-2.861a.309.309,0,0,1-.309-.309Z" transform="translate(-3312.216 -1622.791)" fill="#8dafd7"/>
        <path id="Rettangolo_166412" data-name="Rettangolo 166412" d="M.316,0H3.925A.316.316,0,0,1,4.24.316v0a.316.316,0,0,1-.316.316H.316A.316.316,0,0,1,0,.316v0A.316.316,0,0,1,.316,0Z" transform="translate(233.755 99.812)" fill="#8dafd7"/>
        <path id="Rettangolo_166413" data-name="Rettangolo 166413" d="M.316,0H3.925A.316.316,0,0,1,4.24.316v0a.316.316,0,0,1-.316.316H.316A.316.316,0,0,1,0,.316v0A.316.316,0,0,1,.316,0Z" transform="translate(220.959 98.129)" fill="#5992d5"/>
        <path id="Tracciato_110617" data-name="Tracciato 110617" d="M3526.072,1580.44a.316.316,0,0,1,.316-.316H3530a.316.316,0,0,1,0,.632h-3.608a.316.316,0,0,1-.316-.316" transform="translate(-3301.074 -1478.683)" fill="#8dafd7"/>
        <path id="Tracciato_110618" data-name="Tracciato 110618" d="M3621.6,1554.944a.288.288,0,0,1,.289-.288h1.8a.288.288,0,0,1,.289.288V1555a.289.289,0,0,1-.289.289h-1.8a.289.289,0,0,1-.289-.289Z" transform="translate(-3390.493 -1454.844)" fill="#8dafd7"/>
        <path id="Tracciato_110619" data-name="Tracciato 110619" d="M3535.834,1528.638a.289.289,0,0,0-.289-.289h-1.8a.289.289,0,0,0-.289.289v.054a.289.289,0,0,0,.289.289h1.8a.289.289,0,0,0,.289-.289Z" transform="translate(-3307.988 -1430.22)" fill="#5992d5"/>
        <path id="Tracciato_110620" data-name="Tracciato 110620" d="M3484.692,1580.44a.316.316,0,0,1,.316-.316h1.743a.316.316,0,0,1,0,.632h-1.743a.316.316,0,0,1-.316-.316" transform="translate(-3262.34 -1478.683)" fill="#8dafd7"/>
        <path id="Rettangolo_166414" data-name="Rettangolo 166414" d="M.316,0h.958A.316.316,0,0,1,1.59.316v0a.316.316,0,0,1-.316.316H.316A.316.316,0,0,1,0,.316v0A.316.316,0,0,1,.316,0Z" transform="translate(220.959 99.812)" fill="#8dafd7"/>
        <path id="Rettangolo_166415" data-name="Rettangolo 166415" d="M.316,0h.5a.316.316,0,0,1,.316.316v0A.316.316,0,0,1,.818.631h-.5A.316.316,0,0,1,0,.316v0A.316.316,0,0,1,.316,0Z" transform="translate(229.716 99.812)" fill="#8dafd7"/>
        <path id="Tracciato_110621" data-name="Tracciato 110621" d="M3462.92,1580.44a.316.316,0,0,1,.316-.316h.5a.316.316,0,0,1,0,.632h-.5a.316.316,0,0,1-.316-.316" transform="translate(-3241.96 -1478.683)" fill="#8dafd7"/>
        <path id="Tracciato_110622" data-name="Tracciato 110622" d="M3494.841,1554.953a.3.3,0,0,1,.3-.3h.709a.3.3,0,0,1,.3.3v.038a.3.3,0,0,1-.3.3h-.709a.3.3,0,0,1-.3-.3Z" transform="translate(-3271.84 -1454.844)" fill="#8dafd7"/>
        <path id="Tracciato_110623" data-name="Tracciato 110623" d="M3518.909,1554.949a.292.292,0,0,1,.293-.293h.428a.293.293,0,0,1,.294.293v.045a.294.294,0,0,1-.294.294h-.428a.294.294,0,0,1-.293-.294Z" transform="translate(-3294.369 -1454.844)" fill="#8dafd7"/>
        <path id="Tracciato_110624" data-name="Tracciato 110624" d="M3537.976,1554.964a.308.308,0,0,1,.309-.308h2.861a.308.308,0,0,1,.309.308v.015a.309.309,0,0,1-.309.309h-2.861a.309.309,0,0,1-.309-.309Z" transform="translate(-3312.216 -1454.844)" fill="#8dafd7"/>
        <path id="Tracciato_110625" data-name="Tracciato 110625" d="M3662.981,1374.98a.3.3,0,0,1,.3-.295h3.651a.3.3,0,0,1,.295.295v.043a.3.3,0,0,1-.295.3h-3.651a.3.3,0,0,1-.3-.3Z" transform="translate(-3429.226 -1286.384)" fill="#8dafd7"/>
        <rect id="Rettangolo_166416" data-name="Rettangolo 166416" width="4.24" height="0.631" rx="0.316" transform="translate(220.959 86.653)" fill="#5992d5"/>
        <path id="Tracciato_110626" data-name="Tracciato 110626" d="M3526.072,1400.483a.316.316,0,0,1,.316-.315H3530a.316.316,0,1,1,0,.631h-3.608a.316.316,0,0,1-.316-.316" transform="translate(-3301.074 -1310.237)" fill="#8dafd7"/>
        <path id="Rettangolo_166417" data-name="Rettangolo 166417" d="M.316,0H2.059a.316.316,0,0,1,.316.316v0a.316.316,0,0,1-.316.316H.316A.316.316,0,0,1,0,.316v0A.316.316,0,0,1,.316,0Z" transform="translate(231.108 88.301)" fill="#8dafd7"/>
        <path id="Tracciato_110627" data-name="Tracciato 110627" d="M3535.834,1349.2a.289.289,0,0,0-.289-.289h-1.8a.289.289,0,0,0-.289.289v.055a.289.289,0,0,0,.289.288h1.8a.288.288,0,0,0,.289-.288Z" transform="translate(-3307.988 -1262.258)" fill="#5992d5"/>
        <path id="Tracciato_110628" data-name="Tracciato 110628" d="M3484.692,1400.483a.316.316,0,0,1,.316-.315h1.743a.316.316,0,1,1,0,.631h-1.743a.316.316,0,0,1-.316-.316" transform="translate(-3262.34 -1310.237)" fill="#8dafd7"/>
        <path id="Tracciato_110629" data-name="Tracciato 110629" d="M3602.081,1400.483a.316.316,0,0,1,.316-.315h1.743a.316.316,0,1,1,0,.631H3602.4a.316.316,0,0,1-.316-.316" transform="translate(-3372.221 -1310.237)" fill="#8dafd7"/>
        <path id="Tracciato_110630" data-name="Tracciato 110630" d="M3462.92,1374.993a.307.307,0,0,1,.307-.307h.975a.308.308,0,0,1,.308.307v.017a.309.309,0,0,1-.308.309h-.975a.308.308,0,0,1-.307-.309Z" transform="translate(-3241.96 -1286.384)" fill="#8dafd7"/>
        <path id="Tracciato_110631" data-name="Tracciato 110631" d="M3599.829,1374.966a.281.281,0,0,1,.281-.281h.572a.281.281,0,0,1,.281.281v.069a.282.282,0,0,1-.281.282h-.572a.281.281,0,0,1-.281-.282Z" transform="translate(-3370.113 -1286.384)" fill="#8dafd7"/>
        <path id="Rettangolo_166418" data-name="Rettangolo 166418" d="M.316,0h.5a.316.316,0,0,1,.316.316v0A.316.316,0,0,1,.818.631h-.5A.316.316,0,0,1,0,.316v0A.316.316,0,0,1,.316,0Z" transform="translate(228.105 86.653)" fill="#5992d5"/>
        <path id="Tracciato_110632" data-name="Tracciato 110632" d="M3462.92,1400.483a.316.316,0,0,1,.316-.315h.5a.316.316,0,1,1,0,.631h-.5a.316.316,0,0,1-.316-.316" transform="translate(-3241.96 -1310.237)" fill="#8dafd7"/>
        <path id="Tracciato_110633" data-name="Tracciato 110633" d="M3494.841,1374.983a.3.3,0,0,1,.3-.3h.709a.3.3,0,0,1,.3.3v.037a.3.3,0,0,1-.3.3h-.709a.3.3,0,0,1-.3-.3Z" transform="translate(-3271.84 -1286.384)" fill="#8dafd7"/>
        <path id="Tracciato_110634" data-name="Tracciato 110634" d="M3518.909,1374.98a.293.293,0,0,1,.293-.294h.428a.294.294,0,0,1,.294.294v.045a.294.294,0,0,1-.294.294h-.428a.293.293,0,0,1-.293-.294Z" transform="translate(-3294.369 -1286.385)" fill="#8dafd7"/>
        <path id="Tracciato_110635" data-name="Tracciato 110635" d="M3537.976,1374.995a.309.309,0,0,1,.309-.309h2.861a.309.309,0,0,1,.309.309v.013a.309.309,0,0,1-.309.31h-2.861a.309.309,0,0,1-.309-.31Z" transform="translate(-3312.216 -1286.384)" fill="#8dafd7"/>
        <path id="Tracciato_110636" data-name="Tracciato 110636" d="M4014.65,1734.373a.3.3,0,0,1,.295-.295h3.651a.3.3,0,0,1,.294.295v.043a.294.294,0,0,1-.294.295h-3.651a.3.3,0,0,1-.295-.295Z" transform="translate(-3758.403 -1622.791)" fill="#8dafd7"/>
        <path id="Tracciato_110637" data-name="Tracciato 110637" d="M3818.83,1708.6a.3.3,0,0,0-.294-.295h-3.651a.3.3,0,0,0-.294.295v.043a.294.294,0,0,0,.294.295h3.651a.3.3,0,0,0,.294-.295Z" transform="translate(-3571.138 -1598.666)" fill="#5992d5"/>
        <path id="Tracciato_110638" data-name="Tracciato 110638" d="M3877.741,1759.878a.316.316,0,0,1,.316-.316h3.609a.316.316,0,0,1,0,.632h-3.609a.315.315,0,0,1-.316-.315" transform="translate(-3630.25 -1646.645)" fill="#8dafd7"/>
        <path id="Rettangolo_166419" data-name="Rettangolo 166419" d="M.316,0H2.059a.316.316,0,0,1,.316.316v0a.316.316,0,0,1-.316.316H.316A.316.316,0,0,1,0,.316v0A.316.316,0,0,1,.316,0Z" transform="translate(253.601 111.287)" fill="#8dafd7"/>
        <path id="Tracciato_110639" data-name="Tracciato 110639" d="M3887.505,1708.594a.289.289,0,0,0-.289-.289h-1.8a.289.289,0,0,0-.289.289v.055a.289.289,0,0,0,.289.289h1.8a.289.289,0,0,0,.289-.289Z" transform="translate(-3637.167 -1598.666)" fill="#5992d5"/>
        <path id="Tracciato_110640" data-name="Tracciato 110640" d="M3836.362,1759.878a.316.316,0,0,1,.316-.316h1.744a.316.316,0,1,1,0,.632h-1.744a.316.316,0,0,1-.316-.315" transform="translate(-3591.518 -1646.645)" fill="#8dafd7"/>
        <path id="Tracciato_110641" data-name="Tracciato 110641" d="M3953.751,1759.878a.316.316,0,0,1,.316-.316h1.743a.316.316,0,1,1,0,.632h-1.743a.316.316,0,0,1-.316-.315" transform="translate(-3701.399 -1646.645)" fill="#8dafd7"/>
        <path id="Tracciato_110642" data-name="Tracciato 110642" d="M3814.59,1734.387a.308.308,0,0,1,.307-.309h.975a.308.308,0,0,1,.308.309v.016a.307.307,0,0,1-.308.307h-.975a.307.307,0,0,1-.307-.307Z" transform="translate(-3571.138 -1622.791)" fill="#8dafd7"/>
        <path id="Tracciato_110643" data-name="Tracciato 110643" d="M3951.5,1734.36a.282.282,0,0,1,.281-.282h.571a.282.282,0,0,1,.281.282v.069a.281.281,0,0,1-.281.281h-.571a.281.281,0,0,1-.281-.281Z" transform="translate(-3699.29 -1622.791)" fill="#8dafd7"/>
        <path id="Tracciato_110644" data-name="Tracciato 110644" d="M3927.445,1708.587a.281.281,0,0,0-.281-.282h-.572a.282.282,0,0,0-.281.282v.069a.281.281,0,0,0,.281.281h.572a.281.281,0,0,0,.281-.281Z" transform="translate(-3675.714 -1598.666)" fill="#5992d5"/>
        <path id="Tracciato_110645" data-name="Tracciato 110645" d="M3814.59,1759.878a.316.316,0,0,1,.315-.316h.5a.316.316,0,1,1,0,.632h-.5a.315.315,0,0,1-.315-.315" transform="translate(-3571.138 -1646.645)" fill="#8dafd7"/>
        <path id="Tracciato_110646" data-name="Tracciato 110646" d="M3846.511,1734.376a.3.3,0,0,1,.3-.3h.709a.3.3,0,0,1,.3.3v.037a.3.3,0,0,1-.3.3h-.709a.3.3,0,0,1-.3-.3Z" transform="translate(-3601.018 -1622.791)" fill="#8dafd7"/>
        <path id="Tracciato_110647" data-name="Tracciato 110647" d="M3870.578,1734.372a.294.294,0,0,1,.293-.294h.428a.294.294,0,0,1,.294.294v.045a.294.294,0,0,1-.294.294h-.428a.294.294,0,0,1-.293-.294Z" transform="translate(-3623.546 -1622.791)" fill="#8dafd7"/>
        <path id="Tracciato_110648" data-name="Tracciato 110648" d="M3889.645,1734.388a.309.309,0,0,1,.309-.309h2.861a.309.309,0,0,1,.309.309v.014a.309.309,0,0,1-.309.309h-2.861a.309.309,0,0,1-.309-.309Z" transform="translate(-3641.393 -1622.791)" fill="#8dafd7"/>
        <path id="Rettangolo_166420" data-name="Rettangolo 166420" d="M.316,0H3.925A.316.316,0,0,1,4.24.316v0a.316.316,0,0,1-.316.316H.316A.316.316,0,0,1,0,.316v0A.316.316,0,0,1,.316,0Z" transform="translate(256.247 99.778)" fill="#8dafd7"/>
        <path id="Rettangolo_166421" data-name="Rettangolo 166421" d="M.316,0H3.925A.316.316,0,0,1,4.24.316v0a.316.316,0,0,1-.316.316H.316A.316.316,0,0,1,0,.316v0A.316.316,0,0,1,.316,0Z" transform="translate(243.452 98.129)" fill="#5992d5"/>
        <path id="Tracciato_110649" data-name="Tracciato 110649" d="M3877.741,1579.921a.315.315,0,0,1,.316-.315h3.609a.316.316,0,0,1,0,.631h-3.609a.316.316,0,0,1-.316-.316" transform="translate(-3630.25 -1478.198)" fill="#8dafd7"/>
        <path id="Tracciato_110650" data-name="Tracciato 110650" d="M3973.271,1554.411a.288.288,0,0,1,.289-.289h1.8a.288.288,0,0,1,.289.289v.055a.288.288,0,0,1-.289.288h-1.8a.288.288,0,0,1-.289-.288Z" transform="translate(-3719.671 -1454.344)" fill="#8dafd7"/>
        <path id="Tracciato_110651" data-name="Tracciato 110651" d="M3887.505,1528.638a.288.288,0,0,0-.289-.289h-1.8a.289.289,0,0,0-.289.289v.054a.289.289,0,0,0,.289.289h1.8a.288.288,0,0,0,.289-.289Z" transform="translate(-3637.167 -1430.22)" fill="#5992d5"/>
        <path id="Tracciato_110652" data-name="Tracciato 110652" d="M3836.362,1579.921a.315.315,0,0,1,.316-.315h1.744a.316.316,0,1,1,0,.631h-1.744a.316.316,0,0,1-.316-.316" transform="translate(-3591.518 -1478.198)" fill="#8dafd7"/>
        <path id="Tracciato_110653" data-name="Tracciato 110653" d="M3953.751,1579.921a.315.315,0,0,1,.316-.315h1.743a.316.316,0,1,1,0,.631h-1.743a.316.316,0,0,1-.316-.316" transform="translate(-3701.399 -1478.198)" fill="#8dafd7"/>
        <path id="Rettangolo_166422" data-name="Rettangolo 166422" d="M.316,0h.958A.316.316,0,0,1,1.59.316v0a.316.316,0,0,1-.316.316H.316A.316.316,0,0,1,0,.316v0A.316.316,0,0,1,.316,0Z" transform="translate(243.452 99.778)" fill="#8dafd7"/>
        <path id="Rettangolo_166423" data-name="Rettangolo 166423" d="M.316,0h.5a.316.316,0,0,1,.316.316v0A.316.316,0,0,1,.818.631h-.5A.316.316,0,0,1,0,.316v0A.316.316,0,0,1,.316,0Z" transform="translate(252.208 99.778)" fill="#8dafd7"/>
        <path id="Tracciato_110654" data-name="Tracciato 110654" d="M3927.445,1528.63a.281.281,0,0,0-.281-.281h-.572a.281.281,0,0,0-.281.281v.069a.281.281,0,0,0,.281.281h.572a.281.281,0,0,0,.281-.281Z" transform="translate(-3675.714 -1430.22)" fill="#5992d5"/>
        <path id="Tracciato_110655" data-name="Tracciato 110655" d="M3814.59,1579.921a.315.315,0,0,1,.315-.315h.5a.316.316,0,1,1,0,.631h-.5a.316.316,0,0,1-.315-.316" transform="translate(-3571.138 -1478.198)" fill="#8dafd7"/>
        <path id="Tracciato_110656" data-name="Tracciato 110656" d="M3846.511,1554.419a.3.3,0,0,1,.3-.3h.709a.3.3,0,0,1,.3.3v.038a.3.3,0,0,1-.3.3h-.709a.3.3,0,0,1-.3-.3Z" transform="translate(-3601.018 -1454.344)" fill="#8dafd7"/>
        <path id="Tracciato_110657" data-name="Tracciato 110657" d="M3870.578,1554.416a.294.294,0,0,1,.293-.294h.428a.294.294,0,0,1,.294.294v.045a.293.293,0,0,1-.294.293h-.428a.293.293,0,0,1-.293-.293Z" transform="translate(-3623.546 -1454.344)" fill="#8dafd7"/>
        <path id="Tracciato_110658" data-name="Tracciato 110658" d="M3889.645,1554.431a.309.309,0,0,1,.309-.308h2.861a.309.309,0,0,1,.309.308v.015a.308.308,0,0,1-.309.308h-2.861a.308.308,0,0,1-.309-.308Z" transform="translate(-3641.393 -1454.345)" fill="#8dafd7"/>
        <path id="Tracciato_110659" data-name="Tracciato 110659" d="M4014.65,1374.98a.3.3,0,0,1,.295-.295h3.651a.294.294,0,0,1,.294.295v.043a.3.3,0,0,1-.294.3h-3.651a.3.3,0,0,1-.295-.3Z" transform="translate(-3758.403 -1286.384)" fill="#8dafd7"/>
        <path id="Rettangolo_166424" data-name="Rettangolo 166424" d="M.316,0H3.925A.316.316,0,0,1,4.24.316v0a.316.316,0,0,1-.316.316H.316A.316.316,0,0,1,0,.316v0A.316.316,0,0,1,.316,0Z" transform="translate(243.452 86.653)" fill="#5992d5"/>
        <path id="Tracciato_110660" data-name="Tracciato 110660" d="M3877.741,1400.483a.316.316,0,0,1,.316-.315h3.609a.316.316,0,1,1,0,.631h-3.609a.316.316,0,0,1-.316-.316" transform="translate(-3630.25 -1310.237)" fill="#8dafd7"/>
        <path id="Rettangolo_166425" data-name="Rettangolo 166425" d="M.316,0H2.059a.316.316,0,0,1,.316.316v0a.316.316,0,0,1-.316.316H.316A.316.316,0,0,1,0,.316v0A.316.316,0,0,1,.316,0Z" transform="translate(253.601 88.301)" fill="#8dafd7"/>
        <path id="Tracciato_110661" data-name="Tracciato 110661" d="M3887.505,1349.2a.288.288,0,0,0-.289-.289h-1.8a.289.289,0,0,0-.289.289v.055a.288.288,0,0,0,.289.288h1.8a.288.288,0,0,0,.289-.288Z" transform="translate(-3637.167 -1262.258)" fill="#5992d5"/>
        <path id="Tracciato_110662" data-name="Tracciato 110662" d="M3836.362,1400.483a.316.316,0,0,1,.316-.315h1.744a.316.316,0,1,1,0,.631h-1.744a.316.316,0,0,1-.316-.316" transform="translate(-3591.518 -1310.237)" fill="#8dafd7"/>
        <path id="Tracciato_110663" data-name="Tracciato 110663" d="M3953.751,1400.483a.316.316,0,0,1,.316-.315h1.743a.316.316,0,1,1,0,.631h-1.743a.316.316,0,0,1-.316-.316" transform="translate(-3701.399 -1310.237)" fill="#8dafd7"/>
        <path id="Tracciato_110664" data-name="Tracciato 110664" d="M3814.59,1374.993a.307.307,0,0,1,.307-.307h.975a.307.307,0,0,1,.308.307v.017a.308.308,0,0,1-.308.309h-.975a.308.308,0,0,1-.307-.309Z" transform="translate(-3571.138 -1286.384)" fill="#8dafd7"/>
        <path id="Tracciato_110665" data-name="Tracciato 110665" d="M3951.5,1374.966a.281.281,0,0,1,.281-.281h.571a.281.281,0,0,1,.281.281v.069a.282.282,0,0,1-.281.282h-.571a.282.282,0,0,1-.281-.282Z" transform="translate(-3699.29 -1286.384)" fill="#8dafd7"/>
        <path id="Tracciato_110666" data-name="Tracciato 110666" d="M3927.445,1349.192a.281.281,0,0,0-.281-.281h-.572a.281.281,0,0,0-.281.281v.069a.281.281,0,0,0,.281.281h.572a.281.281,0,0,0,.281-.281Z" transform="translate(-3675.714 -1262.258)" fill="#5992d5"/>
        <path id="Tracciato_110667" data-name="Tracciato 110667" d="M3814.59,1400.483a.316.316,0,0,1,.315-.315h.5a.316.316,0,1,1,0,.631h-.5a.316.316,0,0,1-.315-.316" transform="translate(-3571.138 -1310.237)" fill="#8dafd7"/>
        <path id="Tracciato_110668" data-name="Tracciato 110668" d="M3994.932,1400.483a.316.316,0,0,1,.316-.315h.5a.316.316,0,1,1,0,.631h-.5a.316.316,0,0,1-.316-.316" transform="translate(-3739.946 -1310.237)" fill="#8dafd7"/>
        <path id="Tracciato_110669" data-name="Tracciato 110669" d="M3846.511,1374.983a.3.3,0,0,1,.3-.3h.709a.3.3,0,0,1,.3.3v.037a.3.3,0,0,1-.3.3h-.709a.3.3,0,0,1-.3-.3Z" transform="translate(-3601.018 -1286.384)" fill="#8dafd7"/>
        <path id="Tracciato_110670" data-name="Tracciato 110670" d="M4017.69,1400.483a.316.316,0,0,1,.316-.315h.5a.316.316,0,1,1,0,.631h-.5a.316.316,0,0,1-.316-.316" transform="translate(-3761.248 -1310.237)" fill="#8dafd7"/>
        <path id="Tracciato_110671" data-name="Tracciato 110671" d="M3870.578,1374.98a.294.294,0,0,1,.293-.294h.428a.294.294,0,0,1,.294.294v.045a.294.294,0,0,1-.294.294h-.428a.294.294,0,0,1-.293-.294Z" transform="translate(-3623.546 -1286.385)" fill="#8dafd7"/>
        <path id="Tracciato_110672" data-name="Tracciato 110672" d="M3889.645,1374.995a.309.309,0,0,1,.309-.309h2.861a.309.309,0,0,1,.309.309v.013a.31.31,0,0,1-.309.31h-2.861a.309.309,0,0,1-.309-.31Z" transform="translate(-3641.393 -1286.384)" fill="#8dafd7"/>
        <path id="Rettangolo_166426" data-name="Rettangolo 166426" d="M.316,0H3.925A.316.316,0,0,1,4.24.316v0a.316.316,0,0,1-.316.316H.316A.316.316,0,0,1,0,.316v0A.316.316,0,0,1,.316,0Z" transform="translate(211.263 111.254)" fill="#8dafd7"/>
        <path id="Rettangolo_166427" data-name="Rettangolo 166427" d="M.316,0H3.925A.316.316,0,0,1,4.24.316v0a.316.316,0,0,1-.316.316H.316A.316.316,0,0,1,0,.316v0A.316.316,0,0,1,.316,0Z" transform="translate(198.467 109.606)" fill="#5992d5"/>
        <path id="Tracciato_110673" data-name="Tracciato 110673" d="M3174.4,1759.344a.316.316,0,0,1,.316-.316h3.608a.316.316,0,0,1,0,.632h-3.608a.316.316,0,0,1-.316-.316" transform="translate(-2971.896 -1646.145)" fill="#8dafd7"/>
        <path id="Tracciato_110674" data-name="Tracciato 110674" d="M3269.932,1733.848a.288.288,0,0,1,.289-.288h1.8a.288.288,0,0,1,.289.288v.055a.289.289,0,0,1-.289.289h-1.8a.289.289,0,0,1-.289-.289Z" transform="translate(-3061.316 -1622.306)" fill="#8dafd7"/>
        <path id="Tracciato_110675" data-name="Tracciato 110675" d="M3184.166,1708.074a.288.288,0,0,0-.288-.288h-1.8a.288.288,0,0,0-.289.288v.055a.289.289,0,0,0,.289.289h1.8a.289.289,0,0,0,.288-.289Z" transform="translate(-2978.812 -1598.18)" fill="#5992d5"/>
        <path id="Tracciato_110676" data-name="Tracciato 110676" d="M3133.023,1759.344a.316.316,0,0,1,.316-.316h1.743a.316.316,0,0,1,0,.632h-1.743a.316.316,0,0,1-.316-.316" transform="translate(-2933.163 -1646.145)" fill="#8dafd7"/>
        <path id="Tracciato_110677" data-name="Tracciato 110677" d="M3250.412,1759.344a.316.316,0,0,1,.316-.316h1.743a.316.316,0,1,1,0,.632h-1.743a.316.316,0,0,1-.316-.316" transform="translate(-3043.044 -1646.145)" fill="#8dafd7"/>
        <path id="Tracciato_110678" data-name="Tracciato 110678" d="M3111.25,1733.867a.308.308,0,0,1,.308-.307h.975a.307.307,0,0,1,.308.307v.017a.307.307,0,0,1-.308.307h-.975a.307.307,0,0,1-.308-.307Z" transform="translate(-2912.783 -1622.306)" fill="#8dafd7"/>
        <path id="Rettangolo_166428" data-name="Rettangolo 166428" d="M.316,0h.5a.316.316,0,0,1,.316.316v0A.316.316,0,0,1,.818.631h-.5A.316.316,0,0,1,0,.316v0A.316.316,0,0,1,.316,0Z" transform="translate(207.224 111.254)" fill="#8dafd7"/>
        <path id="Rettangolo_166429" data-name="Rettangolo 166429" d="M.316,0h.5a.316.316,0,0,1,.316.316v0A.316.316,0,0,1,.818.631h-.5A.316.316,0,0,1,0,.316v0A.316.316,0,0,1,.316,0Z" transform="translate(205.613 109.606)" fill="#5992d5"/>
        <path id="Tracciato_110679" data-name="Tracciato 110679" d="M3111.25,1759.344a.316.316,0,0,1,.316-.316h.5a.316.316,0,0,1,0,.632h-.5a.316.316,0,0,1-.316-.316" transform="translate(-2912.783 -1646.145)" fill="#8dafd7"/>
        <path id="Tracciato_110680" data-name="Tracciato 110680" d="M3291.593,1759.344a.316.316,0,0,1,.316-.316h.5a.316.316,0,1,1,0,.632h-.5a.316.316,0,0,1-.316-.316" transform="translate(-3081.592 -1646.145)" fill="#8dafd7"/>
        <path id="Tracciato_110681" data-name="Tracciato 110681" d="M3143.172,1733.857a.3.3,0,0,1,.3-.3h.709a.3.3,0,0,1,.3.3v.037a.3.3,0,0,1-.3.3h-.709a.3.3,0,0,1-.3-.3Z" transform="translate(-2942.663 -1622.306)" fill="#8dafd7"/>
        <path id="Tracciato_110682" data-name="Tracciato 110682" d="M3314.351,1759.344a.316.316,0,0,1,.316-.316h.5a.316.316,0,0,1,0,.632h-.5a.316.316,0,0,1-.316-.316" transform="translate(-3102.894 -1646.145)" fill="#8dafd7"/>
        <path id="Tracciato_110683" data-name="Tracciato 110683" d="M3167.239,1733.853a.293.293,0,0,1,.293-.293h.428a.293.293,0,0,1,.293.293v.045a.294.294,0,0,1-.293.294h-.428a.294.294,0,0,1-.293-.294Z" transform="translate(-2965.191 -1622.306)" fill="#8dafd7"/>
        <path id="Tracciato_110684" data-name="Tracciato 110684" d="M3186.306,1733.87a.308.308,0,0,1,.309-.308h2.861a.308.308,0,0,1,.309.308v.015a.309.309,0,0,1-.309.309h-2.861a.309.309,0,0,1-.309-.309Z" transform="translate(-2983.038 -1622.307)" fill="#8dafd7"/>
        <path id="Rettangolo_166430" data-name="Rettangolo 166430" d="M.316,0H3.925A.316.316,0,0,1,4.24.316v0a.316.316,0,0,1-.316.316H.316A.316.316,0,0,1,0,.316v0A.316.316,0,0,1,.316,0Z" transform="translate(211.263 99.778)" fill="#8dafd7"/>
        <path id="Rettangolo_166431" data-name="Rettangolo 166431" d="M.316,0H3.925A.316.316,0,0,1,4.24.316v0a.316.316,0,0,1-.316.316H.316A.316.316,0,0,1,0,.316v0A.316.316,0,0,1,.316,0Z" transform="translate(198.467 98.129)" fill="#5992d5"/>
        <path id="Tracciato_110685" data-name="Tracciato 110685" d="M3269.932,1554.411a.288.288,0,0,1,.289-.289h1.8a.288.288,0,0,1,.289.289v.055a.288.288,0,0,1-.289.288h-1.8a.288.288,0,0,1-.289-.288Z" transform="translate(-3061.316 -1454.344)" fill="#8dafd7"/>
        <path id="Tracciato_110686" data-name="Tracciato 110686" d="M3184.166,1528.638a.288.288,0,0,0-.288-.289h-1.8a.289.289,0,0,0-.289.289v.054a.288.288,0,0,0,.289.289h1.8a.288.288,0,0,0,.288-.289Z" transform="translate(-2978.812 -1430.22)" fill="#5992d5"/>
        <path id="Tracciato_110687" data-name="Tracciato 110687" d="M3133.023,1579.921a.315.315,0,0,1,.316-.315h1.743a.316.316,0,0,1,0,.631h-1.743a.316.316,0,0,1-.316-.316" transform="translate(-2933.163 -1478.198)" fill="#8dafd7"/>
        <path id="Rettangolo_166432" data-name="Rettangolo 166432" d="M.316,0h.959A.316.316,0,0,1,1.59.316v0a.316.316,0,0,1-.316.316H.316A.316.316,0,0,1,0,.316v0A.316.316,0,0,1,.316,0Z" transform="translate(198.467 99.778)" fill="#8dafd7"/>
        <path id="Rettangolo_166433" data-name="Rettangolo 166433" d="M.316,0h.5a.316.316,0,0,1,.316.316v0A.316.316,0,0,1,.818.631h-.5A.316.316,0,0,1,0,.316v0A.316.316,0,0,1,.316,0Z" transform="translate(207.224 99.778)" fill="#8dafd7"/>
        <path id="Rettangolo_166434" data-name="Rettangolo 166434" d="M.316,0h.5a.316.316,0,0,1,.316.316v0A.316.316,0,0,1,.818.631h-.5A.316.316,0,0,1,0,.316v0A.316.316,0,0,1,.316,0Z" transform="translate(205.613 98.129)" fill="#5992d5"/>
        <path id="Tracciato_110688" data-name="Tracciato 110688" d="M3111.25,1579.921a.315.315,0,0,1,.316-.315h.5a.316.316,0,1,1,0,.631h-.5a.316.316,0,0,1-.316-.316" transform="translate(-2912.783 -1478.198)" fill="#8dafd7"/>
        <path id="Tracciato_110689" data-name="Tracciato 110689" d="M3143.172,1554.419a.3.3,0,0,1,.3-.3h.709a.3.3,0,0,1,.3.3v.038a.3.3,0,0,1-.3.3h-.709a.3.3,0,0,1-.3-.3Z" transform="translate(-2942.663 -1454.344)" fill="#8dafd7"/>
        <path id="Tracciato_110690" data-name="Tracciato 110690" d="M3167.239,1554.416a.293.293,0,0,1,.293-.294h.428a.294.294,0,0,1,.293.294v.045a.293.293,0,0,1-.293.293h-.428a.293.293,0,0,1-.293-.293Z" transform="translate(-2965.191 -1454.344)" fill="#8dafd7"/>
        <path id="Tracciato_110691" data-name="Tracciato 110691" d="M3186.306,1554.431a.309.309,0,0,1,.309-.308h2.861a.309.309,0,0,1,.309.308v.015a.308.308,0,0,1-.309.308h-2.861a.308.308,0,0,1-.309-.308Z" transform="translate(-2983.038 -1454.345)" fill="#8dafd7"/>
        <path id="Tracciato_110692" data-name="Tracciato 110692" d="M3251.638,1528.658a.308.308,0,0,0-.309-.309h-2.861a.309.309,0,0,0-.31.309v.015a.309.309,0,0,0,.31.308h2.861a.309.309,0,0,0,.309-.308Z" transform="translate(-3040.935 -1430.22)" fill="#5992d5"/>
        <path id="Tracciato_110693" data-name="Tracciato 110693" d="M3091.491,1224.084a1.324,1.324,0,0,1,1.324-1.323h16.916a1.323,1.323,0,0,1,1.324,1.323v.085a1.323,1.323,0,0,1-1.324,1.323h-16.916a1.323,1.323,0,0,1-1.324-1.323Z" transform="translate(-2894.287 -1144.176)" fill="#609edb"/>
        <path id="Tracciato_110694" data-name="Tracciato 110694" d="M3443.16,1224.084a1.324,1.324,0,0,1,1.324-1.323H3461.4a1.324,1.324,0,0,1,1.323,1.323v.085a1.324,1.324,0,0,1-1.323,1.323h-16.917a1.323,1.323,0,0,1-1.324-1.323Z" transform="translate(-3223.465 -1144.176)" fill="#609edb"/>
        <path id="Rettangolo_166435" data-name="Rettangolo 166435" d="M1.366,0H18.2a1.366,1.366,0,0,1,1.366,1.366v0A1.366,1.366,0,0,1,18.2,2.732H1.366A1.366,1.366,0,0,1,0,1.366v0A1.366,1.366,0,0,1,1.366,0Z" transform="translate(242.188 78.584)" fill="#609edb"/>
        <path id="Tracciato_110695" data-name="Tracciato 110695" d="M3372.4,1669.25a1.6,1.6,0,1,1,1.6,1.6,1.6,1.6,0,0,1-1.6-1.6" transform="translate(-3157.23 -1560.614)" fill="#e94420"/>
        <path id="Tracciato_110696" data-name="Tracciato 110696" d="M3724.07,1500.739a1.6,1.6,0,1,1,1.6,1.6,1.6,1.6,0,0,1-1.6-1.6" transform="translate(-3486.408 -1402.88)" fill="#e94420"/>
        <path id="Tracciato_110697" data-name="Tracciato 110697" d="M3039.263,841.9a.655.655,0,0,1,.655.655v6.531a.655.655,0,0,1-.655.655h-2.857a3.92,3.92,0,0,1,0-7.841Z" transform="translate(-2839.056 -787.67)" fill="#fff" fill-rule="evenodd"/>
        <path id="Tracciato_110698" data-name="Tracciato 110698" d="M3053.132,820.787h0a5.631,5.631,0,0,1-5.631,5.631h-43.037a5.631,5.631,0,0,1,0-11.261H3047.5a5.63,5.63,0,0,1,5.631,5.631m-.855,0a4.775,4.775,0,0,0-4.776-4.775h-43.037a4.775,4.775,0,0,0,0,9.551H3047.5a4.776,4.776,0,0,0,4.776-4.775" transform="translate(-2807.557 -762.641)" fill="#83aed8" fill-rule="evenodd"/>
        <path id="Tracciato_110699" data-name="Tracciato 110699" d="M3179.583,842.742a.847.847,0,0,0-.847-.847h-5.047a.847.847,0,0,0-.847.847v6.147a.847.847,0,0,0,.847.847h5.047a.847.847,0,0,0,.847-.847Z" transform="translate(-2970.435 -787.67)" fill="#fff" fill-rule="evenodd"/>
        <path id="Tracciato_110700" data-name="Tracciato 110700" d="M3309.133,842.742a.847.847,0,0,0-.847-.847h-5.047a.847.847,0,0,0-.847.847v6.147a.847.847,0,0,0,.847.847h5.047a.847.847,0,0,0,.847-.847Z" transform="translate(-3091.699 -787.67)" fill="#fff" fill-rule="evenodd"/>
        <path id="Tracciato_110701" data-name="Tracciato 110701" d="M3438.682,842.742a.847.847,0,0,0-.847-.847h-5.047a.847.847,0,0,0-.847.847v6.147a.847.847,0,0,0,.847.847h5.047a.847.847,0,0,0,.847-.847Z" transform="translate(-3212.962 -787.67)" fill="#fff" fill-rule="evenodd"/>
      </g>
    </g>
  </g>
</svg>
