<svg id="Raggruppa_31202" data-name="Raggruppa 31202" xmlns="http://www.w3.org/2000/svg" xmlns:xlink="http://www.w3.org/1999/xlink" width="307.657" height="314.847" viewBox="0 0 307.657 314.847">
  <defs>
    <clipPath id="clip-path">
      <rect id="Rettangolo_165388" data-name="Rettangolo 165388" width="307.657" height="314.847" fill="none"/>
    </clipPath>
    <clipPath id="clip-path-3">
      <path id="Tracciato_108202" data-name="Tracciato 108202" d="M45.6,201.258C59.842,214.528,74.416,253.3,74.416,253.3V198.7s-18.384-34.124-59.289-37.274c0,0,16.23,26.562,30.472,39.832" transform="translate(-15.127 -161.426)" fill="none"/>
    </clipPath>
    <linearGradient id="linear-gradient" x1="0.103" y1="2.31" x2="0.108" y2="2.31" gradientUnits="objectBoundingBox">
      <stop offset="0" stop-color="#2454bd"/>
      <stop offset="0.048" stop-color="#2557c4"/>
      <stop offset="0.281" stop-color="#2b65e4"/>
      <stop offset="0.478" stop-color="#2e6ef7"/>
      <stop offset="0.612" stop-color="#3072ff"/>
      <stop offset="1" stop-color="#3072ff"/>
    </linearGradient>
    <clipPath id="clip-path-4">
      <path id="Tracciato_108203" data-name="Tracciato 108203" d="M0,0S1.892,51.663,35.725,75.052c26.354,18.219,32.329,70.215,32.329,70.215L71.45,94.8S70.5,49.785,43.088,33.816C5.535,11.939,0,0,0,0Z" transform="translate(0)" fill="none"/>
    </clipPath>
    <linearGradient id="linear-gradient-2" y1="2.167" x2="0.006" y2="2.167" gradientUnits="objectBoundingBox">
      <stop offset="0" stop-color="#2454bd"/>
      <stop offset="0.078" stop-color="#2557c4"/>
      <stop offset="0.46" stop-color="#2b65e4"/>
      <stop offset="0.781" stop-color="#2e6ef7"/>
      <stop offset="1" stop-color="#3072ff"/>
    </linearGradient>
    <clipPath id="clip-path-6">
      <rect id="Rettangolo_165386" data-name="Rettangolo 165386" width="133.496" height="98.324" fill="none"/>
    </clipPath>
    <clipPath id="clip-path-7">
      <path id="Tracciato_108207" data-name="Tracciato 108207" d="M418.494,523.086l99.035-62.992-133.5-35.331Z" transform="translate(-384.032 -424.762)" fill="none"/>
    </clipPath>
    <linearGradient id="linear-gradient-3" x1="-1.305" y1="1.004" x2="-1.301" y2="1.004" gradientUnits="objectBoundingBox">
      <stop offset="0" stop-color="#7c98cc"/>
      <stop offset="0.891" stop-color="#dbeeff"/>
      <stop offset="1" stop-color="#dbeeff"/>
    </linearGradient>
  </defs>
  <g id="Raggruppa_31201" data-name="Raggruppa 31201" clip-path="url(#clip-path)">
    <g id="Raggruppa_31189" data-name="Raggruppa 31189">
      <g id="Raggruppa_31188" data-name="Raggruppa 31188" clip-path="url(#clip-path)">
        <path id="Tracciato_108199" data-name="Tracciato 108199" d="M191.79,635.117l-22.309-6c.667-1.107.351-2.936,2.586-4.468l17.1-11.719a12.207,12.207,0,0,1,8.828-1.5l22.309,6c2.621.7,2.936,2.534.7,4.066l-17.1,11.719c-2.235,1.531-6.208,2.208-12.115,1.905" transform="translate(-92.621 -333.99)" fill="#c2d8f0"/>
        <path id="Tracciato_108200" data-name="Tracciato 108200" d="M203.084,620.437l.424,4.54-6.095.725-45.885,6.433-.356-4.177Z" transform="translate(-82.615 -339.066)" fill="#0e2e82"/>
        <path id="Tracciato_108201" data-name="Tracciato 108201" d="M176.563,636.084l-22.309-6c-2.62-.7-2.936-2.534-.7-4.066l17.1-11.719a12.207,12.207,0,0,1,8.828-1.5l22.309,6c2.621.7,2.936,2.534.7,4.065l-17.1,11.719a12.206,12.206,0,0,1-8.828,1.5" transform="translate(-83.102 -334.738)" fill="#0e2e82"/>
      </g>
    </g>
    <g id="Raggruppa_31191" data-name="Raggruppa 31191" transform="translate(6.86 73.207)">
      <g id="Raggruppa_31190" data-name="Raggruppa 31190" clip-path="url(#clip-path-3)">
        <rect id="Rettangolo_165384" data-name="Rettangolo 165384" width="91.858" height="108.136" transform="translate(-34.473 15.576) rotate(-24.315)" fill="url(#linear-gradient)"/>
      </g>
    </g>
    <g id="Raggruppa_31193" data-name="Raggruppa 31193" transform="translate(0)">
      <g id="Raggruppa_31192" data-name="Raggruppa 31192" clip-path="url(#clip-path-4)">
        <rect id="Rettangolo_165385" data-name="Rettangolo 165385" width="71.45" height="145.267" transform="translate(0)" fill="url(#linear-gradient-2)"/>
      </g>
    </g>
    <g id="Raggruppa_31200" data-name="Raggruppa 31200">
      <g id="Raggruppa_31199" data-name="Raggruppa 31199" clip-path="url(#clip-path)">
        <path id="Tracciato_108204" data-name="Tracciato 108204" d="M129.158,241.374s6.581,12.391,7.575,19.36" transform="translate(-70.584 -131.91)" fill="none" stroke="#0e2e82" stroke-linecap="round" stroke-linejoin="round" stroke-width="3.104"/>
        <path id="Tracciato_108205" data-name="Tracciato 108205" d="M67.343,97.9s-8.58-24.74-17.854-31.373S11.73,35.165,7.093,13.25" transform="translate(-3.876 -7.241)" fill="none" stroke="#0e2e82" stroke-linecap="round" stroke-linejoin="round" stroke-width="3.104"/>
        <g id="Raggruppa_31198" data-name="Raggruppa 31198" transform="translate(174.16 192.632)" opacity="0.43" style="mix-blend-mode: multiply;isolation: isolate">
          <g id="Raggruppa_31197" data-name="Raggruppa 31197">
            <g id="Raggruppa_31196" data-name="Raggruppa 31196" clip-path="url(#clip-path-6)">
              <g id="Raggruppa_31195" data-name="Raggruppa 31195">
                <g id="Raggruppa_31194" data-name="Raggruppa 31194" clip-path="url(#clip-path-7)">
                  <path id="Tracciato_108206" data-name="Tracciato 108206" d="M384.032,396.65l133.5-23.328V494.974L384.032,518.3Z" transform="translate(-384.032 -396.65)" fill="url(#linear-gradient-3)"/>
                </g>
              </g>
            </g>
          </g>
        </g>
        <path id="Tracciato_108208" data-name="Tracciato 108208" d="M282.666,89.66l-146.1-34.1a2.862,2.862,0,0,0-3.12,1l0,0-8.086,6.294,6.99,16.916V266.208c0,3.164,1.9,6.3,4.218,6.964l127.516,36.644,12.6,11.432,8.21-6.25-.033-.058c1.215-.663,2.033-2.249,2.033-4.322V96.623c0-3.164-1.9-6.3-4.218-6.964" transform="translate(-68.506 -30.292)" fill="#0e2e82"/>
        <path id="Tracciato_108209" data-name="Tracciato 108209" d="M273.009,329.074l-145.678-39c-2.313-.619-4.205-3.714-4.205-6.877V73.7c0-3.163,1.892-5.245,4.205-4.625l145.678,34.5c2.313.619,4.205,3.714,4.205,6.877V324.448c0,3.164-1.892,5.245-4.205,4.626" transform="translate(-67.287 -37.69)" fill="#91b0f5"/>
        <path id="Tracciato_108210" data-name="Tracciato 108210" d="M282.95,334.055,148.438,298.042V105.512l134.511,31.7Z" transform="translate(-81.121 -57.662)" fill="#fff"/>
        <path id="Tracciato_108211" data-name="Tracciato 108211" d="M282.95,334.055,148.438,298.042V105.512l134.511,31.7Z" transform="translate(-81.121 -57.662)" fill="none" stroke="#35519c" stroke-width="1.144"/>
        <path id="Tracciato_108212" data-name="Tracciato 108212" d="M277.681,89.9l-1.261-.3c-1.008-6.33-5.7-12.146-11.167-13.465L229.032,67.4c-5.469-1.32-9.924,2.29-10.628,8.207l-1.261-.3c-6.074-1.466-10.9,3.146-10.722,10.248s5.291,14.111,11.364,15.577l60.539,14.606c6.074,1.466,10.9-3.146,10.722-10.248S283.755,91.37,277.681,89.9" transform="translate(-112.805 -36.683)" fill="#0e2e82"/>
        <line id="Linea_3201" data-name="Linea 3201" x2="39.135" y2="10.342" transform="translate(125.436 208.742)" fill="none" stroke="#849ad1" stroke-linecap="round" stroke-linejoin="round" stroke-width="4.964"/>
        <line id="Linea_3202" data-name="Linea 3202" x2="65.7" y2="17.221" transform="translate(125.123 224.344)" fill="none" stroke="#849ad1" stroke-linecap="round" stroke-linejoin="round" stroke-width="4.964"/>
        <path id="Tracciato_108213" data-name="Tracciato 108213" d="M199.638,458.7l-25.352-6.735-.014-28.447,25.352,6.735Z" transform="translate(-95.239 -231.448)" fill="#3072ff"/>
        <path id="Tracciato_108214" data-name="Tracciato 108214" d="M186.116,453.618l5.768,10.069,7.518-9.725" transform="translate(-101.711 -247.9)" fill="none" stroke="#fff" stroke-linecap="round" stroke-linejoin="round" stroke-width="5.531"/>
        <line id="Linea_3203" data-name="Linea 3203" x2="39.135" y2="10.342" transform="translate(125.436 158.601)" fill="none" stroke="#849ad1" stroke-linecap="round" stroke-linejoin="round" stroke-width="4.964"/>
        <line id="Linea_3204" data-name="Linea 3204" x2="65.7" y2="17.221" transform="translate(125.123 174.203)" fill="none" stroke="#849ad1" stroke-linecap="round" stroke-linejoin="round" stroke-width="4.964"/>
        <path id="Tracciato_108215" data-name="Tracciato 108215" d="M199.638,348.132,174.286,341.4l-.014-28.447,25.352,6.735Z" transform="translate(-95.239 -171.025)" fill="#3072ff"/>
        <path id="Tracciato_108216" data-name="Tracciato 108216" d="M186.116,343.054l5.768,10.069L199.4,343.4" transform="translate(-101.711 -187.477)" fill="none" stroke="#fff" stroke-linecap="round" stroke-linejoin="round" stroke-width="5.531"/>
        <line id="Linea_3205" data-name="Linea 3205" x2="39.135" y2="10.342" transform="translate(125.436 108.46)" fill="none" stroke="#849ad1" stroke-linecap="round" stroke-linejoin="round" stroke-width="4.964"/>
        <line id="Linea_3206" data-name="Linea 3206" x2="65.7" y2="17.221" transform="translate(125.123 124.062)" fill="none" stroke="#849ad1" stroke-linecap="round" stroke-linejoin="round" stroke-width="4.964"/>
        <path id="Tracciato_108217" data-name="Tracciato 108217" d="M199.638,237.568l-25.352-6.735-.014-28.447,25.352,6.735Z" transform="translate(-95.239 -110.603)" fill="#3072ff"/>
        <path id="Tracciato_108218" data-name="Tracciato 108218" d="M186.116,232.49l5.768,10.069,7.518-9.725" transform="translate(-101.711 -127.055)" fill="none" stroke="#fff" stroke-linecap="round" stroke-linejoin="round" stroke-width="5.531"/>
        <path id="Tracciato_108219" data-name="Tracciato 108219" d="M269.077,97.011l-1.261-.3c-1.008-6.33-5.7-12.146-11.167-13.465L220.428,74.5c-5.469-1.319-9.924,2.29-10.628,8.207l-1.261-.3c-6.074-1.466-10.9,3.146-10.722,10.248s5.29,14.111,11.364,15.577l60.539,14.606c6.074,1.466,10.9-3.146,10.722-10.248s-5.29-14.111-11.364-15.577" transform="translate(-108.103 -40.567)" fill="#bad0ff"/>
        <line id="Linea_3207" data-name="Linea 3207" x2="51.046" y2="13.227" transform="translate(104.755 48.013)" fill="none" stroke="#fff" stroke-linecap="round" stroke-linejoin="round" stroke-width="3.104"/>
        <path id="Tracciato_108220" data-name="Tracciato 108220" d="M182.886,285.338l6.205-25.086L167.1,274.138c-3.1,6.979,12.044,16.236,15.787,11.2" transform="translate(-91.092 -142.226)" fill="#dedfe6"/>
        <path id="Tracciato_108221" data-name="Tracciato 108221" d="M206.2,257.81l-3.764,12.155c-.419-3.659-2.2-5.83-6.329-5.425Z" transform="translate(-107.174 -140.892)" fill="#fffcfa"/>
        <path id="Tracciato_108222" data-name="Tracciato 108222" d="M26.543,459.163c.046-.054.088-.109.132-.164l0,0L40.4,442.791c3.826-4.521,3.787-10.986-.087-14.439s-10.116-2.588-13.943,1.933L12.649,446.5l0,0c-.046.053-.094.1-.139.157-3.826,4.521-3.787,10.986.087,14.439s10.116,2.588,13.942-1.933" transform="translate(-5.284 -232.936)" fill="#3072ff"/>
        <path id="Tracciato_108223" data-name="Tracciato 108223" d="M29.837,365.471l61.674-72.659c3.856-1.819,7.085-.505,9.372,5.5L43.711,364.191c-4.337-7.238-9.11-2.861-13.874,1.279" transform="translate(-16.306 -159.606)" fill="#11389e"/>
        <path id="Tracciato_108224" data-name="Tracciato 108224" d="M115.478,305.778c1.556-.031,5.158-.948,6.642,4.943L62.432,381.374c-2.084-6.348-5.888-8.6-5.888-8.6Z" transform="translate(-30.901 -167.068)" fill="#0e2e82"/>
        <path id="Tracciato_108225" data-name="Tracciato 108225" d="M44.225,455.462c-.054.045.088-.109.132-.164l0,0,6.1-7.279c3.508-5-9.3-18.52-13.61-13.624l.139-.157,0,0-7.023,8.288,0,0c-.046.053-.2.2-.14.157,4.155-3.216,18.738,9.157,14.4,12.775" transform="translate(-16.291 -236.823)" fill="#fff"/>
        <path id="Tracciato_108226" data-name="Tracciato 108226" d="M72.041,470.806l14.832,2.588V457.9l-14.832-2.588Z" transform="translate(-39.37 -248.827)" fill="#27427a"/>
        <path id="Tracciato_108227" data-name="Tracciato 108227" d="M67.834,610.568c-6.829-2.159-18.318-2.077-25.661.183a18.221,18.221,0,0,0-3.147,1.26,36.779,36.779,0,0,0-15.545.722c-5.16,1.588-5.452,4.106-.654,5.623,4.611,1.458,12.239,1.458,17.407.046.318.12.651.238,1.009.351,6.829,2.16,18.318,2.078,25.661-.183s7.76-5.843.931-8" transform="translate(-10.608 -332.816)" fill="#c2d8f0"/>
        <path id="Tracciato_108228" data-name="Tracciato 108228" d="M96.519,611.346l5.223.875c3.825-.518,5.743-1.194,6.984.122l.352.373c.461.916-.265,2.385-1.67,2.931l-10.4,4.152c-2.031.482-4.164-.219-4.175-2.036,0,0,.011-5.081.938-5.282,1.862-.4,1.124-.749,2.749-1.135" transform="translate(-50.732 -334.098)" fill="#1737a2"/>
        <path id="Tracciato_108229" data-name="Tracciato 108229" d="M100.7,608.412c-.025,2.13-5.205,2.067-5.18-.062l.083-6.921,5.18.062Z" transform="translate(-52.203 -328.678)" fill="#a8acba"/>
        <path id="Tracciato_108230" data-name="Tracciato 108230" d="M95.4,514.3c-1.811,2.449-6.3,2.409-7.27.749-.561-9.791-3.864-20.215-.09-33.676l-4.378-40.832,18.247,3.647-4.051,43.1Z" transform="translate(-45.719 -240.752)" fill="#1737a2"/>
        <path id="Tracciato_108231" data-name="Tracciato 108231" d="M27.171,587.568c-1.16,1.551-5.5-1.285-4.339-2.836l3.77-5.04,4.338,2.836Z" transform="translate(-12.371 -316.799)" fill="#a8acba"/>
        <path id="Tracciato_108232" data-name="Tracciato 108232" d="M31.226,511.462c-2.543,1.519-5.973-2.739-6.325-4.469,3.061-8.561,5.073-20.924,13.061-25.8l3.394-23.014c-.29-3.532.366-6.34,1.824-11.509l13.109,7.719L44.6,489.122a8.869,8.869,0,0,1-.836,1.793Z" transform="translate(-13.608 -244.1)" fill="#1737a2"/>
        <path id="Tracciato_108233" data-name="Tracciato 108233" d="M100.186,325.458c-.117,4.193-3.941,6.682-7.057,4.765s-5.547-6.87-5.43-11.063,2.738-6.038,5.854-4.121,6.75,6.227,6.633,10.42" transform="translate(-47.925 -171.753)" fill="#ed5353"/>
        <path id="Tracciato_108234" data-name="Tracciato 108234" d="M90.135,350.976l-.429-.111a2.727,2.727,0,0,1-1.951-3.314l2.112-8.164a2.728,2.728,0,0,1,3.314-1.951l.429.111a2.727,2.727,0,0,1,1.951,3.314L94.684,349c-.375,1.448-3.1,2.347-4.55,1.972" transform="translate(-47.91 -184.36)" fill="#ed5353"/>
        <path id="Tracciato_108235" data-name="Tracciato 108235" d="M81,328.036s.781,2.826,5.93,2.247c3.886-.437,1.1-7.1,4.655-8.753,4.81-2.232,2.912-6.94.785-8.478s-4.828-.649-8.156.464c-3.521,1.178-8.314,3.9-3.214,14.519" transform="translate(-43.05 -170.632)" fill="#80653d"/>
        <path id="Tracciato_108236" data-name="Tracciato 108236" d="M102.043,335.255a1.847,1.847,0,1,1-1.795-1.9,1.847,1.847,0,0,1,1.795,1.9" transform="translate(-53.748 -182.178)" fill="#ed5353"/>
        <path id="Tracciato_108237" data-name="Tracciato 108237" d="M60.429,400c.444-10.3,1.991-17.021,1.489-25.921.195-17.008,2.32-17.736,6.071-18.813l3.751-.419c1.165.222,2.244.758,3.4,1.04,4.823,1.18,7.915,1.443,11.379,3.319,3.085,1.671,3.264,6.136,3.257,9.876.834,10.963,1.054,27.465,1.209,32.877C89.228,409.7,63.364,405.243,60.429,400" transform="translate(-33.024 -193.921)" fill="#ff9b3d"/>
        <path id="Tracciato_108238" data-name="Tracciato 108238" d="M103.141,350.415l-.675-.87a2.772,2.772,0,0,0,2.338.008,3.554,3.554,0,0,1-1.663.863" transform="translate(-55.997 -191.025)" fill="#ba4141"/>
        <path id="Tracciato_108239" data-name="Tracciato 108239" d="M113.834,389.054l-2.829,3.053c-3.322,13.406-1.783,27-7.23,32.716,3.333-.009,6.387-.448,8.646-2.109a3.4,3.4,0,0,0,1.315-2.583Z" transform="translate(-56.713 -212.616)" fill="#ff820d"/>
        <path id="Tracciato_108240" data-name="Tracciato 108240" d="M83.81,354.24s-.9,2.466,2,3.383,7.7-.7,7.7-.7-3.194-3.347-9.7-2.685" transform="translate(-45.73 -193.543)" fill="#fff"/>
        <path id="Tracciato_108241" data-name="Tracciato 108241" d="M101.756,334.434h0a.618.618,0,0,1-.692-.529l-1.092-3.917c-.045-.336.83-.137,1.166-.182s1.3-.35,1.341-.014l-.193,3.95a.618.618,0,0,1-.529.692" transform="translate(-54.633 -180.144)" fill="#80653d"/>
        <path id="Tracciato_108242" data-name="Tracciato 108242" d="M159.525,364.514h0a3.1,3.1,0,0,0,4.317-.693l2.41-3.332a3.1,3.1,0,0,0-.693-4.317h0a3.1,3.1,0,0,0-4.317.693l-2.41,3.332a3.1,3.1,0,0,0,.693,4.317" transform="translate(-86.482 -194.327)" fill="#ed5353"/>
        <path id="Tracciato_108243" data-name="Tracciato 108243" d="M154.134,371.513s-2.291,13.978-4.754,17.666-8.876-1.327-8.876-1.327l8.047-18.222Z" transform="translate(-76.785 -202.001)" fill="#ed5353"/>
        <path id="Tracciato_108244" data-name="Tracciato 108244" d="M108.658,377.737,125.02,389.4c3.522,3.3,12.119-5.442,7.523-8.941-.29-.221-19.572-15.2-19.572-15.2s-6.631,6.435-4.313,12.48" transform="translate(-59.113 -199.611)" fill="#ff9b3d"/>
        <path id="Tracciato_108245" data-name="Tracciato 108245" d="M143.442,402.906c3.1,1.077,7.7-3.3,6.846-6.706" transform="translate(-78.39 -216.521)" fill="none" stroke="#fff" stroke-linecap="round" stroke-linejoin="round" stroke-width="1.417"/>
        <path id="Tracciato_108246" data-name="Tracciato 108246" d="M24.1,592.948l.074,4.8c1.088,3.328,3.583,3.721,2.613,5.043l-.821.716c-.821.834-3.562.576-4.129-.154l-4.819-7.3a4.622,4.622,0,0,1,1.061-5.072s1.428-1.418,2.153-1.438c1.726-.047,3.258,2.019,3.868,3.405" transform="translate(-9.108 -322.182)" fill="#1737a2"/>
        <path id="Tracciato_108247" data-name="Tracciato 108247" d="M496.157,638.8c0,4.269,8.842,7.73,19.749,7.73s19.749-3.461,19.749-7.73-8.842-7.73-19.749-7.73-19.749,3.461-19.749,7.73" transform="translate(-271.147 -344.876)" fill="#c2d8f0"/>
        <path id="Tracciato_108248" data-name="Tracciato 108248" d="M481.378,405.957l-10.553,22.352,4.254,4.663,14.635-24.053Z" transform="translate(-257.304 -221.853)" fill="#ed5353"/>
        <path id="Tracciato_108249" data-name="Tracciato 108249" d="M488.169,435.523l-6.267-3.759s-.25,3.963,2.437,4.793a3.2,3.2,0,0,0,3.83-1.034" transform="translate(-263.354 -235.957)" fill="#ba4141"/>
        <path id="Tracciato_108250" data-name="Tracciato 108250" d="M554.92,640.147,554.7,629.34c.253-1.02,1.62-1.23,2.708-2.185a1.34,1.34,0,0,1,1.662-.122l1.031.753c1.53,1.03,1.609,1.337,1.276,2.683l-1.983,7.991a5.092,5.092,0,0,1-2.682,3.229l-.324.122c-1.141.43-1.8-.318-1.468-1.664" transform="translate(-303.141 -342.543)" fill="#0e2e82"/>
        <path id="Tracciato_108251" data-name="Tracciato 108251" d="M557.688,628.141s-.592,6.9-2.282,7.316c0,0-1.084.267-1.12-1.479s-.488-5.129-.488-5.129Z" transform="translate(-302.648 -343.276)" fill="#ed5353"/>
        <path id="Tracciato_108252" data-name="Tracciato 108252" d="M488.177,431.637s-5.194.136-6.267-3.759l1.6-3.225,6.755,3.563Z" transform="translate(-263.361 -232.071)" fill="#fff"/>
        <path id="Tracciato_108253" data-name="Tracciato 108253" d="M544.807,350.954s7.921,1.55,9.865,4.583-1.5,10.516-1.5,10.516v-3.908s4.576-7.518-8.059-9.165c-8.485-1.107-.311-2.025-.311-2.025" transform="translate(-295.798 -191.795)" fill="#0e2e82"/>
        <path id="Tracciato_108254" data-name="Tracciato 108254" d="M531.221,351.46s13.066,8.459,8.222,16.652-17.974,11.721-17.974,11.721l-5.336-27.519Z" transform="translate(-282.064 -192.071)" fill="#0e2e82"/>
        <path id="Tracciato_108255" data-name="Tracciato 108255" d="M501.851,640.488l8.071-5.667a10.38,10.38,0,0,1,4.651-.2,1.185,1.185,0,0,1,1.03,1.214l-.084,1.25c-.049,1.8-.273,2.049-1.633,2.6l-8.076,3.261a5.438,5.438,0,0,1-4.309-.139l-.286-.177c-1.01-.626-.724-1.587.636-2.136" transform="translate(-273.581 -346.726)" fill="#0e2e82"/>
        <path id="Tracciato_108256" data-name="Tracciato 108256" d="M515.952,536.339c-.093,2.505-5.186,3.407-5.282.864-6.179-23.586-6.973-45.175-8.153-70.118L518.1,453.967c-1.258,21.65-3.232,39.982-2.846,58.675.05,2.423,1.258,4.989,1.392,7.318.279,4.837-1.114,11.67-.7,16.379" transform="translate(-274.623 -248.091)" fill="#ed5353"/>
        <path id="Tracciato_108257" data-name="Tracciato 108257" d="M525.219,557.564c-.135-2.329-1.342-4.9-1.392-7.318-.128-6.186,0-12.332.28-18.572.529-11.881,3.608-12.789,3.047-.172-.278,6.24-.408,12.386-.28,18.572.05,2.423,1.258,4.989,1.392,7.318.279,4.837-1.114,11.67-.7,16.378-.072,1.913-2.071-11.369-2.35-16.206" transform="translate(-286.242 -285.487)" fill="#d44a4a"/>
        <path id="Tracciato_108258" data-name="Tracciato 108258" d="M541.631,567.9c.555,2.2-2.57,4.322-3.969,2.348-4.2-8.659-7.282-15.33-10.145-21.873-2.168-4.956-2.634-10.881-3.542-16.828-2.168-14.187,12.49-17.767,11.76-3.347a102.276,102.276,0,0,0,.536,17.708c.351,2.846,1.974,2.706,2.914,7.487.955,4.857,1.143,7.567,2.447,14.505" transform="translate(-286.229 -283.627)" fill="#ed5353"/>
        <path id="Tracciato_108259" data-name="Tracciato 108259" d="M492,387.177l-9.782,17.465s2.4,7.876,11.138,4.33C505.46,404.061,492,387.177,492,387.177" transform="translate(-263.528 -211.59)" fill="#ff820d"/>
        <path id="Tracciato_108260" data-name="Tracciato 108260" d="M521.273,460.259c6.782.135.046,26.963,2.727,46.253,0,0-14.141,13.007-26.118,1.616l.444-44.342Z" transform="translate(-272.09 -251.529)" fill="#173891"/>
        <path id="Tracciato_108261" data-name="Tracciato 108261" d="M532.05,512.225c8.006-11.538,3.486-37.356,5.518-50.548l2.378-1.419c6.782.135.047,26.963,2.727,46.253a27.678,27.678,0,0,1-10.623,5.715" transform="translate(-290.763 -251.529)" fill="#0c2973"/>
        <path id="Tracciato_108262" data-name="Tracciato 108262" d="M495.391,416.207c-.395-4.744,1.885,4.722,1.8-.768-.034-2.11-1.056-8.158-1.567-12.157-.477-3.736-4.382-5.957-3.576-10.51.106-2.485,4.5-7.086,4.689-8.9.3-2.87.5-5.52,6.536-8.344l2.653.575a17.473,17.473,0,0,1,3.641,1.217c12.3,5.7,14.984,5.976,14.127,13.182-.14,3.706-2.345.823-3.009,3.276-1.274,4.708-6.245,9.5-4.493,17.756.353,1.666,1.658,2.8.174,3.906-6.432,4.79-18.715,5.709-20.972.768" transform="translate(-268.841 -205.223)" fill="#ff9b3d"/>
        <path id="Tracciato_108263" data-name="Tracciato 108263" d="M498.66,465.145c-.007.178-.016-.012,0,0" transform="translate(-272.51 -254.199)" fill="#ff5cab"/>
        <path id="Tracciato_108264" data-name="Tracciato 108264" d="M543.329,411.57l2.575,8.941-1.542,13.14-4.233,1.486V423.794c1.794-3.544,2.553-7.843,3.2-12.224" transform="translate(-295.178 -224.921)" fill="#ff820d"/>
        <path id="Tracciato_108265" data-name="Tracciato 108265" d="M467.688,468.121l2.325,1.322a2.849,2.849,0,0,0,3.247-.071l.456-.48c.651-.686.254-1.776-.883-2.423l-2.325-1.323a2.849,2.849,0,0,0-3.247.072l-.456.48c-.651.686-.254,1.776.883,2.423" transform="translate(-254.936 -253.947)" fill="#ed5353"/>
        <path id="Tracciato_108266" data-name="Tracciato 108266" d="M486.666,459.855l.069-.494-.825.237-.122-.316-18.359-9.4a1.275,1.275,0,0,0-.936.021l-9.084,3.864.016-.11-1.647.492-.078.525h.011a.225.225,0,0,0,.129.137l19.1,9.785a1.275,1.275,0,0,0,.936-.021L486.4,460.1c.16-.068.25-.157.263-.242Z" transform="translate(-249.038 -245.814)" fill="#bfc6c9"/>
        <path id="Tracciato_108267" data-name="Tracciato 108267" d="M475.1,463.441,456,453.656c-.221-.113-.162-.308.132-.433l10.521-4.475a1.274,1.274,0,0,1,.936-.021l19.1,9.785c.221.113.162.308-.132.433l-10.521,4.475a1.274,1.274,0,0,1-.936.021" transform="translate(-249.126 -245.184)" fill="#dde5e8"/>
        <path id="Tracciato_108268" data-name="Tracciato 108268" d="M497.791,463.407l-4.624-2.368c-.054-.027-.039-.074.032-.1l2.546-1.083a.306.306,0,0,1,.226-.005l4.624,2.368c.054.027.039.074-.032.1l-2.546,1.083a.31.31,0,0,1-.226.005" transform="translate(-269.496 -251.293)" fill="#bfc6c9"/>
        <path id="Tracciato_108269" data-name="Tracciato 108269" d="M521.662,446.715a39.247,39.247,0,0,0,18.509-5.349,4.911,4.911,0,0,0,2.461-4.1c.082-3.808.037-10.567-1.251-11.667l-5.917,6.781.278,3.779c-6.457,2.843-9.852,6.212-13.8,7.41Z" transform="translate(-285.086 -232.59)" fill="#ed5353"/>
        <path id="Tracciato_108270" data-name="Tracciato 108270" d="M539.614,440.511c1.337-1.086,1.824-3.321,1.859-4.982a57.268,57.268,0,0,0-.408-9.437l.432-.495c1.288,1.1,1.333,7.859,1.251,11.667a4.911,4.911,0,0,1-2.461,4.1,39.247,39.247,0,0,1-18.509,5.349s12.1-1.536,17.836-6.2" transform="translate(-285.149 -232.587)" fill="#ba4141"/>
        <path id="Tracciato_108271" data-name="Tracciato 108271" d="M527.894,380.611s-4.514,10.816-11.07,8-1.806-12.6-1.806-12.6a55.425,55.425,0,0,1,12.876,4.6" transform="translate(-280.546 -205.486)" fill="#ed5353"/>
        <path id="Tracciato_108272" data-name="Tracciato 108272" d="M523.162,375.182l-.435.088a2.452,2.452,0,0,1-3.014-1.985l-1.062-7.82a2.858,2.858,0,0,1,2.328-3.059l.435-.087a2.452,2.452,0,0,1,3.014,1.985l2.19,7.279c.188,1.387-1.988,3.3-3.457,3.6" transform="translate(-283.429 -197.975)" fill="#ed5353"/>
        <path id="Tracciato_108273" data-name="Tracciato 108273" d="M470.044,444.946a1.918,1.918,0,0,0-.939-1.149L448.914,433.69a.648.648,0,0,0-.446-.083h0a.273.273,0,0,0-.1.055l-.666.5.607,0,1.947,9.668a1.918,1.918,0,0,0,.939,1.149l19.093,9.556.617.572.077.136a3.19,3.19,0,0,0,1.308-.358Z" transform="translate(-244.663 -236.957)" fill="#fff"/>
        <path id="Tracciato_108274" data-name="Tracciato 108274" d="M468.149,436.283a1.918,1.918,0,0,0-.939-1.149l-20.191-10.106a.647.647,0,0,0-.446-.083h0a.272.272,0,0,0-.1.055l-.666.5.607,0,1.947,9.668a1.918,1.918,0,0,0,.939,1.149l19.093,9.556.617.572.077.136a3.189,3.189,0,0,0,1.308-.358Z" transform="translate(-243.627 -232.223)" fill="#fff"/>
        <path id="Tracciato_108275" data-name="Tracciato 108275" d="M446.287,426.189,466.478,436.3a1.917,1.917,0,0,1,.939,1.149l1.968,9.775c0,.007,0,.013,0,.02l.788,3.913c.084.417-.2.579-.634.361L449.35,441.407a1.918,1.918,0,0,1-.939-1.149l-1.969-9.775c0-.007,0-.013,0-.02l-.788-3.913c-.084-.417.2-.579.635-.361" transform="translate(-243.539 -232.857)" fill="#0e2e82"/>
        <path id="Tracciato_108276" data-name="Tracciato 108276" d="M469.41,452.55c.022.712-.647.942-1.5.516A2.847,2.847,0,0,1,466.339,451c-.022-.712.647-.942,1.5-.516a2.846,2.846,0,0,1,1.576,2.061" transform="translate(-254.852 -246.073)" fill="#fff"/>
        <path id="Tracciato_108277" data-name="Tracciato 108277" d="M520.759,637.444s-5.771,2.354-6.816,1.665c-.881-.582,3.388-3.373,3.388-3.373Z" transform="translate(-280.802 -347.427)" fill="#ed5353"/>
        <path id="Tracciato_108278" data-name="Tracciato 108278" d="M525.089,380.817s-3.976,11.153-10.522,8.192c-5.08-2.3-1.395-11.523-1.395-11.523l-1.369.264s-4.386,10.832,3.031,13.857c6.527,2.663,12-9.954,12-9.954Z" transform="translate(-278.994 -206.294)" fill="#fff"/>
        <path id="Tracciato_108279" data-name="Tracciato 108279" d="M520.037,373.861a8.32,8.32,0,0,0,6.07-3.457s-2.474,5.119-5.769,5.68Z" transform="translate(-284.198 -202.424)" fill="#ba4141"/>
        <path id="Tracciato_108280" data-name="Tracciato 108280" d="M532.862,434.28s-4.682,4.171-7.968,3.466c0,0,5.819,2.061,7.968,1.329s0-4.794,0-4.794" transform="translate(-286.852 -237.332)" fill="#ff820d"/>
        <path id="Tracciato_108281" data-name="Tracciato 108281" d="M497.666,431.668s.041.062.116.167a7,7,0,0,0,2.781,2.462l-2.279.129" transform="translate(-271.972 -235.904)" fill="#ff820d"/>
        <path id="Tracciato_108282" data-name="Tracciato 108282" d="M558.315,449.175l-5.6-.286a5.5,5.5,0,0,0,5.536,1.715Z" transform="translate(-302.054 -245.316)" fill="#ba4141"/>
        <path id="Tracciato_108283" data-name="Tracciato 108283" d="M559.427,444.189s-2.765,2.144-7.01.4l-.244-3.057,7.254-.514Z" transform="translate(-301.76 -241.013)" fill="#fff"/>
        <path id="Tracciato_108284" data-name="Tracciato 108284" d="M546.233,399.742l1.948,12.778a3.592,3.592,0,0,0,3.31,3.22c2.482.1,5.675-.353,5.681-3.348a52.748,52.748,0,0,0-3.225-18.517c-.619-1.645-2.287-2.114-4.271-3.395-.321-.207-.194,1.7-.55,1.97a7.775,7.775,0,0,0-2.892,7.292" transform="translate(-298.466 -213.387)" fill="#ff9b3d"/>
        <path id="Tracciato_108285" data-name="Tracciato 108285" d="M562.561,397.985s4.073,11.437,3.225,18.923a2.788,2.788,0,0,1-2.316,2.58,10.2,10.2,0,0,0,.76-4.063c-.056-2.27-.99.8-1.329-.02a20.073,20.073,0,0,1-.341-5.981c.172-2.121-1.095-8.193-.483-9.629s.483-1.81.483-1.81" transform="translate(-307.081 -217.497)" fill="#ff820d"/>
        <path id="Tracciato_108286" data-name="Tracciato 108286" d="M515.575,465.243h0a2.237,2.237,0,0,1-1.823,2.579l-4.213.72a2.234,2.234,0,1,1-.759-4.4l4.213-.72a2.245,2.245,0,0,1,2.582,1.824" transform="translate(-277.031 -253.239)" fill="#ed5353"/>
        <path id="Tracciato_108287" data-name="Tracciato 108287" d="M521.06,340.667a3.272,3.272,0,0,0-4.916-1.2c-1.731-.7-3.822.331-5.363,2.951-2.146,3.65-1.933,8.716-.593,11.9.726,1.724,1.579,2.924,5.7,2.2,2.8-.537,4.369-1.356,5.951-4.047,2.146-3.65,1.036-8.885-.783-11.807" transform="translate(-278.261 -185.158)" fill="#ed5353"/>
        <path id="Tracciato_108288" data-name="Tracciato 108288" d="M520.743,355.114s-4.223,1.664-6.818-4.016c0,0-.922-1.949-.528-2.775s7.346,6.792,7.346,6.792" transform="translate(-280.515 -190.322)" fill="#ba4141"/>
        <path id="Tracciato_108289" data-name="Tracciato 108289" d="M511.2,342.851c4.96,7.673,7.848,5.47,7.968,6.668,0,0,.838,3.183.839,3.19.5,2.381,2.919,1.414,5.242,2.184l.007,0s7.621-8.819-1.852-15.9c-6.41-4.794-15.277-.073-14.318,6.235Z" transform="translate(-278.174 -184.184)" fill="#0e2e82"/>
        <path id="Tracciato_108290" data-name="Tracciato 108290" d="M532.614,363.708a2.014,2.014,0,0,1-2.551.831,1.653,1.653,0,0,1-.661-2.382,2.015,2.015,0,0,1,2.551-.832,1.654,1.654,0,0,1,.661,2.382" transform="translate(-289.175 -197.366)" fill="#ed5353"/>
        <path id="Tracciato_108291" data-name="Tracciato 108291" d="M532.37,364.139a.434.434,0,0,1-.031-.664c.281-.28.711-.544,1.031,0s-.029,1.259-.336,1.712a.085.085,0,0,1-.155-.063.676.676,0,0,0-.214-.8c-.12-.071-.216-.135-.294-.192" transform="translate(-290.845 -198.465)" fill="#ba4141"/>
        <path id="Tracciato_108292" data-name="Tracciato 108292" d="M513.7,371.056h0a2.905,2.905,0,0,1-1.324-2.618l2.648,1.036c0,1.16-.593,1.868-1.324,1.582" transform="translate(-280.013 -201.35)" fill="#fff"/>
        <path id="Tracciato_108293" data-name="Tracciato 108293" d="M175.6,625.54l-22.309-6c-2.62-.7-2.936-2.534-.7-4.066l17.1-11.719a12.209,12.209,0,0,1,8.828-1.5l22.309,6c2.62.7,2.936,2.534.7,4.066l-17.1,11.719a12.207,12.207,0,0,1-8.828,1.5" transform="translate(-82.578 -328.976)" fill="#3072ff"/>
        <path id="Tracciato_108294" data-name="Tracciato 108294" d="M195.879,616.354l-.631,8.517,18.805-6.423" transform="translate(-106.702 -336.834)" fill="none" stroke="#fff" stroke-linecap="round" stroke-linejoin="round" stroke-width="4.813"/>
        <path id="Tracciato_108295" data-name="Tracciato 108295" d="M300.675,664.271l-22.309-6c.667-1.107.351-2.936,2.587-4.468l17.1-11.719a12.207,12.207,0,0,1,8.828-1.5l22.309,6c2.62.7,2.936,2.534.7,4.066l-17.1,11.719c-2.235,1.531-6.208,2.208-12.115,1.905" transform="translate(-152.126 -349.923)" fill="#c2d8f0"/>
        <path id="Tracciato_108296" data-name="Tracciato 108296" d="M311.969,649.592l.424,4.54-6.095.725-45.885,6.433-.356-4.177Z" transform="translate(-142.12 -354.999)" fill="#0e2e82"/>
        <path id="Tracciato_108297" data-name="Tracciato 108297" d="M285.447,665.239l-22.309-6c-2.62-.7-2.936-2.534-.7-4.066l17.1-11.719a12.209,12.209,0,0,1,8.828-1.5l22.309,6c2.621.7,2.936,2.534.7,4.066l-17.1,11.719a12.207,12.207,0,0,1-8.828,1.5" transform="translate(-142.606 -350.671)" fill="#0e2e82"/>
        <path id="Tracciato_108298" data-name="Tracciato 108298" d="M284.489,654.7l-22.309-6c-2.62-.7-2.936-2.534-.7-4.066l17.1-11.719a12.207,12.207,0,0,1,8.828-1.5l22.309,6c2.621.7,2.936,2.534.7,4.065l-17.1,11.719a12.207,12.207,0,0,1-8.828,1.5" transform="translate(-142.083 -344.909)" fill="#ed5353"/>
        <line id="Linea_3208" data-name="Linea 3208" y1="4.779" x2="20.192" transform="translate(133.772 294.458)" fill="none" stroke="#fff" stroke-linecap="round" stroke-linejoin="round" stroke-width="4.813"/>
        <line id="Linea_3209" data-name="Linea 3209" x1="5.021" y1="12.707" transform="translate(141.54 291.423)" fill="none" stroke="#fff" stroke-linecap="round" stroke-linejoin="round" stroke-width="4.813"/>
        <path id="Tracciato_108299" data-name="Tracciato 108299" d="M492.431,210.316l-97.119-24.823c-3.1-.791-5.631,1.095-5.631,4.192v22.735a7.78,7.78,0,0,0,5.631,7.07l97.119,24.823c3.1.792,5.631-1.094,5.631-4.191V217.386a7.779,7.779,0,0,0-5.631-7.07" transform="translate(-212.959 -101.272)" fill="#fffcfa"/>
        <path id="Tracciato_108300" data-name="Tracciato 108300" d="M410.333,211.323l1.69,3.881a1.487,1.487,0,0,0,.816.79l3.944,1.564a1.489,1.489,0,0,1,.333,2.584l-2.175,1.6a1.489,1.489,0,0,0-.588,1.439l.44,2.7a1.489,1.489,0,0,1-2.385,1.413l-2.683-2.1a1.489,1.489,0,0,0-1.32-.259l-3.265.919a1.489,1.489,0,0,1-1.869-1.693l.666-3.754a1.489,1.489,0,0,0-.309-1.2l-2.392-2.953a1.489,1.489,0,0,1,1.309-2.418l2.473.255a1.49,1.49,0,0,0,1.453-.757l1.2-2.15a1.489,1.489,0,0,1,2.666.13" transform="translate(-219.09 -114.998)" fill="#ff9b3d"/>
        <path id="Tracciato_108301" data-name="Tracciato 108301" d="M453.424,221.548l1.69,3.881a1.486,1.486,0,0,0,.816.79l3.944,1.564a1.489,1.489,0,0,1,.333,2.584l-2.175,1.6a1.49,1.49,0,0,0-.587,1.439l.44,2.705a1.489,1.489,0,0,1-2.385,1.413l-2.683-2.1a1.488,1.488,0,0,0-1.319-.259l-3.265.919a1.489,1.489,0,0,1-1.869-1.693l.666-3.754a1.49,1.49,0,0,0-.309-1.2l-2.392-2.953a1.489,1.489,0,0,1,1.309-2.418l2.473.255a1.489,1.489,0,0,0,1.453-.757l1.2-2.149a1.489,1.489,0,0,1,2.666.129" transform="translate(-242.639 -120.586)" fill="#ff9b3d"/>
        <path id="Tracciato_108302" data-name="Tracciato 108302" d="M496.516,231.773l1.69,3.881a1.485,1.485,0,0,0,.816.79l3.944,1.564a1.489,1.489,0,0,1,.333,2.584l-2.175,1.6a1.489,1.489,0,0,0-.587,1.439l.44,2.705a1.489,1.489,0,0,1-2.385,1.413l-2.683-2.1a1.488,1.488,0,0,0-1.319-.259l-3.265.919a1.489,1.489,0,0,1-1.869-1.693l.666-3.754a1.489,1.489,0,0,0-.309-1.2l-2.392-2.953a1.489,1.489,0,0,1,1.309-2.418l2.473.255a1.49,1.49,0,0,0,1.453-.757l1.2-2.15a1.489,1.489,0,0,1,2.666.13" transform="translate(-266.188 -126.174)" fill="#ff9b3d"/>
        <path id="Tracciato_108303" data-name="Tracciato 108303" d="M539.606,242l1.69,3.881a1.485,1.485,0,0,0,.816.79l3.944,1.564a1.489,1.489,0,0,1,.333,2.584l-2.175,1.6a1.489,1.489,0,0,0-.587,1.439l.44,2.7a1.489,1.489,0,0,1-2.385,1.413l-2.683-2.1a1.488,1.488,0,0,0-1.319-.259l-3.265.919a1.489,1.489,0,0,1-1.869-1.693l.666-3.754a1.489,1.489,0,0,0-.309-1.2l-2.392-2.953a1.489,1.489,0,0,1,1.309-2.418l2.473.255a1.489,1.489,0,0,0,1.453-.757l1.2-2.15a1.489,1.489,0,0,1,2.666.13" transform="translate(-289.737 -131.762)" fill="#ff9b3d"/>
        <path id="Tracciato_108304" data-name="Tracciato 108304" d="M582.7,252.223l1.69,3.881a1.486,1.486,0,0,0,.816.79l3.944,1.564a1.489,1.489,0,0,1,.333,2.584l-2.175,1.6a1.49,1.49,0,0,0-.587,1.439l.44,2.705a1.489,1.489,0,0,1-2.385,1.413l-2.683-2.1a1.488,1.488,0,0,0-1.319-.259l-3.265.919a1.489,1.489,0,0,1-1.869-1.693l.666-3.754a1.49,1.49,0,0,0-.309-1.2l-2.392-2.953a1.489,1.489,0,0,1,1.309-2.418l2.473.255a1.49,1.49,0,0,0,1.453-.757l1.2-2.149a1.489,1.489,0,0,1,2.666.129" transform="translate(-313.286 -137.35)" fill="#ff9b3d"/>
        <path id="Tracciato_108305" data-name="Tracciato 108305" d="M492.431,243.58l-97.119-24.823a7.779,7.779,0,0,1-5.631-7.07V188.952c0-3.1,2.534-4.983,5.631-4.192l97.119,24.823a7.779,7.779,0,0,1,5.631,7.07v22.735C498.062,242.485,495.528,244.371,492.431,243.58Z" transform="translate(-212.959 -100.872)" fill="none" stroke="#0e2e82" stroke-linecap="round" stroke-linejoin="round" stroke-width="3.104"/>
        <path id="Tracciato_108306" data-name="Tracciato 108306" d="M398.349,270.278l-1.822,6.252,13.083-4.763" transform="translate(-216.7 -147.705)" fill="none" stroke="#0e2e82" stroke-linecap="round" stroke-linejoin="round" stroke-width="3.104"/>
      </g>
    </g>
  </g>
</svg>
