<?xml version="1.0" encoding="UTF-8"?>
<!DOCTYPE svg PUBLIC "-//W3C//DTD SVG 1.1//EN" "http://www.w3.org/Graphics/SVG/1.1/DTD/svg11.dtd">
<svg xmlns="http://www.w3.org/2000/svg" version="1.1" width="200px" height="200px" style="shape-rendering:geometricPrecision; text-rendering:geometricPrecision; image-rendering:optimizeQuality; fill-rule:evenodd; clip-rule:evenodd" xmlns:xlink="http://www.w3.org/1999/xlink">
<g><path style="opacity:0.854" fill="#f8c968" d="M 93.5,-0.5 C 95.1667,-0.5 96.8333,-0.5 98.5,-0.5C 101.171,1.34735 102.171,4.01402 101.5,7.5C 103.5,7.5 105.5,7.5 107.5,7.5C 107.5,10.1667 107.5,12.8333 107.5,15.5C 112.153,14.9992 116.486,15.6658 120.5,17.5C 116.849,20.6309 112.515,22.7975 107.5,24C 93.909,26.6308 80.2424,27.1308 66.5,25.5C 65.6143,26.325 65.281,27.325 65.5,28.5C 85.8333,28.5 106.167,28.5 126.5,28.5C 126.5,27.1667 126.5,25.8333 126.5,24.5C 127.167,24.5 127.5,24.8333 127.5,25.5C 127.5,26.1667 127.5,26.8333 127.5,27.5C 117.355,28.8321 106.855,29.4987 96,29.5C 85.3279,29.4998 74.8279,29.1665 64.5,28.5C 64.5,28.1667 64.5,27.8333 64.5,27.5C 64.8844,25.0706 65.551,22.7373 66.5,20.5C 68.0991,18.691 70.0991,17.3576 72.5,16.5C 76.4454,15.5091 80.4454,15.1758 84.5,15.5C 84.5,12.8333 84.5,10.1667 84.5,7.5C 86.5,7.5 88.5,7.5 90.5,7.5C 89.8285,4.01402 90.8285,1.34735 93.5,-0.5 Z M 94.5,3.5 C 97.9983,3.56527 98.4983,4.8986 96,7.5C 95.2086,6.25501 94.7086,4.92167 94.5,3.5 Z"/></g>
<g><path style="opacity:0.986" fill="#f7bc44" d="M 120.5,17.5 C 122.674,17.7497 124.341,18.7497 125.5,20.5C 125.833,21.8333 126.167,23.1667 126.5,24.5C 126.5,25.8333 126.5,27.1667 126.5,28.5C 106.167,28.5 85.8333,28.5 65.5,28.5C 65.281,27.325 65.6143,26.325 66.5,25.5C 80.2424,27.1308 93.909,26.6308 107.5,24C 112.515,22.7975 116.849,20.6309 120.5,17.5 Z"/></g>
<g><path style="opacity:0.707" fill="#3653a2" d="M 66.5,20.5 C 65.551,22.7373 64.8844,25.0706 64.5,27.5C 58.1667,27.5 51.8333,27.5 45.5,27.5C 45.5,56.1667 45.5,84.8333 45.5,113.5C 45.1667,114.167 44.8333,114.833 44.5,115.5C 42.7587,117.395 41.7587,119.728 41.5,122.5C 41.5,123.167 41.5,123.833 41.5,124.5C 40.1667,118.833 38.8333,113.167 37.5,107.5C 37.3334,79.498 37.5,51.498 38,23.5C 38.5,23 39,22.5 39.5,22C 48.5773,21.8057 57.5773,21.3057 66.5,20.5 Z"/></g>
<g><path style="opacity:0.851" fill="#3451a1" d="M 125.5,20.5 C 134.667,21.1539 143.834,21.8205 153,22.5C 153.5,40.1635 153.667,57.8302 153.5,75.5C 151.35,72.5194 149.017,69.5194 146.5,66.5C 146.829,53.3226 146.495,40.3226 145.5,27.5C 139.601,26.7951 133.601,26.1284 127.5,25.5C 127.5,24.8333 127.167,24.5 126.5,24.5C 126.167,23.1667 125.833,21.8333 125.5,20.5 Z"/></g>
<g><path style="opacity:1" fill="#677bb6" d="M 127.5,25.5 C 133.601,26.1284 139.601,26.7951 145.5,27.5C 139.5,27.5 133.5,27.5 127.5,27.5C 127.5,26.8333 127.5,26.1667 127.5,25.5 Z"/></g>
<g><path style="opacity:1" fill="#fcfdfd" d="M 127.5,27.5 C 133.5,27.5 139.5,27.5 145.5,27.5C 145.667,40.1711 145.5,52.8377 145,65.5C 144.283,64.9558 143.783,64.2891 143.5,63.5C 142.534,55.9196 142.201,48.253 142.5,40.5C 135.492,40.3337 128.492,40.5004 121.5,41C 120.531,45.7367 120.197,50.57 120.5,55.5C 118.473,55.3379 116.473,55.5045 114.5,56C 113.944,56.3826 113.611,56.8826 113.5,57.5C 110.654,57.5516 108.32,58.5516 106.5,60.5C 101.932,62.4022 98.2648,65.4022 95.5,69.5C 80.8333,69.5 66.1667,69.5 51.5,69.5C 51.5,70.5 51.5,71.5 51.5,72.5C 65.5,72.5 79.5,72.5 93.5,72.5C 93.4431,73.609 93.1098,74.609 92.5,75.5C 78.8333,75.5 65.1667,75.5 51.5,75.5C 51.5,76.5 51.5,77.5 51.5,78.5C 64.8763,77.8524 77.8763,78.5191 90.5,80.5C 90.5,81.1667 90.5,81.8333 90.5,82.5C 77.8158,82.1676 65.1492,82.5009 52.5,83.5C 64.8153,84.499 77.1487,84.8324 89.5,84.5C 89.1936,87.3854 89.5269,90.0521 90.5,92.5C 90.5,93.5 90.5,94.5 90.5,95.5C 77.5,95.5 64.5,95.5 51.5,95.5C 51.5,96.5 51.5,97.5 51.5,98.5C 64.8333,98.5 78.1667,98.5 91.5,98.5C 91.5,99.5 91.5,100.5 91.5,101.5C 78.1667,101.5 64.8333,101.5 51.5,101.5C 51.5,102.5 51.5,103.5 51.5,104.5C 65.8333,104.5 80.1667,104.5 94.5,104.5C 100.635,113.068 108.968,117.735 119.5,118.5C 119.5,119.167 119.833,119.5 120.5,119.5C 120.334,125.842 120.5,132.175 121,138.5C 124.73,139.46 128.563,139.793 132.5,139.5C 132.5,140.833 132.5,142.167 132.5,143.5C 134.621,143.675 136.621,143.341 138.5,142.5C 139.234,143.708 139.567,145.041 139.5,146.5C 138.13,148.25 137.13,150.25 136.5,152.5C 106.833,152.5 77.1667,152.5 47.5,152.5C 47.6691,146.477 48.1691,140.477 49,134.5C 50.6257,133.045 51.7924,131.378 52.5,129.5C 69.9921,130.497 87.6588,130.83 105.5,130.5C 105.5,129.5 105.5,128.5 105.5,127.5C 88.1667,127.5 70.8333,127.5 53.5,127.5C 53.5569,126.391 53.8902,125.391 54.5,124.5C 75.8333,124.5 97.1667,124.5 118.5,124.5C 118.737,123.209 118.404,122.209 117.5,121.5C 96.8333,121.5 76.1667,121.5 55.5,121.5C 57.6357,116.795 56.6357,113.129 52.5,110.5C 66.5,110.5 80.5,110.5 94.5,110.5C 94.5,109.5 94.5,108.5 94.5,107.5C 80.1667,107.5 65.8333,107.5 51.5,107.5C 51.5,108.5 51.5,109.5 51.5,110.5C 49.4862,110.392 47.8195,111.058 46.5,112.5C 46.5,84.5 46.5,56.5 46.5,28.5C 52.5,28.5 58.5,28.5 64.5,28.5C 74.8279,29.1665 85.3279,29.4998 96,29.5C 106.855,29.4987 117.355,28.8321 127.5,27.5 Z"/></g>
<g><path style="opacity:1" fill="#b6c0dd" d="M 64.5,27.5 C 64.5,27.8333 64.5,28.1667 64.5,28.5C 58.5,28.5 52.5,28.5 46.5,28.5C 46.5,56.5 46.5,84.5 46.5,112.5C 46.5,113.167 46.1667,113.5 45.5,113.5C 45.5,84.8333 45.5,56.1667 45.5,27.5C 51.8333,27.5 58.1667,27.5 64.5,27.5 Z"/></g>
<g><path style="opacity:1" fill="#b3d4f5" d="M 143.5,63.5 C 141.223,62.5514 139.223,61.2181 137.5,59.5C 138.814,57.0849 139.481,54.2515 139.5,51C 139.498,47.9792 139.164,45.1459 138.5,42.5C 137.5,42.5 136.5,42.5 135.5,42.5C 131.167,42.5 126.833,42.5 122.5,42.5C 122.5,46.8333 122.5,51.1667 122.5,55.5C 123.833,55.5 125.167,55.5 126.5,55.5C 127.167,55.5 127.5,55.8333 127.5,56.5C 122.77,56.2834 118.103,56.6167 113.5,57.5C 113.611,56.8826 113.944,56.3826 114.5,56C 116.473,55.5045 118.473,55.3379 120.5,55.5C 120.197,50.57 120.531,45.7367 121.5,41C 128.492,40.5004 135.492,40.3337 142.5,40.5C 142.201,48.253 142.534,55.9196 143.5,63.5 Z"/></g>
<g><path style="opacity:1" fill="#f2f9f9" d="M 135.5,42.5 C 133.703,46.3148 132.37,50.3148 131.5,54.5C 130.5,54.5 129.5,54.5 128.5,54.5C 128.803,51.4124 127.47,49.7458 124.5,49.5C 124.604,51.7028 125.27,53.7028 126.5,55.5C 125.167,55.5 123.833,55.5 122.5,55.5C 122.5,51.1667 122.5,46.8333 122.5,42.5C 126.833,42.5 131.167,42.5 135.5,42.5 Z"/></g>
<g><path style="opacity:1" fill="#bfdbf8" d="M 51.5,43.5 C 73.8333,43.5 96.1667,43.5 118.5,43.5C 118.5,44.5 118.5,45.5 118.5,46.5C 96.1667,46.5 73.8333,46.5 51.5,46.5C 51.5,45.5 51.5,44.5 51.5,43.5 Z"/></g>
<g><path style="opacity:1" fill="#f3faf7" d="M 138.5,42.5 C 139.164,45.1459 139.498,47.9792 139.5,51C 139.481,54.2515 138.814,57.0849 137.5,59.5C 135.833,58.8333 134.167,58.1667 132.5,57.5C 134.503,52.4881 136.503,47.4881 138.5,42.5 Z"/></g>
<g><path style="opacity:1" fill="#e1eefb" d="M 105.5,50.5 C 34.8333,51.1667 34.8333,51.8333 105.5,52.5C 87.6744,53.4968 69.6744,53.8301 51.5,53.5C 51.5,52.1667 51.5,50.8333 51.5,49.5C 69.6744,49.1699 87.6744,49.5032 105.5,50.5 Z"/></g>
<g><path style="opacity:1" fill="#b6d6f6" d="M 105.5,50.5 C 105.5,51.1667 105.5,51.8333 105.5,52.5C 34.8333,51.8333 34.8333,51.1667 105.5,50.5 Z"/></g>
<g><path style="opacity:1" fill="#45bb85" d="M 135.5,42.5 C 136.5,42.5 137.5,42.5 138.5,42.5C 136.503,47.4881 134.503,52.4881 132.5,57.5C 130.708,57.634 129.042,57.3007 127.5,56.5C 127.5,55.8333 127.167,55.5 126.5,55.5C 125.27,53.7028 124.604,51.7028 124.5,49.5C 127.47,49.7458 128.803,51.4124 128.5,54.5C 129.5,54.5 130.5,54.5 131.5,54.5C 132.37,50.3148 133.703,46.3148 135.5,42.5 Z"/></g>
<g><path style="opacity:1" fill="#b1d3f7" d="M 94.5,56.5 C 94.5,57.1667 94.5,57.8333 94.5,58.5C 38.5,57.8333 38.5,57.1667 94.5,56.5 Z"/></g>
<g><path style="opacity:1" fill="#deecfb" d="M 94.5,56.5 C 38.5,57.1667 38.5,57.8333 94.5,58.5C 80.3431,59.4959 66.0097,59.8293 51.5,59.5C 51.5,58.1667 51.5,56.8333 51.5,55.5C 66.0097,55.1707 80.3431,55.5041 94.5,56.5 Z"/></g>
<g><path style="opacity:1" fill="#e9f2fc" d="M 120.5,60.5 C 120.611,61.1174 120.944,61.6174 121.5,62C 125.486,62.4988 129.486,62.6655 133.5,62.5C 137.075,64.0704 140.408,66.0704 143.5,68.5C 144.248,70.3325 145.248,71.9991 146.5,73.5C 146.5,82.8333 146.5,92.1667 146.5,101.5C 145.752,103.332 144.752,104.999 143.5,106.5C 142.833,106.833 142.167,107.167 141.5,107.5C 141.5,102.5 141.5,97.5 141.5,92.5C 134.578,92.1878 127.744,92.5212 121,93.5C 120.5,100.492 120.334,107.492 120.5,114.5C 117.135,113.96 113.802,113.294 110.5,112.5C 104.255,110.589 99.9215,106.589 97.5,100.5C 104.087,98.5388 111.087,97.8721 118.5,98.5C 118.5,97.5 118.5,96.5 118.5,95.5C 110.833,95.5 103.167,95.5 95.5,95.5C 93.4356,87.2934 94.4356,79.6268 98.5,72.5C 105.2,72.83 111.866,72.4967 118.5,71.5C 118.291,70.914 117.957,70.414 117.5,70C 112.316,69.8261 107.316,69.3261 102.5,68.5C 104.194,66.1394 106.194,64.1394 108.5,62.5C 112.342,60.9983 116.342,60.3316 120.5,60.5 Z"/></g>
<g><path style="opacity:1" fill="#356586" d="M 145.5,27.5 C 146.495,40.3226 146.829,53.3226 146.5,66.5C 144.973,66.427 143.973,67.0937 143.5,68.5C 140.408,66.0704 137.075,64.0704 133.5,62.5C 132.737,61.7321 131.737,61.2321 130.5,61C 127.183,60.5017 123.85,60.335 120.5,60.5C 116.342,60.3316 112.342,60.9983 108.5,62.5C 107.167,62.5 106.5,61.8333 106.5,60.5C 108.32,58.5516 110.654,57.5516 113.5,57.5C 118.103,56.6167 122.77,56.2834 127.5,56.5C 129.042,57.3007 130.708,57.634 132.5,57.5C 134.167,58.1667 135.833,58.8333 137.5,59.5C 139.223,61.2181 141.223,62.5514 143.5,63.5C 143.783,64.2891 144.283,64.9558 145,65.5C 145.5,52.8377 145.667,40.1711 145.5,27.5 Z"/></g>
<g><path style="opacity:1" fill="#afcfee" d="M 120.5,60.5 C 123.85,60.335 127.183,60.5017 130.5,61C 131.737,61.2321 132.737,61.7321 133.5,62.5C 129.486,62.6655 125.486,62.4988 121.5,62C 120.944,61.6174 120.611,61.1174 120.5,60.5 Z"/></g>
<g><path style="opacity:1" fill="#b0d2fa" d="M 128.5,85.5 C 129.5,85.5 130.5,85.5 131.5,85.5C 134.5,85.5 137.5,85.5 140.5,85.5C 140.334,81.4862 140.501,77.4862 141,73.5C 141.499,78.1548 141.666,82.8215 141.5,87.5C 134.5,87.5 127.5,87.5 120.5,87.5C 120.334,80.825 120.5,74.1583 121,67.5C 125.868,66.0853 130.701,66.252 135.5,68C 131.247,68.1998 127.08,68.6998 123,69.5C 122.501,74.8229 122.334,80.1563 122.5,85.5C 124.5,85.5 126.5,85.5 128.5,85.5 Z"/></g>
<g><path style="opacity:1" fill="#3a728c" d="M 106.5,60.5 C 106.5,61.8333 107.167,62.5 108.5,62.5C 106.194,64.1394 104.194,66.1394 102.5,68.5C 100.833,69.5 99.5,70.8333 98.5,72.5C 94.4356,79.6268 93.4356,87.2934 95.5,95.5C 95.5,96.5 95.5,97.5 95.5,98.5C 94.7784,98.0825 94.2784,97.4158 94,96.5C 93.9822,98.7972 94.1489,101.131 94.5,103.5C 93.3649,100.78 92.0316,98.1129 90.5,95.5C 90.5,94.5 90.5,93.5 90.5,92.5C 90.5,89.1667 90.5,85.8333 90.5,82.5C 90.5,81.8333 90.5,81.1667 90.5,80.5C 91.3092,78.9724 91.9759,77.3057 92.5,75.5C 93.1098,74.609 93.4431,73.609 93.5,72.5C 94.1667,71.5 94.8333,70.5 95.5,69.5C 98.2648,65.4022 101.932,62.4022 106.5,60.5 Z"/></g>
<g><path style="opacity:1" fill="#bfd9f7" d="M 102.5,68.5 C 107.316,69.3261 112.316,69.8261 117.5,70C 117.957,70.414 118.291,70.914 118.5,71.5C 111.866,72.4967 105.2,72.83 98.5,72.5C 99.5,70.8333 100.833,69.5 102.5,68.5 Z"/></g>
<g><path style="opacity:1" fill="#c4def8" d="M 95.5,69.5 C 94.8333,70.5 94.1667,71.5 93.5,72.5C 79.5,72.5 65.5,72.5 51.5,72.5C 51.5,71.5 51.5,70.5 51.5,69.5C 66.1667,69.5 80.8333,69.5 95.5,69.5 Z"/></g>
<g><path style="opacity:1" fill="#134561" d="M 146.5,66.5 C 149.017,69.5194 151.35,72.5194 153.5,75.5C 156.163,83.5338 156.163,91.5338 153.5,99.5C 150.195,102.095 147.861,105.429 146.5,109.5C 145.508,109.328 144.842,109.662 144.5,110.5C 144.167,110.5 143.833,110.5 143.5,110.5C 142.646,109.368 142.646,108.035 143.5,106.5C 144.752,104.999 145.752,103.332 146.5,101.5C 150.332,94.8064 151.498,87.473 150,79.5C 149.4,77.0904 148.234,75.0904 146.5,73.5C 145.248,71.9991 144.248,70.3325 143.5,68.5C 143.973,67.0937 144.973,66.427 146.5,66.5 Z"/></g>
<g><path style="opacity:1" fill="#bfdbf7" d="M 92.5,75.5 C 91.9759,77.3057 91.3092,78.9724 90.5,80.5C 77.8763,78.5191 64.8763,77.8524 51.5,78.5C 51.5,77.5 51.5,76.5 51.5,75.5C 65.1667,75.5 78.8333,75.5 92.5,75.5 Z"/></g>
<g><path style="opacity:1" fill="#60c5a1" d="M 131.5,85.5 C 130.5,85.5 129.5,85.5 128.5,85.5C 126.967,82.2319 125.634,78.8985 124.5,75.5C 127.47,75.7458 128.803,77.4124 128.5,80.5C 129.5,80.5 130.5,80.5 131.5,80.5C 131.822,76.191 133.489,72.5244 136.5,69.5C 136.833,70 137.167,70.5 137.5,71C 135.387,75.8509 133.387,80.6842 131.5,85.5 Z"/></g>
<g><path style="opacity:1" fill="#afd1f2" d="M 90.5,82.5 C 90.5,85.8333 90.5,89.1667 90.5,92.5C 89.5269,90.0521 89.1936,87.3854 89.5,84.5C 77.1487,84.8324 64.8153,84.499 52.5,83.5C 65.1492,82.5009 77.8158,82.1676 90.5,82.5 Z"/></g>
<g><path style="opacity:1" fill="#506eaf" d="M 146.5,73.5 C 148.234,75.0904 149.4,77.0904 150,79.5C 151.498,87.473 150.332,94.8064 146.5,101.5C 146.5,92.1667 146.5,82.8333 146.5,73.5 Z"/></g>
<g><path style="opacity:1" fill="#b4d3f5" d="M 141.5,107.5 C 141.167,108.5 140.5,109.167 139.5,109.5C 139.821,104.305 139.487,99.3054 138.5,94.5C 137.5,94.5 136.5,94.5 135.5,94.5C 131.167,94.5 126.833,94.5 122.5,94.5C 122.5,100.167 122.5,105.833 122.5,111.5C 124.5,111.5 126.5,111.5 128.5,111.5C 129.5,111.5 130.5,111.5 131.5,111.5C 132.833,111.5 134.167,111.5 135.5,111.5C 128.013,115.738 120.013,116.572 111.5,114C 110.944,113.617 110.611,113.117 110.5,112.5C 113.802,113.294 117.135,113.96 120.5,114.5C 120.334,107.492 120.5,100.492 121,93.5C 127.744,92.5212 134.578,92.1878 141.5,92.5C 141.5,97.5 141.5,102.5 141.5,107.5 Z"/></g>
<g><path style="opacity:1" fill="#c3dcf7" d="M 90.5,95.5 C 92.0316,98.1129 93.3649,100.78 94.5,103.5C 94.5,103.833 94.5,104.167 94.5,104.5C 80.1667,104.5 65.8333,104.5 51.5,104.5C 51.5,103.5 51.5,102.5 51.5,101.5C 64.8333,101.5 78.1667,101.5 91.5,101.5C 91.5,100.5 91.5,99.5 91.5,98.5C 78.1667,98.5 64.8333,98.5 51.5,98.5C 51.5,97.5 51.5,96.5 51.5,95.5C 64.5,95.5 77.5,95.5 90.5,95.5 Z"/></g>
<g><path style="opacity:1" fill="#c5ddf8" d="M 95.5,95.5 C 103.167,95.5 110.833,95.5 118.5,95.5C 118.5,96.5 118.5,97.5 118.5,98.5C 111.087,97.8721 104.087,98.5388 97.5,100.5C 96.8333,99.8333 96.1667,99.1667 95.5,98.5C 95.5,97.5 95.5,96.5 95.5,95.5 Z"/></g>
<g><path style="opacity:1" fill="#e9f4f8" d="M 138.5,94.5 C 139.487,99.3054 139.821,104.305 139.5,109.5C 138.486,110.674 137.153,111.34 135.5,111.5C 134.167,111.5 132.833,111.5 131.5,111.5C 133.644,105.731 135.977,100.064 138.5,94.5 Z"/></g>
<g><path style="opacity:0.843" fill="#3351a0" d="M 153.5,99.5 C 153.5,108.833 153.5,118.167 153.5,127.5C 151.621,128.341 149.621,128.675 147.5,128.5C 147.167,127.833 146.833,127.167 146.5,126.5C 146.5,120.833 146.5,115.167 146.5,109.5C 147.861,105.429 150.195,102.095 153.5,99.5 Z"/></g>
<g><path style="opacity:1" fill="#5dc4a0" d="M 135.5,94.5 C 136.5,94.5 137.5,94.5 138.5,94.5C 135.977,100.064 133.644,105.731 131.5,111.5C 130.5,111.5 129.5,111.5 128.5,111.5C 127.992,108.148 126.658,105.148 124.5,102.5C 127.48,101.647 128.813,102.981 128.5,106.5C 129.5,106.5 130.5,106.5 131.5,106.5C 132.35,102.325 133.683,98.3251 135.5,94.5 Z"/></g>
<g><path style="opacity:1" fill="#e9f4f9" d="M 135.5,94.5 C 133.683,98.3251 132.35,102.325 131.5,106.5C 130.5,106.5 129.5,106.5 128.5,106.5C 128.813,102.981 127.48,101.647 124.5,102.5C 126.658,105.148 127.992,108.148 128.5,111.5C 126.5,111.5 124.5,111.5 122.5,111.5C 122.5,105.833 122.5,100.167 122.5,94.5C 126.833,94.5 131.167,94.5 135.5,94.5 Z"/></g>
<g><path style="opacity:0.941" fill="#fdc194" d="M 38.5,109.5 C 38.17,116.2 38.5033,122.866 39.5,129.5C 40.562,127.978 41.2287,126.312 41.5,124.5C 41.5,123.833 41.5,123.167 41.5,122.5C 43.357,120.718 44.357,118.385 44.5,115.5C 45.404,116.209 45.7373,117.209 45.5,118.5C 49.0287,118.557 52.0287,119.557 54.5,121.5C 54.5,122.5 54.5,123.5 54.5,124.5C 53.8902,125.391 53.5569,126.391 53.5,127.5C 52.6618,127.842 52.3284,128.508 52.5,129.5C 51.7924,131.378 50.6257,133.045 49,134.5C 48.1691,140.477 47.6691,146.477 47.5,152.5C 46.8333,152.5 46.5,152.833 46.5,153.5C 45.5933,155.657 44.9267,157.99 44.5,160.5C 44.5,161.5 44.5,162.5 44.5,163.5C 43.6561,166.678 41.9895,169.345 39.5,171.5C 38.7354,171.923 37.9021,172.257 37,172.5C 29.2477,169.675 21.4144,167.675 13.5,166.5C 14.6456,152.67 17.1456,139.003 21,125.5C 26.3411,119.588 32.1744,114.254 38.5,109.5 Z"/></g>
<g><path style="opacity:1" fill="#c2dcf8" d="M 52.5,110.5 C 52.1667,110.5 51.8333,110.5 51.5,110.5C 51.5,109.5 51.5,108.5 51.5,107.5C 65.8333,107.5 80.1667,107.5 94.5,107.5C 94.5,108.5 94.5,109.5 94.5,110.5C 80.5,110.5 66.5,110.5 52.5,110.5 Z"/></g>
<g><path style="opacity:1" fill="#f2f2f4" d="M 143.5,110.5 C 143.833,110.5 144.167,110.5 144.5,110.5C 145.485,114.634 145.818,118.968 145.5,123.5C 144.533,122.194 143.199,121.527 141.5,121.5C 141.415,119.071 140.415,117.071 138.5,115.5C 141.182,114.818 142.848,113.152 143.5,110.5 Z"/></g>
<g><path style="opacity:1" fill="#ae9497" d="M 37.5,107.5 C 38.8333,113.167 40.1667,118.833 41.5,124.5C 41.2287,126.312 40.562,127.978 39.5,129.5C 38.5033,122.866 38.17,116.2 38.5,109.5C 38.1667,108.833 37.8333,108.167 37.5,107.5 Z"/></g>
<g><path style="opacity:1" fill="#8f96c0" d="M 144.5,110.5 C 144.842,109.662 145.508,109.328 146.5,109.5C 146.5,115.167 146.5,120.833 146.5,126.5C 145.596,125.791 145.263,124.791 145.5,123.5C 145.818,118.968 145.485,114.634 144.5,110.5 Z"/></g>
<g><path style="opacity:1" fill="#1e5776" d="M 95.5,98.5 C 96.1667,99.1667 96.8333,99.8333 97.5,100.5C 99.9215,106.589 104.255,110.589 110.5,112.5C 110.611,113.117 110.944,113.617 111.5,114C 120.013,116.572 128.013,115.738 135.5,111.5C 137.153,111.34 138.486,110.674 139.5,109.5C 140.5,109.167 141.167,108.5 141.5,107.5C 142.167,107.167 142.833,106.833 143.5,106.5C 142.646,108.035 142.646,109.368 143.5,110.5C 142.848,113.152 141.182,114.818 138.5,115.5C 140.415,117.071 141.415,119.071 141.5,121.5C 138.914,122.01 136.581,123.01 134.5,124.5C 134.34,122.847 133.674,121.514 132.5,120.5C 132.5,120.167 132.5,119.833 132.5,119.5C 132.53,118.503 132.03,117.836 131,117.5C 127.224,118.394 123.39,118.728 119.5,118.5C 108.968,117.735 100.635,113.068 94.5,104.5C 94.5,104.167 94.5,103.833 94.5,103.5C 94.1489,101.131 93.9822,98.7972 94,96.5C 94.2784,97.4158 94.7784,98.0825 95.5,98.5 Z"/></g>
<g><path style="opacity:1" fill="#f8dabf" d="M 51.5,110.5 C 51.8333,110.5 52.1667,110.5 52.5,110.5C 56.6357,113.129 57.6357,116.795 55.5,121.5C 55.1667,121.5 54.8333,121.5 54.5,121.5C 52.0287,119.557 49.0287,118.557 45.5,118.5C 45.7373,117.209 45.404,116.209 44.5,115.5C 44.8333,114.833 45.1667,114.167 45.5,113.5C 46.1667,113.5 46.5,113.167 46.5,112.5C 47.8195,111.058 49.4862,110.392 51.5,110.5 Z"/></g>
<g><path style="opacity:1" fill="#5290c0" d="M 132.5,119.5 C 128.5,119.5 124.5,119.5 120.5,119.5C 119.833,119.5 119.5,119.167 119.5,118.5C 123.39,118.728 127.224,118.394 131,117.5C 132.03,117.836 132.53,118.503 132.5,119.5 Z"/></g>
<g><path style="opacity:1" fill="#f1f8f7" d="M 132.5,120.5 C 133.674,121.514 134.34,122.847 134.5,124.5C 134.167,124.5 133.833,124.5 133.5,124.5C 132.566,125.568 132.232,126.901 132.5,128.5C 131.596,129.209 131.263,130.209 131.5,131.5C 129.084,131.039 127.25,129.706 126,127.5C 125.5,127.833 125,128.167 124.5,128.5C 126.658,131.148 127.992,134.148 128.5,137.5C 126.5,137.5 124.5,137.5 122.5,137.5C 122.5,131.833 122.5,126.167 122.5,120.5C 125.833,120.5 129.167,120.5 132.5,120.5 Z"/></g>
<g><path style="opacity:1" fill="#c09d98" d="M 44.5,115.5 C 44.357,118.385 43.357,120.718 41.5,122.5C 41.7587,119.728 42.7587,117.395 44.5,115.5 Z"/></g>
<g><path style="opacity:1" fill="#afd3f8" d="M 120.5,119.5 C 124.5,119.5 128.5,119.5 132.5,119.5C 132.5,119.833 132.5,120.167 132.5,120.5C 129.167,120.5 125.833,120.5 122.5,120.5C 122.5,126.167 122.5,131.833 122.5,137.5C 124.5,137.5 126.5,137.5 128.5,137.5C 129.5,137.5 130.5,137.5 131.5,137.5C 132.167,137.5 132.833,137.5 133.5,137.5C 133.167,138.167 132.833,138.833 132.5,139.5C 128.563,139.793 124.73,139.46 121,138.5C 120.5,132.175 120.334,125.842 120.5,119.5 Z"/></g>
<g><path style="opacity:1" fill="#d7e8fa" d="M 54.5,121.5 C 54.8333,121.5 55.1667,121.5 55.5,121.5C 65.4777,122.832 75.811,123.499 86.5,123.5C 97.189,123.499 107.522,122.832 117.5,121.5C 118.404,122.209 118.737,123.209 118.5,124.5C 97.1667,124.5 75.8333,124.5 54.5,124.5C 54.5,123.5 54.5,122.5 54.5,121.5 Z"/></g>
<g><path style="opacity:1" fill="#b2d4f6" d="M 55.5,121.5 C 76.1667,121.5 96.8333,121.5 117.5,121.5C 107.522,122.832 97.189,123.499 86.5,123.5C 75.811,123.499 65.4777,122.832 55.5,121.5 Z"/></g>
<g><path style="opacity:1" fill="#e94a3d" d="M 141.5,121.5 C 143.199,121.527 144.533,122.194 145.5,123.5C 145.263,124.791 145.596,125.791 146.5,126.5C 146.833,127.167 147.167,127.833 147.5,128.5C 147.833,129.833 148.167,131.167 148.5,132.5C 147.368,133.354 146.035,133.354 144.5,132.5C 143.609,131.89 142.609,131.557 141.5,131.5C 141.334,125.508 138.834,124.175 134,127.5C 133.517,126.552 133.351,125.552 133.5,124.5C 133.833,124.5 134.167,124.5 134.5,124.5C 136.581,123.01 138.914,122.01 141.5,121.5 Z"/></g>
<g><path style="opacity:1" fill="#ee665a" d="M 133.5,124.5 C 133.351,125.552 133.517,126.552 134,127.5C 138.834,124.175 141.334,125.508 141.5,131.5C 140.29,131.932 139.29,132.599 138.5,133.5C 137.778,133.918 137.278,134.584 137,135.5C 136.722,134.584 136.222,133.918 135.5,133.5C 135.011,132.005 134.345,130.671 133.5,129.5C 133.5,128.833 133.167,128.5 132.5,128.5C 132.232,126.901 132.566,125.568 133.5,124.5 Z"/></g>
<g><path style="opacity:1" fill="#c3ddf7" d="M 53.5,127.5 C 70.8333,127.5 88.1667,127.5 105.5,127.5C 105.5,128.5 105.5,129.5 105.5,130.5C 87.6588,130.83 69.9921,130.497 52.5,129.5C 52.3284,128.508 52.6618,127.842 53.5,127.5 Z"/></g>
<g><path style="opacity:0.933" fill="#fdc093" d="M 153.5,127.5 C 159.608,132.099 165.608,136.932 171.5,142C 176.801,153.862 181.467,166.362 185.5,179.5C 184.596,180.209 184.263,181.209 184.5,182.5C 182.453,182.511 180.453,182.844 178.5,183.5C 173.855,185.71 169.188,187.71 164.5,189.5C 163.293,185.626 160.96,182.626 157.5,180.5C 155.776,176.862 153.943,173.195 152,169.5C 150.91,163.987 149.244,158.654 147,153.5C 145.383,151.237 143.55,149.237 141.5,147.5C 141.007,145.194 140.674,142.861 140.5,140.5C 144.383,140.249 146.383,138.249 146.5,134.5C 149.738,137.964 152.238,141.964 154,146.5C 154.325,144.447 153.991,142.447 153,140.5C 151.499,137.714 149.999,135.047 148.5,132.5C 148.167,131.167 147.833,129.833 147.5,128.5C 149.621,128.675 151.621,128.341 153.5,127.5 Z"/></g>
<g><path style="opacity:1" fill="#49be87" d="M 132.5,128.5 C 133.167,128.5 133.5,128.833 133.5,129.5C 133.037,132.221 132.371,134.888 131.5,137.5C 130.5,137.5 129.5,137.5 128.5,137.5C 127.992,134.148 126.658,131.148 124.5,128.5C 125,128.167 125.5,127.833 126,127.5C 127.25,129.706 129.084,131.039 131.5,131.5C 131.263,130.209 131.596,129.209 132.5,128.5 Z"/></g>
<g><path style="opacity:1" fill="#dee3da" d="M 133.5,129.5 C 134.345,130.671 135.011,132.005 135.5,133.5C 135.5,134.167 135.5,134.833 135.5,135.5C 134.833,136.167 134.167,136.833 133.5,137.5C 132.833,137.5 132.167,137.5 131.5,137.5C 132.371,134.888 133.037,132.221 133.5,129.5 Z"/></g>
<g><path style="opacity:1" fill="#f7dbc1" d="M 141.5,131.5 C 142.609,131.557 143.609,131.89 144.5,132.5C 144.833,133.5 145.5,134.167 146.5,134.5C 146.383,138.249 144.383,140.249 140.5,140.5C 138.837,138.562 138.171,136.228 138.5,133.5C 139.29,132.599 140.29,131.932 141.5,131.5 Z"/></g>
<g><path style="opacity:1" fill="#ee7157" d="M 144.5,132.5 C 146.035,133.354 147.368,133.354 148.5,132.5C 149.999,135.047 151.499,137.714 153,140.5C 153.991,142.447 154.325,144.447 154,146.5C 152.238,141.964 149.738,137.964 146.5,134.5C 145.5,134.167 144.833,133.5 144.5,132.5 Z"/></g>
<g><path style="opacity:1" fill="#c4def8" d="M 51.5,133.5 C 65.8333,133.5 80.1667,133.5 94.5,133.5C 94.5,134.5 94.5,135.5 94.5,136.5C 80.1667,136.5 65.8333,136.5 51.5,136.5C 51.5,135.5 51.5,134.5 51.5,133.5 Z"/></g>
<g><path style="opacity:1" fill="#fdc499" d="M 135.5,135.5 C 135.925,138.119 136.925,140.453 138.5,142.5C 136.621,143.341 134.621,143.675 132.5,143.5C 132.5,142.167 132.5,140.833 132.5,139.5C 132.833,138.833 133.167,138.167 133.5,137.5C 134.167,136.833 134.833,136.167 135.5,135.5 Z"/></g>
<g><path style="opacity:1" fill="#f2a182" d="M 135.5,133.5 C 136.222,133.918 136.722,134.584 137,135.5C 137.278,134.584 137.778,133.918 138.5,133.5C 138.171,136.228 138.837,138.562 140.5,140.5C 140.674,142.861 141.007,145.194 141.5,147.5C 140.508,147.672 139.842,147.338 139.5,146.5C 139.567,145.041 139.234,143.708 138.5,142.5C 136.925,140.453 135.925,138.119 135.5,135.5C 135.5,134.833 135.5,134.167 135.5,133.5 Z"/></g>
<g><path style="opacity:1" fill="#ddac81" d="M 139.5,146.5 C 139.842,147.338 140.508,147.672 141.5,147.5C 142.213,150.594 143.213,153.594 144.5,156.5C 143.5,156.5 142.5,156.5 141.5,156.5C 141.5,157.5 141.5,158.5 141.5,159.5C 139.486,159.608 137.82,158.942 136.5,157.5C 136.5,155.833 136.5,154.167 136.5,152.5C 137.13,150.25 138.13,148.25 139.5,146.5 Z"/></g>
<g><path style="opacity:1" fill="#8999c6" d="M 46.5,153.5 C 46.5,152.833 46.8333,152.5 47.5,152.5C 77.1667,152.5 106.833,152.5 136.5,152.5C 136.5,154.167 136.5,155.833 136.5,157.5C 135.566,156.432 135.232,155.099 135.5,153.5C 105.833,153.5 76.1667,153.5 46.5,153.5 Z"/></g>
<g><path style="opacity:1" fill="#ed6d5c" d="M 141.5,147.5 C 143.55,149.237 145.383,151.237 147,153.5C 149.244,158.654 150.91,163.987 152,169.5C 153.943,173.195 155.776,176.862 157.5,180.5C 155.067,180.727 153.401,179.727 152.5,177.5C 150.975,170.799 148.642,164.466 145.5,158.5C 145.167,157.833 144.833,157.167 144.5,156.5C 143.213,153.594 142.213,150.594 141.5,147.5 Z"/></g>
<g><path style="opacity:0.864" fill="#3452a2" d="M 46.5,153.5 C 76.1667,153.5 105.833,153.5 135.5,153.5C 135.232,155.099 135.566,156.432 136.5,157.5C 137.82,158.942 139.486,159.608 141.5,159.5C 141.5,159.833 141.5,160.167 141.5,160.5C 141.5,161.5 141.5,162.5 141.5,163.5C 109.167,163.5 76.8333,163.5 44.5,163.5C 44.5,162.5 44.5,161.5 44.5,160.5C 45.1174,160.389 45.6174,160.056 46,159.5C 46.4955,157.527 46.6621,155.527 46.5,153.5 Z"/></g>
<g><path style="opacity:1" fill="#f2d9bf" d="M 144.5,156.5 C 144.833,157.167 145.167,157.833 145.5,158.5C 144.817,160.176 143.483,160.843 141.5,160.5C 141.5,160.167 141.5,159.833 141.5,159.5C 141.5,158.5 141.5,157.5 141.5,156.5C 142.5,156.5 143.5,156.5 144.5,156.5 Z"/></g>
<g><path style="opacity:1" fill="#817b99" d="M 46.5,153.5 C 46.6621,155.527 46.4955,157.527 46,159.5C 45.6174,160.056 45.1174,160.389 44.5,160.5C 44.9267,157.99 45.5933,155.657 46.5,153.5 Z"/></g>
<g><path style="opacity:0.585" fill="#dca87f" d="M 145.5,158.5 C 148.642,164.466 150.975,170.799 152.5,177.5C 149.972,176.816 147.805,175.482 146,173.5C 144.072,170.265 142.572,166.932 141.5,163.5C 141.5,162.5 141.5,161.5 141.5,160.5C 143.483,160.843 144.817,160.176 145.5,158.5 Z"/></g>
<g><path style="opacity:0.913" fill="#0f3468" d="M 10.5,168.5 C 19.0781,171.084 27.7448,173.417 36.5,175.5C 38.2785,176.67 39.2785,178.336 39.5,180.5C 37.901,180.232 36.5676,180.566 35.5,181.5C 35.5,182.5 35.5,183.5 35.5,184.5C 36.209,185.404 37.209,185.737 38.5,185.5C 38.6602,187.199 38.4935,188.866 38,190.5C 37.5172,189.552 37.3505,188.552 37.5,187.5C 36.1667,187.5 34.8333,187.5 33.5,187.5C 33.2627,188.791 33.596,189.791 34.5,190.5C 36.1484,192.456 36.8151,194.789 36.5,197.5C 26.1107,196.859 16.1107,197.526 6.5,199.5C 4.16667,199.5 1.83333,199.5 -0.5,199.5C -0.5,198.167 -0.5,196.833 -0.5,195.5C 2.41854,187.404 4.91854,179.071 7,170.5C 8.30238,169.915 9.46905,169.249 10.5,168.5 Z"/></g>
<g><path style="opacity:1" fill="#e4e3e5" d="M 13.5,166.5 C 21.4144,167.675 29.2477,169.675 37,172.5C 37.9021,172.257 38.7354,171.923 39.5,171.5C 40.2341,172.708 40.5674,174.041 40.5,175.5C 39.1667,175.5 37.8333,175.5 36.5,175.5C 27.7448,173.417 19.0781,171.084 10.5,168.5C 10.8212,166.952 11.8212,166.285 13.5,166.5 Z"/></g>
<g><path style="opacity:0.846" fill="#15376a" d="M 187.5,181.5 C 188.978,181.238 190.311,181.571 191.5,182.5C 193.434,187.982 196.101,192.982 199.5,197.5C 199.5,198.167 199.5,198.833 199.5,199.5C 197.167,199.5 194.833,199.5 192.5,199.5C 183.294,198.854 173.961,198.021 164.5,197C 164.167,196.667 163.833,196.333 163.5,196C 164.571,195.148 165.571,194.315 166.5,193.5C 172.088,190.014 178.088,187.181 184.5,185C 186.063,184.241 187.063,183.074 187.5,181.5 Z"/></g>
<g><path style="opacity:1" fill="#d2d8e1" d="M 35.5,181.5 C 36.5,181.5 37.5,181.5 38.5,181.5C 38.5,182.5 38.5,183.5 38.5,184.5C 37.5,184.5 36.5,184.5 35.5,184.5C 35.5,183.5 35.5,182.5 35.5,181.5 Z"/></g>
<g><path style="opacity:1" fill="#e9e7e7" d="M 185.5,179.5 C 186.167,180.167 186.833,180.833 187.5,181.5C 187.063,183.074 186.063,184.241 184.5,185C 178.088,187.181 172.088,190.014 166.5,193.5C 165.833,193.5 165.167,193.5 164.5,193.5C 161.833,192.167 161.833,190.833 164.5,189.5C 169.188,187.71 173.855,185.71 178.5,183.5C 180.453,182.844 182.453,182.511 184.5,182.5C 184.263,181.209 184.596,180.209 185.5,179.5 Z"/></g>
<g><path style="opacity:0.824" fill="#4d6284" d="M 36.5,175.5 C 37.8333,175.5 39.1667,175.5 40.5,175.5C 41.6089,176.879 42.2755,178.545 42.5,180.5C 40.9333,186.949 39.2666,193.282 37.5,199.5C 27.1667,199.5 16.8333,199.5 6.5,199.5C 16.1107,197.526 26.1107,196.859 36.5,197.5C 36.8151,194.789 36.1484,192.456 34.5,190.5C 33.596,189.791 33.2627,188.791 33.5,187.5C 34.8333,187.5 36.1667,187.5 37.5,187.5C 37.3505,188.552 37.5172,189.552 38,190.5C 38.4935,188.866 38.6602,187.199 38.5,185.5C 37.209,185.737 36.209,185.404 35.5,184.5C 36.5,184.5 37.5,184.5 38.5,184.5C 38.5,183.5 38.5,182.5 38.5,181.5C 37.5,181.5 36.5,181.5 35.5,181.5C 36.5676,180.566 37.901,180.232 39.5,180.5C 39.2785,178.336 38.2785,176.67 36.5,175.5 Z"/></g>
<g><path style="opacity:1" fill="#fcfcfd" d="M 34.5,190.5 C 34.6395,188.663 35.3061,188.33 36.5,189.5C 36.0431,190.298 35.3764,190.631 34.5,190.5 Z"/></g>
<g><path style="opacity:0.878" fill="#65728a" d="M 164.5,193.5 C 165.167,193.5 165.833,193.5 166.5,193.5C 165.571,194.315 164.571,195.148 163.5,196C 163.833,196.333 164.167,196.667 164.5,197C 173.961,198.021 183.294,198.854 192.5,199.5C 182.5,199.5 172.5,199.5 162.5,199.5C 162.025,196.918 162.692,194.918 164.5,193.5 Z"/></g>
</svg>
