<svg xmlns="http://www.w3.org/2000/svg" width="191.633" height="69.016" viewBox="0 0 191.633 69.016">
  <g id="numero_verde" transform="translate(-1.807 -1.8)">
    <g id="Raggruppa_33079" data-name="Raggruppa 33079" transform="translate(1.807 1.8)">
      <path id="Tracciato_110920" data-name="Tracciato 110920" d="M43,1.8h2.771L47.8,8.492h0V1.8h2.433V13.089H47.461L45.433,6.126h0v6.962H43V1.8ZM57.06,13.089h-2.3V12.075h0a1.918,1.918,0,0,1-1.825,1.217c-1.149,0-1.69-.879-1.69-1.96v-7.3h2.366v6.151c0,.338,0,.879.541.879s.541-.676.541-.879V4.031H57.06v9.058Zm1.082-9.058h2.3V5.18h0A1.886,1.886,0,0,1,62.265,3.9,1.523,1.523,0,0,1,63.887,5.18C64.361,4.369,64.7,3.9,65.78,3.9a1.728,1.728,0,0,1,1.758,1.96v7.3H65.172V7.073c0-.338,0-.946-.608-.946s-.608.744-.608.946v6.084H61.589V7.073c0-.338,0-.946-.608-.946-.541,0-.541.744-.541.946v6.084H58.074l.068-9.126Zm16.832,0H77.2V5.653h0c.338-.811.608-1.758,1.69-1.758V6.87h-.541c-.811,0-1.014.541-1.014,1.149v5.137H74.973ZM89.3,1.8h2.569l.676,8.044h0L93.36,1.8h2.569L94.036,13.089H90.994L89.3,1.8Zm13.925,2.231h2.231V5.653h0c.338-.811.608-1.758,1.69-1.758V6.87h-.541c-.811,0-1.014.541-1.014,1.149v5.137h-2.366V4.031ZM68.416,6.464c0-1.082.541-2.569,2.907-2.569S74.23,5.383,74.23,6.464v2.5H70.715v1.96c0,.338,0,.744.541.744s.541-.406.541-.744V9.776h2.366v.946c0,1.082-.541,2.569-2.907,2.569s-2.907-1.487-2.907-2.569V6.464Zm2.3.811H71.8V6.261c0-.338,0-.744-.541-.744s-.541.406-.541.744V7.275Zm8.72-.811c0-1.082.541-2.569,2.907-2.569s2.907,1.487,2.907,2.569v4.259c0,1.082-.541,2.569-2.907,2.569s-2.907-1.487-2.907-2.569Zm2.3,4.394c0,.338,0,.744.541.744s.541-.406.541-.744v-4.6c0-.338,0-.744-.541-.744s-.541.406-.541.744Zm31.906,2.231h-2.366V12.21h0a1.691,1.691,0,0,1-1.622,1.082c-1.082,0-1.758-1.014-1.758-2.7V6.126c0-1.42.541-2.3,1.69-2.3a1.668,1.668,0,0,1,1.69,1.014h0V1.8h2.366V13.089ZM111.273,6.87c0-.541-.135-1.149-.608-1.149a.524.524,0,0,0-.473.541v4.6c0,.473.2.608.473.608.608,0,.608-.879.608-1.487V6.87Zm3.312-.406c0-1.082.541-2.569,2.907-2.569S120.4,5.383,120.4,6.464v2.5h-3.447v1.96c0,.338,0,.744.541.744s.541-.406.541-.744V9.776H120.4v.946c0,1.082-.541,2.569-2.907,2.569s-2.907-1.487-2.907-2.569V6.464Zm2.366.811h1.082V6.261c0-.338,0-.744-.541-.744s-.541.406-.541.744V7.275ZM96.469,6.464c0-1.082.541-2.569,2.907-2.569s2.907,1.487,2.907,2.569v2.5H98.835v1.96c0,.338,0,.744.541.744s.541-.406.541-.744V9.776h2.366v.946c0,1.082-.541,2.569-2.907,2.569s-2.907-1.487-2.907-2.569V6.464Zm2.366.811h1.082V6.261c0-.338,0-.744-.541-.744s-.541.406-.541.744V7.275Z" transform="translate(-15.155 -1.8)" fill="#fff" fill-rule="evenodd"/>
      <path id="Tracciato_110921" data-name="Tracciato 110921" d="M8.089,70.743s8.112-.135,10.748-.135,2.569-.744,2.569-.744l-1.149-14.4c-.473-3.109-1.082-2.907-1.082-2.907l-3.515-.2c-3.988-.541-5.543-4.394-5.543-4.394L11.13,26.4c.2-6.895,8.314-6.084,8.314-6.084L21,19.234l3.109-14.2V3.687L23.028,2.335,10.928,2.2,8.967,4.3C7.615,6.256,4.1,19.37,4.1,19.37S-3.132,46.138,8.089,70.743Z" transform="translate(-1.807 -1.93)" fill="#fff" fill-rule="evenodd"/>
      <path id="Tracciato_110922" data-name="Tracciato 110922" d="M42.9,74.51H198.17c7.1,0,8.585-3.988,8.585-7.3V22.461c0-5.881-2.636-9.261-7.3-9.261H123.408a1.3,1.3,0,0,0-1.352,1.284,1.342,1.342,0,0,0,1.352,1.284h76.114q4.664,0,4.664,6.692V67.21c0,2.3-.744,4.664-6.016,4.664H42.9Z" transform="translate(-15.122 -5.494)" fill="#fff" fill-rule="evenodd"/>
    </g>
    <g id="Raggruppa_33080" data-name="Raggruppa 33080" transform="translate(27.421 23.296)">
      <path id="Tracciato_110923" data-name="Tracciato 110923" d="M55.382,60.639c0,2.771-.608,4.8-1.893,6.084s-3.245,1.96-5.949,1.96-4.732-.608-5.949-1.893S39.7,63.478,39.7,60.706V56.448a7.175,7.175,0,0,1,.946-4.056,6.3,6.3,0,0,1,3.245-2.1,6.558,6.558,0,0,1-3.177-2.1,6.2,6.2,0,0,1-.946-3.718V40.63a6.673,6.673,0,0,1,2.028-5.2A8.327,8.327,0,0,1,47.609,33.6a8.442,8.442,0,0,1,5.813,1.825,6.577,6.577,0,0,1,2.028,5.2v3.785A6.432,6.432,0,0,1,54.436,48.2a6.124,6.124,0,0,1-3.177,2.1,5.461,5.461,0,0,1,3.245,1.96,7.427,7.427,0,0,1,.946,4.123v4.259ZM48.69,45.97V40.224a1.788,1.788,0,0,0-.27-1.217,1.155,1.155,0,0,0-1.758,0,2.032,2.032,0,0,0-.27,1.217V45.97a2.137,2.137,0,0,0,.27,1.284,1.155,1.155,0,0,0,1.758,0A2.272,2.272,0,0,0,48.69,45.97Zm-2.3,8.652v7.368a1.788,1.788,0,0,0,.27,1.217,1.155,1.155,0,0,0,1.758,0,2.8,2.8,0,0,0,.27-1.284v-7.3a1.788,1.788,0,0,0-.27-1.217c-.135-.27-.473-.338-.879-.338a1,1,0,0,0-.879.406A1.691,1.691,0,0,0,46.392,54.623Z" transform="translate(-39.7 -33.6)" fill="#fff"/>
      <path id="Tracciato_110924" data-name="Tracciato 110924" d="M64.8,42.352q0-4.664,1.825-6.692c1.217-1.352,3.177-1.96,6.016-1.96,2.771,0,4.8.676,6.016,1.96s1.825,3.515,1.825,6.692V60q0,4.664-1.825,6.692c-1.217,1.284-3.177,1.96-6.016,1.96-2.771,0-4.8-.676-6.016-1.96S64.8,63.172,64.8,60Zm6.692-2.3V61.888a1.788,1.788,0,0,0,.27,1.217,1.155,1.155,0,0,0,1.758,0,2.8,2.8,0,0,0,.27-1.284V40.054a2.137,2.137,0,0,0-.27-1.284,1.067,1.067,0,0,0-.879-.338,1,1,0,0,0-.879.406A2.032,2.032,0,0,0,71.492,40.054Z" transform="translate(-47.833 -33.632)" fill="#fff"/>
      <path id="Tracciato_110925" data-name="Tracciato 110925" d="M89.9,42.352q0-4.664,1.825-6.692c1.217-1.352,3.177-1.96,6.016-1.96,2.771,0,4.8.676,6.016,1.96s1.825,3.515,1.825,6.692V60q0,4.664-1.825,6.692c-1.217,1.284-3.177,1.96-6.016,1.96-2.771,0-4.8-.676-6.016-1.96S89.9,63.172,89.9,60Zm6.692-2.3V61.888a1.788,1.788,0,0,0,.27,1.217,1.155,1.155,0,0,0,1.758,0,2.8,2.8,0,0,0,.27-1.284V40.054a2.137,2.137,0,0,0-.27-1.284,1.067,1.067,0,0,0-.879-.338,1,1,0,0,0-.879.406A2.032,2.032,0,0,0,96.592,40.054Z" transform="translate(-55.966 -33.632)" fill="#fff"/>
      <path id="Tracciato_110926" data-name="Tracciato 110926" d="M115.2,65.7V61.1h8.314v4.6Z" transform="translate(-64.164 -42.511)" fill="#fff"/>
      <path id="Tracciato_110927" data-name="Tracciato 110927" d="M131.25,68.26V42.641H127.6V38.585h.135a5.163,5.163,0,0,0,3.245-1.014,4.728,4.728,0,0,0,1.69-2.771h5.273V68.26Z" transform="translate(-68.182 -33.989)" fill="#fff"/>
      <path id="Tracciato_110928" data-name="Tracciato 110928" d="M155.488,68.26V59.946H146.7V55.214L153.054,34.8h9.058V55.214h2.028v4.732h-2.028V68.26Zm-3.65-13.046h3.921l.068-10.072c0-.406.068-1.217.135-2.366s.2-2.433.338-3.785h-.406q-.507,2.738-1.42,6.692C153.73,48.252,152.919,51.429,151.837,55.214Z" transform="translate(-74.371 -33.989)" fill="#fff"/>
      <path id="Tracciato_110929" data-name="Tracciato 110929" d="M189.582,60q0,4.664-1.825,6.692c-1.217,1.284-3.177,1.96-6.016,1.96-2.771,0-4.8-.676-6.016-1.96S173.9,63.172,173.9,60V42.352q0-4.664,1.825-6.692c1.217-1.284,3.177-1.96,6.016-1.96a8.694,8.694,0,0,1,5.746,1.69,5.9,5.9,0,0,1,2.1,4.732v6.151H182.89V40.054a1.788,1.788,0,0,0-.27-1.217,1.155,1.155,0,0,0-1.758,0,2.032,2.032,0,0,0-.27,1.217v9.058a5.73,5.73,0,0,1,3.65-1.352,5.1,5.1,0,0,1,3.988,1.487,6.048,6.048,0,0,1,1.352,4.326V60Zm-8.923-4.732v6.624a1.788,1.788,0,0,0,.27,1.217,1.155,1.155,0,0,0,1.758,0,2.8,2.8,0,0,0,.27-1.284V55.2a2.137,2.137,0,0,0-.27-1.284.965.965,0,0,0-.879-.338,1,1,0,0,0-.879.406A2.417,2.417,0,0,0,180.66,55.263Z" transform="translate(-83.185 -33.632)" fill="#fff"/>
      <path id="Tracciato_110930" data-name="Tracciato 110930" d="M200.152,68.26l8.585-28.8H198.8V34.8h16.764v4.394L207.182,68.26Z" transform="translate(-91.253 -33.989)" fill="#fff"/>
      <path id="Tracciato_110931" data-name="Tracciato 110931" d="M240.482,60q0,4.664-1.825,6.692c-1.217,1.284-3.177,1.96-6.016,1.96-2.771,0-4.8-.676-6.016-1.96S224.8,63.172,224.8,60V42.352q0-4.664,1.825-6.692c1.217-1.284,3.177-1.96,6.016-1.96a8.694,8.694,0,0,1,5.746,1.69,5.9,5.9,0,0,1,2.1,4.732v6.151H233.79V40.054a1.788,1.788,0,0,0-.27-1.217,1.155,1.155,0,0,0-1.758,0,2.032,2.032,0,0,0-.27,1.217v9.058a5.73,5.73,0,0,1,3.65-1.352,5.1,5.1,0,0,1,3.988,1.487,6.048,6.048,0,0,1,1.352,4.326Zm-8.923-4.732v6.624a1.789,1.789,0,0,0,.27,1.217,1.155,1.155,0,0,0,1.758,0,2.8,2.8,0,0,0,.27-1.284V55.2a2.137,2.137,0,0,0-.27-1.284.965.965,0,0,0-.879-.338,1,1,0,0,0-.879.406A2.417,2.417,0,0,0,231.56,55.263Z" transform="translate(-99.678 -33.632)" fill="#fff"/>
      <path id="Tracciato_110932" data-name="Tracciato 110932" d="M265.583,60q0,4.664-1.825,6.692c-1.217,1.284-3.177,1.96-6.016,1.96-2.771,0-4.8-.676-6.016-1.96S249.9,63.172,249.9,60V42.352q0-4.664,1.825-6.692c1.217-1.284,3.177-1.96,6.016-1.96a8.694,8.694,0,0,1,5.746,1.69,5.9,5.9,0,0,1,2.1,4.732v6.151H258.89V40.054a1.788,1.788,0,0,0-.27-1.217,1.155,1.155,0,0,0-1.757,0,2.032,2.032,0,0,0-.27,1.217v9.058a5.73,5.73,0,0,1,3.65-1.352,5.1,5.1,0,0,1,3.988,1.487,6.048,6.048,0,0,1,1.352,4.326Zm-8.99-4.732v6.624a1.788,1.788,0,0,0,.27,1.217,1.155,1.155,0,0,0,1.758,0,2.8,2.8,0,0,0,.27-1.284V55.2a2.137,2.137,0,0,0-.27-1.284.965.965,0,0,0-.879-.338,1,1,0,0,0-.879.406A3.3,3.3,0,0,0,256.592,55.263Z" transform="translate(-107.811 -33.632)" fill="#fff"/>
    </g>
  </g>
</svg>
