<?xml version="1.0" encoding="UTF-8"?>
<svg id="Livello_1" data-name="Livello 1" xmlns="http://www.w3.org/2000/svg" viewBox="0 0 507.07 153.55">
  <defs>
    <style>
      .cls-1 {
        fill-rule: evenodd;
      }

      .cls-1, .cls-2 {
        stroke-width: 0px;
      }

      .cls-3 {
        fill: #e30613;
        stroke: #e30613;
      }

      .cls-3, .cls-4 {
        stroke-width: 1.92px;
      }

      .cls-3, .cls-4, .cls-5 {
        stroke-miterlimit: 3.86;
      }

      .cls-4 {
        fill: #0077be;
        stroke: #0077be;
      }

      .cls-5 {
        fill: #bdbcbc;
        stroke: #bdbcbc;
        stroke-width: 2.56px;
      }
    </style>
  </defs>
  <path class="cls-1" d="m178.44,119.82v16.41c0,3.55.31,5.75.93,6.61.84,1.22,2.12,1.83,3.82,1.83h1.73v1.54h-19.31v-1.54h1.7c1.91,0,3.27-.78,4.09-2.33.44-.86.66-2.89.66-6.11v-36.4c0-3.55-.3-5.75-.9-6.61-.86-1.22-2.15-1.83-3.86-1.83h-1.7v-1.54h16.52c4.03,0,7.21.53,9.54,1.58,2.33,1.03,4.29,2.77,5.88,5.24,1.6,2.47,2.39,5.39,2.39,8.77,0,4.6-1.22,8.34-3.66,11.22-2.42,2.88-5.84,4.32-10.27,4.32-1.09,0-2.26-.1-3.52-.29-1.26-.19-2.62-.48-4.06-.87h0Zm0-2.37c1.17.28,2.22.49,3.13.62.91.14,1.68.21,2.33.21,2.3,0,4.29-1.11,5.95-3.32,1.68-2.24,2.53-5.14,2.53-8.68,0-2.44-.4-4.69-1.2-6.77-.8-2.1-1.93-3.67-3.39-4.7-1.46-1.05-3.13-1.58-4.99-1.58-1.13,0-2.58.26-4.36.79v23.44h0Z"/>
  <path class="cls-2" d="m223.35,144.66v1.54h-19.31v-1.54h1.6c1.86,0,3.21-.68,4.06-2.04.53-.89.8-3.02.8-6.4v-36.4c0-2.85-.14-4.74-.43-5.65-.22-.69-.68-1.29-1.36-1.79-.98-.66-1.99-1-3.06-1h-1.6v-1.54h19.31v1.54h-1.63c-1.84,0-3.18.68-4.02,2.04-.55.89-.83,3.02-.83,6.4v36.4c0,2.85.14,4.74.43,5.65.22.69.69,1.29,1.4,1.79.95.66,1.96,1,3.03,1h1.63Z"/>
  <path class="cls-2" d="m239.24,92.93v22.27h9.91c2.57,0,4.29-.48,5.15-1.45,1.15-1.27,1.79-3.52,1.93-6.73h1.23v19.61h-1.23c-.31-2.74-.62-4.5-.93-5.28-.4-.97-1.05-1.73-1.96-2.29-.91-.55-2.31-.83-4.19-.83h-9.91v18.57c0,2.49.09,4.02.27,4.57.18.53.49.96.93,1.29.44.31,1.29.46,2.53.46h7.65c2.55,0,4.4-.22,5.55-.66,1.15-.44,2.26-1.32,3.32-2.62,1.37-1.72,2.78-4.31,4.22-7.77h1.33l-3.89,14.13h-34.74v-1.54h1.6c1.06,0,2.07-.32,3.03-.96.71-.44,1.19-1.11,1.43-1.99.27-.89.4-2.7.4-5.44v-36.61c0-3.57-.29-5.78-.86-6.61-.8-1.11-2.13-1.66-3.99-1.66h-1.6v-1.54h34.74l.5,12.34h-1.3c-.47-2.96-.99-5-1.56-6.11-.55-1.11-1.39-1.95-2.49-2.53-.89-.42-2.45-.62-4.69-.62h-12.37Z"/>
  <path class="cls-2" d="m294.46,146.2l-17.42-47.41v37.65c0,3.46.3,5.62.9,6.48.82,1.16,2.12,1.75,3.89,1.75h1.6v1.54h-15.69v-1.54h1.6c1.91,0,3.26-.72,4.06-2.16.49-.89.73-2.91.73-6.07v-36.82c0-2.49-.22-4.29-.66-5.4-.31-.8-.89-1.47-1.73-1.99-.82-.55-2.15-.83-3.99-.83v-1.54h12.77l16.35,44.09,16.09-44.09h12.76v1.54h-1.56c-1.93,0-3.29.72-4.09,2.16-.49.89-.73,2.91-.73,6.07v36.82c0,3.46.31,5.62.93,6.48.82,1.16,2.12,1.75,3.89,1.75h1.56v1.54h-19.15v-1.54h1.6c1.93,0,3.28-.72,4.06-2.16.49-.89.73-2.91.73-6.07v-37.65l-17.39,47.41h-1.1Z"/>
  <path class="cls-1" d="m352.03,88.57c5.85,0,10.91,2.78,15.19,8.35,4.3,5.54,6.45,12.47,6.45,20.78,0,8.56-2.16,15.67-6.48,21.32-4.32,5.65-9.55,8.48-15.69,8.48s-11.42-2.76-15.66-8.27c-4.21-5.51-6.32-12.64-6.32-21.4s2.44-16.25,7.31-21.9c4.23-4.9,9.3-7.35,15.19-7.35h0Zm-.63,3.03c-4.03,0-7.27,1.87-9.71,5.61-3.04,4.65-4.55,11.47-4.55,20.44s1.57,16.28,4.72,21.23c2.42,3.77,5.61,5.65,9.57,5.65,4.23,0,7.72-2.06,10.47-6.19,2.77-4.13,4.15-10.64,4.16-19.53,0-9.64-1.52-16.83-4.55-21.57-2.44-3.77-5.81-5.65-10.11-5.65h0Z"/>
  <path class="cls-2" d="m375.4,89.86h12.23l27.56,42.26v-32.49c0-3.46-.31-5.62-.93-6.48-.82-1.16-2.12-1.75-3.89-1.75h-1.56v-1.54h15.69v1.54h-1.6c-1.91,0-3.26.72-4.06,2.16-.49.89-.73,2.91-.73,6.07v47.49h-1.2l-29.72-45.38v34.7c0,3.46.3,5.62.9,6.48.84,1.16,2.14,1.75,3.89,1.75h1.6v1.54h-15.69v-1.54h1.56c1.93,0,3.29-.72,4.09-2.16.49-.89.73-2.91.73-6.07v-39.18c-1.31-1.91-2.31-3.17-2.99-3.78-.66-.61-1.65-1.18-2.96-1.7-.64-.25-1.62-.37-2.93-.37v-1.54h0Z"/>
  <path class="cls-2" d="m464.86,89.86l.5,13.21h-1.26c-.24-2.33-.58-3.99-1-4.99-.69-1.61-1.61-2.78-2.76-3.53-1.13-.78-2.63-1.16-4.49-1.16h-6.35v43.05c0,3.46.3,5.62.9,6.48.84,1.16,2.14,1.75,3.89,1.75h1.56v1.54h-19.11v-1.54h1.6c1.91,0,3.26-.72,4.06-2.16.49-.89.73-2.91.73-6.07v-43.05h-5.42c-2.11,0-3.6.19-4.49.58-1.15.53-2.14,1.54-2.96,3.03-.82,1.5-1.31,3.52-1.46,6.07h-1.26l.53-13.21h36.8Z"/>
  <path class="cls-2" d="m481.28,92.93v22.27h9.91c2.57,0,4.29-.48,5.15-1.45,1.15-1.27,1.79-3.52,1.93-6.73h1.23v19.61h-1.23c-.31-2.74-.62-4.5-.93-5.28-.4-.97-1.05-1.73-1.96-2.29-.91-.55-2.3-.83-4.19-.83h-9.91v18.57c0,2.49.09,4.02.27,4.57.18.53.49.96.93,1.29.44.31,1.29.46,2.53.46h7.65c2.55,0,4.4-.22,5.55-.66,1.15-.44,2.26-1.32,3.32-2.62,1.37-1.72,2.78-4.31,4.22-7.77h1.33l-3.89,14.13h-34.74v-1.54h1.6c1.06,0,2.07-.32,3.02-.96.71-.44,1.19-1.11,1.43-1.99.27-.89.4-2.7.4-5.44v-36.61c0-3.57-.29-5.78-.86-6.61-.8-1.11-2.13-1.66-3.99-1.66h-1.6v-1.54h34.74l.5,12.34h-1.3c-.47-2.96-.99-5-1.56-6.11-.55-1.11-1.39-1.95-2.49-2.53-.89-.42-2.45-.62-4.69-.62h-12.37Z"/>
  <path class="cls-1" d="m217.49,73.36h-13.87l-17.58-30.35c-1.3.06-2.36.1-3.18.1h-1.07c-.38-.03-.78-.06-1.19-.1v18.86c0,4.09.36,6.62,1.07,7.61.97,1.4,2.43,2.11,4.37,2.11h2.03v1.77h-22.25v-1.77h1.95c2.2,0,3.77-.89,4.71-2.68.54-.99.8-3.33.8-7.04V19.93c0-4.08-.36-6.62-1.07-7.61-1-1.4-2.48-2.11-4.44-2.11h-1.95v-1.77h18.92c5.52,0,9.58.51,12.18,1.53,2.63.99,4.85,2.84,6.66,5.55,1.84,2.68,2.76,5.89,2.76,9.62,0,3.99-1.05,7.45-3.14,10.39-2.07,2.94-5.29,5.01-9.65,6.22l10.72,18.62c2.45,4.28,4.56,7.12,6.32,8.52,1.76,1.41,4.06,2.3,6.89,2.68v1.77h0Zm-36.89-33.37c.48,0,.91.02,1.26.05h.88c4.95,0,8.68-1.34,11.18-4.02,2.53-2.68,3.79-6.1,3.79-10.25s-1.02-7.34-3.06-9.86c-2.02-2.55-4.7-3.83-8.04-3.83-1.48,0-3.49.3-6.01.91v27h0Z"/>
  <path class="cls-2" d="m233.19,11.98v25.66h11.41c2.96,0,4.94-.56,5.94-1.68,1.33-1.47,2.07-4.05,2.22-7.76h1.42v22.6h-1.42c-.36-3.16-.72-5.19-1.07-6.08-.46-1.12-1.21-1.99-2.26-2.63-1.05-.64-2.66-.96-4.83-.96h-11.41v21.4c0,2.87.1,4.63.31,5.27.2.61.56,1.1,1.07,1.48.51.35,1.48.53,2.91.53h8.81c2.94,0,5.07-.25,6.4-.77,1.33-.51,2.6-1.52,3.83-3.02,1.58-1.98,3.2-4.96,4.86-8.95h1.53l-4.48,16.28h-40.03v-1.77h1.84c1.23,0,2.39-.37,3.49-1.1.82-.51,1.37-1.28,1.65-2.3.31-1.02.46-3.11.46-6.27V19.74c0-4.12-.33-6.65-1-7.61-.92-1.28-2.45-1.91-4.6-1.92h-1.84v-1.77h40.03l.57,14.22h-1.49c-.54-3.41-1.14-5.76-1.8-7.04-.64-1.28-1.6-2.25-2.87-2.92-1.02-.48-2.82-.72-5.4-.72h-14.25Z"/>
  <path class="cls-2" d="m312.86,6.95l1.34,20.49h-1.34c-1.35-5.11-3.1-8.95-5.25-11.54-3.09-3.73-7.06-5.6-11.91-5.6-6.61,0-11.64,3.27-15.09,9.82-2.89,5.52-4.33,12.1-4.33,19.73,0,6.19.96,11.84,2.87,16.95,1.92,5.11,4.42,8.86,7.51,11.25,3.11,2.36,6.31,3.54,9.58,3.54,1.92,0,3.77-.3,5.55-.91,1.79-.61,3.51-1.5,5.17-2.68v-18.77c0-3.26-.2-5.38-.61-6.37-.38-1.02-1-1.79-1.84-2.3-.82-.54-2.27-.81-4.37-.81v-1.82h20.11v1.82h-.96c-1.99,0-3.36.83-4.1,2.49-.51,1.18-.77,3.51-.77,6.99v19.87c-2.94,1.98-5.84,3.43-8.69,4.36-2.86.92-6.04,1.39-9.54,1.39-10.04,0-17.66-4.02-22.87-12.07-3.91-6.03-5.86-12.99-5.86-20.88,0-5.71,1.1-11.19,3.29-16.42,2.6-6.22,6.18-11.01,10.72-14.36,3.8-2.78,8.3-4.17,13.48-4.17,1.89,0,3.6.19,5.13.57,1.56.38,3.75,1.23,6.59,2.54,1.43.67,2.39,1.01,2.87,1.01s.89-.27,1.23-.81c.36-.57.57-1.68.65-3.3h1.42Z"/>
  <path class="cls-2" d="m345.58,71.59v1.77h-22.25v-1.77h1.84c2.14,0,3.7-.78,4.67-2.35.61-1.02.92-3.48.92-7.37V19.93c0-3.29-.17-5.46-.5-6.51-.26-.8-.78-1.48-1.57-2.06-1.12-.77-2.3-1.15-3.52-1.15h-1.84v-1.77h22.25v1.77h-1.88c-2.12,0-3.67.78-4.63,2.35-.64,1.02-.96,3.48-.96,7.37v41.94c0,3.29.17,5.46.5,6.51.26.8.79,1.48,1.61,2.06,1.1.77,2.26,1.15,3.49,1.15h1.88Z"/>
  <path class="cls-1" d="m376.18,6.95c6.74,0,12.58,3.21,17.5,9.62,4.95,6.38,7.43,14.36,7.43,23.94,0,9.86-2.49,18.05-7.47,24.56-4.98,6.51-11.01,9.77-18.08,9.77s-13.16-3.17-18.04-9.53c-4.85-6.35-7.28-14.57-7.28-24.66s2.81-18.72,8.43-25.23c4.88-5.65,10.71-8.47,17.5-8.47h0Zm-.73,3.5c-4.65,0-8.38,2.15-11.18,6.46-3.5,5.36-5.25,13.21-5.25,23.56s1.81,18.75,5.44,24.47c2.78,4.34,6.46,6.51,11.03,6.51,4.88,0,8.9-2.38,12.07-7.13,3.19-4.75,4.79-12.26,4.79-22.5,0-11.11-1.75-19.39-5.25-24.85-2.81-4.34-6.69-6.51-11.64-6.51h0Z"/>
  <path class="cls-2" d="m403.11,8.44h14.1l31.75,48.69V19.69c0-3.99-.36-6.48-1.07-7.47-.95-1.34-2.44-2.01-4.48-2.01h-1.8v-1.77h18.08v1.77h-1.84c-2.2,0-3.75.83-4.67,2.49-.56,1.02-.84,3.35-.84,6.99v54.73h-1.38l-34.24-52.28v39.98c0,3.99.34,6.48,1.03,7.47.97,1.34,2.46,2.01,4.48,2.01h1.84v1.77h-18.08v-1.77h1.8c2.22,0,3.79-.83,4.71-2.49.56-1.02.84-3.35.84-6.99V16.96c-1.51-2.2-2.66-3.65-3.45-4.36-.77-.7-1.9-1.36-3.41-1.96-.74-.29-1.86-.43-3.37-.43v-1.77h0Z"/>
  <path class="cls-2" d="m477.19,11.98v25.66h11.41c2.96,0,4.94-.56,5.94-1.68,1.33-1.47,2.07-4.05,2.22-7.76h1.42v22.6h-1.42c-.36-3.16-.72-5.19-1.07-6.08-.46-1.12-1.21-1.99-2.26-2.63-1.05-.64-2.66-.96-4.83-.96h-11.41v21.4c0,2.87.1,4.63.31,5.27.2.61.56,1.1,1.07,1.48.51.35,1.48.53,2.91.53h8.81c2.94,0,5.07-.25,6.4-.77,1.33-.51,2.6-1.52,3.83-3.02,1.58-1.98,3.2-4.96,4.86-8.95h1.53l-4.48,16.28h-40.03v-1.77h1.84c1.23,0,2.39-.37,3.49-1.1.82-.51,1.37-1.28,1.65-2.3.31-1.02.46-3.11.46-6.27V19.74c0-4.12-.33-6.65-1-7.61-.92-1.28-2.45-1.91-4.6-1.92h-1.84v-1.77h40.03l.57,14.22h-1.49c-.54-3.41-1.14-5.76-1.8-7.04-.64-1.28-1.6-2.25-2.87-2.92-1.02-.48-2.82-.72-5.4-.72h-14.25Z"/>
  <polygon class="cls-5" points="1.28 1.28 154.19 1.28 154.19 152.27 1.28 152.27 1.28 1.28 1.28 1.28"/>
  <polygon class="cls-3" points="96.5 96.02 146.88 96.02 146.88 145.12 96.5 145.12 96.5 96.02 96.5 96.02"/>
  <polygon class="cls-3" points="8.8 96.02 59.18 96.02 59.18 145.12 8.8 145.12 8.8 96.02 8.8 96.02"/>
  <polygon class="cls-3" points="8.8 9.01 59.18 9.01 59.18 58.11 8.8 58.11 8.8 9.01 8.8 9.01"/>
  <polygon class="cls-3" points="96.45 9.01 146.83 9.01 146.83 58.11 96.45 58.11 96.45 9.01 96.45 9.01"/>
  <polygon class="cls-4" points="39.66 17.6 116.28 17.6 120.91 32.15 106.84 32.15 109.24 25.43 46.38 25.43 48.78 31.99 34.55 31.99 39.66 17.6 39.66 17.6"/>
  <polygon class="cls-4" points="73.25 25.75 71.01 32.04 84.77 32.04 82.37 25.59 73.25 25.75 73.25 25.75"/>
</svg>