<svg xmlns="http://www.w3.org/2000/svg" xmlns:xlink="http://www.w3.org/1999/xlink" width="513.535" height="288.495" viewBox="0 0 513.535 288.495">
  <defs>
    <clipPath id="clip-path">
      <rect id="Rettangolo_166438" data-name="Rettangolo 166438" width="513.535" height="288.495" transform="translate(0 0)" fill="none"/>
    </clipPath>
  </defs>
  <g id="Raggruppa_33043" data-name="Raggruppa 33043" transform="translate(0 0.002)">
    <g id="Raggruppa_33042" data-name="Raggruppa 33042" transform="translate(0 -0.002)" clip-path="url(#clip-path)">
      <path id="Tracciato_110702" data-name="Tracciato 110702" d="M1151.623,450.346a.583.583,0,0,1-.819-.666c-.347.186-1.345.366-1.211-.771-.4.173-1.3.265-1.191-.822a.75.75,0,0,1-.928-1.158,8,8,0,0,1,1.624-1.5s-1.757.981-2.257.065c-.327-.6,2.357-1.658,3.579-2.391a4.433,4.433,0,0,1,1.32-.436,11.759,11.759,0,0,0,2.321-.843,8.483,8.483,0,0,0,1.376-.75c.613-.437.656-.418.656-.418l2.083,2.538s-1.315,1.362-1.527,1.695c-.308.484-.765,1.161-1.117,1.676-.87,2.014-3.7,3.667-3.909,3.783" transform="translate(-963.916 -370.377)" fill="#ffc099"/>
      <path id="Tracciato_110703" data-name="Tracciato 110703" d="M414.78,1735.676c0-3.506-14.09-6.348-155.9-6.348S30,1732.17,30,1735.676s87.072,6.348,228.881,6.348,155.9-2.842,155.9-6.348" transform="translate(7.182 -1453.529)" fill="#e6f0f0"/>
      <path id="Tracciato_110704" data-name="Tracciato 110704" d="M1910.6,1158.193c-1.8-40.973,45.839-81.926,97.343-94.59-.058,25.2-31.186,102.463-97.343,94.59" transform="translate(-1605.847 -893.976)" fill="#20b7bd"/>
      <path id="Tracciato_110705" data-name="Tracciato 110705" d="M1846.979,1282.686q6.562-5.68,13.02-11.462t12.849-11.639c4.26-3.9,8.519-7.809,12.727-11.768s8.421-7.914,12.6-11.907,8.318-8.023,12.431-12.082,8.165-8.182,12.161-12.36q3-3.128,5.907-6.354c.947-1.1,1.911-2.174,2.815-3.311l.687-.844.651-.878a17.6,17.6,0,0,0,1.211-1.842l-.448-.236a17.044,17.044,0,0,1-1.242,1.717l-.674.832-.716.8c-.939,1.083-1.949,2.113-2.933,3.162q-3,3.11-6.089,6.136c-4.116,4.039-8.313,8-12.525,11.942s-8.441,7.87-12.693,11.772-8.506,7.8-12.784,11.677q-12.831,11.625-25.794,23.1-6.479,5.738-13.027,11.39c-2.188,1.875-.322,4.039,1.869,2.149" transform="translate(-1550.025 -1006.942)" fill="#4d4d4d"/>
      <path id="Tracciato_110706" data-name="Tracciato 110706" d="M1967.5,1553.114a10.66,10.66,0,0,0,2.979.482,16.9,16.9,0,0,0,2.91-.3c1.9-.4,3.789-.836,5.647-1.354,3.731-1,7.377-2.226,10.987-3.52q5.4-2,10.681-4.225l5.27-2.242c.874-.385,1.751-.748,2.629-1.116s1.755-.717,2.644-.985l-.094-.5a44.635,44.635,0,0,0-5.583,1.517c-1.821.593-3.636,1.189-5.442,1.8-3.618,1.216-7.219,2.453-10.84,3.6-3.608,1.192-7.252,2.241-10.9,3.212-1.824.489-3.661.889-5.5,1.262a17.012,17.012,0,0,0-2.729.695,10.939,10.939,0,0,0-2.706,1.157Z" transform="translate(-1653.683 -1293.857)" fill="#4d4d4d"/>
      <path id="Tracciato_110707" data-name="Tracciato 110707" d="M2203.5,1346.315a2.511,2.511,0,0,0,.68.626,1.337,1.337,0,0,0,1.155.164l.536-.121c.718-.15,1.418-.357,2.126-.538,1.419-.357,2.807-.8,4.2-1.222,1.381-.462,2.755-.943,4.111-1.463s2.708-1.048,4.037-1.629,2.649-1.175,3.96-1.789c1.3-.638,2.593-1.285,3.875-1.952,2.551-1.358,5.06-2.8,7.487-4.345l-.226-.452c-2.687,1.071-5.306,2.22-7.972,3.269-1.324.541-2.655,1.061-3.989,1.571s-2.664,1.02-4.007,1.5c-2.684.951-5.369,1.884-8.09,2.676-1.36.391-2.715.806-4.088,1.131-.686.166-1.366.359-2.057.492l-.517.11a1.348,1.348,0,0,0-.5.174,1.459,1.459,0,0,0-.447.451,2.789,2.789,0,0,0-.372.856Z" transform="translate(-1851.999 -1120.907)" fill="#4d4d4d"/>
      <path id="Tracciato_110708" data-name="Tracciato 110708" d="M2127.176,1266.994a3.206,3.206,0,0,0,.573-2.629c-.091-.848-.1-1.7-.156-2.548l-.062-1.274-.016-1.275c-.011-.849-.032-1.7.009-2.547a56.639,56.639,0,0,1,1.026-10.1c.191-.823.34-1.658.563-2.473.241-.809.428-1.639.714-2.434s.51-1.616.856-2.388c.323-.782.628-1.574,1.023-2.324a35.223,35.223,0,0,1,5.694-8.455l-.357-.358a31.664,31.664,0,0,0-6.508,8.216c-.451.759-.811,1.562-1.189,2.358-.4.787-.681,1.623-1.021,2.437-.172.407-.3.827-.436,1.246l-.4,1.257c-.264.84-.453,1.7-.682,2.549a53.716,53.716,0,0,0-1.317,10.423c-.048.875-.034,1.748-.029,2.622l.006,1.311.054,1.307c.049.87.054,1.746.14,2.612a3.227,3.227,0,0,0,1.012,2.522Z" transform="translate(-1786.479 -1032.312)" fill="#4d4d4d"/>
      <path id="Tracciato_110709" data-name="Tracciato 110709" d="M1928.748,1433.227a12.254,12.254,0,0,0,.687-2.793c.139-.94.289-1.881.465-2.819.346-1.877.754-3.746,1.206-5.605.9-3.72,1.989-7.4,3.232-11.017a79.131,79.131,0,0,1,4.4-10.587,41.635,41.635,0,0,1,2.907-4.924,20.634,20.634,0,0,1,3.8-4.217l-.305-.4a19.994,19.994,0,0,0-4.078,4.2,41.115,41.115,0,0,0-3.116,4.929,80.128,80.128,0,0,0-4.666,10.635,114.568,114.568,0,0,0-3.354,11.1c-.468,1.876-.893,3.763-1.256,5.665-.185.951-.344,1.908-.492,2.868a8,8,0,0,0,.061,2.938Z" transform="translate(-1620.58 -1169.042)" fill="#4d4d4d"/>
      <path id="Tracciato_110710" data-name="Tracciato 110710" d="M1827.578,1123.869c-3.429-25.406,10.9-75.023,53.955-100.758,1.736,23.737-7.4,94.6-53.955,100.758" transform="translate(-1535.701 -859.942)" fill="#9cd9d9"/>
      <path id="Tracciato_110711" data-name="Tracciato 110711" d="M1795.054,1271.686l.648-1.528.661-1.523.657-1.525.674-1.518c.886-2.03,1.834-4.032,2.774-6.038.972-1.991,1.931-3.989,2.961-5.95.993-1.981,2.069-3.917,3.124-5.865l.4-.729.414-.719.829-1.439.829-1.439c.277-.48.549-.962.844-1.43l1.737-2.828c.292-.47.575-.946.873-1.411l.911-1.385,1.823-2.77c.617-.916,1.272-1.8,1.906-2.708l.959-1.35c.319-.451.635-.9.978-1.334l2.017-2.618c1.335-1.747,2.719-3.494,4.075-5.24,2.654-3.555,5.212-7.19,7.562-10.97a103.685,103.685,0,0,0,6.3-11.773c.9-2.039,1.736-4.1,2.458-6.208l.516-1.585.474-1.6c.145-.535.3-1.069.432-1.6l.211-.8c.038-.132.065-.268.113-.4.028-.063.065-.123.1-.182.009-.032.044-.054.024-.095-.009-.02-.021-.042,0-.051s.017-.01.059,0a1.691,1.691,0,0,1,.182.058h0l-.3-.132h0l0,0,.01,0,.019.007.039.014.077.029.151.062-.674-.331.138.089.07.043.035.021.018.01.009.005,0,0h0l-.3-.132h0l.161.105c.036.026.035.036.039.047s-.019.033-.04.046c-.045.024-.033.068-.046.1-.013.072-.018.144-.029.214-.031.137-.073.269-.109.4l-.22.8c-.142.534-.3,1.064-.448,1.595l-.489,1.583-.53,1.571c-.74,2.085-1.6,4.129-2.509,6.147a103.127,103.127,0,0,1-6.391,11.64c-2.377,3.734-4.96,7.323-7.637,10.829-1.374,1.729-2.751,3.43-4.121,5.183l-2.055,2.616c-.349.431-.671.883-1,1.334l-.976,1.35c-.646.9-1.312,1.792-1.941,2.709l-1.858,2.77-.929,1.385c-.3.466-.593.941-.89,1.411l-1.771,2.83c-.3.468-.578.951-.861,1.431l-.846,1.44-.846,1.44-.423.72-.406.73c-1.077,1.95-2.175,3.888-3.191,5.871-1.052,1.964-2.033,3.965-3.028,5.959-.963,2.009-1.933,4.016-2.842,6.05l-.691,1.522-.661,1.535-.656,1.537-.626,1.549c-.829,2.069.154,2.437,1.024.4" transform="translate(-1507.65 -995.835)" fill="#4d4d4d"/>
      <path id="Tracciato_110712" data-name="Tracciato 110712" d="M1968.42,1317.979a15.8,15.8,0,0,0,1.265-2.523c.354-.868.637-1.76.948-2.642q.892-2.66,1.609-5.367c.472-1.8.889-3.624,1.186-5.46.145-.919.268-1.84.329-2.766a9.544,9.544,0,0,0-.1-2.766l-.25.082a10.523,10.523,0,0,1-.085,2.676c-.107.9-.293,1.8-.466,2.7-.374,1.8-.835,3.587-1.345,5.363s-1.069,3.54-1.66,5.295l-.925,2.62a21.337,21.337,0,0,0-.738,2.694Z" transform="translate(-1654.294 -1089.692)" fill="#4d4d4d"/>
      <path id="Tracciato_110713" data-name="Tracciato 110713" d="M1860.782,1432.793a8.132,8.132,0,0,0,1.423-.388,10.975,10.975,0,0,0,1.344-.586c.872-.448,1.705-.984,2.548-1.5,1.68-1.04,3.336-2.153,4.958-3.271.811-.557,1.62-1.09,2.435-1.6.823-.49,1.653-.965,2.513-1.379.425-.218.86-.415,1.295-.615s.873-.39,1.313-.578.88-.375,1.326-.551l.666-.27c.22-.089.443-.18.677-.285a15.559,15.559,0,0,0,5.038-3.457,20.8,20.8,0,0,0,3.6-5.061,27.5,27.5,0,0,0,2.154-5.778,25.994,25.994,0,0,0,.577-3c.059-.5.106-1.008.117-1.514a5.622,5.622,0,0,0-.122-1.518l-.246.1a5.485,5.485,0,0,1,.022,1.429c-.038.49-.117.981-.2,1.47a25.534,25.534,0,0,1-.693,2.91,27.566,27.566,0,0,1-2.318,5.513,19.837,19.837,0,0,1-3.547,4.68,14.237,14.237,0,0,1-4.713,3.075c-1.776.686-3.607,1.39-5.382,2.241-.894.414-1.77.9-2.636,1.4s-1.694,1.066-2.513,1.621c-1.633,1.113-3.254,2.192-4.917,3.21l-1.249.758c-.421.244-.839.493-1.247.766a12.363,12.363,0,0,0-2.329,1.935Z" transform="translate(-1563.933 -1177.939)" fill="#4d4d4d"/>
      <path id="Tracciato_110714" data-name="Tracciato 110714" d="M1862.959,1410.922s-6.018-21.656,34.172-41.761c-2.535,11.291-4.158,34.015-34.172,41.761" transform="translate(-1565.58 -1150.802)" fill="#cfe8ec"/>
      <path id="Tracciato_110715" data-name="Tracciato 110715" d="M1809.37,1470.044c.652-1.056,1.326-2.068,1.991-3.091s1.33-2.041,1.981-3.07,1.294-2.067,1.958-3.092c.331-.514.662-1.027,1-1.535s.675-1.019,1.021-1.524c1.37-2.027,2.8-4.018,4.23-6s2.912-3.94,4.415-5.876q4.491-5.821,9.352-11.349c1.631-1.83,3.279-3.648,5-5.4l1.3-1.307,1.32-1.282,1.344-1.259,1.376-1.226-.13-.159a91.39,91.39,0,0,0-10.948,9.956c-3.417,3.563-6.646,7.3-9.748,11.134s-6.065,7.784-8.852,11.861c-.352.507-.7,1.019-1.039,1.533s-.684,1.029-1.021,1.547c-.676,1.034-1.342,2.078-1.955,3.155a32.742,32.742,0,0,0-1.667,3.332,15.717,15.717,0,0,0-1.118,3.582Z" transform="translate(-1520.643 -1196.79)" fill="#4d4d4d"/>
      <path id="Tracciato_110716" data-name="Tracciato 110716" d="M1916.985,1482.9a3.331,3.331,0,0,0,.3-.8,5.8,5.8,0,0,0,.154-.812c.077-.545.159-1.089.253-1.631.192-1.083.4-2.164.667-3.23a31.265,31.265,0,0,1,.928-3.159,15.685,15.685,0,0,1,1.378-2.982l-.168-.118a10.625,10.625,0,0,0-.919,1.413l-.2.37-.186.378c-.128.251-.242.507-.35.766a26.108,26.108,0,0,0-1.1,3.173c-.294,1.079-.549,2.168-.745,3.268-.1.549-.188,1.1-.27,1.653a4.049,4.049,0,0,0,.05,1.689Z" transform="translate(-1610.99 -1235.703)" fill="#4d4d4d"/>
      <path id="Tracciato_110717" data-name="Tracciato 110717" d="M1962.682,1474.687a1.817,1.817,0,0,0,.828.323c.143.015.287.014.431.017s.288.011.43,0c.286-.016.572-.022.856-.047s.568-.057.85-.1a17.142,17.142,0,0,0,3.3-.821,16.457,16.457,0,0,0,3.063-1.446c.247-.138.474-.309.706-.469s.451-.342.672-.517l.165-.133.156-.145.309-.291c.2-.2.375-.424.563-.633l-.157-.133a10.678,10.678,0,0,1-2.648,1.916,18.868,18.868,0,0,1-6.222,1.986c-.27.035-.541.056-.812.086s-.542.025-.812.038-.539-.02-.81-.007a1.973,1.973,0,0,0-.836.168Z" transform="translate(-1649.668 -1235.81)" fill="#4d4d4d"/>
      <path id="Tracciato_110718" data-name="Tracciato 110718" d="M1886.578,1580.59a4.455,4.455,0,0,0,.775.125,6.926,6.926,0,0,0,.767,0,8.683,8.683,0,0,0,1.489-.245l1.452-.345c.482-.114.957-.244,1.434-.35.238-.058.477-.108.715-.157s.475-.1.713-.143l.358-.064.357-.046.358-.05.358-.027a7.086,7.086,0,0,1,2.845.319l.09-.184a6,6,0,0,0-2.943-.818l-.387-.014-.384.009-.384.017-.38.036c-.255.021-.507.052-.757.088s-.5.077-.747.122c-.992.172-1.959.4-2.922.61a14.243,14.243,0,0,0-1.428.351c-.234.069-.468.153-.7.244a4.586,4.586,0,0,0-.7.318Z" transform="translate(-1585.682 -1326.831)" fill="#4d4d4d"/>
      <path id="Tracciato_110719" data-name="Tracciato 110719" d="M1892.191,1494.258c10.987-28.405,55.6-42.058,94.4-35.318-7.551,17.122-51.753,60.393-94.4,35.318" transform="translate(-1590.419 -1224.837)" fill="#e6f0f0"/>
      <path id="Tracciato_110720" data-name="Tracciato 110720" d="M1790.264,1558.3c2.068-.6,4.123-1.231,6.176-1.864q6.156-1.908,12.272-3.914c4.08-1.333,8.146-2.7,12.209-4.086s8.122-2.772,12.164-4.21,8.087-2.872,12.117-4.343,8.049-2.977,12.056-4.512,7.992-3.131,11.955-4.782q2.975-1.232,5.912-2.56c.971-.464,1.948-.909,2.9-1.413l.718-.369.7-.4a12.993,12.993,0,0,0,1.372-.891l-.235-.294a12.7,12.7,0,0,1-1.357.8l-.706.365-.727.334c-.962.457-1.956.856-2.937,1.276q-2.967,1.222-5.97,2.359c-4,1.52-8.038,2.963-12.079,4.388s-8.087,2.837-12.142,4.223-8.111,2.771-12.176,4.132c-8.128,2.721-16.266,5.415-24.429,8.024q-6.117,1.971-12.255,3.864c-2.047.623-4.1,1.244-6.148,1.833-2.067.568-.428,2.354.6,2.049" transform="translate(-1503.406 -1281.502)" fill="#4d4d4d"/>
      <path id="Tracciato_110721" data-name="Tracciato 110721" d="M1940.132,1682.921a7.9,7.9,0,0,0,1.883,1.215,12.5,12.5,0,0,0,2.068.665c1.412.291,2.826.561,4.245.763,2.834.435,5.681.685,8.522.881q4.266.248,8.524.31l4.253.046c.709,0,1.414.013,2.121.025s1.407.035,2.092.118l.084-.366a33.243,33.243,0,0,0-4.249-.632c-1.416-.14-2.828-.275-4.24-.4-2.823-.251-5.641-.484-8.448-.78-2.809-.265-5.6-.637-8.37-1.064-1.386-.211-2.755-.487-4.116-.78a12.641,12.641,0,0,0-2.063-.341,8.119,8.119,0,0,0-2.185-.02Z" transform="translate(-1630.714 -1414.17)" fill="#4d4d4d"/>
      <path id="Tracciato_110722" data-name="Tracciato 110722" d="M2164.118,1605.838a1.861,1.861,0,0,0,.276.628.993.993,0,0,0,.737.456l.4.078c.533.112,1.071.18,1.606.267,1.071.18,2.148.292,3.222.421,1.077.1,2.155.18,3.232.231s2.154.094,3.231.1,2.152-.009,3.227-.036c1.074-.047,2.147-.1,3.218-.173,2.14-.163,4.276-.4,6.387-.723l-.019-.375c-2.147-.072-4.271-.072-6.4-.153-1.062-.026-2.122-.069-3.181-.12s-2.116-.1-3.171-.177c-2.109-.153-4.213-.319-6.3-.592-1.041-.139-2.086-.261-3.117-.449-.516-.091-1.037-.163-1.546-.278l-.384-.079a1.006,1.006,0,0,0-.394-.031,1.085,1.085,0,0,0-.438.174,2.062,2.062,0,0,0-.508.471Z" transform="translate(-1818.978 -1348.877)" fill="#4d4d4d"/>
      <path id="Tracciato_110723" data-name="Tracciato 110723" d="M2097.755,1506.969a2.382,2.382,0,0,0,1.174-1.617c.19-.6.438-1.186.653-1.78l.338-.885.369-.872c.246-.581.486-1.166.766-1.73a42.087,42.087,0,0,1,3.709-6.564c.375-.5.725-1.027,1.121-1.515s.779-.987,1.211-1.443.828-.947,1.294-1.369.9-.883,1.389-1.276a26.156,26.156,0,0,1,6.393-4.053l-.136-.35a23.512,23.512,0,0,0-6.875,3.648c-.533.382-1.017.821-1.512,1.249s-.947.9-1.42,1.353c-.238.225-.452.472-.667.718l-.65.735c-.43.492-.814,1.02-1.224,1.53a39.885,39.885,0,0,0-4,6.7c-.293.581-.544,1.179-.8,1.774l-.386.893-.353.905c-.226.607-.483,1.2-.683,1.819a2.4,2.4,0,0,0-.063,2.017Z" transform="translate(-1762.73 -1246.921)" fill="#4d4d4d"/>
      <path id="Tracciato_110724" data-name="Tracciato 110724" d="M1905.062,1569.487a9.107,9.107,0,0,0,1.3-1.694c.375-.6.757-1.194,1.157-1.779.8-1.173,1.63-2.323,2.491-3.453,1.721-2.261,3.558-4.438,5.482-6.53a58.767,58.767,0,0,1,6.151-5.888,30.891,30.891,0,0,1,3.445-2.483,15.318,15.318,0,0,1,3.841-1.736l-.088-.365a14.844,14.844,0,0,0-4.026,1.643,30.528,30.528,0,0,0-3.589,2.424,59.519,59.519,0,0,0-6.344,5.842,85.024,85.024,0,0,0-5.589,6.549c-.878,1.136-1.729,2.293-2.543,3.479-.409.591-.8,1.2-1.189,1.8a5.936,5.936,0,0,0-.834,2.016Z" transform="translate(-1600.955 -1299.068)" fill="#4d4d4d"/>
      <path id="Tracciato_110725" data-name="Tracciato 110725" d="M1850.045,1426.185c5.377-16.816,28.953-43.445,63.343-46.724-5.936,15.278-32.563,56.658-63.343,46.724" transform="translate(-1554.994 -1159.46)" fill="#fff"/>
      <path id="Tracciato_110726" data-name="Tracciato 110726" d="M1787.12,1503.38c1.126-1.019,2.269-2.034,3.411-3.042l.855-.759.862-.752.859-.754.868-.745c1.151-1,2.333-1.966,3.51-2.936,1.193-.951,2.38-1.91,3.6-2.826,1.2-.938,2.445-1.825,3.677-2.725l.463-.336.47-.325.941-.65.941-.65c.314-.216.626-.436.947-.64l1.917-1.245c.32-.206.637-.418.96-.62l.976-.592,1.953-1.184c.655-.387,1.325-.746,1.986-1.121l1-.557c.332-.186.662-.374,1-.541l2.029-1.032c1.346-.692,2.724-1.37,4.084-2.055,2.7-1.426,5.367-2.932,7.946-4.588a71.428,71.428,0,0,0,7.4-5.46c1.16-1,2.293-2.04,3.364-3.135l.79-.833.767-.852c.248-.29.5-.578.744-.87l.368-.435c.063-.071.12-.147.187-.213.036-.031.077-.057.114-.085.015-.017.043-.021.043-.052,0-.015,0-.032.014-.033s.014,0,.037.017a1.21,1.21,0,0,1,.1.09h0l-.145-.17h0l0,0,.005.005.01.01.02.02.039.041.076.083-.322-.405.06.1.031.047.016.023.008.012,0,.006,0,0h0l-.145-.17h0l.069.113c.015.026.011.032.01.041s-.022.015-.038.016c-.035,0-.041.032-.059.049-.029.041-.054.084-.082.124-.059.076-.125.146-.187.219l-.374.433c-.246.291-.5.573-.75.86l-.772.84-.794.82c-1.077,1.078-2.214,2.1-3.378,3.082a71.008,71.008,0,0,1-7.416,5.351c-2.583,1.62-5.25,3.089-7.951,4.479-1.366.67-2.725,1.321-4.095,2.006l-2.052,1.02c-.344.165-.678.351-1.014.535l-1.006.551c-.669.371-1.346.727-2.008,1.111l-1.974,1.174-.987.587c-.327.2-.647.41-.971.615l-1.938,1.237c-.326.2-.641.42-.958.635l-.952.646-.952.646-.476.323-.469.334c-1.246.894-2.5,1.775-3.72,2.708-1.235.911-2.437,1.865-3.645,2.811-1.193.965-2.389,1.926-3.556,2.923l-.88.742-.865.759-.863.762-.847.779c-1.127,1.042-2.223,2.111-3.271,3.24Z" transform="translate(-1501.787 -1227.519)" fill="#4d4d4d"/>
      <path id="Tracciato_110727" data-name="Tracciato 110727" d="M2002.248,1512.145a10.9,10.9,0,0,0,1.532-1.2c.477-.435.916-.906,1.37-1.363q1.341-1.391,2.587-2.863c.827-.983,1.624-1.991,2.351-3.045.362-.529.711-1.065,1.022-1.623a6.573,6.573,0,0,0,.755-1.75l-.18-.023a7.252,7.252,0,0,1-.844,1.64c-.334.53-.716,1.036-1.089,1.545-.764,1.009-1.58,1.985-2.422,2.938s-1.711,1.886-2.6,2.8l-1.35,1.356a14.7,14.7,0,0,0-1.255,1.457Z" transform="translate(-1682.824 -1261.012)" fill="#4d4d4d"/>
      <path id="Tracciato_110728" data-name="Tracciato 110728" d="M1886.252,1593.084a5.579,5.579,0,0,0,1,.18,7.56,7.56,0,0,0,1.009.033c.675-.021,1.351-.108,2.028-.179,1.352-.15,2.712-.353,4.051-.569.669-.107,1.33-.2,1.987-.274s1.313-.112,1.971-.115c.329-.01.658,0,.987,0s.658.016.987.029.659.027.988.049l.494.029c.164.01.329.019.506.023a10.711,10.711,0,0,0,4.156-.661,14.318,14.318,0,0,0,3.736-2.083,18.926,18.926,0,0,0,3.048-2.957,17.884,17.884,0,0,0,1.245-1.7c.186-.3.364-.6.52-.908a3.877,3.877,0,0,0,.373-.98l-.182-.011a3.775,3.775,0,0,1-.409.9c-.168.293-.363.576-.559.855a17.626,17.626,0,0,1-1.291,1.605,18.993,18.993,0,0,1-3.072,2.744,13.648,13.648,0,0,1-3.589,1.863,9.8,9.8,0,0,1-3.84.52c-1.308-.1-2.654-.2-4.01-.2-.678-.007-1.366.035-2.053.09s-1.369.162-2.042.266c-1.345.21-2.672.4-4.007.544l-1,.1c-.334.028-.668.058-1,.108a8.522,8.522,0,0,0-2.021.515Z" transform="translate(-1585.427 -1330.532)" fill="#4d4d4d"/>
      <path id="Tracciato_110729" data-name="Tracciato 110729" d="M1813.461,1387.311c-6.685-15.117,5.2-37.477,22.675-49.783,3.673,9.469,3.316,43.038-22.675,49.783" transform="translate(-1522.657 -1124.215)" fill="#e8f0f2"/>
      <path id="Tracciato_110730" data-name="Tracciato 110730" d="M1894.954,1681.871s12.47-18.7,53.942-1.394c-10.206,5.454-28.475,19.065-53.942,1.394" transform="translate(-1592.741 -1406.295)" fill="#9cd9d9"/>
      <path id="Tracciato_110731" data-name="Tracciato 110731" d="M1796.767,1715.468c1.225-.2,2.432-.347,3.641-.51s2.414-.326,3.619-.505,2.41-.37,3.62-.536c.6-.085,1.209-.17,1.816-.244s1.212-.155,1.82-.222c2.429-.286,4.868-.507,7.308-.717s4.886-.368,7.333-.494c4.894-.267,9.8-.386,14.7-.329,2.451.04,4.9.1,7.352.262l1.836.127,1.833.163,1.831.2,1.827.241.036-.2a91.379,91.379,0,0,0-14.689-1.789c-4.93-.26-9.868-.266-14.8-.111s-9.856.49-14.763,1.042c-.614.065-1.227.139-1.84.214s-1.226.154-1.838.236c-1.225.164-2.45.341-3.666.58a32.716,32.716,0,0,0-3.612.914,15.727,15.727,0,0,0-3.443,1.492Z" transform="translate(-1510.152 -1437.867)" fill="#4d4d4d"/>
      <path id="Tracciato_110732" data-name="Tracciato 110732" d="M1990.969,1686.153a3.334,3.334,0,0,0,.8-.291,5.708,5.708,0,0,0,.716-.414c.463-.3.928-.591,1.4-.873.946-.562,1.9-1.109,2.882-1.6a31.411,31.411,0,0,1,3-1.36,15.679,15.679,0,0,1,3.158-.9l-.021-.2a10.623,10.623,0,0,0-1.67.227l-.412.088-.407.106c-.273.067-.542.147-.809.234a26.161,26.161,0,0,0-3.12,1.241c-1.009.482-2,1-2.961,1.57-.482.283-.957.576-1.428.875a4.048,4.048,0,0,0-1.247,1.141Z" transform="translate(-1673.345 -1412.49)" fill="#4d4d4d"/>
      <path id="Tracciato_110733" data-name="Tracciato 110733" d="M2059.852,1714.609a1.822,1.822,0,0,0,.3.838c.083.118.177.226.269.337s.179.225.28.327c.2.206.39.419.595.618s.414.392.627.581a17.143,17.143,0,0,0,2.776,1.962,16.43,16.43,0,0,0,3.1,1.375c.265.1.543.157.816.229s.553.118.831.172l.208.038.211.023.422.044c.281.024.566.007.847.013l0-.206a10.677,10.677,0,0,1-3.181-.754,18.885,18.885,0,0,1-5.567-3.415c-.2-.182-.4-.373-.595-.559s-.372-.394-.559-.59-.337-.421-.524-.618a1.975,1.975,0,0,0-.673-.524Z" transform="translate(-1731.341 -1441.065)" fill="#4d4d4d"/>
      <path id="Tracciato_110734" data-name="Tracciato 110734" d="M1939.563,1717.794a4.418,4.418,0,0,0,.412.669,6.928,6.928,0,0,0,.5.58,8.679,8.679,0,0,0,1.157.967l1.209.875c.4.29.81.565,1.2.858.2.142.393.291.586.439s.389.292.574.447l.282.229.268.241.271.238.254.253a7.085,7.085,0,0,1,1.616,2.363l.2-.052a6,6,0,0,0-1.3-2.763l-.242-.3-.258-.285-.264-.28-.276-.264c-.182-.179-.37-.35-.561-.516s-.385-.329-.58-.486c-.778-.639-1.585-1.22-2.37-1.814a14.341,14.341,0,0,0-1.2-.852c-.206-.132-.421-.255-.642-.372a4.6,4.6,0,0,0-.7-.323Z" transform="translate(-1630.236 -1443.709)" fill="#4d4d4d"/>
      <path id="Tracciato_110735" data-name="Tracciato 110735" d="M1790.743,1455.391a5.644,5.644,0,0,0,1.266-1.295,12.519,12.519,0,0,0,.91-1.5c.563-1.024,1.11-2.054,1.655-3.085q1.63-3.094,3.208-6.212t3.117-6.254c1.027-2.09,2.053-4.181,3.052-6.284s2-4.206,2.983-6.317,1.946-4.231,2.9-6.359,1.866-4.269,2.753-6.423q.669-1.614,1.286-3.251c.194-.551.4-1.1.571-1.656l.134-.417.115-.425a7.11,7.11,0,0,0,.184-.869l-.2-.023a6.948,6.948,0,0,1-.215.827l-.131.411-.151.407c-.194.544-.422,1.079-.637,1.617q-.67,1.607-1.386,3.2c-.953,2.12-1.948,4.222-2.951,6.32s-2.015,4.192-3.039,6.281-2.049,4.176-3.087,6.258q-3.113,6.246-6.3,12.454-1.591,3.1-3.221,6.186c-.546,1.025-1.094,2.049-1.656,3.063a10.309,10.309,0,0,0-1.329,3.242Z" transform="translate(-1505.006 -1180.941)" fill="#4d4d4d"/>
      <path id="Tracciato_110736" data-name="Tracciato 110736" d="M1839.731,1568.718a4.3,4.3,0,0,0,1.189-.256,6.822,6.822,0,0,0,1.049-.539c.654-.43,1.3-.869,1.922-1.336,1.255-.92,2.443-1.917,3.609-2.932s2.285-2.078,3.39-3.152l1.65-1.615c.272-.273.548-.537.824-.8s.554-.526.848-.758l-.108-.172a18.014,18.014,0,0,0-1.873,1.388q-.9.734-1.779,1.475c-1.18.987-2.35,1.979-3.541,2.943s-2.394,1.9-3.62,2.8c-.613.451-1.244.87-1.879,1.28a6.886,6.886,0,0,0-.922.661,4.4,4.4,0,0,0-.846.831Z" transform="translate(-1546.25 -1308.813)" fill="#4d4d4d"/>
      <path id="Tracciato_110737" data-name="Tracciato 110737" d="M1897.167,1465.485a1.015,1.015,0,0,0,.347.135.539.539,0,0,0,.458-.108l.183-.124c.248-.161.48-.342.719-.514.48-.342.936-.712,1.4-1.075s.9-.758,1.329-1.152.863-.791,1.277-1.2.823-.829,1.224-1.252.785-.863,1.168-1.3c.759-.884,1.489-1.793,2.174-2.729l-.151-.136c-.852.8-1.667,1.612-2.514,2.4q-.627.6-1.267,1.175c-.426.386-.85.774-1.285,1.149-.868.751-1.739,1.495-2.645,2.191-.453.346-.9.7-1.369,1.024-.233.163-.46.335-.7.486l-.178.117a.547.547,0,0,0-.163.139.59.59,0,0,0-.1.235,1.125,1.125,0,0,0-.014.376Z" transform="translate(-1594.502 -1223.814)" fill="#4d4d4d"/>
      <path id="Tracciato_110738" data-name="Tracciato 110738" d="M1863.218,1462.7a1.292,1.292,0,0,0-.17-1.071c-.158-.305-.287-.623-.432-.934l-.21-.469-.193-.476c-.129-.318-.261-.634-.37-.958a22.844,22.844,0,0,1-1.1-3.943c-.049-.337-.116-.672-.151-1.011s-.08-.678-.089-1.018-.046-.682-.029-1.022.005-.683.044-1.022a14.2,14.2,0,0,1,.9-4.009l-.187-.082a12.766,12.766,0,0,0-1.238,4.039c-.058.351-.076.705-.1,1.06s-.018.709-.026,1.064c-.005.178.008.355.019.532l.033.531c.024.354.079.7.118,1.057a21.649,21.649,0,0,0,1.034,4.106c.11.335.244.661.373.989l.195.491.212.483c.146.32.276.647.436.96a1.3,1.3,0,0,0,.749.8Z" transform="translate(-1563.249 -1215.963)" fill="#4d4d4d"/>
      <path id="Tracciato_110739" data-name="Tracciato 110739" d="M1822.877,1549.969a4.948,4.948,0,0,0-.151-1.149c-.086-.374-.167-.749-.239-1.127-.145-.755-.266-1.517-.369-2.281-.207-1.528-.338-3.068-.4-4.61a31.889,31.889,0,0,1,.1-4.62,16.711,16.711,0,0,1,.369-2.275,8.316,8.316,0,0,1,.808-2.141l-.174-.106a8.055,8.055,0,0,0-.915,2.176,16.618,16.618,0,0,0-.447,2.308,32.323,32.323,0,0,0-.192,4.676,46.017,46.017,0,0,0,.368,4.658c.1.773.217,1.543.359,2.311.07.384.151.767.236,1.149a3.221,3.221,0,0,0,.453,1.094Z" transform="translate(-1530.794 -1287.386)" fill="#4d4d4d"/>
      <path id="Tracciato_110740" data-name="Tracciato 110740" d="M716.683,1425.939l9.412,51.831a.845.845,0,0,0,1.664-.3l-2.12-11.673h17.946l2.175,11.975a.845.845,0,0,0,1.664-.3l-9.412-51.831a.846.846,0,0,0-.983-.681h0a.846.846,0,0,0-.681.983l1.019,5.614H719.421l-1.074-5.916a.845.845,0,1,0-1.664.3m20.872,6.652,1.821,10.031H721.43l-1.821-10.031Zm2.01,11.068,1.821,10.03H723.44l-1.821-10.03Zm-14.114,21.1-1.821-10.03h17.946l1.821,10.03Z" transform="translate(-602.372 -1197.688)" fill="#603813"/>
      <path id="Tracciato_110741" data-name="Tracciato 110741" d="M685.534,1432.59l-1.821,10.03H665.767l1.821-10.03Zm-2.01,11.068-1.821,10.03H663.757l1.821-10.03Zm-21.777,21.1,1.821-10.03h17.946l-1.821,10.03Zm25.05-39.12-1.074,5.916H667.777l1.019-5.614a.845.845,0,1,0-1.664-.3l-9.412,51.831a.845.845,0,0,0,1.664.3l2.175-11.975H679.5l-2.12,11.673a.845.845,0,0,0,1.664.3l9.412-51.831a.845.845,0,1,0-1.664-.3" transform="translate(-552.814 -1197.688)" fill="#8b6239"/>
      <path id="Tracciato_110742" data-name="Tracciato 110742" d="M1297.3,786.288h-62.089l-19.313,2.892h100.711Z" transform="translate(-1021.98 -660.887)" fill="#18878b"/>
      <path id="Tracciato_110743" data-name="Tracciato 110743" d="M1745.618,804.422H1726.31V957.6h19.38V804.43Z" transform="translate(-1450.993 -676.13)" fill="#83c0cc"/>
      <rect id="Rettangolo_166437" data-name="Rettangolo 166437" width="62.089" height="153.177" transform="translate(213.228 128.292)" fill="#acd7d7"/>
      <path id="Tracciato_110744" data-name="Tracciato 110744" d="M1215.519,804.422l-.071.008V957.6h19.385V804.422Z" transform="translate(-1021.605 -676.13)" fill="#cfe8ec"/>
      <path id="Tracciato_110745" data-name="Tracciato 110745" d="M1175.6,480.009a8.314,8.314,0,0,0-.149-1.371c-.06-.331-.131-.661-.2-.98a4.34,4.34,0,0,1-.237-1.317c.055-1.37-.21-4.317.435-4.313.987.005.9,2.131.9,2.131s.546-1.294.9-1.982a.709.709,0,0,1,1.383.257c.851-.592,1.186.218,1.223.633.883-.632,1.187.295,1.19.674a.552.552,0,0,1,.925.389,12.03,12.03,0,0,1-1.76,4.959c-.268.534-.623,1.229-.885,1.711a12.015,12.015,0,0,0-.455,1.251l-3.238-.781a12.389,12.389,0,0,0-.026-1.262" transform="translate(-987.609 -396.451)" fill="#f4b594"/>
      <path id="Tracciato_110746" data-name="Tracciato 110746" d="M1032.524,572.231c.447-2.78.266-5.4,2.816-6.815,7.3-4.055,9.889-11.493,11.377-15.093,5.038-12.188,6.53-14.06,8.686-18.823a33.843,33.843,0,0,1,3.847.781c-.63,2.975-3.918,16.508-5.786,21.442-1.731,4.574-11.425,21.871-13.634,29.318-.33,1.112-8.352-4.3-7.306-10.81" transform="translate(-867.775 -446.722)" fill="#0e4c71"/>
      <path id="Tracciato_110747" data-name="Tracciato 110747" d="M994.661,1007.662c.249,5.931-2.087,8.786,13.272,33.853-1.662,11.948.481,15.693,1.2,29.216,1.008,1.264,3.375-.288,4.122-.468-.439-1.951.941-21.022,4.1-29.254,2.267-5.907-10.958-40.462-10.958-40.462-4.028,2.564-11.634,9.58-11.737,7.115" transform="translate(-836.03 -840.976)" fill="#20b7bd"/>
      <path id="Tracciato_110748" data-name="Tracciato 110748" d="M940.328,1015.119l-4.149-1.017c-5.04-.772-12.1.016-11.114,8.756,1.805,16.049,6.52,21.83,10,29.671-4.36,11.322-.38,24.7-2.646,31.777,1.106.9,2.562.482,2.7,1.922,2.761-4.138,7.031-27.546,8.949-32.839,2.94-8.113-4.679-36.542-3.742-38.271" transform="translate(-777.455 -852.178)" fill="#acd7d7"/>
      <path id="Tracciato_110749" data-name="Tracciato 110749" d="M1061.8,1013.258q-.129-.4-.208-.736Z" transform="translate(-892.282 -851.042)" fill="#f7ad23"/>
      <path id="Tracciato_110750" data-name="Tracciato 110750" d="M984.056,716.674l.484-9.418,6.845,1.214s-1.108,6.016-.132,9.829-7.06.957-7.06.957Z" transform="translate(-827.116 -594.46)" fill="#f4b594"/>
      <path id="Tracciato_110751" data-name="Tracciato 110751" d="M993.573,814.693l-10.53,2.286,3.3-46.995,6.152-.347Z" transform="translate(-826.264 -646.893)" fill="#f0f0f0"/>
      <path id="Tracciato_110752" data-name="Tracciato 110752" d="M981.038,762.564l4.1.976,3.418-1.019.184,1.8-8.14,1.556Z" transform="translate(-824.211 -640.912)" fill="#f0f0f0"/>
      <path id="Tracciato_110753" data-name="Tracciato 110753" d="M1036.023,768.634c.451,2.333-.837,7.261.729,17,1.515,9.427,1.2,18.3,2.438,22.6.7,2.436-2.373,2.121-3.22,2.211-5.976.337-7.282,4.128-7.891,4.509-.156-2.764-1.047-46.444-.181-47.879.978-1.107,3.867-.724,7.356,1.006.591.293.757.482.769.547" transform="translate(-863.652 -644.219)" fill="#016a86"/>
      <path id="Tracciato_110754" data-name="Tracciato 110754" d="M906.5,773.76c-.47-.966-8.2.979-10.159,1.84-4.1,1.8-3.352,20.218-3.283,22.351a63.193,63.193,0,0,1-4.881,26.54c6.172,1.583,17.415-4.027,17.415-4.027s3.817-37.162.908-46.7" transform="translate(-746.53 -650.138)" fill="#016a86"/>
      <path id="Tracciato_110755" data-name="Tracciato 110755" d="M963.269,651s-4.68-3.979-5.514-9.882c-.4-2.817-.069-3.286.909-3.444-.147-.251-.269-.543-.4-.568.757-.3,1.439-.749,1.643-.779a1.32,1.32,0,0,0,.015-.533l.512.467s-.051-1.242,1.8-2c2.664-1.09,4.088-1.509,5.569-.934s6.073-1.647,4.078,4.546c-.533,1.656-.923,1.342-2.995,1.451-2.437.129-6.135,7.408-6.135,7.408Z" transform="translate(-804.871 -532.104)" fill="#1b1d29"/>
      <path id="Tracciato_110756" data-name="Tracciato 110756" d="M981.772,666.269a25.577,25.577,0,0,1,1.548,6.82c.326,3.676,1.45,7.386-2.422,7.225s-5.069-1.543-5.506-2.935-.73-1.678-1.712-1.883-2.779-3.985-1.118-4c1.225-.008,1.881,2.127,2.1,2.593a8.383,8.383,0,0,0,.422-3.039c-.056-.667-1.473-3.555-.8-3.928a10.179,10.179,0,0,1,7.479-.854" transform="translate(-816.887 -559.712)" fill="#ffc099"/>
      <path id="Tracciato_110757" data-name="Tracciato 110757" d="M997.034,697.578s.908,4.086-1.205,4.335-6.578,1.04-7.514-4.219-.238-3.033-.238-3.033l.037-2.967s.573,4.915,3.463,6c1.022.385,2.725-1.015,5.457-.119" transform="translate(-830.285 -581.379)" fill="#1b1d29"/>
      <path id="Tracciato_110758" data-name="Tracciato 110758" d="M1061.8,1013.258q-.129-.4-.208-.736Z" transform="translate(-892.282 -851.042)" fill="#f7ad23"/>
      <path id="Tracciato_110759" data-name="Tracciato 110759" d="M1061.8,1013.258q-.129-.4-.208-.736Z" transform="translate(-892.282 -851.042)" fill="#f7ad23"/>
      <path id="Tracciato_110760" data-name="Tracciato 110760" d="M1068.094,1426.737l-1.648,3.022a.88.88,0,0,0,.351,1.193l2.688,1.466.512-.976a14.011,14.011,0,0,0,4.823,3.844,39.864,39.864,0,0,0,5.428,2.6c1.049.379.982-1.3,0-2.124-3.29-2.764-5.645-3.888-6.223-7.282-.053-.309.112-.7-.16-.858-.724-.416-2.261-.994-2.827-1.29-.663-.347-1.087-.819-1.6-1.087a.475.475,0,0,0-.633.2Z" transform="translate(-896.275 -1197.894)" fill="#2b2b2b"/>
      <path id="Tracciato_110761" data-name="Tracciato 110761" d="M1114.571,1450.675a.347.347,0,1,1-.08-.484.347.347,0,0,1,.08.484" transform="translate(-936.287 -1218.855)" fill="#1b1d29"/>
      <path id="Tracciato_110762" data-name="Tracciato 110762" d="M1115.656,1453.75a.347.347,0,1,1-.08-.484.347.347,0,0,1,.08.484" transform="translate(-937.199 -1221.44)" fill="#1b1d29"/>
      <path id="Tracciato_110763" data-name="Tracciato 110763" d="M1116.617,1456.143a.347.347,0,1,1-.08-.484.347.347,0,0,1,.08.484" transform="translate(-938.007 -1223.451)" fill="#1b1d29"/>
      <path id="Tracciato_110764" data-name="Tracciato 110764" d="M1118.092,1458.938a.347.347,0,1,1-.08-.484.347.347,0,0,1,.08.484" transform="translate(-939.247 -1225.8)" fill="#1b1d29"/>
      <path id="Tracciato_110765" data-name="Tracciato 110765" d="M951.036,1453.581c-.918-2.657-1.837-4.507-2.024-6.367.024,0,.048.009.071,0a.347.347,0,0,0,.181-.456c-.02-.047-.066-.067-.1-.1a.334.334,0,0,0,.13-.4c-.007-.016-.026-.019-.035-.033a.329.329,0,0,0,.1-.373c-.013-.031-.046-.04-.066-.064a.344.344,0,0,0,.17-.446.328.328,0,0,0-.325-.182,7.232,7.232,0,0,1,.305-1.019c.114-.293.457-.545.3-.819-.407-.729-1.43-2.014-1.762-2.559-.39-.638-.512-1.262-.814-1.755a.475.475,0,0,0-.644-.156l-1.277.751-2.967,1.746a.879.879,0,0,0-.312,1.2l1.552,2.638.941-.574a14.007,14.007,0,0,0,2.162,5.775,39.9,39.9,0,0,0,3.324,5.016c.7.863,1.509-.61,1.091-1.822" transform="translate(-791.636 -1209.32)" fill="#1b1d29"/>
      <path id="Tracciato_110766" data-name="Tracciato 110766" d="M1151.762,518.29a.53.53,0,0,0-.8-.551c.089-.354.022-1.28-.986-.87.066-.394-.061-1.218-1.026-.839.19-.487-.378-1.373-1.126-.542-.512.569-1.3,1.423-1.3,1.423s.488-1.8-.464-2.007c-.622-.134-.967,2.505-1.354,3.771a4.011,4.011,0,0,0-.091,1.276,10.639,10.639,0,0,1-.231,2.264,7.817,7.817,0,0,1-.366,1.407c-.257.653-.229.686-.229.686l2.8,1.185s.939-1.51,1.194-1.782c.37-.4.882-.973,1.271-1.416a10.27,10.27,0,0,0,2.707-4" transform="translate(-961.375 -432.78)" fill="#ffc099"/>
      <path id="Tracciato_110767" data-name="Tracciato 110767" d="M925.337,607.22c13.009-6.811,18.005-14.21,22.734-19.142a13.438,13.438,0,0,0,2.161-3.032c3.752-7.092,11.95-18.9,11-19.349-1.05.115-4.234-1.241-4.234-1.241s-9.485,10.5-13.18,20.15c-14.462,10.447-8.579,5.644-16.428,11.984-8.169,6.6-7.2,13.329-2.051,10.631" transform="translate(-774.418 -474.434)" fill="#016a86"/>
      <path id="Tracciato_110768" data-name="Tracciato 110768" d="M1221.552,3.317l-1.146,3.673a31.763,31.763,0,0,1,7.724.654l3.1,3.177s.743-8.3-4.967-10.6c-3.218-1.294-4.276,3.38-4.709,3.092" transform="translate(-1025.771 0.002)" fill="#1b1d29"/>
      <path id="Tracciato_110769" data-name="Tracciato 110769" d="M1250.361,50.674l1.384,7.786-5.938,1.191-8.982-11.8,3.444-5.1Z" transform="translate(-1039.572 -35.928)" fill="#ffc19a"/>
      <path id="Tracciato_110770" data-name="Tracciato 110770" d="M1276.954,141.227c.495-.148,1.27-1.653,1.459-1.786.094.134.613,1,.288,1.4a1.406,1.406,0,0,1-1.747.387" transform="translate(-1073.302 -117.202)" fill="#fff"/>
      <path id="Tracciato_110771" data-name="Tracciato 110771" d="M1201.172,8.768a16.924,16.924,0,0,0,4.053,6.309c2.75,2.637,5.012,5.939,7.383,2.716s2.032-5.08,1.193-6.33-.88-1.672-.411-2.595-1.415-4.812-2.5-3.482c-.8.981.5,2.889.729,3.369a11.715,11.715,0,0,1-3.158-2.428c-.5-.477.521-4.857-.721-4.721-8.761.962-6.571,7.162-6.571,7.162" transform="translate(-1009.401 -1.347)" fill="#ffc099"/>
      <path id="Tracciato_110772" data-name="Tracciato 110772" d="M1240.832,42.05s2.7,3.371,4.269,1.83,5.087-4.625,1.455-8.777-2.289-2.151-2.289-2.151L1242,31.224s3.439,3.478,2.45,6.508c-.35,1.072-2.578,1.539-3.621,4.318" transform="translate(-1042.94 -26.244)" fill="#1b1d29"/>
      <path id="Tracciato_110773" data-name="Tracciato 110773" d="M1317.236,380.873c10.137-7.54,20.234-18.451,20.236-18.449.96,1.412-10.416,9.167-9.766,17.645a24.288,24.288,0,0,0,1.654,4.458c3.635,8.869,8.2,12.208,13.569,22.3a17.555,17.555,0,0,1,5.438-.125s-1.429-18.308-8.759-26.372c13.564-15.115,16.732-16.261,16.554-23.291-.189-7.456-3.064-12.622-5.447-13.078,0,0-23.925,3.675-24.848,4.027l-2.214,4.723c-2.474,3.6-3.922,4.293-8.119,10.665-2.566,3.9-10.956,14.374-9.864,17.881,1.216,3.908,7.76,22.265,10.462,27.952a22.01,22.01,0,0,0,5.741-.572c-2.235-12.519.968-20.7-4.637-27.77" transform="translate(-1097.356 -289.109)" fill="#00436d"/>
      <path id="Tracciato_110774" data-name="Tracciato 110774" d="M1183.439,476.308a.583.583,0,0,1-.811-.676c-.349.182-1.349.349-1.2-.786-.4.168-1.307.249-1.181-.836a.75.75,0,0,1-.914-1.169,8,8,0,0,1,1.642-1.484s-1.769.96-2.258.038c-.32-.6,2.377-1.629,3.607-2.348a4.436,4.436,0,0,1,1.325-.42,11.754,11.754,0,0,0,2.331-.815,8.475,8.475,0,0,0,1.385-.733c.618-.43.661-.41.661-.41l2.053,2.563s-1.331,1.346-1.547,1.676c-.314.48-.779,1.151-1.137,1.662-.894,2-3.74,3.622-3.955,3.736" transform="translate(-990.708 -392.245)" fill="#ffc19a"/>
      <path id="Tracciato_110775" data-name="Tracciato 110775" d="M1212.225,113.242c4.556,11.16.2,30.162-1.7,32.662-4.639,6.107-13.838,21.333-15.454,21,.6-1.447-3.284-2.41-3.284-2.41s4.52-13.689,12.062-23.517c-1.143-8.685-1.253-12.711-2.025-20.683-1.024-10.567,8.548-11.6,10.4-7.049" transform="translate(-1001.715 -93.031)" fill="#f8ae23"/>
      <path id="Tracciato_110776" data-name="Tracciato 110776" d="M1304.641,142.979l-1.532-1.021a.065.065,0,0,0-.1.038l-.369,1.511a.163.163,0,0,0,.069.176l1.19.794h0l.205.137a.176.176,0,0,0,.163.016.176.176,0,0,1-.163-.016l-.205-.137.376,1.235q.305-.2.62-.412l-.454-1.057h0l.266-1.088a.164.164,0,0,0-.068-.176" transform="translate(-1094.89 -119.309)" fill="#075380"/>
      <path id="Tracciato_110777" data-name="Tracciato 110777" d="M1323.487,198.056l3.55,2.589.737-4.523-14.234-33.152c-.209.141-.417.278-.62.412Z" transform="translate(-1103.532 -136.978)" fill="#c6831b"/>
      <path id="Tracciato_110778" data-name="Tracciato 110778" d="M1242.445,84.458c1.881-1.616,8.581-5.436,20.063,2.442,12.05,8.268,25.9,29.733,26.623,36.941-1.363,2.092-22.261,7.109-24.717,7.628-2.315-.025-5.595-6.35-7.836-10.3-2.116-3.73-6.846-14.873-10.864-19.484,3.255,2.987,4.122,21.529,2.921,22.977-1.564,1.887-4.093,7.217-6.632,11.408-2.417,3.99-6.7,11.539-7.717,10.355s-2.26-2.487-2.26-2.487,4.714-16.182,7.849-23.539c-1.525-7.342-2.886-9.416-4.015-13.941-3.208-12.859,1.524-17.652,6.585-22" transform="translate(-1035.539 -69.007)" fill="#ffd147"/>
      <path id="Tracciato_110779" data-name="Tracciato 110779" d="M1359.494,762.258a.39.39,0,1,0,.315-.453.391.391,0,0,0-.315.453" transform="translate(-1142.673 -640.305)" fill="#1b1d29"/>
      <path id="Tracciato_110780" data-name="Tracciato 110780" d="M1356.905,764.86a.39.39,0,1,0,.315-.453.39.39,0,0,0-.315.453" transform="translate(-1140.497 -642.491)" fill="#1b1d29"/>
      <path id="Tracciato_110781" data-name="Tracciato 110781" d="M1354.771,766.828a.39.39,0,1,0,.315-.453.391.391,0,0,0-.315.453" transform="translate(-1138.703 -644.146)" fill="#1b1d29"/>
      <path id="Tracciato_110782" data-name="Tracciato 110782" d="M1351.922,768.957a.39.39,0,1,0,.315-.453.391.391,0,0,0-.315.453" transform="translate(-1136.308 -645.935)" fill="#1b1d29"/>
      <path id="Tracciato_110783" data-name="Tracciato 110783" d="M1315.521,749.03l.53,3.839a.99.99,0,0,1-.846,1.116l-3.413.471-.149-1.232a15.779,15.779,0,0,1-6.609,2.122,44.893,44.893,0,0,1-6.749.567c-1.255-.019-.515-1.759.847-2.235,4.566-1.6,7.492-1.84,9.455-5.183.179-.3.162-.783.511-.84.928-.149,2.777-.144,3.491-.23.836-.1,1.471-.429,2.117-.506a.535.535,0,0,1,.588.46Z" transform="translate(-1090.689 -627.794)" fill="#2b2b2b"/>
      <path id="Tracciato_110784" data-name="Tracciato 110784" d="M1489.446,731.9l-.375-1.625a.535.535,0,0,0-.627-.4c-.636.135-1.24.518-2.063.694-.7.151-2.545.311-3.456.543-.342.087-.282.563-.433.882a8.052,8.052,0,0,1-.51.888.358.358,0,0,0-.177-.022.388.388,0,0,0-.271.463c-.036,0-.066-.023-.1-.013a.369.369,0,0,0-.256.35c-.019,0-.035-.012-.054-.007a.376.376,0,0,0-.263.4.365.365,0,0,0-.159-.02.391.391,0,0,0-.273.48c.009.031.04.044.055.07-1.681,1.381-3.956,2.068-6.94,3.424-1.314.6-1.894,2.4-.642,2.3a44.921,44.921,0,0,0,6.67-1.171,15.779,15.779,0,0,0,6.392-2.707l.259,1.213,3.358-.776a.99.99,0,0,0,.741-1.187Z" transform="translate(-1237.412 -613.459)" fill="#2b2b2b"/>
    </g>
  </g>
</svg>
