<?xml version="1.0" encoding="UTF-8"?>
<!DOCTYPE svg PUBLIC "-//W3C//DTD SVG 1.1//EN" "http://www.w3.org/Graphics/SVG/1.1/DTD/svg11.dtd">
<svg xmlns="http://www.w3.org/2000/svg" version="1.1" width="2638px" height="1423px" style="shape-rendering:geometricPrecision; text-rendering:geometricPrecision; image-rendering:optimizeQuality; fill-rule:evenodd; clip-rule:evenodd" xmlns:xlink="http://www.w3.org/1999/xlink">
<g><path style="opacity:1" fill="#faba05" d="M 1657.5,7.5 C 1769.54,7.01013 1881.54,7.51013 1993.5,9C 2020.7,19.8883 2031.2,39.7216 2025,68.5C 2018.11,86.2044 2005.27,96.7044 1986.5,100C 1841.5,100.5 1696.5,100.667 1551.5,100.5C 1548.43,128.404 1532.93,143.737 1505,146.5C 1487.96,145.567 1474.46,138.234 1464.5,124.5C 1427.04,146.801 1389.7,169.301 1352.5,192C 1242.5,192.667 1132.5,192.667 1022.5,192C 1001.56,187.729 988.395,175.229 983,154.5C 980.316,127.875 991.483,110.041 1016.5,101C 1163.8,99.5077 1311.13,99.0077 1458.5,99.5C 1459.43,79.8175 1468.76,65.6508 1486.5,57C 1510.35,49.2276 1529.68,55.3942 1544.5,75.5C 1582.4,53.059 1620.06,30.3923 1657.5,7.5 Z"/></g>
<g><path style="opacity:1" fill="#2166ab" d="M 368.5,928.5 C 267.5,928.5 166.5,928.5 65.5,928.5C 65.5,705.833 65.5,483.167 65.5,260.5C 166.333,259.334 267.333,259.167 368.5,260C 369.328,283.427 369.828,306.927 370,330.5C 412.25,292.961 461.417,269.128 517.5,259C 572.261,249.47 626.594,251.47 680.5,265C 726.777,277.6 760.777,305.1 782.5,347.5C 827.605,300.27 882.605,270.77 947.5,259C 1002.26,249.47 1056.59,251.47 1110.5,265C 1180.14,285.651 1218.97,332.151 1227,404.5C 1228.49,579.482 1228.99,754.482 1228.5,929.5C 1125.93,929.832 1023.43,929.499 921,928.5C 920.667,781.833 920.333,635.167 920,488.5C 914.167,461.333 897.667,444.833 870.5,439C 842.971,435.519 821.804,445.352 807,468.5C 803.819,474.527 801.486,480.86 800,487.5C 798.517,634.816 798.017,782.15 798.5,929.5C 695.93,929.832 593.43,929.499 491,928.5C 490.667,781.833 490.333,635.167 490,488.5C 482.364,457.013 462.364,440.346 430,438.5C 406.982,439.173 389.315,449.173 377,468.5C 373.672,474.817 371.339,481.484 370,488.5C 369.833,635.334 369.333,782.001 368.5,928.5 Z"/></g>
<g><path style="opacity:1" fill="#faba00" d="M 1658.5,928.5 C 1556.17,928.5 1453.83,928.5 1351.5,928.5C 1351.5,703.5 1351.5,478.5 1351.5,253.5C 1453.67,252.501 1556,252.167 1658.5,252.5C 1658.5,477.833 1658.5,703.167 1658.5,928.5 Z"/></g>
<g><path style="opacity:1" fill="#2166ab" d="M 2086.5,800.5 C 2086.44,799.957 2086.11,799.624 2085.5,799.5C 2084.5,924.498 2084.17,1049.5 2084.5,1174.5C 1983.43,1175.83 1882.26,1175.83 1781,1174.5C 1780.33,869.833 1780.33,565.167 1781,260.5C 1882.26,259.167 1983.43,259.167 2084.5,260.5C 2084.33,301.501 2084.5,342.501 2085,383.5C 2085.72,382.956 2086.22,382.289 2086.5,381.5C 2118.68,330.155 2162.68,292.655 2218.5,269C 2309.53,238.073 2391.53,253.74 2464.5,316C 2527.39,374.946 2564.56,447.446 2576,533.5C 2588.26,622.611 2572.93,706.611 2530,785.5C 2502.93,833.235 2465.77,871.068 2418.5,899C 2332.78,943.144 2249.45,939.144 2168.5,887C 2135.43,863.431 2108.09,834.598 2086.5,800.5 Z M 2170.5,438.5 C 2189.77,436.399 2206.77,441.566 2221.5,454C 2244.8,476.759 2259.63,504.259 2266,536.5C 2272.53,569.708 2273.2,603.041 2268,636.5C 2262.88,668.053 2250.22,696.053 2230,720.5C 2195.11,753.263 2161.11,752.263 2128,717.5C 2107.28,690.359 2094.94,659.692 2091,625.5C 2083.88,575.551 2091.88,528.218 2115,483.5C 2125.66,465.176 2140.49,451.343 2159.5,442C 2163.25,440.691 2166.92,439.525 2170.5,438.5 Z"/></g>
<g><path style="opacity:0.522" fill="#578cbe" d="M 65.5,260.5 C 65.5,483.167 65.5,705.833 65.5,928.5C 166.5,928.5 267.5,928.5 368.5,928.5C 267.335,929.499 166.001,929.833 64.5,929.5C 64.1669,706.333 64.5002,483.333 65.5,260.5 Z"/></g>
<g><path style="opacity:0.275" fill="#8eb2d4" d="M 2084.5,260.5 C 2085.17,300.833 2085.83,341.167 2086.5,381.5C 2086.22,382.289 2085.72,382.956 2085,383.5C 2084.5,342.501 2084.33,301.501 2084.5,260.5 Z"/></g>
<g><path style="opacity:0.275" fill="#8eb2d4" d="M 2086.5,800.5 C 2085.83,925.167 2085.17,1049.83 2084.5,1174.5C 2084.17,1049.5 2084.5,924.498 2085.5,799.5C 2086.11,799.624 2086.44,799.957 2086.5,800.5 Z"/></g>
<g><path style="opacity:0.627" fill="#fbd15b" d="M 1351.5,253.5 C 1351.5,478.5 1351.5,703.5 1351.5,928.5C 1453.83,928.5 1556.17,928.5 1658.5,928.5C 1556,929.499 1453.33,929.833 1350.5,929.5C 1350.17,703.999 1350.5,478.666 1351.5,253.5 Z"/></g>
<g><path style="opacity:0.997" fill="#060606" d="M 1462.5,1031.5 C 1479.22,1030.61 1494.88,1034.11 1509.5,1042C 1520.27,1050.54 1525.61,1061.54 1525.5,1075C 1511.84,1076.01 1498.17,1076.84 1484.5,1077.5C 1481.27,1062.37 1471.94,1056.53 1456.5,1060C 1448.17,1063.39 1446.5,1068.72 1451.5,1076C 1452.83,1076.67 1454.17,1077.33 1455.5,1078C 1471.38,1081.55 1487.05,1085.89 1502.5,1091C 1527.6,1102.27 1536.1,1121.11 1528,1147.5C 1519.57,1164.92 1505.74,1175.09 1486.5,1178C 1467.85,1180.81 1449.52,1179.48 1431.5,1174C 1419.25,1168.75 1410.75,1159.91 1406,1147.5C 1404.03,1141.95 1402.53,1136.28 1401.5,1130.5C 1402.38,1129.75 1403.38,1129.25 1404.5,1129C 1417.84,1128.17 1431.17,1127.33 1444.5,1126.5C 1447.27,1146.73 1458.61,1154.23 1478.5,1149C 1487.68,1144.44 1489.85,1137.6 1485,1128.5C 1481.7,1125.43 1477.87,1123.27 1473.5,1122C 1455.4,1118.97 1438.4,1112.97 1422.5,1104C 1409.98,1094.1 1405.14,1081.27 1408,1065.5C 1413.65,1047.52 1425.82,1037.02 1444.5,1034C 1450.65,1033.16 1456.65,1032.33 1462.5,1031.5 Z"/></g>
<g><path style="opacity:0.627" fill="#595959" d="M 234.5,1176.5 C 234.5,1129.5 234.5,1082.5 234.5,1035.5C 215.091,1035.18 195.757,1035.51 176.5,1036.5C 195.805,1034.51 215.472,1033.85 235.5,1034.5C 235.832,1082 235.499,1129.34 234.5,1176.5 Z"/></g>
<g><path style="opacity:0.997" fill="#020202" d="M 176.5,1036.5 C 195.757,1035.51 215.091,1035.18 234.5,1035.5C 234.5,1082.5 234.5,1129.5 234.5,1176.5C 222.833,1176.5 211.167,1176.5 199.5,1176.5C 199.667,1140.83 199.5,1105.17 199,1069.5C 197.991,1071.02 197.491,1072.69 197.5,1074.5C 189.162,1108.18 180.662,1141.85 172,1175.5C 166.412,1176.16 160.745,1176.49 155,1176.5C 149.089,1176.47 143.422,1175.81 138,1174.5C 129.333,1140.5 120.667,1106.5 112,1072.5C 111.5,1107.17 111.333,1141.83 111.5,1176.5C 99.5,1176.5 87.5,1176.5 75.5,1176.5C 75.5,1129.17 75.5,1081.83 75.5,1034.5C 94.8448,1034.17 114.178,1034.5 133.5,1035.5C 140.821,1063.12 147.988,1090.78 155,1118.5C 162.48,1091.25 169.647,1063.91 176.5,1036.5 Z"/></g>
<g><path style="opacity:0.998" fill="#010101" d="M 450.5,1035.5 C 450.5,1045.5 450.5,1055.5 450.5,1065.5C 426.167,1065.5 401.833,1065.5 377.5,1065.5C 377.5,1072.83 377.5,1080.17 377.5,1087.5C 400.167,1087.5 422.833,1087.5 445.5,1087.5C 445.5,1097.17 445.5,1106.83 445.5,1116.5C 422.833,1116.5 400.167,1116.5 377.5,1116.5C 376.506,1125.65 376.173,1134.99 376.5,1144.5C 401.833,1144.5 427.167,1144.5 452.5,1144.5C 452.5,1155.17 452.5,1165.83 452.5,1176.5C 412.833,1176.5 373.167,1176.5 333.5,1176.5C 333.5,1129.5 333.5,1082.5 333.5,1035.5C 372.5,1035.5 411.5,1035.5 450.5,1035.5 Z"/></g>
<g><path style="opacity:0.999" fill="#040404" d="M 669.5,1069.5 C 654.5,1069.5 639.5,1069.5 624.5,1069.5C 624.5,1105.17 624.5,1140.83 624.5,1176.5C 609.833,1176.5 595.167,1176.5 580.5,1176.5C 580.5,1141.17 580.5,1105.83 580.5,1070.5C 565.83,1070.67 551.163,1070.5 536.5,1070C 535.167,1058.33 535.167,1046.67 536.5,1035C 580.832,1034.5 625.165,1034.33 669.5,1034.5C 669.5,1046.17 669.5,1057.83 669.5,1069.5 Z"/></g>
<g><path style="opacity:0.999" fill="#050505" d="M 794.5,1176.5 C 794.5,1140.83 794.5,1105.17 794.5,1069.5C 779.5,1069.5 764.5,1069.5 749.5,1069.5C 748.171,1058.1 748.171,1046.6 749.5,1035C 793.832,1034.5 838.165,1034.33 882.5,1034.5C 882.5,1046.5 882.5,1058.5 882.5,1070.5C 867.833,1070.5 853.167,1070.5 838.5,1070.5C 838.5,1105.83 838.5,1141.17 838.5,1176.5C 823.833,1176.5 809.167,1176.5 794.5,1176.5 Z"/></g>
<g><path style="opacity:0.997" fill="#050505" d="M 1089.5,1034.5 C 1089.5,1044.5 1089.5,1054.5 1089.5,1064.5C 1064.99,1064.17 1040.66,1064.5 1016.5,1065.5C 1016.5,1072.83 1016.5,1080.17 1016.5,1087.5C 1039.17,1087.5 1061.83,1087.5 1084.5,1087.5C 1084.5,1097.17 1084.5,1106.83 1084.5,1116.5C 1061.83,1116.5 1039.17,1116.5 1016.5,1116.5C 1016.5,1125.5 1016.5,1134.5 1016.5,1143.5C 1041.5,1143.33 1066.5,1143.5 1091.5,1144C 1092.49,1154.75 1092.82,1165.59 1092.5,1176.5C 1052.17,1176.5 1011.83,1176.5 971.5,1176.5C 971.333,1129.5 971.5,1082.5 972,1035.5C 1011.09,1034.5 1050.26,1034.17 1089.5,1034.5 Z"/></g>
<g><path style="opacity:0.997" fill="#050505" d="M 1186.5,1034.5 C 1218.53,1034.05 1250.53,1034.55 1282.5,1036C 1299.89,1039.06 1310.39,1049.23 1314,1066.5C 1316.43,1091.48 1305.6,1107.31 1281.5,1114C 1290.09,1117.26 1296.93,1122.76 1302,1130.5C 1310.34,1145.18 1318.18,1160.18 1325.5,1175.5C 1308.84,1176.67 1292.18,1176.83 1275.5,1176C 1266.13,1158.75 1256.63,1141.59 1247,1124.5C 1242.23,1120.52 1236.73,1118.86 1230.5,1119.5C 1230.5,1138.5 1230.5,1157.5 1230.5,1176.5C 1215.5,1176.5 1200.5,1176.5 1185.5,1176.5C 1185.17,1129.09 1185.51,1081.76 1186.5,1034.5 Z M 1230.5,1063.5 C 1241.63,1062.96 1252.63,1063.79 1263.5,1066C 1267.72,1068.61 1269.72,1072.44 1269.5,1077.5C 1268.56,1086.27 1263.56,1090.77 1254.5,1091C 1246.51,1091.5 1238.51,1091.67 1230.5,1091.5C 1230.5,1082.17 1230.5,1072.83 1230.5,1063.5 Z"/></g>
<g><path style="opacity:0.999" fill="#060606" d="M 1668.5,1035.5 C 1669.5,1082.33 1669.83,1129.33 1669.5,1176.5C 1654.83,1176.5 1640.17,1176.5 1625.5,1176.5C 1625.5,1129.5 1625.5,1082.5 1625.5,1035.5C 1639.83,1035.5 1654.17,1035.5 1668.5,1035.5 Z"/></g>
<g><path style="opacity:0.627" fill="#3f3f3f" d="M 1668.5,1035.5 C 1654.17,1035.5 1639.83,1035.5 1625.5,1035.5C 1625.5,1082.5 1625.5,1129.5 1625.5,1176.5C 1624.5,1129.34 1624.17,1082 1624.5,1034.5C 1639.34,1034.17 1654.01,1034.5 1668.5,1035.5 Z"/></g>
<g><path style="opacity:0.627" fill="#3f3f3f" d="M 450.5,1035.5 C 411.5,1035.5 372.5,1035.5 333.5,1035.5C 333.5,1082.5 333.5,1129.5 333.5,1176.5C 332.501,1129.34 332.168,1082 332.5,1034.5C 372.004,1034.17 411.337,1034.5 450.5,1035.5 Z"/></g>
<g><path style="opacity:0.627" fill="#4d4d4d" d="M 1089.5,1034.5 C 1090.49,1044.65 1090.83,1054.99 1090.5,1065.5C 1065.83,1065.5 1041.17,1065.5 1016.5,1065.5C 1040.66,1064.5 1064.99,1064.17 1089.5,1064.5C 1089.5,1054.5 1089.5,1044.5 1089.5,1034.5 Z"/></g>
<g><path style="opacity:0.37" fill="#7e7e7e" d="M 199.5,1176.5 C 198.833,1142.5 198.167,1108.5 197.5,1074.5C 197.491,1072.69 197.991,1071.02 199,1069.5C 199.5,1105.17 199.667,1140.83 199.5,1176.5 Z"/></g>
<g><path style="opacity:0.063" fill="#afafaf" d="M 669.5,1069.5 C 655.01,1070.5 640.343,1070.83 625.5,1070.5C 625.832,1106 625.498,1141.34 624.5,1176.5C 624.5,1140.83 624.5,1105.17 624.5,1069.5C 639.5,1069.5 654.5,1069.5 669.5,1069.5 Z"/></g>
<g><path style="opacity:0.345" fill="#7e7e7e" d="M 749.5,1069.5 C 764.5,1069.5 779.5,1069.5 794.5,1069.5C 794.5,1105.17 794.5,1140.83 794.5,1176.5C 793.502,1141.34 793.168,1106 793.5,1070.5C 778.657,1070.83 763.99,1070.5 749.5,1069.5 Z"/></g>
<g><path style="opacity:0.063" fill="#b0b0b0" d="M 377.5,1116.5 C 377.5,1125.5 377.5,1134.5 377.5,1143.5C 402.672,1143.17 427.672,1143.5 452.5,1144.5C 427.167,1144.5 401.833,1144.5 376.5,1144.5C 376.173,1134.99 376.506,1125.65 377.5,1116.5 Z"/></g>
<g><path style="opacity:0.997" fill="#050505" d="M 1706.5,1422.5 C 1689.5,1422.5 1672.5,1422.5 1655.5,1422.5C 1628.14,1414.3 1612.31,1395.96 1608,1367.5C 1603.73,1343.49 1608.4,1321.49 1622,1301.5C 1637.81,1284.83 1657.31,1276.83 1680.5,1277.5C 1728.38,1278.38 1753.04,1302.71 1754.5,1350.5C 1756.19,1380.64 1744.19,1403.14 1718.5,1418C 1714.43,1419.63 1710.43,1421.13 1706.5,1422.5 Z M 1675.5,1311.5 C 1694.88,1310.43 1706.05,1319.43 1709,1338.5C 1710.06,1350.28 1709.4,1361.95 1707,1373.5C 1702.52,1385.83 1693.69,1391.83 1680.5,1391.5C 1662.23,1390.02 1652.73,1380.02 1652,1361.5C 1650,1347.84 1652,1334.84 1658,1322.5C 1662.59,1316.63 1668.43,1312.97 1675.5,1311.5 Z"/></g>
<g><path style="opacity:0.997" fill="#050505" d="M 2525.5,1422.5 C 2508.5,1422.5 2491.5,1422.5 2474.5,1422.5C 2447.6,1414.42 2431.76,1396.42 2427,1368.5C 2423.46,1347.49 2426.46,1327.49 2436,1308.5C 2451.44,1286.86 2472.61,1276.53 2499.5,1277.5C 2518.87,1276.9 2536.21,1282.4 2551.5,1294C 2562.65,1304.46 2569.48,1317.29 2572,1332.5C 2575.49,1352.89 2573.16,1372.56 2565,1391.5C 2556.02,1407.33 2542.85,1417.66 2525.5,1422.5 Z M 2494.5,1311.5 C 2513.9,1310.43 2525.07,1319.43 2528,1338.5C 2529.05,1349.95 2528.38,1361.28 2526,1372.5C 2521.71,1385.07 2512.88,1391.4 2499.5,1391.5C 2481.53,1390.28 2472.03,1380.61 2471,1362.5C 2469.47,1349.81 2470.8,1337.48 2475,1325.5C 2479.44,1317.88 2485.94,1313.22 2494.5,1311.5 Z"/></g>
<g><path style="opacity:1" fill="#010101" d="M 706.5,1280.5 C 706.5,1327.5 706.5,1374.5 706.5,1421.5C 692.167,1421.5 677.833,1421.5 663.5,1421.5C 663.5,1374.5 663.5,1327.5 663.5,1280.5C 677.833,1279.17 692.167,1279.17 706.5,1280.5 Z"/></g>
<g><path style="opacity:0.998" fill="#020202" d="M 943.5,1280.5 C 943.5,1327.5 943.5,1374.5 943.5,1421.5C 929.833,1421.5 916.167,1421.5 902.5,1421.5C 885.019,1397.22 868.019,1372.55 851.5,1347.5C 851.217,1346.71 850.717,1346.04 850,1345.5C 849.5,1370.83 849.333,1396.16 849.5,1421.5C 849.5,1421.83 849.5,1422.17 849.5,1422.5C 835.833,1422.5 822.167,1422.5 808.5,1422.5C 808.5,1374.83 808.5,1327.17 808.5,1279.5C 822.171,1279.33 835.837,1279.5 849.5,1280C 867.371,1305.57 884.871,1331.41 902,1357.5C 902.5,1331.5 902.667,1305.5 902.5,1279.5C 916.344,1279.17 930.01,1279.5 943.5,1280.5 Z"/></g>
<g><path style="opacity:0.627" fill="#3f3f3f" d="M 1179.5,1280.5 C 1179.5,1327.5 1179.5,1374.5 1179.5,1421.5C 1193.83,1421.5 1208.17,1421.5 1222.5,1421.5C 1222.5,1421.83 1222.5,1422.17 1222.5,1422.5C 1207.83,1422.5 1193.17,1422.5 1178.5,1422.5C 1178.17,1375 1178.5,1327.66 1179.5,1280.5 Z"/></g>
<g><path style="opacity:0.998" fill="#040404" d="M 1250.5,1369.5 C 1241.17,1369.5 1231.83,1369.5 1222.5,1369.5C 1222.5,1386.83 1222.5,1404.17 1222.5,1421.5C 1208.17,1421.5 1193.83,1421.5 1179.5,1421.5C 1179.5,1374.5 1179.5,1327.5 1179.5,1280.5C 1207.69,1279.1 1236.02,1279.26 1264.5,1281C 1287.83,1285.68 1299.5,1300.01 1299.5,1324C 1297.88,1354.78 1281.55,1369.94 1250.5,1369.5 Z M 1223.5,1309.5 C 1231.22,1309.24 1238.89,1309.74 1246.5,1311C 1254.98,1315.46 1257.81,1322.29 1255,1331.5C 1251.81,1337.01 1246.98,1339.85 1240.5,1340C 1234.84,1340.5 1229.18,1340.67 1223.5,1340.5C 1223.5,1330.17 1223.5,1319.83 1223.5,1309.5 Z"/></g>
<g><path style="opacity:0.998" fill="#040404" d="M 1532.5,1422.5 C 1515.83,1422.5 1499.17,1422.5 1482.5,1422.5C 1474.01,1406.86 1465.51,1391.19 1457,1375.5C 1454.14,1370.47 1449.98,1367.14 1444.5,1365.5C 1442.05,1364.53 1439.39,1364.19 1436.5,1364.5C 1436.5,1383.5 1436.5,1402.5 1436.5,1421.5C 1436.5,1421.83 1436.5,1422.17 1436.5,1422.5C 1421.83,1422.5 1407.17,1422.5 1392.5,1422.5C 1392.5,1374.83 1392.5,1327.17 1392.5,1279.5C 1423.18,1279.14 1453.85,1279.64 1484.5,1281C 1507.75,1283.58 1520.08,1296.58 1521.5,1320C 1519.68,1340.83 1508.68,1354.16 1488.5,1360C 1496.75,1362.92 1503.25,1368.08 1508,1375.5C 1516.69,1390.88 1524.86,1406.55 1532.5,1422.5 Z M 1437.5,1309.5 C 1447.89,1309.13 1458.22,1309.63 1468.5,1311C 1476.21,1315.8 1478.04,1322.3 1474,1330.5C 1469.12,1335.02 1463.29,1337.35 1456.5,1337.5C 1450.17,1337.5 1443.83,1337.5 1437.5,1337.5C 1437.5,1328.17 1437.5,1318.83 1437.5,1309.5 Z"/></g>
<g><path style="opacity:0.997" fill="#080808" d="M 1891.5,1422.5 C 1876.83,1422.5 1862.17,1422.5 1847.5,1422.5C 1846.34,1375.24 1846.17,1327.9 1847,1280.5C 1875.78,1279.1 1904.62,1279.27 1933.5,1281C 1956.84,1285.69 1968.51,1300.02 1968.5,1324C 1967.6,1349.57 1954.6,1364.57 1929.5,1369C 1916.87,1370.26 1904.2,1370.76 1891.5,1370.5C 1891.5,1387.83 1891.5,1405.17 1891.5,1422.5 Z M 1891.5,1309.5 C 1900.32,1308.97 1908.99,1309.8 1917.5,1312C 1924.44,1317.35 1926.27,1324.18 1923,1332.5C 1920.74,1335.43 1917.9,1337.6 1914.5,1339C 1906.89,1340.31 1899.23,1340.81 1891.5,1340.5C 1891.5,1330.17 1891.5,1319.83 1891.5,1309.5 Z"/></g>
<g><path style="opacity:0.998" fill="#040404" d="M 2199.5,1420.5 C 2183.34,1421.5 2167.01,1421.83 2150.5,1421.5C 2141.86,1406 2133.36,1390.33 2125,1374.5C 2122.47,1369.8 2118.63,1366.8 2113.5,1365.5C 2110.71,1364.52 2107.71,1364.19 2104.5,1364.5C 2104.5,1383.5 2104.5,1402.5 2104.5,1421.5C 2090.17,1421.5 2075.83,1421.5 2061.5,1421.5C 2061.5,1374.5 2061.5,1327.5 2061.5,1280.5C 2092.01,1279.15 2122.68,1279.31 2153.5,1281C 2179.52,1285.03 2191.35,1300.19 2189,1326.5C 2185.39,1344.12 2174.89,1355.28 2157.5,1360C 2161.11,1361.14 2164.45,1362.81 2167.5,1365C 2169.65,1368.11 2172.15,1370.95 2175,1373.5C 2184.21,1388.59 2192.38,1404.26 2199.5,1420.5 Z M 2105.5,1309.5 C 2115.89,1309.13 2126.22,1309.63 2136.5,1311C 2141.9,1313.13 2144.57,1317.13 2144.5,1323C 2143.46,1333.02 2137.79,1337.69 2127.5,1337C 2120.17,1337.5 2112.84,1337.67 2105.5,1337.5C 2105.5,1328.17 2105.5,1318.83 2105.5,1309.5 Z"/></g>
<g><path style="opacity:1" fill="#080808" d="M 2329.5,1280.5 C 2329.5,1327.5 2329.5,1374.5 2329.5,1421.5C 2315.17,1421.5 2300.83,1421.5 2286.5,1421.5C 2285.34,1374.67 2285.17,1327.67 2286,1280.5C 2300.6,1279.17 2315.1,1279.17 2329.5,1280.5 Z"/></g>
<g><path style="opacity:0.627" fill="#515151" d="M 663.5,1280.5 C 663.5,1327.5 663.5,1374.5 663.5,1421.5C 677.833,1421.5 692.167,1421.5 706.5,1421.5C 706.5,1374.5 706.5,1327.5 706.5,1280.5C 707.499,1327.66 707.832,1375 707.5,1422.5C 692.5,1422.5 677.5,1422.5 662.5,1422.5C 662.168,1375 662.501,1327.66 663.5,1280.5 Z"/></g>
<g><path style="opacity:0.627" fill="#3f3f3f" d="M 2329.5,1280.5 C 2330.5,1327.66 2330.83,1375 2330.5,1422.5C 2315.83,1422.5 2301.17,1422.5 2286.5,1422.5C 2286.5,1422.17 2286.5,1421.83 2286.5,1421.5C 2300.83,1421.5 2315.17,1421.5 2329.5,1421.5C 2329.5,1374.5 2329.5,1327.5 2329.5,1280.5 Z"/></g>
<g><path style="opacity:0.588" fill="#6a6a6a" d="M 1437.5,1309.5 C 1437.5,1318.83 1437.5,1328.17 1437.5,1337.5C 1443.83,1337.5 1450.17,1337.5 1456.5,1337.5C 1450.02,1338.49 1443.35,1338.82 1436.5,1338.5C 1436.17,1328.65 1436.51,1318.99 1437.5,1309.5 Z"/></g>
<g><path style="opacity:0.067" fill="#bebebe" d="M 851.5,1347.5 C 850.833,1372.17 850.167,1396.83 849.5,1421.5C 849.333,1396.16 849.5,1370.83 850,1345.5C 850.717,1346.04 851.217,1346.71 851.5,1347.5 Z"/></g>
<g><path style="opacity:0.071" fill="#bcbcbc" d="M 1444.5,1365.5 C 1442.17,1365.5 1439.83,1365.5 1437.5,1365.5C 1437.83,1384.34 1437.5,1403.01 1436.5,1421.5C 1436.5,1402.5 1436.5,1383.5 1436.5,1364.5C 1439.39,1364.19 1442.05,1364.53 1444.5,1365.5 Z"/></g>
<g><path style="opacity:0.561" fill="#585858" d="M 2061.5,1280.5 C 2061.5,1327.5 2061.5,1374.5 2061.5,1421.5C 2075.83,1421.5 2090.17,1421.5 2104.5,1421.5C 2104.5,1402.5 2104.5,1383.5 2104.5,1364.5C 2107.71,1364.19 2110.71,1364.52 2113.5,1365.5C 2110.83,1365.5 2108.17,1365.5 2105.5,1365.5C 2105.5,1384.5 2105.5,1403.5 2105.5,1422.5C 2090.5,1422.5 2075.5,1422.5 2060.5,1422.5C 2060.17,1375 2060.5,1327.66 2061.5,1280.5 Z"/></g>
<g><path style="opacity:0.345" fill="#8e8e8e" d="M 1250.5,1369.5 C 1241.68,1370.49 1232.68,1370.83 1223.5,1370.5C 1223.5,1387.83 1223.5,1405.17 1223.5,1422.5C 1223.17,1422.5 1222.83,1422.5 1222.5,1422.5C 1222.5,1422.17 1222.5,1421.83 1222.5,1421.5C 1222.5,1404.17 1222.5,1386.83 1222.5,1369.5C 1231.83,1369.5 1241.17,1369.5 1250.5,1369.5 Z"/></g>
<g><path style="opacity:0.992" fill="#5a5a5a" d="M 943.5,1280.5 C 944.499,1327.66 944.832,1375 944.5,1422.5C 930.5,1422.5 916.5,1422.5 902.5,1422.5C 902.5,1422.17 902.5,1421.83 902.5,1421.5C 916.167,1421.5 929.833,1421.5 943.5,1421.5C 943.5,1374.5 943.5,1327.5 943.5,1280.5 Z"/></g>
<g><path style="opacity:1" fill="#404040" d="M 2199.5,1420.5 C 2200.34,1420.84 2200.67,1421.51 2200.5,1422.5C 2183.83,1422.5 2167.17,1422.5 2150.5,1422.5C 2150.5,1422.17 2150.5,1421.83 2150.5,1421.5C 2167.01,1421.83 2183.34,1421.5 2199.5,1420.5 Z"/></g>
</svg>
