<svg xmlns="http://www.w3.org/2000/svg" width="255.676" height="156.379" viewBox="0 0 255.676 156.379">
  <g id="Raggruppa_33087" data-name="Raggruppa 33087" transform="translate(-16.465 -11.883)">
    <g id="Raggruppa_33088" data-name="Raggruppa 33088" transform="translate(0 0.268)">
      <g id="Raggruppa_33089" data-name="Raggruppa 33089" transform="translate(0 0)">
        <path id="Tracciato_110933" data-name="Tracciato 110933" d="M4383.618,1721.864a.27.27,0,0,1,.015-.3c3.22-4.394,10.069-17.373,14.568-26.878,4.253-8.986,11.835-16.165,11.912-16.236a.269.269,0,0,1,.368.392c-.075.071-7.585,7.182-11.793,16.074-4.509,9.528-11.381,22.546-14.621,26.966a.27.27,0,0,1-.449-.022" transform="translate(-4155.713 -1591.165)" fill="#ff8f88"/>
        <path id="Tracciato_110934" data-name="Tracciato 110934" d="M4851.576,1598.84a5.5,5.5,0,0,1,1.309-.919,2.194,2.194,0,0,1,1.561-.152,2.065,2.065,0,0,1,1.272,2.2,3.38,3.38,0,0,1-1.464,2.243,10.04,10.04,0,0,1-2.484,1.174l-2.777,1.013a3.113,3.113,0,0,1-1.65.35c-.681-.213.016-1.016.248-1.362a23.331,23.331,0,0,1,2.4-3.011q.759-.807,1.591-1.54" transform="translate(-4595.092 -1514.667)" fill="#fff"/>
        <path id="Tracciato_110935" data-name="Tracciato 110935" d="M4842.592,1600.379c-.007-.016-.013-.031-.018-.046-.13-.39.2-.855.448-1.195.039-.053.074-.1.1-.144a23.633,23.633,0,0,1,2.419-3.041c.51-.543,1.051-1.066,1.608-1.556a5.732,5.732,0,0,1,1.365-.956,2.413,2.413,0,0,1,1.729-.161,2.3,2.3,0,0,1,1.433,2.453,3.6,3.6,0,0,1-1.56,2.405,10.177,10.177,0,0,1-2.541,1.2l-2.777,1.013-.2.076a2.712,2.712,0,0,1-1.6.278.617.617,0,0,1-.408-.332m8.456-5.751a1.584,1.584,0,0,0-.946-.9,1.95,1.95,0,0,0-1.392.141,5.324,5.324,0,0,0-1.251.882c-.545.48-1.076.992-1.576,1.525a23.2,23.2,0,0,0-2.371,2.981c-.031.045-.069.1-.111.157-.13.182-.438.61-.384.773a.207.207,0,0,0,.122.079,2.5,2.5,0,0,0,1.291-.268c.075-.029.145-.056.209-.079l2.777-1.013a9.854,9.854,0,0,0,2.427-1.144,3.138,3.138,0,0,0,1.369-2.081,2.051,2.051,0,0,0-.165-1.05" transform="translate(-4590.82 -1510.401)" fill="#ff8f88"/>
        <path id="Tracciato_110936" data-name="Tracciato 110936" d="M4785.225,1774.376a3.2,3.2,0,0,1,.925-.157,1.1,1.1,0,0,1,.836.366,1.028,1.028,0,0,1,.167.867,1.921,1.921,0,0,1-.436.794,4.634,4.634,0,0,1-3.045,1.455,13.763,13.763,0,0,1-3.442-.2l-1.076-.152a1.1,1.1,0,0,1-.607-.215c-.576-.526.417-.794.731-.9q.986-.346,1.979-.669,1.969-.64,3.967-1.188" transform="translate(-4529.981 -1682.022)" fill="#fff"/>
        <path id="Tracciato_110937" data-name="Tracciato 110937" d="M4773.913,1772.769a.493.493,0,0,1-.036-.306c.084-.4.639-.58.97-.691l.084-.029c.655-.23,1.323-.455,1.984-.671,1.313-.426,2.651-.827,3.979-1.192h0a3.389,3.389,0,0,1,.993-.165,1.328,1.328,0,0,1,1.013.453,1.26,1.26,0,0,1,.212,1.067,2.118,2.118,0,0,1-.486.893,4.833,4.833,0,0,1-3.2,1.536,13.955,13.955,0,0,1-3.5-.2l-1.075-.152a1.314,1.314,0,0,1-.732-.274.821.821,0,0,1-.206-.273m8.7-2.17a.61.61,0,0,0-.081-.136.881.881,0,0,0-.661-.279,3.035,3.035,0,0,0-.856.148h0c-1.32.362-2.652.761-3.957,1.185-.659.214-1.323.438-1.974.667l-.092.031c-.55.183-.649.294-.66.344,0,.008.012.055.1.136a.924.924,0,0,0,.483.156l1.075.152a13.59,13.59,0,0,0,3.383.2,4.375,4.375,0,0,0,2.894-1.374,1.669,1.669,0,0,0,.385-.694.854.854,0,0,0-.038-.532" transform="translate(-4525.712 -1677.753)" fill="#ff8f88"/>
        <path id="Tracciato_110938" data-name="Tracciato 110938" d="M4715.769,1671.434a2.133,2.133,0,0,0-.553-1.466,1.39,1.39,0,0,0-1.642.033,2.567,2.567,0,0,0-.875,2.526,7.559,7.559,0,0,0,1.133,2.564l.788,1.311a2.909,2.909,0,0,0,.517.693.979.979,0,0,0,.793.272c.5-.085.48-.42.4-.782a16.22,16.22,0,0,1-.188-1.7q-.186-1.728-.374-3.456" transform="translate(-4467.683 -1582.95)" fill="#fff"/>
        <path id="Tracciato_110939" data-name="Tracciato 110939" d="M4708.542,1669.473a5.02,5.02,0,0,1-.372-1.193,2.774,2.774,0,0,1,.971-2.757,1.62,1.62,0,0,1,1.926-.021,2.318,2.318,0,0,1,.636,1.62l.374,3.456c.02.182.034.367.048.553a8.267,8.267,0,0,0,.136,1.117.959.959,0,0,1-.062.763.753.753,0,0,1-.527.3,1.2,1.2,0,0,1-.989-.328,3.117,3.117,0,0,1-.562-.747l-.788-1.311a13.326,13.326,0,0,1-.791-1.453m2.5-3.237a1.009,1.009,0,0,0-.271-.375,1.165,1.165,0,0,0-1.356.045,2.361,2.361,0,0,0-.778,2.3,7.342,7.342,0,0,0,1.1,2.482l.787,1.311a2.735,2.735,0,0,0,.473.639.748.748,0,0,0,.6.215.346.346,0,0,0,.217-.1.633.633,0,0,0-.007-.4,8.621,8.621,0,0,1-.145-1.182c-.014-.182-.028-.362-.047-.539l-.373-3.456a3.264,3.264,0,0,0-.2-.937" transform="translate(-4463.385 -1578.664)" fill="#ff8f88"/>
        <path id="Tracciato_110940" data-name="Tracciato 110940" d="M4699.467,1889.111a4.98,4.98,0,0,0-1.259.468l-4.778,2.285c-.179.085-.377.193-.426.385a.467.467,0,0,0,.224.477,1.367,1.367,0,0,0,.532.168,10.949,10.949,0,0,0,5.481,0,3.724,3.724,0,0,0,1.428-.864,1.844,1.844,0,0,0,.6-1.8,1.472,1.472,0,0,0-1.8-1.112" transform="translate(-4449.042 -1790.91)" fill="#fff"/>
        <path id="Tracciato_110941" data-name="Tracciato 110941" d="M4688.529,1888.314a.6.6,0,0,1-.037-.4.911.911,0,0,1,.552-.539l4.779-2.285a5.141,5.141,0,0,1,1.32-.487l.04.231-.04-.231a1.7,1.7,0,0,1,2.06,1.272,2.049,2.049,0,0,1-.651,2.036,3.936,3.936,0,0,1-1.516.921,11.292,11.292,0,0,1-5.6.015,1.571,1.571,0,0,1-.622-.2.792.792,0,0,1-.286-.334m8.145-2.512a1.21,1.21,0,0,0-1.45-.733,4.82,4.82,0,0,0-1.2.449l-4.778,2.284c-.143.068-.277.144-.3.233a.247.247,0,0,0,.126.223,1.182,1.182,0,0,0,.442.133,10.776,10.776,0,0,0,5.364.005,3.484,3.484,0,0,0,1.339-.807,1.674,1.674,0,0,0,.539-1.569,1.989,1.989,0,0,0-.082-.218" transform="translate(-4444.758 -1786.637)" fill="#ff8f88"/>
        <path id="Tracciato_110942" data-name="Tracciato 110942" d="M4603.191,1811.2a3.054,3.054,0,0,0-.444-1.214,1.57,1.57,0,0,0-1.992-.4,2.039,2.039,0,0,0-.869,1.852,5.379,5.379,0,0,0,.63,2.038,7.674,7.674,0,0,0,2.573,3.371c.309.195,1.133.522,1.3-.032.048-.157-.079-.375-.119-.523-.086-.317-.14-.646-.208-.967q-.435-2.062-.871-4.124" transform="translate(-4360.772 -1715.358)" fill="#fff"/>
        <path id="Tracciato_110943" data-name="Tracciato 110943" d="M4595.85,1808.946a4.811,4.811,0,0,1-.467-1.727,2.267,2.267,0,0,1,.983-2.063,1.814,1.814,0,0,1,2.3.463,3.252,3.252,0,0,1,.486,1.3l.872,4.124q.031.153.062.307c.042.215.085.438.143.648a1.224,1.224,0,0,0,.041.116.825.825,0,0,1,.076.536.626.626,0,0,1-.388.424,1.669,1.669,0,0,1-1.262-.262,7.845,7.845,0,0,1-2.659-3.468c-.063-.132-.125-.266-.186-.4m2.608-2.753a1.53,1.53,0,0,0-.168-.3,1.328,1.328,0,0,0-1.684-.339,1.8,1.8,0,0,0-.755,1.64,5.191,5.191,0,0,0,.608,1.948,7.441,7.441,0,0,0,2.486,3.274,1.274,1.274,0,0,0,.848.219.16.16,0,0,0,.1-.12.723.723,0,0,0-.064-.232,1.6,1.6,0,0,1-.056-.162c-.062-.226-.107-.457-.151-.681-.02-.1-.04-.2-.061-.3l-.871-4.124a4.176,4.176,0,0,0-.235-.827" transform="translate(-4356.503 -1711.135)" fill="#ff8f88"/>
        <path id="Tracciato_110944" data-name="Tracciato 110944" d="M4530.567,1940.309a12.9,12.9,0,0,0-1.762-3.227,3.4,3.4,0,0,0-1.222-1.117,1.4,1.4,0,0,0-1.558.186,1.868,1.868,0,0,0-.168,1.893,6.888,6.888,0,0,0,3.542,3.981,2.807,2.807,0,0,0,1.153.317,1.445,1.445,0,0,0,.724-.176c.341-.195.273-.235.046-.461a3.651,3.651,0,0,1-.755-1.4" transform="translate(-4290.431 -1835.218)" fill="#fff"/>
        <path id="Tracciato_110945" data-name="Tracciato 110945" d="M4521.586,1934.421q-.125-.281-.222-.571a2.032,2.032,0,0,1,.223-2.131,1.63,1.63,0,0,1,1.823-.235,3.639,3.639,0,0,1,1.311,1.189,13.1,13.1,0,0,1,1.794,3.286l.019.049a3.3,3.3,0,0,0,.683,1.263l.031.031c.134.132.249.245.226.422s-.18.28-.352.378a1.659,1.659,0,0,1-.842.207,3.053,3.053,0,0,1-1.251-.34,7.192,7.192,0,0,1-3.441-3.547m4.2,1a12.636,12.636,0,0,0-1.444-2.465,3.223,3.223,0,0,0-1.132-1.045,1.185,1.185,0,0,0-1.293.137c-.434.442-.257,1.226-.113,1.654a6.687,6.687,0,0,0,3.42,3.844,2.531,2.531,0,0,0,1.056.295,1.214,1.214,0,0,0,.606-.146l.056-.033-.027-.027-.032-.031a3.716,3.716,0,0,1-.792-1.432l-.019-.048q-.133-.357-.285-.7" transform="translate(-4286.16 -1830.949)" fill="#ff8f88"/>
        <path id="Tracciato_110946" data-name="Tracciato 110946" d="M4646.384,2004.747a4.383,4.383,0,0,0-1.594.473l-3.762,1.66a1.417,1.417,0,0,0-.478.292.482.482,0,0,0-.117.517.7.7,0,0,0,.534.3,12.43,12.43,0,0,0,4.742.013,3.652,3.652,0,0,0,1.78-.743,1.539,1.539,0,0,0,.476-1.736,1.916,1.916,0,0,0-1.581-.775" transform="translate(-4399.181 -1900.566)" fill="#fff"/>
        <path id="Tracciato_110947" data-name="Tracciato 110947" d="M4635.953,2003.507a.714.714,0,0,1,.165-.764,1.621,1.621,0,0,1,.554-.346l3.762-1.66a4.6,4.6,0,0,1,1.681-.492,2.159,2.159,0,0,1,1.791.889,1.767,1.767,0,0,1-.522,2.031,3.861,3.861,0,0,1-1.892.8,12.748,12.748,0,0,1-4.832-.013.925.925,0,0,1-.7-.427.107.107,0,0,1-.008-.015m6.177-2.794a4.19,4.19,0,0,0-1.508.453l-3.762,1.66a1.239,1.239,0,0,0-.4.239.26.26,0,0,0-.078.253l0,0c.046.1.231.144.368.171a12.27,12.27,0,0,0,4.652.012,3.445,3.445,0,0,0,1.668-.688c.345-.308.7-1,.433-1.442a1.7,1.7,0,0,0-1.374-.661" transform="translate(-4394.919 -1896.298)" fill="#ff8f88"/>
        <path id="Tracciato_110948" data-name="Tracciato 110948" d="M4462.917,2078.676a6.336,6.336,0,0,0-2.64-2.36,1.474,1.474,0,0,0-1.547.035,1.1,1.1,0,0,0-.324.88,2.526,2.526,0,0,0,.272.925,7.52,7.52,0,0,0,4.388,3.915,1.888,1.888,0,0,0,.751.127c.973-.085.463-.873.219-1.419a14.181,14.181,0,0,0-1.119-2.1" transform="translate(-4226.647 -1968.224)" fill="#fff"/>
        <path id="Tracciato_110949" data-name="Tracciato 110949" d="M4454.148,2073.874a2.583,2.583,0,0,1-.244-.905,1.338,1.338,0,0,1,.4-1.067,1.653,1.653,0,0,1,1.8-.075,6.565,6.565,0,0,1,2.74,2.445,14.192,14.192,0,0,1,1.139,2.137c.028.062.059.127.091.193.188.4.4.844.2,1.2a.834.834,0,0,1-.705.358,2.1,2.1,0,0,1-.846-.138,7.8,7.8,0,0,1-4.526-4.038c-.017-.035-.033-.071-.049-.107m4.305.657a6.109,6.109,0,0,0-2.538-2.276c-.206-.089-.905-.355-1.3,0a.871.871,0,0,0-.246.694,2.339,2.339,0,0,0,.25.838,7.323,7.323,0,0,0,4.25,3.791,1.694,1.694,0,0,0,.657.116c.18-.016.3-.061.34-.124.079-.139-.1-.514-.218-.762-.034-.071-.066-.139-.1-.205a13.69,13.69,0,0,0-1.1-2.068" transform="translate(-4222.379 -1963.95)" fill="#ff8f88"/>
        <path id="Tracciato_110950" data-name="Tracciato 110950" d="M4578.751,2157.419A10.492,10.492,0,0,0,4576,2158.8c-.194.123-.417.338-.308.541a.459.459,0,0,0,.33.182,13.24,13.24,0,0,0,3.605.275,3.012,3.012,0,0,0,1.7-.5,1.371,1.371,0,0,0,.522-.986c.02-.465-.22-.622-.613-.794a3.773,3.773,0,0,0-2.485-.1" transform="translate(-4337.81 -2045.151)" fill="#fff"/>
        <path id="Tracciato_110951" data-name="Tracciato 110951" d="M4571.187,2155.151c-.119-.27.034-.578.406-.814a10.641,10.641,0,0,1,2.817-1.411,3.991,3.991,0,0,1,2.641.115.992.992,0,0,1,.754,1.019,1.61,1.61,0,0,1-.613,1.16,3.238,3.238,0,0,1-1.831.547,13.454,13.454,0,0,1-3.67-.28.677.677,0,0,1-.487-.3c-.006-.011-.012-.023-.017-.035m6.115-1.364c-.057-.129-.189-.208-.438-.317a3.526,3.526,0,0,0-2.33-.093,10.288,10.288,0,0,0-2.69,1.355c-.159.1-.227.2-.227.231,0,.008.028.033.174.065a12.968,12.968,0,0,0,3.542.27,2.827,2.827,0,0,0,1.571-.448,1.145,1.145,0,0,0,.434-.811.565.565,0,0,0-.035-.253" transform="translate(-4333.53 -2040.884)" fill="#ff8f88"/>
        <path id="Tracciato_110952" data-name="Tracciato 110952" d="M4395.144,2189.127a2.067,2.067,0,0,0-.868-.107.833.833,0,0,0-.677.5,1.259,1.259,0,0,0,.222.987,10.664,10.664,0,0,0,2.149,2.933,4.229,4.229,0,0,0,3.349,1.141,1.635,1.635,0,0,0,.761-.294c.863-.676-.316-1.9-.8-2.469a8.777,8.777,0,0,0-2.458-1.993,8.4,8.4,0,0,0-1.676-.693" transform="translate(-4165.174 -2075.249)" fill="#fff"/>
        <path id="Tracciato_110953" data-name="Tracciato 110953" d="M4389.208,2186.053a1.2,1.2,0,0,1-.088-.885,1.063,1.063,0,0,1,.862-.65,2.274,2.274,0,0,1,.968.114,8.634,8.634,0,0,1,1.723.712,8.965,8.965,0,0,1,2.523,2.046l.113.131c.445.51,1.116,1.281,1.048,1.988a.969.969,0,0,1-.392.688,1.839,1.839,0,0,1-.869.34,4.416,4.416,0,0,1-3.541-1.2,10.915,10.915,0,0,1-2.2-2.995c-.044-.079-.1-.179-.149-.294m1.611-.971a1.867,1.867,0,0,0-.769-.1.61.61,0,0,0-.49.343,1.082,1.082,0,0,0,.207.8,10.53,10.53,0,0,0,2.1,2.87,4,4,0,0,0,3.158,1.085,1.389,1.389,0,0,0,.653-.247.5.5,0,0,0,.215-.364c.049-.506-.567-1.213-.935-1.635l-.117-.134a8.484,8.484,0,0,0-2.391-1.94,8.168,8.168,0,0,0-1.63-.674" transform="translate(-4160.916 -2070.979)" fill="#ff8f88"/>
        <path id="Tracciato_110954" data-name="Tracciato 110954" d="M4513.652,2280.058a4.412,4.412,0,0,1,1.685.269,1.323,1.323,0,0,1,.887.988,1.374,1.374,0,0,1-.658,1.145,4.291,4.291,0,0,1-2.876.72,10.6,10.6,0,0,1-2.92-.759,2.189,2.189,0,0,1-.621-.315c-1.1-.889.739-1.447,1.333-1.614a11.538,11.538,0,0,1,3.171-.435" transform="translate(-4274.428 -2161.566)" fill="#fff"/>
        <path id="Tracciato_110955" data-name="Tracciato 110955" d="M4504.354,2277.57a.657.657,0,0,1-.046-.408c.1-.464.695-.846,1.833-1.167a11.734,11.734,0,0,1,3.236-.444,4.678,4.678,0,0,1,1.773.287,1.526,1.526,0,0,1,1.031,1.182,1.577,1.577,0,0,1-.752,1.356,4.51,4.51,0,0,1-3.033.765,10.643,10.643,0,0,1-2.986-.773,2.406,2.406,0,0,1-.686-.352,1.246,1.246,0,0,1-.37-.447m5.021-1.55a11.281,11.281,0,0,0-3.107.426c-1.315.371-1.482.715-1.5.811-.028.136.122.29.252.4a1.991,1.991,0,0,0,.556.279,10.25,10.25,0,0,0,2.856.744,4.046,4.046,0,0,0,2.719-.675c.184-.136.606-.5.564-.936a1.114,1.114,0,0,0-.744-.794,4.256,4.256,0,0,0-1.595-.251" transform="translate(-4270.151 -2157.295)" fill="#ff8f88"/>
        <path id="Tracciato_110956" data-name="Tracciato 110956" d="M4375.058,2299.975a5.6,5.6,0,0,0-1.867-1.948,1.874,1.874,0,0,0-.833-.294.9.9,0,0,0-.785.338,1.337,1.337,0,0,0-.015,1.167,10.77,10.77,0,0,0,1.658,3.178,3.622,3.622,0,0,0,.966.948,1.572,1.572,0,0,0,1.3.193c1.551-.542.065-2.771-.428-3.581" transform="translate(-4144.194 -2178.321)" fill="#fff"/>
        <path id="Tracciato_110957" data-name="Tracciato 110957" d="M4367.456,2296.1a11.154,11.154,0,0,1-.406-1.062,1.54,1.54,0,0,1,.046-1.374,1.127,1.127,0,0,1,.989-.437,2.06,2.06,0,0,1,.94.326,5.8,5.8,0,0,1,1.948,2.028l.09.146c.46.745,1.315,2.133.986,3.061a1.17,1.17,0,0,1-.771.717,1.784,1.784,0,0,1-1.5-.213,3.853,3.853,0,0,1-1.032-1.007,10.926,10.926,0,0,1-1.287-2.185m3.117-.275a5.342,5.342,0,0,0-1.787-1.869,1.621,1.621,0,0,0-.727-.262.669.669,0,0,0-.581.239,1.156,1.156,0,0,0,.017.961,10.483,10.483,0,0,0,1.621,3.109,3.425,3.425,0,0,0,.9.889,1.338,1.338,0,0,0,1.105.172.719.719,0,0,0,.484-.432c.254-.716-.556-2.028-.944-2.659Z" transform="translate(-4139.909 -2174.052)" fill="#ff8f88"/>
        <path id="Tracciato_110958" data-name="Tracciato 110958" d="M4463.632,2378.27a2.783,2.783,0,0,1,1.356.06,1.45,1.45,0,0,1,.891,1.256,1.53,1.53,0,0,1-.744,1.359,3.116,3.116,0,0,1-2.076.144l-3.771-.608a2.041,2.041,0,0,1-.765-.23.679.679,0,0,1-.065-1.136,2.126,2.126,0,0,1,1.342-.377l3.833-.468" transform="translate(-4226.437 -2254.622)" fill="#fff"/>
        <path id="Tracciato_110959" data-name="Tracciato 110959" d="M4453.75,2375.764a.791.791,0,0,1-.064-.234,1.052,1.052,0,0,1,.337-.846,1.82,1.82,0,0,1,1.223-.42c.087-.008.173-.015.257-.025l3.833-.468a3.012,3.012,0,0,1,1.47.074,1.676,1.676,0,0,1,1.039,1.463,1.771,1.771,0,0,1-.859,1.572,3.276,3.276,0,0,1-2.231.174l-3.773-.608a2.23,2.23,0,0,1-.85-.262.95.95,0,0,1-.382-.419m7.528-.85a1.2,1.2,0,0,0-.644-.634,2.606,2.606,0,0,0-1.241-.044l-3.833.468c-.09.011-.183.019-.275.027a1.432,1.432,0,0,0-.93.283.593.593,0,0,0-.2.462.429.429,0,0,0,.228.31,1.839,1.839,0,0,0,.677.2l3.773.608a2.92,2.92,0,0,0,1.92-.115,1.293,1.293,0,0,0,.629-1.146,1.17,1.17,0,0,0-.1-.417" transform="translate(-4222.169 -2250.355)" fill="#ff8f88"/>
        <path id="Tracciato_110960" data-name="Tracciato 110960" d="M1008.22,423.053c-3.165-7.512-8.241-14.405-10.119-22.261-2.263-9.465.343-19.24,1.44-28.872s.216-20.418-7.334-27.295c-6.672-6.078-17.186-7.567-26.492-5.949s-17.741,5.891-26.022,10.052-16.8,8.339-26.149,9.73c-11.5,1.711-23.167-.929-34.786-1.709s-24.652.893-32.128,8.963c-6.7,7.237-7.092,17.556-6.549,26.979s1.574,19.388-3.12,27.818c-4.514,8.108-13.643,13.434-18.529,21.364a24.683,24.683,0,0,0-1.584,22.877,87.734,87.734,0,0,0,6.382,11.334h177.456c11.018-15.756,14.833-35.709,7.534-53.03" transform="translate(-772.407 -320.525)" fill="#fce47f"/>
        <path id="Tracciato_110961" data-name="Tracciato 110961" d="M416.4,2218.865a.269.269,0,0,1-.265-.133c-2.716-4.722-11.815-16.236-18.688-24.2-6.5-7.525-10-17.362-10.031-17.461a.269.269,0,0,1,.508-.178c.034.1,3.5,9.842,9.93,17.287,6.889,7.978,16.016,19.529,18.747,24.279a.269.269,0,0,1-.1.367.265.265,0,0,1-.1.034" transform="translate(-367.264 -2063.598)" fill="#ff8f88"/>
        <path id="Tracciato_110962" data-name="Tracciato 110962" d="M343.459,2056.387a5.5,5.5,0,0,1-.311-1.568,2.2,2.2,0,0,1,.493-1.489,2.066,2.066,0,0,1,2.529-.272,3.379,3.379,0,0,1,1.459,2.247,10.025,10.025,0,0,1,.069,2.747l-.2,2.949a3.117,3.117,0,0,1-.347,1.651c-.47.536-.922-.426-1.146-.778a23.382,23.382,0,0,1-1.785-3.408q-.431-1.021-.765-2.079" transform="translate(-325.31 -1946.077)" fill="#ff8f88"/>
        <path id="Tracciato_110963" data-name="Tracciato 110963" d="M469.914,2179.826a3.194,3.194,0,0,1,.231-.909,1.1,1.1,0,0,1,.673-.617,1.027,1.027,0,0,1,.86.2,1.919,1.919,0,0,1,.55.719,4.636,4.636,0,0,1,.1,3.374,13.772,13.772,0,0,1-1.572,3.068l-.574.922a1.1,1.1,0,0,1-.442.469c-.714.313-.557-.7-.531-1.035q.082-1.041.189-2.08.211-2.06.518-4.109" transform="translate(-444.787 -2065.071)" fill="#ff8f88"/>
        <path id="Tracciato_110964" data-name="Tracciato 110964" d="M318.979,2300.231a2.135,2.135,0,0,0-1.565-.086,1.39,1.39,0,0,0-.634,1.515,2.567,2.567,0,0,0,1.957,1.821,7.558,7.558,0,0,0,2.8,0l1.518-.19a2.908,2.908,0,0,0,.843-.193.979.979,0,0,0,.57-.616c.122-.488-.19-.608-.554-.682a15.94,15.94,0,0,1-1.626-.514l-3.312-1.056" transform="translate(-300.285 -2180.496)" fill="#ff8f88"/>
        <path id="Tracciato_110965" data-name="Tracciato 110965" d="M547.123,2316.405a4.985,4.985,0,0,0-.081,1.341q.078,2.647.156,5.294a.7.7,0,0,0,.18.546.466.466,0,0,0,.527-.012,1.368,1.368,0,0,0,.369-.418,10.95,10.95,0,0,0,2.213-5.014,3.726,3.726,0,0,0-.212-1.655,1.843,1.843,0,0,0-1.408-1.273,1.471,1.471,0,0,0-1.743,1.192" transform="translate(-518.597 -2194.88)" fill="#ff8f88"/>
        <path id="Tracciato_110966" data-name="Tracciato 110966" d="M399.8,2458.62a3.052,3.052,0,0,0-1.29-.084,1.57,1.57,0,0,0-1.172,1.659,2.037,2.037,0,0,0,1.342,1.543,5.379,5.379,0,0,0,2.119.249,7.677,7.677,0,0,0,4.124-.989c.3-.2.936-.826.5-1.2-.125-.107-.375-.079-.526-.1-.325-.05-.647-.133-.969-.2l-4.124-.871" transform="translate(-376.673 -2330.728)" fill="#ff8f88"/>
        <path id="Tracciato_110967" data-name="Tracciato 110967" d="M485.728,2569.272a12.893,12.893,0,0,0-3.664.306,3.4,3.4,0,0,0-1.516.665,1.4,1.4,0,0,0-.46,1.5,1.867,1.867,0,0,0,1.663.919,6.89,6.89,0,0,0,5.074-1.628,2.81,2.81,0,0,0,.757-.927,1.441,1.441,0,0,0,.131-.733c-.04-.391-.1-.345-.4-.229a3.653,3.653,0,0,1-1.583.126" transform="translate(-455.062 -2435.549)" fill="#ff8f88"/>
        <path id="Tracciato_110968" data-name="Tracciato 110968" d="M624.963,2420.884a4.39,4.39,0,0,0-.213,1.649l0,4.112a1.413,1.413,0,0,0,.074.555.482.482,0,0,0,.426.316c.212-.006.368-.193.489-.367a12.431,12.431,0,0,0,1.93-4.332,3.65,3.65,0,0,0,.041-1.928c-.175-.543-.757-1.217-1.4-1.138a1.918,1.918,0,0,0-1.348,1.133" transform="translate(-592.271 -2293.991)" fill="#ff8f88"/>
        <path id="Tracciato_110969" data-name="Tracciato 110969" d="M583.716,2679.482a6.337,6.337,0,0,0-3.226,1.459,1.474,1.474,0,0,0-.594,1.43,1.1,1.1,0,0,0,.674.652,2.534,2.534,0,0,0,.956.126,7.522,7.522,0,0,0,5.355-2.43,1.886,1.886,0,0,0,.421-.636c.316-.925-.611-.777-1.209-.775a14.2,14.2,0,0,0-2.376.173" transform="translate(-549.712 -2540.054)" fill="#ff8f88"/>
        <path id="Tracciato_110970" data-name="Tracciato 110970" d="M721.307,2567.977a10.474,10.474,0,0,0,.151,3.078c.034.227.141.517.37.5a.459.459,0,0,0,.3-.228,13.232,13.232,0,0,0,1.71-3.186,3.012,3.012,0,0,0,.233-1.757,1.372,1.372,0,0,0-.69-.877c-.418-.206-.659-.05-.974.24a3.773,3.773,0,0,0-1.1,2.231" transform="translate(-683.752 -2432.088)" fill="#ff8f88"/>
        <path id="Tracciato_110971" data-name="Tracciato 110971" d="M656.571,2764.744a2.063,2.063,0,0,0-.449.75.832.832,0,0,0,.18.819,1.257,1.257,0,0,0,.992.2,10.665,10.665,0,0,0,3.552-.78,4.228,4.228,0,0,0,2.4-2.6,1.63,1.63,0,0,0,.039-.814c-.269-1.062-1.866-.48-2.583-.265a8.772,8.772,0,0,0-2.817,1.441,8.4,8.4,0,0,0-1.312,1.253" transform="translate(-621.981 -2618.168)" fill="#ff8f88"/>
        <path id="Tracciato_110972" data-name="Tracciato 110972" d="M801.077,2658.972a4.406,4.406,0,0,1,.928-1.431,1.321,1.321,0,0,1,1.262-.412,1.375,1.375,0,0,1,.781,1.065,4.29,4.29,0,0,1-.5,2.921,10.619,10.619,0,0,1-1.875,2.365,2.209,2.209,0,0,1-.54.44c-1.257.646-1.024-1.261-.937-1.872a11.532,11.532,0,0,1,.885-3.076" transform="translate(-758.525 -2518.994)" fill="#ff8f88"/>
        <path id="Tracciato_110973" data-name="Tracciato 110973" d="M749.794,2862.3a5.6,5.6,0,0,0-2.537.919,1.873,1.873,0,0,0-.606.643.9.9,0,0,0-.008.855,1.336,1.336,0,0,0,1.062.485,10.76,10.76,0,0,0,3.577-.23,3.617,3.617,0,0,0,1.258-.5,1.57,1.57,0,0,0,.7-1.115c.132-1.637-2.509-1.18-3.448-1.057" transform="translate(-707.731 -2713.402)" fill="#ff8f88"/>
        <path id="Tracciato_110974" data-name="Tracciato 110974" d="M868.273,2739.748a2.785,2.785,0,0,1,.6-1.216,1.453,1.453,0,0,1,1.51-.307,1.529,1.529,0,0,1,.942,1.23,3.119,3.119,0,0,1-.708,1.957l-2.082,3.2a2.033,2.033,0,0,1-.519.605.678.678,0,0,1-1.066-.4,2.124,2.124,0,0,1,.2-1.38l1.123-3.695" transform="translate(-821.826 -2595.83)" fill="#ff8f88"/>
        <path id="Tracciato_110975" data-name="Tracciato 110975" d="M691.5,2041.428s-5.391-3.177-10.687-13.479c0,0,4.429-2.311,5.777-3.851,0,0-4.429,1.155-7.028.674a54.084,54.084,0,0,1-.385-21.277,14.976,14.976,0,0,1,3.851-.385,29.785,29.785,0,0,1-3.273-1.733s2.888-9.531,5.776-11.842a26.993,26.993,0,0,0,2.359,5.3l-.578.722a4.19,4.19,0,0,0,1.155,0s5.873,7.606,8.906,9.868a8.552,8.552,0,0,1-2.022,2.07,8.721,8.721,0,0,0,2.985-.866s12.034,10.157,17.041,16.7,7.509,18.1,7.509,18.1Z" transform="translate(-643.028 -1886.146)" fill="#374abe"/>
        <path id="Tracciato_110976" data-name="Tracciato 110976" d="M826.459,2095.848c-2.014-6.648-9.67-20.036-17.3-28.5-7.713-8.56-6.677-19.977-6.666-20.091a.29.29,0,1,0-.576-.058c-.012.117-1.077,11.782,6.812,20.537,7.575,8.406,15.019,21.522,17.016,28.111Z" transform="translate(-760.184 -1940.567)" fill="#eff1f5"/>
        <path id="Tracciato_110977" data-name="Tracciato 110977" d="M1075.975,2151.6a23.344,23.344,0,0,1-9.492-5.259,4.831,4.831,0,0,1-1.793-3.262,2.279,2.279,0,0,1,.562-1.582c.83-.911,1.958-.672,2.969-.425l5.163,1.265a1.675,1.675,0,0,0,1.995-2.145,14.366,14.366,0,0,0-7.022-8.213c-1.526-.771-3.23-1.289-4.356-2.632a3.291,3.291,0,0,1-.809-2.166c.04-1.832,1.66-2.525,3.085-2.4a8.72,8.72,0,0,1,2.768.9l4.568,2.069a2.461,2.461,0,0,0,2.665-.027,1.524,1.524,0,0,0,.381-1.552,4.924,4.924,0,0,0-.516-1.673l-5.138-9.86a8.641,8.641,0,0,1-1.082-2.863,2.932,2.932,0,0,1,1.013-2.751,2.845,2.845,0,0,1,2.826-.1,6.789,6.789,0,0,1,2.218,1.934,23.735,23.735,0,0,1,5.254,12.787,2.5,2.5,0,0,0,1.085,1.873c1.423.932,2.8-.417,3.359-1.751.422-1.005.63-2.093,1.08-3.086.577-1.274,1.685-2.458,3.255-2.2a3.1,3.1,0,0,1,2.306,1.952,6.353,6.353,0,0,1-.622,5.135c-.9,1.862-2.142,3.585-2.308,5.74a4.258,4.258,0,0,0,.363,2.153c1.152,2.427,3.961,2.231,6.184,3.043a8.081,8.081,0,0,1,4.954,7.908,10.392,10.392,0,0,1-5.142,8.1c-2.607,1.565-6.4,2.513-9.341,1.461-3.344-1.2-7.009-1.335-10.429-2.38" transform="translate(-1007.924 -1999.025)" fill="#fdb813"/>
        <path id="Tracciato_110978" data-name="Tracciato 110978" d="M1286.653,2241.524a232.4,232.4,0,0,0-15.166-40.875.29.29,0,0,0-.515.264,229.814,229.814,0,0,1,15.073,40.625Z" transform="translate(-1204.874 -2086.137)" fill="#eff1f5"/>
        <path id="Tracciato_110979" data-name="Tracciato 110979" d="M1196.946,2501.562a.3.3,0,0,1-.087-.013,42.336,42.336,0,0,1-13.983-7.565.29.29,0,0,1,.367-.448,41.747,41.747,0,0,0,13.791,7.46.29.29,0,0,1-.087.566" transform="translate(-1121.287 -2363.886)" fill="#eff1f5"/>
        <path id="Tracciato_110980" data-name="Tracciato 110980" d="M1518.021,2685.5a.289.289,0,0,1-.172-.522,31.322,31.322,0,0,0,7.616-8.041.29.29,0,1,1,.484.318,31.9,31.9,0,0,1-7.757,8.189.29.29,0,0,1-.172.056" transform="translate(-1438.836 -2537.69)" fill="#eff1f5"/>
        <path id="Tracciato_110981" data-name="Tracciato 110981" d="M1234.28,2823.658a24.552,24.552,0,0,1-11.876-3.061.289.289,0,1,1,.281-.506,23.967,23.967,0,0,0,15.8,2.615.289.289,0,1,1,.1.57,24.37,24.37,0,0,1-4.3.382" transform="translate(-1158.719 -2673.493)" fill="#eff1f5"/>
        <path id="Tracciato_110982" data-name="Tracciato 110982" d="M4520.8,2244.117s4.063-2.494,8.052-10.579a21.649,21.649,0,0,1-4.353-3.023,15.464,15.464,0,0,0,5.3.529,44.165,44.165,0,0,0,.29-16.7,10.843,10.843,0,0,0-2.9-.3,22.172,22.172,0,0,0,2.466-1.36s-2.176-7.481-4.353-9.295a21.649,21.649,0,0,1-1.777,4.156l.435.567a3.026,3.026,0,0,1-.87,0s-4.425,5.97-6.71,7.746a6.6,6.6,0,0,0,1.523,1.625,6.377,6.377,0,0,1-2.25-.68s-9.067,7.972-12.84,13.111-5.658,14.207-5.658,14.207Z" transform="translate(-4263.382 -2088.881)" fill="#ff8f88"/>
        <path id="Tracciato_110983" data-name="Tracciato 110983" d="M4694.093,2286.833c1.518-5.218,7.286-15.727,13.032-22.369,5.812-6.719,5.032-15.68,5.023-15.77a.226.226,0,0,1,.2-.249.222.222,0,0,1,.238.2c.009.092.811,9.248-5.133,16.119-5.707,6.6-11.316,16.893-12.821,22.065Z" transform="translate(-4450.084 -2131.597)" fill="#eff1f5"/>
        <path id="Tracciato_110984" data-name="Tracciato 110984" d="M4293.21,2370.3a21.725,21.725,0,0,0,8.3-3.88,3.462,3.462,0,0,0,1.568-2.407,1.531,1.531,0,0,0-.491-1.167,2.789,2.789,0,0,0-2.6-.313l-4.515.934c-1.115.23-2.108-.664-1.744-1.583a11.331,11.331,0,0,1,6.14-6.06c1.334-.569,2.824-.951,3.81-1.942a2.218,2.218,0,0,0,.708-1.6c-.035-1.352-1.451-1.863-2.7-1.769a8.677,8.677,0,0,0-2.42.661l-3.995,1.527a2.488,2.488,0,0,1-2.33-.02c-.456-.36-.4-.7-.334-1.145a3.233,3.233,0,0,1,.452-1.234l4.493-7.275a5.8,5.8,0,0,0,.946-2.113,2,2,0,0,0-.886-2.029,2.889,2.889,0,0,0-2.471-.072,5.758,5.758,0,0,0-1.94,1.427,16.172,16.172,0,0,0-4.594,9.435,1.815,1.815,0,0,1-.949,1.382c-1.245.688-2.448-.308-2.937-1.292-.368-.742-.551-1.544-.944-2.277a2.794,2.794,0,0,0-2.847-1.623,2.635,2.635,0,0,0-2.017,1.44,4.057,4.057,0,0,0,.544,3.79c.79,1.374,1.873,2.646,2.018,4.236a2.713,2.713,0,0,1-.317,1.588c-1.007,1.791-3.464,1.646-5.409,2.245a5.979,5.979,0,0,0-4.332,5.835c.149,2.454,2,4.714,4.5,5.979a11.959,11.959,0,0,0,8.169,1.078c2.924-.883,6.129-.985,9.12-1.756" transform="translate(-4049.379 -2217.039)" fill="#374abe"/>
        <path id="Tracciato_110985" data-name="Tracciato 110985" d="M4459.744,2436.648a156.319,156.319,0,0,1,13.262-30.159.276.276,0,0,1,.341-.093.2.2,0,0,1,.11.288,154.54,154.54,0,0,0-13.181,29.975Z" transform="translate(-4227.918 -2281.315)" fill="#eff1f5"/>
        <path id="Tracciato_110986" data-name="Tracciato 110986" d="M4558.074,2628.521a.309.309,0,0,0,.077-.01,39.588,39.588,0,0,0,12.228-5.582.192.192,0,0,0,.036-.3.286.286,0,0,0-.356-.03,39.033,39.033,0,0,1-12.06,5.5.209.209,0,0,0-.165.268.251.251,0,0,0,.241.149" transform="translate(-4320.896 -2486.256)" fill="#eff1f5"/>
        <path id="Tracciato_110987" data-name="Tracciato 110987" d="M4376.187,2764.24a.27.27,0,0,0,.2-.087.192.192,0,0,0-.054-.3,25.36,25.36,0,0,1-6.66-5.933.284.284,0,0,0-.351-.062.194.194,0,0,0-.072.3,25.8,25.8,0,0,0,6.783,6.042.287.287,0,0,0,.15.042" transform="translate(-4142.092 -2614.499)" fill="#eff1f5"/>
        <path id="Tracciato_110988" data-name="Tracciato 110988" d="M4491.941,2866.183a24.657,24.657,0,0,0,10.386-2.258.2.2,0,0,0,.1-.29.279.279,0,0,0-.344-.083,24.359,24.359,0,0,1-13.812,1.93.252.252,0,0,0-.294.172.219.219,0,0,0,.2.248,25.14,25.14,0,0,0,3.761.281" transform="translate(-4254.678 -2714.703)" fill="#eff1f5"/>
        <path id="Tracciato_110989" data-name="Tracciato 110989" d="M2991.46,894.519c.05.081.689-2,2.023-2.488,0,0-1.193-.36-2.121,1.348a2.77,2.77,0,0,0-2.9.06s2.24-.139,3,1.081" transform="translate(-2833.115 -845.661)" fill="#fff"/>
        <path id="Tracciato_110990" data-name="Tracciato 110990" d="M3289.829,1709.524c.009.078,1.218-1.25,2.381-1.141,0,0-.761-.688-2.053.257a2.28,2.28,0,0,0-2.181-.976s1.716.685,1.853,1.86" transform="translate(-3117.061 -1618.893)" fill="#fff"/>
        <path id="Tracciato_110991" data-name="Tracciato 110991" d="M2594.027,947.912c-.01.074,1.421-.857,2.464-.478,0,0-.535-.815-1.95-.256a2.167,2.167,0,0,0-1.771-1.421s1.414,1.041,1.258,2.155" transform="translate(-2457.992 -896.625)" fill="#fff"/>
        <path id="Tracciato_110992" data-name="Tracciato 110992" d="M1659.188,1179.511a9.327,9.327,0,0,1-3.042-1.024,8.509,8.509,0,0,0-5.861-1.506,4.485,4.485,0,0,0-4.177-3.08,4.231,4.231,0,0,0-2.2.618,4.639,4.639,0,0,0-3.053-1.157,4.588,4.588,0,0,0-.634.046,5.529,5.529,0,0,0-4.542-2.448,5.309,5.309,0,0,0-1.561.235,7.49,7.49,0,0,0-3.986-1.152,8.051,8.051,0,0,0-7.763,6.893c-.063,0-.125-.008-.189-.008a4.62,4.62,0,0,0-2.848,1.041v0a8.783,8.783,0,0,1-3.45,1.547c-1.694.221-9.236.244-9.888.726h64.532c-.748-.482-9.4-.506-11.337-.726" transform="translate(-1522.511 -1109.251)" fill="#fff"/>
        <path id="Tracciato_110993" data-name="Tracciato 110993" d="M2959.865,1060.983a8.336,8.336,0,0,1-2.6-.8,6.261,6.261,0,0,0-4.179-.812,3,3,0,0,0-3.77-1.3,3.368,3.368,0,0,0-2.5-1.106,3.422,3.422,0,0,0-.441.03,3.933,3.933,0,0,0-4.3-1.433,5.928,5.928,0,0,0-8.389,1.019,4.186,4.186,0,0,0-5.221,2.723,3.185,3.185,0,0,0-1.02.233,1.638,1.638,0,0,0-.545.282q-.119.075-.235.159v0a6.307,6.307,0,0,1-2.4,1.012c-1.181.144-6.437.16-6.893.475h51.131c-.569-.315-7.151-.331-8.629-.475" transform="translate(-2765.712 -999.496)" fill="#fff"/>
        <path id="Tracciato_110994" data-name="Tracciato 110994" d="M2658.586,2396.8c7.848,2.748,15.766,6.365,24.063,5.8a6.372,6.372,0,0,0,3.11-.829,2.624,2.624,0,0,0,1.229-2.778c-.419-1.418-2.161-1.877-3.622-2.1l-11-1.7a13.792,13.792,0,0,0,4.89-3.579c1.233-1.622,1.7-4,.571-5.7s-4.083-1.978-5.113-.22a15.935,15.935,0,0,0-1.469-4.7,5.389,5.389,0,0,0-3.8-2.87,3.3,3.3,0,0,0-3.691,2.5c-.185,1.276.483,2.841-.461,3.719-.764.71-1.975.357-2.986.1s-2.409-.151-2.674.858.887,1.807,1.152,2.812a2.391,2.391,0,0,1-1.667,2.617,6.962,6.962,0,0,1-3.369.072l-13.583-1.948a7.309,7.309,0,0,0,3.364-1.814,2.518,2.518,0,0,0,.045-3.468c-.977-.807-2.677-.528-3.373-1.587-.6-.91.031-2.154.872-2.846a14.113,14.113,0,0,0,2.563-2,3.787,3.787,0,0,0-.555-4.759,6.456,6.456,0,0,0-4.8-1.655,10.1,10.1,0,0,0-9.43,12.909,2.519,2.519,0,0,0-2.906,4.068c.975.9,2.546.941,3.445,1.912,1.383,1.493.029,4.167-1.935,4.7s-4.017-.378-5.758-1.433c-1.363-.825-2.749-1.781-4.339-1.875s-3.381,1.136-3.185,2.717c.153,1.23,1.36,2.022,2.486,2.539,6.925,3.177,13.066,1.629,19.676-1.1,7.025-2.9,15.416-.764,22.252,1.63" transform="translate(-2478.268 -2247.522)" fill="#c8d9f2"/>
        <path id="Tracciato_110995" data-name="Tracciato 110995" d="M837.374,2680.016c-.832.477-1.524,1.283-2.474,1.415-1.271.175-2.344-.935-2.994-2.041s-1.2-2.388-2.331-2.991c-1.324-.706-2.968-.214-4.281.511a14.158,14.158,0,0,1-4.021,1.965c-2.747.514-5.284-1.476-7.291-3.422s-4.253-4.126-7.048-4.112c-2.572.012-4.713,1.9-6.48,3.772s-3.6,3.939-6.113,4.506c-2.935.663-6.535-.778-8.722,1.288-1.349,1.275-1.58,3.5-3.1,4.563-1.874,1.312-4.43.118-6.713.256-3.374.2-6.017,4.149-4.741,7.279a6.728,6.728,0,0,0,4.3,3.629,16.434,16.434,0,0,0,5.756.5c6.944-.33,13.79-1.826,20.732-2.2,7.972-.428,15.939.628,23.9,1.193s16.12.616,23.747-1.746a8.883,8.883,0,0,0,3.115-1.49,3.544,3.544,0,0,0,1.385-3.031c-.266-2.159-2.833-3.1-4.975-3.481-2.406-.427-4.669-1.118-5.8-3.417s-3-4.575-5.853-2.943" transform="translate(-730.675 -2532.509)" fill="#fff"/>
        <path id="Tracciato_110996" data-name="Tracciato 110996" d="M777.431,2695.158a13.758,13.758,0,0,1-4.165-.547,6.772,6.772,0,0,1-4.369-3.7,5.252,5.252,0,0,1,.568-4.738,5.562,5.562,0,0,1,4.274-2.7,12.739,12.739,0,0,1,2.475.18c1.541.212,3,.412,4.178-.415a5.736,5.736,0,0,0,1.676-2.362,7.311,7.311,0,0,1,1.411-2.19c1.4-1.324,3.4-1.244,5.327-1.167a13.526,13.526,0,0,0,3.449-.151c2.339-.528,4.081-2.379,5.766-4.168l.287-.3c1.773-1.876,3.94-3.8,6.564-3.809h.026c2.828,0,5.1,2.2,7.1,4.141,1.911,1.853,4.452,3.91,7.193,3.4a9.2,9.2,0,0,0,2.984-1.362c.326-.2.664-.4,1-.59.982-.542,2.858-1.33,4.393-.512a5.649,5.649,0,0,1,2.047,2.455c.109.2.218.391.33.581.389.662,1.448,2.181,2.877,1.984a3.638,3.638,0,0,0,1.619-.842,8.2,8.2,0,0,1,.813-.558l.058.1-.058-.1a3.454,3.454,0,0,1,2.784-.437c1.208.37,2.3,1.524,3.233,3.43,1.045,2.126,3.04,2.878,5.714,3.353,1.767.314,4.776,1.2,5.07,3.582a3.651,3.651,0,0,1-1.427,3.135,8.987,8.987,0,0,1-3.155,1.512c-7.958,2.465-16.492,2.268-23.79,1.751-1.981-.141-4-.315-5.943-.482a129.237,129.237,0,0,0-17.945-.711c-3.4.183-6.841.644-10.165,1.089-3.454.463-7.026.942-10.567,1.11-.537.026-1.083.044-1.633.044m-3.3-11.46q-.191,0-.38.011a5.328,5.328,0,0,0-4.09,2.593,5.019,5.019,0,0,0-.55,4.525,6.541,6.541,0,0,0,4.224,3.562,16.4,16.4,0,0,0,5.715.492c3.531-.168,7.1-.646,10.547-1.108,3.329-.446,6.772-.907,10.184-1.09a129.468,129.468,0,0,1,17.978.711c1.947.168,3.96.342,5.939.482,7.277.516,15.783.712,23.7-1.741a8.788,8.788,0,0,0,3.074-1.468,3.417,3.417,0,0,0,1.344-2.926c-.276-2.237-3.175-3.078-4.879-3.381-2.744-.487-4.8-1.266-5.884-3.48-.907-1.847-1.947-2.96-3.091-3.31a3.226,3.226,0,0,0-2.6.417,8.019,8.019,0,0,0-.789.542,3.869,3.869,0,0,1-1.727.887c-1.568.219-2.7-1.4-3.111-2.1-.113-.191-.222-.388-.332-.586a5.48,5.48,0,0,0-1.953-2.362c-1.437-.766-3.229-.009-4.169.51-.334.184-.669.388-.993.585a9.371,9.371,0,0,1-3.062,1.392c-2.848.534-5.447-1.566-7.394-3.453-1.975-1.915-4.208-4.08-6.941-4.08h-.025c-2.536.012-4.656,1.9-6.4,3.736l-.286.3c-1.709,1.815-3.477,3.692-5.885,4.236a13.689,13.689,0,0,1-3.51.157c-1.968-.079-3.828-.153-5.157,1.1a7.145,7.145,0,0,0-1.361,2.123,5.994,5.994,0,0,1-1.752,2.451c-1.257.88-2.826.664-4.344.455a15.277,15.277,0,0,0-2.049-.189" transform="translate(-728.614 -2530.375)" fill="#fff"/>
        <path id="Tracciato_110997" data-name="Tracciato 110997" d="M1984.8,2702.691a17.769,17.769,0,0,1-4.11,1.241,6.843,6.843,0,0,1-4.974-1.79,9.079,9.079,0,0,0-3.872-2.624,13.744,13.744,0,0,0-7.112.448,35.442,35.442,0,0,1-6.68,1.724c-4.564.451-8.778-1.3-12.112-3s-7.066-3.619-11.709-3.607a21.985,21.985,0,0,0-10.765,3.309c-2.935,1.639-5.987,3.455-10.155,3.952-4.876.582-10.857-.682-14.49,1.131-2.241,1.118-2.624,3.069-5.15,4-3.114,1.15-7.359.1-11.152.225-5.606.179-10,3.639-7.877,6.384,1.214,1.573,4.071,2.669,7.138,3.183a50.952,50.952,0,0,0,9.563.437c11.535-.29,22.91-1.6,34.442-1.929,13.245-.376,26.48.551,39.71,1.046s26.781.541,39.451-1.531a22.347,22.347,0,0,0,5.174-1.307c1.48-.649,2.537-1.649,2.3-2.658-.442-1.894-4.706-2.72-8.264-3.054-4-.375-7.756-.98-9.634-3a8.941,8.941,0,0,0-9.724-2.581" transform="translate(-1776.68 -2555.016)" fill="#fff"/>
        <path id="Tracciato_110998" data-name="Tracciato 110998" d="M1886.047,2715.3a42.139,42.139,0,0,1-6.885-.477c-3.451-.578-6.085-1.757-7.226-3.236a2.482,2.482,0,0,1-.3-2.717c1.007-2.136,4.492-3.774,8.286-3.9a40.113,40.113,0,0,1,4.089.158c2.583.188,5.022.364,7.02-.373a6.773,6.773,0,0,0,2.793-2.074,7.889,7.889,0,0,1,2.344-1.922c2.3-1.147,5.444-1.082,8.774-1.01a42.558,42.558,0,0,0,5.762-.134c3.916-.467,6.819-2.1,9.627-3.669l.476-.266a22.115,22.115,0,0,1,10.833-3.326h.043c4.654,0,8.408,1.922,11.722,3.618,3.193,1.634,7.438,3.446,12.043,2.991a23.71,23.71,0,0,0,4.993-1.2c.541-.174,1.1-.354,1.661-.517a13.883,13.883,0,0,1,7.19-.448,7.649,7.649,0,0,1,3.381,2.146c.181.172.362.343.547.509a6.751,6.751,0,0,0,4.869,1.754,8.927,8.927,0,0,0,2.737-.749c.43-.169.874-.345,1.341-.486a9.126,9.126,0,0,1,9.868,2.62c1.742,1.871,5.075,2.533,9.544,2.953,3.568.334,7.92,1.154,8.389,3.162.232.993-.681,2.073-2.382,2.819a22.462,22.462,0,0,1-5.208,1.317c-13.2,2.16-27.367,1.987-39.479,1.534-3.291-.124-6.637-.276-9.872-.423-9.775-.445-19.883-.906-29.829-.623-5.656.161-11.37.565-16.9.956-5.737.406-11.669.826-17.546.973-.89.022-1.795.039-2.705.039m-5.479-10.052q-.322,0-.639.01c-3.635.116-7.091,1.721-8.04,3.733a2.214,2.214,0,0,0,.27,2.423c1.082,1.4,3.718,2.572,7.049,3.13a51,51,0,0,0,9.536.434c5.871-.147,11.8-.567,17.534-.972,5.529-.391,11.245-.8,16.908-.956,9.957-.282,20.069.178,29.85.623,3.235.147,6.58.3,9.87.423,12.1.453,26.244.625,39.423-1.53a22.275,22.275,0,0,0,5.14-1.3c1.229-.54,2.458-1.479,2.221-2.5-.336-1.439-3.227-2.485-8.14-2.945-4.533-.425-7.921-1.1-9.724-3.042a8.755,8.755,0,0,0-9.58-2.542c-.456.138-.895.311-1.319.478a9.3,9.3,0,0,1-2.82.768,7.012,7.012,0,0,1-5.079-1.825c-.187-.168-.37-.341-.553-.515a7.414,7.414,0,0,0-3.263-2.079c-2.435-.685-5.452-.013-7.034.448-.556.162-1.114.341-1.653.515a23.937,23.937,0,0,1-5.052,1.214c-4.679.461-8.972-1.369-12.19-3.017-3.294-1.686-7.017-3.592-11.6-3.592h-.042a21.857,21.857,0,0,0-10.7,3.291l-.475.266c-2.832,1.587-5.76,3.229-9.732,3.7a42.619,42.619,0,0,1-5.8.136c-3.294-.069-6.406-.135-8.642.981a7.66,7.66,0,0,0-2.262,1.861,7.09,7.09,0,0,1-2.9,2.147c-2.054.759-4.524.58-7.138.39-1.132-.082-2.3-.167-3.42-.167m101.637-5.139h0Z" transform="translate(-1774.085 -2552.438)" fill="#fff"/>
        <path id="Tracciato_110999" data-name="Tracciato 110999" d="M3925.9,2835.061a7.827,7.827,0,0,1-2.107.794,3.141,3.141,0,0,1-2.55-1.146,4.779,4.779,0,0,0-1.985-1.681,5.712,5.712,0,0,0-3.646.287,15.341,15.341,0,0,1-3.425,1.1c-2.34.289-4.5-.83-6.21-1.923s-3.623-2.318-6-2.31a9.771,9.771,0,0,0-5.519,2.119,12.122,12.122,0,0,1-5.206,2.532c-2.5.372-5.567-.437-7.429.724-1.149.716-1.345,1.966-2.641,2.563-1.6.737-3.773.066-5.718.144-2.874.115-5.125,2.331-4.039,4.089a5.7,5.7,0,0,0,3.66,2.039,20.989,20.989,0,0,0,4.9.28c5.914-.186,11.746-1.026,17.658-1.236,6.791-.24,13.576.353,20.36.67s13.73.346,20.226-.981a9.658,9.658,0,0,0,2.653-.837c.759-.416,1.3-1.056,1.18-1.7-.227-1.213-2.413-1.742-4.237-1.956-2.05-.24-3.977-.627-4.939-1.919a4.055,4.055,0,0,0-4.986-1.653" transform="translate(-3668.022 -2683.098)" fill="#fff"/>
        <path id="Tracciato_111000" data-name="Tracciato 111000" d="M3875.156,2843.3a17.419,17.419,0,0,1-3.535-.305,5.68,5.68,0,0,1-3.712-2.076,1.948,1.948,0,0,1-.021-2.007,4.976,4.976,0,0,1,4.126-2.206,16.366,16.366,0,0,1,2.1.1,7.17,7.17,0,0,0,3.589-.238,3.659,3.659,0,0,0,1.429-1.326,4.4,4.4,0,0,1,1.2-1.232c1.183-.738,2.8-.7,4.509-.65a17.393,17.393,0,0,0,2.95-.085,11.409,11.409,0,0,0,4.927-2.347l.245-.171a9.843,9.843,0,0,1,5.565-2.134h.022c2.392,0,4.32,1.233,6.021,2.321,1.634,1.045,3.806,2.205,6.161,1.913a10.158,10.158,0,0,0,2.555-.768c.278-.111.564-.226.852-.331a5.79,5.79,0,0,1,3.7-.288,3.958,3.958,0,0,1,1.739,1.377c.093.11.185.219.281.326a3.105,3.105,0,0,0,2.482,1.12,3.891,3.891,0,0,0,1.4-.478c.221-.109.449-.221.69-.312a4.117,4.117,0,0,1,5.079,1.68c.891,1.2,2.6,1.62,4.884,1.888,1.833.215,4.068.739,4.307,2.021.117.626-.35,1.312-1.22,1.789a9.525,9.525,0,0,1-2.676.845c-6.771,1.383-14.034,1.273-20.246.983-1.688-.079-3.405-.177-5.065-.271-5.01-.285-10.19-.58-15.288-.4-2.9.1-5.829.362-8.662.612-2.942.26-5.983.529-9,.624-.456.014-.92.025-1.387.025m-2.809-6.438c-.11,0-.219,0-.327.006a4.812,4.812,0,0,0-3.99,2.12,1.772,1.772,0,0,0,.017,1.846,5.606,5.606,0,0,0,3.607,2,21.02,21.02,0,0,0,4.884.278c3.009-.095,6.048-.363,8.987-.623,2.835-.25,5.767-.51,8.67-.612,5.1-.181,10.289.114,15.3.4,1.66.094,3.376.192,5.063.271,6.2.29,13.453.4,20.207-.979a9.4,9.4,0,0,0,2.63-.829c.632-.346,1.263-.953,1.139-1.617-.233-1.248-2.71-1.72-4.167-1.89-2.329-.273-4.069-.709-4.995-1.951-1.341-1.8-2.986-2.346-4.892-1.626-.233.088-.458.2-.676.306a4.07,4.07,0,0,1-1.453.493,3.259,3.259,0,0,1-2.618-1.173c-.1-.107-.189-.218-.283-.33a3.828,3.828,0,0,0-1.668-1.329,5.782,5.782,0,0,0-3.592.287c-.285.1-.57.218-.847.329a10.318,10.318,0,0,1-2.6.779c-2.405.3-4.611-.878-6.263-1.935-1.687-1.079-3.593-2.3-5.938-2.3h-.022a9.7,9.7,0,0,0-5.473,2.1l-.245.171a11.527,11.527,0,0,1-5,2.374,17.523,17.523,0,0,1-2.979.088c-1.686-.045-3.278-.087-4.419.625a4.274,4.274,0,0,0-1.158,1.191,3.838,3.838,0,0,1-1.491,1.377,7.289,7.289,0,0,1-3.671.252c-.58-.053-1.176-.107-1.751-.107m52.109-3.282h0Z" transform="translate(-3666.573 -2681.622)" fill="#fff"/>
        <path id="Tracciato_111001" data-name="Tracciato 111001" d="M1358.679,474.352c.114.182,1.557-4.528,4.569-5.62,0,0-2.693-.814-4.791,3.043,0,0-3.492-2.109-6.553.136,0,0,5.059-.314,6.775,2.44" transform="translate(-1281.63 -444.329)" fill="#ffe4e5"/>
        <path id="Tracciato_111002" data-name="Tracciato 111002" d="M4545.514,1135.177c.02.176,2.751-2.823,5.377-2.577,0,0-1.718-1.553-4.637.58,0,0-1.858-2.8-4.926-2.2,0,0,3.877,1.546,4.186,4.2" transform="translate(-4305.261 -1072.139)" fill="#ffe4e5"/>
        <path id="Tracciato_111003" data-name="Tracciato 111003" d="M866.365,324.733c-.023.166,3.208-1.936,5.565-1.079,0,0-1.208-1.841-4.4-.579,0,0-1.037-3.02-4-3.209,0,0,3.194,2.352,2.841,4.867" transform="translate(-818.636 -303.269)" fill="#ffe4e5"/>
        <path id="Tracciato_111004" data-name="Tracciato 111004" d="M3251.607,3123.517c0,1.6,12.326,2.905,27.531,2.905s27.532-1.3,27.532-2.905-12.326-2.9-27.532-2.9-27.531,1.3-27.531,2.9" transform="translate(-3082.582 -2958.427)" fill="#dceeff"/>
        <path id="Tracciato_111005" data-name="Tracciato 111005" d="M1871.362,3123.517c0,1.6,15.432,2.905,34.468,2.905s34.468-1.3,34.468-2.905-15.432-2.9-34.468-2.9-34.468,1.3-34.468,2.9" transform="translate(-1774.085 -2958.427)" fill="#dceeff"/>
        <path id="Tracciato_111006" data-name="Tracciato 111006" d="M3620.7,1069.367l.727,16.249a55.406,55.406,0,0,1-2.485,15.345c-.641,2.091,3.876,2.615,4.194.084s1.741-13.822,2.153-15.22a118.045,118.045,0,0,0,1.317-16.893Z" transform="translate(-3430.767 -1013.397)" fill="#a6653a"/>
        <path id="Tracciato_111007" data-name="Tracciato 111007" d="M3587.632,1650.071a9.23,9.23,0,0,1-1.059,2.722,5.349,5.349,0,0,0-1.154,2.951c.024.8.6.9.892.4s.446-1.553.559-1.58c.314-.073-.695,4.6-.939,5.454s.7,1.388,1.1.472,1.187-2.982,1.187-2.982-.677,3.056-.869,3.632.552,1.07.868.7a12.984,12.984,0,0,0,1.224-3.622s-.158,2.139-.226,2.795c-.078.742.682.906.941.129.2-.594.744-3.127.744-3.127s-.179,2.149-.239,2.459c-.1.51.59.642.855-.328a12.365,12.365,0,0,0,.68-5.14c-.211-2.657-.939-2.185-.678-4.234s-3.882-.708-3.882-.708" transform="translate(-3399.041 -1563.919)" fill="#a6653a"/>
        <path id="Tracciato_111008" data-name="Tracciato 111008" d="M3636.027,694.95l-8.533.9s-1.627-18.463,7.21-22.686,1.323,21.787,1.323,21.787" transform="translate(-3438.818 -637.761)" fill="#45aff5"/>
        <path id="Tracciato_111009" data-name="Tracciato 111009" d="M3670.3,895.725l-2.406.184s.831-9.37,1.453-11.7.953,11.512.953,11.512" transform="translate(-3477.231 -838.031)" fill="#4b92d8"/>
        <path id="Tracciato_111010" data-name="Tracciato 111010" d="M3548.923,1559.078s-11.9,32.36-15.7,39.4l-3.331,32.836h-7.709s-.476-26.745,0-34.073,8.281-38.261,8.661-39.5,18.083,1.332,18.083,1.332" transform="translate(-3338.888 -1476.482)" fill="#16168c"/>
        <path id="Tracciato_111011" data-name="Tracciato 111011" d="M3815.326,1598.676s2.881,25.507,3.915,35.881,3.033,36.548,3.033,36.548h6.662s1.428-22.176,1.618-34.168,3.617-28.172,1.142-38.261Z" transform="translate(-3616.998 -1515.604)" fill="#16168c"/>
        <path id="Tracciato_111012" data-name="Tracciato 111012" d="M3958.123,2971.784s.694-.516.5-3.561h5.139s.44,3.315.472,5.092Z" transform="translate(-3752.372 -2813.959)" fill="#a6653a"/>
        <path id="Tracciato_111013" data-name="Tracciato 111013" d="M3780.255,3025.223s-2.284.856-5.869-.7a56.669,56.669,0,0,0-5.139,2.665,13.081,13.081,0,0,1-3.227,1.331,2.677,2.677,0,0,0-1.977,2.579v.563a.761.761,0,0,0,.761.761h15.863a.761.761,0,0,0,.761-.761v-1.745a9.693,9.693,0,0,0-1.174-4.7" transform="translate(-3568.38 -2867.335)" fill="#16168c"/>
        <path id="Tracciato_111014" data-name="Tracciato 111014" d="M3764.608,3151.614h16.254a.566.566,0,0,0,.566-.565v-.8h-17.386v.8a.566.566,0,0,0,.566.565" transform="translate(-3568.38 -2986.524)" fill="#030d74"/>
        <path id="Tracciato_111015" data-name="Tracciato 111015" d="M3935.842,3033.956h0a.2.2,0,0,0,.06-.28l-.812-1.26a.2.2,0,0,0-.34.219l.813,1.26a.2.2,0,0,0,.28.061" transform="translate(-3730.183 -2874.729)" fill="#030d74"/>
        <path id="Tracciato_111016" data-name="Tracciato 111016" d="M3917.989,3043.11h0a.2.2,0,0,0,.061-.28l-.813-1.26a.2.2,0,1,0-.339.219l.812,1.26a.2.2,0,0,0,.28.06" transform="translate(-3713.259 -2883.407)" fill="#030d74"/>
        <path id="Tracciato_111017" data-name="Tracciato 111017" d="M3898.764,3052.723h0a.2.2,0,0,0,.061-.28l-.812-1.26a.2.2,0,1,0-.34.219l.813,1.26a.2.2,0,0,0,.279.061" transform="translate(-3695.033 -2892.52)" fill="#030d74"/>
        <path id="Tracciato_111018" data-name="Tracciato 111018" d="M3879.082,3063.251h0a.2.2,0,0,0,.061-.28l-.812-1.259a.2.2,0,0,0-.34.219l.813,1.26a.2.2,0,0,0,.279.06" transform="translate(-3676.374 -2902.501)" fill="#030d74"/>
        <path id="Tracciato_111019" data-name="Tracciato 111019" d="M3858.026,3071.32h0a.2.2,0,0,0,.06-.28l-.812-1.26a.2.2,0,1,0-.34.219l.813,1.26a.2.2,0,0,0,.279.06" transform="translate(-3656.413 -2910.151)" fill="#030d74"/>
        <path id="Tracciato_111020" data-name="Tracciato 111020" d="M4069.241,3069.688s-1.108.714-1.108,4.188h1.579a11.159,11.159,0,0,0-.47-4.187" transform="translate(-3856.663 -2910.15)" fill="#030d74"/>
        <path id="Tracciato_111021" data-name="Tracciato 111021" d="M3959.758,3020.626a8.037,8.037,0,0,0,2.242-.326.286.286,0,0,0-.159-.55,6.76,6.76,0,0,1-5.566-.678.286.286,0,1,0-.337.463,6.864,6.864,0,0,0,3.82,1.091" transform="translate(-3750.189 -2862.114)" fill="#030d74"/>
        <path id="Tracciato_111022" data-name="Tracciato 111022" d="M3937.068,2950.5h7a.545.545,0,0,0,.545-.545v-1.479a.546.546,0,0,0-.545-.546h-7a.545.545,0,0,0-.545.546v1.479a.545.545,0,0,0,.545.545" transform="translate(-3731.895 -2794.721)" fill="#030d74"/>
        <path id="Tracciato_111023" data-name="Tracciato 111023" d="M3544.329,2971.784s.694-.516.5-3.561h5.139s.44,3.315.472,5.092Z" transform="translate(-3360.088 -2813.959)" fill="#a6653a"/>
        <path id="Tracciato_111024" data-name="Tracciato 111024" d="M3366.46,3025.223s-2.284.856-5.869-.7a56.692,56.692,0,0,0-5.14,2.665,13.073,13.073,0,0,1-3.227,1.331,2.677,2.677,0,0,0-1.976,2.579v.563a.761.761,0,0,0,.761.761h15.863a.761.761,0,0,0,.762-.761v-1.745a9.7,9.7,0,0,0-1.174-4.7" transform="translate(-3176.096 -2867.335)" fill="#16168c"/>
        <path id="Tracciato_111025" data-name="Tracciato 111025" d="M3350.814,3151.614h16.254a.566.566,0,0,0,.566-.565v-.8h-17.386v.8a.565.565,0,0,0,.565.565" transform="translate(-3176.096 -2986.524)" fill="#030d74"/>
        <path id="Tracciato_111026" data-name="Tracciato 111026" d="M3522.047,3033.956h0a.2.2,0,0,0,.06-.28l-.812-1.26a.2.2,0,0,0-.34.219l.813,1.26a.2.2,0,0,0,.28.061" transform="translate(-3337.898 -2874.729)" fill="#030d74"/>
        <path id="Tracciato_111027" data-name="Tracciato 111027" d="M3504.2,3043.11h0a.2.2,0,0,0,.06-.28l-.812-1.26a.2.2,0,0,0-.34.219l.813,1.26a.2.2,0,0,0,.28.06" transform="translate(-3320.975 -2883.407)" fill="#030d74"/>
        <path id="Tracciato_111028" data-name="Tracciato 111028" d="M3484.971,3052.723h0a.2.2,0,0,0,.06-.28l-.812-1.26a.2.2,0,1,0-.34.219l.813,1.26a.2.2,0,0,0,.28.061" transform="translate(-3302.749 -2892.52)" fill="#030d74"/>
        <path id="Tracciato_111029" data-name="Tracciato 111029" d="M3465.288,3063.251h0a.2.2,0,0,0,.061-.28l-.812-1.259a.2.2,0,0,0-.34.219l.813,1.26a.2.2,0,0,0,.279.06" transform="translate(-3284.09 -2902.501)" fill="#030d74"/>
        <path id="Tracciato_111030" data-name="Tracciato 111030" d="M3444.232,3071.32h0a.2.2,0,0,0,.06-.28l-.812-1.26a.2.2,0,1,0-.34.219l.813,1.26a.2.2,0,0,0,.28.06" transform="translate(-3264.128 -2910.151)" fill="#030d74"/>
        <path id="Tracciato_111031" data-name="Tracciato 111031" d="M3655.448,3069.688s-1.109.714-1.109,4.188h1.578a11.159,11.159,0,0,0-.47-4.187" transform="translate(-3464.379 -2910.15)" fill="#030d74"/>
        <path id="Tracciato_111032" data-name="Tracciato 111032" d="M3545.964,3020.626a8.041,8.041,0,0,0,2.243-.326.286.286,0,0,0-.159-.55,6.759,6.759,0,0,1-5.566-.678.286.286,0,1,0-.337.463,6.865,6.865,0,0,0,3.82,1.091" transform="translate(-3357.905 -2862.114)" fill="#030d74"/>
        <path id="Tracciato_111033" data-name="Tracciato 111033" d="M3523.274,2950.5h7a.545.545,0,0,0,.545-.545v-1.479a.545.545,0,0,0-.545-.546h-7a.546.546,0,0,0-.545.546v1.479a.545.545,0,0,0,.545.545" transform="translate(-3339.61 -2794.721)" fill="#030d74"/>
        <path id="Tracciato_111034" data-name="Tracciato 111034" d="M3828.865,1850.1l-1.206-10.968-.8,15.983Z" transform="translate(-3627.932 -1743.564)" fill="#030d74"/>
        <path id="Tracciato_111035" data-name="Tracciato 111035" d="M3672.013,653.415c-2.628.16-4.989.02-7.16.9s-4.292,4.693-4.217,11.172-.632,16.82-.748,20.133c-.112,3.162-.208,12.506-1.171,17.664a.606.606,0,0,0,.582.72c3.59.072,19.509.47,25.189,1.926,0,0-1.486-15.484-.844-24.8s2.123-18.436,2.387-20.359.714-5-4.021-6.558a25.022,25.022,0,0,0-10-.792" transform="translate(-3468.519 -619.302)" fill="#45aff5"/>
        <path id="Tracciato_111036" data-name="Tracciato 111036" d="M4112.958,980.578l-1.709-7.58,1.316,13.109Z" transform="translate(-3897.538 -922.45)" fill="#4b92d8"/>
        <path id="Tracciato_111037" data-name="Tracciato 111037" d="M3867.911,1308.616l-14.6-1.148,14.672,3.432Z" transform="translate(-3653.008 -1239.535)" fill="#4b92d8"/>
        <path id="Tracciato_111038" data-name="Tracciato 111038" d="M3839.671,1113.132l.667,4.187s-7.053.047-9.871.218a63.6,63.6,0,0,0-7.08.652c-1.57.318-1.3,2.59-.8,3s4.655.766,7.955,1.2,9.856,1.626,12.189,1.834,4.267-.387,4.583-3.552a47.718,47.718,0,0,0-.058-9.341Z" transform="translate(-3623.51 -1053.598)" fill="#a6653a"/>
        <path id="Tracciato_111039" data-name="Tracciato 111039" d="M4085.461,706.431s-1.161-10.736-2.834-15.275-5.4-7.3-7.966-7.653-2.9,6.723-1.35,11.27a135.014,135.014,0,0,1,3.241,13.6s2.29-1.029,8.909-1.939" transform="translate(-3860.688 -647.992)" fill="#45aff5"/>
        <path id="Tracciato_111040" data-name="Tracciato 111040" d="M3506.125,1185.978l-14.77-1.86a.58.58,0,0,0-.641.462h0a.58.58,0,0,0,.488.688l14.76,2.08a.58.58,0,0,0,.66-.547l.01-.22a.58.58,0,0,0-.506-.6" transform="translate(-3309.248 -1122.592)" fill="#1d1d1b"/>
        <path id="Tracciato_111041" data-name="Tracciato 111041" d="M3539.3,1198.635h0a.088.088,0,0,1-.1.074l-1.1-.152a.087.087,0,1,1,.024-.173l1.1.151a.088.088,0,0,1,.075.1" transform="translate(-3354.111 -1136.12)" fill="#9d9d9c"/>
        <path id="Tracciato_111042" data-name="Tracciato 111042" d="M3579.128,1192.733a6.271,6.271,0,0,1-2.914-.865,15.988,15.988,0,0,0-2.884-1.43c-1.062-.221-3.049-.228-3.283.1s-.293.81,1.561.984c0,0,1.522-.2,1.893.666s-2.748.8-3.617.633a10.065,10.065,0,0,1-4.276-1.33c-1.4-1.028-1.7-.818-1.8-.367a1.77,1.77,0,0,0,.694,1.483l-.918-.859-1.3-.183a4.583,4.583,0,0,0,2.917,3.131,16.652,16.652,0,0,0,7.177,1.47,57.911,57.911,0,0,1,7.208.517Z" transform="translate(-3377.107 -1128.439)" fill="#a6653a"/>
        <path id="Tracciato_111043" data-name="Tracciato 111043" d="M3866.026,652.941a7.691,7.691,0,0,1-3.877,3.409c-2.879,1.237-4.045,1.166-4.521.738s0-3.952,0-3.952a45.031,45.031,0,0,1,8.4-.2" transform="translate(-3656.9 -618.904)" fill="#4b92d8"/>
        <path id="Tracciato_111044" data-name="Tracciato 111044" d="M3729.314,270.781a9.779,9.779,0,0,0-1.315,6.236,8.674,8.674,0,0,0-1.639,3.373c-.044.472,1.532.842,1.532.842s.049,2.6.1,3.632.08,1.875,1.344,2.067,3.68.2,4.195,1.346-.8,4.6.843,4.323a10.983,10.983,0,0,0,6.668-3.771s-.909-5.352.731-8.383,2.273-7.44-.467-9.455-9.97-3.793-11.991-.211" transform="translate(-3532.656 -254.787)" fill="#a6653a"/>
        <path id="Tracciato_111045" data-name="Tracciato 111045" d="M3808.6,507.635s-1.289.24-1.474.259a17.58,17.58,0,0,1-.936,2.69,13.553,13.553,0,0,1-7.174,2.7,57.484,57.484,0,0,1,6.772-.755c1.122.142,1.8.589,1.831,1,.119,1.863-1.436,4.484-1.436,4.484a7.038,7.038,0,0,0,3.737-2.87,64.116,64.116,0,0,1-.013-6.7c.223-1.59-1.306-.809-1.306-.809" transform="translate(-3601.54 -481.096)" fill="#935533"/>
        <path id="Tracciato_111046" data-name="Tracciato 111046" d="M3768.67,250.583a1.779,1.779,0,0,1-1.535-2.275s-1.466.541-2-1.508-1.44-3.471-4.015-3.675-2.174-1.121-2.127-1.7a1.686,1.686,0,0,1,2.043-1.371c1.333.215,1.091-1.337,2.235-1.5s2.44.522,3.274.588,1.692-.632,2.78-.546a3.412,3.412,0,0,1,2.629,2.288c.383,1.162.431,1.932,1.728,2.144s2.1.713,2.24,1.674-.455,1.132-.48,1.458.76,1.009.663,1.768a2.548,2.548,0,0,1-1.745,1.759,1.812,1.812,0,0,1,0,1.35c-.306.633-1.363.622-1.431,1.018s-.292,1.838-1.482,1.671a7.979,7.979,0,0,1-2.312-.767s2.492-1.518,2.552-3.192a1.463,1.463,0,0,0-1.925-1.5c-.374.116-1.243.485-1.289,1.066a3.617,3.617,0,0,0,.193,1.256" transform="translate(-3563.549 -226.157)" fill="#030d74"/>
        <path id="Tracciato_111047" data-name="Tracciato 111047" d="M2094.245,2938.465s1.275,4.948.765,7.7a6.263,6.263,0,0,0,4.693.494c2.5-.8.918-1.132.918-1.132a17.887,17.887,0,0,1-1.173-7.371Z" transform="translate(-1985.382 -2785.458)" fill="#f5ae84"/>
        <path id="Tracciato_111048" data-name="Tracciato 111048" d="M2090.979,3079.944s4.54.943,5.866,0c0,0,1.071-.045,4.183,1.393s5.968,2.166,6.172,3.027-2.958.541-5.152.541h-11.58a7.526,7.526,0,0,1,.51-4.961" transform="translate(-1981.606 -2919.873)" fill="#030d74"/>
        <path id="Tracciato_111049" data-name="Tracciato 111049" d="M2744.884,2947.212a26.812,26.812,0,0,1,3.366,7.248,6.26,6.26,0,0,0,4.693.493c2.5-.8.918-1.132.918-1.132a44.171,44.171,0,0,1-3.775-6.916Z" transform="translate(-2602.2 -2793.75)" fill="#f5ae84"/>
        <path id="Tracciato_111050" data-name="Tracciato 111050" d="M2791.665,3079.944s4.54.943,5.866,0c0,0,1.071-.045,4.183,1.393s5.968,2.166,6.172,3.027-2.958.541-5.152.541h-11.579a7.525,7.525,0,0,1,.51-4.961" transform="translate(-2645.869 -2919.873)" fill="#030d74"/>
        <path id="Tracciato_111051" data-name="Tracciato 111051" d="M1945.4,1580.749s-2.327,5.2-1.72,17.85,4.047,28.43,4.755,33.388,2.511,22.461,2.511,22.461a12.1,12.1,0,0,0,6.7,0s.3-25.8.911-33.286,1.518-13.052,2.428-24.181,1.281-16.57,1.281-16.57a159.111,159.111,0,0,1-16.861.338" transform="translate(-1842.544 -1498.289)" fill="#030d74"/>
        <path id="Tracciato_111052" data-name="Tracciato 111052" d="M2161.563,1560.467s3.844,17.177,5.868,23.854,8.379,16.694,11.474,24.484,13.719,26.812,13.719,26.812,4.654.4,6.273-1.619c0,0-7.184-21.449-9.814-30.251s-4.559-25.395-6.073-32.376a91.45,91.45,0,0,0-3.433-12s-11.943,1.094-18.013,1.094" transform="translate(-2049.201 -1478.344)" fill="#030d74"/>
        <path id="Tracciato_111053" data-name="Tracciato 111053" d="M2267.811,1859.763l.885-8.6,1.267,14.441a19.086,19.086,0,0,1-2.152-5.838" transform="translate(-2149.926 -1754.964)" fill="#030d74"/>
        <path id="Tracciato_111054" data-name="Tracciato 111054" d="M1867.361,252.589s-2.212,6.2-1.845,10.615-2.439,9.934-5.848,12.745-6.315,9.234.51,13.544,22.368,1.8,23.864-4.718-3.134-13.018-1.333-19.942,3.252-11.575-3.584-14.982-11.765,2.737-11.765,2.737" transform="translate(-1759.554 -235.92)" fill="#030d74"/>
        <path id="Tracciato_111055" data-name="Tracciato 111055" d="M2496.9,1424.506s1.7,9.607,2.981,12.863.232,2.941-.333,3.153-2.192-.435-3.882-4.344-4.352-10.159-4.352-10.159Z" transform="translate(-2361.814 -1350.488)" fill="#f5ae84"/>
        <path id="Tracciato_111056" data-name="Tracciato 111056" d="M2386.816,801.044s.825,9.515,1.1,13.953a85.6,85.6,0,0,0,2.757,15.62,39.37,39.37,0,0,0-6.254,3.341s-5.561-23.106-5.936-29.182,5.424-10.889,8.33-3.732" transform="translate(-2254.831 -756.045)" fill="#ff8f88"/>
        <path id="Tracciato_111057" data-name="Tracciato 111057" d="M2508.2,1298.471l1.488-10.455,1.569,8.764Z" transform="translate(-2377.815 -1221.093)" fill="#ef7575"/>
        <path id="Tracciato_111058" data-name="Tracciato 111058" d="M2591.411,1639.337s.25,2.986.964,3.859a15.415,15.415,0,0,1,2.14,3c.3.795.449.909.9.873s.25-.924-.031-1.4-.355-.814.079-.793a5.561,5.561,0,0,1,3.127,1.942c.9,1.251,1.05,1.554,1.448,1.5s.307-.906.307-.906.749,1.326,1.336,1.083.027-1.757-1.892-3.353-4.649-3.593-5.058-4.993a2.558,2.558,0,0,0-1.653-2.011c-1.472-.5-1.669,1.2-1.669,1.2" transform="translate(-2456.704 -1552.926)" fill="#f5ae84"/>
        <path id="Tracciato_111059" data-name="Tracciato 111059" d="M1963.074,678.973s1.686-.944,6.475-.877,6.277-.005,8.465,1.248,6.711,5.362,6.374,14.6,1.552,29.678,1.552,29.678-18.481,2.9-30.69,1.147c0,0,3.777-26.373,3.238-33.32s2.293-11.736,4.587-12.478" transform="translate(-1853.612 -642.875)" fill="#fff"/>
        <path id="Tracciato_111060" data-name="Tracciato 111060" d="M1872.455,678.158s-12.615,1.046-12.479,9.14,3.509,16.626,1.89,24.99-3.674,21.464-5.832,24.971a105.577,105.577,0,0,0,13.095,1.874c4.587.135,6.868-3.14,7.138-6.984s-1.45-18.8.236-25.435,4.182-9.062,1.754-15.066-5.8-13.49-5.8-13.49" transform="translate(-1759.554 -642.937)" fill="#ff8f88"/>
        <path id="Tracciato_111061" data-name="Tracciato 111061" d="M2348.413,684.646a27.008,27.008,0,0,1,4.519,12.883c.472,7.352.4,14.084.338,19.722s-.2,21.355-.27,23.176-1.012,4.519,1.619,4.519,7.352-2.158,7.352-2.158a62.99,62.99,0,0,1-2.833-15.918c-.27-8.3-1.012-19.965-.4-25.226s-.2-15.109-10.32-17" transform="translate(-2226.338 -649.087)" fill="#ff8f88"/>
        <path id="Tracciato_111062" data-name="Tracciato 111062" d="M1984.514,1247.058l-2.975.668-.472,1.079s-2.177,1.416-10.431.32c0,0,.347-2.108.414-2.917s13.861-1.012,13.861-1.012Z" transform="translate(-1868.199 -1180.499)" fill="#ef7575"/>
        <path id="Tracciato_111063" data-name="Tracciato 111063" d="M2052.568,1018.974l1.7-8.455-1.027,8.455Z" transform="translate(-1945.871 -958.02)" fill="#ef7575"/>
        <path id="Tracciato_111064" data-name="Tracciato 111064" d="M2203.9,553.095c-2.211,1.776-7.067-.96-7.908-4.234s.25-3.555-.309-8.687a35.9,35.9,0,0,0,6.282.286s.294,5.627,1.12,7.315,2.733,3.779.814,5.32" transform="translate(-2081.528 -512.124)" fill="#f5ae84"/>
        <path id="Tracciato_111065" data-name="Tracciato 111065" d="M2204.135,564.053s-4.507-1.215-6.5-2.614c0,0,1.591,3.315,6.615,3.5Z" transform="translate(-2083.398 -532.285)" fill="#e59c77"/>
        <path id="Tracciato_111066" data-name="Tracciato 111066" d="M2067.847,229.419s-8.525-9.316-14.042-3.43c0,0-3.1,1.607-3.8,7.181-.715,5.687,3.36,9.619,5.192,8.408a2.067,2.067,0,0,1,2.362.234Z" transform="translate(-1943.359 -212.423)" fill="#030d74"/>
        <path id="Tracciato_111067" data-name="Tracciato 111067" d="M2179.864,336.442s-9.11.922-9.6-4.76-1.991-9.39,3.805-10.219,7.25,1.2,7.737,3.1a9.314,9.314,0,0,1,.1,4.625,17.014,17.014,0,0,1-.073,2.533c-.575,2.447-.864,4.54-1.97,4.722" transform="translate(-2056.939 -304.602)" fill="#f5ae84"/>
        <path id="Tracciato_111068" data-name="Tracciato 111068" d="M2184.469,309.49s-1.815,7.289-5.684,8.188a8.744,8.744,0,0,1-2.469.23,4.443,4.443,0,0,0,4.191-4.3s1.809-7.13,3.962-4.117" transform="translate(-2063.187 -292.728)" fill="#e59c77"/>
        <path id="Tracciato_111069" data-name="Tracciato 111069" d="M2322,304.506a6.742,6.742,0,0,1,3.018,2.109c.934,1.2,1.327,2.282,1.369,4.692,0,0,1.573-4.557-.759-6.941-2.472-2.528-3.628.14-3.628.14" transform="translate(-2201.302 -287.542)" fill="#030d74"/>
        <path id="Tracciato_111070" data-name="Tracciato 111070" d="M2129.076,297.659s-1.934,6.878-5.684,8.188-5.5.424-5.5.424a10.9,10.9,0,0,0,3.008-6.714s6.023-4.912,8.176-1.9" transform="translate(-2007.8 -281.289)" fill="#030d74"/>
        <path id="Tracciato_111071" data-name="Tracciato 111071" d="M2245.889,1005.9l-3.648,19.705a.831.831,0,0,0,.755.98l12.079.912a.831.831,0,0,0,.879-.675l3.576-19a.831.831,0,0,0-.706-.977l-12.007-1.619a.831.831,0,0,0-.928.672" transform="translate(-2125.671 -952.997)" fill="#16168c"/>
        <path id="Tracciato_111072" data-name="Tracciato 111072" d="M2096.632,1196.283l15.1,1.838s.078-.085.011,1.325c-.048,1,1.942,1.74-.654,1.912s-15.99.308-15.99.308Z" transform="translate(-1986.191 -1134.128)" fill="#f5ae84"/>
        <path id="Tracciato_111073" data-name="Tracciato 111073" d="M1862.714,738.777c2.438.841,2.81,4.585.523,10.764s-4.268,11.178-4.268,11.178l7.281,1.243s-.4,4.14-2.653,6.527c0,0-9.38-.369-11.7-3.023s-.241-10.613,1.074-15.315,2.665-13.812,9.742-11.372" transform="translate(-1754.642 -700.018)" fill="#ff8f88"/>
        <path id="Tracciato_111074" data-name="Tracciato 111074" d="M2365.882,1193.389a18.659,18.659,0,0,0,2.933-.766c.873-.389,1.1-.828,1.425-.438s-.649.963-.649.963a6.733,6.733,0,0,0,3.175-1.451c1.023-1.084.919,1.631-.65,2.543s-3.431,2.727-6.779,2.532-2.178-3.225.544-3.383" transform="translate(-2240.44 -1129.543)" fill="#f5ae84"/>
      </g>
    </g>
  </g>
</svg>
