<?xml version="1.0" encoding="UTF-8"?>
<!DOCTYPE svg PUBLIC "-//W3C//DTD SVG 1.1//EN" "http://www.w3.org/Graphics/SVG/1.1/DTD/svg11.dtd">
<svg xmlns="http://www.w3.org/2000/svg" version="1.1" width="466px" height="422px" style="shape-rendering:geometricPrecision; text-rendering:geometricPrecision; image-rendering:optimizeQuality; fill-rule:evenodd; clip-rule:evenodd" xmlns:xlink="http://www.w3.org/1999/xlink">
<g><path style="opacity:1" fill="#f68e8c" d="M 235.5,-0.5 C 239.833,-0.5 244.167,-0.5 248.5,-0.5C 248.5,-0.166667 248.5,0.166667 248.5,0.5C 245.813,0.33591 243.146,0.502577 240.5,1C 241.448,1.48278 242.448,1.64945 243.5,1.5C 243.5,2.83333 243.5,4.16667 243.5,5.5C 242.417,5.46056 241.417,5.12723 240.5,4.5C 240.891,5.71846 240.224,6.5518 238.5,7C 220.738,10.1517 203.238,14.3183 186,19.5C 183.473,19.3304 182.973,18.3304 184.5,16.5C 182.031,15.8319 179.698,15.1653 177.5,14.5C 196.92,9.47897 216.254,4.47897 235.5,-0.5 Z"/></g>
<g><path style="opacity:1" fill="#f07c79" d="M 243.5,5.5 C 247.26,6.76926 249.426,9.43592 250,13.5C 250.667,21.8333 250.667,30.1667 250,38.5C 248.951,39.5171 247.784,39.6838 246.5,39C 243.228,37.3922 240.228,35.3922 237.5,33C 235.866,32.5065 234.199,32.3398 232.5,32.5C 232.649,31.448 232.483,30.448 232,29.5C 231.802,31.3817 231.302,33.0484 230.5,34.5C 231.842,24.3409 227.509,20.1743 217.5,22C 214.827,23.0014 212.493,24.5014 210.5,26.5C 196.418,23.2567 191.752,28.59 196.5,42.5C 193.433,42.5702 191.1,43.9035 189.5,46.5C 186.653,53.296 185.819,60.296 187,67.5C 185.207,69.0248 183.374,70.3582 181.5,71.5C 182.263,72.2679 183.263,72.7679 184.5,73C 182.618,73.1981 180.952,73.6981 179.5,74.5C 175.946,72.2017 174.279,68.8684 174.5,64.5C 175.5,64.5 176.5,64.5 177.5,64.5C 177.185,62.7741 177.019,61.1075 177,59.5C 178.103,62.4766 179.27,65.4766 180.5,68.5C 181.325,69.3857 182.325,69.719 183.5,69.5C 179.252,54.3397 175.252,39.173 171.5,24C 172.811,21.9247 172.145,20.5913 169.5,20C 170.252,19.3292 170.586,18.4959 170.5,17.5C 172.426,15.7073 174.759,14.7073 177.5,14.5C 179.698,15.1653 182.031,15.8319 184.5,16.5C 182.973,18.3304 183.473,19.3304 186,19.5C 203.238,14.3183 220.738,10.1517 238.5,7C 240.224,6.5518 240.891,5.71846 240.5,4.5C 241.417,5.12723 242.417,5.46056 243.5,5.5 Z"/></g>
<g><path style="opacity:0.999" fill="#fcfcfd" d="M 459.5,22.5 C 458.391,22.4431 457.391,22.1098 456.5,21.5C 455.105,19.6997 453.439,19.3664 451.5,20.5C 452.55,22.1017 451.883,22.935 449.5,23C 425.341,26.6926 401.341,31.026 377.5,36C 369.477,36.4015 361.477,37.0682 353.5,38C 349,41.1667 345.167,45 342,49.5C 337.884,62.2962 334.551,75.2962 332,88.5C 330.524,93.4551 328.024,97.7884 324.5,101.5C 320.304,100.153 316.471,98.1525 313,95.5C 312.832,75.6624 312.332,55.9957 311.5,36.5C 311.495,24.9903 317.162,18.4903 328.5,17C 369.846,16.136 411.179,16.4694 452.5,18C 455.547,18.5158 457.88,20.0158 459.5,22.5 Z"/></g>
<g><path style="opacity:1" fill="#f7f4f5" d="M 230.5,34.5 C 229.05,42.2306 225.384,48.7306 219.5,54C 217.167,54.6667 214.833,54.6667 212.5,54C 206.73,50.7231 201.397,46.8898 196.5,42.5C 191.752,28.59 196.418,23.2567 210.5,26.5C 212.493,24.5014 214.827,23.0014 217.5,22C 227.509,20.1743 231.842,24.3409 230.5,34.5 Z"/></g>
<g><path style="opacity:1" fill="#abacd3" d="M 327.5,26.5 C 329.167,26.5 330.833,26.5 332.5,26.5C 333.508,31.6673 331.675,33.334 327,31.5C 326.36,29.735 326.527,28.0683 327.5,26.5 Z"/></g>
<g><path style="opacity:1" fill="#a9aad2" d="M 336.5,26.5 C 338.199,26.3398 339.866,26.5065 341.5,27C 342.813,30.692 341.48,32.3587 337.5,32C 336.594,30.3005 336.261,28.4672 336.5,26.5 Z"/></g>
<g><path style="opacity:1" fill="#aeafd4" d="M 345.5,26.5 C 347.199,26.3398 348.866,26.5065 350.5,27C 351.813,30.692 350.48,32.3587 346.5,32C 344.365,30.4443 344.032,28.6109 345.5,26.5 Z"/></g>
<g><path style="opacity:1" fill="#f2897b" d="M 170.5,17.5 C 170.586,18.4959 170.252,19.3292 169.5,20C 172.145,20.5913 172.811,21.9247 171.5,24C 175.252,39.173 179.252,54.3397 183.5,69.5C 182.325,69.719 181.325,69.3857 180.5,68.5C 179.27,65.4766 178.103,62.4766 177,59.5C 177.019,61.1075 177.185,62.7741 177.5,64.5C 176.5,64.5 175.5,64.5 174.5,64.5C 170.901,52.099 167.901,39.4324 165.5,26.5C 165.36,22.4432 167.026,19.4432 170.5,17.5 Z"/></g>
<g><path style="opacity:1" fill="#f6f7fa" d="M 456.5,21.5 C 454.343,22.0533 454.51,23.0533 457,24.5C 458.629,28.2625 460.129,32.0959 461.5,36C 434.143,36.0928 406.81,36.7595 379.5,38C 373.931,40.5667 368.597,43.5667 363.5,47C 359.939,50.6299 357.272,54.7965 355.5,59.5C 354.833,60.5 354.167,61.5 353.5,62.5C 350.606,63.8823 348.106,65.8823 346,68.5C 342.119,73.6446 339.285,79.3113 337.5,85.5C 334.776,99.8885 337.776,112.888 346.5,124.5C 346.995,126.482 347.495,128.482 348,130.5C 354.446,136.626 360.946,142.626 367.5,148.5C 364.358,149.167 361.358,149.834 358.5,150.5C 356.167,150.5 353.833,150.5 351.5,150.5C 345.664,134.159 336.33,120.159 323.5,108.5C 313.281,99.0542 301.281,92.7209 287.5,89.5C 283.214,88.2568 278.881,87.2568 274.5,86.5C 284.811,76.512 297.144,70.512 311.5,68.5C 311.5,57.8333 311.5,47.1667 311.5,36.5C 312.332,55.9957 312.832,75.6624 313,95.5C 316.471,98.1525 320.304,100.153 324.5,101.5C 328.024,97.7884 330.524,93.4551 332,88.5C 334.551,75.2962 337.884,62.2962 342,49.5C 345.167,45 349,41.1667 353.5,38C 361.477,37.0682 369.477,36.4015 377.5,36C 401.341,31.026 425.341,26.6926 449.5,23C 451.883,22.935 452.55,22.1017 451.5,20.5C 453.439,19.3664 455.105,19.6997 456.5,21.5 Z"/></g>
<g><path style="opacity:1" fill="#e4e7f2" d="M 456.5,21.5 C 457.391,22.1098 458.391,22.4431 459.5,22.5C 462.538,25.2467 464.538,28.5801 465.5,32.5C 465.5,33.1667 465.5,33.8333 465.5,34.5C 464.849,35.0906 464.182,35.7573 463.5,36.5C 463.167,52.8333 462.833,69.1667 462.5,85.5C 462.501,102.181 463.167,118.514 464.5,134.5C 463.868,138.431 462.201,141.765 459.5,144.5C 459.631,143.624 459.298,142.957 458.5,142.5C 455.693,144.446 452.693,145.946 449.5,147C 437.498,147.46 425.498,147.96 413.5,148.5C 409.053,148.604 404.72,148.104 400.5,147C 404.006,144.22 408.006,142.72 412.5,142.5C 413.7,139.172 416.033,136.672 419.5,135C 431.749,121.427 435.082,105.927 429.5,88.5C 429.015,80.5517 426.681,73.2184 422.5,66.5C 418.374,59.7041 412.707,54.7041 405.5,51.5C 399.709,48.0392 393.376,46.5392 386.5,47C 385.533,51.4014 385.2,55.9014 385.5,60.5C 384.167,60.5 382.833,60.5 381.5,60.5C 381.737,59.209 381.404,58.209 380.5,57.5C 380.5,55.8333 380.5,54.1667 380.5,52.5C 371.609,53.0215 363.276,55.3548 355.5,59.5C 357.272,54.7965 359.939,50.6299 363.5,47C 368.597,43.5667 373.931,40.5667 379.5,38C 406.81,36.7595 434.143,36.0928 461.5,36C 460.129,32.0959 458.629,28.2625 457,24.5C 454.51,23.0533 454.343,22.0533 456.5,21.5 Z"/></g>
<g><path style="opacity:1" fill="#ea6c69" d="M 248.5,0.5 C 250.716,1.20261 252.549,2.53594 254,4.5C 256.993,16.1391 259.827,27.8057 262.5,39.5C 260.097,39.393 258.264,40.393 257,42.5C 256.667,46.1667 256.333,49.8333 256,53.5C 254.269,55.6166 252.102,57.1166 249.5,58C 235.428,61.7437 221.094,63.4103 206.5,63C 198.606,66.9097 190.272,69.743 181.5,71.5C 183.374,70.3582 185.207,69.0248 187,67.5C 185.819,60.296 186.653,53.296 189.5,46.5C 191.1,43.9035 193.433,42.5702 196.5,42.5C 201.397,46.8898 206.73,50.7231 212.5,54C 214.833,54.6667 217.167,54.6667 219.5,54C 225.384,48.7306 229.05,42.2306 230.5,34.5C 231.302,33.0484 231.802,31.3817 232,29.5C 232.483,30.448 232.649,31.448 232.5,32.5C 234.199,32.3398 235.866,32.5065 237.5,33C 240.228,35.3922 243.228,37.3922 246.5,39C 247.784,39.6838 248.951,39.5171 250,38.5C 250.667,30.1667 250.667,21.8333 250,13.5C 249.426,9.43592 247.26,6.76926 243.5,5.5C 243.5,4.16667 243.5,2.83333 243.5,1.5C 242.448,1.64945 241.448,1.48278 240.5,1C 243.146,0.502577 245.813,0.33591 248.5,0.5 Z"/></g>
<g><path style="opacity:1" fill="#f4aa9f" d="M 405.5,51.5 C 404.423,52.0184 403.256,52.3517 402,52.5C 396.696,51.5921 391.53,50.2588 386.5,48.5C 386.5,50.1667 386.5,51.8333 386.5,53.5C 386.5,56.5 386.5,59.5 386.5,62.5C 385.662,62.1583 385.328,61.4916 385.5,60.5C 385.2,55.9014 385.533,51.4014 386.5,47C 393.376,46.5392 399.709,48.0392 405.5,51.5 Z"/></g>
<g><path style="opacity:1" fill="#fafbfc" d="M 71.5,65.5 C 70.5489,66.9187 70.2155,68.5853 70.5,70.5C 66.875,69.9375 63.375,68.9375 60,67.5C 59.586,67.9574 59.086,68.2907 58.5,68.5C 56.8513,67.3523 55.3513,66.019 54,64.5C 53.586,64.9574 53.086,65.2907 52.5,65.5C 50.8208,64.218 48.9874,63.218 47,62.5C 37.5486,67.978 27.7153,72.478 17.5,76C 13.4524,80.1041 8.95235,83.6041 4,86.5C 3.25164,88.8401 3.75164,90.8401 5.5,92.5C 4.76109,92.631 4.09442,92.4643 3.5,92C 2.02294,90.1879 0.689603,88.3545 -0.5,86.5C -0.5,82.8333 -0.5,79.1667 -0.5,75.5C 2.6817,68.8945 8.01503,65.2279 15.5,64.5C 22.2188,51.7229 32.5521,47.5562 46.5,52C 50.78,53.9466 54.1133,56.9466 56.5,61C 59.8333,61.3333 63.1667,61.6667 66.5,62C 68.5844,62.6972 70.2511,63.8639 71.5,65.5 Z"/></g>
<g><path style="opacity:1" fill="#d1d8eb" d="M 465.5,34.5 C 465.5,48.8333 465.5,63.1667 465.5,77.5C 464.503,96.326 464.17,115.326 464.5,134.5C 463.167,118.514 462.501,102.181 462.5,85.5C 462.833,69.1667 463.167,52.8333 463.5,36.5C 464.182,35.7573 464.849,35.0906 465.5,34.5 Z"/></g>
<g><path style="opacity:1" fill="#c9cdf7" d="M 380.5,57.5 C 379.393,58.9923 377.893,59.9923 376,60.5C 371.531,62.0459 367.031,63.3792 362.5,64.5C 357.915,67.4136 353.915,71.0802 350.5,75.5C 348.604,76.4656 346.604,76.7989 344.5,76.5C 344.343,75.1266 344.51,73.7932 345,72.5C 347.669,69.0003 350.502,65.667 353.5,62.5C 354.167,61.5 354.833,60.5 355.5,59.5C 363.276,55.3548 371.609,53.0215 380.5,52.5C 380.5,54.1667 380.5,55.8333 380.5,57.5 Z"/></g>
<g><path style="opacity:1" fill="#c0c5d7" d="M 380.5,57.5 C 381.404,58.209 381.737,59.209 381.5,60.5C 382.833,60.5 384.167,60.5 385.5,60.5C 385.328,61.4916 385.662,62.1583 386.5,62.5C 401.495,64.8284 410.162,73.495 412.5,88.5C 416.634,89.4849 420.968,89.8182 425.5,89.5C 432.036,114.862 422.702,131.695 397.5,140C 389.956,142.15 382.623,141.983 375.5,139.5C 395.077,140.552 409.41,132.552 418.5,115.5C 420.02,113.11 421.02,110.443 421.5,107.5C 423.469,103.044 423.803,98.3768 422.5,93.5C 416.771,91.9367 411.438,92.6033 406.5,95.5C 397.672,83.164 386.672,80.664 373.5,88C 362.949,99.1908 362.949,110.357 373.5,121.5C 373.167,121.5 372.833,121.5 372.5,121.5C 354.695,112.922 349.862,99.5891 358,81.5C 362.78,75.365 368.947,71.6984 376.5,70.5C 377.822,70.67 378.989,70.3366 380,69.5C 380.499,65.5138 380.666,61.5138 380.5,57.5 Z"/></g>
<g><path style="opacity:1" fill="#e05c5a" d="M 262.5,39.5 C 264.795,45.1093 264.961,50.776 263,56.5C 261.442,58.3589 259.609,59.8589 257.5,61C 250.934,63.0468 244.267,64.7135 237.5,66C 236.733,67.4705 236.067,68.9705 235.5,70.5C 233.712,70.2148 232.045,70.5481 230.5,71.5C 228.466,74.3686 225.966,76.7019 223,78.5C 220.76,77.9638 218.927,76.7971 217.5,75C 215.866,74.5065 214.199,74.3398 212.5,74.5C 211.395,73.3995 210.062,72.7329 208.5,72.5C 201.839,74.532 195.006,75.8653 188,76.5C 184.927,76.6364 182.094,75.9698 179.5,74.5C 180.952,73.6981 182.618,73.1981 184.5,73C 183.263,72.7679 182.263,72.2679 181.5,71.5C 190.272,69.743 198.606,66.9097 206.5,63C 221.094,63.4103 235.428,61.7437 249.5,58C 252.102,57.1166 254.269,55.6166 256,53.5C 256.333,49.8333 256.667,46.1667 257,42.5C 258.264,40.393 260.097,39.393 262.5,39.5 Z"/></g>
<g><path style="opacity:1" fill="#6371c9" d="M 380.5,57.5 C 380.666,61.5138 380.499,65.5138 380,69.5C 378.989,70.3366 377.822,70.67 376.5,70.5C 378.148,68.5441 378.815,66.2108 378.5,63.5C 373.021,63.9736 367.687,65.1403 362.5,67C 358.269,71.0621 354.269,75.2288 350.5,79.5C 350.709,78.0783 351.209,76.745 352,75.5C 355.704,71.9643 359.204,68.2976 362.5,64.5C 367.031,63.3792 371.531,62.0459 376,60.5C 377.893,59.9923 379.393,58.9923 380.5,57.5 Z"/></g>
<g><path style="opacity:1" fill="#e88073" d="M 405.5,51.5 C 412.707,54.7041 418.374,59.7041 422.5,66.5C 421.732,67.2625 421.232,68.2625 421,69.5C 414.877,64.6884 408.044,61.355 400.5,59.5C 396.615,56.0081 391.948,54.0081 386.5,53.5C 386.5,51.8333 386.5,50.1667 386.5,48.5C 391.53,50.2588 396.696,51.5921 402,52.5C 403.256,52.3517 404.423,52.0184 405.5,51.5 Z"/></g>
<g><path style="opacity:1" fill="#f58f8d" d="M 151.5,64.5 C 151.119,65.9311 150.119,66.7645 148.5,67C 150.437,67.1216 151.77,67.955 152.5,69.5C 152.844,70.6828 152.178,71.5161 150.5,72C 139.395,74.8129 128.729,78.8129 118.5,84C 116.866,84.4935 115.199,84.6602 113.5,84.5C 113.737,83.209 113.404,82.209 112.5,81.5C 125.319,75.5945 138.319,69.9278 151.5,64.5 Z"/></g>
<g><path style="opacity:1" fill="#e66d6a" d="M 235.5,70.5 C 233.848,74.4742 232.182,78.4742 230.5,82.5C 227.507,85.5853 224.174,86.0853 220.5,84C 217.961,81.6303 215.628,79.1303 213.5,76.5C 213.167,75.8333 212.833,75.1667 212.5,74.5C 214.199,74.3398 215.866,74.5065 217.5,75C 218.927,76.7971 220.76,77.9638 223,78.5C 225.966,76.7019 228.466,74.3686 230.5,71.5C 232.045,70.5481 233.712,70.2148 235.5,70.5 Z"/></g>
<g><path style="opacity:1" fill="#eeafad" d="M 208.5,72.5 C 210.062,72.7329 211.395,73.3995 212.5,74.5C 212.833,75.1667 213.167,75.8333 213.5,76.5C 211.251,75.9202 209.585,74.5869 208.5,72.5 Z"/></g>
<g><path style="opacity:1" fill="#dc685c" d="M 400.5,59.5 C 408.044,61.355 414.877,64.6884 421,69.5C 421.232,68.2625 421.732,67.2625 422.5,66.5C 426.681,73.2184 429.015,80.5517 429.5,88.5C 427.901,88.2322 426.568,88.5655 425.5,89.5C 420.968,89.8182 416.634,89.4849 412.5,88.5C 417.527,88.4971 422.527,88.1637 427.5,87.5C 427.67,86.1779 427.337,85.0113 426.5,84C 419.882,78.5425 413.382,73.0425 407,67.5C 406.51,66.2068 406.343,64.8734 406.5,63.5C 403.122,64.1089 401.122,62.7756 400.5,59.5 Z"/></g>
<g><path style="opacity:1" fill="#cf4e41" d="M 386.5,53.5 C 391.948,54.0081 396.615,56.0081 400.5,59.5C 401.122,62.7756 403.122,64.1089 406.5,63.5C 406.343,64.8734 406.51,66.2068 407,67.5C 413.382,73.0425 419.882,78.5425 426.5,84C 427.337,85.0113 427.67,86.1779 427.5,87.5C 422.527,88.1637 417.527,88.4971 412.5,88.5C 410.162,73.495 401.495,64.8284 386.5,62.5C 386.5,59.5 386.5,56.5 386.5,53.5 Z"/></g>
<g><path style="opacity:1" fill="#dde3e6" d="M 71.5,65.5 C 75.851,68.1864 78.1844,72.1864 78.5,77.5C 77.1751,78.9526 76.3418,78.6192 76,76.5C 68.849,81.0024 62.349,80.5024 56.5,75C 54.5,74.3333 52.5,74.3333 50.5,75C 47.1869,76.9682 43.8536,78.9682 40.5,81C 32.8892,82.4097 25.2225,83.4097 17.5,84C 14.5505,86.6393 11.2171,88.4726 7.5,89.5C 7.36596,91.2915 7.69929,92.9582 8.5,94.5C 6.97306,94.573 5.97306,93.9063 5.5,92.5C 3.75164,90.8401 3.25164,88.8401 4,86.5C 8.95235,83.6041 13.4524,80.1041 17.5,76C 27.7153,72.478 37.5486,67.978 47,62.5C 48.9874,63.218 50.8208,64.218 52.5,65.5C 53.086,65.2907 53.586,64.9574 54,64.5C 55.3513,66.019 56.8513,67.3523 58.5,68.5C 59.086,68.2907 59.586,67.9574 60,67.5C 63.375,68.9375 66.875,69.9375 70.5,70.5C 70.2155,68.5853 70.5489,66.9187 71.5,65.5 Z"/></g>
<g><path style="opacity:1" fill="#f07b78" d="M 152.5,69.5 C 155.287,69.7796 157.453,71.113 159,73.5C 161.303,79.8945 162.47,86.5612 162.5,93.5C 157.407,92.1208 152.407,90.4541 147.5,88.5C 142.832,82.0778 137.832,81.9111 132.5,88C 121.214,88.0742 118.214,92.9076 123.5,102.5C 120.612,102.22 119.112,103.553 119,106.5C 117.063,111.213 117.23,115.88 119.5,120.5C 118.829,123.185 118.162,125.852 117.5,128.5C 115.302,128.88 113.635,128.213 112.5,126.5C 113.263,125.732 114.263,125.232 115.5,125C 114.044,124.577 113.544,123.744 114,122.5C 115.156,123.993 115.99,123.826 116.5,122C 112.013,113.365 108.013,104.532 104.5,95.5C 106.578,92.1332 107.911,88.4665 108.5,84.5C 109.901,83.4793 111.235,82.4793 112.5,81.5C 113.404,82.209 113.737,83.209 113.5,84.5C 115.199,84.6602 116.866,84.4935 118.5,84C 128.729,78.8129 139.395,74.8129 150.5,72C 152.178,71.5161 152.844,70.6828 152.5,69.5 Z"/></g>
<g><path style="opacity:1" fill="#c8cdd0" d="M 78.5,77.5 C 79.3366,82.6361 78.0033,86.9695 74.5,90.5C 73.4019,89.603 73.4019,88.7697 74.5,88C 73.5704,87.0093 72.4038,86.5093 71,86.5C 66.783,88.8553 62.283,90.522 57.5,91.5C 57.6646,88.4816 57.498,85.4816 57,82.5C 54.6667,79.8333 52.3333,79.8333 50,82.5C 47.1667,86 44.3333,89.5 41.5,93C 37.422,92.6472 33.422,91.6472 29.5,90C 23.1643,88.7793 17.1643,89.6126 11.5,92.5C 10.6143,93.325 10.281,94.325 10.5,95.5C 9.50838,95.6716 8.84171,95.3382 8.5,94.5C 7.69929,92.9582 7.36596,91.2915 7.5,89.5C 11.2171,88.4726 14.5505,86.6393 17.5,84C 25.2225,83.4097 32.8892,82.4097 40.5,81C 43.8536,78.9682 47.1869,76.9682 50.5,75C 52.5,74.3333 54.5,74.3333 56.5,75C 62.349,80.5024 68.849,81.0024 76,76.5C 76.3418,78.6192 77.1751,78.9526 78.5,77.5 Z"/></g>
<g><path style="opacity:1" fill="#959de2" d="M 353.5,62.5 C 350.502,65.667 347.669,69.0003 345,72.5C 344.51,73.7932 344.343,75.1266 344.5,76.5C 346.604,76.7989 348.604,76.4656 350.5,75.5C 353.915,71.0802 357.915,67.4136 362.5,64.5C 359.204,68.2976 355.704,71.9643 352,75.5C 351.209,76.745 350.709,78.0783 350.5,79.5C 348.697,81.4813 347.03,83.648 345.5,86C 342.739,86.7218 340.073,86.5552 337.5,85.5C 339.285,79.3113 342.119,73.6446 346,68.5C 348.106,65.8823 350.606,63.8823 353.5,62.5 Z"/></g>
<g><path style="opacity:1" fill="#f6f3f4" d="M 147.5,88.5 C 148.154,96.3962 145.821,103.229 140.5,109C 138.833,109.667 137.167,109.667 135.5,109C 131.313,107.075 127.313,104.908 123.5,102.5C 118.214,92.9076 121.214,88.0742 132.5,88C 137.832,81.9111 142.832,82.0778 147.5,88.5 Z"/></g>
<g><path style="opacity:1" fill="#babfc2" d="M 74.5,90.5 C 70.4551,95.5174 65.1218,97.8507 58.5,97.5C 55.4605,97.5831 52.6271,96.9164 50,95.5C 46.0249,97.0317 41.8582,97.6984 37.5,97.5C 31.7136,97.8773 26.2136,96.8773 21,94.5C 17.6164,96.3921 14.1164,96.7254 10.5,95.5C 10.281,94.325 10.6143,93.325 11.5,92.5C 17.1643,89.6126 23.1643,88.7793 29.5,90C 33.422,91.6472 37.422,92.6472 41.5,93C 44.3333,89.5 47.1667,86 50,82.5C 52.3333,79.8333 54.6667,79.8333 57,82.5C 57.498,85.4816 57.6646,88.4816 57.5,91.5C 62.283,90.522 66.783,88.8553 71,86.5C 72.4038,86.5093 73.5704,87.0093 74.5,88C 73.4019,88.7697 73.4019,89.603 74.5,90.5 Z"/></g>
<g><path style="opacity:1" fill="#f29b94" d="M 274.5,86.5 C 278.881,87.2568 283.214,88.2568 287.5,89.5C 285.599,89.2465 284.933,89.5798 285.5,90.5C 285.44,91.0431 285.107,91.3764 284.5,91.5C 283.205,90.9017 281.872,90.4017 280.5,90C 281.696,89.3457 281.696,88.8457 280.5,88.5C 270.213,89.31 259.88,89.81 249.5,90C 241.075,92.0912 232.741,94.2579 224.5,96.5C 239.733,86.7344 256.4,83.4011 274.5,86.5 Z"/></g>
<g><path style="opacity:1" fill="#ee8981" d="M 285.5,90.5 C 294.905,93.7032 303.239,98.7032 310.5,105.5C 309.667,105.833 308.833,106.167 308,106.5C 304.417,104.626 300.917,102.626 297.5,100.5C 287.33,93.6256 275.997,90.459 263.5,91C 261.476,95.4028 259.642,99.9028 258,104.5C 254.506,108.002 250.339,110.168 245.5,111C 233.363,117.493 220.696,122.827 207.5,127C 195.03,132.733 183.03,139.233 171.5,146.5C 184.649,125.017 202.316,108.35 224.5,96.5C 232.741,94.2579 241.075,92.0912 249.5,90C 259.88,89.81 270.213,89.31 280.5,88.5C 281.696,88.8457 281.696,89.3457 280.5,90C 281.872,90.4017 283.205,90.9017 284.5,91.5C 285.107,91.3764 285.44,91.0431 285.5,90.5 Z"/></g>
<g><path style="opacity:1" fill="#ea8179" d="M 297.5,100.5 C 294.756,99.795 292.089,99.795 289.5,100.5C 285.6,108.711 280.934,116.378 275.5,123.5C 272.421,122.696 269.421,121.696 266.5,120.5C 255.58,118.545 244.913,119.378 234.5,123C 226.043,126.476 218.376,131.142 211.5,137C 205.965,142.703 200.298,148.203 194.5,153.5C 189.705,153.594 185.038,155.094 180.5,158C 171.742,162.937 163.409,168.437 155.5,174.5C 159.642,164.389 164.975,155.056 171.5,146.5C 183.03,139.233 195.03,132.733 207.5,127C 220.696,122.827 233.363,117.493 245.5,111C 250.339,110.168 254.506,108.002 258,104.5C 259.642,99.9028 261.476,95.4028 263.5,91C 275.997,90.459 287.33,93.6256 297.5,100.5 Z"/></g>
<g><path style="opacity:1" fill="#e9ecf5" d="M 406.5,95.5 C 406.5,95.8333 406.5,96.1667 406.5,96.5C 403.238,115.1 392.238,123.433 373.5,121.5C 362.949,110.357 362.949,99.1908 373.5,88C 386.672,80.664 397.672,83.164 406.5,95.5 Z"/></g>
<g><path style="opacity:1" fill="#808bda" d="M 421.5,107.5 C 421.5,103.5 421.5,99.5 421.5,95.5C 416.527,96.1637 411.527,96.4971 406.5,96.5C 406.5,96.1667 406.5,95.8333 406.5,95.5C 411.438,92.6033 416.771,91.9367 422.5,93.5C 423.803,98.3768 423.469,103.044 421.5,107.5 Z"/></g>
<g><path style="opacity:1" fill="#5563c6" d="M 421.5,107.5 C 421.02,110.443 420.02,113.11 418.5,115.5C 416.234,115.859 414.401,115.192 413,113.5C 411.386,116.602 409.553,116.936 407.5,114.5C 405.34,119.159 402.007,122.659 397.5,125C 391.5,125.667 385.5,125.667 379.5,125C 376.826,124.33 374.493,123.163 372.5,121.5C 372.833,121.5 373.167,121.5 373.5,121.5C 392.238,123.433 403.238,115.1 406.5,96.5C 411.527,96.4971 416.527,96.1637 421.5,95.5C 421.5,99.5 421.5,103.5 421.5,107.5 Z"/></g>
<g><path style="opacity:1" fill="#e5746c" d="M 287.5,89.5 C 301.281,92.7209 313.281,99.0542 323.5,108.5C 322.881,111.977 322.881,115.644 323.5,119.5C 322.127,119.657 320.793,119.49 319.5,119C 316.158,113.503 311.491,109.67 305.5,107.5C 303.912,108.01 302.745,109.01 302,110.5C 297.988,117.868 293.488,124.868 288.5,131.5C 284.334,128.583 280.001,125.916 275.5,123.5C 280.934,116.378 285.6,108.711 289.5,100.5C 292.089,99.795 294.756,99.795 297.5,100.5C 300.917,102.626 304.417,104.626 308,106.5C 308.833,106.167 309.667,105.833 310.5,105.5C 303.239,98.7032 294.905,93.7032 285.5,90.5C 284.933,89.5798 285.599,89.2465 287.5,89.5 Z"/></g>
<g><path style="opacity:1" fill="#ea6d6a" d="M 151.5,64.5 C 155.803,63.7962 159.303,65.1295 162,68.5C 165.182,76.1924 168.349,83.8591 171.5,91.5C 169.328,92.4164 167.994,94.083 167.5,96.5C 169.52,101.095 168.52,104.761 164.5,107.5C 152.768,111.607 141.102,115.774 129.5,120C 126.081,121.586 123.081,123.752 120.5,126.5C 121.325,127.386 122.325,127.719 123.5,127.5C 121.735,128.461 119.735,128.795 117.5,128.5C 118.162,125.852 118.829,123.185 119.5,120.5C 117.23,115.88 117.063,111.213 119,106.5C 119.112,103.553 120.612,102.22 123.5,102.5C 127.313,104.908 131.313,107.075 135.5,109C 137.167,109.667 138.833,109.667 140.5,109C 145.821,103.229 148.154,96.3962 147.5,88.5C 152.407,90.4541 157.407,92.1208 162.5,93.5C 162.47,86.5612 161.303,79.8945 159,73.5C 157.453,71.113 155.287,69.7796 152.5,69.5C 151.77,67.955 150.437,67.1216 148.5,67C 150.119,66.7645 151.119,65.9311 151.5,64.5 Z"/></g>
<g><path style="opacity:1" fill="#f18a7e" d="M 112.5,81.5 C 111.235,82.4793 109.901,83.4793 108.5,84.5C 107.911,88.4665 106.578,92.1332 104.5,95.5C 108.013,104.532 112.013,113.365 116.5,122C 115.99,123.826 115.156,123.993 114,122.5C 113.544,123.744 114.044,124.577 115.5,125C 114.263,125.232 113.263,125.732 112.5,126.5C 110.864,125.251 109.697,123.584 109,121.5C 105.064,112.134 101.564,102.634 98.5,93C 98.4076,90.1861 99.4076,87.8527 101.5,86C 104.971,83.9281 108.638,82.4281 112.5,81.5 Z"/></g>
<g><path style="opacity:1" fill="#df5f5d" d="M 171.5,91.5 C 174.586,96.2636 175.086,101.264 173,106.5C 167.872,110.156 162.372,113.156 156.5,115.5C 155.179,119.784 154.012,124.117 153,128.5C 152.617,129.056 152.117,129.389 151.5,129.5C 149.097,129.552 146.764,129.219 144.5,128.5C 141.393,127.111 138.393,125.445 135.5,123.5C 131.677,125.414 127.677,126.747 123.5,127.5C 122.325,127.719 121.325,127.386 120.5,126.5C 123.081,123.752 126.081,121.586 129.5,120C 141.102,115.774 152.768,111.607 164.5,107.5C 168.52,104.761 169.52,101.095 167.5,96.5C 167.994,94.083 169.328,92.4164 171.5,91.5 Z"/></g>
<g><path style="opacity:1" fill="#de6960" d="M 323.5,108.5 C 336.33,120.159 345.664,134.159 351.5,150.5C 353.336,157.989 355.336,165.322 357.5,172.5C 357.508,175.545 357.841,178.545 358.5,181.5C 359.167,187.167 359.833,192.833 360.5,198.5C 354.264,198.563 350.097,201.563 348,207.5C 347.438,195.093 346.272,182.759 344.5,170.5C 341.609,154.724 335.942,140.058 327.5,126.5C 326.833,126.833 326.167,127.167 325.5,127.5C 324.167,126.167 322.833,124.833 321.5,123.5C 316.806,126.027 313.306,129.694 311,134.5C 308.821,139.521 306.654,144.521 304.5,149.5C 299.627,143.083 294.293,137.083 288.5,131.5C 293.488,124.868 297.988,117.868 302,110.5C 302.745,109.01 303.912,108.01 305.5,107.5C 311.491,109.67 316.158,113.503 319.5,119C 320.793,119.49 322.127,119.657 323.5,119.5C 322.881,115.644 322.881,111.977 323.5,108.5 Z"/></g>
<g><path style="opacity:1" fill="#eee8e9" d="M 266.5,120.5 C 255.881,128.451 246.215,137.451 237.5,147.5C 217.469,156.023 202.303,170.023 192,189.5C 191.184,190.823 190.017,191.489 188.5,191.5C 183.265,189.871 178.265,187.871 173.5,185.5C 179.989,174.528 186.989,163.861 194.5,153.5C 200.298,148.203 205.965,142.703 211.5,137C 218.376,131.142 226.043,126.476 234.5,123C 244.913,119.378 255.58,118.545 266.5,120.5 Z"/></g>
<g><path style="opacity:1" fill="#f4c26a" d="M 81.5,129.5 C 78.8333,128.833 76.1667,128.167 73.5,127.5C 73.4614,126.244 73.9614,125.244 75,124.5C 77.352,126.03 79.5187,127.697 81.5,129.5 Z"/></g>
<g><path style="opacity:1" fill="#e4952e" d="M 73.5,127.5 C 76.1667,128.167 78.8333,128.833 81.5,129.5C 96.3271,138.987 109.66,150.321 121.5,163.5C 104.407,159.912 87.7406,154.245 71.5,146.5C 70.6143,145.675 70.281,144.675 70.5,143.5C 71.3007,141.958 71.634,140.292 71.5,138.5C 71.4165,134.665 72.0832,130.998 73.5,127.5 Z"/></g>
<g><path style="opacity:1" fill="#f1bcbb" d="M 144.5,128.5 C 146.764,129.219 149.097,129.552 151.5,129.5C 150.726,130.147 149.726,130.48 148.5,130.5C 146.645,130.66 145.312,129.993 144.5,128.5 Z"/></g>
<g><path style="opacity:1" fill="#e2dfe4" d="M 266.5,120.5 C 269.421,121.696 272.421,122.696 275.5,123.5C 280.001,125.916 284.334,128.583 288.5,131.5C 294.293,137.083 299.627,143.083 304.5,149.5C 317.715,178.926 320.048,209.259 311.5,240.5C 310.738,244.785 309.405,248.785 307.5,252.5C 300.209,251.285 292.876,250.285 285.5,249.5C 285.5,248.167 285.5,246.833 285.5,245.5C 285.5,245.167 285.5,244.833 285.5,244.5C 290.182,233.07 292.182,221.07 291.5,208.5C 293.373,187.945 287.039,170.445 272.5,156C 262.097,147.983 250.43,145.149 237.5,147.5C 246.215,137.451 255.881,128.451 266.5,120.5 Z"/></g>
<g><path style="opacity:1" fill="#4957bd" d="M 376.5,70.5 C 368.947,71.6984 362.78,75.365 358,81.5C 349.862,99.5891 354.695,112.922 372.5,121.5C 374.493,123.163 376.826,124.33 379.5,125C 385.5,125.667 391.5,125.667 397.5,125C 402.007,122.659 405.34,119.159 407.5,114.5C 409.553,116.936 411.386,116.602 413,113.5C 414.401,115.192 416.234,115.859 418.5,115.5C 409.41,132.552 395.077,140.552 375.5,139.5C 364.013,137.924 354.346,132.924 346.5,124.5C 337.776,112.888 334.776,99.8885 337.5,85.5C 340.073,86.5552 342.739,86.7218 345.5,86C 347.03,83.648 348.697,81.4813 350.5,79.5C 354.269,75.2288 358.269,71.0621 362.5,67C 367.687,65.1403 373.021,63.9736 378.5,63.5C 378.815,66.2108 378.148,68.5441 376.5,70.5 Z"/></g>
<g><path style="opacity:1" fill="#efc874" d="M 71.5,138.5 C 71.634,140.292 71.3007,141.958 70.5,143.5C 68.2543,142.545 65.921,141.878 63.5,141.5C 62.9524,139.606 61.9524,137.94 60.5,136.5C 64.3033,135.865 67.97,136.532 71.5,138.5 Z"/></g>
<g><path style="opacity:1" fill="#d7dbe7" d="M 425.5,89.5 C 426.568,88.5655 427.901,88.2322 429.5,88.5C 435.082,105.927 431.749,121.427 419.5,135C 416.033,136.672 413.7,139.172 412.5,142.5C 408.006,142.72 404.006,144.22 400.5,147C 404.72,148.104 409.053,148.604 413.5,148.5C 425.498,147.96 437.498,147.46 449.5,147C 452.693,145.946 455.693,144.446 458.5,142.5C 459.298,142.957 459.631,143.624 459.5,144.5C 457.853,146.326 455.853,147.66 453.5,148.5C 421.89,150.221 390.224,150.887 358.5,150.5C 361.358,149.834 364.358,149.167 367.5,148.5C 360.946,142.626 354.446,136.626 348,130.5C 347.495,128.482 346.995,126.482 346.5,124.5C 354.346,132.924 364.013,137.924 375.5,139.5C 382.623,141.983 389.956,142.15 397.5,140C 422.702,131.695 432.036,114.862 425.5,89.5 Z"/></g>
<g><path style="opacity:1" fill="#4b423c" d="M 63.5,141.5 C 65.921,141.878 68.2543,142.545 70.5,143.5C 70.281,144.675 70.6143,145.675 71.5,146.5C 87.7406,154.245 104.407,159.912 121.5,163.5C 121.577,164.75 122.244,165.583 123.5,166C 120.947,167.656 118.281,167.823 115.5,166.5C 101.768,161.7 88.1017,156.7 74.5,151.5C 71.6375,149.555 68.6375,149.221 65.5,150.5C 59.6409,148.728 58.9743,145.728 63.5,141.5 Z"/></g>
<g><path style="opacity:1" fill="#ccd2d5" d="M 453.5,148.5 C 455.361,162.076 452.861,174.743 446,186.5C 445.292,187.381 444.458,188.047 443.5,188.5C 448.27,180.86 451.27,172.527 452.5,163.5C 452.167,162.5 451.833,161.5 451.5,160.5C 442.068,162.22 432.735,164.387 423.5,167C 416.187,170.967 408.853,174.967 401.5,179C 398.568,180.145 395.568,180.978 392.5,181.5C 391.794,174.342 390.294,167.342 388,160.5C 382.253,154.785 375.753,153.952 368.5,158C 363.951,162.313 360.284,167.146 357.5,172.5C 355.336,165.322 353.336,157.989 351.5,150.5C 353.833,150.5 356.167,150.5 358.5,150.5C 390.224,150.887 421.89,150.221 453.5,148.5 Z"/></g>
<g><path style="opacity:1" fill="#d88e2a" d="M 65.5,151.5 C 67.1537,153.56 68.1537,156.06 68.5,159C 75.4759,160.994 82.4759,162.827 89.5,164.5C 93.3597,165.804 97.3597,166.471 101.5,166.5C 105.405,168.876 109.739,169.876 114.5,169.5C 115.209,170.404 116.209,170.737 117.5,170.5C 109.344,171.657 101.01,171.823 92.5,171C 81.1614,169.796 69.8281,168.629 58.5,167.5C 56.1432,167.663 53.8098,167.497 51.5,167C 49.842,166.275 49.342,165.108 50,163.5C 55.3282,159.667 60.4949,155.667 65.5,151.5 Z"/></g>
<g><path style="opacity:1" fill="#f8cf66" d="M 74.5,151.5 C 77.0751,157.637 81.7418,161.137 88.5,162C 89.2524,162.671 89.5858,163.504 89.5,164.5C 82.4759,162.827 75.4759,160.994 68.5,159C 68.1537,156.06 67.1537,153.56 65.5,151.5C 65.5,151.167 65.5,150.833 65.5,150.5C 68.6375,149.221 71.6375,149.555 74.5,151.5 Z"/></g>
<g><path style="opacity:1" fill="#f0b945" d="M 74.5,151.5 C 88.1017,156.7 101.768,161.7 115.5,166.5C 116.167,167.167 116.833,167.833 117.5,168.5C 112.137,168.051 106.804,167.384 101.5,166.5C 97.3597,166.471 93.3597,165.804 89.5,164.5C 89.5858,163.504 89.2524,162.671 88.5,162C 81.7418,161.137 77.0751,157.637 74.5,151.5 Z"/></g>
<g><path style="opacity:1" fill="#e4776f" d="M 194.5,153.5 C 186.989,163.861 179.989,174.528 173.5,185.5C 169.098,183.984 164.765,182.317 160.5,180.5C 158.364,179.347 156.364,178.014 154.5,176.5C 154.328,175.508 154.662,174.842 155.5,174.5C 163.409,168.437 171.742,162.937 180.5,158C 185.038,155.094 189.705,153.594 194.5,153.5 Z"/></g>
<g><path style="opacity:1" fill="#e4736a" d="M 291.5,208.5 C 284.301,205.767 276.967,203.434 269.5,201.5C 265.743,181.886 254.076,172.053 234.5,172C 229.99,173.418 225.99,175.585 222.5,178.5C 216.5,182.5 211.5,187.5 207.5,193.5C 203.324,191.072 198.991,190.905 194.5,193C 195.056,193.383 195.389,193.883 195.5,194.5C 192.982,193.736 190.649,192.736 188.5,191.5C 190.017,191.489 191.184,190.823 192,189.5C 202.303,170.023 217.469,156.023 237.5,147.5C 250.43,145.149 262.097,147.983 272.5,156C 287.039,170.445 293.373,187.945 291.5,208.5 Z"/></g>
<g><path style="opacity:1" fill="#d9b675" d="M 101.5,166.5 C 106.804,167.384 112.137,168.051 117.5,168.5C 118.239,168.369 118.906,168.536 119.5,169C 117.866,169.494 116.199,169.66 114.5,169.5C 109.739,169.876 105.405,168.876 101.5,166.5 Z"/></g>
<g><path style="opacity:1" fill="#c1c6c9" d="M 443.5,188.5 C 441.5,192.5 438.5,195.5 434.5,197.5C 437.555,194.448 440.222,191.115 442.5,187.5C 440.673,185.5 439.006,183.333 437.5,181C 434.607,180.369 431.774,179.536 429,178.5C 421.452,181.69 414.285,185.523 407.5,190C 401.856,192.437 396.023,194.27 390,195.5C 389.055,195.095 388.388,194.428 388,193.5C 387.902,185.423 387.235,177.423 386,169.5C 382.451,164.023 378.285,163.357 373.5,167.5C 369.188,172.98 364.688,178.313 360,183.5C 359.722,182.584 359.222,181.918 358.5,181.5C 357.841,178.545 357.508,175.545 357.5,172.5C 360.284,167.146 363.951,162.313 368.5,158C 375.753,153.952 382.253,154.785 388,160.5C 390.294,167.342 391.794,174.342 392.5,181.5C 395.568,180.978 398.568,180.145 401.5,179C 408.853,174.967 416.187,170.967 423.5,167C 432.735,164.387 442.068,162.22 451.5,160.5C 451.833,161.5 452.167,162.5 452.5,163.5C 451.27,172.527 448.27,180.86 443.5,188.5 Z"/></g>
<g><path style="opacity:0.942" fill="#eabc79" d="M 58.5,167.5 C 69.8281,168.629 81.1614,169.796 92.5,171C 101.01,171.823 109.344,171.657 117.5,170.5C 118.5,170.833 119.167,171.5 119.5,172.5C 98.8349,173.131 78.5016,171.464 58.5,167.5 Z"/></g>
<g><path style="opacity:1" fill="#624f4a" d="M 121.5,163.5 C 126.018,165.261 130.351,167.261 134.5,169.5C 134.918,170.222 135.584,170.722 136.5,171C 134.443,171.305 132.443,171.305 130.5,171C 131.167,171.667 131.833,172.333 132.5,173C 136.875,174.257 140.875,176.091 144.5,178.5C 146.833,180.5 149.167,182.5 151.5,184.5C 151.5,185.167 151.167,185.5 150.5,185.5C 140.61,180.396 130.277,176.063 119.5,172.5C 119.167,171.5 118.5,170.833 117.5,170.5C 116.209,170.737 115.209,170.404 114.5,169.5C 116.199,169.66 117.866,169.494 119.5,169C 118.906,168.536 118.239,168.369 117.5,168.5C 116.833,167.833 116.167,167.167 115.5,166.5C 118.281,167.823 120.947,167.656 123.5,166C 122.244,165.583 121.577,164.75 121.5,163.5 Z"/></g>
<g><path style="opacity:1" fill="#e8e2e5" d="M 269.5,201.5 C 270.899,213.99 269.899,226.323 266.5,238.5C 261.055,252.378 252.055,263.378 239.5,271.5C 239.613,260.99 239.279,250.323 238.5,239.5C 238.5,239.167 238.5,238.833 238.5,238.5C 240.965,235.386 242.965,232.053 244.5,228.5C 248.1,225.412 252.1,222.579 256.5,220C 258.019,218.649 259.352,217.149 260.5,215.5C 255.977,208.455 251.977,201.122 248.5,193.5C 249.326,192.549 249.492,191.549 249,190.5C 247.5,189 246,187.5 244.5,186C 238.089,183.397 231.422,182.064 224.5,182C 223.177,181.184 222.511,180.017 222.5,178.5C 225.99,175.585 229.99,173.418 234.5,172C 254.076,172.053 265.743,181.886 269.5,201.5 Z"/></g>
<g><path style="opacity:1" fill="#d75d53" d="M 344.5,170.5 C 343.942,180.428 342.775,190.428 341,200.5C 335.167,211.656 327.834,221.656 319,230.5C 318.251,234.251 317.251,237.918 316,241.5C 314.644,240.62 313.144,240.286 311.5,240.5C 320.048,209.259 317.715,178.926 304.5,149.5C 306.654,144.521 308.821,139.521 311,134.5C 313.306,129.694 316.806,126.027 321.5,123.5C 322.833,124.833 324.167,126.167 325.5,127.5C 326.167,127.167 326.833,126.833 327.5,126.5C 335.942,140.058 341.609,154.724 344.5,170.5 Z"/></g>
<g><path style="opacity:1" fill="#826a64" d="M 134.5,169.5 C 141.156,171.826 147.823,174.16 154.5,176.5C 156.364,178.014 158.364,179.347 160.5,180.5C 158.36,180.597 156.193,180.931 154,181.5C 150.865,180.346 147.698,179.346 144.5,178.5C 140.875,176.091 136.875,174.257 132.5,173C 131.833,172.333 131.167,171.667 130.5,171C 132.443,171.305 134.443,171.305 136.5,171C 135.584,170.722 134.918,170.222 134.5,169.5 Z"/></g>
<g><path style="opacity:1" fill="#ede6e4" d="M 222.5,178.5 C 222.511,180.017 223.177,181.184 224.5,182C 231.422,182.064 238.089,183.397 244.5,186C 246,187.5 247.5,189 249,190.5C 249.492,191.549 249.326,192.549 248.5,193.5C 251.977,201.122 255.977,208.455 260.5,215.5C 259.352,217.149 258.019,218.649 256.5,220C 252.1,222.579 248.1,225.412 244.5,228.5C 245.474,222.528 245.641,216.528 245,210.5C 244.626,208.509 243.793,206.842 242.5,205.5C 238.903,199.19 233.903,197.523 227.5,200.5C 225.566,201.11 223.899,202.11 222.5,203.5C 222.167,203.5 221.833,203.5 221.5,203.5C 220.564,202.026 219.23,201.026 217.5,200.5C 214.129,198.154 210.796,195.821 207.5,193.5C 211.5,187.5 216.5,182.5 222.5,178.5 Z"/></g>
<g><path style="opacity:1" fill="#3f3422" d="M 144.5,178.5 C 147.698,179.346 150.865,180.346 154,181.5C 156.193,180.931 158.36,180.597 160.5,180.5C 164.765,182.317 169.098,183.984 173.5,185.5C 178.265,187.871 183.265,189.871 188.5,191.5C 190.649,192.736 192.982,193.736 195.5,194.5C 196.234,195.708 196.567,197.041 196.5,198.5C 195.395,199.6 194.062,200.267 192.5,200.5C 190.833,199.833 189.167,199.167 187.5,198.5C 182.249,196.305 176.916,194.305 171.5,192.5C 165.126,189.321 158.46,186.654 151.5,184.5C 149.167,182.5 146.833,180.5 144.5,178.5 Z"/></g>
<g><path style="opacity:1" fill="#e27169" d="M 151.5,184.5 C 158.46,186.654 165.126,189.321 171.5,192.5C 165.176,206.8 161.843,221.8 161.5,237.5C 159.694,238.024 158.028,238.691 156.5,239.5C 153.615,239.194 150.948,239.527 148.5,240.5C 144.929,241.642 141.262,242.309 137.5,242.5C 138.664,222.664 142.997,203.664 150.5,185.5C 151.167,185.5 151.5,185.167 151.5,184.5 Z"/></g>
<g><path style="opacity:1" fill="#67551a" d="M 168.5,188.5 C 173.607,187.849 178.274,189.349 182.5,193C 177.527,192.621 172.86,191.121 168.5,188.5 Z"/></g>
<g><path style="opacity:1" fill="#b4b9bb" d="M 434.5,197.5 C 412.583,212.374 389.25,215.041 364.5,205.5C 363.151,205.846 361.817,206.179 360.5,206.5C 360.5,203.833 360.5,201.167 360.5,198.5C 359.833,192.833 359.167,187.167 358.5,181.5C 359.222,181.918 359.722,182.584 360,183.5C 364.688,178.313 369.188,172.98 373.5,167.5C 378.285,163.357 382.451,164.023 386,169.5C 387.235,177.423 387.902,185.423 388,193.5C 388.388,194.428 389.055,195.095 390,195.5C 396.023,194.27 401.856,192.437 407.5,190C 414.285,185.523 421.452,181.69 429,178.5C 431.774,179.536 434.607,180.369 437.5,181C 439.006,183.333 440.673,185.5 442.5,187.5C 440.222,191.115 437.555,194.448 434.5,197.5 Z"/></g>
<g><path style="opacity:1" fill="#f5d63f" d="M 207.5,193.5 C 210.796,195.821 214.129,198.154 217.5,200.5C 218.218,202.137 218.384,203.803 218,205.5C 215.828,206.585 213.828,207.919 212,209.5C 211.667,207.167 211.333,204.833 211,202.5C 209.556,204.155 207.722,204.822 205.5,204.5C 205.5,203.167 205.5,201.833 205.5,200.5C 204.127,200.657 202.793,200.49 201.5,200C 202.535,198.493 202.368,196.993 201,195.5C 200.648,197.247 200.148,198.914 199.5,200.5C 197.632,201.674 196.632,201.007 196.5,198.5C 196.567,197.041 196.234,195.708 195.5,194.5C 195.389,193.883 195.056,193.383 194.5,193C 198.991,190.905 203.324,191.072 207.5,193.5 Z"/></g>
<g><path style="opacity:1" fill="#eae3e3" d="M 171.5,192.5 C 176.916,194.305 182.249,196.305 187.5,198.5C 182.097,209.742 179.764,221.409 180.5,233.5C 174.39,235.323 168.057,236.657 161.5,237.5C 161.843,221.8 165.176,206.8 171.5,192.5 Z"/></g>
<g><path style="opacity:1" fill="#d2574e" d="M 344.5,170.5 C 346.272,182.759 347.438,195.093 348,207.5C 350.097,201.563 354.264,198.563 360.5,198.5C 360.5,201.167 360.5,203.833 360.5,206.5C 360.5,209.167 360.5,211.833 360.5,214.5C 360.779,219.595 360.445,224.595 359.5,229.5C 357.192,228.286 354.859,228.286 352.5,229.5C 347.984,234.53 344.484,240.196 342,246.5C 342.584,242.895 342.917,239.228 343,235.5C 340.629,246.316 337.629,256.983 334,267.5C 328.537,277.094 323.537,287.094 319,297.5C 310.004,311.505 299.837,324.672 288.5,337C 285.39,337.609 283.39,339.443 282.5,342.5C 275.644,345.76 268.977,349.26 262.5,353C 257.82,355.116 252.987,356.616 248,357.5C 247.529,355.754 246.862,354.087 246,352.5C 245.787,344.078 244.954,335.745 243.5,327.5C 244.492,327.672 245.158,327.338 245.5,326.5C 258.621,320.511 270.121,312.178 280,301.5C 292.785,287.27 301.952,270.937 307.5,252.5C 309.405,248.785 310.738,244.785 311.5,240.5C 313.144,240.286 314.644,240.62 316,241.5C 317.251,237.918 318.251,234.251 319,230.5C 327.834,221.656 335.167,211.656 341,200.5C 342.775,190.428 343.942,180.428 344.5,170.5 Z"/></g>
<g><path style="opacity:1" fill="#e37169" d="M 187.5,198.5 C 189.167,199.167 190.833,199.833 192.5,200.5C 194.315,203.407 196.981,204.741 200.5,204.5C 200.5,204.833 200.5,205.167 200.5,205.5C 196.482,213.243 194.482,221.576 194.5,230.5C 190.079,232.102 185.412,233.102 180.5,233.5C 179.764,221.409 182.097,209.742 187.5,198.5 Z"/></g>
<g><path style="opacity:1" fill="#be8b37" d="M 196.5,198.5 C 196.632,201.007 197.632,201.674 199.5,200.5C 200.234,201.708 200.567,203.041 200.5,204.5C 196.981,204.741 194.315,203.407 192.5,200.5C 194.062,200.267 195.395,199.6 196.5,198.5 Z"/></g>
<g><path style="opacity:1" fill="#f2985d" d="M 242.5,205.5 C 242.265,206.097 241.765,206.43 241,206.5C 236.227,204.798 231.394,203.298 226.5,202C 227.056,201.617 227.389,201.117 227.5,200.5C 233.903,197.523 238.903,199.19 242.5,205.5 Z"/></g>
<g><path style="opacity:1" fill="#c28724" d="M 210.5,210.5 C 206.713,209.706 203.38,208.039 200.5,205.5C 200.5,205.167 200.5,204.833 200.5,204.5C 202.124,204.64 203.29,203.973 204,202.5C 204.471,204.246 205.138,205.913 206,207.5C 208.026,207.915 209.526,208.915 210.5,210.5 Z"/></g>
<g><path style="opacity:1" fill="#eab427" d="M 217.5,200.5 C 219.23,201.026 220.564,202.026 221.5,203.5C 221.649,204.552 221.483,205.552 221,206.5C 218.931,208.085 216.764,209.419 214.5,210.5C 213.167,210.5 211.833,210.5 210.5,210.5C 209.526,208.915 208.026,207.915 206,207.5C 205.138,205.913 204.471,204.246 204,202.5C 203.29,203.973 202.124,204.64 200.5,204.5C 200.567,203.041 200.234,201.708 199.5,200.5C 200.148,198.914 200.648,197.247 201,195.5C 202.368,196.993 202.535,198.493 201.5,200C 202.793,200.49 204.127,200.657 205.5,200.5C 205.5,201.833 205.5,203.167 205.5,204.5C 207.722,204.822 209.556,204.155 211,202.5C 211.333,204.833 211.667,207.167 212,209.5C 213.828,207.919 215.828,206.585 218,205.5C 218.384,203.803 218.218,202.137 217.5,200.5 Z"/></g>
<g><path style="opacity:1" fill="#e8dede" d="M 200.5,205.5 C 203.38,208.039 206.713,209.706 210.5,210.5C 211.833,210.5 213.167,210.5 214.5,210.5C 216.833,211.167 219.167,211.833 221.5,212.5C 216.891,211.342 214.224,213.009 213.5,217.5C 212.775,222.059 210.108,224.226 205.5,224C 203.561,225.432 202.228,227.265 201.5,229.5C 199.236,230.219 196.903,230.552 194.5,230.5C 194.482,221.576 196.482,213.243 200.5,205.5 Z"/></g>
<g><path style="opacity:1" fill="#e8735c" d="M 227.5,200.5 C 227.389,201.117 227.056,201.617 226.5,202C 231.394,203.298 236.227,204.798 241,206.5C 241.765,206.43 242.265,206.097 242.5,205.5C 243.793,206.842 244.626,208.509 245,210.5C 245.641,216.528 245.474,222.528 244.5,228.5C 242.965,232.053 240.965,235.386 238.5,238.5C 236.502,234.874 235.502,230.874 235.5,226.5C 235.421,225.07 235.754,223.736 236.5,222.5C 236.043,221.702 235.376,221.369 234.5,221.5C 233.833,220.833 233.167,220.167 232.5,219.5C 231.27,217.703 230.604,215.703 230.5,213.5C 230.672,212.508 230.338,211.842 229.5,211.5C 228.631,207.626 226.297,204.959 222.5,203.5C 223.899,202.11 225.566,201.11 227.5,200.5 Z"/></g>
<g><path style="opacity:1" fill="#dcddde" d="M 434.5,197.5 C 413.175,213.866 390.008,216.866 365,206.5C 363.989,207.337 362.822,207.67 361.5,207.5C 361.802,210.059 361.468,212.393 360.5,214.5C 360.5,211.833 360.5,209.167 360.5,206.5C 361.817,206.179 363.151,205.846 364.5,205.5C 389.25,215.041 412.583,212.374 434.5,197.5 Z"/></g>
<g><path style="opacity:1" fill="#f18d1c" d="M 221.5,203.5 C 221.833,203.5 222.167,203.5 222.5,203.5C 226.297,204.959 228.631,207.626 229.5,211.5C 227.393,212.468 225.059,212.802 222.5,212.5C 222.167,212.5 221.833,212.5 221.5,212.5C 219.167,211.833 216.833,211.167 214.5,210.5C 216.764,209.419 218.931,208.085 221,206.5C 221.483,205.552 221.649,204.552 221.5,203.5 Z"/></g>
<g><path style="opacity:1" fill="#dbac9a" d="M 229.5,211.5 C 230.338,211.842 230.672,212.508 230.5,213.5C 227.615,213.806 224.948,213.473 222.5,212.5C 225.059,212.802 227.393,212.468 229.5,211.5 Z"/></g>
<g><path style="opacity:1" fill="#bd604e" d="M 221.5,212.5 C 221.833,212.5 222.167,212.5 222.5,212.5C 224.948,213.473 227.615,213.806 230.5,213.5C 230.604,215.703 231.27,217.703 232.5,219.5C 228.421,218.363 224.421,217.029 220.5,215.5C 220.167,215.5 219.833,215.5 219.5,215.5C 219.158,214.662 218.492,214.328 217.5,214.5C 216.167,215.5 214.833,216.5 213.5,217.5C 214.224,213.009 216.891,211.342 221.5,212.5 Z"/></g>
<g><path style="opacity:1" fill="#c88f30" d="M 217.5,214.5 C 218.492,214.328 219.158,214.662 219.5,215.5C 220.562,226.59 217.896,236.59 211.5,245.5C 210.292,246.234 208.959,246.567 207.5,246.5C 207.5,244.167 207.5,241.833 207.5,239.5C 208.981,238.579 210.314,237.412 211.5,236C 212.218,232.539 212.718,229.039 213,225.5C 213.333,227.5 213.667,229.5 214,231.5C 214.838,225.675 216.004,220.008 217.5,214.5 Z"/></g>
<g><path style="opacity:1" fill="#e4ae26" d="M 217.5,214.5 C 216.004,220.008 214.838,225.675 214,231.5C 213.667,229.5 213.333,227.5 213,225.5C 212.718,229.039 212.218,232.539 211.5,236C 210.314,237.412 208.981,238.579 207.5,239.5C 207.167,239.5 206.833,239.5 206.5,239.5C 208.577,234.649 208.91,229.649 207.5,224.5C 206.832,226.969 206.165,229.302 205.5,231.5C 204.713,229.896 203.38,229.229 201.5,229.5C 202.228,227.265 203.561,225.432 205.5,224C 210.108,224.226 212.775,222.059 213.5,217.5C 214.833,216.5 216.167,215.5 217.5,214.5 Z"/></g>
<g><path style="opacity:1" fill="#d28114" d="M 220.5,215.5 C 224.421,217.029 228.421,218.363 232.5,219.5C 233.167,220.167 233.833,220.833 234.5,221.5C 232.09,227.99 228.423,233.656 223.5,238.5C 223.167,239.5 222.5,240.167 221.5,240.5C 221.631,239.624 221.298,238.957 220.5,238.5C 219.391,239.59 218.391,239.59 217.5,238.5C 220.866,231.095 221.866,223.428 220.5,215.5 Z"/></g>
<g><path style="opacity:1" fill="#b77e19" d="M 206.5,239.5 C 205.504,239.414 204.671,239.748 204,240.5C 202.629,238.959 201.129,237.625 199.5,236.5C 200.952,235.698 202.618,235.198 204.5,235C 205.337,233.989 205.67,232.822 205.5,231.5C 206.165,229.302 206.832,226.969 207.5,224.5C 208.91,229.649 208.577,234.649 206.5,239.5 Z"/></g>
<g><path style="opacity:1" fill="#e2b622" d="M 219.5,215.5 C 219.833,215.5 220.167,215.5 220.5,215.5C 221.866,223.428 220.866,231.095 217.5,238.5C 218.391,239.59 219.391,239.59 220.5,238.5C 221.298,238.957 221.631,239.624 221.5,240.5C 219.77,241.026 218.436,242.026 217.5,243.5C 215.973,243.427 214.973,244.094 214.5,245.5C 213.202,246.116 212.202,246.116 211.5,245.5C 217.896,236.59 220.562,226.59 219.5,215.5 Z"/></g>
<g><path style="opacity:1" fill="#ad5344" d="M 235.5,226.5 C 235.502,230.874 236.502,234.874 238.5,238.5C 238.5,238.833 238.5,239.167 238.5,239.5C 234.801,243.267 230.301,245.6 225,246.5C 222.317,245.907 219.817,244.907 217.5,243.5C 218.436,242.026 219.77,241.026 221.5,240.5C 222.5,240.167 223.167,239.5 223.5,238.5C 224.922,238.291 226.255,237.791 227.5,237C 230.066,233.342 232.732,229.842 235.5,226.5 Z"/></g>
<g><path style="opacity:1" fill="#dd675f" d="M 269.5,201.5 C 276.967,203.434 284.301,205.767 291.5,208.5C 292.182,221.07 290.182,233.07 285.5,244.5C 285.119,243.069 284.119,242.236 282.5,242C 277.084,241.018 271.751,239.851 266.5,238.5C 269.899,226.323 270.899,213.99 269.5,201.5 Z"/></g>
<g><path style="opacity:1" fill="#3e3324" d="M 201.5,229.5 C 203.38,229.229 204.713,229.896 205.5,231.5C 205.67,232.822 205.337,233.989 204.5,235C 202.618,235.198 200.952,235.698 199.5,236.5C 197.833,236.5 196.167,236.5 194.5,236.5C 194.5,235.5 194.5,234.5 194.5,233.5C 187.913,233.861 181.58,235.361 175.5,238C 178.817,238.498 182.15,238.665 185.5,238.5C 183.343,239.407 181.01,240.073 178.5,240.5C 172.45,241.71 166.45,243.043 160.5,244.5C 156.193,245.327 151.86,245.993 147.5,246.5C 146.127,246.657 144.793,246.49 143.5,246C 145.175,245.015 146.842,244.181 148.5,243.5C 153.31,242.905 157.976,241.738 162.5,240C 160.527,239.505 158.527,239.338 156.5,239.5C 158.028,238.691 159.694,238.024 161.5,237.5C 168.057,236.657 174.39,235.323 180.5,233.5C 185.412,233.102 190.079,232.102 194.5,230.5C 196.903,230.552 199.236,230.219 201.5,229.5 Z"/></g>
<g><path style="opacity:1" fill="#a8460e" d="M 234.5,221.5 C 235.376,221.369 236.043,221.702 236.5,222.5C 235.754,223.736 235.421,225.07 235.5,226.5C 232.732,229.842 230.066,233.342 227.5,237C 226.255,237.791 224.922,238.291 223.5,238.5C 228.423,233.656 232.09,227.99 234.5,221.5 Z"/></g>
<g><path style="opacity:1" fill="#544723" d="M 194.5,236.5 C 194.5,236.833 194.5,237.167 194.5,237.5C 191.482,237.704 188.482,238.037 185.5,238.5C 182.15,238.665 178.817,238.498 175.5,238C 181.58,235.361 187.913,233.861 194.5,233.5C 194.5,234.5 194.5,235.5 194.5,236.5 Z"/></g>
<g><path style="opacity:1" fill="#e0d8dd" d="M 194.5,236.5 C 196.167,236.5 197.833,236.5 199.5,236.5C 201.129,237.625 202.629,238.959 204,240.5C 204.671,239.748 205.504,239.414 206.5,239.5C 206.833,239.5 207.167,239.5 207.5,239.5C 207.5,241.833 207.5,244.167 207.5,246.5C 208.959,246.567 210.292,246.234 211.5,245.5C 212.202,246.116 213.202,246.116 214.5,245.5C 214.334,252.508 214.5,259.508 215,266.5C 216.174,268.671 217.34,270.838 218.5,273C 218.164,274.03 217.497,274.53 216.5,274.5C 215.833,274.5 215.167,274.5 214.5,274.5C 200.835,266.182 194.168,253.849 194.5,237.5C 194.5,237.167 194.5,236.833 194.5,236.5 Z"/></g>
<g><path style="opacity:1" fill="#7a83f0" d="M 386.5,231.5 C 389.385,231.194 392.052,231.527 394.5,232.5C 393.282,233.161 391.949,233.828 390.5,234.5C 390.709,235.086 391.043,235.586 391.5,236C 407.568,238.791 423.735,240.957 440,242.5C 441.167,242.167 442.333,241.833 443.5,241.5C 440.633,240.226 437.633,239.393 434.5,239C 437.146,238.503 439.813,238.336 442.5,238.5C 446.044,238.132 449.044,239.132 451.5,241.5C 450.504,241.414 449.671,241.748 449,242.5C 449.536,251.025 447.536,259.025 443,266.5C 440.503,268.478 437.669,268.978 434.5,268C 433.619,267.292 432.953,266.458 432.5,265.5C 434.048,265.179 434.715,264.179 434.5,262.5C 424.654,261.466 414.987,260.133 405.5,258.5C 406.873,258.657 408.207,258.49 409.5,258C 404.607,256.457 399.94,254.624 395.5,252.5C 410.808,254.631 426.142,256.631 441.5,258.5C 441.5,257.5 441.5,256.5 441.5,255.5C 425.172,253.584 408.838,251.584 392.5,249.5C 390.667,249.585 389.334,250.252 388.5,251.5C 385.229,250.713 381.896,250.546 378.5,251C 380.167,246.667 383.167,243.667 387.5,242C 385.221,241.594 383.887,240.261 383.5,238C 384.906,236.022 385.906,233.855 386.5,231.5 Z"/></g>
<g><path style="opacity:1" fill="#929af7" d="M 394.5,232.5 C 410.717,233.86 426.717,235.86 442.5,238.5C 439.813,238.336 437.146,238.503 434.5,239C 437.633,239.393 440.633,240.226 443.5,241.5C 442.333,241.833 441.167,242.167 440,242.5C 423.735,240.957 407.568,238.791 391.5,236C 391.043,235.586 390.709,235.086 390.5,234.5C 391.949,233.828 393.282,233.161 394.5,232.5 Z"/></g>
<g><path style="opacity:1" fill="#e26f67" d="M 194.5,237.5 C 194.168,253.849 200.835,266.182 214.5,274.5C 214.685,280.585 211.852,285.252 206,288.5C 201.38,286.69 197.046,284.357 193,281.5C 192.283,282.044 191.783,282.711 191.5,283.5C 191.167,283.5 190.833,283.5 190.5,283.5C 182.619,270.317 178.619,255.983 178.5,240.5C 181.01,240.073 183.343,239.407 185.5,238.5C 188.482,238.037 191.482,237.704 194.5,237.5 Z"/></g>
<g><path style="opacity:1" fill="#e29021" d="M 127.5,242.5 C 129.099,242.232 130.432,242.566 131.5,243.5C 130.77,245.045 129.437,245.878 127.5,246C 112.588,249.416 97.5883,252.249 82.5,254.5C 82.5,254.167 82.5,253.833 82.5,253.5C 82.7847,250.171 82.1181,247.171 80.5,244.5C 80.2322,242.901 80.5655,241.568 81.5,240.5C 87.5039,240.3 93.5039,239.966 99.5,239.5C 108.838,240.501 118.172,241.501 127.5,242.5 Z"/></g>
<g><path style="opacity:1" fill="#f7c772" d="M 127.5,242.5 C 118.172,241.501 108.838,240.501 99.5,239.5C 93.5039,239.966 87.5039,240.3 81.5,240.5C 96.973,237.49 112.306,238.156 127.5,242.5 Z"/></g>
<g><path style="opacity:1" fill="#e2dcdc" d="M 178.5,240.5 C 178.619,255.983 182.619,270.317 190.5,283.5C 186.859,286.968 183.026,290.302 179,293.5C 178.729,298.219 179.229,302.885 180.5,307.5C 180.457,308.416 180.124,309.083 179.5,309.5C 171.49,299.173 166.157,287.506 163.5,274.5C 161.194,264.675 160.194,254.675 160.5,244.5C 166.45,243.043 172.45,241.71 178.5,240.5 Z"/></g>
<g><path style="opacity:1" fill="#91726f" d="M 148.5,240.5 C 150.948,239.527 153.615,239.194 156.5,239.5C 158.527,239.338 160.527,239.505 162.5,240C 157.976,241.738 153.31,242.905 148.5,243.5C 147.448,243.649 146.448,243.483 145.5,243C 147.5,242.333 149.5,241.667 151.5,241C 150.552,240.517 149.552,240.351 148.5,240.5 Z"/></g>
<g><path style="opacity:1" fill="#e8effd" d="M 389.5,241.5 C 397.798,242.746 406.131,243.746 414.5,244.5C 414.5,245.5 414.5,246.5 414.5,247.5C 406.844,246.668 399.177,245.834 391.5,245C 390.027,244.29 389.36,243.124 389.5,241.5 Z"/></g>
<g><path style="opacity:1" fill="#f8ce70" d="M 80.5,244.5 C 82.1181,247.171 82.7847,250.171 82.5,253.5C 78.2445,252.428 74.5778,250.261 71.5,247C 72.7375,246.768 73.7375,246.268 74.5,245.5C 76.4352,244.85 78.4352,244.517 80.5,244.5 Z"/></g>
<g><path style="opacity:1" fill="#df6b63" d="M 160.5,244.5 C 160.194,254.675 161.194,264.675 163.5,274.5C 160.263,282.361 157.096,290.361 154,298.5C 150.534,299.941 147.034,300.941 143.5,301.5C 138.37,285.024 136.036,268.024 136.5,250.5C 140.261,249.454 143.927,248.121 147.5,246.5C 151.86,245.993 156.193,245.327 160.5,244.5 Z"/></g>
<g><path style="opacity:1" fill="#514641" d="M 148.5,240.5 C 149.552,240.351 150.552,240.517 151.5,241C 149.5,241.667 147.5,242.333 145.5,243C 146.448,243.483 147.448,243.649 148.5,243.5C 146.842,244.181 145.175,245.015 143.5,246C 144.793,246.49 146.127,246.657 147.5,246.5C 143.927,248.121 140.261,249.454 136.5,250.5C 135.391,250.557 134.391,250.89 133.5,251.5C 133.719,250.325 133.386,249.325 132.5,248.5C 116.324,251.932 100.324,255.598 84.5,259.5C 83.5,259.833 82.8333,260.5 82.5,261.5C 81.391,261.557 80.391,261.89 79.5,262.5C 76.6787,262.684 75.0121,261.351 74.5,258.5C 75.0351,256.739 76.0351,255.406 77.5,254.5C 78.9989,255.494 80.6656,255.494 82.5,254.5C 97.5883,252.249 112.588,249.416 127.5,246C 129.437,245.878 130.77,245.045 131.5,243.5C 133.435,242.85 135.435,242.517 137.5,242.5C 141.262,242.309 144.929,241.642 148.5,240.5 Z"/></g>
<g><path style="opacity:1" fill="#dcd6db" d="M 285.5,245.5 C 285.5,246.833 285.5,248.167 285.5,249.5C 292.876,250.285 300.209,251.285 307.5,252.5C 301.952,270.937 292.785,287.27 280,301.5C 270.121,312.178 258.621,320.511 245.5,326.5C 244.503,326.53 243.836,326.03 243.5,325C 241.388,315.852 240.721,306.685 241.5,297.5C 262.711,285.768 277.378,268.434 285.5,245.5 Z"/></g>
<g><path style="opacity:1" fill="#e6edfd" d="M 395.5,252.5 C 392.941,252.802 390.607,252.468 388.5,251.5C 389.334,250.252 390.667,249.585 392.5,249.5C 408.838,251.584 425.172,253.584 441.5,255.5C 441.5,256.5 441.5,257.5 441.5,258.5C 426.142,256.631 410.808,254.631 395.5,252.5 Z"/></g>
<g><path style="opacity:1" fill="#ccb68e" d="M 74.5,245.5 C 73.7375,246.268 72.7375,246.768 71.5,247C 74.5778,250.261 78.2445,252.428 82.5,253.5C 82.5,253.833 82.5,254.167 82.5,254.5C 80.6656,255.494 78.9989,255.494 77.5,254.5C 76.1856,252.374 74.0189,250.374 71,248.5C 70.5172,247.552 70.3505,246.552 70.5,245.5C 71.8333,245.5 73.1667,245.5 74.5,245.5 Z"/></g>
<g><path style="opacity:1" fill="#d75d54" d="M 266.5,238.5 C 271.751,239.851 277.084,241.018 282.5,242C 284.119,242.236 285.119,243.069 285.5,244.5C 285.5,244.833 285.5,245.167 285.5,245.5C 277.378,268.434 262.711,285.768 241.5,297.5C 240.391,297.557 239.391,297.89 238.5,298.5C 238.5,289.833 238.5,281.167 238.5,272.5C 239.167,272.5 239.5,272.167 239.5,271.5C 252.055,263.378 261.055,252.378 266.5,238.5 Z"/></g>
<g><path style="opacity:1" fill="#edb242" d="M 133.5,251.5 C 133.027,252.906 132.027,253.573 130.5,253.5C 127.669,254.079 125.336,255.412 123.5,257.5C 123.158,258.338 122.492,258.672 121.5,258.5C 118.669,259.079 116.336,260.412 114.5,262.5C 111.515,263.326 108.849,264.659 106.5,266.5C 102.216,267.261 98.2157,268.595 94.5,270.5C 92.5,270.5 90.5,270.5 88.5,270.5C 87.4491,266.731 86.1157,263.065 84.5,259.5C 100.324,255.598 116.324,251.932 132.5,248.5C 133.386,249.325 133.719,250.325 133.5,251.5 Z"/></g>
<g><path style="opacity:0.812" fill="#d2be9b" d="M 130.5,253.5 C 128.664,255.588 126.331,256.921 123.5,257.5C 125.336,255.412 127.669,254.079 130.5,253.5 Z"/></g>
<g><path style="opacity:1" fill="#7676ee" d="M 386.5,231.5 C 385.906,233.855 384.906,236.022 383.5,238C 383.887,240.261 385.221,241.594 387.5,242C 383.167,243.667 380.167,246.667 378.5,251C 381.896,250.546 385.229,250.713 388.5,251.5C 390.607,252.468 392.941,252.802 395.5,252.5C 399.94,254.624 404.607,256.457 409.5,258C 408.207,258.49 406.873,258.657 405.5,258.5C 399.753,258.406 394.086,257.74 388.5,256.5C 387.269,257.651 387.269,258.817 388.5,260C 393.496,260.611 398.496,261.111 403.5,261.5C 405.203,264.192 407.536,266.192 410.5,267.5C 403.255,266.253 396.255,264.253 389.5,261.5C 386.195,261.745 383.862,263.412 382.5,266.5C 379.215,267.324 375.882,267.824 372.5,268C 373.381,268.708 374.047,269.542 374.5,270.5C 371.342,269.615 369.675,267.448 369.5,264C 371.093,254.519 372.593,245.019 374,235.5C 374.833,233.333 376.333,231.833 378.5,231C 381.367,230.199 384.034,230.366 386.5,231.5 Z"/></g>
<g><path style="opacity:1" fill="#e5ebfd" d="M 405.5,258.5 C 414.987,260.133 424.654,261.466 434.5,262.5C 434.715,264.179 434.048,265.179 432.5,265.5C 422.794,264.322 413.128,262.988 403.5,261.5C 398.496,261.111 393.496,260.611 388.5,260C 387.269,258.817 387.269,257.651 388.5,256.5C 394.086,257.74 399.753,258.406 405.5,258.5 Z"/></g>
<g><path style="opacity:1" fill="#aea8ab" d="M 238.5,239.5 C 239.279,250.323 239.613,260.99 239.5,271.5C 239.5,272.167 239.167,272.5 238.5,272.5C 231.815,275.924 224.815,276.924 217.5,275.5C 216.833,275.5 216.5,275.167 216.5,274.5C 217.497,274.53 218.164,274.03 218.5,273C 217.34,270.838 216.174,268.671 215,266.5C 214.5,259.508 214.334,252.508 214.5,245.5C 214.973,244.094 215.973,243.427 217.5,243.5C 219.817,244.907 222.317,245.907 225,246.5C 230.301,245.6 234.801,243.267 238.5,239.5 Z"/></g>
<g><path style="opacity:1" fill="#e09737" d="M 82.5,261.5 C 84.7532,263.817 86.4198,266.65 87.5,270C 86.944,270.383 86.6107,270.883 86.5,271.5C 83.0139,273.106 79.3472,274.106 75.5,274.5C 76.8262,270.51 78.1595,266.51 79.5,262.5C 80.391,261.89 81.391,261.557 82.5,261.5 Z"/></g>
<g><path style="opacity:0.902" fill="#d0ba95" d="M 121.5,258.5 C 119.664,260.588 117.331,261.921 114.5,262.5C 116.336,260.412 118.669,259.079 121.5,258.5 Z"/></g>
<g><path style="opacity:0.996" fill="#d8c6a9" d="M 114.5,262.5 C 112.421,264.873 109.754,266.206 106.5,266.5C 108.849,264.659 111.515,263.326 114.5,262.5 Z"/></g>
<g><path style="opacity:1" fill="#6c75ea" d="M 451.5,241.5 C 452.972,243.117 453.639,245.117 453.5,247.5C 452.74,254.584 451.74,261.584 450.5,268.5C 449.883,268.389 449.383,268.056 449,267.5C 446.555,269.558 444.722,272.058 443.5,275C 441.618,276.479 439.451,277.312 437,277.5C 431.16,276.721 425.327,275.888 419.5,275C 417.793,271.694 414.793,269.194 410.5,267.5C 407.536,266.192 405.203,264.192 403.5,261.5C 413.128,262.988 422.794,264.322 432.5,265.5C 432.953,266.458 433.619,267.292 434.5,268C 437.669,268.978 440.503,268.478 443,266.5C 447.536,259.025 449.536,251.025 449,242.5C 449.671,241.748 450.504,241.414 451.5,241.5 Z"/></g>
<g><path style="opacity:1" fill="#cea971" d="M 84.5,259.5 C 86.1157,263.065 87.4491,266.731 88.5,270.5C 90.5,270.5 92.5,270.5 94.5,270.5C 92.0521,271.473 89.3854,271.806 86.5,271.5C 86.6107,270.883 86.944,270.383 87.5,270C 86.4198,266.65 84.7532,263.817 82.5,261.5C 82.8333,260.5 83.5,259.833 84.5,259.5 Z"/></g>
<g><path style="opacity:0.996" fill="#d6c4a4" d="M 106.5,266.5 C 102.915,268.806 98.9155,270.139 94.5,270.5C 98.2157,268.595 102.216,267.261 106.5,266.5 Z"/></g>
<g><path style="opacity:1" fill="#b03b31" d="M 351.5,265.5 C 338.58,304.845 314.914,336.011 280.5,359C 270.927,364.913 260.593,368.746 249.5,370.5C 247.379,370.675 245.379,370.341 243.5,369.5C 243.443,368.391 243.11,367.391 242.5,366.5C 249,364.68 255.333,362.347 261.5,359.5C 276.899,350.582 290.065,339.249 301,325.5C 304.59,323.105 306.923,319.772 308,315.5C 312.474,310.336 317.141,305.336 322,300.5C 327.812,290.543 332.812,280.21 337,269.5C 340.004,267.661 342.504,265.327 344.5,262.5C 347.345,262.766 349.678,263.766 351.5,265.5 Z"/></g>
<g><path style="opacity:1" fill="#7a7ee7" d="M 376.5,275.5 C 377.397,276.598 378.23,276.598 379,275.5C 379.479,277.646 380.812,278.646 383,278.5C 385.792,277.784 388.626,277.451 391.5,277.5C 389.112,280.538 386.112,282.871 382.5,284.5C 378.773,282.728 376.773,279.728 376.5,275.5 Z"/></g>
<g><path style="opacity:1" fill="#a94841" d="M 238.5,272.5 C 238.5,281.167 238.5,289.833 238.5,298.5C 234.26,299.819 229.927,300.819 225.5,301.5C 224.833,301.5 224.167,301.5 223.5,301.5C 223.063,292.397 221.063,283.73 217.5,275.5C 224.815,276.924 231.815,275.924 238.5,272.5 Z"/></g>
<g><path style="opacity:1" fill="#6068df" d="M 410.5,267.5 C 414.793,269.194 417.793,271.694 419.5,275C 425.327,275.888 431.16,276.721 437,277.5C 439.451,277.312 441.618,276.479 443.5,275C 444.722,272.058 446.555,269.558 449,267.5C 449.383,268.056 449.883,268.389 450.5,268.5C 451.574,273.635 449.907,277.468 445.5,280C 430.71,279.768 416.043,278.268 401.5,275.5C 398.02,274.313 394.353,273.813 390.5,274C 392.119,274.236 393.119,275.069 393.5,276.5C 392.833,276.833 392.167,277.167 391.5,277.5C 388.626,277.451 385.792,277.784 383,278.5C 380.812,278.646 379.479,277.646 379,275.5C 378.23,276.598 377.397,276.598 376.5,275.5C 375.559,273.95 374.893,272.284 374.5,270.5C 374.047,269.542 373.381,268.708 372.5,268C 375.882,267.824 379.215,267.324 382.5,266.5C 383.862,263.412 386.195,261.745 389.5,261.5C 396.255,264.253 403.255,266.253 410.5,267.5 Z"/></g>
<g><path style="opacity:1" fill="#a7adea" d="M 401.5,275.5 C 398.721,275.279 396.054,275.612 393.5,276.5C 393.119,275.069 392.119,274.236 390.5,274C 394.353,273.813 398.02,274.313 401.5,275.5 Z"/></g>
<g><path style="opacity:1" fill="#dcd6d9" d="M 190.5,283.5 C 190.833,283.5 191.167,283.5 191.5,283.5C 199.143,294.66 209.81,300.66 223.5,301.5C 224.167,301.5 224.833,301.5 225.5,301.5C 227.172,310.695 229.172,319.862 231.5,329C 230.944,330.011 230.278,330.844 229.5,331.5C 208.746,333.256 192.08,325.922 179.5,309.5C 180.124,309.083 180.457,308.416 180.5,307.5C 179.229,302.885 178.729,298.219 179,293.5C 183.026,290.302 186.859,286.968 190.5,283.5 Z"/></g>
<g><path style="opacity:1" fill="#d86158" d="M 214.5,274.5 C 215.167,274.5 215.833,274.5 216.5,274.5C 216.5,275.167 216.833,275.5 217.5,275.5C 221.063,283.73 223.063,292.397 223.5,301.5C 209.81,300.66 199.143,294.66 191.5,283.5C 191.783,282.711 192.283,282.044 193,281.5C 197.046,284.357 201.38,286.69 206,288.5C 211.852,285.252 214.685,280.585 214.5,274.5 Z"/></g>
<g><path style="opacity:1" fill="#dd7760" d="M 59.5,328.5 C 58.6618,328.158 58.3284,327.492 58.5,326.5C 58.6716,325.508 58.3382,324.842 57.5,324.5C 55.3432,323.593 53.0098,322.927 50.5,322.5C 50.5,321.833 50.5,321.167 50.5,320.5C 50.5,320.167 50.5,319.833 50.5,319.5C 52.0348,316.67 51.0348,315.337 47.5,315.5C 47.5,313.833 47.5,312.167 47.5,310.5C 49.1238,310.64 50.2904,309.973 51,308.5C 49.7398,305.367 50.4065,302.7 53,300.5C 56.7048,302.355 58.8715,301.189 59.5,297C 60.1667,296.833 60.8333,296.667 61.5,296.5C 63.9837,299.83 66.8171,300.163 70,297.5C 72.677,298.477 74.0103,300.477 74,303.5C 75.6667,304.167 77.3333,304.833 79,305.5C 79.3095,306.766 79.8095,307.933 80.5,309C 79.1007,310.062 78.1007,311.395 77.5,313C 80.2963,314.553 80.963,316.72 79.5,319.5C 77.4332,320.134 75.5998,321.134 74,322.5C 75.2026,325.431 74.2026,327.431 71,328.5C 69.2111,326.771 67.0444,326.104 64.5,326.5C 64.5,327.5 64.5,328.5 64.5,329.5C 62.7085,329.634 61.0418,329.301 59.5,328.5 Z M 61.5,305.5 C 70.2503,305.693 72.917,309.693 69.5,317.5C 63.3973,321.801 59.0639,320.301 56.5,313C 57.3305,309.809 58.9972,307.309 61.5,305.5 Z"/></g>
<g><path style="opacity:1" fill="#d65c53" d="M 163.5,274.5 C 166.157,287.506 171.49,299.173 179.5,309.5C 192.08,325.922 208.746,333.256 229.5,331.5C 229.833,331.5 230.167,331.5 230.5,331.5C 231.955,340.115 233.288,348.782 234.5,357.5C 232.938,357.267 231.605,356.6 230.5,355.5C 222.555,351.546 214.222,350.546 205.5,352.5C 194.015,333.77 177.348,326.437 155.5,330.5C 150.131,321.425 146.131,311.758 143.5,301.5C 147.034,300.941 150.534,299.941 154,298.5C 157.096,290.361 160.263,282.361 163.5,274.5 Z"/></g>
<g><path style="opacity:1" fill="#b7b1b4" d="M 241.5,297.5 C 240.721,306.685 241.388,315.852 243.5,325C 243.836,326.03 244.503,326.53 245.5,326.5C 245.158,327.338 244.492,327.672 243.5,327.5C 239.229,328.985 234.896,330.318 230.5,331.5C 230.167,331.5 229.833,331.5 229.5,331.5C 230.278,330.844 230.944,330.011 231.5,329C 229.172,319.862 227.172,310.695 225.5,301.5C 229.927,300.819 234.26,299.819 238.5,298.5C 239.391,297.89 240.391,297.557 241.5,297.5 Z"/></g>
<g><path style="opacity:1" fill="#8c93f3" d="M 364.5,315.5 C 388.414,319.882 412.081,324.882 435.5,330.5C 435.062,330.435 434.728,330.601 434.5,331C 435.328,331.915 436.328,332.581 437.5,333C 436.542,334.147 436.875,335.147 438.5,336C 436.613,336.78 434.946,336.613 433.5,335.5C 436.083,334.908 436.083,334.242 433.5,333.5C 411.277,328.155 388.944,323.655 366.5,320C 369.231,321.172 371.898,322.339 374.5,323.5C 371.432,323.453 368.432,322.953 365.5,322C 364.027,321.29 363.36,320.124 363.5,318.5C 364.873,318.657 366.207,318.49 367.5,318C 365.19,317.503 362.857,317.337 360.5,317.5C 361.833,316.833 363.167,316.167 364.5,315.5 Z"/></g>
<g><path style="opacity:1" fill="#7979ef" d="M 364.5,315.5 C 363.167,316.167 361.833,316.833 360.5,317.5C 354.148,321.065 353.981,325.065 360,329.5C 360.667,328.833 361.333,328.167 362,327.5C 362.198,329.382 362.698,331.048 363.5,332.5C 366.219,333.913 369.219,334.58 372.5,334.5C 375.754,337.471 379.42,339.971 383.5,342C 383.272,342.399 382.938,342.565 382.5,342.5C 375.146,341.296 367.813,339.963 360.5,338.5C 360.5,339.833 360.5,341.167 360.5,342.5C 365.094,343.815 369.761,344.815 374.5,345.5C 374.937,347.074 375.937,348.241 377.5,349C 380.961,350.231 384.294,351.731 387.5,353.5C 387.376,354.107 387.043,354.44 386.5,354.5C 377.134,353.019 367.801,351.352 358.5,349.5C 354.334,349.13 350.834,350.796 348,354.5C 347.667,354.167 347.333,353.833 347,353.5C 346.178,356.117 345.678,358.784 345.5,361.5C 344.209,361.263 343.209,361.596 342.5,362.5C 341.5,362.5 340.5,362.5 339.5,362.5C 339.33,363.822 339.663,364.989 340.5,366C 346.164,368.161 351.83,370.161 357.5,372C 352.623,371.407 347.79,370.24 343,368.5C 342.235,368.57 341.735,368.903 341.5,369.5C 339.901,367.396 338.068,365.396 336,363.5C 335.042,361.801 334.542,359.967 334.5,358C 337.077,345.113 339.911,332.28 343,319.5C 344.167,317 346,315.167 348.5,314C 354.091,313.159 359.424,313.659 364.5,315.5 Z"/></g>
<g><path style="opacity:1" fill="#8689cf" d="M 50.5,319.5 C 50.5,319.833 50.5,320.167 50.5,320.5C 49.1667,321.5 49.1667,322.5 50.5,323.5C 50.5,324.167 50.8333,324.5 51.5,324.5C 52.221,326.382 53.221,326.715 54.5,325.5C 55.9587,325.433 57.2921,325.766 58.5,326.5C 58.3284,327.492 58.6618,328.158 59.5,328.5C 59.6775,329.695 60.0109,330.862 60.5,332C 55.1064,335.895 55.2731,339.395 61,342.5C 61.9386,347.677 59.7719,350.177 54.5,350C 51.4804,351.89 50.8137,354.39 52.5,357.5C 50.0014,362.426 46.8347,362.759 43,358.5C 39.3395,358.898 37.5062,360.898 37.5,364.5C 35.8333,364.5 34.1667,364.5 32.5,364.5C 33.6085,363.71 34.9419,363.21 36.5,363C 34.5273,362.505 32.5273,362.338 30.5,362.5C 31.1126,358.488 29.4459,356.488 25.5,356.5C 22.0544,359.304 18.8877,358.97 16,355.5C 15.3179,353.062 15.8179,350.895 17.5,349C 16.8524,347.56 16.5191,346.06 16.5,344.5C 14.7376,344.643 13.0709,344.309 11.5,343.5C 10.5258,341.257 10.1924,338.924 10.5,336.5C 13.2385,337.035 15.0718,336.035 16,333.5C 15.6667,330.5 15.3333,327.5 15,324.5C 16.9472,321.014 19.2805,320.681 22,323.5C 25.6054,321.835 27.4387,319.002 27.5,315C 31.1541,313.703 33.8208,314.703 35.5,318C 39.1092,319.072 42.1092,318.239 44.5,315.5C 47.217,315.852 49.217,317.185 50.5,319.5 Z M 44.5,330.5 C 48.2123,335.68 48.3789,341.013 45,346.5C 39.3999,351.421 33.5666,351.754 27.5,347.5C 22.0601,337.32 24.8934,330.653 36,327.5C 39.066,328.021 41.8993,329.021 44.5,330.5 Z"/></g>
<g><path style="opacity:0.98" fill="#ecb2a4" d="M 50.5,323.5 C 50.5,323.167 50.5,322.833 50.5,322.5C 53.0098,322.927 55.3432,323.593 57.5,324.5C 56.209,324.263 55.209,324.596 54.5,325.5C 53.609,324.89 52.609,324.557 51.5,324.5C 50.8333,324.5 50.5,324.167 50.5,323.5 Z"/></g>
<g><path style="opacity:1" fill="#5d60b9" d="M 44.5,330.5 C 41.8993,329.021 39.066,328.021 36,327.5C 24.8934,330.653 22.0601,337.32 27.5,347.5C 24.4482,345.56 23.1149,342.727 23.5,339C 24.4225,328.422 30.0892,324.422 40.5,327C 42.3237,327.66 43.657,328.827 44.5,330.5 Z"/></g>
<g><path style="opacity:0.972" fill="#fbfcfc" d="M 230.5,355.5 C 230.5,358.5 230.5,361.5 230.5,364.5C 223.917,362.306 217.25,360.306 210.5,358.5C 207.454,359.984 205.121,359.15 203.5,356C 197.62,353.786 191.953,351.12 186.5,348C 180.631,347.845 175.297,349.511 170.5,353C 163.165,361.664 154.165,367.997 143.5,372C 137.551,373.236 131.884,375.236 126.5,378C 117.616,385.218 108.449,392.052 99,398.5C 98.5026,401.146 98.3359,403.813 98.5,406.5C 92.6106,398.73 91.1106,390.063 94,380.5C 95.9043,371.596 101.071,365.429 109.5,362C 114.08,360.617 118.747,359.617 123.5,359C 129.311,344.021 139.977,334.521 155.5,330.5C 177.348,326.437 194.015,333.77 205.5,352.5C 214.222,350.546 222.555,351.546 230.5,355.5 Z"/></g>
<g><path style="opacity:1" fill="#eaf0fd" d="M 372.5,334.5 C 369.219,334.58 366.219,333.913 363.5,332.5C 363.5,331.5 363.5,330.5 363.5,329.5C 374.873,331.291 386.206,333.291 397.5,335.5C 397.5,336.833 397.5,338.167 397.5,339.5C 389,338.625 380.667,336.958 372.5,334.5 Z"/></g>
<g><path style="opacity:1" fill="#9ba4fb" d="M 433.5,335.5 C 413.838,331.502 394.172,327.502 374.5,323.5C 371.898,322.339 369.231,321.172 366.5,320C 388.944,323.655 411.277,328.155 433.5,333.5C 436.083,334.242 436.083,334.908 433.5,335.5 Z"/></g>
<g><path style="opacity:1" fill="#eaf1fd" d="M 382.5,342.5 C 398.9,346.795 415.567,350.462 432.5,353.5C 432.5,354.833 432.5,356.167 432.5,357.5C 413.042,354.136 393.709,350.136 374.5,345.5C 369.761,344.815 365.094,343.815 360.5,342.5C 360.5,341.167 360.5,339.833 360.5,338.5C 367.813,339.963 375.146,341.296 382.5,342.5 Z"/></g>
<g><path style="opacity:1" fill="#c24b41" d="M 359.5,229.5 C 358.383,241.958 355.716,253.958 351.5,265.5C 349.678,263.766 347.345,262.766 344.5,262.5C 342.504,265.327 340.004,267.661 337,269.5C 332.812,280.21 327.812,290.543 322,300.5C 317.141,305.336 312.474,310.336 308,315.5C 306.923,319.772 304.59,323.105 301,325.5C 290.065,339.249 276.899,350.582 261.5,359.5C 255.333,362.347 249,364.68 242.5,366.5C 241.728,365.306 240.728,364.306 239.5,363.5C 238.5,361.833 237.167,360.5 235.5,359.5C 235.167,358.833 234.833,358.167 234.5,357.5C 233.288,348.782 231.955,340.115 230.5,331.5C 234.896,330.318 239.229,328.985 243.5,327.5C 244.954,335.745 245.787,344.078 246,352.5C 246.862,354.087 247.529,355.754 248,357.5C 252.987,356.616 257.82,355.116 262.5,353C 268.977,349.26 275.644,345.76 282.5,342.5C 283.39,339.443 285.39,337.609 288.5,337C 299.837,324.672 310.004,311.505 319,297.5C 323.537,287.094 328.537,277.094 334,267.5C 337.629,256.983 340.629,246.316 343,235.5C 342.917,239.228 342.584,242.895 342,246.5C 344.484,240.196 347.984,234.53 352.5,229.5C 354.859,228.286 357.192,228.286 359.5,229.5 Z"/></g>
<g><path style="opacity:1" fill="#ebf1fe" d="M 358.5,349.5 C 367.801,351.352 377.134,353.019 386.5,354.5C 398.362,357.275 410.362,359.941 422.5,362.5C 422.5,363.833 422.5,365.167 422.5,366.5C 417.829,365.499 413.162,364.499 408.5,363.5C 398.716,361.97 389.049,359.97 379.5,357.5C 372.519,356.059 365.519,354.725 358.5,353.5C 358.5,352.167 358.5,350.833 358.5,349.5 Z"/></g>
<g><path style="opacity:1" fill="#7982ef" d="M 360.5,317.5 C 362.857,317.337 365.19,317.503 367.5,318C 366.207,318.49 364.873,318.657 363.5,318.5C 363.36,320.124 364.027,321.29 365.5,322C 368.432,322.953 371.432,323.453 374.5,323.5C 394.172,327.502 413.838,331.502 433.5,335.5C 434.946,336.613 436.613,336.78 438.5,336C 436.875,335.147 436.542,334.147 437.5,333C 436.328,332.581 435.328,331.915 434.5,331C 434.728,330.601 435.062,330.435 435.5,330.5C 439.733,330.457 443.4,331.79 446.5,334.5C 445.849,335.091 445.182,335.757 444.5,336.5C 443.313,335.106 442.646,335.273 442.5,337C 443.454,338.908 444.121,340.908 444.5,343C 442.483,349.79 440.65,356.623 439,363.5C 436.873,367.589 434.373,371.423 431.5,375C 428.521,375.007 425.521,374.673 422.5,374C 417.944,370.236 413.277,366.736 408.5,363.5C 413.162,364.499 417.829,365.499 422.5,366.5C 422.5,365.167 422.5,363.833 422.5,362.5C 410.362,359.941 398.362,357.275 386.5,354.5C 387.043,354.44 387.376,354.107 387.5,353.5C 384.294,351.731 380.961,350.231 377.5,349C 375.937,348.241 374.937,347.074 374.5,345.5C 393.709,350.136 413.042,354.136 432.5,357.5C 432.5,356.167 432.5,354.833 432.5,353.5C 415.567,350.462 398.9,346.795 382.5,342.5C 382.938,342.565 383.272,342.399 383.5,342C 379.42,339.971 375.754,337.471 372.5,334.5C 380.667,336.958 389,338.625 397.5,339.5C 397.5,338.167 397.5,336.833 397.5,335.5C 386.206,333.291 374.873,331.291 363.5,329.5C 363.5,330.5 363.5,331.5 363.5,332.5C 362.698,331.048 362.198,329.382 362,327.5C 361.333,328.167 360.667,328.833 360,329.5C 353.981,325.065 354.148,321.065 360.5,317.5 Z"/></g>
<g><path style="opacity:1" fill="#ecf1f3" d="M 230.5,355.5 C 231.605,356.6 232.938,357.267 234.5,357.5C 234.833,358.167 235.167,358.833 235.5,359.5C 235.665,363.182 235.499,366.848 235,370.5C 234.196,371.804 233.029,372.471 231.5,372.5C 224.436,371.426 217.936,369.092 212,365.5C 209.451,368.006 206.951,367.84 204.5,365C 198.946,364.758 193.612,363.591 188.5,361.5C 186.423,361.692 184.423,362.192 182.5,363C 167.081,372.806 150.414,379.473 132.5,383C 129.833,384.333 127.167,385.667 124.5,387C 117.56,392.399 110.726,397.899 104,403.5C 103.027,407.359 103.86,410.692 106.5,413.5C 103.216,411.883 100.549,409.55 98.5,406.5C 98.3359,403.813 98.5026,401.146 99,398.5C 108.449,392.052 117.616,385.218 126.5,378C 131.884,375.236 137.551,373.236 143.5,372C 154.165,367.997 163.165,361.664 170.5,353C 175.297,349.511 180.631,347.845 186.5,348C 191.953,351.12 197.62,353.786 203.5,356C 205.121,359.15 207.454,359.984 210.5,358.5C 217.25,360.306 223.917,362.306 230.5,364.5C 230.5,361.5 230.5,358.5 230.5,355.5 Z"/></g>
<g><path style="opacity:1" fill="#686cea" d="M 358.5,349.5 C 358.5,350.833 358.5,352.167 358.5,353.5C 365.519,354.725 372.519,356.059 379.5,357.5C 379.414,358.496 379.748,359.329 380.5,360C 388.342,365.355 396.008,370.855 403.5,376.5C 396.117,375.205 388.951,373.205 382,370.5C 381.544,371.744 382.044,372.577 383.5,373C 383,373.167 382.5,373.333 382,373.5C 370.635,370.117 359.135,367.284 347.5,365C 349.301,364.683 349.634,364.016 348.5,363C 346.527,362.505 344.527,362.338 342.5,362.5C 343.209,361.596 344.209,361.263 345.5,361.5C 345.678,358.784 346.178,356.117 347,353.5C 347.333,353.833 347.667,354.167 348,354.5C 350.834,350.796 354.334,349.13 358.5,349.5 Z"/></g>
<g><path style="opacity:1" fill="#b3b5e1" d="M 25.5,356.5 C 29.4459,356.488 31.1126,358.488 30.5,362.5C 32.5273,362.338 34.5273,362.505 36.5,363C 34.9419,363.21 33.6085,363.71 32.5,364.5C 31.5041,364.586 30.6708,364.252 30,363.5C 29.9015,360.115 28.4015,357.781 25.5,356.5 Z"/></g>
<g><path style="opacity:1" fill="#6a73e9" d="M 446.5,334.5 C 449.106,336.039 450.439,338.372 450.5,341.5C 448.194,353.713 445.527,365.713 442.5,377.5C 442.719,376.325 442.386,375.325 441.5,374.5C 437.307,378.109 432.64,380.775 427.5,382.5C 419.408,380.81 411.408,378.81 403.5,376.5C 396.008,370.855 388.342,365.355 380.5,360C 379.748,359.329 379.414,358.496 379.5,357.5C 389.049,359.97 398.716,361.97 408.5,363.5C 413.277,366.736 417.944,370.236 422.5,374C 425.521,374.673 428.521,375.007 431.5,375C 434.373,371.423 436.873,367.589 439,363.5C 440.65,356.623 442.483,349.79 444.5,343C 444.121,340.908 443.454,338.908 442.5,337C 442.646,335.273 443.313,335.106 444.5,336.5C 445.182,335.757 445.849,335.091 446.5,334.5 Z"/></g>
<g><path style="opacity:1" fill="#5864dd" d="M 342.5,362.5 C 344.527,362.338 346.527,362.505 348.5,363C 349.634,364.016 349.301,364.683 347.5,365C 359.135,367.284 370.635,370.117 382,373.5C 382.5,373.333 383,373.167 383.5,373C 382.044,372.577 381.544,371.744 382,370.5C 388.951,373.205 396.117,375.205 403.5,376.5C 411.408,378.81 419.408,380.81 427.5,382.5C 432.64,380.775 437.307,378.109 441.5,374.5C 442.386,375.325 442.719,376.325 442.5,377.5C 442.723,382.069 440.723,385.069 436.5,386.5C 430.477,386.498 424.477,386.165 418.5,385.5C 417.833,385.5 417.167,385.5 416.5,385.5C 416.389,384.883 416.056,384.383 415.5,384C 413.527,383.505 411.527,383.338 409.5,383.5C 408.833,383.5 408.167,383.5 407.5,383.5C 400.641,377.827 392.808,375.827 384,377.5C 380.679,376.029 377.179,375.363 373.5,375.5C 371.533,375.739 369.699,375.406 368,374.5C 366.729,375.883 365.229,376.883 363.5,377.5C 357.833,378.075 352.167,378.242 346.5,378C 345.577,375.959 345.244,373.792 345.5,371.5C 344.167,371.5 342.833,371.5 341.5,371.5C 341.5,370.833 341.5,370.167 341.5,369.5C 341.735,368.903 342.235,368.57 343,368.5C 347.79,370.24 352.623,371.407 357.5,372C 351.83,370.161 346.164,368.161 340.5,366C 339.663,364.989 339.33,363.822 339.5,362.5C 340.5,362.5 341.5,362.5 342.5,362.5 Z"/></g>
<g><path style="opacity:1" fill="#e0e6e9" d="M 235.5,359.5 C 237.167,360.5 238.5,361.833 239.5,363.5C 240.392,368.438 240.726,373.438 240.5,378.5C 227.642,383.633 215.642,382.133 204.5,374C 199.5,373.333 194.5,373.333 189.5,374C 182.047,379.713 173.713,383.713 164.5,386C 152.775,387.676 141.108,389.676 129.5,392C 123.355,397.144 116.855,401.644 110,405.5C 107.416,408.166 106.916,411.166 108.5,414.5C 107.508,414.672 106.842,414.338 106.5,413.5C 103.86,410.692 103.027,407.359 104,403.5C 110.726,397.899 117.56,392.399 124.5,387C 127.167,385.667 129.833,384.333 132.5,383C 150.414,379.473 167.081,372.806 182.5,363C 184.423,362.192 186.423,361.692 188.5,361.5C 193.612,363.591 198.946,364.758 204.5,365C 206.951,367.84 209.451,368.006 212,365.5C 217.936,369.092 224.436,371.426 231.5,372.5C 233.029,372.471 234.196,371.804 235,370.5C 235.499,366.848 235.665,363.182 235.5,359.5 Z"/></g>
<g><path style="opacity:1" fill="#6e75e5" d="M 341.5,371.5 C 342.833,371.5 344.167,371.5 345.5,371.5C 345.244,373.792 345.577,375.959 346.5,378C 352.167,378.242 357.833,378.075 363.5,377.5C 360.414,380.223 357.08,382.723 353.5,385C 349.219,386.458 346.053,385.292 344,381.5C 343.162,378.148 342.329,374.815 341.5,371.5 Z"/></g>
<g><path style="opacity:1" fill="#d3d9dc" d="M 239.5,363.5 C 240.728,364.306 241.728,365.306 242.5,366.5C 243.11,367.391 243.443,368.391 243.5,369.5C 243.34,372.884 243.673,376.217 244.5,379.5C 244.124,381.383 243.124,382.883 241.5,384C 231.719,387.762 221.719,390.596 211.5,392.5C 210.798,389.422 209.798,386.422 208.5,383.5C 206.143,382.129 203.81,380.795 201.5,379.5C 196.921,380.304 192.587,381.804 188.5,384C 184.544,390.628 178.878,394.962 171.5,397C 161.152,397.266 150.818,397.766 140.5,398.5C 136.819,397.32 133.153,397.487 129.5,399C 123.119,402.517 117.119,406.517 111.5,411C 111.205,412.714 111.538,414.547 112.5,416.5C 110.847,416.34 109.514,415.674 108.5,414.5C 106.916,411.166 107.416,408.166 110,405.5C 116.855,401.644 123.355,397.144 129.5,392C 141.108,389.676 152.775,387.676 164.5,386C 173.713,383.713 182.047,379.713 189.5,374C 194.5,373.333 199.5,373.333 204.5,374C 215.642,382.133 227.642,383.633 240.5,378.5C 240.726,373.438 240.392,368.438 239.5,363.5 Z"/></g>
<g><path style="opacity:1" fill="#6c75db" d="M 373.5,375.5 C 377.179,375.363 380.679,376.029 384,377.5C 392.808,375.827 400.641,377.827 407.5,383.5C 395.969,381.198 384.635,378.531 373.5,375.5 Z"/></g>
<g><path style="opacity:1" fill="#9699e2" d="M 409.5,383.5 C 411.527,383.338 413.527,383.505 415.5,384C 416.056,384.383 416.389,384.883 416.5,385.5C 413.99,385.073 411.657,384.407 409.5,383.5 Z"/></g>
<g><path style="opacity:1" fill="#9395e1" d="M 418.5,385.5 C 424.477,386.165 430.477,386.498 436.5,386.5C 434.945,387.633 433.111,388.299 431,388.5C 426.63,387.798 422.464,386.798 418.5,385.5 Z"/></g>
<g><path style="opacity:1" fill="#bec4c7" d="M 248.5,390.5 C 248.042,396.226 246.042,401.226 242.5,405.5C 240.318,402.148 237.151,400.148 233,399.5C 225.279,405.117 216.779,408.617 207.5,410C 206.693,404.917 206.193,399.75 206,394.5C 204.622,392.787 202.955,391.453 201,390.5C 191.777,398.569 184.61,408.235 179.5,419.5C 179.624,420.107 179.957,420.44 180.5,420.5C 180.5,420.833 180.5,421.167 180.5,421.5C 171.833,421.5 163.167,421.5 154.5,421.5C 147.895,420.202 141.395,418.202 135,415.5C 128.765,418.537 122.265,419.203 115.5,417.5C 114.12,415.281 114.454,413.281 116.5,411.5C 121.918,409.859 126.918,407.359 131.5,404C 144.916,404.209 158.249,405.209 171.5,407C 174.284,406.108 176.95,404.942 179.5,403.5C 184.352,398.483 189.018,393.316 193.5,388C 195.746,386.961 197.913,385.794 200,384.5C 202.427,385.781 204.927,386.781 207.5,387.5C 208.487,392.117 209.154,396.784 209.5,401.5C 210.873,401.657 212.207,401.49 213.5,401C 223.996,394.663 235.163,390.163 247,387.5C 247.232,388.737 247.732,389.737 248.5,390.5 Z"/></g>
<g><path style="opacity:1" fill="#c9cfd2" d="M 243.5,369.5 C 245.379,370.341 247.379,370.675 249.5,370.5C 248.282,371.161 246.949,371.828 245.5,372.5C 247.942,378.251 248.942,384.251 248.5,390.5C 247.732,389.737 247.232,388.737 247,387.5C 235.163,390.163 223.996,394.663 213.5,401C 212.207,401.49 210.873,401.657 209.5,401.5C 209.154,396.784 208.487,392.117 207.5,387.5C 204.927,386.781 202.427,385.781 200,384.5C 197.913,385.794 195.746,386.961 193.5,388C 189.018,393.316 184.352,398.483 179.5,403.5C 176.95,404.942 174.284,406.108 171.5,407C 158.249,405.209 144.916,404.209 131.5,404C 126.918,407.359 121.918,409.859 116.5,411.5C 114.454,413.281 114.12,415.281 115.5,417.5C 114.391,417.443 113.391,417.11 112.5,416.5C 111.538,414.547 111.205,412.714 111.5,411C 117.119,406.517 123.119,402.517 129.5,399C 133.153,397.487 136.819,397.32 140.5,398.5C 150.818,397.766 161.152,397.266 171.5,397C 178.878,394.962 184.544,390.628 188.5,384C 192.587,381.804 196.921,380.304 201.5,379.5C 203.81,380.795 206.143,382.129 208.5,383.5C 209.798,386.422 210.798,389.422 211.5,392.5C 221.719,390.596 231.719,387.762 241.5,384C 243.124,382.883 244.124,381.383 244.5,379.5C 243.673,376.217 243.34,372.884 243.5,369.5 Z"/></g>
<g><path style="opacity:0.969" fill="#b5babd" d="M 242.5,405.5 C 235.529,414.156 226.529,419.489 215.5,421.5C 211.5,421.5 207.5,421.5 203.5,421.5C 199.662,420.497 195.829,419.164 192,417.5C 188.413,419.417 184.58,420.417 180.5,420.5C 179.957,420.44 179.624,420.107 179.5,419.5C 184.61,408.235 191.777,398.569 201,390.5C 202.955,391.453 204.622,392.787 206,394.5C 206.193,399.75 206.693,404.917 207.5,410C 216.779,408.617 225.279,405.117 233,399.5C 237.151,400.148 240.318,402.148 242.5,405.5 Z"/></g>
</svg>
