<?xml version="1.0" encoding="UTF-8"?>
<!DOCTYPE svg PUBLIC "-//W3C//DTD SVG 1.1//EN" "http://www.w3.org/Graphics/SVG/1.1/DTD/svg11.dtd">
<svg xmlns="http://www.w3.org/2000/svg" version="1.1" width="466px" height="379px" style="shape-rendering:geometricPrecision; text-rendering:geometricPrecision; image-rendering:optimizeQuality; fill-rule:evenodd; clip-rule:evenodd" xmlns:xlink="http://www.w3.org/1999/xlink">
<g><path style="opacity:1" fill="#6dc4fe" d="M 45.5,-0.5 C 94.5,-0.5 143.5,-0.5 192.5,-0.5C 195.886,1.72286 198.386,4.72286 200,8.5C 200.5,20.1619 200.667,31.8286 200.5,43.5C 200.97,67.5653 200.47,91.5653 199,115.5C 197.73,119.77 194.896,122.27 190.5,123C 181.506,123.5 172.506,123.666 163.5,123.5C 159.833,120.167 156.167,116.833 152.5,113.5C 151.559,111.228 150.226,109.228 148.5,107.5C 153.511,107.666 158.511,107.499 163.5,107C 167.065,104.822 167.399,102.156 164.5,99C 156.507,98.5003 148.507,98.3336 140.5,98.5C 139.604,97.4937 138.938,97.4937 138.5,98.5C 134.154,98.3343 129.821,98.501 125.5,99C 122.984,101.854 123.317,104.521 126.5,107C 130.688,107.176 134.688,107.676 138.5,108.5C 137.091,110.305 136.591,112.305 137,114.5C 139.4,116.415 141.9,118.081 144.5,119.5C 145.234,120.708 145.567,122.041 145.5,123.5C 113.167,123.5 80.8333,123.5 48.5,123.5C 43.2445,123.124 39.7445,120.457 38,115.5C 37.3333,79.5 37.3333,43.5 38,7.5C 40.0282,4.30777 42.5282,1.64111 45.5,-0.5 Z"/></g>
<g><path style="opacity:0.998" fill="#1b6fb4" d="M 372.5,103.5 C 338.746,103.986 305.08,103.486 271.5,102C 269.951,100.786 268.785,99.286 268,97.5C 267.832,80.6616 267.332,63.995 266.5,47.5C 266.334,39.4931 266.5,31.4931 267,23.5C 267.786,20.4173 269.619,18.2506 272.5,17C 306.5,16.3333 340.5,16.3333 374.5,17C 378.232,18.6291 380.399,21.4624 381,25.5C 381.667,48.8333 381.667,72.1667 381,95.5C 380.205,100.317 377.372,102.984 372.5,103.5 Z"/></g>
<g><path style="opacity:1" fill="#f6ba0e" d="M 155.5,24.5 C 155.5,28.1667 155.5,31.8333 155.5,35.5C 121.79,35.8194 88.1233,35.4861 54.5,34.5C 52.681,30.419 53.681,27.2523 57.5,25C 90.165,24.5 122.832,24.3334 155.5,24.5 Z"/></g>
<g><path style="opacity:1" fill="#fdfcf7" d="M 155.5,24.5 C 163.84,24.3336 172.173,24.5003 180.5,25C 184.391,26.9076 185.391,29.7409 183.5,33.5C 182.711,33.7828 182.044,34.2828 181.5,35C 172.84,35.4998 164.173,35.6664 155.5,35.5C 155.5,31.8333 155.5,28.1667 155.5,24.5 Z"/></g>
<g><path style="opacity:1" fill="#fdc9c8" d="M 349.5,34.5 C 349.5,37.1667 349.5,39.8333 349.5,42.5C 326.164,42.6666 302.831,42.5 279.5,42C 278.167,39.6667 278.167,37.3333 279.5,35C 302.831,34.5 326.164,34.3334 349.5,34.5 Z"/></g>
<g><path style="opacity:1" fill="#fdf8f8" d="M 349.5,34.5 C 355.842,34.3338 362.175,34.5005 368.5,35C 369.982,37.5918 369.648,39.9251 367.5,42C 361.509,42.4995 355.509,42.6662 349.5,42.5C 349.5,39.8333 349.5,37.1667 349.5,34.5 Z"/></g>
<g><path style="opacity:1" fill="#ad9440" d="M 183.5,33.5 C 183.426,35.4109 182.426,36.5776 180.5,37C 139.5,37.6667 98.5,37.6667 57.5,37C 56.0577,36.6232 55.0577,35.7899 54.5,34.5C 88.1233,35.4861 121.79,35.8194 155.5,35.5C 164.173,35.6664 172.84,35.4998 181.5,35C 182.044,34.2828 182.711,33.7828 183.5,33.5 Z"/></g>
<g><path style="opacity:0.999" fill="#f9b903" d="M 266.5,47.5 C 267.332,63.995 267.832,80.6616 268,97.5C 268.785,99.286 269.951,100.786 271.5,102C 305.08,103.486 338.746,103.986 372.5,103.5C 377.195,108.526 381.861,113.526 386.5,118.5C 367.338,119.332 348.004,119.832 328.5,120C 326.714,120.785 325.214,121.951 324,123.5C 322.851,136.242 322.351,149.075 322.5,162C 322.667,174.167 322.833,186.333 323,198.5C 323.733,202.234 325.9,204.734 329.5,206C 362.5,206.667 395.5,206.667 428.5,206C 429.745,205.209 431.078,204.709 432.5,204.5C 442.103,244.589 441.77,284.589 431.5,324.5C 431.167,324.5 430.833,324.5 430.5,324.5C 425.5,324.5 420.5,324.5 415.5,324.5C 415.167,301.833 414.833,301.833 414.5,324.5C 409.5,324.5 404.5,324.5 399.5,324.5C 399.296,317.08 398.462,309.747 397,302.5C 396.329,303.252 395.496,303.586 394.5,303.5C 396.89,301.624 397.89,299.124 397.5,296C 396.931,292.183 396.597,288.349 396.5,284.5C 389.018,283.508 381.352,283.175 373.5,283.5C 372.833,292.833 372.167,292.833 371.5,283.5C 362.5,283.5 353.5,283.5 344.5,283.5C 344.334,277.491 344.501,271.491 345,265.5C 346.289,263.945 346.956,262.279 347,260.5C 344.607,262.619 343.274,265.285 343,268.5C 342.501,273.489 342.334,278.489 342.5,283.5C 334.833,283.5 327.167,283.5 319.5,283.5C 318.224,296.14 317.058,308.807 316,321.5C 315.617,320.944 315.117,320.611 314.5,320.5C 309.226,299.669 301.226,280.002 290.5,261.5C 300.772,262.454 310.772,264.621 320.5,268C 326.939,269.522 332.105,267.688 336,262.5C 336.808,260.421 336.641,258.421 335.5,256.5C 328.604,254.454 321.604,252.787 314.5,251.5C 307.833,249.167 301.167,246.833 294.5,244.5C 295.803,235.821 295.803,227.154 294.5,218.5C 296.284,203.132 296.951,187.799 296.5,172.5C 298.622,169.093 300.622,165.593 302.5,162C 293.087,147.92 281.087,136.587 266.5,128C 262.371,126.051 258.037,124.884 253.5,124.5C 252.5,124.167 251.833,123.5 251.5,122.5C 263.603,99.9457 257.27,91.6123 232.5,97.5C 233.883,99.3198 234.883,101.32 235.5,103.5C 234.572,106.523 233.238,109.357 231.5,112C 232.833,118.04 236.333,120.873 242,120.5C 242.706,122.955 241.873,124.622 239.5,125.5C 233.558,126.425 227.891,128.258 222.5,131C 212,137.751 201.333,144.251 190.5,150.5C 181.146,141.812 172.146,132.812 163.5,123.5C 172.506,123.666 181.506,123.5 190.5,123C 194.896,122.27 197.73,119.77 199,115.5C 200.47,91.5653 200.97,67.5653 200.5,43.5C 222.706,41.5173 244.706,42.8506 266.5,47.5 Z"/></g>
<g><path style="opacity:1" fill="#fefefd" d="M 60.5,48.5 C 77.4105,48.1749 94.2439,48.5082 111,49.5C 111.833,69.1751 111.666,88.8418 110.5,108.5C 93.8776,109.652 77.2109,109.818 60.5,109C 60,108.5 59.5,108 59,107.5C 58.3333,88.5 58.3333,69.5 59,50.5C 59.7172,49.9558 60.2172,49.2891 60.5,48.5 Z"/></g>
<g><path style="opacity:1" fill="#fdfeff" d="M 124.5,48.5 C 144.319,48.0131 163.985,48.5131 183.5,50C 163.983,51.6526 144.316,51.9859 124.5,51C 123.402,50.2303 123.402,49.397 124.5,48.5 Z"/></g>
<g><path style="opacity:1" fill="#e5c5cc" d="M 327.5,50.5 C 341.325,50.0192 354.992,50.5192 368.5,52C 361.667,52.1667 354.833,52.3333 348,52.5C 340.799,52.497 333.966,51.8303 327.5,50.5 Z"/></g>
<g><path style="opacity:1" fill="#fbfcfd" d="M 282.5,50.5 C 294.414,50.1785 306.247,50.5118 318,51.5C 318.823,65.4083 318.656,79.2417 317.5,93C 305.591,93.8207 293.757,93.6541 282,92.5C 281.186,78.4252 281.352,64.4252 282.5,50.5 Z"/></g>
<g><path style="opacity:1" fill="#fafdff" d="M 124.5,56.5 C 144.319,56.0131 163.985,56.5131 183.5,58C 163.983,59.6526 144.316,59.9859 124.5,59C 123.402,58.2303 123.402,57.397 124.5,56.5 Z"/></g>
<g><path style="opacity:1" fill="#fbcece" d="M 327.5,56.5 C 341.183,56.1675 354.85,56.5008 368.5,57.5C 361.667,57.8333 354.833,58.1667 348,58.5C 340.799,58.497 333.966,57.8303 327.5,56.5 Z"/></g>
<g><path style="opacity:1" fill="#fed7d6" d="M 311.5,71.5 C 310.833,71.5 310.167,71.5 309.5,71.5C 309.492,65.1619 306.325,61.8286 300,61.5C 293.771,61.8986 290.937,65.232 291.5,71.5C 290.833,71.5 290.167,71.5 289.5,71.5C 289.952,67.4246 291.452,63.7579 294,60.5C 299.2,57.4333 303.867,58.1 308,62.5C 309.627,65.3572 310.793,68.3572 311.5,71.5 Z"/></g>
<g><path style="opacity:1" fill="#fabb0b" d="M 73.5,61.5 C 77.7338,61.193 81.7338,61.8597 85.5,63.5C 93.049,60.105 99.7156,61.4383 105.5,67.5C 104.627,69.4134 103.627,71.2467 102.5,73C 100.527,73.4955 98.5273,73.6621 96.5,73.5C 96.5,81.1667 96.5,88.8333 96.5,96.5C 88.8333,96.5 81.1667,96.5 73.5,96.5C 73.5,88.8333 73.5,81.1667 73.5,73.5C 68.9723,74.2791 66.3056,72.4458 65.5,68C 67.9565,65.6011 70.6232,63.4344 73.5,61.5 Z"/></g>
<g><path style="opacity:1" fill="#d56260" d="M 289.5,71.5 C 290.167,71.5 290.833,71.5 291.5,71.5C 292.117,71.6107 292.617,71.944 293,72.5C 293.667,76.5 293.667,80.5 293,84.5C 291.333,85.8333 289.667,85.8333 288,84.5C 287.333,80.5 287.333,76.5 288,72.5C 288.383,71.944 288.883,71.6107 289.5,71.5 Z"/></g>
<g><path style="opacity:1" fill="#ce4e4e" d="M 309.5,71.5 C 310.167,71.5 310.833,71.5 311.5,71.5C 312.602,75.7471 312.768,80.0804 312,84.5C 310.667,85.8333 309.333,85.8333 308,84.5C 307.333,80.5 307.333,76.5 308,72.5C 308.383,71.944 308.883,71.6107 309.5,71.5 Z"/></g>
<g><path style="opacity:1" fill="#bee5ff" d="M 123.5,82.5 C 136.184,82.1676 148.851,82.5009 161.5,83.5C 155.167,83.8333 148.833,84.1667 142.5,84.5C 135.796,84.4964 129.463,83.8298 123.5,82.5 Z"/></g>
<g><path style="opacity:1" fill="#fbfdfe" d="M 328.5,85.5 C 337.506,85.3336 346.506,85.5002 355.5,86C 357.658,87.3117 357.991,88.9783 356.5,91C 347.167,91.6667 337.833,91.6667 328.5,91C 327.248,89.1722 327.248,87.3388 328.5,85.5 Z"/></g>
<g><path style="opacity:1" fill="#cc6566" d="M 362.5,85.5 C 368.148,85.311 369.482,87.4777 366.5,92C 365.101,92.5946 363.768,92.4279 362.5,91.5C 361.306,89.4844 361.306,87.4844 362.5,85.5 Z"/></g>
<g><path style="opacity:1" fill="#fbeded" d="M 362.5,87.5 C 363.978,87.238 365.311,87.5713 366.5,88.5C 365.833,88.8333 365.167,89.1667 364.5,89.5C 363.287,89.2528 362.62,88.5862 362.5,87.5 Z"/></g>
<g><path style="opacity:1" fill="#0b1a22" d="M 251.5,122.5 C 249.974,121.508 249.307,120.008 249.5,118C 250.203,115.171 250.37,112.338 250,109.5C 248.981,110.687 247.814,111.687 246.5,112.5C 242.138,110.305 238.972,106.972 237,102.5C 236.617,103.056 236.117,103.389 235.5,103.5C 234.883,101.32 233.883,99.3198 232.5,97.5C 257.27,91.6123 263.603,99.9457 251.5,122.5 Z"/></g>
<g><path style="opacity:1" fill="#eaad84" d="M 140.5,98.5 C 143.195,101.526 145.862,104.526 148.5,107.5C 150.226,109.228 151.559,111.228 152.5,113.5C 151.027,116.921 148.361,118.921 144.5,119.5C 141.9,118.081 139.4,116.415 137,114.5C 136.591,112.305 137.091,110.305 138.5,108.5C 139.525,107.626 140.192,106.459 140.5,105C 139.391,102.953 138.724,100.787 138.5,98.5C 138.938,97.4937 139.604,97.4937 140.5,98.5 Z"/></g>
<g><path style="opacity:1" fill="#fafcfd" d="M 138.5,98.5 C 138.724,100.787 139.391,102.953 140.5,105C 140.192,106.459 139.525,107.626 138.5,108.5C 134.688,107.676 130.688,107.176 126.5,107C 123.317,104.521 122.984,101.854 125.5,99C 129.821,98.501 134.154,98.3343 138.5,98.5 Z"/></g>
<g><path style="opacity:1" fill="#fcfdfd" d="M 140.5,98.5 C 148.507,98.3336 156.507,98.5003 164.5,99C 167.399,102.156 167.065,104.822 163.5,107C 158.511,107.499 153.511,107.666 148.5,107.5C 145.862,104.526 143.195,101.526 140.5,98.5 Z"/></g>
<g><path style="opacity:1" fill="#cd595a" d="M 175.5,97.5 C 182.309,97.9514 183.976,101.118 180.5,107C 174,108.5 171.5,106 173,99.5C 173.995,98.9341 174.828,98.2674 175.5,97.5 Z"/></g>
<g><path style="opacity:1" fill="#f9e7e7" d="M 174.5,100.5 C 176.527,100.338 178.527,100.505 180.5,101C 179.62,102.356 179.286,103.856 179.5,105.5C 175.849,105.838 174.183,104.172 174.5,100.5 Z"/></g>
<g><path style="opacity:1" fill="#e1a176" d="M 251.5,122.5 C 251.833,123.5 252.5,124.167 253.5,124.5C 251.252,127.982 248.752,131.316 246,134.5C 243.812,131.433 241.645,128.433 239.5,125.5C 241.873,124.622 242.706,122.955 242,120.5C 236.333,120.873 232.833,118.04 231.5,112C 233.238,109.357 234.572,106.523 235.5,103.5C 236.117,103.389 236.617,103.056 237,102.5C 238.972,106.972 242.138,110.305 246.5,112.5C 247.814,111.687 248.981,110.687 250,109.5C 250.37,112.338 250.203,115.171 249.5,118C 249.307,120.008 249.974,121.508 251.5,122.5 Z"/></g>
<g><path style="opacity:1" fill="#fefefd" d="M 152.5,113.5 C 156.167,116.833 159.833,120.167 163.5,123.5C 172.146,132.812 181.146,141.812 190.5,150.5C 201.333,144.251 212,137.751 222.5,131C 227.891,128.258 233.558,126.425 239.5,125.5C 241.645,128.433 243.812,131.433 246,134.5C 248.752,131.316 251.252,127.982 253.5,124.5C 258.037,124.884 262.371,126.051 266.5,128C 281.087,136.587 293.087,147.92 302.5,162C 300.622,165.593 298.622,169.093 296.5,172.5C 290.925,171.548 285.259,171.214 279.5,171.5C 279.877,169.742 280.544,168.075 281.5,166.5C 279.183,164.684 277.016,162.684 275,160.5C 274.501,164.152 274.335,167.818 274.5,171.5C 257.833,171.5 241.167,171.5 224.5,171.5C 224.829,165.463 224.496,159.463 223.5,153.5C 213.021,159.24 202.355,164.74 191.5,170C 189.711,170.52 188.044,170.187 186.5,169C 180.365,163.866 174.531,158.366 169,152.5C 162.303,143.647 155.47,134.98 148.5,126.5C 147.728,125.306 146.728,124.306 145.5,123.5C 145.567,122.041 145.234,120.708 144.5,119.5C 148.361,118.921 151.027,116.921 152.5,113.5 Z"/></g>
<g><path style="opacity:0.992" fill="#2d69ab" d="M 386.5,118.5 C 400.171,118.333 413.837,118.5 427.5,119C 430.548,119.606 433.048,121.106 435,123.5C 436.638,148.771 436.972,174.104 436,199.5C 435.303,201.584 434.136,203.251 432.5,204.5C 431.078,204.709 429.745,205.209 428.5,206C 395.5,206.667 362.5,206.667 329.5,206C 325.9,204.734 323.733,202.234 323,198.5C 322.833,186.333 322.667,174.167 322.5,162C 322.351,149.075 322.851,136.242 324,123.5C 325.214,121.951 326.714,120.785 328.5,120C 348.004,119.832 367.338,119.332 386.5,118.5 Z"/></g>
<g><path style="opacity:0.999" fill="#f9ba03" d="M 48.5,123.5 C 80.8333,123.5 113.167,123.5 145.5,123.5C 146.728,124.306 147.728,125.306 148.5,126.5C 156.83,142.508 167.497,156.841 180.5,169.5C 126.552,150.201 72.8852,150.868 19.5,171.5C 26.7122,153.968 36.3789,137.968 48.5,123.5 Z"/></g>
<g><path style="opacity:1" fill="#fcfdfe" d="M 337.5,125.5 C 339.337,125.639 339.67,126.306 338.5,127.5C 337.702,127.043 337.369,126.376 337.5,125.5 Z"/></g>
<g><path style="opacity:1" fill="#fdc5c4" d="M 404.5,137.5 C 404.5,139.833 404.5,142.167 404.5,144.5C 410.833,144.5 417.167,144.5 423.5,144.5C 394.336,145.664 365.003,145.83 335.5,145C 333.327,143.135 332.993,140.969 334.5,138.5C 357.824,137.5 381.157,137.167 404.5,137.5 Z"/></g>
<g><path style="opacity:1" fill="#fcfafb" d="M 404.5,137.5 C 410.842,137.334 417.175,137.5 423.5,138C 426.037,140.201 426.037,142.368 423.5,144.5C 417.167,144.5 410.833,144.5 404.5,144.5C 404.5,142.167 404.5,139.833 404.5,137.5 Z"/></g>
<g><path style="opacity:1" fill="#facdce" d="M 382.5,153.5 C 396.183,153.167 409.85,153.501 423.5,154.5C 416.667,154.833 409.833,155.167 403,155.5C 395.799,155.497 388.966,154.83 382.5,153.5 Z"/></g>
<g><path style="opacity:1" fill="#fbfbfc" d="M 338.5,153.5 C 350.414,153.179 362.247,153.512 374,154.5C 374.823,168.408 374.656,182.242 373.5,196C 361.591,196.821 349.757,196.654 338,195.5C 337.186,181.425 337.352,167.425 338.5,153.5 Z"/></g>
<g><path style="opacity:1" fill="#f08a01" d="M 180.5,169.5 C 183.436,171.255 186.269,173.255 189,175.5C 190.011,174.663 191.178,174.33 192.5,174.5C 199.335,178.418 206.335,182.085 213.5,185.5C 214.443,195.145 215.109,204.812 215.5,214.5C 208.528,213.492 201.528,213.325 194.5,214C 189.176,216.477 186.176,220.644 185.5,226.5C 184.299,238.261 189.299,246.094 200.5,250C 204.169,251.279 207.836,252.446 211.5,253.5C 211.472,255.582 212.139,257.416 213.5,259C 216.688,260.316 220.022,260.816 223.5,260.5C 222.48,273.484 222.313,286.484 223,299.5C 223.682,286.504 224.182,273.504 224.5,260.5C 232.167,260.5 239.833,260.5 247.5,260.5C 249.79,295.444 254.123,330.111 260.5,364.5C 258.5,367.833 256.5,371.167 254.5,374.5C 254.863,375.183 255.196,375.85 255.5,376.5C 244.012,377.495 232.345,377.828 220.5,377.5C 220.5,375.167 220.5,372.833 220.5,370.5C 221.954,348.531 222.454,326.531 222,304.5C 221.011,326.497 220.178,348.497 219.5,370.5C 219.5,372.833 219.5,375.167 219.5,377.5C 189.833,377.5 160.167,377.5 130.5,377.5C 118.5,377.5 106.5,377.5 94.5,377.5C 96.1683,366.158 97.8349,354.825 99.5,343.5C 100.248,340.83 101.248,338.163 102.5,335.5C 103.376,335.631 104.043,335.298 104.5,334.5C 100.217,333.508 95.8839,333.174 91.5,333.5C 90.9999,329.836 92.1666,326.836 95,324.5C 95.3333,321.167 95.6667,317.833 96,314.5C 98.7065,311.022 101.706,310.689 105,313.5C 105.765,309.579 104.098,307.245 100,306.5C 97.5007,307.083 95.5007,308.416 94,310.5C 94.3299,304.521 94.3299,298.521 94,292.5C 91.1616,286.538 89.6616,280.204 89.5,273.5C 87.383,275.736 86.383,278.403 86.5,281.5C 87.7629,285.772 88.2629,290.105 88,294.5C 86.9887,295.337 85.8221,295.67 84.5,295.5C 84.1371,286.21 84.8038,277.044 86.5,268C 86.2979,262.437 84.7979,257.27 82,252.5C 82.5184,256.425 82.5184,260.425 82,264.5C 79.6667,268.167 77.3333,271.833 75,275.5C 74.6667,278.5 74.3333,281.5 74,284.5C 71.5356,278.939 69.3689,273.272 67.5,267.5C 65.8547,276.431 67.188,284.931 71.5,293C 70.4645,294.901 69.2978,296.735 68,298.5C 67.6667,300.5 67.3333,302.5 67,304.5C 65.9817,301.317 63.815,299.984 60.5,300.5C 54.9604,301.96 49.2937,302.793 43.5,303C 38.1608,307.503 38.8275,308.337 45.5,305.5C 50.3792,306.989 55.3792,307.822 60.5,308C 66.0248,310.919 67.8581,315.419 66,321.5C 61.331,317.5 56.1644,316.667 50.5,319C 49.2351,320.337 48.7351,321.837 49,323.5C 50.8083,321.604 52.975,321.104 55.5,322C 57.579,323.64 59.9124,324.806 62.5,325.5C 63.48,328.086 63.8134,330.753 63.5,333.5C 59.774,333.177 56.1073,333.511 52.5,334.5C 52.9569,335.298 53.6236,335.631 54.5,335.5C 55.7121,338.78 56.7121,342.113 57.5,345.5C 58.3839,350.804 59.0506,356.137 59.5,361.5C 59.4827,363.028 58.816,363.528 57.5,363C 41.4968,350.006 25.1635,337.506 8.5,325.5C 4.10224,311.443 1.10224,297.109 -0.5,282.5C -0.5,269.5 -0.5,256.5 -0.5,243.5C 1.79964,218.303 8.4663,194.303 19.5,171.5C 72.8852,150.868 126.552,150.201 180.5,169.5 Z"/></g>
<g><path style="opacity:1" fill="#ffbfbb" d="M 148.5,126.5 C 155.47,134.98 162.303,143.647 169,152.5C 174.531,158.366 180.365,163.866 186.5,169C 188.044,170.187 189.711,170.52 191.5,170C 202.355,164.74 213.021,159.24 223.5,153.5C 224.496,159.463 224.829,165.463 224.5,171.5C 223.833,171.5 223.167,171.5 222.5,171.5C 222.823,167.774 222.489,164.107 221.5,160.5C 211.62,164.941 201.953,169.608 192.5,174.5C 191.178,174.33 190.011,174.663 189,175.5C 186.269,173.255 183.436,171.255 180.5,169.5C 167.497,156.841 156.83,142.508 148.5,126.5 Z"/></g>
<g><path style="opacity:1" fill="#f8ccce" d="M 382.5,159.5 C 396.183,159.167 409.85,159.501 423.5,160.5C 416.667,160.833 409.833,161.167 403,161.5C 395.799,161.497 388.966,160.83 382.5,159.5 Z"/></g>
<g><path style="opacity:1" fill="#f8b909" d="M 222.5,171.5 C 218.713,170.814 215.546,171.814 213,174.5C 213.11,178.129 213.276,181.796 213.5,185.5C 206.335,182.085 199.335,178.418 192.5,174.5C 201.953,169.608 211.62,164.941 221.5,160.5C 222.489,164.107 222.823,167.774 222.5,171.5 Z"/></g>
<g><path style="opacity:1" fill="#ffbdbd" d="M 279.5,171.5 C 277.833,171.5 276.167,171.5 274.5,171.5C 274.335,167.818 274.501,164.152 275,160.5C 277.016,162.684 279.183,164.684 281.5,166.5C 280.544,168.075 279.877,169.742 279.5,171.5 Z"/></g>
<g><path style="opacity:1" fill="#cf5251" d="M 361.5,165.5 C 364.196,167.199 366.196,169.533 367.5,172.5C 361.188,178.991 353.521,182.158 344.5,182C 343.978,181.439 343.645,180.772 343.5,180C 345.21,178.389 347.043,176.889 349,175.5C 349.333,175.833 349.667,176.167 350,176.5C 351.867,174.192 352.867,171.525 353,168.5C 354.813,167.391 355.646,168.058 355.5,170.5C 359.314,171.019 361.314,169.353 361.5,165.5 Z"/></g>
<g><path style="opacity:1" fill="#6485b5" d="M 382.5,170.5 C 396.516,170.167 410.516,170.501 424.5,171.5C 417.5,171.833 410.5,172.167 403.5,172.5C 396.133,172.497 389.133,171.83 382.5,170.5 Z"/></g>
<g><path style="opacity:1" fill="#25738e" d="M 222.5,171.5 C 223.167,171.5 223.833,171.5 224.5,171.5C 241.167,171.5 257.833,171.5 274.5,171.5C 276.167,171.5 277.833,171.5 279.5,171.5C 285.259,171.214 290.925,171.548 296.5,172.5C 296.951,187.799 296.284,203.132 294.5,218.5C 272.5,218.5 250.5,218.5 228.5,218.5C 224.035,217.567 219.702,216.234 215.5,214.5C 215.109,204.812 214.443,195.145 213.5,185.5C 213.276,181.796 213.11,178.129 213,174.5C 215.546,171.814 218.713,170.814 222.5,171.5 Z"/></g>
<g><path style="opacity:1" fill="#fcfdfe" d="M 383.5,188.5 C 392.839,188.334 402.173,188.5 411.5,189C 412.833,190.667 412.833,192.333 411.5,194C 402.167,194.667 392.833,194.667 383.5,194C 382.248,192.172 382.248,190.339 383.5,188.5 Z"/></g>
<g><path style="opacity:1" fill="#e9f1f4" d="M 253.5,192.5 C 257.676,191.831 259.009,193.331 257.5,197C 255.866,197.494 254.199,197.66 252.5,197.5C 252.366,195.708 252.699,194.042 253.5,192.5 Z"/></g>
<g><path style="opacity:1" fill="#d27c7e" d="M 418.5,187.5 C 421.352,187.352 423.019,188.686 423.5,191.5C 421.167,196.833 418.833,196.833 416.5,191.5C 416.752,189.927 417.418,188.594 418.5,187.5 Z"/></g>
<g><path style="opacity:1" fill="#05283b" d="M 215.5,214.5 C 219.702,216.234 224.035,217.567 228.5,218.5C 250.553,226.964 272.553,235.63 294.5,244.5C 301.167,246.833 307.833,249.167 314.5,251.5C 315.265,254.096 315.599,256.763 315.5,259.5C 285.727,257.371 256.394,252.538 227.5,245C 212.335,241.246 198.335,235.079 185.5,226.5C 186.176,220.644 189.176,216.477 194.5,214C 201.528,213.325 208.528,213.492 215.5,214.5 Z"/></g>
<g><path style="opacity:1" fill="#020e12" d="M 228.5,218.5 C 250.5,218.5 272.5,218.5 294.5,218.5C 295.803,227.154 295.803,235.821 294.5,244.5C 272.553,235.63 250.553,226.964 228.5,218.5 Z"/></g>
<g><path style="opacity:1" fill="#fef7ef" d="M 77.5,227.5 C 79.7602,228.238 79.9269,229.238 78,230.5C 76.2716,229.648 76.105,228.648 77.5,227.5 Z"/></g>
<g><path style="opacity:1" fill="#051115" d="M 185.5,226.5 C 198.335,235.079 212.335,241.246 227.5,245C 256.394,252.538 285.727,257.371 315.5,259.5C 315.599,256.763 315.265,254.096 314.5,251.5C 321.604,252.787 328.604,254.454 335.5,256.5C 336.641,258.421 336.808,260.421 336,262.5C 332.105,267.688 326.939,269.522 320.5,268C 310.772,264.621 300.772,262.454 290.5,261.5C 288.533,261.739 286.699,261.406 285,260.5C 284.506,262.134 284.34,263.801 284.5,265.5C 279.07,265.161 273.736,265.661 268.5,267C 265.333,268.833 262.833,271.333 261,274.5C 262.183,303.483 263.35,332.483 264.5,361.5C 267.533,361.132 270.2,361.798 272.5,363.5C 274.803,368.012 275.469,372.679 274.5,377.5C 268.077,377.791 261.744,377.458 255.5,376.5C 255.196,375.85 254.863,375.183 254.5,374.5C 256.5,371.167 258.5,367.833 260.5,364.5C 254.123,330.111 249.79,295.444 247.5,260.5C 247.67,259.178 247.337,258.011 246.5,257C 234.755,256.492 223.089,255.326 211.5,253.5C 207.836,252.446 204.169,251.279 200.5,250C 189.299,246.094 184.299,238.261 185.5,226.5 Z"/></g>
<g><path style="opacity:1" fill="#fdc9c1" d="M 173.5,257.5 C 173.631,258.239 173.464,258.906 173,259.5C 170.359,260.732 168.193,262.398 166.5,264.5C 162.5,265.833 158.5,265.833 154.5,264.5C 154.5,258.833 154.5,253.167 154.5,247.5C 161.51,247.668 168.51,248.001 175.5,248.5C 175.932,251.877 175.265,254.877 173.5,257.5 Z"/></g>
<g><path style="opacity:1" fill="#f18b07" d="M 173.5,257.5 C 171.947,259.385 169.947,260.385 167.5,260.5C 167.5,256.833 167.5,253.167 167.5,249.5C 169.5,249.5 171.5,249.5 173.5,249.5C 173.5,252.167 173.5,254.833 173.5,257.5 Z"/></g>
<g><path style="opacity:1" fill="#bc3e38" d="M 91.5,333.5 C 82.1667,333.5 72.8333,333.5 63.5,333.5C 63.8134,330.753 63.48,328.086 62.5,325.5C 59.9124,324.806 57.579,323.64 55.5,322C 52.975,321.104 50.8083,321.604 49,323.5C 48.7351,321.837 49.2351,320.337 50.5,319C 56.1644,316.667 61.331,317.5 66,321.5C 67.8581,315.419 66.0248,310.919 60.5,308C 55.3792,307.822 50.3792,306.989 45.5,305.5C 38.8275,308.337 38.1608,307.503 43.5,303C 49.2937,302.793 54.9604,301.96 60.5,300.5C 63.815,299.984 65.9817,301.317 67,304.5C 67.3333,302.5 67.6667,300.5 68,298.5C 69.2978,296.735 70.4645,294.901 71.5,293C 67.188,284.931 65.8547,276.431 67.5,267.5C 69.3689,273.272 71.5356,278.939 74,284.5C 74.3333,281.5 74.6667,278.5 75,275.5C 77.3333,271.833 79.6667,268.167 82,264.5C 82.5184,260.425 82.5184,256.425 82,252.5C 84.7979,257.27 86.2979,262.437 86.5,268C 84.8038,277.044 84.1371,286.21 84.5,295.5C 85.8221,295.67 86.9887,295.337 88,294.5C 88.2629,290.105 87.7629,285.772 86.5,281.5C 86.383,278.403 87.383,275.736 89.5,273.5C 89.6616,280.204 91.1616,286.538 94,292.5C 94.3299,298.521 94.3299,304.521 94,310.5C 95.5007,308.416 97.5007,307.083 100,306.5C 104.098,307.245 105.765,309.579 105,313.5C 101.706,310.689 98.7065,311.022 96,314.5C 95.6667,317.833 95.3333,321.167 95,324.5C 92.1666,326.836 90.9999,329.836 91.5,333.5 Z"/></g>
<g><path style="opacity:1" fill="#a31510" d="M 211.5,253.5 C 223.089,255.326 234.755,256.492 246.5,257C 247.337,258.011 247.67,259.178 247.5,260.5C 239.833,260.5 232.167,260.5 224.5,260.5C 224.167,260.5 223.833,260.5 223.5,260.5C 220.022,260.816 216.688,260.316 213.5,259C 212.139,257.416 211.472,255.582 211.5,253.5 Z"/></g>
<g><path style="opacity:1" fill="#f08a00" d="M 290.5,261.5 C 301.226,280.002 309.226,299.669 314.5,320.5C 315.091,324.117 315.424,327.783 315.5,331.5C 314.347,346.494 313.347,361.494 312.5,376.5C 312.5,376.833 312.5,377.167 312.5,377.5C 303.833,377.5 295.167,377.5 286.5,377.5C 285.982,347.141 284.982,316.808 283.5,286.5C 283.502,279.48 283.835,272.48 284.5,265.5C 284.34,263.801 284.506,262.134 285,260.5C 286.699,261.406 288.533,261.739 290.5,261.5 Z"/></g>
<g><path style="opacity:1" fill="#c33b2e" d="M 154.5,264.5 C 158.5,265.833 162.5,265.833 166.5,264.5C 172.176,264.334 177.843,264.501 183.5,265C 187.531,265.903 189.531,268.403 189.5,272.5C 165.809,271.843 142.476,272.51 119.5,274.5C 118.29,270.092 119.956,266.925 124.5,265C 134.494,264.5 144.494,264.334 154.5,264.5 Z"/></g>
<g><path style="opacity:1" fill="#07293b" d="M 284.5,265.5 C 283.835,272.48 283.502,279.48 283.5,286.5C 282.542,291.658 281.875,296.991 281.5,302.5C 279.329,322.532 276.829,342.532 274,362.5C 273.617,363.056 273.117,363.389 272.5,363.5C 270.2,361.798 267.533,361.132 264.5,361.5C 263.35,332.483 262.183,303.483 261,274.5C 262.833,271.333 265.333,268.833 268.5,267C 273.736,265.661 279.07,265.161 284.5,265.5 Z"/></g>
<g><path style="opacity:1" fill="#fef0df" d="M 96.5,267.5 C 98.4646,267.948 98.7979,268.948 97.5,270.5C 96.6143,269.675 96.281,268.675 96.5,267.5 Z"/></g>
<g><path style="opacity:1" fill="#fb8557" d="M 223.5,260.5 C 223.833,260.5 224.167,260.5 224.5,260.5C 224.182,273.504 223.682,286.504 223,299.5C 222.313,286.484 222.48,273.484 223.5,260.5 Z"/></g>
<g><path style="opacity:1" fill="#fdd062" d="M 344.5,283.5 C 343.833,292.833 343.167,292.833 342.5,283.5C 342.334,278.489 342.501,273.489 343,268.5C 343.274,265.285 344.607,262.619 347,260.5C 346.956,262.279 346.289,263.945 345,265.5C 344.501,271.491 344.334,277.491 344.5,283.5 Z"/></g>
<g><path style="opacity:1" fill="#a41611" d="M 189.5,272.5 C 189.518,276.637 187.518,279.137 183.5,280C 163.5,280.667 143.5,280.667 123.5,280C 121.181,278.853 119.848,277.019 119.5,274.5C 142.476,272.51 165.809,271.843 189.5,272.5 Z"/></g>
<g><path style="opacity:1" fill="#fba610" d="M 342.5,283.5 C 343.167,292.833 343.833,292.833 344.5,283.5C 353.5,283.5 362.5,283.5 371.5,283.5C 372.167,292.833 372.833,292.833 373.5,283.5C 381.352,283.175 389.018,283.508 396.5,284.5C 368.131,314.867 340.131,345.534 312.5,376.5C 313.347,361.494 314.347,346.494 315.5,331.5C 315.424,327.783 315.091,324.117 314.5,320.5C 315.117,320.611 315.617,320.944 316,321.5C 317.058,308.807 318.224,296.14 319.5,283.5C 327.167,283.5 334.833,283.5 342.5,283.5 Z"/></g>
<g><path style="opacity:1" fill="#f18252" d="M 283.5,286.5 C 284.982,316.808 285.982,347.141 286.5,377.5C 286.167,377.5 285.833,377.5 285.5,377.5C 284.701,352.168 283.868,326.835 283,301.5C 282.617,302.056 282.117,302.389 281.5,302.5C 281.875,296.991 282.542,291.658 283.5,286.5 Z"/></g>
<g><path style="opacity:1" fill="#eb8704" d="M 285.5,377.5 C 281.833,377.5 278.167,377.5 274.5,377.5C 275.469,372.679 274.803,368.012 272.5,363.5C 273.117,363.389 273.617,363.056 274,362.5C 276.829,342.532 279.329,322.532 281.5,302.5C 282.117,302.389 282.617,302.056 283,301.5C 283.868,326.835 284.701,352.168 285.5,377.5 Z"/></g>
<g><path style="opacity:1" fill="#ef6c0a" d="M 399.5,324.5 C 396.833,324.5 394.167,324.5 391.5,324.5C 391.334,319.156 391.501,313.823 392,308.5C 393.094,306.922 393.928,305.255 394.5,303.5C 395.496,303.586 396.329,303.252 397,302.5C 398.462,309.747 399.296,317.08 399.5,324.5 Z"/></g>
<g><path style="opacity:1" fill="#cbaa4e" d="M 430.5,324.5 C 417.677,325.495 404.677,325.829 391.5,325.5C 391.5,325.167 391.5,324.833 391.5,324.5C 394.167,324.5 396.833,324.5 399.5,324.5C 404.5,324.5 409.5,324.5 414.5,324.5C 414.833,301.833 415.167,301.833 415.5,324.5C 420.5,324.5 425.5,324.5 430.5,324.5 Z"/></g>
<g><path style="opacity:1" fill="#f5cbae" d="M 394.5,303.5 C 393.928,305.255 393.094,306.922 392,308.5C 391.501,313.823 391.334,319.156 391.5,324.5C 391.5,324.833 391.5,325.167 391.5,325.5C 391.167,329.5 390.833,329.5 390.5,325.5C 390.334,319.491 390.501,313.491 391,307.5C 391.66,305.676 392.827,304.343 394.5,303.5 Z"/></g>
<g><path style="opacity:0.998" fill="#07293b" d="M 430.5,324.5 C 430.833,324.5 431.167,324.5 431.5,324.5C 435.833,324.5 440.167,324.5 444.5,324.5C 415.06,342.059 385.394,359.392 355.5,376.5C 354.571,375.311 354.238,373.978 354.5,372.5C 356.425,356.767 358.758,341.101 361.5,325.5C 371.167,325.5 380.833,325.5 390.5,325.5C 390.833,329.5 391.167,329.5 391.5,325.5C 404.677,325.829 417.677,325.495 430.5,324.5 Z"/></g>
<g><path style="opacity:1" fill="#ed6a0a" d="M 396.5,284.5 C 396.597,288.349 396.931,292.183 397.5,296C 397.89,299.124 396.89,301.624 394.5,303.5C 392.827,304.343 391.66,305.676 391,307.5C 390.501,313.491 390.334,319.491 390.5,325.5C 380.833,325.5 371.167,325.5 361.5,325.5C 358.758,341.101 356.425,356.767 354.5,372.5C 353.549,373.919 353.216,375.585 353.5,377.5C 339.833,377.5 326.167,377.5 312.5,377.5C 312.5,377.167 312.5,376.833 312.5,376.5C 340.131,345.534 368.131,314.867 396.5,284.5 Z"/></g>
<g><path style="opacity:1" fill="#f3bb9e" d="M 8.5,325.5 C 25.1635,337.506 41.4968,350.006 57.5,363C 58.816,363.528 59.4827,363.028 59.5,361.5C 60.9131,366.63 61.9131,371.963 62.5,377.5C 73.1667,377.5 83.8333,377.5 94.5,377.5C 106.5,377.5 118.5,377.5 130.5,377.5C 130.5,377.833 130.5,378.167 130.5,378.5C 88.1667,378.5 45.8333,378.5 3.5,378.5C 12.3178,377.507 21.3178,377.173 30.5,377.5C 35.1785,377.666 39.8452,377.499 44.5,377C 35.6317,367.964 26.6317,359.131 17.5,350.5C 13.5347,342.611 10.5347,334.278 8.5,325.5 Z"/></g>
<g><path style="opacity:1" fill="#010d12" d="M 444.5,324.5 C 447.95,341.962 450.95,359.629 453.5,377.5C 420.167,377.5 386.833,377.5 353.5,377.5C 353.216,375.585 353.549,373.919 354.5,372.5C 354.238,373.978 354.571,375.311 355.5,376.5C 385.394,359.392 415.06,342.059 444.5,324.5 Z"/></g>
<g><path style="opacity:1" fill="#11455b" d="M 63.5,333.5 C 72.8333,333.5 82.1667,333.5 91.5,333.5C 95.8839,333.174 100.217,333.508 104.5,334.5C 104.043,335.298 103.376,335.631 102.5,335.5C 86.5,334.167 70.5,334.167 54.5,335.5C 53.6236,335.631 52.9569,335.298 52.5,334.5C 56.1073,333.511 59.774,333.177 63.5,333.5 Z"/></g>
<g><path style="opacity:1" fill="#080c10" d="M 54.5,335.5 C 70.5,334.167 86.5,334.167 102.5,335.5C 101.248,338.163 100.248,340.83 99.5,343.5C 85.6766,342.504 71.6766,342.171 57.5,342.5C 57.5,343.5 57.5,344.5 57.5,345.5C 56.7121,342.113 55.7121,338.78 54.5,335.5 Z"/></g>
<g><path style="opacity:1" fill="#052333" d="M 99.5,343.5 C 97.8349,354.825 96.1683,366.158 94.5,377.5C 83.8333,377.5 73.1667,377.5 62.5,377.5C 61.9131,371.963 60.9131,366.63 59.5,361.5C 59.0506,356.137 58.3839,350.804 57.5,345.5C 57.5,344.5 57.5,343.5 57.5,342.5C 71.6766,342.171 85.6766,342.504 99.5,343.5 Z"/></g>
<g><path style="opacity:1" fill="#f9e188" d="M 17.5,350.5 C 26.6317,359.131 35.6317,367.964 44.5,377C 39.8452,377.499 35.1785,377.666 30.5,377.5C 25.9102,368.653 21.5768,359.653 17.5,350.5 Z"/></g>
<g><path style="opacity:1" fill="#fb8554" d="M 220.5,370.5 C 220.167,370.5 219.833,370.5 219.5,370.5C 220.178,348.497 221.011,326.497 222,304.5C 222.454,326.531 221.954,348.531 220.5,370.5 Z"/></g>
<g><path style="opacity:0.467" fill="#f9a57c" d="M 219.5,370.5 C 219.833,370.5 220.167,370.5 220.5,370.5C 220.5,372.833 220.5,375.167 220.5,377.5C 232.345,377.828 244.012,377.495 255.5,376.5C 261.744,377.458 268.077,377.791 274.5,377.5C 278.167,377.5 281.833,377.5 285.5,377.5C 285.833,377.5 286.167,377.5 286.5,377.5C 295.167,377.5 303.833,377.5 312.5,377.5C 326.167,377.5 339.833,377.5 353.5,377.5C 386.833,377.5 420.167,377.5 453.5,377.5C 457.5,377.5 461.5,377.5 465.5,377.5C 465.5,377.833 465.5,378.167 465.5,378.5C 353.833,378.5 242.167,378.5 130.5,378.5C 130.5,378.167 130.5,377.833 130.5,377.5C 160.167,377.5 189.833,377.5 219.5,377.5C 219.5,375.167 219.5,372.833 219.5,370.5 Z"/></g>
</svg>
