<svg id="Raggruppa_31351" data-name="Raggruppa 31351" xmlns="http://www.w3.org/2000/svg" xmlns:xlink="http://www.w3.org/1999/xlink" width="282.255" height="200.649" viewBox="0 0 282.255 200.649">
  <defs>
    <clipPath id="clip-path">
      <rect id="Rettangolo_165496" data-name="Rettangolo 165496" width="282.255" height="200.649" fill="none"/>
    </clipPath>
    <clipPath id="clip-path-2">
      <rect id="Rettangolo_165495" data-name="Rettangolo 165495" width="282.255" height="200.65" fill="none"/>
    </clipPath>
    <clipPath id="clip-path-3">
      <rect id="Rettangolo_165450" data-name="Rettangolo 165450" width="222.719" height="8.651" fill="none"/>
    </clipPath>
    <clipPath id="clip-path-4">
      <rect id="Rettangolo_165459" data-name="Rettangolo 165459" width="5.141" height="1.679" fill="none"/>
    </clipPath>
    <clipPath id="clip-path-5">
      <rect id="Rettangolo_165474" data-name="Rettangolo 165474" width="15.943" height="35.02" fill="none"/>
    </clipPath>
    <clipPath id="clip-path-6">
      <rect id="Rettangolo_165476" data-name="Rettangolo 165476" width="11.949" height="29.156" fill="none"/>
    </clipPath>
    <clipPath id="clip-path-7">
      <rect id="Rettangolo_165477" data-name="Rettangolo 165477" width="70.76" height="47.877" fill="none"/>
    </clipPath>
    <clipPath id="clip-path-8">
      <rect id="Rettangolo_165480" data-name="Rettangolo 165480" width="10.927" height="20.247" fill="none"/>
    </clipPath>
    <clipPath id="clip-path-9">
      <rect id="Rettangolo_165481" data-name="Rettangolo 165481" width="8.741" height="16.199" fill="none"/>
    </clipPath>
    <clipPath id="clip-path-10">
      <rect id="Rettangolo_165483" data-name="Rettangolo 165483" width="2.65" height="2.65" fill="none"/>
    </clipPath>
    <clipPath id="clip-path-11">
      <rect id="Rettangolo_165484" data-name="Rettangolo 165484" width="2.649" height="2.65" fill="none"/>
    </clipPath>
    <clipPath id="clip-path-12">
      <rect id="Rettangolo_165485" data-name="Rettangolo 165485" width="2.648" height="2.648" fill="none"/>
    </clipPath>
    <clipPath id="clip-path-14">
      <rect id="Rettangolo_165487" data-name="Rettangolo 165487" width="2.65" height="2.648" fill="none"/>
    </clipPath>
    <clipPath id="clip-path-15">
      <rect id="Rettangolo_165488" data-name="Rettangolo 165488" width="2.649" height="2.648" fill="none"/>
    </clipPath>
  </defs>
  <g id="Raggruppa_31350" data-name="Raggruppa 31350" clip-path="url(#clip-path)">
    <g id="Raggruppa_31349" data-name="Raggruppa 31349" transform="translate(0 0)">
      <g id="Raggruppa_31348" data-name="Raggruppa 31348" clip-path="url(#clip-path-2)">
        <path id="Tracciato_108555" data-name="Tracciato 108555" d="M740.644,1122.041h-33.2a2.3,2.3,0,0,0-2.3,2.3H742.94a2.3,2.3,0,0,0-2.3-2.3" transform="translate(-628.891 -1000.697)" fill="#083640"/>
        <path id="Tracciato_108556" data-name="Tracciato 108556" d="M2011.763,1143.624l11.4,76.947h7.169l-6.815-76.947Z" transform="translate(-1794.2 -1019.946)" fill="#593c31"/>
        <path id="Tracciato_108557" data-name="Tracciato 108557" d="M1980.723,1143.624l11.4,76.947h7.169l-6.816-76.947Z" transform="translate(-1766.518 -1019.946)" fill="#704b3d"/>
        <path id="Tracciato_108558" data-name="Tracciato 108558" d="M79.62,1143.624l-7.5,76.947h7.818l11.4-76.947H80.922a4.742,4.742,0,0,1-1.3,0" transform="translate(-64.321 -1019.946)" fill="#593c31"/>
        <rect id="Rettangolo_165447" data-name="Rettangolo 165447" width="213.169" height="28.413" transform="translate(18.586 123.678)" fill="#593c31"/>
        <path id="Tracciato_108559" data-name="Tracciato 108559" d="M359.032,1144.781l-6.851,75.791h10.832l11.4-76.947-14.078,1.156a4.742,4.742,0,0,1-1.3,0" transform="translate(-314.094 -1019.946)" fill="#593c31"/>
        <path id="Tracciato_108560" data-name="Tracciato 108560" d="M1715.066,1143.624l11.4,76.947h7.169l-6.815-76.947Z" transform="translate(-1529.59 -1019.946)" fill="#593c31"/>
        <path id="Tracciato_108561" data-name="Tracciato 108561" d="M1684.026,1143.624l11.4,76.947h7.169l-6.815-76.947Z" transform="translate(-1501.907 -1019.946)" fill="#704b3d"/>
        <path id="Tracciato_108562" data-name="Tracciato 108562" d="M49.046,1143.624l-6.851,76.947h7.169l11.4-76.947H50.348a4.742,4.742,0,0,1-1.3,0" transform="translate(-37.632 -1019.946)" fill="#704b3d"/>
        <rect id="Rettangolo_165448" data-name="Rettangolo 165448" width="187.672" height="28.413" transform="translate(8.808 123.678)" fill="#704b3d"/>
        <g id="Raggruppa_31305" data-name="Raggruppa 31305" transform="translate(8.808 124.772)" opacity="0.1">
          <g id="Raggruppa_31304" data-name="Raggruppa 31304">
            <g id="Raggruppa_31303" data-name="Raggruppa 31303" clip-path="url(#clip-path-3)">
              <rect id="Rettangolo_165449" data-name="Rettangolo 165449" width="222.719" height="8.651" transform="translate(0)"/>
            </g>
          </g>
        </g>
        <rect id="Rettangolo_165451" data-name="Rettangolo 165451" width="238.009" height="7.303" transform="translate(2.044 123.678)" fill="#dbdbdb"/>
        <rect id="Rettangolo_165452" data-name="Rettangolo 165452" width="205.455" height="7.303" transform="translate(0 123.678)" fill="#fff"/>
        <rect id="Rettangolo_165453" data-name="Rettangolo 165453" width="13.865" height="22.949" transform="translate(127.197 99.27)" fill="#05252b"/>
        <path id="Tracciato_108563" data-name="Tracciato 108563" d="M913.4,420.789H825.88a1.179,1.179,0,0,0-1.179,1.179V481.1a1.179,1.179,0,0,0,1.179,1.179H913.4a1.179,1.179,0,0,0,1.18-1.179V421.968a1.18,1.18,0,0,0-1.18-1.179" transform="translate(-735.514 -375.283)" fill="#083640"/>
        <rect id="Rettangolo_165454" data-name="Rettangolo 165454" width="83.668" height="48.165" transform="translate(92.295 48.068)" fill="#c5e1e8"/>
        <rect id="Rettangolo_165455" data-name="Rettangolo 165455" width="62.014" height="48.165" transform="translate(113.908 48.068)" fill="#f5d045"/>
        <rect id="Rettangolo_165456" data-name="Rettangolo 165456" width="8.521" height="48.165" transform="translate(167.402 48.068)" fill="#c5e1e8"/>
        <rect id="Rettangolo_165457" data-name="Rettangolo 165457" width="83.668" height="2.799" transform="translate(92.295 48.068)" fill="#29b3b8"/>
        <rect id="Rettangolo_165458" data-name="Rettangolo 165458" width="26.774" height="2.391" transform="translate(120.742 121.289)" fill="#083640"/>
        <path id="Tracciato_108564" data-name="Tracciato 108564" d="M885.982,500.841h-3.194a.588.588,0,0,0-.588.588v3.194a.588.588,0,0,0,.588.588h3.194a.588.588,0,0,0,.588-.588v-3.194a.588.588,0,0,0-.588-.588" transform="translate(-786.795 -446.677)" fill="#fff"/>
        <path id="Tracciato_108565" data-name="Tracciato 108565" d="M939.846,500.841h-3.194a.587.587,0,0,0-.588.588v3.194a.587.587,0,0,0,.588.588h3.194a.588.588,0,0,0,.588-.588v-3.194a.588.588,0,0,0-.588-.588" transform="translate(-834.834 -446.677)" fill="#fff"/>
        <path id="Tracciato_108566" data-name="Tracciato 108566" d="M993.71,500.841h-3.194a.588.588,0,0,0-.588.588v3.194a.588.588,0,0,0,.588.588h3.194a.588.588,0,0,0,.588-.588v-3.194a.588.588,0,0,0-.588-.588" transform="translate(-882.873 -446.677)" fill="#fff"/>
        <path id="Tracciato_108567" data-name="Tracciato 108567" d="M1217.567,503.909c-3.644-3.147-11.437-2.4-13.229,1.686-6.328,14.422,2.987,15.552,2.987,15.552h8.449c9.1-.319,4.851-14.6,1.793-17.239" transform="translate(-1072.129 -447.679)" fill="#9c6753"/>
        <path id="Tracciato_108568" data-name="Tracciato 108568" d="M1226.312,673.771a13.151,13.151,0,0,1-3.462,1.072h-.41c-.026,0-.052-.006-.078-.009s-.052.007-.078.009h-.41a15.312,15.312,0,0,1-3.462-1.749c-.005.316-.136,4.029-.952,4.669a13.49,13.49,0,0,1-3.511,2.347,14.266,14.266,0,0,0,8.174,3.267s.084,0,.239-.011c.154.011.239.011.239.011a14.266,14.266,0,0,0,8.174-3.267,13.49,13.49,0,0,1-3.511-2.347c-.817-.64-.947-3.676-.952-3.992" transform="translate(-1082.667 -600.302)" fill="#f0a589"/>
        <path id="Tracciato_108569" data-name="Tracciato 108569" d="M1155.144,725l-7.588-2.544s-.415,2.923-5.846,2.923c-6.07,0-6.194-2.809-6.194-2.809l-7.553,3.15a5.594,5.594,0,0,0-3.021,3.179,27.8,27.8,0,0,0-1.205,6.188H1160c-.233-2.4-.564-5.321-1.571-7.3a5.6,5.6,0,0,0-3.285-2.79" transform="translate(-1002.209 -644.322)" fill="#ea6a21"/>
        <path id="Tracciato_108570" data-name="Tracciato 108570" d="M1231.195,550.865l-3.612,1.465s-1.048,6.578,1.526,11.434a6.9,6.9,0,0,0,2.3,2.321,5.271,5.271,0,0,0,2.66,1.111h.392a4.686,4.686,0,0,0,1.995-.673,10.915,10.915,0,0,0,2.963-2.758c2.619-3.836,1.6-11.1,1.6-11.1Z" transform="translate(-1094.637 -491.291)" fill="#f5b99f"/>
        <path id="Tracciato_108571" data-name="Tracciato 108571" d="M1345.8,596.368l-.959,4.55c1.642,1.2,2.38-4.485,1.969-4.986s-1.01.436-1.01.436" transform="translate(-1199.4 -531.355)" fill="#f5b99f"/>
        <path id="Tracciato_108572" data-name="Tracciato 108572" d="M1219.515,595.973c-.411.5.328,6.184,1.969,4.986l-.375-4.5s-1.188-.978-1.595-.482" transform="translate(-1087.53 -531.396)" fill="#f5b99f"/>
        <path id="Tracciato_108573" data-name="Tracciato 108573" d="M1225.761,502.144c-10.885-.338-5.589,12.817-5.6,12.77a6.213,6.213,0,0,1,.861-3.483c.806-1.605,1.818-3.179,1.818-3.179,1.1.987,3.8,1.71,7.09,1.864,2.33.109,3.323,3.339,3.238,4.691-.007.114,4.046-12.306-7.4-12.662" transform="translate(-1087.066 -447.834)" fill="#9c6753"/>
        <path id="Tracciato_108574" data-name="Tracciato 108574" d="M1292.163,709.794l1.679,2.7a25.561,25.561,0,0,0,5.013-5.34l-2.368-2.168a26.721,26.721,0,0,1-4.325,4.813" transform="translate(-1152.422 -628.74)" fill="#fff"/>
        <path id="Tracciato_108575" data-name="Tracciato 108575" d="M1231.807,704.981l-2.368,2.168a25.561,25.561,0,0,0,5.013,5.34l1.679-2.7a26.724,26.724,0,0,1-4.324-4.813" transform="translate(-1096.481 -628.74)" fill="#fff"/>
        <path id="Tracciato_108576" data-name="Tracciato 108576" d="M1238.936,596.2a.123.123,0,0,0-.085-.034,8.989,8.989,0,0,0-2.334-.369l.014,0c-.166-.008-.344-.012-.536-.012l-.286,0a6.326,6.326,0,0,0-1.921.244c-.066.021-.147.049-.237.084a5.178,5.178,0,0,1-1.095.247,4.869,4.869,0,0,1-1.054-.247c-.081-.032-.156-.058-.218-.078a6.241,6.241,0,0,0-1.937-.25l-.286,0c-.212,0-.407.005-.588.015l.022-.007a8.989,8.989,0,0,0-2.334.369l.009.008-.008,0v-.012l-.487.715.13.421.391-.539a.108.108,0,0,0,.02,0h.055a.315.315,0,0,1,.191.3.865.865,0,0,0,.013.1,2.838,2.838,0,0,0,.092.686c.329,1.35.842,2.249,2.276,2.249a4.408,4.408,0,0,0,.695-.06,2.861,2.861,0,0,0,2.491-2.532l0,.014c0-.022,0-.042,0-.063.006-.062.01-.125.013-.189a.493.493,0,0,1,.491-.422v0l.022,0,.019,0v0a.524.524,0,0,1,.54.493c0,.025,0,.05,0,.075s0,.068,0,.106l.007-.021a2.861,2.861,0,0,0,2.491,2.539,4.415,4.415,0,0,0,.695.06c1.434,0,1.947-.9,2.276-2.249a2.916,2.916,0,0,0,.092-.647.686.686,0,0,0,.022-.14.316.316,0,0,1,.191-.3h.055l.654.234.067-.413-.636-.389Zm-9.561,3.477a3.966,3.966,0,0,1-.622.055c-1.19,0-1.6-.712-1.9-1.942a1.291,1.291,0,0,1,.092-1.15c.267-.328.89-.475,2.019-.475l.271,0c2.123.038,2.3.45,2.305.943a2.478,2.478,0,0,1-2.169,2.566m8.724-1.888c-.3,1.23-.706,1.942-1.9,1.942h0a3.964,3.964,0,0,1-.622-.055,2.478,2.478,0,0,1-2.169-2.566c.005-.494.182-.905,2.3-.943l.272,0c1.129,0,1.752.147,2.019.475a1.291,1.291,0,0,1,.092,1.15" transform="translate(-1093.034 -531.354)" fill="#025e75"/>
        <g id="Raggruppa_31308" data-name="Raggruppa 31308" transform="translate(136.83 71.768)" opacity="0.3">
          <g id="Raggruppa_31307" data-name="Raggruppa 31307">
            <g id="Raggruppa_31306" data-name="Raggruppa 31306" clip-path="url(#clip-path-4)">
              <path id="Tracciato_108577" data-name="Tracciato 108577" d="M1270.378,663.623h-5.141s2.413,3.777,5.141,0" transform="translate(-1265.237 -663.623)" fill="#ea2a2a"/>
            </g>
          </g>
        </g>
        <g id="Raggruppa_31311" data-name="Raggruppa 31311" transform="translate(95.184 61.214)" opacity="0.6">
          <g id="Raggruppa_31310" data-name="Raggruppa 31310">
            <g id="Raggruppa_31309" data-name="Raggruppa 31309" clip-path="url(#clip-path-5)">
              <path id="Tracciato_108578" data-name="Tracciato 108578" d="M895.135,566.027H881.1a.955.955,0,0,0-.955.955v7.8a.955.955,0,0,0,.955.955h14.034a.955.955,0,0,0,.955-.955v-7.8a.955.955,0,0,0-.955-.955" transform="translate(-880.146 -566.027)" fill="#fff"/>
              <path id="Tracciato_108579" data-name="Tracciato 108579" d="M894.978,672.707H881.257a1.111,1.111,0,0,0-1.111,1.111v10.923a1.111,1.111,0,0,0,1.111,1.111h13.721a1.111,1.111,0,0,0,1.111-1.111V673.818a1.111,1.111,0,0,0-1.111-1.111" transform="translate(-880.146 -661.17)" fill="#fff"/>
              <path id="Tracciato_108580" data-name="Tracciato 108580" d="M895.1,810.886H881.131a1.144,1.144,0,0,0-.985,1.253v7.282h15.807c.045,0,.091,0,.136,0v-7.287a1.144,1.144,0,0,0-.985-1.253" transform="translate(-880.146 -784.406)" fill="#fff"/>
              <rect id="Rettangolo_165460" data-name="Rettangolo 165460" width="12.537" height="0.693" transform="translate(1.703 13.257)" fill="#cbe2e8"/>
              <rect id="Rettangolo_165461" data-name="Rettangolo 165461" width="12.537" height="0.693" transform="translate(1.703 15.055)" fill="#cbe2e8"/>
              <rect id="Rettangolo_165462" data-name="Rettangolo 165462" width="12.537" height="0.693" transform="translate(1.703 16.853)" fill="#cbe2e8"/>
              <rect id="Rettangolo_165463" data-name="Rettangolo 165463" width="12.537" height="0.693" transform="translate(1.703 18.651)" fill="#cbe2e8"/>
              <rect id="Rettangolo_165464" data-name="Rettangolo 165464" width="12.537" height="0.693" transform="translate(1.703 20.449)" fill="#cbe2e8"/>
              <rect id="Rettangolo_165465" data-name="Rettangolo 165465" width="9.607" height="0.693" transform="translate(1.749 22.269)" fill="#cbe2e8"/>
              <rect id="Rettangolo_165466" data-name="Rettangolo 165466" width="12.537" height="0.693" transform="translate(1.703 1.809)" fill="#cbe2e8"/>
              <rect id="Rettangolo_165467" data-name="Rettangolo 165467" width="12.537" height="0.693" transform="translate(1.703 3.606)" fill="#cbe2e8"/>
              <rect id="Rettangolo_165468" data-name="Rettangolo 165468" width="12.537" height="0.693" transform="translate(1.703 5.404)" fill="#cbe2e8"/>
              <rect id="Rettangolo_165469" data-name="Rettangolo 165469" width="12.537" height="0.693" transform="translate(1.703 7.202)" fill="#cbe2e8"/>
              <rect id="Rettangolo_165470" data-name="Rettangolo 165470" width="12.537" height="0.693" transform="translate(1.703 28.323)" fill="#cbe2e8"/>
              <rect id="Rettangolo_165471" data-name="Rettangolo 165471" width="12.537" height="0.693" transform="translate(1.703 30.121)" fill="#cbe2e8"/>
              <rect id="Rettangolo_165472" data-name="Rettangolo 165472" width="12.537" height="0.693" transform="translate(1.703 31.919)" fill="#cbe2e8"/>
              <rect id="Rettangolo_165473" data-name="Rettangolo 165473" width="12.537" height="0.693" transform="translate(1.703 33.717)" fill="#cbe2e8"/>
            </g>
          </g>
        </g>
        <rect id="Rettangolo_165475" data-name="Rettangolo 165475" width="61.998" height="9.652" transform="translate(113.917 86.582)" fill="#fff"/>
        <path id="Tracciato_108581" data-name="Tracciato 108581" d="M538.884,1598.31c.464,3.914,3.022,16.614,3.022,16.614h14.247v-29.156h-17.7s.032,9.167.432,12.542" transform="translate(-480.221 -1414.275)" fill="#006569"/>
        <g id="Raggruppa_31314" data-name="Raggruppa 31314" transform="translate(58.231 171.493)" opacity="0.1">
          <g id="Raggruppa_31313" data-name="Raggruppa 31313">
            <g id="Raggruppa_31312" data-name="Raggruppa 31312" clip-path="url(#clip-path-6)">
              <path id="Tracciato_108582" data-name="Tracciato 108582" d="M545.424,1585.769h-6.971s.032,9.167.432,12.542c.464,3.914,3.022,16.614,3.022,16.614h8.5q-.359-2.35-.775-4.692c-1.44-8.154-3.165-16.249-4.2-24.464" transform="translate(-538.453 -1585.769)"/>
            </g>
          </g>
        </g>
        <path id="Tracciato_108583" data-name="Tracciato 108583" d="M1145.6,1103.783c-1.369-.67-6.97.575-8.852,1.628a1.971,1.971,0,0,0-1.133,1.692.755.755,0,0,0,.707.821h11.543a.8.8,0,0,0,.572-1.256,9.336,9.336,0,0,0-2.837-2.885" transform="translate(-1012.801 -984.245)" fill="#ebf3f5"/>
        <path id="Tracciato_108584" data-name="Tracciato 108584" d="M1119.83,1063.526a21.152,21.152,0,0,0-6.733-1.629c-2.086-.107-4.778,1.738-4.778,1.738-1.412,1.738-1.8,3.468.1,5.328.884.866,4.072.9,6.311.319a20.725,20.725,0,0,0,4.7-2.179c.949-.266,3.726,2.989,4.805,1.594.263-.34-3.26-4.374-4.4-5.171" transform="translate(-987.393 -947.054)" fill="#db8569"/>
        <path id="Tracciato_108585" data-name="Tracciato 108585" d="M369.317,679.958c-12.906.368-23.161-.092-24.845,14.671-1.215,10.654,9.6,37.226,10.073,46.483.372,7.282-3.53,20.927-3.53,20.927l33.464-.7s1.5-25.925,1.869-37.347c.054-1.676,3.143-1.953,5.137-9.192a39.01,39.01,0,0,0,.494-19.529c-2.623-8.394-5.413-15.81-22.662-15.318" transform="translate(-307.134 -606.403)" fill="#38517a"/>
        <path id="Tracciato_108586" data-name="Tracciato 108586" d="M381.594,887.095c.027-.139.731-16.633.625-20.571-.111-4.141-.672-8.438-.9-12.575-.305-5.636-3.258-22.681-4.434-25.739-.433-2.7-2.18-5.363-6.7-5.84L344.4,822.6c-.541,11.2,9.688,36.55,10.147,45.547.371,7.282-3.53,20.927-3.53,20.927Z" transform="translate(-307.139 -733.435)" fill="#31476b"/>
        <path id="Tracciato_108587" data-name="Tracciato 108587" d="M686.917,771.838c-5.643-1.372-21.737-1.394-23.3-1.832-2.623-.735-2.518-1.959-2.914-2.544-1.787-2.641-9.744-21.591-12.17-27.384-.734-1.751-4.2-5.561-8.146-4.4-4.754,1.4-7.776,4.026-6.129,8.557a138.9,138.9,0,0,0,6.877,15.59c2.909,5.7,5.647,13.1,9.916,17.917,2.265,2.555,4.834,3.563,8.689,3.7,3.1.112,26.584-2.2,26.913-2.248,3.082-.433,3.828-2.919,2.793-5.251a3.752,3.752,0,0,0-2.526-2.109" transform="translate(-565.26 -655.927)" fill="#38517a"/>
        <path id="Tracciato_108588" data-name="Tracciato 108588" d="M431.375,732.913c-3.913-.2-7.829-.348-11.747-.412-1.948-.032-3.909-.1-5.854.031-1.577.109-3.152.274-4.734.256a16.446,16.446,0,0,1-7.357-1.648,11.537,11.537,0,0,1-2.046-1.468,5.039,5.039,0,0,1-.731-.754q-.149-.185-.3-.37a17.944,17.944,0,0,1-2.033-2.439,27.466,27.466,0,0,1-3.088-6.436c-.65-1.743-1.18-3.528-1.684-5.318-.285-1.013-1.555-4.46-1.845-5.055-1.1-2.49-1.947-5.113-2.953-7.635a31.554,31.554,0,0,0-2.713-4.787,25.149,25.149,0,0,0-2.321-2.181,28.588,28.588,0,0,0-4.87-2.824,37.529,37.529,0,0,0-7.934-2.064,111.762,111.762,0,0,0-12.869-.491c-.151,0-.3-.008-.447-.019-6.1,1.309-10.348,4.639-11.38,13.681-1.215,10.654,9.6,37.226,10.073,46.483.371,7.282-3.53,20.927-3.53,20.927l33.464-.7s1.5-25.925,1.869-37.347c.028-.878.89-1.373,1.991-2.685a35.6,35.6,0,0,0,4.585,6.909c2.265,2.554,4.834,3.563,8.689,3.7,3.1.112,26.584-2.2,26.913-2.248,3.021-.424,3.8-2.821,2.851-5.113" transform="translate(-307.134 -614.754)" fill="#32486e"/>
        <path id="Tracciato_108589" data-name="Tracciato 108589" d="M363.839,1416.974s-33.013-8.036-63.2-2.172c-2.422.47,0,9.868,0,9.868,0,4.386,4.435,7.941,9.906,7.941l46.863,2.787,4.779,25.138h14.662s-.315-21.916-1.3-30.315c-1.278-10.859-11.7-13.249-11.7-13.249" transform="translate(-267.164 -1259.888)" fill="#006569"/>
        <g id="Raggruppa_31317" data-name="Raggruppa 31317" transform="translate(32.396 152.773)" opacity="0.1">
          <g id="Raggruppa_31316" data-name="Raggruppa 31316">
            <g id="Raggruppa_31315" data-name="Raggruppa 31315" clip-path="url(#clip-path-7)">
              <path id="Tracciato_108590" data-name="Tracciato 108590" d="M368.134,1439.877a25.32,25.32,0,0,0-1.121-4.874,19.757,19.757,0,0,0-1.716-2.848,19.4,19.4,0,0,0-2.348-2.37,16.882,16.882,0,0,0-2.346-1.38,15.352,15.352,0,0,0-2.463-.679c-.862-.085-1.727-.137-2.59-.2-1.6-.114-3.19-.294-4.782-.526a13.482,13.482,0,0,1-3.006-.74,11.277,11.277,0,0,1-4.632-2.887,10.5,10.5,0,0,1-2.085-3.536,10.314,10.314,0,0,1-.5-2.845,5.314,5.314,0,0,1,1.179-3.492c-11.773-1.136-26.747-1.486-41.085,1.3-2.422.47,0,9.868,0,9.868,0,4.386,4.435,7.941,9.906,7.941l46.862,2.787,4.779,25.139h8.137c-.435-4.026-.845-8.055-1.2-12.09-.413-2.847-.638-5.715-.991-8.569" transform="translate(-299.561 -1412.66)"/>
            </g>
          </g>
        </g>
        <path id="Tracciato_108591" data-name="Tracciato 108591" d="M225.5,1574.712h-31.9a4.66,4.66,0,0,0-4.66,4.66v3.061a4.66,4.66,0,0,0,4.66,4.66h31.9a4.66,4.66,0,0,0,4.66-4.66v-3.061a4.66,4.66,0,0,0-4.66-4.66" transform="translate(-168.513 -1404.414)" fill="#083640"/>
        <rect id="Rettangolo_165478" data-name="Rettangolo 165478" width="8.471" height="14.01" transform="translate(51.264 186.589)" fill="#083640"/>
        <path id="Tracciato_108592" data-name="Tracciato 108592" d="M273.728,1683.174a3.858,3.858,0,0,0,3.858,3.858h41.465a3.858,3.858,0,0,0,3.858-3.858Z" transform="translate(-244.126 -1501.147)" fill="#083640"/>
        <rect id="Rettangolo_165479" data-name="Rettangolo 165479" width="22.807" height="4.887" transform="translate(44.097 185.775)" fill="#083640"/>
        <path id="Tracciato_108593" data-name="Tracciato 108593" d="M498.9,347.046a13.776,13.776,0,0,0,1.63,27.5h.017a1.625,1.625,0,0,1,1.73,1.52l.085,1.439a1.618,1.618,0,0,0,1.543,1.523c1.718.073,4.453,0,5.376-1.123,3.4-4.121,5.136-15.689,5.215-16.739.989-13.151-8.11-14.562-15.6-14.118" transform="translate(-433.562 -309.454)" fill="#db8569"/>
        <path id="Tracciato_108594" data-name="Tracciato 108594" d="M643.06,631.128a12.3,12.3,0,0,1-3.062-.65c.12.75.761,1.417,1.132,1.389,1.687-.126,4.364,0,5.329-1.071a15.909,15.909,0,0,1-2.484.328,6.381,6.381,0,0,1-.914,0" transform="translate(-570.784 -562.295)" fill="#c4775e"/>
        <path id="Tracciato_108595" data-name="Tracciato 108595" d="M651.843,491.359q-.156-.171-.322-.333-.417-.276-.86-.509c-.354-.137-.716-.263-1.082-.376-.2.2-.4.392-.606.583-.611.564-1.238,1.109-1.859,1.663-.08.071-.158.144-.235.217.656.593.6,1.8,2.2,2.781l.015.006c2.209,1.051,1.8-1.414,2.226-1.91a11.862,11.862,0,0,0,.768-1.176q.031-.1.06-.2V492.1q-.043-.175-.094-.348-.1-.2-.215-.39" transform="translate(-576.923 -437.135)" fill="#c4775e"/>
        <path id="Tracciato_108596" data-name="Tracciato 108596" d="M500.85,346.99c-.657,0-1.309.029-1.949.067A13.678,13.678,0,0,0,486.16,361.61a13.843,13.843,0,0,0,3.132,8.008,28.6,28.6,0,0,0,4.321.02,16.613,16.613,0,0,0,2.711-.644,11.869,11.869,0,0,0,1.28-.7,10.711,10.711,0,0,0,.825-.791,11.491,11.491,0,0,0,.728-1.229,23.316,23.316,0,0,0,1.179-4.278,40.192,40.192,0,0,0,.117-8.923c-.074-.551-.157-1.1-.254-1.647a5.9,5.9,0,0,1,.063-3.115l.588-1.318" transform="translate(-433.562 -309.465)" fill="#e89277"/>
        <path id="Tracciato_108597" data-name="Tracciato 108597" d="M415.521,319.835a19.4,19.4,0,0,0-16.313-2.582c-7.919,2.359-9.9,10.313-13.217,18.9-3.436,8.886-9.231,18.27-7.754,23.5,2.057,7.282,23.924,11.647,30.163,1.067,3.719-6.307-2.244-18.829,3.2-25.7a12.58,12.58,0,0,1,2.738-2.664c.49-.288,4.428-1.573,4.749-1.955,3.978-4.747-1.28-9.042-3.565-10.566" transform="translate(-337.122 -282.238)" fill="#082640"/>
        <path id="Tracciato_108598" data-name="Tracciato 108598" d="M664.746,471.716c-2.514,1.019-1.94,7.077.2,6.95,1.9-.112,2.363-4.428,2.443-5.394a1.586,1.586,0,0,0-.03-.475c-.133-.6-.65-1.877-2.611-1.081" transform="translate(-591.379 -420.476)" fill="#db8569"/>
        <path id="Tracciato_108599" data-name="Tracciato 108599" d="M496.783,814.216h-6.8a9.035,9.035,0,0,1,8.383,7.33c4.655,26.378,5.741,53.447,1.086,79.826a9.035,9.035,0,0,1-8.383,7.33h6.8a9.035,9.035,0,0,0,8.383-7.33c4.655-26.378,3.569-53.447-1.086-79.826a9.035,9.035,0,0,0-8.383-7.33" transform="translate(-436.995 -726.162)" fill="#0e5e6e"/>
        <path id="Tracciato_108600" data-name="Tracciato 108600" d="M210.938,896.322h-21.22c3.682-24.775,2.452-50.078-1.906-74.775a9.035,9.035,0,0,0-8.383-7.33H140.3c-3.849,0-6.262,3.271-5.548,7.33,4.655,26.378,4.2,47.558-.458,73.936-.714,4.059.977,13.22,10.752,13.22h65.893a6.191,6.191,0,0,0,0-12.381" transform="translate(-119.641 -726.163)" fill="#ea6a21"/>
        <path id="Tracciato_108601" data-name="Tracciato 108601" d="M572.54,817.582a14.748,14.748,0,0,1,1.581,1.046,8.914,8.914,0,0,0-3.519-1.943,16.319,16.319,0,0,1,1.938.9" transform="translate(-508.894 -728.364)" fill="#0c4f5c"/>
        <path id="Tracciato_108602" data-name="Tracciato 108602" d="M178.189,889.284c1.065-9.654,5.407-50.78-4.009-66.417a5.86,5.86,0,0,1,2.1-8.019,4.4,4.4,0,0,1,1.6-.632H140.3c-3.849,0-6.262,3.271-5.548,7.33,4.655,26.378,4.2,47.558-.458,73.936-.714,4.06.977,13.22,10.752,13.22h65.893a6.181,6.181,0,0,0,5.027-2.578c-1.736-.065-28.826-.389-30.159-.429-10.266-.307-8.59-10.879-7.616-16.412" transform="translate(-119.641 -726.162)" fill="#c74d24"/>
        <g id="Raggruppa_31320" data-name="Raggruppa 31320" transform="translate(198.018 85.872)" opacity="0.3">
          <g id="Raggruppa_31319" data-name="Raggruppa 31319">
            <g id="Raggruppa_31318" data-name="Raggruppa 31318" clip-path="url(#clip-path-8)">
              <path id="Tracciato_108603" data-name="Tracciato 108603" d="M1836.364,794.059c-3.773.246-5.566,4.309-5.293,6.576.371,3.082,3.183,4.339,4.467,5.528.761.7,2.344,5.838-.007,8.122,0,0,5.842-3.626,3.756-8.5-1.071-2.505-2.005-5.543.508-4.829,2.97.844,3.8-7.367-3.431-6.894" transform="translate(-1831.044 -794.039)" fill="#fff"/>
            </g>
          </g>
        </g>
        <g id="Raggruppa_31323" data-name="Raggruppa 31323" transform="translate(196.312 91.563)" opacity="0.6">
          <g id="Raggruppa_31322" data-name="Raggruppa 31322">
            <g id="Raggruppa_31321" data-name="Raggruppa 31321" clip-path="url(#clip-path-9)">
              <path id="Tracciato_108604" data-name="Tracciato 108604" d="M1819.745,846.684c-5.788-.378-5.121,6.191-2.745,5.516,2.011-.571,1.264,1.859.407,3.864-1.669,3.9,3.005,6.8,3.005,6.8-1.881-1.828-.615-5.935-.006-6.5,1.028-.951,3.277-1.957,3.574-4.423.219-1.814-1.217-5.065-4.235-5.262" transform="translate(-1815.26 -846.669)" fill="#fff"/>
            </g>
          </g>
        </g>
        <path id="Tracciato_108605" data-name="Tracciato 108605" d="M1820.086,977.8l-.078,0,.284-3.2a1.109,1.109,0,0,0-1.1-1.207H1808.64a1.109,1.109,0,0,0-1.1,1.207l1.528,17.2h9.7l.443-4.99a4.55,4.55,0,1,0,.878-9.015m0,7.113a2.555,2.555,0,0,1-.7-.1l.446-5.015c.084-.008.169-.013.255-.013a2.563,2.563,0,1,1,0,5.126" transform="translate(-1612.055 -868.128)" fill="#38517a"/>
        <path id="Tracciato_108606" data-name="Tracciato 108606" d="M1844.6,977.8l-.078,0,.284-3.2a1.109,1.109,0,0,0-1.1-1.207h-1.51c0,.581-.027,1.162-.067,1.74a43.62,43.62,0,0,1-.8,5.9,27.731,27.731,0,0,1-1.848,5.518,11.843,11.843,0,0,1-2.873,4.105,6.242,6.242,0,0,1-1.582,1.148h8.261l.443-4.99a4.55,4.55,0,1,0,.878-9.015m0,7.113a2.554,2.554,0,0,1-.7-.1l.446-5.015c.084-.008.169-.013.255-.013a2.563,2.563,0,1,1,0,5.126" transform="translate(-1636.566 -868.128)" fill="#354c73"/>
        <rect id="Rettangolo_165482" data-name="Rettangolo 165482" width="20.843" height="3.128" transform="translate(145.957 120.551)" fill="#ebf3f5"/>
        <path id="Tracciato_108607" data-name="Tracciato 108607" d="M1516.552,1099.651l-20.186-3.635-2.79.282,2.517,1.237,20.186,3.635a.164.164,0,0,0,.19-.132l.215-1.2a.164.164,0,0,0-.132-.191" transform="translate(-1332.052 -977.487)" fill="#ea6a21"/>
        <path id="Tracciato_108608" data-name="Tracciato 108608" d="M1495,1098.007l.155-.859-1.578.159Z" transform="translate(-1332.053 -978.496)" fill="#083640"/>
        <path id="Tracciato_108609" data-name="Tracciato 108609" d="M1503.23,1096.811l1.473.724.273-1.519-1.633.165Z" transform="translate(-1340.663 -977.487)" fill="#db8569"/>
        <path id="Tracciato_108610" data-name="Tracciato 108610" d="M1563.936,359.3a.7.7,0,0,0-.7.7v.005a.7.7,0,1,0,.7-.708" transform="translate(-1394.177 -320.448)" fill="#fff"/>
        <path id="Tracciato_108611" data-name="Tracciato 108611" d="M1563.936,284.953a.7.7,0,0,0-.7.7v.011a.7.7,0,0,0,.7.7.706.706,0,0,0,0-1.411" transform="translate(-1394.177 -254.137)" fill="#fff"/>
        <path id="Tracciato_108612" data-name="Tracciato 108612" d="M1563.936,260.17a.7.7,0,0,0-.7.7v.011a.7.7,0,0,0,.7.7.706.706,0,0,0,0-1.411" transform="translate(-1394.177 -232.034)" fill="#fff"/>
        <path id="Tracciato_108613" data-name="Tracciato 108613" d="M1563.936,309.738a.7.7,0,0,0-.7.7v.011a.7.7,0,0,0,.7.7.706.706,0,0,0,0-1.411" transform="translate(-1394.177 -276.241)" fill="#fff"/>
        <path id="Tracciato_108614" data-name="Tracciato 108614" d="M1563.936,334.521a.7.7,0,0,0-.7.7v.011a.7.7,0,0,0,.7.7.706.706,0,0,0,0-1.411" transform="translate(-1394.177 -298.344)" fill="#fff"/>
        <path id="Tracciato_108615" data-name="Tracciato 108615" d="M1563.936,235.386a.7.7,0,0,0-.7.7v.011a.7.7,0,0,0,.7.7.706.706,0,0,0,0-1.411" transform="translate(-1394.177 -209.93)" fill="#fff"/>
        <path id="Tracciato_108616" data-name="Tracciato 108616" d="M1563.936,185.819a.7.7,0,0,0-.7.7v.011a.7.7,0,0,0,.7.7.706.706,0,0,0,0-1.411" transform="translate(-1394.177 -165.723)" fill="#fff"/>
        <path id="Tracciato_108617" data-name="Tracciato 108617" d="M1563.936,210.6a.7.7,0,0,0-.7.7v.011a.7.7,0,0,0,.7.7.706.706,0,0,0,0-1.411" transform="translate(-1394.177 -187.826)" fill="#fff"/>
        <path id="Tracciato_108618" data-name="Tracciato 108618" d="M1563.936,161.085a.7.7,0,0,0-.7.7v.005a.7.7,0,1,0,.7-.708" transform="translate(-1394.177 -143.664)" fill="#fff"/>
        <path id="Tracciato_108619" data-name="Tracciato 108619" d="M1706.721,161.085h-.01a.7.7,0,0,0-.7.7.706.706,0,1,0,.708-.7" transform="translate(-1521.516 -143.664)" fill="#fff"/>
        <path id="Tracciato_108620" data-name="Tracciato 108620" d="M1682.924,161.085h-.01a.7.7,0,0,0-.7.7.706.706,0,1,0,.708-.7" transform="translate(-1500.292 -143.664)" fill="#fff"/>
        <path id="Tracciato_108621" data-name="Tracciato 108621" d="M1587.738,161.085h-.01a.7.7,0,0,0-.7.7.705.705,0,1,0,.708-.7" transform="translate(-1415.401 -143.664)" fill="#fff"/>
        <path id="Tracciato_108622" data-name="Tracciato 108622" d="M1635.33,161.085h-.01a.7.7,0,0,0-.7.7.706.706,0,1,0,.708-.7" transform="translate(-1457.845 -143.664)" fill="#fff"/>
        <path id="Tracciato_108623" data-name="Tracciato 108623" d="M1730.517,161.085h-.01a.7.7,0,0,0-.7.7.706.706,0,1,0,.708-.7" transform="translate(-1542.738 -143.664)" fill="#fff"/>
        <path id="Tracciato_108624" data-name="Tracciato 108624" d="M1611.535,161.085h-.01a.7.7,0,0,0-.7.7.706.706,0,1,0,.708-.7" transform="translate(-1436.624 -143.664)" fill="#fff"/>
        <path id="Tracciato_108625" data-name="Tracciato 108625" d="M1659.127,161.085h-.01a.7.7,0,0,0-.7.7.706.706,0,1,0,.708-.7" transform="translate(-1479.069 -143.664)" fill="#fff"/>
        <path id="Tracciato_108626" data-name="Tracciato 108626" d="M1849.5,161.085h-.01a.7.7,0,0,0-.7.7.705.705,0,1,0,.708-.7" transform="translate(-1648.854 -143.664)" fill="#fff"/>
        <path id="Tracciato_108627" data-name="Tracciato 108627" d="M1825.7,161.085h-.01a.7.7,0,0,0-.7.7.705.705,0,1,0,.708-.7" transform="translate(-1627.631 -143.664)" fill="#fff"/>
        <path id="Tracciato_108628" data-name="Tracciato 108628" d="M1873.3,161.085h-.01a.7.7,0,0,0-.7.7.706.706,0,1,0,.708-.7" transform="translate(-1670.076 -143.664)" fill="#fff"/>
        <path id="Tracciato_108629" data-name="Tracciato 108629" d="M1778.109,161.085h-.01a.7.7,0,0,0-.7.7.706.706,0,1,0,.708-.7" transform="translate(-1585.183 -143.664)" fill="#fff"/>
        <path id="Tracciato_108630" data-name="Tracciato 108630" d="M1754.312,161.085h-.01a.7.7,0,0,0-.7.7.706.706,0,1,0,.708-.7" transform="translate(-1563.96 -143.664)" fill="#fff"/>
        <path id="Tracciato_108631" data-name="Tracciato 108631" d="M1801.906,161.085h-.01a.7.7,0,0,0-.7.7.706.706,0,1,0,.708-.7" transform="translate(-1606.407 -143.664)" fill="#fff"/>
        <path id="Tracciato_108632" data-name="Tracciato 108632" d="M1897.066,161.085h-.005a.706.706,0,1,0,.005,0" transform="translate(-1691.279 -143.664)" fill="#fff"/>
        <path id="Tracciato_108633" data-name="Tracciato 108633" d="M1839.091,524.041h-.01a.7.7,0,0,0-.7.7.706.706,0,1,0,.708-.7" transform="translate(-1639.571 -467.368)" fill="#fff"/>
        <path id="Tracciato_108634" data-name="Tracciato 108634" d="M1863.161,524.041h-.01a.7.7,0,0,0-.7.7.706.706,0,1,0,.708-.7" transform="translate(-1661.038 -467.368)" fill="#fff"/>
        <path id="Tracciato_108635" data-name="Tracciato 108635" d="M1887.232,524.041h-.01a.7.7,0,0,0-.7.7.706.706,0,1,0,.708-.7" transform="translate(-1682.506 -467.368)" fill="#fff"/>
        <path id="Tracciato_108636" data-name="Tracciato 108636" d="M1911.3,524.041h-.01a.7.7,0,0,0-.7.7.706.706,0,1,0,.708-.7" transform="translate(-1703.973 -467.368)" fill="#fff"/>
        <path id="Tracciato_108637" data-name="Tracciato 108637" d="M1815.019,524.041h-.01a.7.7,0,0,0-.7.7.706.706,0,1,0,.708-.7" transform="translate(-1618.102 -467.368)" fill="#fff"/>
        <path id="Tracciato_108638" data-name="Tracciato 108638" d="M1766.878,524.041h-.01a.7.7,0,0,0-.7.7.706.706,0,1,0,.708-.7" transform="translate(-1575.167 -467.368)" fill="#fff"/>
        <path id="Tracciato_108639" data-name="Tracciato 108639" d="M1790.949,524.041h-.01a.7.7,0,0,0-.7.7.706.706,0,1,0,.708-.7" transform="translate(-1596.635 -467.368)" fill="#fff"/>
        <path id="Tracciato_108640" data-name="Tracciato 108640" d="M1983.515,524.041h-.01a.7.7,0,0,0-.7.7.706.706,0,1,0,.708-.7" transform="translate(-1768.376 -467.368)" fill="#fff"/>
        <path id="Tracciato_108641" data-name="Tracciato 108641" d="M2031.657,524.041h-.01a.7.7,0,0,0-.7.7.706.706,0,1,0,.708-.7" transform="translate(-1811.312 -467.368)" fill="#fff"/>
        <path id="Tracciato_108642" data-name="Tracciato 108642" d="M1935.374,524.041h-.01a.7.7,0,0,0-.7.7.706.706,0,1,0,.708-.7" transform="translate(-1725.441 -467.368)" fill="#fff"/>
        <path id="Tracciato_108643" data-name="Tracciato 108643" d="M2079.8,524.041h-.01a.7.7,0,0,0-.7.7.706.706,0,1,0,.708-.7" transform="translate(-1854.247 -467.368)" fill="#fff"/>
        <path id="Tracciato_108644" data-name="Tracciato 108644" d="M2055.729,524.041h-.011a.7.7,0,0,0-.7.7.706.706,0,1,0,.708-.7" transform="translate(-1832.78 -467.368)" fill="#fff"/>
        <path id="Tracciato_108645" data-name="Tracciato 108645" d="M1959.445,524.041h-.01a.7.7,0,0,0-.7.7.706.706,0,1,0,.708-.7" transform="translate(-1746.909 -467.368)" fill="#fff"/>
        <path id="Tracciato_108646" data-name="Tracciato 108646" d="M2007.587,524.041h-.01a.7.7,0,0,0-.7.7.705.705,0,1,0,.708-.7" transform="translate(-1789.845 -467.368)" fill="#fff"/>
        <path id="Tracciato_108647" data-name="Tracciato 108647" d="M1619.293,359.3a.7.7,0,0,0-.7.7v.005a.7.7,0,1,0,.7-.708" transform="translate(-1443.547 -320.448)" fill="#fff"/>
        <path id="Tracciato_108648" data-name="Tracciato 108648" d="M1619.293,335.149a.7.7,0,0,0-.7.7v.01a.7.7,0,0,0,.7.7.706.706,0,0,0,0-1.411" transform="translate(-1443.547 -298.904)" fill="#fff"/>
        <path id="Tracciato_108649" data-name="Tracciato 108649" d="M1619.293,311.041a.7.7,0,0,0-.7.7v.005a.7.7,0,1,0,.7-.708" transform="translate(-1443.547 -277.403)" fill="#fff"/>
        <path id="Tracciato_108650" data-name="Tracciato 108650" d="M1812.281,311.041h-.011a.7.7,0,0,0-.7.7.706.706,0,1,0,.708-.7" transform="translate(-1615.659 -277.403)" fill="#fff"/>
        <path id="Tracciato_108651" data-name="Tracciato 108651" d="M1836.4,311.041h-.01a.7.7,0,0,0-.7.7.706.706,0,1,0,.708-.7" transform="translate(-1637.174 -277.403)" fill="#fff"/>
        <path id="Tracciato_108652" data-name="Tracciato 108652" d="M1764.035,311.041h-.01a.7.7,0,0,0-.7.7.705.705,0,1,0,.708-.7" transform="translate(-1572.632 -277.403)" fill="#fff"/>
        <path id="Tracciato_108653" data-name="Tracciato 108653" d="M1884.649,311.041h-.01a.7.7,0,0,0-.7.7.706.706,0,1,0,.708-.7" transform="translate(-1680.202 -277.403)" fill="#fff"/>
        <path id="Tracciato_108654" data-name="Tracciato 108654" d="M1860.526,311.041h-.01a.7.7,0,0,0-.7.7.705.705,0,1,0,.708-.7" transform="translate(-1658.688 -277.403)" fill="#fff"/>
        <path id="Tracciato_108655" data-name="Tracciato 108655" d="M1788.158,311.041h-.01a.7.7,0,0,0-.7.7.706.706,0,1,0,.708-.7" transform="translate(-1594.146 -277.403)" fill="#fff"/>
        <path id="Tracciato_108656" data-name="Tracciato 108656" d="M1667.543,311.041h-.01a.7.7,0,0,0-.7.7.706.706,0,1,0,.708-.7" transform="translate(-1486.575 -277.403)" fill="#fff"/>
        <path id="Tracciato_108657" data-name="Tracciato 108657" d="M1643.42,311.041h-.01a.7.7,0,0,0-.7.7.706.706,0,1,0,.708-.7" transform="translate(-1465.061 -277.403)" fill="#fff"/>
        <path id="Tracciato_108658" data-name="Tracciato 108658" d="M1691.666,311.041h-.01a.7.7,0,0,0-.7.7.706.706,0,1,0,.708-.7" transform="translate(-1508.089 -277.403)" fill="#fff"/>
        <path id="Tracciato_108659" data-name="Tracciato 108659" d="M1739.912,311.041h-.01a.7.7,0,0,0-.7.7.706.706,0,1,0,.708-.7" transform="translate(-1551.117 -277.403)" fill="#fff"/>
        <path id="Tracciato_108660" data-name="Tracciato 108660" d="M1715.789,311.041h-.01a.7.7,0,0,0-.7.7.706.706,0,1,0,.708-.7" transform="translate(-1529.603 -277.403)" fill="#fff"/>
        <path id="Tracciato_108661" data-name="Tracciato 108661" d="M1908.772,311.041h-.01a.7.7,0,0,0-.7.7.706.706,0,1,0,.708-.7" transform="translate(-1701.716 -277.403)" fill="#fff"/>
        <path id="Tracciato_108662" data-name="Tracciato 108662" d="M2101.756,311.041h-.01a.7.7,0,0,0-.7.7.705.705,0,1,0,.708-.7" transform="translate(-1873.83 -277.403)" fill="#fff"/>
        <path id="Tracciato_108663" data-name="Tracciato 108663" d="M2077.633,311.041h-.01a.7.7,0,0,0-.7.7.706.706,0,1,0,.708-.7" transform="translate(-1852.316 -277.403)" fill="#fff"/>
        <path id="Tracciato_108664" data-name="Tracciato 108664" d="M2125.879,311.041h-.01a.7.7,0,0,0-.7.7.706.706,0,1,0,.708-.7" transform="translate(-1895.344 -277.403)" fill="#fff"/>
        <path id="Tracciato_108665" data-name="Tracciato 108665" d="M1932.9,311.041h-.01a.7.7,0,0,0-.7.7.706.706,0,1,0,.708-.7" transform="translate(-1723.23 -277.403)" fill="#fff"/>
        <path id="Tracciato_108666" data-name="Tracciato 108666" d="M2150,311.041h-.01a.7.7,0,0,0-.7.7.706.706,0,1,0,.708-.7" transform="translate(-1916.857 -277.403)" fill="#fff"/>
        <path id="Tracciato_108667" data-name="Tracciato 108667" d="M2174.125,311.041h-.011a.7.7,0,0,0-.7.7.706.706,0,1,0,.708-.7" transform="translate(-1938.372 -277.403)" fill="#fff"/>
        <path id="Tracciato_108668" data-name="Tracciato 108668" d="M1981.141,311.041h-.01a.7.7,0,0,0-.7.7.706.706,0,1,0,.708-.7" transform="translate(-1766.258 -277.403)" fill="#fff"/>
        <path id="Tracciato_108669" data-name="Tracciato 108669" d="M1957.018,311.041h-.01a.7.7,0,0,0-.7.7.706.706,0,1,0,.708-.7" transform="translate(-1744.745 -277.403)" fill="#fff"/>
        <path id="Tracciato_108670" data-name="Tracciato 108670" d="M2053.51,311.041h-.01a.7.7,0,0,0-.7.7.706.706,0,1,0,.708-.7" transform="translate(-1830.801 -277.403)" fill="#fff"/>
        <path id="Tracciato_108671" data-name="Tracciato 108671" d="M2005.265,311.041h-.01a.7.7,0,0,0-.7.7.705.705,0,1,0,.708-.7" transform="translate(-1787.774 -277.403)" fill="#fff"/>
        <path id="Tracciato_108672" data-name="Tracciato 108672" d="M2029.387,311.041h-.01a.7.7,0,0,0-.7.7.706.706,0,1,0,.708-.7" transform="translate(-1809.287 -277.403)" fill="#fff"/>
        <path id="Tracciato_108673" data-name="Tracciato 108673" d="M2198.223,311.041h-.005a.706.706,0,1,0,.005,0" transform="translate(-1959.866 -277.403)" fill="#fff"/>
        <g id="Raggruppa_31326" data-name="Raggruppa 31326" transform="translate(235.154 28.939)" opacity="0.4">
          <g id="Raggruppa_31325" data-name="Raggruppa 31325">
            <g id="Raggruppa_31324" data-name="Raggruppa 31324" clip-path="url(#clip-path-10)">
              <path id="Tracciato_108674" data-name="Tracciato 108674" d="M2175.758,267.594a1.324,1.324,0,1,0,1.324,1.324,1.324,1.324,0,0,0-1.324-1.324" transform="translate(-2174.433 -267.594)" fill="#fff"/>
            </g>
          </g>
        </g>
        <g id="Raggruppa_31329" data-name="Raggruppa 31329" transform="translate(230.607 28.939)" opacity="0.7">
          <g id="Raggruppa_31328" data-name="Raggruppa 31328">
            <g id="Raggruppa_31327" data-name="Raggruppa 31327" clip-path="url(#clip-path-11)">
              <path id="Tracciato_108675" data-name="Tracciato 108675" d="M2133.7,267.594a1.324,1.324,0,1,0,1.324,1.324,1.324,1.324,0,0,0-1.324-1.324" transform="translate(-2132.376 -267.594)" fill="#fff"/>
            </g>
          </g>
        </g>
        <path id="Tracciato_108676" data-name="Tracciato 108676" d="M2091.644,267.594a1.324,1.324,0,1,0,1.324,1.324,1.324,1.324,0,0,0-1.324-1.324" transform="translate(-1864.261 -238.655)" fill="#fff"/>
        <g id="Raggruppa_31332" data-name="Raggruppa 31332" transform="translate(201.819 52.124)" opacity="0.4">
          <g id="Raggruppa_31331" data-name="Raggruppa 31331">
            <g id="Raggruppa_31330" data-name="Raggruppa 31330" clip-path="url(#clip-path-12)">
              <path id="Tracciato_108677" data-name="Tracciato 108677" d="M1867.51,481.979a1.324,1.324,0,1,0,1.324,1.324,1.324,1.324,0,0,0-1.324-1.324" transform="translate(-1866.187 -481.979)" fill="#fff"/>
            </g>
          </g>
        </g>
        <g id="Raggruppa_31335" data-name="Raggruppa 31335" transform="translate(197.271 52.124)" opacity="0.7">
          <g id="Raggruppa_31334" data-name="Raggruppa 31334">
            <g id="Raggruppa_31333" data-name="Raggruppa 31333" clip-path="url(#clip-path-12)">
              <path id="Tracciato_108678" data-name="Tracciato 108678" d="M1825.453,481.979a1.324,1.324,0,1,0,1.324,1.324,1.325,1.325,0,0,0-1.324-1.324" transform="translate(-1824.129 -481.979)" fill="#fff"/>
            </g>
          </g>
        </g>
        <path id="Tracciato_108679" data-name="Tracciato 108679" d="M1783.4,481.979a1.324,1.324,0,1,0,1.324,1.324,1.324,1.324,0,0,0-1.324-1.324" transform="translate(-1589.35 -429.855)" fill="#fff"/>
        <g id="Raggruppa_31338" data-name="Raggruppa 31338" transform="translate(111.869 29.821)" opacity="0.4">
          <g id="Raggruppa_31337" data-name="Raggruppa 31337">
            <g id="Raggruppa_31336" data-name="Raggruppa 31336" clip-path="url(#clip-path-14)">
              <path id="Tracciato_108680" data-name="Tracciato 108680" d="M1035.757,275.751a1.324,1.324,0,1,0,1.324,1.324,1.324,1.324,0,0,0-1.324-1.324" transform="translate(-1034.433 -275.751)" fill="#fff"/>
            </g>
          </g>
        </g>
        <g id="Raggruppa_31341" data-name="Raggruppa 31341" transform="translate(107.321 29.821)" opacity="0.7">
          <g id="Raggruppa_31340" data-name="Raggruppa 31340">
            <g id="Raggruppa_31339" data-name="Raggruppa 31339" clip-path="url(#clip-path-15)">
              <path id="Tracciato_108681" data-name="Tracciato 108681" d="M993.7,275.751a1.324,1.324,0,1,0,1.324,1.324,1.324,1.324,0,0,0-1.324-1.324" transform="translate(-992.376 -275.751)" fill="#fff"/>
            </g>
          </g>
        </g>
        <path id="Tracciato_108682" data-name="Tracciato 108682" d="M951.642,275.751a1.324,1.324,0,1,0,1.324,1.324,1.324,1.324,0,0,0-1.324-1.324" transform="translate(-847.546 -245.93)" fill="#fff"/>
        <g id="Raggruppa_31344" data-name="Raggruppa 31344" transform="translate(178.053 12.734)" opacity="0.4">
          <g id="Raggruppa_31343" data-name="Raggruppa 31343">
            <g id="Raggruppa_31342" data-name="Raggruppa 31342" clip-path="url(#clip-path-14)">
              <path id="Tracciato_108683" data-name="Tracciato 108683" d="M1647.758,117.752a1.324,1.324,0,1,0,1.324,1.324,1.324,1.324,0,0,0-1.324-1.324" transform="translate(-1646.433 -117.752)" fill="#fff"/>
            </g>
          </g>
        </g>
        <g id="Raggruppa_31347" data-name="Raggruppa 31347" transform="translate(173.506 12.734)" opacity="0.7">
          <g id="Raggruppa_31346" data-name="Raggruppa 31346">
            <g id="Raggruppa_31345" data-name="Raggruppa 31345" clip-path="url(#clip-path-12)">
              <path id="Tracciato_108684" data-name="Tracciato 108684" d="M1605.7,117.752a1.324,1.324,0,1,0,1.324,1.324,1.324,1.324,0,0,0-1.324-1.324" transform="translate(-1604.376 -117.752)" fill="#fff"/>
            </g>
          </g>
        </g>
        <path id="Tracciato_108685" data-name="Tracciato 108685" d="M1563.643,117.752a1.324,1.324,0,1,0,1.324,1.324,1.325,1.325,0,0,0-1.324-1.324" transform="translate(-1393.361 -105.017)" fill="#fff"/>
        <path id="Tracciato_108686" data-name="Tracciato 108686" d="M1442.7,386.745h-27.82a4.234,4.234,0,0,0-3.956,4.466v15.5l-1.345,8,7.544-4.564H1442.7a4.234,4.234,0,0,0,3.956-4.466V391.211a4.234,4.234,0,0,0-3.956-4.466" transform="translate(-1257.139 -344.92)" fill="#fff"/>
        <path id="Tracciato_108687" data-name="Tracciato 108687" d="M1353.6,241.592h-.005a.706.706,0,1,0,.005,0" transform="translate(-1206.589 -215.465)" fill="#fff"/>
        <path id="Tracciato_108688" data-name="Tracciato 108688" d="M1404.868,241.592h-.011a.7.7,0,0,0,0,1.406h.011a.7.7,0,1,0,0-1.406" transform="translate(-1252.302 -215.465)" fill="#fff"/>
        <path id="Tracciato_108689" data-name="Tracciato 108689" d="M1379.2,241.592h-.011a.7.7,0,1,0,0,1.406h.011a.7.7,0,0,0,0-1.406" transform="translate(-1229.41 -215.465)" fill="#fff"/>
        <path id="Tracciato_108690" data-name="Tracciato 108690" d="M1456.2,241.592h-.011a.7.7,0,0,0,0,1.406h.011a.7.7,0,0,0,0-1.406" transform="translate(-1298.084 -215.465)" fill="#fff"/>
        <path id="Tracciato_108691" data-name="Tracciato 108691" d="M1430.535,241.592h-.011a.7.7,0,0,0,0,1.406h.011a.7.7,0,1,0,0-1.406" transform="translate(-1275.193 -215.465)" fill="#fff"/>
        <path id="Tracciato_108692" data-name="Tracciato 108692" d="M1481.868,241.592h-.011a.7.7,0,1,0,0,1.406h.011a.7.7,0,0,0,0-1.406" transform="translate(-1320.974 -215.465)" fill="#fff"/>
        <path id="Tracciato_108693" data-name="Tracciato 108693" d="M1507.55,241.592h-.005a.705.705,0,1,0,.005,0" transform="translate(-1343.887 -215.465)" fill="#fff"/>
        <path id="Tracciato_108694" data-name="Tracciato 108694" d="M1507.571,335.8a.705.705,0,1,0,.7.708v-.01a.7.7,0,0,0-.7-.7" transform="translate(-1343.908 -299.485)" fill="#fff"/>
        <path id="Tracciato_108695" data-name="Tracciato 108695" d="M1507.571,312.248a.706.706,0,1,0,.7.708v-.01a.7.7,0,0,0-.7-.7" transform="translate(-1343.908 -278.48)" fill="#fff"/>
        <path id="Tracciato_108696" data-name="Tracciato 108696" d="M1507.571,265.145a.705.705,0,1,0,.7.708v-.01a.7.7,0,0,0-.7-.7" transform="translate(-1343.908 -236.471)" fill="#fff"/>
        <path id="Tracciato_108697" data-name="Tracciato 108697" d="M1507.571,288.7a.705.705,0,1,0,.7.708v-.01a.7.7,0,0,0-.7-.7" transform="translate(-1343.908 -257.476)" fill="#fff"/>
        <path id="Tracciato_108698" data-name="Tracciato 108698" d="M1507.571,359.329a.7.7,0,1,0,.7.706v-.005a.7.7,0,0,0-.7-.7" transform="translate(-1343.908 -320.469)" fill="#fff"/>
        <path id="Tracciato_108699" data-name="Tracciato 108699" d="M958.021,143.526a.7.7,0,1,0,.7.706v-.005a.7.7,0,0,0-.7-.7" transform="translate(-853.789 -128.004)" fill="#fff"/>
        <path id="Tracciato_108700" data-name="Tracciato 108700" d="M958.021,217.07a.706.706,0,1,0,.7.708v-.011a.7.7,0,0,0-.7-.7" transform="translate(-853.789 -193.595)" fill="#fff"/>
        <path id="Tracciato_108701" data-name="Tracciato 108701" d="M958.021,192.547a.706.706,0,1,0,.7.708v-.011a.7.7,0,0,0-.7-.7" transform="translate(-853.789 -171.724)" fill="#fff"/>
        <path id="Tracciato_108702" data-name="Tracciato 108702" d="M958.021,168.024a.706.706,0,1,0,.7.708v-.011a.7.7,0,0,0-.7-.7" transform="translate(-853.789 -149.853)" fill="#fff"/>
        <path id="Tracciato_108703" data-name="Tracciato 108703" d="M958.021,241.568a.7.7,0,1,0,.705.706.707.707,0,0,0-.705-.706" transform="translate(-853.789 -215.443)" fill="#fff"/>
        <path id="Tracciato_108704" data-name="Tracciato 108704" d="M982.685,241.592h-.01a.7.7,0,0,0-.7.7.706.706,0,1,0,.708-.7" transform="translate(-875.781 -215.465)" fill="#fff"/>
        <path id="Tracciato_108705" data-name="Tracciato 108705" d="M1007.345,241.592h-.011a.7.7,0,0,0-.7.7.706.706,0,1,0,.708-.7" transform="translate(-897.774 -215.465)" fill="#fff"/>
        <path id="Tracciato_108706" data-name="Tracciato 108706" d="M1056.664,241.592h-.01a.7.7,0,0,0-.7.7.706.706,0,1,0,.708-.7" transform="translate(-941.76 -215.465)" fill="#fff"/>
        <path id="Tracciato_108707" data-name="Tracciato 108707" d="M1081.324,241.592h-.011a.7.7,0,0,0-.7.7.706.706,0,1,0,.708-.7" transform="translate(-963.753 -215.465)" fill="#fff"/>
        <path id="Tracciato_108708" data-name="Tracciato 108708" d="M1032,241.592h-.011a.7.7,0,0,0-.7.7.706.706,0,1,0,.708-.7" transform="translate(-919.766 -215.465)" fill="#fff"/>
        <path id="Tracciato_108709" data-name="Tracciato 108709" d="M1105.957,241.592h-.005a.706.706,0,1,0,.005,0" transform="translate(-985.723 -215.465)" fill="#fff"/>
        <path id="Tracciato_108710" data-name="Tracciato 108710" d="M1972.734,381.552a16.114,16.114,0,1,0,16.114,16.114,16.114,16.114,0,0,0-16.114-16.114" transform="translate(-1745.021 -340.289)" fill="#29b3b8"/>
        <path id="Tracciato_108711" data-name="Tracciato 108711" d="M2054.506,532.588h-.086l-6.739,2.722a.324.324,0,0,1-.243,0l-6.847-2.766h-.072V536.8c0,1.37,3.136,2.48,7.005,2.48s7.006-1.11,7.006-2.48a.9.9,0,0,0-.023-.193Z" transform="translate(-1819.846 -474.952)" fill="#fff"/>
        <path id="Tracciato_108712" data-name="Tracciato 108712" d="M2028.6,468.769l-10.276-4.151a.323.323,0,0,0-.243,0l-10.276,4.151a.324.324,0,0,0,0,.6l1.489.6v5.179a.763.763,0,0,0-.191,1.3l-.249,2.413h1.5l-.252-2.444a.761.761,0,0,0-.187-1.248V470.32l.111-.052,1.135.459.073.029,6.847,2.766a.324.324,0,0,0,.243,0l6.739-2.722.086-.035,3.45-1.394a.324.324,0,0,0,0-.6" transform="translate(-1790.492 -414.351)" fill="#fff"/>
        <path id="Tracciato_108713" data-name="Tracciato 108713" d="M1136.045,59.759a15.519,15.519,0,1,0,15.519,15.519,15.519,15.519,0,0,0-15.519-15.519" transform="translate(-999.347 -53.296)" fill="#29b3b8"/>
        <path id="Tracciato_108714" data-name="Tracciato 108714" d="M1177.04,163.717a21.85,21.85,0,0,0-3.464-.29c-.142,0-.221,0-.224,0l-.387.01V153.411c-.61.134-.985.241-.985.241v11.517s5.942-1.114,9.434.216l-.034-.027a9.6,9.6,0,0,0-4.339-1.64" transform="translate(-1045.236 -136.82)" fill="#fff"/>
        <path id="Tracciato_108715" data-name="Tracciato 108715" d="M1274.6,163.44l-.387-.01s-.082,0-.224,0a21.865,21.865,0,0,0-3.464.29,9.6,9.6,0,0,0-4.339,1.64l-.034.027c3.492-1.329,9.434-.216,9.434-.216V153.652s-.375-.107-.986-.241Z" transform="translate(-1129.224 -136.82)" fill="#fff"/>
        <path id="Tracciato_108716" data-name="Tracciato 108716" d="M1188.662,139.455v10.772s4.94,0,7.518,2.16V141.464c-2.578-2.16-7.518-2.009-7.518-2.009" transform="translate(-1060.114 -124.372)" fill="#fff"/>
        <path id="Tracciato_108717" data-name="Tracciato 108717" d="M1266.439,141.463v10.923c2.6-2.16,7.6-2.084,7.6-2.084V139.454s-4.994-.151-7.6,2.009" transform="translate(-1129.48 -124.371)" fill="#fff"/>
        <path id="Tracciato_108718" data-name="Tracciato 108718" d="M1253.5,261.629c-.221,0-.744-.072-.858-.226h-.308a.545.545,0,0,1-.11-.011,1.352,1.352,0,0,0,2.258.011h-.415a.714.714,0,0,1-.567.226" transform="translate(-1116.804 -233.124)" fill="#fff"/>
        <path id="Tracciato_108719" data-name="Tracciato 108719" d="M1790.124,35.735a14.091,14.091,0,1,0,14.091,14.091,14.091,14.091,0,0,0-14.091-14.091" transform="translate(-1583.964 -31.87)" fill="#29b3b8"/>
        <path id="Tracciato_108720" data-name="Tracciato 108720" d="M1862.6,81.016l.281-1.989-1.979-.347-.942-1.775-1.8.882-1.8-.882-.942,1.775-1.979.347.281,1.989-1.4,1.444,1.4,1.444-.281,1.989,1.979.347.942,1.775,1.8-.882,1.8.882.942-1.775,1.979-.347L1862.6,83.9l1.4-1.444Zm-1.435,1.752a3.024,3.024,0,1,1-3.317-3.317,3.034,3.034,0,0,1,3.317,3.317" transform="translate(-1652 -68.588)" fill="#fff"/>
        <path id="Tracciato_108721" data-name="Tracciato 108721" d="M1859.077,172.75l-1.091,2.056-.354-.173-.859-.42-.879-.429-.766.374-1.325.648-1.091-2.056-.348-.061-2.586,7.369,2.873-1.154,1.549,2.681,1.693-4.9.036-.1.352,1.063,1.305,3.942,1.549-2.681,2.873,1.154-2.447-7.394Z" transform="translate(-1649.735 -153.991)" fill="#fff"/>
        <path id="Tracciato_108722" data-name="Tracciato 108722" d="M2238.916,194.817a13.36,13.36,0,1,0,13.359,13.36,13.36,13.36,0,0,0-13.359-13.36" transform="translate(-1984.873 -173.748)" fill="#29b3b8"/>
        <path id="Tracciato_108723" data-name="Tracciato 108723" d="M2287.592,272.026a1.551,1.551,0,0,0-1.25,2.476l-2.906,4.468a1.5,1.5,0,0,0-.665,0l-2.871-4.46a1.556,1.556,0,1,0-2.5-.006l-2.906,4.468a1.556,1.556,0,1,0,1.221,1.518,1.543,1.543,0,0,0-.306-.92l2.906-4.468a1.492,1.492,0,0,0,.664,0l2.871,4.46a1.557,1.557,0,1,0,2.5.006l2.906-4.468a1.556,1.556,0,1,0,.336-3.075" transform="translate(-2026.835 -242.607)" fill="#fff"/>
        <path id="Tracciato_108724" data-name="Tracciato 108724" d="M869.974,0a11.234,11.234,0,1,0,11.234,11.234A11.234,11.234,0,0,0,869.974,0" transform="translate(-765.871 0.002)" fill="#29b3b8"/>
        <path id="Tracciato_108725" data-name="Tracciato 108725" d="M934.8,65.5a3.376,3.376,0,0,0-3.221,4.377h-.011s.687,1.854.857,2.49a20.129,20.129,0,0,1,.474,2.07l3.76.174a14.4,14.4,0,0,1,.5-2.244c.12-.447.494-1.494.706-2.078A3.373,3.373,0,0,0,934.8,65.5" transform="translate(-830.697 -58.42)" fill="#fff"/>
        <path id="Tracciato_108726" data-name="Tracciato 108726" d="M944.6,157.685v.112a1.057,1.057,0,0,0,.02.2l3.848.179a.907.907,0,0,0,.029-.225v-.085h-.008Z" transform="translate(-842.445 -140.632)" fill="#fff"/>
        <path id="Tracciato_108727" data-name="Tracciato 108727" d="M944.6,151.466v.312h.008l3.889.18v-.311h-.008Z" transform="translate(-842.445 -135.085)" fill="#fff"/>
        <path id="Tracciato_108728" data-name="Tracciato 108728" d="M947.04,164.47a.942.942,0,0,0,1.773,0h.154a.907.907,0,0,0,.7-.331l-3.523-.163a1.063,1.063,0,0,0,.9.494" transform="translate(-843.824 -146.243)" fill="#fff"/>
        <path id="Tracciato_108729" data-name="Tracciato 108729" d="M936.332,33.7a.392.392,0,1,0-.728.29l.749,1.88a.392.392,0,1,0,.728-.29Z" transform="translate(-834.398 -29.833)" fill="#fff"/>
        <path id="Tracciato_108730" data-name="Tracciato 108730" d="M1001.377,68.343l-1.88.749a.392.392,0,1,0,.29.727l1.88-.749a.392.392,0,0,0-.29-.728" transform="translate(-891.186 -60.927)" fill="#fff"/>
        <path id="Tracciato_108731" data-name="Tracciato 108731" d="M977.277,34.129a.392.392,0,0,0-.514.2l-.8,1.859a.392.392,0,1,0,.72.31l.8-1.859a.392.392,0,0,0-.205-.515" transform="translate(-870.389 -30.409)" fill="#fff"/>
        <path id="Tracciato_108732" data-name="Tracciato 108732" d="M903.762,67.591l-1.859-.8a.392.392,0,1,0-.309.719l1.859.8a.392.392,0,1,0,.309-.719" transform="translate(-803.88 -59.54)" fill="#fff"/>
        <rect id="Rettangolo_165491" data-name="Rettangolo 165491" width="25.39" height="1.576" transform="translate(159.063 46.529)" fill="#cbe2e8"/>
        <rect id="Rettangolo_165492" data-name="Rettangolo 165492" width="25.39" height="1.576" transform="translate(159.063 50.731)" fill="#cbe2e8"/>
        <rect id="Rettangolo_165493" data-name="Rettangolo 165493" width="25.39" height="1.576" transform="translate(159.063 54.933)" fill="#cbe2e8"/>
        <rect id="Rettangolo_165494" data-name="Rettangolo 165494" width="18.155" height="1.576" transform="translate(159.063 59.136)" fill="#cbe2e8"/>
        <path id="Tracciato_108733" data-name="Tracciato 108733" d="M2458.449,1363.472c-5.652,10.394-11.536,33.543-11.536,33.543s9.493-16.441,12.446-23.312,5.188-20.625,5.188-20.625-.446,0-6.1,10.394" transform="translate(-2182.291 -1206.749)" fill="#0a414d"/>
        <path id="Tracciato_108734" data-name="Tracciato 108734" d="M2333.091,1194.8c-.433,21.891,8.744,30.782,8.744,30.782,4.322-8.33-5.652-61.712-5.652-61.712s-2.659,9.04-3.092,30.93" transform="translate(-2080.765 -1038.002)" fill="#0e5e6e"/>
        <path id="Tracciato_108735" data-name="Tracciato 108735" d="M2395.35,1118.085c-.665-14.866-3.657-17.686-2.9-15.1s-2.417,17.916-2.877,35.375a86.8,86.8,0,0,0,5.779,32.266s1.816-9.227,1.662-26.824c-.089-10.177-1-10.854-1.662-25.72" transform="translate(-2131.129 -982.943)" fill="#0a414d"/>
        <path id="Tracciato_108736" data-name="Tracciato 108736" d="M2456.455,1192.765s-4.932,8.579-5.894,22.215-2.611,30.578-.13,39.294a61.812,61.812,0,0,1,3.207-15.661c2.684-7.041,3.554-26.012,3.154-32.2s-.337-13.643-.337-13.643" transform="translate(-2184.266 -1063.773)" fill="#0e5e6e"/>
        <path id="Tracciato_108737" data-name="Tracciato 108737" d="M2240.034,1376.259s4.038,27.961,14.984,38.743c0,0-.461-16.145-4.565-22.29s-10.42-16.453-10.42-16.453" transform="translate(-1997.785 -1227.423)" fill="#0e5e6e"/>
        <path id="Tracciato_108738" data-name="Tracciato 108738" d="M2268.037,1697.546H2298.2l1.695-18.962h-33.551Z" transform="translate(-2021.248 -1497.053)" fill="#fff"/>
        <path id="Tracciato_108739" data-name="Tracciato 108739" d="M2427.745,1678.584c-.535,4.362-1.25,8.756-3.419,12.641a37.085,37.085,0,0,1-3.251,4.677c-.44.564-.9,1.115-1.383,1.644h15.272l1.695-18.962Z" transform="translate(-2158.014 -1497.053)" fill="#fafafa"/>
      </g>
    </g>
  </g>
</svg>
